<svg xmlns="http://www.w3.org/2000/svg" xmlns:xlink="http://www.w3.org/1999/xlink" width="1024" zoomAndPan="magnify" viewBox="0 0 768 767.999994" height="1024" preserveAspectRatio="xMidYMid meet" version="1.0"><defs><clipPath id="00c0cf190c"><path d="M 55 300 L 697 300 L 697 681.613281 L 55 681.613281 Z M 55 300 " clip-rule="nonzero"/></clipPath><clipPath id="7c36d1cb6c"><path d="M 573 86.113281 L 590 86.113281 L 590 103 L 573 103 Z M 573 86.113281 " clip-rule="nonzero"/></clipPath></defs><path fill="#6b99d2" d="M 365.238281 342.414062 L 366.910156 342.414062 C 364.933594 335.980469 363.972656 329.402344 364.023438 322.675781 C 364.023438 321.085938 364.078125 319.503906 364.191406 317.917969 C 364.300781 316.335938 364.46875 314.757812 364.695312 313.1875 C 364.917969 311.617188 365.195312 310.054688 365.527344 308.503906 C 365.863281 306.953125 366.25 305.414062 366.695312 303.890625 C 367.136719 302.367188 367.632812 300.859375 368.183594 299.371094 C 368.730469 297.882812 369.332031 296.414062 369.988281 294.96875 C 370.640625 293.519531 371.34375 292.097656 372.097656 290.703125 C 372.851562 289.304688 373.65625 287.9375 374.503906 286.597656 C 375.355469 285.257812 376.253906 283.949219 377.199219 282.671875 C 378.140625 281.398438 379.128906 280.15625 380.160156 278.949219 C 381.191406 277.742188 382.265625 276.574219 383.378906 275.441406 C 384.492188 274.3125 385.648438 273.222656 386.839844 272.171875 C 388.03125 271.125 389.257812 270.117188 390.519531 269.15625 C 391.78125 268.195312 393.078125 267.277344 394.40625 266.40625 C 395.730469 265.535156 397.089844 264.714844 398.476562 263.941406 C 399.859375 263.164062 401.273438 262.441406 402.710938 261.765625 C 404.144531 261.089844 405.605469 260.46875 407.085938 259.898438 C 408.566406 259.324219 410.066406 258.804688 411.585938 258.339844 C 413.105469 257.875 414.636719 257.464844 416.183594 257.109375 C 417.730469 256.75 419.289062 256.449219 420.855469 256.203125 C 422.425781 255.957031 424 255.765625 425.582031 255.628906 C 427.164062 255.492188 428.75 255.414062 430.335938 255.390625 C 431.925781 255.367188 433.511719 255.402344 435.097656 255.492188 C 436.683594 255.578125 438.261719 255.726562 439.835938 255.925781 C 441.410156 256.125 442.976562 256.382812 444.535156 256.695312 C 446.089844 257.007812 447.636719 257.371094 449.167969 257.792969 C 450.699219 258.214844 452.210938 258.6875 453.707031 259.21875 C 455.207031 259.746094 456.683594 260.324219 458.140625 260.957031 C 459.59375 261.589844 461.027344 262.273438 462.433594 263.007812 C 463.84375 263.742188 465.222656 264.523438 466.574219 265.355469 C 467.929688 266.1875 469.25 267.066406 470.539062 267.992188 C 471.828125 268.914062 473.085938 269.886719 474.308594 270.898438 C 474.589844 269.597656 474.902344 268.304688 475.242188 267.015625 C 475.582031 265.730469 475.953125 264.449219 476.351562 263.179688 C 476.753906 261.910156 477.183594 260.648438 477.640625 259.398438 C 478.097656 258.148438 478.582031 256.910156 479.097656 255.679688 C 479.613281 254.453125 480.152344 253.238281 480.722656 252.035156 C 481.292969 250.832031 481.890625 249.640625 482.515625 248.464844 C 483.140625 247.289062 483.792969 246.128906 484.472656 244.980469 C 485.148438 243.835938 485.851562 242.703125 486.582031 241.589844 C 487.3125 240.476562 488.066406 239.378906 488.847656 238.300781 C 489.628906 237.222656 490.433594 236.160156 491.261719 235.117188 C 492.089844 234.074219 492.941406 233.054688 493.816406 232.050781 C 494.691406 231.046875 495.589844 230.0625 496.511719 229.101562 C 497.433594 228.136719 498.375 227.199219 499.339844 226.277344 C 500.304688 225.359375 501.289062 224.464844 502.292969 223.589844 C 503.296875 222.714844 504.320312 221.863281 505.367188 221.039062 C 506.410156 220.210938 507.472656 219.40625 508.554688 218.628906 C 509.632812 217.851562 510.730469 217.097656 511.847656 216.371094 C 512.960938 215.640625 514.09375 214.9375 515.242188 214.261719 C 516.390625 213.585938 517.550781 212.9375 518.726562 212.3125 C 519.90625 211.691406 521.097656 211.09375 522.300781 210.527344 C 523.507812 209.957031 524.722656 209.417969 525.953125 208.90625 C 527.183594 208.390625 528.421875 207.90625 529.675781 207.453125 C 530.925781 206.996094 532.1875 206.570312 533.457031 206.171875 C 534.730469 205.773438 536.007812 205.402344 537.296875 205.066406 C 538.585938 204.726562 539.878906 204.414062 541.183594 204.136719 C 542.484375 203.855469 543.792969 203.605469 545.105469 203.382812 C 546.421875 203.164062 547.738281 202.972656 549.0625 202.816406 C 550.382812 202.65625 551.710938 202.523438 553.039062 202.425781 C 554.367188 202.328125 555.695312 202.257812 557.027344 202.21875 C 558.359375 202.183594 559.691406 202.175781 561.023438 202.199219 C 562.355469 202.21875 563.6875 202.273438 565.015625 202.359375 C 566.34375 202.441406 567.671875 202.554688 568.996094 202.699219 C 570.320312 202.84375 571.640625 203.019531 572.957031 203.226562 C 574.273438 203.429688 575.582031 203.664062 576.890625 203.929688 C 578.195312 204.195312 579.492188 204.488281 580.785156 204.816406 C 582.078125 205.140625 583.359375 205.492188 584.636719 205.875 C 585.914062 206.261719 587.179688 206.671875 588.4375 207.113281 C 589.691406 207.554688 590.9375 208.027344 592.171875 208.523438 C 593.410156 209.023438 594.632812 209.550781 595.84375 210.105469 C 597.054688 210.660156 598.253906 211.242188 599.4375 211.851562 C 600.621094 212.460938 601.789062 213.097656 602.945312 213.757812 C 604.101562 214.421875 605.242188 215.109375 606.363281 215.828125 C 607.488281 216.542969 608.59375 217.28125 609.683594 218.046875 C 610.773438 218.8125 611.84375 219.605469 612.898438 220.417969 C 613.953125 221.234375 614.984375 222.074219 616 222.9375 C 617.015625 223.796875 618.011719 224.683594 618.984375 225.589844 C 619.960938 226.5 620.914062 227.429688 621.84375 228.382812 C 622.777344 229.332031 623.683594 230.304688 624.574219 231.296875 C 625.460938 232.292969 626.324219 233.304688 627.164062 234.339844 C 628.003906 235.371094 628.820312 236.421875 629.613281 237.492188 C 630.40625 238.5625 631.175781 239.652344 631.917969 240.757812 C 632.660156 241.863281 633.375 242.984375 634.066406 244.121094 C 634.757812 245.261719 635.421875 246.414062 636.0625 247.582031 C 636.699219 248.75 637.308594 249.933594 637.894531 251.132812 C 638.476562 252.328125 639.035156 253.539062 639.5625 254.757812 C 640.089844 255.980469 640.59375 257.214844 641.0625 258.460938 C 641.535156 259.707031 641.980469 260.960938 642.394531 262.226562 C 642.808594 263.492188 643.191406 264.765625 643.550781 266.050781 C 643.90625 267.332031 644.230469 268.625 644.527344 269.921875 C 644.824219 271.21875 645.09375 272.523438 645.328125 273.832031 C 645.566406 275.144531 645.773438 276.460938 645.949219 277.777344 C 646.125 279.097656 646.273438 280.421875 646.386719 281.75 C 646.503906 283.074219 646.589844 284.402344 646.644531 285.734375 C 646.699219 287.0625 646.726562 288.394531 646.71875 289.726562 C 646.703125 295.296875 646.148438 300.816406 645.046875 306.277344 C 648.625 305.792969 652.222656 305.539062 655.832031 305.515625 C 657.828125 305.511719 659.820312 305.589844 661.8125 305.75 C 663.800781 305.910156 665.78125 306.148438 667.75 306.472656 C 669.71875 306.796875 671.671875 307.199219 673.609375 307.683594 C 675.546875 308.167969 677.460938 308.730469 679.351562 309.371094 C 681.238281 310.011719 683.101562 310.730469 684.929688 311.523438 C 686.761719 312.320312 688.558594 313.1875 690.316406 314.128906 C 692.074219 315.074219 693.792969 316.085938 695.46875 317.171875 C 697.144531 318.253906 698.773438 319.40625 700.351562 320.625 C 701.933594 321.84375 703.460938 323.125 704.9375 324.46875 C 706.410156 325.816406 707.828125 327.21875 709.1875 328.679688 C 710.546875 330.140625 711.84375 331.65625 713.078125 333.222656 C 714.308594 334.789062 715.476562 336.40625 716.578125 338.070312 C 717.679688 339.734375 718.710938 341.441406 719.667969 343.191406 C 720.628906 344.941406 721.515625 346.726562 722.328125 348.550781 C 723.140625 350.371094 723.875 352.222656 724.535156 354.109375 C 725.195312 355.992188 725.777344 357.898438 726.28125 359.828125 C 726.78125 361.757812 727.203125 363.707031 727.546875 365.671875 C 727.886719 367.640625 728.148438 369.617188 728.324219 371.601562 C 728.503906 373.589844 728.601562 375.582031 728.613281 377.578125 C 728.628906 379.570312 728.5625 381.5625 728.410156 383.554688 C 728.261719 385.542969 728.027344 387.523438 727.714844 389.492188 C 727.402344 391.464844 727.007812 393.417969 726.535156 395.355469 C 726.058594 397.292969 725.503906 399.207031 724.871094 401.101562 C 724.238281 402.992188 723.53125 404.855469 722.742188 406.691406 C 721.957031 408.523438 721.097656 410.320312 720.160156 412.085938 C 719.226562 413.847656 718.222656 415.570312 717.144531 417.25 C 716.066406 418.929688 714.921875 420.5625 713.710938 422.148438 C 712.5 423.734375 711.226562 425.265625 709.886719 426.746094 C 708.550781 428.226562 707.152344 429.648438 705.695312 431.015625 C 704.242188 432.378906 702.730469 433.683594 701.167969 434.925781 C 699.605469 436.164062 697.996094 437.339844 696.335938 438.449219 C 694.675781 439.554688 692.972656 440.59375 691.226562 441.5625 C 686.785156 444.5625 682 446.851562 676.878906 448.429688 C 671.753906 450.007812 666.511719 450.804688 661.148438 450.824219 L 365.238281 450.824219 C 363.46875 450.8125 361.703125 450.71875 359.9375 450.535156 C 358.175781 450.351562 356.429688 450.085938 354.691406 449.730469 C 352.957031 449.378906 351.242188 448.941406 349.546875 448.421875 C 347.855469 447.898438 346.191406 447.296875 344.558594 446.613281 C 342.921875 445.929688 341.324219 445.167969 339.765625 444.332031 C 338.207031 443.492188 336.691406 442.578125 335.21875 441.589844 C 333.75 440.601562 332.332031 439.546875 330.964844 438.421875 C 329.597656 437.292969 328.285156 436.105469 327.035156 434.851562 C 325.785156 433.597656 324.597656 432.285156 323.476562 430.914062 C 322.351562 429.542969 321.300781 428.125 320.316406 426.652344 C 319.332031 425.179688 318.421875 423.660156 317.585938 422.097656 C 316.75 420.539062 315.996094 418.9375 315.316406 417.304688 C 314.636719 415.667969 314.039062 414.003906 313.523438 412.308594 C 313.007812 410.617188 312.574219 408.902344 312.226562 407.164062 C 311.875 405.429688 311.613281 403.679688 311.4375 401.917969 C 311.257812 400.15625 311.167969 398.390625 311.160156 396.617188 C 311.167969 394.847656 311.257812 393.082031 311.4375 391.320312 C 311.613281 389.558594 311.875 387.808594 312.226562 386.074219 C 312.574219 384.335938 313.007812 382.621094 313.523438 380.929688 C 314.039062 379.234375 314.636719 377.570312 315.316406 375.933594 C 315.996094 374.296875 316.75 372.699219 317.585938 371.136719 C 318.421875 369.578125 319.332031 368.058594 320.316406 366.585938 C 321.300781 365.113281 322.351562 363.691406 323.476562 362.324219 C 324.597656 360.953125 325.785156 359.640625 327.035156 358.386719 C 328.285156 357.132812 329.597656 355.945312 330.964844 354.816406 C 332.332031 353.691406 333.75 352.636719 335.21875 351.648438 C 336.691406 350.660156 338.207031 349.746094 339.765625 348.90625 C 341.324219 348.066406 342.921875 347.304688 344.558594 346.625 C 346.191406 345.941406 347.855469 345.335938 349.546875 344.816406 C 351.242188 344.296875 352.957031 343.859375 354.691406 343.503906 C 356.429688 343.152344 358.175781 342.882812 359.9375 342.703125 C 361.703125 342.519531 363.46875 342.421875 365.238281 342.414062 Z M 365.238281 342.414062 " fill-opacity="1" fill-rule="nonzero"/><g clip-path="url(#00c0cf190c)"><path fill="#26477a" d="M 612.996094 515.507812 L 610.566406 515.507812 C 613.582031 505.609375 615.101562 495.484375 615.121094 485.140625 C 615.125 482.703125 615.039062 480.265625 614.867188 477.835938 C 614.695312 475.402344 614.4375 472.980469 614.097656 470.570312 C 613.753906 468.15625 613.324219 465.757812 612.8125 463.375 C 612.300781 460.992188 611.703125 458.628906 611.023438 456.289062 C 610.34375 453.949219 609.582031 451.632812 608.738281 449.347656 C 607.890625 447.0625 606.96875 444.804688 605.964844 442.585938 C 604.960938 440.363281 603.878906 438.179688 602.722656 436.035156 C 601.5625 433.890625 600.328125 431.789062 599.023438 429.730469 C 597.714844 427.675781 596.335938 425.664062 594.886719 423.707031 C 593.4375 421.746094 591.917969 419.839844 590.335938 417.988281 C 588.75 416.132812 587.101562 414.339844 585.390625 412.605469 C 583.675781 410.867188 581.90625 409.195312 580.074219 407.585938 C 578.246094 405.976562 576.359375 404.429688 574.421875 402.953125 C 572.480469 401.476562 570.492188 400.070312 568.449219 398.734375 C 566.410156 397.398438 564.328125 396.136719 562.199219 394.945312 C 560.070312 393.757812 557.902344 392.648438 555.691406 391.613281 C 553.484375 390.578125 551.242188 389.621094 548.96875 388.746094 C 546.691406 387.867188 544.390625 387.074219 542.058594 386.359375 C 539.726562 385.644531 537.371094 385.015625 534.996094 384.46875 C 532.617188 383.921875 530.226562 383.460938 527.816406 383.082031 C 525.40625 382.707031 522.988281 382.414062 520.558594 382.207031 C 518.128906 382.003906 515.695312 381.882812 513.253906 381.847656 C 510.816406 381.816406 508.378906 381.867188 505.945312 382.007812 C 503.511719 382.144531 501.085938 382.371094 498.667969 382.679688 C 496.246094 382.992188 493.84375 383.386719 491.453125 383.867188 C 489.0625 384.347656 486.691406 384.914062 484.339844 385.5625 C 481.988281 386.210938 479.664062 386.941406 477.367188 387.753906 C 475.066406 388.566406 472.800781 389.460938 470.5625 390.433594 C 468.328125 391.410156 466.128906 392.460938 463.96875 393.589844 C 461.808594 394.71875 459.691406 395.921875 457.613281 397.203125 C 455.539062 398.480469 453.511719 399.832031 451.53125 401.253906 C 449.550781 402.679688 447.625 404.167969 445.75 405.730469 C 445.316406 403.734375 444.839844 401.75 444.316406 399.777344 C 443.789062 397.804688 443.222656 395.847656 442.609375 393.898438 C 441.996094 391.953125 441.335938 390.023438 440.636719 388.105469 C 439.933594 386.191406 439.1875 384.289062 438.398438 382.40625 C 437.609375 380.527344 436.777344 378.664062 435.902344 376.820312 C 435.027344 374.976562 434.113281 373.152344 433.15625 371.347656 C 432.195312 369.546875 431.199219 367.769531 430.15625 366.011719 C 429.117188 364.253906 428.039062 362.523438 426.921875 360.816406 C 425.800781 359.109375 424.644531 357.429688 423.449219 355.773438 C 422.25 354.121094 421.019531 352.496094 419.746094 350.898438 C 418.476562 349.300781 417.171875 347.734375 415.828125 346.195312 C 414.484375 344.65625 413.109375 343.152344 411.699219 341.675781 C 410.285156 340.203125 408.839844 338.761719 407.363281 337.351562 C 405.886719 335.945312 404.378906 334.570312 402.835938 333.230469 C 401.296875 331.890625 399.726562 330.589844 398.125 329.320312 C 396.527344 328.054688 394.898438 326.824219 393.242188 325.632812 C 391.582031 324.4375 389.902344 323.285156 388.191406 322.167969 C 386.480469 321.054688 384.746094 319.976562 382.988281 318.941406 C 381.230469 317.90625 379.449219 316.910156 377.644531 315.953125 C 375.839844 315 374.011719 314.085938 372.167969 313.214844 C 370.320312 312.34375 368.457031 311.515625 366.570312 310.730469 C 364.6875 309.945312 362.785156 309.203125 360.867188 308.503906 C 358.949219 307.804688 357.015625 307.152344 355.066406 306.542969 C 353.117188 305.933594 351.15625 305.367188 349.183594 304.847656 C 347.207031 304.328125 345.222656 303.851562 343.226562 303.421875 C 341.230469 302.992188 339.226562 302.609375 337.214844 302.273438 C 335.199219 301.933594 333.179688 301.644531 331.152344 301.398438 C 329.125 301.152344 327.09375 300.957031 325.058594 300.804688 C 323.023438 300.652344 320.984375 300.546875 318.941406 300.488281 C 316.902344 300.429688 314.859375 300.417969 312.820312 300.453125 C 310.777344 300.488281 308.738281 300.570312 306.699219 300.699219 C 304.664062 300.828125 302.628906 301 300.601562 301.222656 C 298.570312 301.445312 296.546875 301.710938 294.527344 302.027344 C 292.511719 302.339844 290.503906 302.699219 288.503906 303.105469 C 286.5 303.511719 284.511719 303.964844 282.53125 304.460938 C 280.550781 304.960938 278.582031 305.503906 276.628906 306.089844 C 274.671875 306.675781 272.730469 307.308594 270.804688 307.984375 C 268.878906 308.660156 266.96875 309.382812 265.074219 310.144531 C 263.183594 310.910156 261.308594 311.714844 259.453125 312.566406 C 257.59375 313.414062 255.757812 314.308594 253.945312 315.242188 C 252.128906 316.175781 250.335938 317.148438 248.566406 318.167969 C 246.792969 319.183594 245.046875 320.238281 243.324219 321.332031 C 241.601562 322.429688 239.90625 323.5625 238.234375 324.738281 C 236.566406 325.910156 234.921875 327.121094 233.308594 328.371094 C 231.695312 329.621094 230.109375 330.90625 228.550781 332.226562 C 226.996094 333.546875 225.472656 334.90625 223.976562 336.296875 C 222.484375 337.6875 221.023438 339.113281 219.59375 340.570312 C 218.167969 342.027344 216.773438 343.519531 215.414062 345.039062 C 214.050781 346.5625 212.726562 348.113281 211.4375 349.699219 C 210.148438 351.28125 208.898438 352.890625 207.683594 354.53125 C 206.46875 356.171875 205.292969 357.839844 204.152344 359.53125 C 203.015625 361.226562 201.914062 362.945312 200.855469 364.691406 C 199.796875 366.433594 198.777344 368.203125 197.796875 369.992188 C 196.816406 371.785156 195.882812 373.597656 194.984375 375.429688 C 194.089844 377.265625 193.234375 379.117188 192.425781 380.992188 C 191.613281 382.863281 190.847656 384.753906 190.125 386.664062 C 189.398438 388.570312 188.71875 390.492188 188.082031 392.433594 C 187.449219 394.371094 186.855469 396.324219 186.308594 398.292969 C 185.761719 400.257812 185.261719 402.234375 184.808594 404.226562 C 184.351562 406.214844 183.941406 408.210938 183.578125 410.222656 C 183.214844 412.230469 182.894531 414.246094 182.625 416.265625 C 182.351562 418.289062 182.125 420.316406 181.949219 422.351562 C 181.769531 424.382812 181.636719 426.417969 181.550781 428.457031 C 181.464844 430.496094 181.425781 432.535156 181.433594 434.578125 C 181.46875 443.15625 182.28125 451.65625 183.867188 460.085938 C 178.375 459.292969 172.855469 458.886719 167.308594 458.871094 C 164.25 458.875 161.195312 459.003906 158.148438 459.253906 C 155.101562 459.507812 152.066406 459.886719 149.050781 460.390625 C 146.035156 460.894531 143.042969 461.519531 140.078125 462.269531 C 137.113281 463.019531 134.183594 463.886719 131.289062 464.878906 C 128.394531 465.867188 125.546875 466.976562 122.746094 468.199219 C 119.941406 469.421875 117.195312 470.761719 114.503906 472.210938 C 111.808594 473.660156 109.183594 475.21875 106.617188 476.886719 C 104.054688 478.554688 101.5625 480.324219 99.144531 482.195312 C 96.726562 484.066406 94.386719 486.03125 92.132812 488.097656 C 89.875 490.160156 87.707031 492.3125 85.628906 494.554688 C 83.550781 496.796875 81.566406 499.121094 79.675781 501.527344 C 77.789062 503.929688 76.003906 506.410156 74.320312 508.960938 C 72.636719 511.515625 71.058594 514.132812 69.589844 516.8125 C 68.121094 519.496094 66.765625 522.230469 65.523438 525.027344 C 64.28125 527.820312 63.15625 530.660156 62.144531 533.542969 C 61.136719 536.429688 60.246094 539.351562 59.480469 542.3125 C 58.710938 545.269531 58.066406 548.257812 57.542969 551.269531 C 57.019531 554.28125 56.621094 557.308594 56.347656 560.355469 C 56.074219 563.398438 55.925781 566.449219 55.902344 569.507812 C 55.882812 572.5625 55.984375 575.617188 56.214844 578.664062 C 56.441406 581.714844 56.796875 584.746094 57.277344 587.765625 C 57.753906 590.785156 58.355469 593.78125 59.082031 596.75 C 59.808594 599.722656 60.652344 602.65625 61.621094 605.558594 C 62.589844 608.457031 63.671875 611.3125 64.875 614.125 C 66.078125 616.933594 67.394531 619.691406 68.820312 622.394531 C 70.25 625.097656 71.789062 627.738281 73.433594 630.3125 C 75.082031 632.890625 76.832031 635.394531 78.683594 637.828125 C 80.535156 640.257812 82.484375 642.613281 84.53125 644.882812 C 86.578125 647.15625 88.714844 649.339844 90.941406 651.4375 C 93.167969 653.53125 95.476562 655.535156 97.867188 657.441406 C 100.257812 659.347656 102.722656 661.152344 105.261719 662.855469 C 107.800781 664.558594 110.40625 666.15625 113.078125 667.644531 C 116.464844 669.910156 119.996094 671.917969 123.679688 673.660156 C 127.363281 675.40625 131.152344 676.867188 135.050781 678.050781 C 138.953125 679.234375 142.917969 680.125 146.945312 680.722656 C 150.976562 681.320312 155.03125 681.617188 159.105469 681.613281 L 612.996094 681.613281 C 614.355469 681.613281 615.714844 681.578125 617.070312 681.507812 C 618.429688 681.4375 619.785156 681.335938 621.136719 681.199219 C 622.488281 681.066406 623.835938 680.898438 625.179688 680.695312 C 626.523438 680.496094 627.863281 680.261719 629.195312 679.992188 C 630.527344 679.726562 631.855469 679.425781 633.171875 679.09375 C 634.488281 678.765625 635.800781 678.398438 637.097656 678.003906 C 638.398438 677.609375 639.6875 677.179688 640.96875 676.722656 C 642.246094 676.261719 643.515625 675.773438 644.769531 675.253906 C 646.027344 674.730469 647.265625 674.179688 648.496094 673.597656 C 649.722656 673.015625 650.9375 672.402344 652.136719 671.761719 C 653.332031 671.121094 654.515625 670.453125 655.679688 669.753906 C 656.847656 669.054688 657.992188 668.328125 659.125 667.570312 C 660.253906 666.816406 661.363281 666.03125 662.457031 665.222656 C 663.546875 664.414062 664.617188 663.578125 665.667969 662.714844 C 666.71875 661.855469 667.746094 660.964844 668.753906 660.054688 C 669.761719 659.140625 670.746094 658.203125 671.707031 657.246094 C 672.667969 656.285156 673.605469 655.300781 674.515625 654.292969 C 675.429688 653.285156 676.316406 652.257812 677.179688 651.207031 C 678.042969 650.160156 678.878906 649.089844 679.6875 647.996094 C 680.5 646.90625 681.28125 645.796875 682.039062 644.667969 C 682.792969 643.539062 683.519531 642.390625 684.21875 641.226562 C 684.917969 640.0625 685.589844 638.878906 686.230469 637.683594 C 686.875 636.484375 687.484375 635.273438 688.066406 634.042969 C 688.648438 632.816406 689.199219 631.574219 689.722656 630.320312 C 690.242188 629.066406 690.734375 627.800781 691.191406 626.519531 C 691.652344 625.242188 692.078125 623.953125 692.476562 622.652344 C 692.871094 621.351562 693.234375 620.042969 693.566406 618.726562 C 693.898438 617.410156 694.199219 616.085938 694.464844 614.753906 C 694.734375 613.421875 694.96875 612.082031 695.167969 610.738281 C 695.371094 609.394531 695.539062 608.046875 695.675781 606.695312 C 695.808594 605.34375 695.910156 603.988281 695.980469 602.632812 C 696.050781 601.277344 696.085938 599.917969 696.085938 598.558594 C 696.082031 597.203125 696.042969 595.84375 695.972656 594.488281 C 695.902344 593.132812 695.796875 591.78125 695.660156 590.429688 C 695.523438 589.078125 695.351562 587.730469 695.148438 586.386719 C 694.945312 585.046875 694.710938 583.710938 694.441406 582.378906 C 694.171875 581.046875 693.871094 579.722656 693.539062 578.40625 C 693.203125 577.089844 692.839844 575.785156 692.441406 574.484375 C 692.042969 573.1875 691.617188 571.898438 691.15625 570.621094 C 690.695312 569.34375 690.203125 568.078125 689.683594 566.824219 C 689.160156 565.570312 688.609375 564.328125 688.023438 563.101562 C 687.441406 561.875 686.828125 560.664062 686.1875 559.46875 C 685.546875 558.273438 684.875 557.089844 684.175781 555.925781 C 683.476562 554.765625 682.746094 553.617188 681.992188 552.488281 C 681.234375 551.359375 680.453125 550.25 679.644531 549.160156 C 678.832031 548.070312 677.996094 547 677.132812 545.953125 C 676.273438 544.902344 675.382812 543.875 674.472656 542.871094 C 673.558594 541.863281 672.621094 540.878906 671.664062 539.921875 C 670.703125 538.960938 669.71875 538.023438 668.710938 537.113281 C 667.707031 536.199219 666.675781 535.3125 665.628906 534.449219 C 664.578125 533.589844 663.507812 532.753906 662.417969 531.945312 C 661.328125 531.132812 660.21875 530.351562 659.089844 529.597656 C 657.960938 528.839844 656.8125 528.113281 655.648438 527.414062 C 654.484375 526.714844 653.300781 526.042969 652.105469 525.402344 C 650.910156 524.761719 649.695312 524.148438 648.46875 523.566406 C 647.242188 522.984375 646 522.429688 644.746094 521.910156 C 643.492188 521.386719 642.226562 520.894531 640.949219 520.4375 C 639.671875 519.976562 638.382812 519.546875 637.082031 519.148438 C 635.785156 518.753906 634.476562 518.386719 633.160156 518.054688 C 631.839844 517.722656 630.515625 517.421875 629.183594 517.152344 C 627.855469 516.882812 626.515625 516.648438 625.171875 516.445312 C 623.828125 516.242188 622.484375 516.070312 621.132812 515.933594 C 619.78125 515.796875 618.425781 515.691406 617.070312 515.621094 C 615.710938 515.550781 614.355469 515.511719 612.996094 515.507812 Z M 612.996094 515.507812 " fill-opacity="1" fill-rule="nonzero"/></g><path fill="#26477a" d="M 390 164.308594 C 390 164.839844 389.949219 165.363281 389.84375 165.878906 C 389.742188 166.398438 389.589844 166.902344 389.386719 167.390625 C 389.183594 167.878906 388.9375 168.339844 388.644531 168.78125 C 388.351562 169.21875 388.015625 169.625 387.640625 170 C 387.269531 170.375 386.863281 170.707031 386.421875 171 C 385.984375 171.292969 385.519531 171.542969 385.03125 171.746094 C 384.542969 171.945312 384.039062 172.097656 383.519531 172.203125 C 383 172.304688 382.476562 172.355469 381.949219 172.355469 C 381.421875 172.355469 380.898438 172.304688 380.378906 172.203125 C 379.859375 172.097656 379.355469 171.945312 378.867188 171.746094 C 378.378906 171.542969 377.914062 171.292969 377.476562 171 C 377.035156 170.707031 376.628906 170.375 376.257812 170 C 375.882812 169.625 375.546875 169.21875 375.253906 168.78125 C 374.960938 168.339844 374.714844 167.878906 374.511719 167.390625 C 374.308594 166.902344 374.15625 166.398438 374.054688 165.878906 C 373.949219 165.363281 373.898438 164.839844 373.898438 164.308594 C 373.898438 163.78125 373.949219 163.257812 374.054688 162.738281 C 374.15625 162.222656 374.308594 161.71875 374.511719 161.230469 C 374.714844 160.742188 374.960938 160.277344 375.253906 159.839844 C 375.546875 159.398438 375.882812 158.992188 376.257812 158.621094 C 376.628906 158.246094 377.035156 157.914062 377.476562 157.617188 C 377.914062 157.324219 378.378906 157.078125 378.867188 156.875 C 379.355469 156.671875 379.859375 156.519531 380.378906 156.417969 C 380.898438 156.3125 381.421875 156.261719 381.949219 156.261719 C 382.476562 156.261719 383 156.3125 383.519531 156.417969 C 384.039062 156.519531 384.542969 156.671875 385.03125 156.875 C 385.519531 157.078125 385.984375 157.324219 386.421875 157.617188 C 386.863281 157.914062 387.269531 158.246094 387.640625 158.621094 C 388.015625 158.992188 388.351562 159.398438 388.644531 159.839844 C 388.9375 160.277344 389.183594 160.742188 389.386719 161.230469 C 389.589844 161.71875 389.742188 162.222656 389.84375 162.738281 C 389.949219 163.257812 390 163.78125 390 164.308594 Z M 390 164.308594 " fill-opacity="1" fill-rule="nonzero"/><g clip-path="url(#7c36d1cb6c)"><path fill="#26477a" d="M 589.148438 94.160156 C 589.148438 94.691406 589.09375 95.214844 588.992188 95.730469 C 588.890625 96.25 588.738281 96.753906 588.535156 97.242188 C 588.332031 97.730469 588.082031 98.191406 587.789062 98.632812 C 587.496094 99.070312 587.164062 99.480469 586.789062 99.851562 C 586.414062 100.226562 586.007812 100.558594 585.570312 100.851562 C 585.128906 101.148438 584.664062 101.394531 584.175781 101.597656 C 583.6875 101.796875 583.183594 101.953125 582.667969 102.054688 C 582.148438 102.15625 581.625 102.210938 581.097656 102.210938 C 580.566406 102.210938 580.042969 102.15625 579.523438 102.054688 C 579.007812 101.953125 578.503906 101.796875 578.015625 101.597656 C 577.527344 101.394531 577.0625 101.148438 576.625 100.851562 C 576.183594 100.558594 575.777344 100.226562 575.402344 99.851562 C 575.03125 99.480469 574.695312 99.070312 574.402344 98.632812 C 574.109375 98.191406 573.859375 97.730469 573.65625 97.242188 C 573.457031 96.753906 573.304688 96.25 573.199219 95.730469 C 573.097656 95.214844 573.046875 94.691406 573.046875 94.160156 C 573.046875 93.632812 573.097656 93.109375 573.199219 92.59375 C 573.304688 92.074219 573.457031 91.570312 573.65625 91.082031 C 573.859375 90.59375 574.109375 90.128906 574.402344 89.691406 C 574.695312 89.25 575.03125 88.84375 575.402344 88.472656 C 575.777344 88.097656 576.183594 87.765625 576.625 87.472656 C 577.0625 87.175781 577.527344 86.929688 578.015625 86.726562 C 578.503906 86.523438 579.007812 86.371094 579.523438 86.269531 C 580.042969 86.167969 580.566406 86.113281 581.097656 86.113281 C 581.625 86.113281 582.148438 86.167969 582.667969 86.269531 C 583.183594 86.371094 583.6875 86.523438 584.175781 86.726562 C 584.664062 86.929688 585.128906 87.175781 585.570312 87.472656 C 586.007812 87.765625 586.414062 88.097656 586.789062 88.472656 C 587.164062 88.84375 587.496094 89.25 587.789062 89.691406 C 588.082031 90.128906 588.332031 90.59375 588.535156 91.082031 C 588.738281 91.570312 588.890625 92.074219 588.992188 92.59375 C 589.09375 93.109375 589.148438 93.632812 589.148438 94.160156 Z M 589.148438 94.160156 " fill-opacity="1" fill-rule="nonzero"/></g><path fill="#26477a" d="M 181.285156 117.695312 C 181.285156 118.226562 181.230469 118.75 181.128906 119.265625 C 181.027344 119.785156 180.871094 120.289062 180.671875 120.777344 C 180.46875 121.265625 180.21875 121.726562 179.925781 122.167969 C 179.632812 122.605469 179.300781 123.011719 178.925781 123.386719 C 178.550781 123.761719 178.144531 124.09375 177.707031 124.386719 C 177.265625 124.679688 176.800781 124.929688 176.3125 125.132812 C 175.824219 125.332031 175.320312 125.484375 174.804688 125.589844 C 174.285156 125.691406 173.761719 125.742188 173.234375 125.742188 C 172.703125 125.742188 172.179688 125.691406 171.660156 125.589844 C 171.144531 125.484375 170.640625 125.332031 170.152344 125.132812 C 169.664062 124.929688 169.199219 124.679688 168.757812 124.386719 C 168.320312 124.09375 167.914062 123.761719 167.539062 123.386719 C 167.164062 123.011719 166.832031 122.605469 166.539062 122.167969 C 166.246094 121.726562 165.996094 121.265625 165.792969 120.777344 C 165.59375 120.289062 165.4375 119.785156 165.335938 119.265625 C 165.234375 118.75 165.179688 118.226562 165.179688 117.695312 C 165.179688 117.167969 165.234375 116.644531 165.335938 116.125 C 165.4375 115.609375 165.59375 115.105469 165.792969 114.617188 C 165.996094 114.128906 166.246094 113.664062 166.539062 113.226562 C 166.832031 112.785156 167.164062 112.378906 167.539062 112.007812 C 167.914062 111.632812 168.320312 111.300781 168.757812 111.003906 C 169.199219 110.710938 169.664062 110.464844 170.152344 110.261719 C 170.640625 110.058594 171.144531 109.90625 171.660156 109.804688 C 172.179688 109.699219 172.703125 109.648438 173.234375 109.648438 C 173.761719 109.648438 174.285156 109.699219 174.804688 109.804688 C 175.320312 109.90625 175.824219 110.058594 176.3125 110.261719 C 176.800781 110.464844 177.265625 110.710938 177.707031 111.003906 C 178.144531 111.300781 178.550781 111.632812 178.925781 112.007812 C 179.300781 112.378906 179.632812 112.785156 179.925781 113.226562 C 180.21875 113.664062 180.46875 114.128906 180.671875 114.617188 C 180.871094 115.105469 181.027344 115.609375 181.128906 116.125 C 181.230469 116.644531 181.285156 117.167969 181.285156 117.695312 Z M 181.285156 117.695312 " fill-opacity="1" fill-rule="nonzero"/><path fill="#26477a" d="M 696.085938 248.125 C 696.085938 248.652344 696.035156 249.175781 695.933594 249.691406 C 695.828125 250.210938 695.675781 250.714844 695.476562 251.203125 C 695.273438 251.691406 695.023438 252.15625 694.730469 252.59375 C 694.4375 253.035156 694.101562 253.441406 693.730469 253.8125 C 693.355469 254.1875 692.949219 254.519531 692.507812 254.8125 C 692.070312 255.109375 691.605469 255.355469 691.117188 255.558594 C 690.628906 255.761719 690.125 255.914062 689.609375 256.015625 C 689.089844 256.117188 688.566406 256.171875 688.035156 256.171875 C 687.507812 256.171875 686.984375 256.117188 686.464844 256.015625 C 685.949219 255.914062 685.445312 255.761719 684.957031 255.558594 C 684.46875 255.355469 684.003906 255.109375 683.5625 254.8125 C 683.125 254.519531 682.71875 254.1875 682.34375 253.8125 C 681.96875 253.441406 681.636719 253.035156 681.34375 252.59375 C 681.050781 252.15625 680.800781 251.691406 680.597656 251.203125 C 680.394531 250.714844 680.242188 250.210938 680.140625 249.691406 C 680.039062 249.175781 679.984375 248.652344 679.984375 248.125 C 679.984375 247.59375 680.039062 247.070312 680.140625 246.554688 C 680.242188 246.035156 680.394531 245.53125 680.597656 245.042969 C 680.800781 244.554688 681.050781 244.09375 681.34375 243.652344 C 681.636719 243.214844 681.96875 242.804688 682.34375 242.433594 C 682.71875 242.058594 683.125 241.726562 683.5625 241.433594 C 684.003906 241.136719 684.46875 240.890625 684.957031 240.6875 C 685.445312 240.488281 685.949219 240.332031 686.464844 240.230469 C 686.984375 240.128906 687.507812 240.074219 688.035156 240.074219 C 688.566406 240.074219 689.089844 240.128906 689.609375 240.230469 C 690.125 240.332031 690.628906 240.488281 691.117188 240.6875 C 691.605469 240.890625 692.070312 241.136719 692.507812 241.433594 C 692.949219 241.726562 693.355469 242.058594 693.730469 242.433594 C 694.101562 242.804688 694.4375 243.214844 694.730469 243.652344 C 695.023438 244.09375 695.273438 244.554688 695.476562 245.042969 C 695.675781 245.53125 695.828125 246.035156 695.933594 246.554688 C 696.035156 247.070312 696.085938 247.59375 696.085938 248.125 Z M 696.085938 248.125 " fill-opacity="1" fill-rule="nonzero"/><path fill="#26477a" d="M 55.660156 352.890625 C 55.660156 353.417969 55.605469 353.941406 55.503906 354.460938 C 55.402344 354.976562 55.246094 355.480469 55.046875 355.96875 C 54.84375 356.457031 54.59375 356.921875 54.300781 357.359375 C 54.007812 357.800781 53.675781 358.207031 53.300781 358.582031 C 52.925781 358.953125 52.519531 359.289062 52.082031 359.582031 C 51.640625 359.875 51.175781 360.121094 50.6875 360.324219 C 50.199219 360.527344 49.695312 360.679688 49.179688 360.78125 C 48.660156 360.886719 48.136719 360.9375 47.609375 360.9375 C 47.078125 360.9375 46.554688 360.886719 46.035156 360.78125 C 45.519531 360.679688 45.015625 360.527344 44.527344 360.324219 C 44.039062 360.121094 43.574219 359.875 43.132812 359.582031 C 42.695312 359.289062 42.289062 358.953125 41.914062 358.582031 C 41.539062 358.207031 41.207031 357.800781 40.914062 357.359375 C 40.621094 356.921875 40.371094 356.457031 40.167969 355.96875 C 39.96875 355.480469 39.8125 354.976562 39.710938 354.460938 C 39.609375 353.941406 39.554688 353.417969 39.554688 352.890625 C 39.554688 352.363281 39.609375 351.839844 39.710938 351.320312 C 39.8125 350.800781 39.96875 350.296875 40.167969 349.808594 C 40.371094 349.324219 40.621094 348.859375 40.914062 348.417969 C 41.207031 347.980469 41.539062 347.574219 41.914062 347.199219 C 42.289062 346.824219 42.695312 346.492188 43.132812 346.199219 C 43.574219 345.90625 44.039062 345.65625 44.527344 345.457031 C 45.015625 345.253906 45.519531 345.101562 46.035156 344.996094 C 46.554688 344.894531 47.078125 344.84375 47.609375 344.84375 C 48.136719 344.84375 48.660156 344.894531 49.179688 344.996094 C 49.695312 345.101562 50.199219 345.253906 50.6875 345.457031 C 51.175781 345.65625 51.640625 345.90625 52.082031 346.199219 C 52.519531 346.492188 52.925781 346.824219 53.300781 347.199219 C 53.675781 347.574219 54.007812 347.980469 54.300781 348.417969 C 54.59375 348.859375 54.84375 349.324219 55.046875 349.808594 C 55.246094 350.296875 55.402344 350.800781 55.503906 351.320312 C 55.605469 351.839844 55.660156 352.363281 55.660156 352.890625 Z M 55.660156 352.890625 " fill-opacity="1" fill-rule="nonzero"/><path fill="#ffb544" d="M 371.011719 456.746094 C 369.179688 458.164062 367.320312 459.542969 365.429688 460.878906 C 363.539062 462.21875 361.621094 463.511719 359.671875 464.765625 C 357.726562 466.019531 355.753906 467.230469 353.753906 468.398438 C 351.75 469.566406 349.726562 470.691406 347.679688 471.769531 C 345.628906 472.851562 343.558594 473.882812 341.460938 474.875 C 339.367188 475.863281 337.253906 476.804688 335.117188 477.703125 C 332.980469 478.597656 330.828125 479.449219 328.65625 480.25 C 326.480469 481.054688 324.292969 481.808594 322.085938 482.515625 C 319.882812 483.222656 317.660156 483.882812 315.425781 484.492188 C 313.191406 485.101562 310.945312 485.664062 308.6875 486.175781 C 306.429688 486.6875 304.160156 487.152344 301.878906 487.566406 C 299.601562 487.980469 297.3125 488.34375 295.019531 488.65625 C 292.722656 488.96875 290.421875 489.234375 288.117188 489.445312 C 285.808594 489.660156 283.5 489.820312 281.1875 489.933594 C 278.871094 490.046875 276.558594 490.109375 274.242188 490.121094 C 271.925781 490.132812 269.609375 490.089844 267.292969 490.003906 C 264.980469 489.914062 262.667969 489.773438 260.359375 489.582031 C 258.050781 489.390625 255.746094 489.152344 253.449219 488.859375 C 251.152344 488.570312 248.859375 488.226562 246.578125 487.835938 C 244.292969 487.445312 242.019531 487.003906 239.757812 486.515625 C 237.492188 486.023438 235.242188 485.484375 233 484.898438 C 230.761719 484.308594 228.535156 483.671875 226.320312 482.984375 C 224.109375 482.300781 221.914062 481.566406 219.734375 480.785156 C 217.550781 480.003906 215.390625 479.175781 213.246094 478.300781 C 211.101562 477.425781 208.976562 476.5 206.871094 475.535156 C 204.769531 474.566406 202.6875 473.550781 200.628906 472.492188 C 198.566406 471.433594 196.53125 470.328125 194.519531 469.179688 C 192.507812 468.03125 190.523438 466.839844 188.5625 465.605469 C 186.605469 464.371094 184.671875 463.09375 182.769531 461.777344 C 180.863281 460.457031 178.992188 459.097656 177.148438 457.695312 C 175.300781 456.296875 173.488281 454.855469 171.707031 453.375 C 169.925781 451.894531 168.179688 450.378906 166.464844 448.820312 C 164.746094 447.265625 163.066406 445.671875 161.421875 444.042969 C 159.777344 442.414062 158.167969 440.75 156.59375 439.050781 C 155.019531 437.347656 153.484375 435.617188 151.988281 433.847656 C 150.492188 432.082031 149.035156 430.285156 147.613281 428.453125 C 146.195312 426.625 144.816406 424.761719 143.480469 422.871094 C 142.144531 420.984375 140.847656 419.0625 139.59375 417.117188 C 138.339844 415.171875 137.128906 413.195312 135.960938 411.195312 C 134.792969 409.195312 133.671875 407.171875 132.59375 405.125 C 131.511719 403.074219 130.480469 401.003906 129.492188 398.910156 C 128.503906 396.816406 127.558594 394.703125 126.664062 392.566406 C 125.765625 390.433594 124.917969 388.277344 124.117188 386.105469 C 123.3125 383.933594 122.558594 381.746094 121.851562 379.539062 C 121.144531 377.335938 120.488281 375.117188 119.878906 372.882812 C 119.269531 370.648438 118.707031 368.402344 118.195312 366.144531 C 117.683594 363.886719 117.222656 361.617188 116.808594 359.339844 C 116.398438 357.0625 116.035156 354.777344 115.722656 352.480469 C 115.410156 350.1875 115.144531 347.886719 114.933594 345.582031 C 114.722656 343.277344 114.558594 340.96875 114.449219 338.65625 C 114.335938 336.34375 114.277344 334.027344 114.265625 331.710938 C 114.253906 329.398438 114.296875 327.082031 114.386719 324.769531 C 114.476562 322.457031 114.617188 320.144531 114.808594 317.839844 C 115 315.53125 115.242188 313.226562 115.535156 310.929688 C 115.828125 308.632812 116.167969 306.34375 116.5625 304.0625 C 116.953125 301.78125 117.394531 299.507812 117.886719 297.246094 C 118.378906 294.984375 118.917969 292.734375 119.507812 290.492188 C 120.097656 288.253906 120.734375 286.03125 121.421875 283.820312 C 122.109375 281.605469 122.84375 279.410156 123.625 277.234375 C 124.410156 275.054688 125.238281 272.894531 126.117188 270.75 C 126.992188 268.605469 127.917969 266.484375 128.886719 264.382812 C 129.855469 262.277344 130.871094 260.199219 131.929688 258.140625 C 132.992188 256.082031 134.097656 254.046875 135.246094 252.035156 C 136.394531 250.027344 137.589844 248.042969 138.824219 246.085938 C 140.0625 244.125 141.339844 242.195312 142.660156 240.292969 C 143.980469 238.390625 145.339844 236.519531 146.742188 234.675781 C 148.144531 232.832031 149.585938 231.019531 151.070312 229.242188 C 152.550781 227.460938 154.070312 225.714844 155.628906 224 C 157.183594 222.285156 158.777344 220.609375 160.410156 218.964844 C 162.039062 217.320312 163.707031 215.710938 165.40625 214.140625 C 167.109375 212.570312 168.84375 211.035156 170.613281 209.539062 C 172.378906 208.042969 174.179688 206.585938 176.011719 205.167969 C 177.84375 203.753906 179.703125 202.375 181.597656 201.039062 C 183.488281 199.703125 185.410156 198.410156 187.355469 197.15625 C 189.304688 195.90625 191.28125 194.695312 193.28125 193.527344 C 195.28125 192.363281 197.308594 191.242188 199.359375 190.164062 C 201.40625 189.085938 203.480469 188.054688 205.574219 187.066406 C 207.671875 186.078125 209.785156 185.136719 211.921875 184.242188 C 214.058594 183.347656 216.214844 182.5 218.386719 181.699219 C 220.5625 180.898438 222.75 180.144531 224.957031 179.4375 C 227.164062 178.734375 229.382812 178.078125 231.617188 177.46875 C 233.855469 176.859375 236.101562 176.300781 238.359375 175.789062 C 240.621094 175.277344 242.890625 174.816406 245.167969 174.40625 C 247.449219 173.996094 249.734375 173.632812 252.03125 173.320312 C 254.328125 173.011719 256.628906 172.75 258.933594 172.539062 C 261.242188 172.328125 263.550781 172.164062 265.863281 172.054688 C 268.179688 171.945312 270.492188 171.882812 272.808594 171.875 C 275.125 171.867188 277.441406 171.90625 279.757812 172 C 282.070312 172.089844 284.382812 172.230469 286.691406 172.425781 C 289 172.617188 291.300781 172.859375 293.601562 173.152344 C 295.898438 173.445312 298.1875 173.789062 300.46875 174.179688 C 302.753906 174.574219 305.027344 175.015625 307.289062 175.507812 C 309.554688 176 311.804688 176.542969 314.046875 177.132812 C 316.285156 177.722656 318.511719 178.359375 320.722656 179.046875 C 322.933594 179.734375 325.128906 180.46875 327.308594 181.253906 C 329.492188 182.035156 331.652344 182.867188 333.796875 183.746094 C 331.492188 183.96875 329.195312 184.246094 326.910156 184.585938 C 324.621094 184.921875 322.339844 185.320312 320.074219 185.773438 C 317.804688 186.222656 315.546875 186.734375 313.304688 187.300781 C 311.0625 187.867188 308.835938 188.488281 306.621094 189.164062 C 304.410156 189.84375 302.21875 190.578125 300.042969 191.367188 C 297.867188 192.152344 295.714844 192.996094 293.582031 193.894531 C 291.449219 194.789062 289.339844 195.738281 287.257812 196.742188 C 285.171875 197.746094 283.113281 198.800781 281.082031 199.90625 C 279.050781 201.011719 277.046875 202.167969 275.074219 203.375 C 273.101562 204.582031 271.160156 205.839844 269.25 207.144531 C 267.339844 208.449219 265.464844 209.800781 263.621094 211.199219 C 261.777344 212.597656 259.972656 214.042969 258.203125 215.53125 C 256.433594 217.023438 254.703125 218.554688 253.011719 220.132812 C 251.320312 221.707031 249.667969 223.328125 248.058594 224.988281 C 246.445312 226.648438 244.878906 228.347656 243.355469 230.085938 C 241.828125 231.824219 240.347656 233.601562 238.914062 235.414062 C 237.476562 237.226562 236.089844 239.074219 234.746094 240.957031 C 233.402344 242.839844 232.109375 244.757812 230.863281 246.703125 C 229.617188 248.652344 228.417969 250.632812 227.273438 252.640625 C 226.125 254.648438 225.03125 256.683594 223.988281 258.746094 C 222.941406 260.8125 221.949219 262.898438 221.011719 265.011719 C 220.074219 267.125 219.1875 269.261719 218.355469 271.417969 C 217.523438 273.578125 216.746094 275.753906 216.027344 277.953125 C 215.304688 280.148438 214.636719 282.363281 214.027344 284.59375 C 213.417969 286.824219 212.863281 289.066406 212.367188 291.328125 C 211.867188 293.585938 211.425781 295.855469 211.042969 298.132812 C 210.660156 300.414062 210.335938 302.703125 210.066406 305 C 209.800781 307.296875 209.589844 309.597656 209.4375 311.90625 C 209.285156 314.214844 209.191406 316.523438 209.15625 318.835938 C 209.121094 321.148438 209.140625 323.460938 209.222656 325.769531 C 209.304688 328.082031 209.441406 330.390625 209.636719 332.691406 C 209.835938 334.996094 210.089844 337.296875 210.402344 339.585938 C 210.714844 341.878906 211.082031 344.160156 211.511719 346.433594 C 211.9375 348.703125 212.421875 350.964844 212.964844 353.214844 C 213.503906 355.460938 214.101562 357.695312 214.753906 359.914062 C 215.410156 362.132812 216.117188 364.332031 216.882812 366.515625 C 217.644531 368.695312 218.464844 370.859375 219.335938 373 C 220.210938 375.140625 221.136719 377.261719 222.117188 379.355469 C 223.097656 381.449219 224.128906 383.519531 225.210938 385.5625 C 226.296875 387.605469 227.429688 389.617188 228.617188 391.605469 C 229.800781 393.589844 231.035156 395.546875 232.320312 397.46875 C 233.601562 399.394531 234.933594 401.285156 236.3125 403.140625 C 237.691406 404.996094 239.117188 406.816406 240.585938 408.601562 C 242.058594 410.386719 243.570312 412.136719 245.128906 413.84375 C 246.6875 415.554688 248.289062 417.222656 249.929688 418.851562 C 251.574219 420.480469 253.257812 422.066406 254.976562 423.609375 C 256.699219 425.152344 258.460938 426.652344 260.257812 428.109375 C 262.054688 429.5625 263.890625 430.972656 265.757812 432.335938 C 267.628906 433.699219 269.527344 435.015625 271.464844 436.28125 C 273.398438 437.550781 275.363281 438.769531 277.359375 439.9375 C 279.355469 441.105469 281.382812 442.222656 283.433594 443.289062 C 285.488281 444.355469 287.566406 445.371094 289.667969 446.332031 C 291.773438 447.296875 293.898438 448.203125 296.046875 449.058594 C 298.195312 449.914062 300.367188 450.714844 302.554688 451.460938 C 304.746094 452.207031 306.953125 452.898438 309.175781 453.535156 C 311.402344 454.171875 313.640625 454.75 315.894531 455.273438 C 318.148438 455.792969 320.414062 456.261719 322.691406 456.667969 C 324.96875 457.078125 327.253906 457.429688 329.546875 457.722656 C 331.84375 458.015625 334.144531 458.253906 336.449219 458.429688 C 338.757812 458.609375 341.066406 458.726562 343.378906 458.789062 C 345.691406 458.851562 348.003906 458.855469 350.316406 458.800781 C 352.628906 458.746094 354.941406 458.632812 357.246094 458.464844 C 359.554688 458.292969 361.855469 458.0625 364.152344 457.777344 C 366.445312 457.492188 368.734375 457.148438 371.011719 456.746094 Z M 371.011719 456.746094 " fill-opacity="1" fill-rule="nonzero"/></svg>