<svg xmlns="http://www.w3.org/2000/svg" xmlns:xlink="http://www.w3.org/1999/xlink" width="1080" zoomAndPan="magnify" viewBox="0 0 810 1439.999935" height="1920" preserveAspectRatio="xMidYMid meet" version="1.0"><defs><clipPath id="b44bf87745"><path d="M 391 566.082031 L 395 566.082031 L 395 631 L 391 631 Z M 391 566.082031 " clip-rule="nonzero"/></clipPath><clipPath id="b9a74f7e70"><path d="M 380 566.082031 L 406 566.082031 L 406 641 L 380 641 Z M 380 566.082031 " clip-rule="nonzero"/></clipPath><clipPath id="68bb2fb658"><path d="M 243 700 L 318 700 L 318 725 L 243 725 Z M 243 700 " clip-rule="nonzero"/></clipPath><clipPath id="042f981fd4"><path d="M 300 715 L 567 715 L 567 873.582031 L 300 873.582031 Z M 300 715 " clip-rule="nonzero"/></clipPath></defs><path fill="#ffb544" d="M 464.339844 710.445312 C 464.339844 711.605469 464.308594 712.765625 464.25 713.925781 C 464.191406 715.085938 464.101562 716.242188 463.984375 717.398438 C 463.871094 718.550781 463.726562 719.703125 463.550781 720.851562 C 463.378906 721.996094 463.179688 723.140625 462.949219 724.277344 C 462.722656 725.414062 462.464844 726.546875 462.179688 727.671875 C 461.894531 728.796875 461.585938 729.914062 461.246094 731.023438 C 460.90625 732.136719 460.539062 733.234375 460.144531 734.328125 C 459.753906 735.421875 459.332031 736.5 458.886719 737.574219 C 458.441406 738.644531 457.96875 739.703125 457.46875 740.753906 C 456.972656 741.800781 456.445312 742.835938 455.898438 743.859375 C 455.347656 744.882812 454.773438 745.890625 454.175781 746.882812 C 453.578125 747.878906 452.953125 748.859375 452.308594 749.820312 C 451.660156 750.785156 450.988281 751.734375 450.296875 752.664062 C 449.601562 753.59375 448.886719 754.507812 448.148438 755.40625 C 447.410156 756.300781 446.648438 757.179688 445.867188 758.039062 C 445.085938 758.894531 444.285156 759.734375 443.460938 760.554688 C 442.640625 761.375 441.796875 762.171875 440.9375 762.949219 C 440.074219 763.730469 439.195312 764.484375 438.296875 765.222656 C 437.394531 765.957031 436.480469 766.667969 435.546875 767.359375 C 434.613281 768.050781 433.660156 768.714844 432.695312 769.359375 C 431.726562 770.003906 430.746094 770.621094 429.75 771.21875 C 428.75 771.8125 427.742188 772.382812 426.714844 772.929688 C 425.691406 773.476562 424.652344 773.996094 423.601562 774.492188 C 422.550781 774.988281 421.488281 775.457031 420.414062 775.898438 C 419.339844 776.339844 418.257812 776.757812 417.164062 777.148438 C 416.066406 777.539062 414.964844 777.902344 413.851562 778.234375 C 412.742188 778.570312 411.621094 778.878906 410.496094 779.160156 C 409.367188 779.441406 408.234375 779.695312 407.09375 779.921875 C 405.953125 780.144531 404.808594 780.34375 403.660156 780.511719 C 402.511719 780.683594 401.359375 780.824219 400.203125 780.9375 C 399.046875 781.050781 397.886719 781.132812 396.726562 781.191406 C 395.566406 781.246094 394.40625 781.273438 393.246094 781.273438 C 392.082031 781.273438 390.921875 781.242188 389.761719 781.183594 C 388.601562 781.128906 387.441406 781.042969 386.285156 780.925781 C 385.128906 780.8125 383.976562 780.667969 382.828125 780.5 C 381.679688 780.328125 380.535156 780.128906 379.394531 779.902344 C 378.257812 779.675781 377.125 779.421875 375.996094 779.136719 C 374.871094 778.855469 373.75 778.546875 372.640625 778.207031 C 371.527344 777.871094 370.425781 777.507812 369.332031 777.113281 C 368.238281 776.722656 367.15625 776.304688 366.082031 775.859375 C 365.007812 775.417969 363.945312 774.945312 362.898438 774.449219 C 361.847656 773.953125 360.808594 773.429688 359.785156 772.882812 C 358.761719 772.335938 357.75 771.765625 356.753906 771.167969 C 355.757812 770.570312 354.777344 769.949219 353.8125 769.304688 C 352.84375 768.660156 351.894531 767.992188 350.960938 767.300781 C 350.03125 766.609375 349.113281 765.894531 348.214844 765.160156 C 347.316406 764.421875 346.4375 763.664062 345.578125 762.886719 C 344.71875 762.105469 343.875 761.304688 343.054688 760.484375 C 342.234375 759.664062 341.433594 758.824219 340.652344 757.964844 C 339.871094 757.105469 339.113281 756.226562 338.375 755.328125 C 337.640625 754.433594 336.925781 753.519531 336.230469 752.585938 C 335.539062 751.652344 334.871094 750.707031 334.226562 749.742188 C 333.578125 748.777344 332.957031 747.796875 332.359375 746.800781 C 331.761719 745.804688 331.191406 744.796875 330.644531 743.773438 C 330.09375 742.75 329.574219 741.714844 329.074219 740.664062 C 328.578125 739.617188 328.105469 738.554688 327.664062 737.484375 C 327.21875 736.410156 326.800781 735.328125 326.40625 734.234375 C 326.015625 733.144531 325.652344 732.042969 325.3125 730.933594 C 324.976562 729.820312 324.664062 728.703125 324.382812 727.578125 C 324.097656 726.453125 323.84375 725.320312 323.617188 724.183594 C 323.390625 723.042969 323.191406 721.902344 323.019531 720.753906 C 322.847656 719.605469 322.707031 718.453125 322.589844 717.300781 C 322.476562 716.144531 322.390625 714.988281 322.332031 713.828125 C 322.273438 712.667969 322.246094 711.507812 322.246094 710.347656 C 322.242188 709.1875 322.273438 708.027344 322.328125 706.871094 C 322.382812 705.710938 322.46875 704.554688 322.582031 703.398438 C 322.695312 702.242188 322.835938 701.089844 323.003906 699.945312 C 323.175781 698.796875 323.371094 697.652344 323.597656 696.515625 C 323.824219 695.375 324.078125 694.242188 324.359375 693.117188 C 324.640625 691.992188 324.949219 690.871094 325.285156 689.761719 C 325.621094 688.652344 325.984375 687.550781 326.375 686.457031 C 326.765625 685.363281 327.179688 684.28125 327.625 683.207031 C 328.066406 682.136719 328.539062 681.074219 329.035156 680.023438 C 329.527344 678.976562 330.050781 677.9375 330.597656 676.914062 C 331.144531 675.890625 331.714844 674.878906 332.308594 673.882812 C 332.90625 672.886719 333.527344 671.90625 334.171875 670.941406 C 334.816406 669.976562 335.484375 669.027344 336.171875 668.09375 C 336.863281 667.160156 337.578125 666.246094 338.3125 665.347656 C 339.050781 664.449219 339.808594 663.570312 340.585938 662.707031 C 341.363281 661.847656 342.164062 661.003906 342.984375 660.183594 C 343.804688 659.363281 344.644531 658.5625 345.503906 657.78125 C 346.363281 657 347.242188 656.242188 348.140625 655.503906 C 349.035156 654.765625 349.953125 654.050781 350.882812 653.359375 C 351.816406 652.664062 352.765625 651.996094 353.730469 651.347656 C 354.695312 650.703125 355.675781 650.082031 356.667969 649.484375 C 357.664062 648.882812 358.675781 648.3125 359.699219 647.761719 C 360.722656 647.214844 361.757812 646.691406 362.808594 646.191406 C 363.859375 645.695312 364.917969 645.222656 365.992188 644.777344 C 367.0625 644.332031 368.144531 643.910156 369.238281 643.519531 C 370.332031 643.125 371.433594 642.757812 372.546875 642.421875 C 373.65625 642.082031 374.777344 641.769531 375.902344 641.484375 C 377.027344 641.203125 378.160156 640.945312 379.300781 640.71875 C 380.4375 640.488281 381.582031 640.289062 382.730469 640.117188 C 383.882812 639.941406 385.035156 639.800781 386.1875 639.683594 C 387.34375 639.566406 388.503906 639.480469 389.664062 639.417969 C 390.824219 639.359375 391.984375 639.328125 393.144531 639.328125 C 394.3125 639.320312 395.480469 639.34375 396.644531 639.394531 C 397.8125 639.445312 398.972656 639.527344 400.136719 639.636719 C 401.296875 639.746094 402.457031 639.882812 403.609375 640.050781 C 404.765625 640.214844 405.917969 640.410156 407.0625 640.632812 C 408.207031 640.855469 409.347656 641.105469 410.480469 641.386719 C 411.613281 641.664062 412.738281 641.972656 413.855469 642.308594 C 414.972656 642.640625 416.082031 643.003906 417.179688 643.394531 C 418.28125 643.78125 419.371094 644.199219 420.449219 644.640625 C 421.527344 645.085938 422.597656 645.554688 423.652344 646.050781 C 424.707031 646.546875 425.75 647.070312 426.78125 647.617188 C 427.8125 648.164062 428.828125 648.734375 429.828125 649.332031 C 430.832031 649.929688 431.816406 650.554688 432.789062 651.199219 C 433.757812 651.847656 434.714844 652.515625 435.652344 653.210938 C 436.589844 653.902344 437.507812 654.617188 438.410156 655.359375 C 439.3125 656.097656 440.199219 656.855469 441.0625 657.640625 C 441.925781 658.421875 442.773438 659.226562 443.597656 660.050781 C 444.421875 660.875 445.226562 661.71875 446.011719 662.582031 C 446.792969 663.445312 447.554688 664.328125 448.292969 665.230469 C 449.035156 666.132812 449.75 667.050781 450.445312 667.988281 C 451.140625 668.925781 451.808594 669.878906 452.457031 670.847656 C 453.105469 671.816406 453.726562 672.804688 454.324219 673.804688 C 454.921875 674.804688 455.496094 675.820312 456.042969 676.847656 C 456.59375 677.878906 457.113281 678.917969 457.609375 679.972656 C 458.109375 681.027344 458.578125 682.09375 459.019531 683.171875 C 459.464844 684.25 459.882812 685.339844 460.273438 686.4375 C 460.660156 687.535156 461.023438 688.644531 461.359375 689.761719 C 461.695312 690.878906 462 692 462.28125 693.132812 C 462.558594 694.265625 462.8125 695.402344 463.035156 696.546875 C 463.257812 697.691406 463.453125 698.839844 463.621094 699.992188 C 463.785156 701.148438 463.921875 702.304688 464.03125 703.464844 C 464.140625 704.625 464.222656 705.789062 464.273438 706.953125 C 464.324219 708.117188 464.347656 709.28125 464.339844 710.445312 Z M 464.339844 710.445312 " fill-opacity="1" fill-rule="nonzero"/><g clip-path="url(#b44bf87745)"><path fill="#ffae46" d="M 391.972656 566.449219 L 394.320312 566.449219 C 394.503906 566.449219 394.660156 566.511719 394.789062 566.640625 C 394.917969 566.769531 394.980469 566.925781 394.980469 567.109375 L 394.980469 629.605469 C 394.980469 629.789062 394.917969 629.941406 394.789062 630.070312 C 394.660156 630.199219 394.503906 630.265625 394.320312 630.265625 L 391.972656 630.265625 C 391.789062 630.265625 391.632812 630.199219 391.503906 630.070312 C 391.375 629.941406 391.3125 629.789062 391.3125 629.605469 L 391.3125 567.109375 C 391.3125 566.925781 391.375 566.769531 391.503906 566.640625 C 391.632812 566.511719 391.789062 566.449219 391.972656 566.449219 Z M 391.972656 566.449219 " fill-opacity="1" fill-rule="nonzero"/></g><g clip-path="url(#b9a74f7e70)"><path stroke-linecap="butt" transform="matrix(0.733973, 0, 0, 0.73319, 243.122325, 566.081643)" fill="none" stroke-linejoin="miter" d="M 202.800939 0.501338 L 205.9995 0.501338 C 206.249637 0.501338 206.46252 0.586582 206.638148 0.762397 C 206.813776 0.938213 206.898929 1.151322 206.898929 1.401726 L 206.898929 86.640308 C 206.898929 86.890712 206.813776 87.098494 206.638148 87.274309 C 206.46252 87.450125 206.249637 87.540696 205.9995 87.540696 L 202.800939 87.540696 C 202.550802 87.540696 202.33792 87.450125 202.162291 87.274309 C 201.986663 87.098494 201.90151 86.890712 201.90151 86.640308 L 201.90151 1.401726 C 201.90151 1.151322 201.986663 0.938213 202.162291 0.762397 C 202.33792 0.586582 202.550802 0.501338 202.800939 0.501338 Z M 202.800939 0.501338 " stroke="#ffae46" stroke-width="1" stroke-opacity="1" stroke-miterlimit="10"/></g><path stroke-linecap="butt" transform="matrix(0.660251, -0.320259, 0.320601, 0.659547, 199.671198, 597.242328)" fill-opacity="1" fill="#ffae46" fill-rule="nonzero" stroke-linejoin="miter" d="M 172.700298 91.498735 L 175.900056 91.500726 C 176.147675 91.502511 176.360519 91.588094 176.536262 91.76227 C 176.712005 91.936445 176.802504 92.152146 176.800513 92.399929 L 176.802429 138.988234 C 176.800438 139.236017 176.714732 139.449074 176.533409 139.627546 C 176.359201 139.803551 176.145894 139.889499 175.898276 139.887714 L 172.700978 139.89284 C 172.453359 139.891055 172.240515 139.805472 172.062312 139.624179 C 171.886569 139.450004 171.800857 139.236628 171.802848 138.988844 L 171.800933 92.40054 C 171.798136 92.150432 171.888629 91.9397 172.062837 91.763695 C 172.237045 91.587691 172.450352 91.501743 172.700298 91.498735 Z M 172.700298 91.498735 " stroke="#ffae46" stroke-width="1" stroke-opacity="1" stroke-miterlimit="10"/><path stroke-linecap="butt" transform="matrix(0.660251, -0.320259, 0.320601, 0.659547, 125.246141, 652.817851)" fill-opacity="1" fill="#ffae46" fill-rule="nonzero" stroke-linejoin="miter" d="M 287.101546 350.098322 L 290.301305 350.100313 C 290.548923 350.102097 290.761767 350.187681 290.93751 350.361857 C 291.110926 350.540825 291.198965 350.749408 291.201762 350.999516 L 291.20135 397.592613 C 291.199359 397.840396 291.113653 398.053453 290.934657 398.227133 C 290.760449 398.403138 290.547142 398.489085 290.299524 398.487301 L 287.097438 398.490102 C 286.84982 398.488317 286.636976 398.402734 286.46356 398.223766 C 286.287817 398.04959 286.199778 397.841007 286.196981 397.590899 L 286.202181 351.000127 C 286.199384 350.750018 286.289878 350.539287 286.464086 350.363282 C 286.638294 350.187277 286.851601 350.10133 287.101546 350.098322 Z M 287.101546 350.098322 " stroke="#ffae46" stroke-width="1" stroke-opacity="1" stroke-miterlimit="10"/><path stroke-linecap="butt" transform="matrix(0.693567, 0.239913, -0.240169, 0.692827, 262.425728, 470.327075)" fill-opacity="1" fill="#ffae46" fill-rule="nonzero" stroke-linejoin="miter" d="M 278.400436 88.899477 L 281.600391 88.902105 C 281.84782 88.900997 282.057564 88.986234 282.236395 89.16111 C 282.410196 89.337727 282.500247 89.548984 282.503261 89.801656 L 282.500111 136.39061 C 282.501381 136.638248 282.411324 136.849853 282.236713 137.028718 C 282.060358 137.202549 281.849338 137.292536 281.600165 137.28861 L 278.401954 137.291016 C 278.152781 137.28709 277.938008 137.203594 277.764207 137.026977 C 277.590405 136.85036 277.500355 136.639103 277.499084 136.391465 L 277.500491 89.797477 C 277.49922 89.549839 277.589277 89.338234 277.765632 89.164403 C 277.940243 88.985538 278.153007 88.900586 278.400436 88.899477 Z M 278.400436 88.899477 " stroke="#ffae46" stroke-width="1" stroke-opacity="1" stroke-miterlimit="10"/><path stroke-linecap="butt" transform="matrix(0.693567, 0.239913, -0.240169, 0.692827, 321.804247, 505.520096)" fill-opacity="1" fill="#ffae46" fill-rule="nonzero" stroke-linejoin="miter" d="M 176.398742 352.697957 L 179.598696 352.700585 C 179.846125 352.699477 180.062641 352.788007 180.236443 352.964624 C 180.410245 353.141241 180.500295 353.352498 180.501566 353.600136 L 180.498416 400.18909 C 180.499686 400.436727 180.411373 400.653367 180.235018 400.827198 C 180.058664 401.001029 179.847643 401.091015 179.600214 401.092124 L 176.400259 401.089496 C 176.15283 401.090604 175.941343 401.000332 175.762512 400.825456 C 175.58871 400.648839 175.49866 400.437582 175.497389 400.189945 L 175.500539 353.600991 C 175.499269 353.353353 175.587582 353.136714 175.763937 352.962883 C 175.940292 352.789052 176.151312 352.699065 176.398742 352.697957 Z M 176.398742 352.697957 " stroke="#ffae46" stroke-width="1" stroke-opacity="1" stroke-miterlimit="10"/><path stroke-linecap="butt" transform="matrix(0.320601, 0.659547, -0.660251, 0.320259, 495.609119, 371.566208)" fill-opacity="1" fill="#ffae46" fill-rule="nonzero" stroke-linejoin="miter" d="M 359.201324 161.100787 L 362.400728 161.098344 C 362.648512 161.100335 362.861568 161.18604 363.035248 161.365036 C 363.211253 161.539244 363.297201 161.752551 363.300209 162.002497 L 363.298608 208.586767 C 363.301616 208.836713 363.208915 209.052017 363.034739 209.22776 C 362.860564 209.403503 362.647188 209.489215 362.399404 209.487224 L 359.2 209.489667 C 358.952217 209.487676 358.73916 209.40197 358.563155 209.227763 C 358.389475 209.048767 358.301203 208.840248 358.298195 208.590302 L 358.302121 162.001244 C 358.299113 161.751298 358.389489 161.540781 358.563665 161.365038 C 358.73784 161.189296 358.953541 161.098796 359.201324 161.100787 Z M 359.201324 161.100787 " stroke="#ffae46" stroke-width="1" stroke-opacity="1" stroke-miterlimit="10"/><path stroke-linecap="butt" transform="matrix(0.320601, 0.659547, -0.660251, 0.320259, 464.121242, 589.543873)" fill-opacity="1" fill="#ffae46" fill-rule="nonzero" stroke-linejoin="miter" d="M 100.598106 275.501989 L 103.79751 275.499546 C 104.047618 275.496749 104.25835 275.587242 104.439147 275.763778 C 104.615152 275.937986 104.701099 276.151293 104.699315 276.398911 L 104.700182 322.990296 C 104.698397 323.237915 104.612813 323.450759 104.438638 323.626502 C 104.25967 323.799917 104.048762 323.892744 103.800978 323.890753 L 100.596781 323.890869 C 100.353791 323.891205 100.135941 323.803173 99.962261 323.624177 C 99.786257 323.449969 99.700309 323.236662 99.702094 322.989043 L 99.701227 276.397658 C 99.703012 276.15004 99.788595 275.937196 99.962771 275.761453 C 100.141739 275.588037 100.350322 275.499998 100.598106 275.501989 Z M 100.598106 275.501989 " stroke="#ffae46" stroke-width="1" stroke-opacity="1" stroke-miterlimit="10"/><path stroke-linecap="butt" transform="matrix(-0.240169, 0.692827, -0.693567, -0.239913, 783.252838, 569.527491)" fill-opacity="1" fill="#ffae46" fill-rule="nonzero" stroke-linejoin="miter" d="M 361.800687 271.800703 L 364.998288 271.802962 C 365.25096 271.799948 365.460824 271.884976 365.636396 272.06636 C 365.815262 272.240971 365.900214 272.453735 365.901322 272.701164 L 365.898218 319.291132 C 365.899326 319.538561 365.814089 319.748305 365.639213 319.927136 C 365.462596 320.100937 365.251339 320.190988 364.996926 320.188973 L 361.801066 320.191743 C 361.551686 320.187984 361.341823 320.102957 361.162957 319.928345 C 360.989127 319.751991 360.89914 319.54097 360.901325 319.286768 L 360.899394 272.698544 C 360.898286 272.451115 360.988558 272.239627 361.165175 272.065826 C 361.340051 271.886995 361.553049 271.801974 361.800687 271.800703 Z M 361.800687 271.800703 " stroke="#ffae46" stroke-width="1" stroke-opacity="1" stroke-miterlimit="10"/><path stroke-linecap="butt" transform="matrix(-0.242211, 0.689199, -0.689934, -0.241953, 455.475267, 652.913371)" fill-opacity="1" fill="#ffae46" fill-rule="nonzero" stroke-linejoin="miter" d="M 98.000582 169.802418 L 101.201901 169.799582 C 101.445419 169.799018 101.658205 169.888508 101.838491 170.06301 C 102.01373 170.239284 102.099913 170.452485 102.102085 170.70084 L 102.101199 217.291865 C 102.101601 217.53518 102.013665 217.752889 101.837127 217.928101 C 101.660589 218.103312 101.447154 218.189565 101.19859 218.191901 L 98.000548 218.187925 C 97.751984 218.19026 97.539197 218.100771 97.363957 217.924497 C 97.188718 217.748223 97.097489 217.536793 97.102133 217.291707 L 97.103018 170.700683 C 97.100847 170.452327 97.190553 170.239658 97.362045 170.066218 C 97.536813 169.885966 97.750249 169.799713 98.000582 169.802418 Z M 98.000582 169.802418 " stroke="#ffae46" stroke-width="1" stroke-opacity="1" stroke-miterlimit="10"/><path stroke-linecap="butt" transform="matrix(0.733973, 0, 0, 0.73319, 243.122325, 566.081643)" fill-opacity="1" fill="#ffae46" fill-rule="nonzero" stroke-linejoin="miter" d="M 205.30231 316.298054 L 208.500871 316.298054 C 208.751008 316.298054 208.958569 316.388625 209.134197 316.564441 C 209.309825 316.740256 209.4003 316.953366 209.4003 317.198442 L 209.4003 402.442351 C 209.4003 402.687428 209.309825 402.900537 209.134197 403.076353 C 208.958569 403.252168 208.751008 403.337412 208.500871 403.337412 L 205.30231 403.337412 C 205.052173 403.337412 204.83929 403.252168 204.663662 403.076353 C 204.488034 402.900537 204.397559 402.687428 204.397559 402.442351 L 204.397559 317.198442 C 204.397559 316.953366 204.488034 316.740256 204.663662 316.564441 C 204.83929 316.388625 205.052173 316.298054 205.30231 316.298054 Z M 205.30231 316.298054 " stroke="#ffae46" stroke-width="1" stroke-opacity="1" stroke-miterlimit="10"/><path stroke-linecap="butt" transform="matrix(0, 0.73319, -0.733973, 0, 684.900439, 427.435383)" fill-opacity="1" fill="#ffae46" fill-rule="nonzero" stroke-linejoin="miter" d="M 384.500866 198.499793 L 387.697513 198.499793 C 387.947917 198.499793 388.161027 198.590268 388.336842 198.765896 C 388.512658 198.941524 388.597902 199.149085 388.597902 199.399222 L 388.597902 284.637418 C 388.597902 284.887555 388.512658 285.100438 388.336842 285.276066 C 388.161027 285.451694 387.947917 285.542169 387.697513 285.542169 L 384.500866 285.542169 C 384.250462 285.542169 384.037353 285.451694 383.861537 285.276066 C 383.685721 285.100438 383.600478 284.887555 383.600478 284.637418 L 383.600478 199.399222 C 383.600478 199.149085 383.685721 198.941524 383.861537 198.765896 C 384.037353 198.590268 384.250462 198.499793 384.500866 198.499793 Z M 384.500866 198.499793 " stroke="#ffae46" stroke-width="1" stroke-opacity="1" stroke-miterlimit="10"/><path fill="#ffae46" d="M 307.34375 711.179688 L 307.34375 713.527344 C 307.34375 713.707031 307.28125 713.863281 307.152344 713.992188 C 307.023438 714.121094 306.867188 714.1875 306.683594 714.1875 L 244.121094 714.1875 C 243.9375 714.1875 243.78125 714.121094 243.652344 713.992188 C 243.523438 713.863281 243.460938 713.707031 243.460938 713.527344 L 243.460938 711.179688 C 243.460938 710.996094 243.523438 710.84375 243.652344 710.714844 C 243.78125 710.585938 243.9375 710.519531 244.121094 710.519531 L 306.683594 710.519531 C 306.867188 710.519531 307.023438 710.585938 307.152344 710.714844 C 307.28125 710.84375 307.34375 710.996094 307.34375 711.179688 Z M 307.34375 711.179688 " fill-opacity="1" fill-rule="nonzero"/><g clip-path="url(#68bb2fb658)"><path stroke-linecap="butt" transform="matrix(0, 0.73319, -0.733973, 0, 454.873419, 660.809803)" fill="none" stroke-linejoin="miter" d="M 68.699614 201.001605 L 71.901588 201.001605 C 72.146665 201.001605 72.359774 201.086758 72.53559 201.262386 C 72.711405 201.438014 72.801977 201.650897 72.801977 201.901034 L 72.801977 287.13923 C 72.801977 287.389367 72.711405 287.60225 72.53559 287.777878 C 72.359774 287.953506 72.146665 288.038659 71.901588 288.038659 L 68.699614 288.038659 C 68.44921 288.038659 68.241428 287.953506 68.065612 287.777878 C 67.889797 287.60225 67.799225 287.389367 67.799225 287.13923 L 67.799225 201.901034 C 67.799225 201.650897 67.889797 201.438014 68.065612 201.262386 C 68.241428 201.086758 68.44921 201.001605 68.699614 201.001605 Z M 68.699614 201.001605 " stroke="#ffae46" stroke-width="1" stroke-opacity="1" stroke-miterlimit="10"/></g><path stroke-linecap="butt" transform="matrix(-0.518997, 0.518444, -0.518997, -0.518444, 838.888841, 801.362598)" fill-opacity="1" fill="#ffae46" fill-rule="nonzero" stroke-linejoin="miter" d="M 341.602321 312.999781 L 344.799038 313.001842 C 345.047547 313.00171 345.262121 313.088197 345.435232 313.261307 C 345.612105 313.438181 345.698592 313.652755 345.69846 313.901263 L 345.698191 399.139568 C 345.698058 399.388077 345.611343 399.602744 345.438047 399.776039 C 345.260985 399.953101 345.046318 400.039817 344.79781 400.039949 L 341.601092 400.037889 C 341.352584 400.038021 341.138009 399.951534 340.964899 399.778424 C 340.788025 399.60155 340.701538 399.386976 340.701671 399.138467 L 340.70194 313.900162 C 340.702072 313.651654 340.788788 313.436987 340.962083 313.263692 C 341.139145 313.08663 341.353812 312.999914 341.602321 312.999781 Z M 341.602321 312.999781 " stroke="#ffae46" stroke-width="1" stroke-opacity="1" stroke-miterlimit="10"/><path stroke-linecap="butt" transform="matrix(-0.518997, 0.518444, -0.518997, -0.518444, 441.88294, 640.720772)" fill-opacity="1" fill="#ffae46" fill-rule="nonzero" stroke-linejoin="miter" d="M 116.503483 91.500151 L 119.700201 91.502211 C 119.948709 91.502079 120.163283 91.588566 120.336394 91.761676 C 120.513267 91.93855 120.599754 92.153124 120.599622 92.401633 L 120.599353 177.639938 C 120.59922 177.888446 120.512505 178.103113 120.33921 178.276408 C 120.162147 178.45347 119.94748 178.540186 119.698972 178.540319 L 116.498487 178.542025 C 116.249979 178.542158 116.039171 178.451903 115.862298 178.27503 C 115.689188 178.101919 115.598933 177.891112 115.599066 177.642604 L 115.603102 92.400532 C 115.599471 92.14826 115.686183 91.941124 115.863245 91.764061 C 116.040308 91.586999 116.251211 91.49652 116.503483 91.500151 Z M 116.503483 91.500151 " stroke="#ffae46" stroke-width="1" stroke-opacity="1" stroke-miterlimit="10"/><path stroke-linecap="butt" transform="matrix(-0.518997, -0.518444, 0.518997, -0.518444, 186.312878, 1039.209274)" fill-opacity="1" fill="#ffae46" fill-rule="nonzero" stroke-linejoin="miter" d="M 115.800665 312.302775 L 118.997383 312.300715 C 119.245891 312.300847 119.460558 312.387563 119.63762 312.564625 C 119.810915 312.73792 119.897631 312.952587 119.897764 313.201095 L 119.898032 398.4394 C 119.898165 398.687909 119.811678 398.902483 119.638568 399.075594 C 119.461694 399.252467 119.247119 399.338954 118.998611 399.338822 L 115.801893 399.340882 C 115.553385 399.34075 115.338718 399.254034 115.161656 399.076972 C 114.988361 398.903677 114.901645 398.68901 114.901512 398.440501 L 114.901244 313.202196 C 114.901111 312.953688 114.987598 312.739114 115.164472 312.56224 C 115.337582 312.38913 115.552157 312.302643 115.800665 312.302775 Z M 115.800665 312.302775 " stroke="#ffae46" stroke-width="1" stroke-opacity="1" stroke-miterlimit="10"/><path stroke-linecap="butt" transform="matrix(-0.518997, -0.518444, 0.518997, -0.518444, 580.677088, 872.409456)" fill-opacity="1" fill="#ffae46" fill-rule="nonzero" stroke-linejoin="miter" d="M 337.4007 87.201025 L 340.597417 87.198964 C 340.845925 87.199097 341.060592 87.285813 341.237655 87.462875 C 341.414717 87.639938 341.497666 87.850837 341.497798 88.099345 L 341.501834 173.341418 C 341.501967 173.589926 341.411713 173.800733 341.234839 173.977607 C 341.061729 174.150717 340.850921 174.240971 340.602413 174.240839 L 337.401928 174.239132 C 337.15342 174.239 336.938753 174.152284 336.76169 173.975222 C 336.588395 173.801927 336.50168 173.58726 336.501547 173.338751 L 336.501278 88.100446 C 336.501146 87.851938 336.587633 87.637364 336.760743 87.464253 C 336.937617 87.28738 337.152191 87.200893 337.4007 87.201025 Z M 337.4007 87.201025 " stroke="#ffae46" stroke-width="1" stroke-opacity="1" stroke-miterlimit="10"/><g clip-path="url(#042f981fd4)"><path fill="#6b99d2" d="M 334.867188 804.441406 L 335.96875 804.441406 C 335.628906 803.34375 335.335938 802.238281 335.085938 801.117188 C 334.835938 799.996094 334.632812 798.867188 334.472656 797.730469 C 334.3125 796.597656 334.199219 795.453125 334.128906 794.308594 C 334.0625 793.164062 334.039062 792.015625 334.0625 790.871094 C 334.085938 789.722656 334.15625 788.578125 334.273438 787.4375 C 334.386719 786.292969 334.550781 785.160156 334.753906 784.03125 C 334.960938 782.902344 335.214844 781.78125 335.511719 780.671875 C 335.808594 779.566406 336.148438 778.46875 336.53125 777.386719 C 336.917969 776.308594 337.34375 775.242188 337.8125 774.195312 C 338.28125 773.148438 338.792969 772.121094 339.34375 771.113281 C 339.898438 770.109375 340.488281 769.125 341.121094 768.167969 C 341.75 767.207031 342.417969 766.273438 343.125 765.367188 C 343.832031 764.464844 344.570312 763.585938 345.347656 762.742188 C 346.125 761.894531 346.933594 761.082031 347.773438 760.300781 C 348.613281 759.519531 349.484375 758.769531 350.386719 758.058594 C 351.289062 757.347656 352.214844 756.671875 353.171875 756.035156 C 354.125 755.398438 355.105469 754.800781 356.109375 754.242188 C 357.113281 753.679688 358.136719 753.164062 359.179688 752.6875 C 360.226562 752.207031 361.289062 751.773438 362.367188 751.382812 C 363.449219 750.988281 364.542969 750.640625 365.648438 750.335938 C 366.757812 750.03125 367.875 749.773438 369.003906 749.558594 C 370.132812 749.34375 371.265625 749.171875 372.410156 749.046875 C 373.550781 748.925781 374.695312 748.847656 375.84375 748.8125 C 376.992188 748.78125 378.140625 748.792969 379.289062 748.851562 C 380.433594 748.914062 381.578125 749.019531 382.71875 749.167969 C 383.855469 749.320312 384.988281 749.515625 386.109375 749.757812 C 387.234375 750 388.34375 750.285156 389.445312 750.613281 C 390.546875 750.945312 391.628906 751.320312 392.699219 751.734375 C 393.769531 752.152344 394.824219 752.613281 395.855469 753.113281 C 396.890625 753.613281 397.902344 754.15625 398.890625 754.738281 C 399.882812 755.320312 400.847656 755.941406 401.785156 756.601562 C 402.726562 757.261719 403.636719 757.957031 404.523438 758.691406 C 404.921875 756.933594 405.402344 755.195312 405.96875 753.484375 C 406.535156 751.773438 407.179688 750.089844 407.910156 748.441406 C 408.640625 746.792969 409.449219 745.183594 410.332031 743.613281 C 411.21875 742.039062 412.179688 740.515625 413.214844 739.039062 C 414.25 737.5625 415.351562 736.136719 416.527344 734.765625 C 417.699219 733.394531 418.9375 732.085938 420.238281 730.835938 C 421.535156 729.585938 422.894531 728.402344 424.3125 727.28125 C 425.726562 726.164062 427.195312 725.117188 428.710938 724.140625 C 430.230469 723.164062 431.789062 722.265625 433.394531 721.441406 C 435 720.617188 436.640625 719.871094 438.320312 719.207031 C 439.996094 718.539062 441.703125 717.957031 443.4375 717.460938 C 445.171875 716.960938 446.925781 716.546875 448.703125 716.214844 C 450.476562 715.886719 452.261719 715.644531 454.0625 715.488281 C 455.859375 715.335938 457.660156 715.265625 459.464844 715.285156 C 461.273438 715.304688 463.070312 715.410156 464.867188 715.605469 C 466.660156 715.800781 468.441406 716.082031 470.207031 716.449219 C 471.976562 716.816406 473.722656 717.265625 475.445312 717.804688 C 477.167969 718.339844 478.859375 718.957031 480.523438 719.660156 C 482.1875 720.359375 483.8125 721.140625 485.398438 722 C 486.984375 722.859375 488.527344 723.792969 490.023438 724.800781 C 491.519531 725.808594 492.964844 726.886719 494.355469 728.035156 C 495.746094 729.183594 497.078125 730.398438 498.351562 731.675781 C 499.625 732.953125 500.835938 734.289062 501.976562 735.6875 C 503.121094 737.082031 504.195312 738.527344 505.195312 740.027344 C 506.199219 741.527344 507.125 743.070312 507.976562 744.660156 C 508.828125 746.25 509.601562 747.878906 510.296875 749.542969 C 510.988281 751.207031 511.601562 752.902344 512.128906 754.625 C 512.660156 756.351562 513.101562 758.09375 513.460938 759.863281 C 513.820312 761.628906 514.09375 763.410156 514.28125 765.203125 C 514.464844 766.996094 514.5625 768.796875 514.574219 770.597656 C 514.585938 772.402344 514.507812 774.199219 514.34375 775.996094 C 514.179688 777.792969 513.929688 779.574219 513.589844 781.347656 C 515.878906 780.988281 518.175781 780.820312 520.492188 780.832031 C 521.765625 780.832031 523.039062 780.882812 524.308594 780.984375 C 525.582031 781.085938 526.847656 781.242188 528.105469 781.449219 C 529.363281 781.65625 530.609375 781.914062 531.847656 782.222656 C 533.085938 782.535156 534.308594 782.894531 535.515625 783.304688 C 536.722656 783.714844 537.910156 784.175781 539.078125 784.683594 C 540.25 785.191406 541.394531 785.746094 542.519531 786.351562 C 543.640625 786.953125 544.738281 787.601562 545.808594 788.292969 C 546.878906 788.988281 547.917969 789.722656 548.925781 790.503906 C 549.9375 791.28125 550.914062 792.101562 551.855469 792.960938 C 552.796875 793.820312 553.699219 794.714844 554.566406 795.648438 C 555.433594 796.582031 556.261719 797.550781 557.050781 798.554688 C 557.839844 799.554688 558.582031 800.589844 559.285156 801.652344 C 559.988281 802.714844 560.644531 803.804688 561.257812 804.921875 C 561.871094 806.039062 562.433594 807.179688 562.953125 808.34375 C 563.472656 809.507812 563.941406 810.691406 564.359375 811.894531 C 564.78125 813.097656 565.152344 814.316406 565.472656 815.550781 C 565.792969 816.78125 566.058594 818.027344 566.277344 819.28125 C 566.492188 820.539062 566.660156 821.800781 566.773438 823.070312 C 566.882812 824.339844 566.945312 825.609375 566.953125 826.882812 C 566.960938 828.15625 566.917969 829.429688 566.820312 830.699219 C 566.722656 831.96875 566.574219 833.234375 566.371094 834.492188 C 566.167969 835.75 565.917969 836.996094 565.613281 838.234375 C 565.308594 839.472656 564.953125 840.695312 564.546875 841.902344 C 564.140625 843.109375 563.6875 844.300781 563.183594 845.46875 C 562.679688 846.640625 562.128906 847.789062 561.53125 848.914062 C 560.933594 850.039062 560.289062 851.136719 559.597656 852.207031 C 558.910156 853.28125 558.175781 854.324219 557.402344 855.335938 C 556.628906 856.347656 555.8125 857.324219 554.957031 858.269531 C 554.101562 859.210938 553.207031 860.121094 552.277344 860.992188 C 551.34375 861.863281 550.378906 862.691406 549.378906 863.484375 C 548.382812 864.277344 547.351562 865.023438 546.289062 865.730469 C 545.226562 866.4375 544.140625 867.097656 543.023438 867.714844 C 540.191406 869.613281 537.140625 871.054688 533.878906 872.039062 C 530.613281 873.027344 527.277344 873.515625 523.867188 873.507812 L 334.867188 873.507812 C 333.738281 873.507812 332.609375 873.449219 331.484375 873.335938 C 330.355469 873.222656 329.238281 873.054688 328.128906 872.832031 C 327.019531 872.609375 325.925781 872.335938 324.84375 872.003906 C 323.757812 871.675781 322.695312 871.292969 321.652344 870.859375 C 320.605469 870.425781 319.585938 869.941406 318.585938 869.410156 C 317.589844 868.875 316.621094 868.292969 315.679688 867.664062 C 314.738281 867.039062 313.832031 866.363281 312.957031 865.648438 C 312.082031 864.929688 311.246094 864.171875 310.445312 863.371094 C 309.644531 862.574219 308.886719 861.738281 308.167969 860.863281 C 307.449219 859.988281 306.777344 859.082031 306.148438 858.144531 C 305.519531 857.203125 304.9375 856.234375 304.402344 855.238281 C 303.867188 854.242188 303.382812 853.222656 302.949219 852.179688 C 302.515625 851.136719 302.132812 850.074219 301.804688 848.992188 C 301.472656 847.910156 301.199219 846.816406 300.976562 845.707031 C 300.753906 844.597656 300.585938 843.480469 300.472656 842.359375 C 300.359375 841.234375 300.300781 840.105469 300.296875 838.976562 C 300.300781 837.84375 300.359375 836.71875 300.472656 835.59375 C 300.585938 834.46875 300.753906 833.351562 300.976562 832.242188 C 301.199219 831.132812 301.472656 830.039062 301.804688 828.957031 C 302.132812 827.878906 302.515625 826.816406 302.949219 825.769531 C 303.382812 824.726562 303.867188 823.707031 304.402344 822.710938 C 304.9375 821.714844 305.519531 820.746094 306.148438 819.808594 C 306.777344 818.867188 307.449219 817.960938 308.167969 817.085938 C 308.886719 816.214844 309.644531 815.378906 310.445312 814.578125 C 311.246094 813.777344 312.082031 813.019531 312.957031 812.304688 C 313.832031 811.585938 314.738281 810.914062 315.679688 810.285156 C 316.621094 809.65625 317.589844 809.074219 318.585938 808.539062 C 319.585938 808.007812 320.605469 807.523438 321.652344 807.089844 C 322.695312 806.65625 323.757812 806.273438 324.84375 805.945312 C 325.925781 805.617188 327.019531 805.339844 328.128906 805.117188 C 329.238281 804.894531 330.355469 804.726562 331.484375 804.613281 C 332.609375 804.5 333.738281 804.445312 334.867188 804.441406 Z M 334.867188 804.441406 " fill-opacity="1" fill-rule="nonzero"/></g></svg>