<svg xmlns="http://www.w3.org/2000/svg" xmlns:xlink="http://www.w3.org/1999/xlink" width="1024" zoomAndPan="magnify" viewBox="0 0 768 767.999994" height="1024" preserveAspectRatio="xMidYMid meet" version="1.0"><defs><clipPath id="6e209ca754"><path d="M 339 72.226562 L 355 72.226562 L 355 87 L 339 87 Z M 339 72.226562 " clip-rule="nonzero"/></clipPath><clipPath id="cc9e2f1f61"><path d="M 371 677 L 390 677 L 390 695.476562 L 371 695.476562 Z M 371 677 " clip-rule="nonzero"/></clipPath></defs><path fill="#ffb544" d="M 324.390625 175.707031 C 345.050781 169.167969 366.21875 165.917969 387.890625 165.953125 C 391.695312 165.945312 395.496094 166.042969 399.296875 166.242188 C 403.097656 166.441406 406.890625 166.742188 410.671875 167.144531 C 414.457031 167.546875 418.226562 168.050781 421.984375 168.660156 C 425.742188 169.265625 429.476562 169.972656 433.195312 170.78125 C 436.914062 171.589844 440.609375 172.496094 444.277344 173.503906 C 447.949219 174.507812 451.589844 175.613281 455.199219 176.816406 C 458.808594 178.019531 462.382812 179.320312 465.921875 180.714844 C 469.460938 182.113281 472.960938 183.601562 476.421875 185.1875 C 479.878906 186.769531 483.292969 188.445312 486.664062 190.214844 C 490.03125 191.984375 493.351562 193.84375 496.621094 195.789062 C 499.890625 197.738281 503.101562 199.769531 506.261719 201.890625 C 509.421875 204.011719 512.519531 206.214844 515.5625 208.503906 C 518.601562 210.789062 521.578125 213.160156 524.488281 215.605469 C 527.402344 218.054688 530.246094 220.578125 533.023438 223.179688 C 535.796875 225.78125 538.503906 228.457031 541.132812 231.203125 C 543.765625 233.949219 546.324219 236.765625 548.800781 239.652344 C 551.28125 242.535156 553.683594 245.484375 556.003906 248.5 C 558.324219 251.511719 560.5625 254.589844 562.71875 257.722656 C 564.871094 260.859375 566.941406 264.046875 568.925781 267.292969 C 570.90625 270.539062 572.800781 273.839844 574.605469 277.1875 C 576.410156 280.535156 578.125 283.929688 579.746094 287.371094 C 581.367188 290.8125 582.898438 294.292969 584.332031 297.816406 C 585.765625 301.339844 587.101562 304.898438 588.34375 308.492188 C 589.585938 312.089844 590.730469 315.714844 591.777344 319.371094 C 592.824219 323.027344 593.769531 326.710938 594.617188 330.417969 C 595.464844 334.125 596.214844 337.855469 596.859375 341.601562 C 597.507812 345.351562 598.050781 349.113281 598.496094 352.890625 C 598.9375 356.667969 599.28125 360.457031 599.519531 364.253906 C 599.757812 368.046875 599.894531 371.847656 599.929688 375.652344 C 599.964844 379.453125 599.898438 383.257812 599.726562 387.054688 C 599.554688 390.855469 599.28125 394.648438 598.90625 398.433594 C 598.53125 402.21875 598.054688 405.988281 597.476562 409.75 C 596.898438 413.507812 596.21875 417.25 595.4375 420.972656 C 594.65625 424.695312 593.777344 428.394531 592.796875 432.070312 C 591.816406 435.742188 590.738281 439.390625 589.558594 443.007812 C 588.382812 446.625 587.109375 450.207031 585.738281 453.753906 C 584.367188 457.304688 582.902344 460.8125 581.34375 464.28125 C 579.785156 467.75 578.132812 471.175781 576.390625 474.558594 C 574.644531 477.9375 572.8125 481.269531 570.886719 484.550781 C 568.964844 487.832031 566.953125 491.058594 564.855469 494.230469 C 562.757812 497.40625 560.574219 500.519531 558.308594 503.574219 C 556.042969 506.628906 553.695312 509.625 551.265625 512.550781 C 548.839844 515.480469 546.335938 518.34375 543.753906 521.136719 C 541.171875 523.929688 538.515625 526.652344 535.789062 529.304688 C 533.058594 531.957031 530.261719 534.53125 527.394531 537.03125 C 524.523438 539.53125 521.59375 541.953125 518.59375 544.292969 C 515.59375 546.636719 512.535156 548.898438 509.417969 551.074219 C 506.296875 553.25 503.121094 555.34375 499.886719 557.347656 C 496.652344 559.355469 493.367188 561.273438 490.03125 563.101562 C 486.695312 564.929688 483.3125 566.667969 479.882812 568.3125 C 476.453125 569.960938 472.980469 571.515625 469.464844 572.972656 C 465.953125 574.433594 462.402344 575.796875 458.8125 577.066406 C 455.226562 578.332031 451.605469 579.503906 447.957031 580.578125 C 444.304688 581.648438 440.628906 582.625 436.925781 583.5 C 433.222656 584.371094 429.496094 585.148438 425.753906 585.820312 C 422.007812 586.496094 418.246094 587.070312 414.46875 587.539062 C 410.695312 588.011719 406.910156 588.378906 403.113281 588.648438 C 399.316406 588.914062 395.515625 589.082031 391.710938 589.144531 C 387.90625 589.207031 384.101562 589.164062 380.300781 589.023438 C 376.496094 588.878906 372.703125 588.636719 368.914062 588.289062 C 365.121094 587.941406 361.34375 587.492188 357.582031 586.941406 C 353.816406 586.390625 350.066406 585.738281 346.335938 584.988281 C 342.605469 584.234375 338.898438 583.382812 335.214844 582.429688 C 331.53125 581.476562 327.875 580.425781 324.25 579.277344 C 327.179688 578.746094 330.09375 578.148438 332.996094 577.492188 C 335.902344 576.832031 338.789062 576.113281 341.660156 575.328125 C 344.53125 574.546875 347.386719 573.699219 350.222656 572.792969 C 353.054688 571.886719 355.871094 570.917969 358.664062 569.886719 C 361.457031 568.859375 364.226562 567.769531 366.972656 566.621094 C 369.71875 565.46875 372.4375 564.261719 375.132812 562.996094 C 377.824219 561.726562 380.488281 560.402344 383.125 559.019531 C 385.761719 557.636719 388.367188 556.195312 390.9375 554.699219 C 393.511719 553.203125 396.050781 551.652344 398.558594 550.046875 C 401.0625 548.441406 403.535156 546.78125 405.96875 545.066406 C 408.402344 543.351562 410.796875 541.585938 413.15625 539.769531 C 415.511719 537.953125 417.828125 536.085938 420.105469 534.167969 C 422.382812 532.25 424.613281 530.28125 426.804688 528.269531 C 428.996094 526.253906 431.140625 524.191406 433.242188 522.085938 C 435.34375 519.976562 437.398438 517.824219 439.40625 515.628906 C 441.414062 513.429688 443.375 511.191406 445.285156 508.910156 C 447.195312 506.625 449.054688 504.304688 450.863281 501.941406 C 452.675781 499.578125 454.433594 497.179688 456.136719 494.738281 C 457.84375 492.300781 459.496094 489.824219 461.09375 487.316406 C 462.691406 484.804688 464.234375 482.261719 465.722656 479.683594 C 467.207031 477.105469 468.640625 474.496094 470.011719 471.855469 C 471.386719 469.21875 472.703125 466.550781 473.960938 463.851562 C 475.222656 461.15625 476.421875 458.433594 477.558594 455.683594 C 478.699219 452.9375 479.78125 450.164062 480.800781 447.367188 C 481.820312 444.570312 482.777344 441.757812 483.675781 438.917969 C 484.574219 436.082031 485.410156 433.226562 486.183594 430.351562 C 486.957031 427.480469 487.667969 424.589844 488.316406 421.6875 C 488.964844 418.78125 489.546875 415.863281 490.070312 412.9375 C 490.589844 410.007812 491.046875 407.066406 491.441406 404.117188 C 491.835938 401.167969 492.164062 398.210938 492.429688 395.246094 C 492.695312 392.285156 492.898438 389.316406 493.03125 386.34375 C 493.167969 383.371094 493.242188 380.394531 493.25 377.421875 C 493.25 276.632812 420.273438 192.808594 324.390625 175.707031 Z M 324.390625 175.707031 " fill-opacity="1" fill-rule="nonzero"/><path fill="#ffd76b" d="M 176.179688 377.421875 C 176.1875 374.632812 176.246094 371.84375 176.363281 369.058594 C 176.480469 366.269531 176.648438 363.488281 176.875 360.707031 C 177.101562 357.929688 177.382812 355.15625 177.71875 352.386719 C 178.054688 349.617188 178.445312 346.855469 178.890625 344.101562 C 179.332031 341.351562 179.832031 338.605469 180.386719 335.871094 C 180.9375 333.140625 181.542969 330.417969 182.203125 327.707031 C 182.863281 325 183.578125 322.300781 184.34375 319.621094 C 185.113281 316.941406 185.929688 314.273438 186.804688 311.625 C 187.675781 308.976562 188.597656 306.34375 189.574219 303.730469 C 190.550781 301.121094 191.578125 298.527344 192.65625 295.953125 C 193.734375 293.382812 194.863281 290.832031 196.039062 288.304688 C 197.21875 285.777344 198.449219 283.273438 199.726562 280.792969 C 201.003906 278.3125 202.328125 275.859375 203.703125 273.433594 C 205.078125 271.007812 206.5 268.609375 207.96875 266.238281 C 209.4375 263.867188 210.953125 261.523438 212.515625 259.214844 C 214.078125 256.902344 215.683594 254.625 217.335938 252.375 C 218.988281 250.128906 220.683594 247.914062 222.421875 245.734375 C 224.160156 243.550781 225.941406 241.40625 227.765625 239.296875 C 229.589844 237.183594 231.453125 235.109375 233.359375 233.074219 C 235.265625 231.035156 237.210938 229.039062 239.195312 227.078125 C 241.179688 225.117188 243.199219 223.195312 245.261719 221.316406 C 247.320312 219.433594 249.417969 217.59375 251.550781 215.796875 C 253.683594 214 255.851562 212.242188 258.054688 210.53125 C 260.257812 208.820312 262.492188 207.152344 264.757812 205.527344 C 267.027344 203.902344 269.328125 202.324219 271.65625 200.789062 C 273.988281 199.253906 276.347656 197.769531 278.734375 196.328125 C 281.125 194.886719 283.542969 193.496094 285.984375 192.148438 C 288.429688 190.804688 290.898438 189.507812 293.394531 188.257812 C 295.890625 187.011719 298.410156 185.8125 300.953125 184.664062 C 303.496094 183.515625 306.058594 182.417969 308.644531 181.371094 C 311.230469 180.324219 313.835938 179.328125 316.460938 178.382812 C 319.085938 177.4375 321.730469 176.546875 324.390625 175.707031 C 420.273438 192.808594 493.25 276.632812 493.25 377.421875 C 493.242188 380.394531 493.167969 383.371094 493.03125 386.34375 C 492.898438 389.316406 492.695312 392.285156 492.429688 395.246094 C 492.164062 398.210938 491.835938 401.167969 491.441406 404.117188 C 491.046875 407.066406 490.589844 410.007812 490.070312 412.9375 C 489.546875 415.863281 488.964844 418.78125 488.316406 421.6875 C 487.667969 424.589844 486.957031 427.480469 486.183594 430.351562 C 485.410156 433.226562 484.574219 436.082031 483.675781 438.917969 C 482.777344 441.757812 481.820312 444.570312 480.800781 447.367188 C 479.78125 450.164062 478.699219 452.9375 477.558594 455.683594 C 476.421875 458.433594 475.222656 461.15625 473.960938 463.851562 C 472.703125 466.550781 471.386719 469.21875 470.011719 471.855469 C 468.640625 474.496094 467.207031 477.105469 465.722656 479.683594 C 464.234375 482.261719 462.691406 484.804688 461.09375 487.316406 C 459.496094 489.824219 457.84375 492.300781 456.136719 494.738281 C 454.433594 497.179688 452.675781 499.578125 450.863281 501.941406 C 449.054688 504.304688 447.195312 506.625 445.285156 508.910156 C 443.375 511.191406 441.414062 513.429688 439.40625 515.628906 C 437.398438 517.824219 435.34375 519.976562 433.242188 522.085938 C 431.140625 524.191406 428.996094 526.253906 426.804688 528.269531 C 424.613281 530.28125 422.382812 532.25 420.105469 534.167969 C 417.828125 536.085938 415.511719 537.953125 413.15625 539.769531 C 410.796875 541.585938 408.402344 543.351562 405.96875 545.066406 C 403.535156 546.78125 401.0625 548.441406 398.558594 550.046875 C 396.050781 551.652344 393.511719 553.203125 390.9375 554.699219 C 388.367188 556.195312 385.761719 557.636719 383.125 559.019531 C 380.488281 560.402344 377.824219 561.726562 375.132812 562.996094 C 372.4375 564.261719 369.71875 565.46875 366.972656 566.621094 C 364.226562 567.769531 361.457031 568.859375 358.664062 569.886719 C 355.871094 570.917969 353.054688 571.886719 350.222656 572.792969 C 347.386719 573.699219 344.53125 574.546875 341.660156 575.328125 C 338.789062 576.113281 335.902344 576.832031 332.996094 577.492188 C 330.09375 578.148438 327.179688 578.746094 324.25 579.277344 C 321.585938 578.4375 318.941406 577.546875 316.316406 576.605469 C 313.6875 575.660156 311.082031 574.664062 308.492188 573.621094 C 305.90625 572.574219 303.339844 571.476562 300.792969 570.328125 C 298.25 569.179688 295.730469 567.984375 293.234375 566.734375 C 290.734375 565.488281 288.265625 564.191406 285.820312 562.847656 C 283.375 561.5 280.957031 560.109375 278.566406 558.667969 C 276.175781 557.226562 273.8125 555.738281 271.480469 554.203125 C 269.148438 552.671875 266.847656 551.089844 264.582031 549.464844 C 262.3125 547.839844 260.074219 546.171875 257.871094 544.457031 C 255.667969 542.746094 253.5 540.988281 251.367188 539.1875 C 249.234375 537.390625 247.136719 535.546875 245.074219 533.667969 C 243.015625 531.785156 240.992188 529.863281 239.007812 527.898438 C 237.023438 525.9375 235.078125 523.9375 233.171875 521.898438 C 231.265625 519.859375 229.402344 517.785156 227.578125 515.671875 C 225.757812 513.558594 223.976562 511.410156 222.238281 509.226562 C 220.5 507.042969 218.804688 504.828125 217.152344 502.578125 C 215.503906 500.328125 213.898438 498.042969 212.339844 495.730469 C 210.777344 493.417969 209.265625 491.074219 207.796875 488.699219 C 206.328125 486.328125 204.910156 483.925781 203.535156 481.496094 C 202.164062 479.066406 200.839844 476.609375 199.566406 474.128906 C 198.289062 471.648438 197.0625 469.140625 195.886719 466.609375 C 194.710938 464.078125 193.585938 461.527344 192.511719 458.953125 C 191.4375 456.375 190.410156 453.78125 189.441406 451.167969 C 188.46875 448.550781 187.546875 445.917969 186.679688 443.265625 C 185.8125 440.613281 184.996094 437.945312 184.234375 435.261719 C 183.46875 432.578125 182.761719 429.878906 182.105469 427.167969 C 181.449219 424.457031 180.847656 421.730469 180.300781 418.996094 C 179.75 416.261719 179.257812 413.515625 178.816406 410.757812 C 178.378906 408.003906 177.996094 405.242188 177.664062 402.46875 C 177.335938 399.699219 177.058594 396.921875 176.839844 394.140625 C 176.617188 391.359375 176.453125 388.574219 176.34375 385.789062 C 176.234375 383 176.179688 380.210938 176.179688 377.421875 Z M 176.179688 377.421875 " fill-opacity="1" fill-rule="nonzero"/><g clip-path="url(#6e209ca754)"><path fill="#26477a" d="M 354.230469 79.582031 C 354.230469 80.058594 354.183594 80.527344 354.09375 80.988281 C 354 81.453125 353.863281 81.90625 353.679688 82.34375 C 353.5 82.78125 353.277344 83.195312 353.015625 83.589844 C 352.75 83.980469 352.453125 84.347656 352.117188 84.679688 C 351.78125 85.015625 351.417969 85.316406 351.023438 85.578125 C 350.632812 85.839844 350.214844 86.0625 349.777344 86.242188 C 349.339844 86.425781 348.890625 86.5625 348.425781 86.652344 C 347.960938 86.746094 347.492188 86.792969 347.019531 86.792969 C 346.542969 86.792969 346.074219 86.746094 345.609375 86.652344 C 345.144531 86.5625 344.695312 86.425781 344.257812 86.242188 C 343.820312 86.0625 343.40625 85.839844 343.011719 85.578125 C 342.617188 85.316406 342.253906 85.015625 341.917969 84.679688 C 341.582031 84.347656 341.285156 83.980469 341.019531 83.589844 C 340.757812 83.195312 340.535156 82.78125 340.355469 82.34375 C 340.171875 81.90625 340.035156 81.453125 339.945312 80.988281 C 339.851562 80.527344 339.804688 80.058594 339.804688 79.582031 C 339.804688 79.109375 339.851562 78.640625 339.945312 78.175781 C 340.035156 77.714844 340.171875 77.261719 340.355469 76.824219 C 340.535156 76.386719 340.757812 75.972656 341.019531 75.578125 C 341.285156 75.183594 341.582031 74.820312 341.917969 74.484375 C 342.253906 74.152344 342.617188 73.851562 343.011719 73.589844 C 343.40625 73.328125 343.820312 73.105469 344.257812 72.921875 C 344.695312 72.742188 345.144531 72.605469 345.609375 72.511719 C 346.074219 72.421875 346.542969 72.375 347.019531 72.375 C 347.492188 72.375 347.960938 72.421875 348.425781 72.511719 C 348.890625 72.605469 349.339844 72.742188 349.777344 72.921875 C 350.214844 73.105469 350.632812 73.328125 351.023438 73.589844 C 351.417969 73.851562 351.78125 74.152344 352.117188 74.484375 C 352.453125 74.820312 352.75 75.183594 353.015625 75.578125 C 353.277344 75.972656 353.5 76.386719 353.679688 76.824219 C 353.863281 77.261719 354 77.714844 354.09375 78.175781 C 354.183594 78.640625 354.230469 79.109375 354.230469 79.582031 Z M 354.230469 79.582031 " fill-opacity="1" fill-rule="nonzero"/></g><path fill="#26477a" d="M 114.238281 497.433594 C 114.238281 498.257812 114.15625 499.074219 113.996094 499.886719 C 113.832031 500.695312 113.59375 501.484375 113.277344 502.246094 C 112.960938 503.007812 112.574219 503.734375 112.117188 504.421875 C 111.65625 505.109375 111.132812 505.742188 110.550781 506.328125 C 109.964844 506.910156 109.328125 507.433594 108.644531 507.890625 C 107.957031 508.351562 107.230469 508.738281 106.46875 509.054688 C 105.703125 509.371094 104.917969 509.609375 104.105469 509.769531 C 103.296875 509.933594 102.476562 510.011719 101.648438 510.011719 C 100.824219 510.011719 100.003906 509.933594 99.195312 509.769531 C 98.382812 509.609375 97.597656 509.371094 96.832031 509.054688 C 96.070312 508.738281 95.34375 508.351562 94.65625 507.890625 C 93.96875 507.433594 93.335938 506.910156 92.75 506.328125 C 92.164062 505.742188 91.644531 505.109375 91.183594 504.421875 C 90.726562 503.734375 90.339844 503.007812 90.023438 502.246094 C 89.707031 501.484375 89.464844 500.695312 89.304688 499.886719 C 89.144531 499.074219 89.0625 498.257812 89.0625 497.433594 C 89.0625 496.605469 89.144531 495.789062 89.304688 494.976562 C 89.464844 494.167969 89.707031 493.378906 90.023438 492.617188 C 90.339844 491.855469 90.726562 491.128906 91.183594 490.441406 C 91.644531 489.753906 92.164062 489.121094 92.75 488.535156 C 93.335938 487.953125 93.96875 487.429688 94.65625 486.972656 C 95.34375 486.511719 96.070312 486.125 96.832031 485.808594 C 97.597656 485.492188 98.382812 485.253906 99.195312 485.09375 C 100.003906 484.933594 100.824219 484.851562 101.648438 484.851562 C 102.476562 484.851562 103.296875 484.933594 104.105469 485.09375 C 104.917969 485.253906 105.703125 485.492188 106.46875 485.808594 C 107.230469 486.125 107.957031 486.511719 108.644531 486.972656 C 109.328125 487.429688 109.964844 487.953125 110.550781 488.535156 C 111.132812 489.121094 111.65625 489.753906 112.117188 490.441406 C 112.574219 491.128906 112.960938 491.855469 113.277344 492.617188 C 113.59375 493.378906 113.832031 494.167969 113.996094 494.976562 C 114.15625 495.789062 114.238281 496.605469 114.238281 497.433594 Z M 114.238281 497.433594 " fill-opacity="1" fill-rule="nonzero"/><path fill="#26477a" d="M 120.035156 328.085938 C 120.035156 328.914062 119.953125 329.730469 119.792969 330.542969 C 119.632812 331.351562 119.394531 332.136719 119.078125 332.902344 C 118.761719 333.664062 118.371094 334.390625 117.914062 335.078125 C 117.453125 335.765625 116.933594 336.398438 116.347656 336.984375 C 115.765625 337.566406 115.128906 338.089844 114.441406 338.546875 C 113.753906 339.007812 113.027344 339.394531 112.265625 339.710938 C 111.5 340.027344 110.714844 340.265625 109.902344 340.425781 C 109.09375 340.585938 108.273438 340.667969 107.449219 340.667969 C 106.621094 340.667969 105.804688 340.585938 104.992188 340.425781 C 104.183594 340.265625 103.394531 340.027344 102.632812 339.710938 C 101.867188 339.394531 101.144531 339.007812 100.457031 338.546875 C 99.769531 338.089844 99.132812 337.566406 98.546875 336.984375 C 97.964844 336.398438 97.441406 335.761719 96.984375 335.078125 C 96.523438 334.390625 96.136719 333.664062 95.820312 332.902344 C 95.503906 332.136719 95.265625 331.351562 95.105469 330.542969 C 94.941406 329.730469 94.863281 328.914062 94.863281 328.085938 C 94.863281 327.261719 94.941406 326.441406 95.105469 325.632812 C 95.265625 324.824219 95.503906 324.035156 95.820312 323.273438 C 96.136719 322.507812 96.523438 321.785156 96.984375 321.097656 C 97.441406 320.410156 97.964844 319.777344 98.546875 319.191406 C 99.132812 318.605469 99.769531 318.085938 100.457031 317.625 C 101.144531 317.167969 101.867188 316.78125 102.632812 316.464844 C 103.394531 316.148438 104.183594 315.910156 104.992188 315.75 C 105.804688 315.585938 106.621094 315.507812 107.449219 315.507812 C 108.273438 315.507812 109.09375 315.585938 109.902344 315.75 C 110.714844 315.910156 111.5 316.148438 112.265625 316.464844 C 113.027344 316.78125 113.753906 317.167969 114.441406 317.625 C 115.128906 318.085938 115.765625 318.605469 116.347656 319.191406 C 116.933594 319.777344 117.453125 320.410156 117.914062 321.097656 C 118.371094 321.785156 118.761719 322.507812 119.078125 323.273438 C 119.394531 324.035156 119.632812 324.824219 119.792969 325.632812 C 119.953125 326.441406 120.035156 327.261719 120.035156 328.085938 Z M 120.035156 328.085938 " fill-opacity="1" fill-rule="nonzero"/><path fill="#26477a" d="M 728.859375 423.363281 C 728.859375 424.1875 728.777344 425.003906 728.617188 425.816406 C 728.457031 426.625 728.214844 427.414062 727.898438 428.175781 C 727.585938 428.9375 727.195312 429.664062 726.738281 430.351562 C 726.277344 431.039062 725.757812 431.671875 725.171875 432.257812 C 724.585938 432.839844 723.953125 433.363281 723.265625 433.820312 C 722.578125 434.28125 721.851562 434.667969 721.089844 434.984375 C 720.324219 435.300781 719.539062 435.539062 718.726562 435.699219 C 717.917969 435.863281 717.097656 435.941406 716.273438 435.941406 C 715.445312 435.941406 714.625 435.863281 713.816406 435.699219 C 713.003906 435.539062 712.21875 435.300781 711.457031 434.984375 C 710.691406 434.667969 709.964844 434.28125 709.277344 433.820312 C 708.59375 433.363281 707.957031 432.839844 707.371094 432.257812 C 706.789062 431.671875 706.265625 431.039062 705.804688 430.351562 C 705.347656 429.664062 704.960938 428.9375 704.644531 428.175781 C 704.328125 427.414062 704.089844 426.625 703.925781 425.816406 C 703.765625 425.003906 703.683594 424.1875 703.683594 423.363281 C 703.683594 422.535156 703.765625 421.71875 703.925781 420.90625 C 704.089844 420.097656 704.328125 419.308594 704.644531 418.546875 C 704.960938 417.785156 705.347656 417.058594 705.804688 416.371094 C 706.265625 415.683594 706.789062 415.050781 707.371094 414.464844 C 707.957031 413.882812 708.59375 413.359375 709.277344 412.902344 C 709.964844 412.441406 710.691406 412.054688 711.457031 411.738281 C 712.21875 411.421875 713.003906 411.183594 713.816406 411.023438 C 714.625 410.859375 715.445312 410.78125 716.273438 410.78125 C 717.097656 410.78125 717.917969 410.859375 718.726562 411.023438 C 719.539062 411.183594 720.324219 411.421875 721.089844 411.738281 C 721.851562 412.054688 722.578125 412.441406 723.265625 412.902344 C 723.953125 413.359375 724.585938 413.882812 725.171875 414.464844 C 725.757812 415.050781 726.277344 415.683594 726.738281 416.371094 C 727.195312 417.058594 727.585938 417.785156 727.898438 418.546875 C 728.214844 419.308594 728.457031 420.097656 728.617188 420.90625 C 728.777344 421.71875 728.859375 422.535156 728.859375 423.363281 Z M 728.859375 423.363281 " fill-opacity="1" fill-rule="nonzero"/><path fill="#26477a" d="M 223.980469 148.140625 C 223.980469 148.613281 223.933594 149.082031 223.84375 149.546875 C 223.75 150.011719 223.613281 150.460938 223.429688 150.898438 C 223.25 151.335938 223.027344 151.753906 222.765625 152.144531 C 222.5 152.539062 222.203125 152.902344 221.867188 153.238281 C 221.53125 153.574219 221.167969 153.871094 220.773438 154.136719 C 220.382812 154.398438 219.964844 154.621094 219.527344 154.800781 C 219.089844 154.984375 218.640625 155.121094 218.175781 155.210938 C 217.710938 155.304688 217.242188 155.351562 216.769531 155.351562 C 216.292969 155.351562 215.824219 155.304688 215.359375 155.210938 C 214.894531 155.121094 214.445312 154.984375 214.007812 154.800781 C 213.570312 154.621094 213.15625 154.398438 212.761719 154.136719 C 212.367188 153.871094 212.003906 153.574219 211.667969 153.238281 C 211.332031 152.902344 211.035156 152.539062 210.769531 152.144531 C 210.507812 151.753906 210.285156 151.335938 210.105469 150.898438 C 209.921875 150.460938 209.785156 150.011719 209.695312 149.546875 C 209.601562 149.082031 209.554688 148.613281 209.554688 148.140625 C 209.554688 147.667969 209.601562 147.199219 209.695312 146.734375 C 209.785156 146.269531 209.921875 145.820312 210.105469 145.382812 C 210.285156 144.945312 210.507812 144.53125 210.769531 144.136719 C 211.035156 143.742188 211.332031 143.378906 211.667969 143.042969 C 212.003906 142.707031 212.367188 142.410156 212.761719 142.148438 C 213.15625 141.882812 213.570312 141.660156 214.007812 141.480469 C 214.445312 141.300781 214.894531 141.164062 215.359375 141.070312 C 215.824219 140.976562 216.292969 140.933594 216.769531 140.933594 C 217.242188 140.933594 217.710938 140.976562 218.175781 141.070312 C 218.640625 141.164062 219.089844 141.300781 219.527344 141.480469 C 219.964844 141.660156 220.382812 141.882812 220.773438 142.148438 C 221.167969 142.410156 221.53125 142.707031 221.867188 143.042969 C 222.203125 143.378906 222.5 143.742188 222.765625 144.136719 C 223.027344 144.53125 223.25 144.945312 223.429688 145.382812 C 223.613281 145.820312 223.75 146.269531 223.84375 146.734375 C 223.933594 147.199219 223.980469 147.667969 223.980469 148.140625 Z M 223.980469 148.140625 " fill-opacity="1" fill-rule="nonzero"/><path fill="#26477a" d="M 457.328125 630.589844 C 457.328125 631.0625 457.28125 631.53125 457.1875 631.996094 C 457.097656 632.460938 456.960938 632.910156 456.777344 633.347656 C 456.597656 633.785156 456.375 634.199219 456.113281 634.59375 C 455.847656 634.988281 455.550781 635.351562 455.214844 635.6875 C 454.878906 636.019531 454.515625 636.320312 454.121094 636.582031 C 453.726562 636.847656 453.3125 637.066406 452.875 637.25 C 452.4375 637.429688 451.988281 637.566406 451.523438 637.660156 C 451.058594 637.753906 450.589844 637.796875 450.113281 637.796875 C 449.640625 637.796875 449.171875 637.753906 448.707031 637.660156 C 448.242188 637.566406 447.792969 637.429688 447.355469 637.25 C 446.917969 637.066406 446.5 636.847656 446.109375 636.582031 C 445.714844 636.320312 445.351562 636.019531 445.015625 635.6875 C 444.679688 635.351562 444.382812 634.988281 444.117188 634.59375 C 443.855469 634.199219 443.632812 633.785156 443.453125 633.347656 C 443.269531 632.910156 443.132812 632.460938 443.039062 631.996094 C 442.949219 631.53125 442.902344 631.0625 442.902344 630.589844 C 442.902344 630.117188 442.949219 629.648438 443.039062 629.183594 C 443.132812 628.71875 443.269531 628.265625 443.453125 627.832031 C 443.632812 627.394531 443.855469 626.976562 444.117188 626.582031 C 444.382812 626.191406 444.679688 625.828125 445.015625 625.492188 C 445.351562 625.15625 445.714844 624.859375 446.109375 624.59375 C 446.5 624.332031 446.917969 624.109375 447.355469 623.929688 C 447.792969 623.746094 448.242188 623.609375 448.707031 623.519531 C 449.171875 623.425781 449.640625 623.378906 450.113281 623.378906 C 450.589844 623.378906 451.058594 623.425781 451.523438 623.519531 C 451.988281 623.609375 452.4375 623.746094 452.875 623.929688 C 453.3125 624.109375 453.726562 624.332031 454.121094 624.59375 C 454.515625 624.859375 454.878906 625.15625 455.214844 625.492188 C 455.550781 625.828125 455.847656 626.191406 456.113281 626.582031 C 456.375 626.976562 456.597656 627.394531 456.777344 627.832031 C 456.960938 628.265625 457.097656 628.71875 457.1875 629.183594 C 457.28125 629.648438 457.328125 630.117188 457.328125 630.589844 Z M 457.328125 630.589844 " fill-opacity="1" fill-rule="nonzero"/><path fill="#ffae46" d="M 93.589844 249.917969 L 83.265625 225.746094 L 57.386719 220.515625 L 77.324219 203.269531 L 74.214844 177.121094 L 96.839844 190.6875 L 120.742188 179.664062 L 114.800781 205.390625 L 132.621094 224.757812 L 106.457031 227.019531 Z M 93.589844 249.917969 " fill-opacity="1" fill-rule="nonzero"/><path fill="#ffae46" d="M 673.703125 599.914062 L 663.378906 575.742188 L 637.640625 570.511719 L 657.441406 553.265625 L 654.46875 527.117188 L 677.097656 540.6875 L 701 529.800781 L 695.058594 555.386719 L 712.878906 574.753906 L 686.714844 577.015625 Z M 673.703125 599.914062 " fill-opacity="1" fill-rule="nonzero"/><path fill="#26477a" d="M 133.046875 642.039062 L 124.84375 622.53125 L 103.914062 618.292969 L 120.035156 604.296875 L 117.488281 583.234375 L 135.734375 594.121094 L 155.109375 585.355469 L 150.300781 605.992188 L 164.722656 621.683594 L 143.511719 623.519531 Z M 133.046875 642.039062 " fill-opacity="1" fill-rule="nonzero"/><path fill="#26477a" d="M 592.953125 169.34375 L 584.609375 149.835938 L 563.820312 145.597656 L 579.800781 131.601562 L 577.394531 110.539062 L 595.636719 121.425781 L 615.011719 112.660156 L 610.207031 133.300781 L 624.628906 148.988281 L 603.417969 150.828125 Z M 592.953125 169.34375 " fill-opacity="1" fill-rule="nonzero"/><path fill="#26477a" d="M 668.613281 338.972656 C 668.613281 339.445312 668.566406 339.914062 668.472656 340.378906 C 668.382812 340.84375 668.246094 341.292969 668.0625 341.730469 C 667.882812 342.167969 667.660156 342.582031 667.398438 342.976562 C 667.132812 343.371094 666.835938 343.734375 666.5 344.070312 C 666.164062 344.402344 665.800781 344.703125 665.40625 344.964844 C 665.011719 345.230469 664.597656 345.449219 664.160156 345.632812 C 663.722656 345.8125 663.273438 345.949219 662.808594 346.042969 C 662.34375 346.136719 661.875 346.179688 661.398438 346.179688 C 660.925781 346.179688 660.457031 346.136719 659.992188 346.042969 C 659.527344 345.949219 659.078125 345.8125 658.640625 345.632812 C 658.203125 345.449219 657.785156 345.230469 657.394531 344.964844 C 657 344.703125 656.636719 344.402344 656.300781 344.070312 C 655.964844 343.734375 655.667969 343.371094 655.402344 342.976562 C 655.140625 342.582031 654.917969 342.167969 654.738281 341.730469 C 654.554688 341.292969 654.417969 340.84375 654.324219 340.378906 C 654.234375 339.914062 654.1875 339.445312 654.1875 338.972656 C 654.1875 338.5 654.234375 338.03125 654.324219 337.566406 C 654.417969 337.101562 654.554688 336.648438 654.738281 336.214844 C 654.917969 335.777344 655.140625 335.359375 655.402344 334.964844 C 655.667969 334.574219 655.964844 334.207031 656.300781 333.875 C 656.636719 333.539062 657 333.242188 657.394531 332.976562 C 657.785156 332.714844 658.203125 332.492188 658.640625 332.3125 C 659.078125 332.128906 659.527344 331.992188 659.992188 331.902344 C 660.457031 331.808594 660.925781 331.761719 661.398438 331.761719 C 661.875 331.761719 662.34375 331.808594 662.808594 331.902344 C 663.273438 331.992188 663.722656 332.128906 664.160156 332.3125 C 664.597656 332.492188 665.011719 332.714844 665.40625 332.976562 C 665.800781 333.242188 666.164062 333.539062 666.5 333.875 C 666.835938 334.207031 667.132812 334.574219 667.398438 334.964844 C 667.660156 335.359375 667.882812 335.777344 668.0625 336.214844 C 668.246094 336.648438 668.382812 337.101562 668.472656 337.566406 C 668.566406 338.03125 668.613281 338.5 668.613281 338.972656 Z M 668.613281 338.972656 " fill-opacity="1" fill-rule="nonzero"/><path fill="#ffae46" d="M 489.148438 124.957031 C 489.148438 125.554688 489.089844 126.140625 488.972656 126.722656 C 488.859375 127.304688 488.6875 127.871094 488.457031 128.421875 C 488.230469 128.96875 487.953125 129.492188 487.621094 129.984375 C 487.292969 130.480469 486.917969 130.9375 486.496094 131.355469 C 486.078125 131.777344 485.617188 132.152344 485.125 132.480469 C 484.628906 132.8125 484.109375 133.089844 483.558594 133.316406 C 483.011719 133.542969 482.445312 133.714844 481.863281 133.832031 C 481.28125 133.949219 480.691406 134.003906 480.097656 134.003906 C 479.503906 134.003906 478.914062 133.949219 478.332031 133.832031 C 477.746094 133.714844 477.183594 133.542969 476.632812 133.316406 C 476.082031 133.089844 475.5625 132.8125 475.066406 132.480469 C 474.574219 132.152344 474.117188 131.777344 473.695312 131.355469 C 473.277344 130.9375 472.902344 130.480469 472.570312 129.984375 C 472.242188 129.492188 471.960938 128.96875 471.734375 128.421875 C 471.507812 127.871094 471.335938 127.304688 471.21875 126.722656 C 471.101562 126.140625 471.046875 125.554688 471.046875 124.957031 C 471.046875 124.363281 471.101562 123.777344 471.21875 123.195312 C 471.335938 122.609375 471.507812 122.046875 471.734375 121.496094 C 471.960938 120.949219 472.242188 120.425781 472.570312 119.933594 C 472.902344 119.4375 473.277344 118.980469 473.695312 118.5625 C 474.117188 118.140625 474.574219 117.765625 475.066406 117.4375 C 475.5625 117.105469 476.082031 116.828125 476.632812 116.601562 C 477.183594 116.375 477.746094 116.203125 478.332031 116.085938 C 478.914062 115.96875 479.503906 115.910156 480.097656 115.910156 C 480.691406 115.910156 481.28125 115.96875 481.863281 116.085938 C 482.445312 116.203125 483.011719 116.375 483.558594 116.601562 C 484.109375 116.828125 484.628906 117.105469 485.125 117.4375 C 485.617188 117.765625 486.078125 118.140625 486.496094 118.5625 C 486.917969 118.980469 487.292969 119.4375 487.621094 119.933594 C 487.953125 120.425781 488.230469 120.949219 488.457031 121.496094 C 488.6875 122.046875 488.859375 122.609375 488.972656 123.195312 C 489.089844 123.777344 489.148438 124.363281 489.148438 124.957031 Z M 489.148438 124.957031 " fill-opacity="1" fill-rule="nonzero"/><path fill="#ffae46" d="M 622.085938 460.820312 C 622.085938 461.414062 622.027344 462.003906 621.910156 462.585938 C 621.792969 463.167969 621.621094 463.734375 621.394531 464.28125 C 621.167969 464.832031 620.890625 465.351562 620.558594 465.847656 C 620.230469 466.339844 619.855469 466.796875 619.433594 467.21875 C 619.011719 467.636719 618.554688 468.011719 618.0625 468.34375 C 617.566406 468.671875 617.046875 468.953125 616.496094 469.179688 C 615.949219 469.40625 615.382812 469.578125 614.800781 469.695312 C 614.214844 469.808594 613.628906 469.867188 613.035156 469.867188 C 612.4375 469.867188 611.851562 469.808594 611.269531 469.695312 C 610.683594 469.578125 610.117188 469.40625 609.570312 469.179688 C 609.019531 468.953125 608.5 468.671875 608.003906 468.34375 C 607.511719 468.011719 607.054688 467.636719 606.632812 467.21875 C 606.214844 466.796875 605.839844 466.339844 605.507812 465.847656 C 605.175781 465.351562 604.898438 464.832031 604.671875 464.28125 C 604.445312 463.734375 604.273438 463.167969 604.15625 462.585938 C 604.039062 462.003906 603.984375 461.414062 603.984375 460.820312 C 603.984375 460.226562 604.039062 459.636719 604.15625 459.054688 C 604.273438 458.472656 604.445312 457.90625 604.671875 457.359375 C 604.898438 456.808594 605.175781 456.289062 605.507812 455.792969 C 605.839844 455.300781 606.214844 454.84375 606.632812 454.421875 C 607.054688 454.003906 607.511719 453.628906 608.003906 453.296875 C 608.5 452.96875 609.019531 452.691406 609.570312 452.460938 C 610.117188 452.234375 610.683594 452.0625 611.269531 451.949219 C 611.851562 451.832031 612.4375 451.773438 613.035156 451.773438 C 613.628906 451.773438 614.214844 451.832031 614.800781 451.949219 C 615.382812 452.0625 615.949219 452.234375 616.496094 452.460938 C 617.046875 452.691406 617.566406 452.96875 618.0625 453.296875 C 618.554688 453.628906 619.011719 454.003906 619.433594 454.421875 C 619.855469 454.84375 620.230469 455.300781 620.558594 455.792969 C 620.890625 456.289062 621.167969 456.808594 621.394531 457.359375 C 621.621094 457.90625 621.792969 458.472656 621.910156 459.054688 C 622.027344 459.636719 622.085938 460.226562 622.085938 460.820312 Z M 622.085938 460.820312 " fill-opacity="1" fill-rule="nonzero"/><path fill="#ffae46" d="M 546 658.859375 C 546 659.453125 545.941406 660.042969 545.824219 660.625 C 545.710938 661.207031 545.539062 661.773438 545.308594 662.324219 C 545.082031 662.871094 544.804688 663.390625 544.472656 663.886719 C 544.144531 664.378906 543.769531 664.835938 543.347656 665.257812 C 542.929688 665.675781 542.472656 666.050781 541.976562 666.382812 C 541.484375 666.710938 540.960938 666.992188 540.410156 667.21875 C 539.863281 667.445312 539.296875 667.617188 538.714844 667.734375 C 538.132812 667.847656 537.542969 667.90625 536.949219 667.90625 C 536.355469 667.90625 535.765625 667.847656 535.183594 667.734375 C 534.601562 667.617188 534.035156 667.445312 533.484375 667.21875 C 532.933594 666.992188 532.414062 666.710938 531.917969 666.382812 C 531.425781 666.050781 530.96875 665.675781 530.546875 665.257812 C 530.128906 664.835938 529.753906 664.378906 529.421875 663.886719 C 529.09375 663.390625 528.8125 662.871094 528.585938 662.324219 C 528.359375 661.773438 528.1875 661.207031 528.070312 660.625 C 527.957031 660.042969 527.898438 659.453125 527.898438 658.859375 C 527.898438 658.265625 527.957031 657.679688 528.070312 657.09375 C 528.1875 656.511719 528.359375 655.945312 528.585938 655.398438 C 528.8125 654.847656 529.09375 654.328125 529.421875 653.835938 C 529.753906 653.339844 530.128906 652.882812 530.546875 652.464844 C 530.96875 652.042969 531.425781 651.667969 531.917969 651.339844 C 532.414062 651.007812 532.933594 650.730469 533.484375 650.503906 C 534.035156 650.273438 534.601562 650.101562 535.183594 649.988281 C 535.765625 649.871094 536.355469 649.8125 536.949219 649.8125 C 537.542969 649.8125 538.132812 649.871094 538.714844 649.988281 C 539.296875 650.101562 539.863281 650.273438 540.410156 650.503906 C 540.960938 650.730469 541.484375 651.007812 541.976562 651.339844 C 542.472656 651.667969 542.929688 652.042969 543.347656 652.464844 C 543.769531 652.882812 544.144531 653.339844 544.472656 653.835938 C 544.804688 654.328125 545.082031 654.847656 545.308594 655.398438 C 545.539062 655.945312 545.710938 656.511719 545.824219 657.09375 C 545.941406 657.679688 546 658.265625 546 658.859375 Z M 546 658.859375 " fill-opacity="1" fill-rule="nonzero"/><path fill="#ffae46" d="M 674.695312 229.136719 C 674.695312 229.730469 674.636719 230.320312 674.519531 230.902344 C 674.402344 231.484375 674.230469 232.050781 674.003906 232.601562 C 673.777344 233.148438 673.5 233.671875 673.167969 234.164062 C 672.839844 234.660156 672.464844 235.113281 672.042969 235.535156 C 671.621094 235.957031 671.164062 236.332031 670.671875 236.660156 C 670.175781 236.992188 669.65625 237.269531 669.105469 237.496094 C 668.558594 237.722656 667.992188 237.894531 667.410156 238.011719 C 666.824219 238.128906 666.238281 238.183594 665.644531 238.183594 C 665.046875 238.183594 664.460938 238.128906 663.875 238.011719 C 663.292969 237.894531 662.726562 237.722656 662.179688 237.496094 C 661.628906 237.269531 661.109375 236.992188 660.613281 236.660156 C 660.121094 236.332031 659.664062 235.957031 659.242188 235.535156 C 658.824219 235.113281 658.445312 234.660156 658.117188 234.164062 C 657.785156 233.671875 657.507812 233.148438 657.28125 232.601562 C 657.054688 232.050781 656.882812 231.484375 656.765625 230.902344 C 656.648438 230.320312 656.589844 229.730469 656.589844 229.136719 C 656.589844 228.542969 656.648438 227.957031 656.765625 227.375 C 656.882812 226.789062 657.054688 226.226562 657.28125 225.675781 C 657.507812 225.128906 657.785156 224.605469 658.117188 224.113281 C 658.445312 223.617188 658.824219 223.160156 659.242188 222.742188 C 659.664062 222.320312 660.121094 221.945312 660.613281 221.617188 C 661.109375 221.285156 661.628906 221.007812 662.179688 220.78125 C 662.726562 220.554688 663.292969 220.382812 663.875 220.265625 C 664.460938 220.148438 665.046875 220.089844 665.644531 220.089844 C 666.238281 220.089844 666.824219 220.148438 667.410156 220.265625 C 667.992188 220.382812 668.558594 220.554688 669.105469 220.78125 C 669.65625 221.007812 670.175781 221.285156 670.671875 221.617188 C 671.164062 221.945312 671.621094 222.320312 672.042969 222.742188 C 672.464844 223.160156 672.839844 223.617188 673.167969 224.113281 C 673.5 224.605469 673.777344 225.128906 674.003906 225.675781 C 674.230469 226.226562 674.402344 226.789062 674.519531 227.375 C 674.636719 227.957031 674.695312 228.542969 674.695312 229.136719 Z M 674.695312 229.136719 " fill-opacity="1" fill-rule="nonzero"/><g clip-path="url(#cc9e2f1f61)"><path fill="#ffae46" d="M 389.160156 686.285156 C 389.160156 686.878906 389.105469 687.464844 388.988281 688.046875 C 388.871094 688.628906 388.699219 689.195312 388.472656 689.746094 C 388.246094 690.292969 387.964844 690.816406 387.636719 691.308594 C 387.304688 691.804688 386.929688 692.261719 386.511719 692.679688 C 386.089844 693.101562 385.632812 693.476562 385.140625 693.804688 C 384.644531 694.136719 384.125 694.414062 383.574219 694.640625 C 383.027344 694.867188 382.460938 695.039062 381.875 695.15625 C 381.292969 695.273438 380.707031 695.332031 380.109375 695.332031 C 379.515625 695.332031 378.929688 695.273438 378.34375 695.15625 C 377.761719 695.039062 377.195312 694.867188 376.648438 694.640625 C 376.097656 694.414062 375.578125 694.136719 375.082031 693.804688 C 374.589844 693.476562 374.132812 693.101562 373.710938 692.679688 C 373.289062 692.261719 372.914062 691.804688 372.585938 691.308594 C 372.253906 690.816406 371.976562 690.292969 371.75 689.746094 C 371.519531 689.195312 371.351562 688.632812 371.234375 688.046875 C 371.117188 687.464844 371.058594 686.878906 371.058594 686.285156 C 371.058594 685.6875 371.117188 685.101562 371.234375 684.519531 C 371.351562 683.9375 371.519531 683.371094 371.75 682.820312 C 371.976562 682.273438 372.253906 681.75 372.585938 681.257812 C 372.914062 680.761719 373.289062 680.304688 373.710938 679.886719 C 374.132812 679.464844 374.589844 679.089844 375.082031 678.761719 C 375.578125 678.429688 376.097656 678.152344 376.648438 677.925781 C 377.195312 677.699219 377.761719 677.527344 378.34375 677.410156 C 378.929688 677.292969 379.515625 677.238281 380.109375 677.238281 C 380.707031 677.238281 381.292969 677.292969 381.875 677.410156 C 382.460938 677.527344 383.027344 677.699219 383.574219 677.925781 C 384.125 678.152344 384.644531 678.429688 385.140625 678.761719 C 385.632812 679.089844 386.089844 679.464844 386.511719 679.886719 C 386.929688 680.304688 387.304688 680.761719 387.636719 681.257812 C 387.964844 681.75 388.246094 682.273438 388.472656 682.820312 C 388.699219 683.371094 388.871094 683.9375 388.988281 684.519531 C 389.105469 685.101562 389.160156 685.6875 389.160156 686.285156 Z M 389.160156 686.285156 " fill-opacity="1" fill-rule="nonzero"/></g><path fill="#ffae46" d="M 261.175781 650.238281 C 261.175781 650.832031 261.117188 651.421875 261 652.003906 C 260.882812 652.585938 260.714844 653.152344 260.484375 653.699219 C 260.257812 654.25 259.980469 654.769531 259.648438 655.261719 C 259.320312 655.757812 258.945312 656.214844 258.523438 656.632812 C 258.101562 657.054688 257.644531 657.429688 257.152344 657.757812 C 256.65625 658.089844 256.136719 658.367188 255.585938 658.59375 C 255.039062 658.824219 254.472656 658.996094 253.890625 659.109375 C 253.304688 659.226562 252.71875 659.285156 252.125 659.285156 C 251.53125 659.285156 250.941406 659.226562 250.359375 659.109375 C 249.773438 658.996094 249.207031 658.824219 248.660156 658.59375 C 248.109375 658.367188 247.589844 658.089844 247.09375 657.757812 C 246.601562 657.429688 246.144531 657.054688 245.722656 656.632812 C 245.304688 656.214844 244.929688 655.757812 244.597656 655.261719 C 244.269531 654.769531 243.988281 654.25 243.761719 653.699219 C 243.535156 653.152344 243.363281 652.585938 243.246094 652.003906 C 243.128906 651.421875 243.074219 650.832031 243.074219 650.238281 C 243.074219 649.644531 243.128906 649.054688 243.246094 648.472656 C 243.363281 647.890625 243.535156 647.324219 243.761719 646.777344 C 243.988281 646.226562 244.269531 645.707031 244.597656 645.210938 C 244.929688 644.71875 245.304688 644.261719 245.722656 643.839844 C 246.144531 643.421875 246.601562 643.046875 247.09375 642.714844 C 247.589844 642.386719 248.109375 642.105469 248.660156 641.878906 C 249.207031 641.652344 249.773438 641.480469 250.359375 641.363281 C 250.941406 641.25 251.53125 641.191406 252.125 641.191406 C 252.71875 641.191406 253.304688 641.25 253.890625 641.363281 C 254.472656 641.480469 255.039062 641.652344 255.585938 641.878906 C 256.136719 642.105469 256.65625 642.386719 257.152344 642.714844 C 257.644531 643.046875 258.101562 643.421875 258.523438 643.839844 C 258.945312 644.261719 259.320312 644.71875 259.648438 645.210938 C 259.980469 645.707031 260.257812 646.226562 260.484375 646.777344 C 260.714844 647.324219 260.882812 647.890625 261 648.472656 C 261.117188 649.054688 261.175781 649.644531 261.175781 650.238281 Z M 261.175781 650.238281 " fill-opacity="1" fill-rule="nonzero"/><path fill="#ffae46" d="M 57.101562 422.230469 C 57.101562 422.824219 57.042969 423.414062 56.929688 423.996094 C 56.8125 424.578125 56.640625 425.144531 56.414062 425.691406 C 56.1875 426.242188 55.90625 426.761719 55.578125 427.257812 C 55.246094 427.75 54.871094 428.207031 54.449219 428.628906 C 54.03125 429.046875 53.574219 429.421875 53.078125 429.753906 C 52.585938 430.082031 52.0625 430.359375 51.515625 430.589844 C 50.964844 430.816406 50.398438 430.988281 49.816406 431.101562 C 49.234375 431.21875 48.644531 431.277344 48.050781 431.277344 C 47.457031 431.277344 46.867188 431.21875 46.285156 431.101562 C 45.703125 430.988281 45.136719 430.816406 44.585938 430.589844 C 44.039062 430.359375 43.515625 430.082031 43.023438 429.753906 C 42.527344 429.421875 42.070312 429.046875 41.652344 428.628906 C 41.230469 428.207031 40.855469 427.75 40.523438 427.257812 C 40.195312 426.761719 39.917969 426.242188 39.6875 425.691406 C 39.460938 425.144531 39.289062 424.578125 39.175781 423.996094 C 39.058594 423.414062 39 422.824219 39 422.230469 C 39 421.636719 39.058594 421.046875 39.175781 420.464844 C 39.289062 419.882812 39.460938 419.316406 39.6875 418.769531 C 39.917969 418.21875 40.195312 417.699219 40.523438 417.203125 C 40.855469 416.710938 41.230469 416.253906 41.652344 415.832031 C 42.070312 415.414062 42.527344 415.039062 43.023438 414.707031 C 43.515625 414.378906 44.039062 414.097656 44.585938 413.871094 C 45.136719 413.644531 45.703125 413.472656 46.285156 413.359375 C 46.867188 413.242188 47.457031 413.183594 48.050781 413.183594 C 48.644531 413.183594 49.234375 413.242188 49.816406 413.359375 C 50.398438 413.472656 50.964844 413.644531 51.515625 413.871094 C 52.0625 414.097656 52.585938 414.378906 53.078125 414.707031 C 53.574219 415.039062 54.03125 415.414062 54.449219 415.832031 C 54.871094 416.253906 55.246094 416.710938 55.578125 417.203125 C 55.90625 417.699219 56.1875 418.21875 56.414062 418.769531 C 56.640625 419.316406 56.8125 419.882812 56.929688 420.464844 C 57.042969 421.046875 57.101562 421.636719 57.101562 422.230469 Z M 57.101562 422.230469 " fill-opacity="1" fill-rule="nonzero"/></svg>