<svg xmlns="http://www.w3.org/2000/svg" xmlns:xlink="http://www.w3.org/1999/xlink" width="1080" zoomAndPan="magnify" viewBox="0 0 810 1439.999935" height="1920" preserveAspectRatio="xMidYMid meet" version="1.0"><defs><clipPath id="4c83ed49f5"><path d="M 384 573.601562 L 392 573.601562 L 392 581 L 384 581 Z M 384 573.601562 " clip-rule="nonzero"/></clipPath><clipPath id="d5036a4133"><path d="M 398 857 L 408 857 L 408 866.101562 L 398 866.101562 Z M 398 857 " clip-rule="nonzero"/></clipPath></defs><path fill="#ffb544" d="M 377.007812 622.164062 C 386.710938 619.097656 396.648438 617.570312 406.824219 617.589844 C 408.613281 617.585938 410.398438 617.628906 412.183594 617.722656 C 413.96875 617.816406 415.746094 617.957031 417.523438 618.148438 C 419.300781 618.335938 421.070312 618.574219 422.835938 618.859375 C 424.601562 619.144531 426.355469 619.476562 428.101562 619.855469 C 429.847656 620.234375 431.582031 620.660156 433.304688 621.132812 C 435.027344 621.605469 436.738281 622.121094 438.433594 622.6875 C 440.128906 623.253906 441.804688 623.863281 443.46875 624.515625 C 445.128906 625.171875 446.773438 625.871094 448.398438 626.613281 C 450.023438 627.359375 451.625 628.144531 453.207031 628.976562 C 454.789062 629.804688 456.347656 630.675781 457.882812 631.589844 C 459.417969 632.503906 460.925781 633.460938 462.410156 634.453125 C 463.894531 635.449219 465.347656 636.484375 466.777344 637.558594 C 468.203125 638.632812 469.601562 639.742188 470.96875 640.890625 C 472.335938 642.039062 473.671875 643.226562 474.976562 644.445312 C 476.28125 645.667969 477.550781 646.921875 478.785156 648.210938 C 480.019531 649.5 481.222656 650.824219 482.386719 652.175781 C 483.550781 653.53125 484.675781 654.914062 485.765625 656.328125 C 486.855469 657.742188 487.90625 659.1875 488.917969 660.65625 C 489.929688 662.128906 490.902344 663.625 491.835938 665.148438 C 492.765625 666.671875 493.65625 668.222656 494.503906 669.792969 C 495.351562 671.363281 496.152344 672.957031 496.914062 674.570312 C 497.675781 676.1875 498.394531 677.820312 499.066406 679.472656 C 499.742188 681.128906 500.371094 682.796875 500.953125 684.484375 C 501.535156 686.171875 502.074219 687.875 502.566406 689.589844 C 503.054688 691.308594 503.5 693.035156 503.898438 694.773438 C 504.296875 696.515625 504.648438 698.265625 504.953125 700.023438 C 505.253906 701.785156 505.511719 703.550781 505.71875 705.320312 C 505.929688 707.09375 506.089844 708.871094 506.199219 710.652344 C 506.3125 712.433594 506.378906 714.21875 506.394531 716.003906 C 506.410156 717.789062 506.378906 719.574219 506.296875 721.355469 C 506.21875 723.140625 506.089844 724.917969 505.914062 726.695312 C 505.738281 728.472656 505.511719 730.242188 505.242188 732.007812 C 504.96875 733.769531 504.648438 735.527344 504.285156 737.273438 C 503.917969 739.019531 503.503906 740.757812 503.042969 742.480469 C 502.582031 744.207031 502.078125 745.917969 501.523438 747.613281 C 500.972656 749.3125 500.375 750.992188 499.730469 752.660156 C 499.085938 754.324219 498.398438 755.972656 497.667969 757.597656 C 496.933594 759.226562 496.160156 760.835938 495.339844 762.421875 C 494.519531 764.007812 493.660156 765.570312 492.753906 767.113281 C 491.851562 768.652344 490.90625 770.167969 489.921875 771.65625 C 488.9375 773.144531 487.914062 774.605469 486.847656 776.039062 C 485.785156 777.472656 484.683594 778.878906 483.542969 780.253906 C 482.402344 781.628906 481.226562 782.972656 480.015625 784.28125 C 478.800781 785.59375 477.554688 786.871094 476.273438 788.117188 C 474.992188 789.359375 473.679688 790.570312 472.332031 791.742188 C 470.984375 792.914062 469.609375 794.050781 468.199219 795.152344 C 466.792969 796.25 465.355469 797.308594 463.890625 798.332031 C 462.425781 799.355469 460.933594 800.335938 459.417969 801.277344 C 457.898438 802.21875 456.355469 803.117188 454.789062 803.976562 C 453.222656 804.835938 451.632812 805.652344 450.023438 806.421875 C 448.410156 807.195312 446.78125 807.925781 445.132812 808.609375 C 443.480469 809.292969 441.8125 809.933594 440.128906 810.53125 C 438.445312 811.125 436.746094 811.675781 435.03125 812.179688 C 433.316406 812.683594 431.589844 813.140625 429.851562 813.550781 C 428.113281 813.960938 426.363281 814.324219 424.605469 814.640625 C 422.847656 814.957031 421.082031 815.226562 419.308594 815.445312 C 417.535156 815.667969 415.757812 815.839844 413.976562 815.964844 C 412.191406 816.089844 410.40625 816.167969 408.621094 816.199219 C 406.835938 816.226562 405.046875 816.210938 403.261719 816.140625 C 401.476562 816.074219 399.695312 815.960938 397.914062 815.796875 C 396.136719 815.636719 394.363281 815.425781 392.59375 815.164062 C 390.828125 814.90625 389.066406 814.601562 387.316406 814.25 C 385.5625 813.894531 383.824219 813.496094 382.09375 813.046875 C 380.363281 812.601562 378.644531 812.109375 376.941406 811.566406 C 379.695312 811.070312 382.421875 810.453125 385.117188 809.714844 C 387.816406 808.980469 390.480469 808.128906 393.101562 807.160156 C 395.726562 806.195312 398.304688 805.117188 400.835938 803.925781 C 403.367188 802.734375 405.839844 801.4375 408.257812 800.035156 C 410.675781 798.628906 413.027344 797.121094 415.316406 795.511719 C 417.601562 793.902344 419.816406 792.199219 421.953125 790.398438 C 424.09375 788.597656 426.148438 786.707031 428.121094 784.726562 C 430.097656 782.746094 431.980469 780.6875 433.777344 778.542969 C 435.570312 776.398438 437.269531 774.183594 438.875 771.894531 C 440.476562 769.601562 441.976562 767.246094 443.375 764.828125 C 444.769531 762.40625 446.0625 759.929688 447.242188 757.398438 C 448.425781 754.867188 449.496094 752.285156 450.453125 749.660156 C 451.414062 747.035156 452.253906 744.375 452.980469 741.675781 C 453.707031 738.976562 454.316406 736.253906 454.804688 733.5 C 455.296875 730.75 455.664062 727.984375 455.914062 725.199219 C 456.164062 722.417969 456.292969 719.628906 456.300781 716.832031 C 456.300781 669.53125 422.035156 630.191406 377.007812 622.164062 Z M 377.007812 622.164062 " fill-opacity="1" fill-rule="nonzero"/><path fill="#ffd76b" d="M 307.414062 716.832031 C 307.421875 714.214844 307.53125 711.601562 307.742188 708.992188 C 307.953125 706.378906 308.269531 703.78125 308.6875 701.199219 C 309.105469 698.613281 309.625 696.046875 310.242188 693.503906 C 310.863281 690.957031 311.582031 688.441406 312.402344 685.953125 C 313.222656 683.46875 314.136719 681.015625 315.152344 678.601562 C 316.164062 676.183594 317.269531 673.8125 318.472656 671.484375 C 319.671875 669.15625 320.960938 666.878906 322.34375 664.652344 C 323.722656 662.425781 325.1875 660.257812 326.738281 658.148438 C 328.292969 656.039062 329.925781 653.992188 331.636719 652.007812 C 333.351562 650.027344 335.140625 648.117188 337.003906 646.273438 C 338.867188 644.433594 340.800781 642.667969 342.804688 640.980469 C 344.808594 639.292969 346.878906 637.6875 349.007812 636.160156 C 351.140625 634.636719 353.328125 633.195312 355.570312 631.84375 C 357.816406 630.492188 360.109375 629.230469 362.457031 628.058594 C 364.800781 626.886719 367.1875 625.808594 369.617188 624.824219 C 372.046875 623.839844 374.511719 622.953125 377.007812 622.164062 C 422.035156 630.191406 456.300781 669.53125 456.300781 716.832031 C 456.292969 719.628906 456.164062 722.417969 455.914062 725.199219 C 455.664062 727.984375 455.296875 730.75 454.804688 733.5 C 454.316406 736.253906 453.707031 738.976562 452.980469 741.675781 C 452.253906 744.375 451.414062 747.035156 450.453125 749.660156 C 449.496094 752.285156 448.425781 754.867188 447.242188 757.398438 C 446.0625 759.929688 444.769531 762.40625 443.375 764.828125 C 441.976562 767.246094 440.476562 769.601562 438.875 771.894531 C 437.269531 774.183594 435.570312 776.398438 433.777344 778.542969 C 431.980469 780.6875 430.097656 782.746094 428.121094 784.726562 C 426.148438 786.707031 424.09375 788.597656 421.953125 790.398438 C 419.816406 792.199219 417.601562 793.902344 415.316406 795.511719 C 413.027344 797.121094 410.675781 798.628906 408.257812 800.035156 C 405.839844 801.4375 403.367188 802.734375 400.835938 803.925781 C 398.304688 805.117188 395.726562 806.195312 393.101562 807.160156 C 390.480469 808.128906 387.816406 808.980469 385.117188 809.714844 C 382.421875 810.453125 379.695312 811.070312 376.941406 811.566406 C 374.441406 810.78125 371.976562 809.894531 369.542969 808.914062 C 367.113281 807.929688 364.726562 806.855469 362.378906 805.683594 C 360.03125 804.511719 357.738281 803.25 355.492188 801.894531 C 353.246094 800.542969 351.054688 799.101562 348.925781 797.578125 C 346.792969 796.050781 344.726562 794.445312 342.71875 792.753906 C 340.714844 791.066406 338.78125 789.296875 336.917969 787.457031 C 335.050781 785.613281 333.261719 783.699219 331.550781 781.71875 C 329.835938 779.734375 328.207031 777.683594 326.65625 775.570312 C 325.105469 773.457031 323.640625 771.289062 322.261719 769.058594 C 320.882812 766.832031 319.59375 764.550781 318.394531 762.21875 C 317.199219 759.890625 316.09375 757.515625 315.082031 755.097656 C 314.074219 752.679688 313.160156 750.226562 312.34375 747.734375 C 311.527344 745.246094 310.8125 742.726562 310.195312 740.179688 C 309.582031 737.632812 309.066406 735.066406 308.652344 732.480469 C 308.242188 729.894531 307.929688 727.292969 307.722656 724.679688 C 307.519531 722.070312 307.414062 719.453125 307.414062 716.832031 Z M 307.414062 716.832031 " fill-opacity="1" fill-rule="nonzero"/><g clip-path="url(#4c83ed49f5)"><path fill="#26477a" d="M 391.019531 577.054688 C 391.019531 577.503906 390.933594 577.933594 390.761719 578.347656 C 390.589844 578.761719 390.347656 579.128906 390.03125 579.445312 C 389.710938 579.765625 389.34375 580.007812 388.929688 580.179688 C 388.515625 580.351562 388.082031 580.4375 387.632812 580.4375 C 387.183594 580.4375 386.753906 580.351562 386.339844 580.179688 C 385.921875 580.007812 385.558594 579.765625 385.238281 579.445312 C 384.921875 579.128906 384.675781 578.761719 384.503906 578.347656 C 384.332031 577.933594 384.246094 577.503906 384.246094 577.054688 C 384.246094 576.605469 384.332031 576.175781 384.503906 575.757812 C 384.675781 575.34375 384.921875 574.980469 385.238281 574.660156 C 385.558594 574.34375 385.921875 574.101562 386.339844 573.929688 C 386.753906 573.757812 387.183594 573.671875 387.632812 573.671875 C 388.082031 573.671875 388.515625 573.757812 388.929688 573.929688 C 389.34375 574.101562 389.710938 574.34375 390.03125 574.660156 C 390.347656 574.980469 390.589844 575.34375 390.761719 575.757812 C 390.933594 576.175781 391.019531 576.605469 391.019531 577.054688 Z M 391.019531 577.054688 " fill-opacity="1" fill-rule="nonzero"/></g><path fill="#26477a" d="M 278.328125 773.15625 C 278.328125 773.542969 278.289062 773.929688 278.214844 774.308594 C 278.140625 774.6875 278.027344 775.058594 277.878906 775.417969 C 277.730469 775.773438 277.546875 776.113281 277.332031 776.4375 C 277.117188 776.757812 276.871094 777.058594 276.597656 777.332031 C 276.324219 777.605469 276.023438 777.851562 275.703125 778.066406 C 275.378906 778.28125 275.039062 778.464844 274.679688 778.613281 C 274.320312 778.761719 273.953125 778.871094 273.570312 778.949219 C 273.191406 779.023438 272.804688 779.0625 272.417969 779.0625 C 272.03125 779.0625 271.644531 779.023438 271.265625 778.949219 C 270.882812 778.871094 270.515625 778.761719 270.15625 778.613281 C 269.796875 778.464844 269.457031 778.28125 269.136719 778.066406 C 268.8125 777.851562 268.511719 777.605469 268.238281 777.332031 C 267.964844 777.058594 267.71875 776.757812 267.503906 776.4375 C 267.289062 776.113281 267.105469 775.773438 266.957031 775.417969 C 266.808594 775.058594 266.699219 774.6875 266.621094 774.308594 C 266.546875 773.929688 266.507812 773.542969 266.507812 773.15625 C 266.507812 772.769531 266.546875 772.386719 266.621094 772.003906 C 266.699219 771.625 266.808594 771.253906 266.957031 770.898438 C 267.105469 770.539062 267.289062 770.199219 267.503906 769.875 C 267.71875 769.554688 267.964844 769.257812 268.238281 768.980469 C 268.511719 768.707031 268.8125 768.464844 269.136719 768.246094 C 269.457031 768.03125 269.796875 767.851562 270.15625 767.703125 C 270.515625 767.554688 270.882812 767.441406 271.265625 767.367188 C 271.644531 767.289062 272.03125 767.253906 272.417969 767.253906 C 272.804688 767.253906 273.191406 767.289062 273.570312 767.367188 C 273.953125 767.441406 274.320312 767.554688 274.679688 767.703125 C 275.039062 767.851562 275.378906 768.03125 275.703125 768.246094 C 276.023438 768.464844 276.324219 768.707031 276.597656 768.980469 C 276.871094 769.257812 277.117188 769.554688 277.332031 769.875 C 277.546875 770.199219 277.730469 770.539062 277.878906 770.898438 C 278.027344 771.253906 278.140625 771.625 278.214844 772.003906 C 278.289062 772.386719 278.328125 772.769531 278.328125 773.15625 Z M 278.328125 773.15625 " fill-opacity="1" fill-rule="nonzero"/><path fill="#26477a" d="M 281.050781 693.679688 C 281.050781 694.070312 281.011719 694.453125 280.9375 694.832031 C 280.863281 695.214844 280.75 695.582031 280.601562 695.941406 C 280.453125 696.296875 280.269531 696.640625 280.054688 696.960938 C 279.839844 697.285156 279.59375 697.582031 279.320312 697.855469 C 279.046875 698.128906 278.746094 698.375 278.425781 698.589844 C 278.101562 698.804688 277.761719 698.988281 277.402344 699.136719 C 277.042969 699.285156 276.675781 699.394531 276.292969 699.472656 C 275.914062 699.546875 275.527344 699.585938 275.140625 699.585938 C 274.753906 699.585938 274.367188 699.546875 273.988281 699.472656 C 273.605469 699.394531 273.238281 699.285156 272.878906 699.136719 C 272.519531 698.988281 272.179688 698.804688 271.859375 698.589844 C 271.535156 698.375 271.234375 698.128906 270.960938 697.855469 C 270.6875 697.582031 270.441406 697.285156 270.226562 696.960938 C 270.011719 696.640625 269.828125 696.296875 269.679688 695.941406 C 269.53125 695.582031 269.421875 695.214844 269.34375 694.832031 C 269.269531 694.453125 269.230469 694.070312 269.230469 693.679688 C 269.230469 693.292969 269.269531 692.910156 269.34375 692.527344 C 269.421875 692.148438 269.53125 691.78125 269.679688 691.421875 C 269.828125 691.0625 270.011719 690.722656 270.226562 690.402344 C 270.441406 690.078125 270.6875 689.78125 270.960938 689.507812 C 271.234375 689.230469 271.535156 688.988281 271.859375 688.773438 C 272.179688 688.554688 272.519531 688.375 272.878906 688.226562 C 273.238281 688.078125 273.605469 687.964844 273.988281 687.890625 C 274.367188 687.816406 274.753906 687.777344 275.140625 687.777344 C 275.527344 687.777344 275.914062 687.816406 276.292969 687.890625 C 276.675781 687.964844 277.042969 688.078125 277.402344 688.226562 C 277.761719 688.375 278.101562 688.554688 278.425781 688.773438 C 278.746094 688.988281 279.046875 689.230469 279.320312 689.507812 C 279.59375 689.78125 279.839844 690.078125 280.054688 690.402344 C 280.269531 690.722656 280.453125 691.0625 280.601562 691.421875 C 280.75 691.78125 280.863281 692.148438 280.9375 692.527344 C 281.011719 692.910156 281.050781 693.292969 281.050781 693.679688 Z M 281.050781 693.679688 " fill-opacity="1" fill-rule="nonzero"/><path fill="#26477a" d="M 566.933594 738.394531 C 566.933594 738.78125 566.894531 739.167969 566.820312 739.546875 C 566.746094 739.925781 566.632812 740.296875 566.484375 740.652344 C 566.335938 741.011719 566.152344 741.351562 565.9375 741.675781 C 565.722656 741.996094 565.476562 742.296875 565.203125 742.570312 C 564.929688 742.84375 564.628906 743.089844 564.308594 743.304688 C 563.984375 743.519531 563.644531 743.699219 563.285156 743.847656 C 562.925781 743.996094 562.558594 744.109375 562.175781 744.183594 C 561.796875 744.261719 561.410156 744.300781 561.023438 744.300781 C 560.636719 744.300781 560.25 744.261719 559.871094 744.183594 C 559.488281 744.109375 559.121094 743.996094 558.761719 743.847656 C 558.402344 743.699219 558.0625 743.519531 557.738281 743.304688 C 557.417969 743.089844 557.117188 742.84375 556.84375 742.570312 C 556.570312 742.296875 556.324219 741.996094 556.109375 741.675781 C 555.894531 741.351562 555.710938 741.011719 555.5625 740.652344 C 555.414062 740.296875 555.300781 739.925781 555.226562 739.546875 C 555.152344 739.167969 555.113281 738.78125 555.113281 738.394531 C 555.113281 738.007812 555.152344 737.621094 555.226562 737.242188 C 555.300781 736.863281 555.414062 736.492188 555.5625 736.136719 C 555.710938 735.777344 555.894531 735.4375 556.109375 735.113281 C 556.324219 734.792969 556.570312 734.492188 556.84375 734.21875 C 557.117188 733.945312 557.417969 733.699219 557.738281 733.484375 C 558.0625 733.269531 558.402344 733.089844 558.761719 732.941406 C 559.121094 732.792969 559.488281 732.679688 559.871094 732.605469 C 560.25 732.527344 560.636719 732.492188 561.023438 732.492188 C 561.410156 732.492188 561.796875 732.527344 562.175781 732.605469 C 562.558594 732.679688 562.925781 732.792969 563.285156 732.941406 C 563.644531 733.089844 563.984375 733.269531 564.308594 733.484375 C 564.628906 733.699219 564.929688 733.945312 565.203125 734.21875 C 565.476562 734.492188 565.722656 734.792969 565.9375 735.113281 C 566.152344 735.4375 566.335938 735.777344 566.484375 736.136719 C 566.632812 736.492188 566.746094 736.863281 566.820312 737.242188 C 566.894531 737.621094 566.933594 738.007812 566.933594 738.394531 Z M 566.933594 738.394531 " fill-opacity="1" fill-rule="nonzero"/><path fill="#26477a" d="M 329.859375 609.230469 C 329.859375 609.679688 329.773438 610.109375 329.601562 610.523438 C 329.429688 610.9375 329.1875 611.304688 328.867188 611.621094 C 328.550781 611.9375 328.183594 612.183594 327.769531 612.355469 C 327.355469 612.527344 326.921875 612.613281 326.472656 612.613281 C 326.023438 612.613281 325.59375 612.527344 325.175781 612.355469 C 324.761719 612.183594 324.394531 611.9375 324.078125 611.621094 C 323.761719 611.304688 323.515625 610.9375 323.34375 610.523438 C 323.171875 610.109375 323.085938 609.679688 323.085938 609.230469 C 323.085938 608.78125 323.171875 608.347656 323.34375 607.933594 C 323.515625 607.519531 323.761719 607.15625 324.078125 606.835938 C 324.394531 606.519531 324.761719 606.273438 325.175781 606.105469 C 325.59375 605.933594 326.023438 605.847656 326.472656 605.847656 C 326.921875 605.847656 327.355469 605.933594 327.769531 606.105469 C 328.183594 606.273438 328.550781 606.519531 328.867188 606.835938 C 329.1875 607.15625 329.429688 607.519531 329.601562 607.933594 C 329.773438 608.347656 329.859375 608.78125 329.859375 609.230469 Z M 329.859375 609.230469 " fill-opacity="1" fill-rule="nonzero"/><path fill="#26477a" d="M 439.433594 835.648438 C 439.433594 836.097656 439.347656 836.53125 439.175781 836.945312 C 439.003906 837.359375 438.757812 837.726562 438.441406 838.042969 C 438.121094 838.359375 437.757812 838.605469 437.339844 838.777344 C 436.925781 838.949219 436.496094 839.035156 436.046875 839.035156 C 435.597656 839.035156 435.164062 838.949219 434.75 838.777344 C 434.335938 838.605469 433.96875 838.359375 433.652344 838.042969 C 433.332031 837.726562 433.089844 837.359375 432.917969 836.945312 C 432.746094 836.53125 432.660156 836.097656 432.660156 835.648438 C 432.660156 835.203125 432.746094 834.769531 432.917969 834.355469 C 433.089844 833.941406 433.332031 833.574219 433.652344 833.257812 C 433.96875 832.941406 434.335938 832.695312 434.75 832.523438 C 435.164062 832.351562 435.597656 832.265625 436.046875 832.265625 C 436.496094 832.265625 436.925781 832.351562 437.339844 832.523438 C 437.757812 832.695312 438.121094 832.941406 438.441406 833.257812 C 438.757812 833.574219 439.003906 833.941406 439.175781 834.355469 C 439.347656 834.769531 439.433594 835.203125 439.433594 835.648438 Z M 439.433594 835.648438 " fill-opacity="1" fill-rule="nonzero"/><path fill="#ffae46" d="M 268.632812 656.996094 L 263.785156 645.652344 L 251.632812 643.195312 L 260.996094 635.101562 L 259.535156 622.828125 L 270.160156 629.199219 L 281.382812 624.023438 L 278.59375 636.097656 L 286.960938 645.1875 L 274.675781 646.246094 Z M 268.632812 656.996094 " fill-opacity="1" fill-rule="nonzero"/><path fill="#ffae46" d="M 541.035156 821.253906 L 536.1875 809.910156 L 524.101562 807.457031 L 533.398438 799.363281 L 532.003906 787.089844 L 542.628906 793.457031 L 553.851562 788.347656 L 551.0625 800.355469 L 559.429688 809.445312 L 547.144531 810.507812 Z M 541.035156 821.253906 " fill-opacity="1" fill-rule="nonzero"/><path fill="#26477a" d="M 287.160156 841.023438 L 283.308594 831.867188 L 273.480469 829.878906 L 281.050781 823.3125 L 279.855469 813.425781 L 288.421875 818.535156 L 297.519531 814.421875 L 295.261719 824.105469 L 302.035156 831.46875 L 292.074219 832.332031 Z M 287.160156 841.023438 " fill-opacity="1" fill-rule="nonzero"/><path fill="#26477a" d="M 503.117188 619.179688 L 499.199219 610.027344 L 489.4375 608.035156 L 496.941406 601.46875 L 495.8125 591.582031 L 504.378906 596.691406 L 513.476562 592.578125 L 511.21875 602.265625 L 517.992188 609.628906 L 508.03125 610.488281 Z M 503.117188 619.179688 " fill-opacity="1" fill-rule="nonzero"/><path fill="#26477a" d="M 538.644531 698.789062 C 538.644531 699.238281 538.558594 699.667969 538.386719 700.085938 C 538.214844 700.5 537.96875 700.863281 537.652344 701.183594 C 537.335938 701.5 536.96875 701.742188 536.554688 701.914062 C 536.136719 702.085938 535.707031 702.171875 535.257812 702.171875 C 534.808594 702.171875 534.375 702.085938 533.960938 701.914062 C 533.546875 701.742188 533.179688 701.5 532.863281 701.183594 C 532.546875 700.863281 532.300781 700.5 532.128906 700.085938 C 531.957031 699.667969 531.871094 699.238281 531.871094 698.789062 C 531.871094 698.339844 531.957031 697.910156 532.128906 697.496094 C 532.300781 697.078125 532.546875 696.714844 532.863281 696.398438 C 533.179688 696.078125 533.546875 695.835938 533.960938 695.664062 C 534.375 695.492188 534.808594 695.40625 535.257812 695.40625 C 535.707031 695.40625 536.136719 695.492188 536.554688 695.664062 C 536.96875 695.835938 537.335938 696.078125 537.652344 696.398438 C 537.96875 696.714844 538.214844 697.078125 538.386719 697.496094 C 538.558594 697.910156 538.644531 698.339844 538.644531 698.789062 Z M 538.644531 698.789062 " fill-opacity="1" fill-rule="nonzero"/><path fill="#ffae46" d="M 454.375 598.347656 C 454.375 598.628906 454.347656 598.90625 454.292969 599.179688 C 454.238281 599.453125 454.15625 599.71875 454.050781 599.972656 C 453.941406 600.230469 453.8125 600.476562 453.65625 600.707031 C 453.503906 600.941406 453.324219 601.15625 453.128906 601.351562 C 452.929688 601.550781 452.714844 601.726562 452.484375 601.878906 C 452.253906 602.035156 452.007812 602.164062 451.75 602.273438 C 451.492188 602.378906 451.226562 602.460938 450.953125 602.515625 C 450.679688 602.566406 450.402344 602.59375 450.125 602.59375 C 449.84375 602.59375 449.566406 602.566406 449.292969 602.515625 C 449.019531 602.460938 448.753906 602.378906 448.496094 602.273438 C 448.238281 602.164062 447.996094 602.035156 447.761719 601.878906 C 447.53125 601.726562 447.316406 601.550781 447.117188 601.351562 C 446.921875 601.15625 446.746094 600.941406 446.589844 600.707031 C 446.433594 600.476562 446.304688 600.230469 446.195312 599.972656 C 446.089844 599.71875 446.007812 599.453125 445.957031 599.179688 C 445.902344 598.90625 445.875 598.628906 445.875 598.347656 C 445.875 598.070312 445.902344 597.792969 445.957031 597.519531 C 446.007812 597.246094 446.089844 596.980469 446.195312 596.726562 C 446.304688 596.46875 446.433594 596.222656 446.589844 595.992188 C 446.746094 595.757812 446.921875 595.542969 447.117188 595.347656 C 447.316406 595.148438 447.53125 594.972656 447.761719 594.820312 C 447.996094 594.664062 448.238281 594.535156 448.496094 594.425781 C 448.753906 594.320312 449.019531 594.238281 449.292969 594.183594 C 449.566406 594.132812 449.84375 594.105469 450.125 594.105469 C 450.402344 594.105469 450.679688 594.132812 450.953125 594.183594 C 451.226562 594.238281 451.492188 594.320312 451.75 594.425781 C 452.007812 594.535156 452.253906 594.664062 452.484375 594.820312 C 452.714844 594.972656 452.929688 595.148438 453.128906 595.347656 C 453.324219 595.542969 453.503906 595.757812 453.65625 595.992188 C 453.8125 596.222656 453.941406 596.46875 454.050781 596.726562 C 454.15625 596.980469 454.238281 597.246094 454.292969 597.519531 C 454.347656 597.792969 454.375 598.070312 454.375 598.347656 Z M 454.375 598.347656 " fill-opacity="1" fill-rule="nonzero"/><path fill="#ffae46" d="M 516.796875 755.976562 C 516.796875 756.253906 516.769531 756.53125 516.714844 756.804688 C 516.660156 757.078125 516.578125 757.34375 516.472656 757.601562 C 516.367188 757.855469 516.234375 758.101562 516.078125 758.332031 C 515.925781 758.566406 515.75 758.78125 515.550781 758.976562 C 515.355469 759.175781 515.140625 759.351562 514.90625 759.503906 C 514.675781 759.660156 514.429688 759.789062 514.171875 759.898438 C 513.914062 760.003906 513.648438 760.085938 513.375 760.140625 C 513.101562 760.195312 512.824219 760.21875 512.546875 760.21875 C 512.265625 760.21875 511.992188 760.195312 511.71875 760.140625 C 511.441406 760.085938 511.175781 760.003906 510.917969 759.898438 C 510.660156 759.789062 510.417969 759.660156 510.183594 759.503906 C 509.953125 759.351562 509.738281 759.175781 509.539062 758.976562 C 509.34375 758.78125 509.167969 758.566406 509.011719 758.332031 C 508.855469 758.101562 508.726562 757.855469 508.621094 757.601562 C 508.511719 757.34375 508.433594 757.078125 508.378906 756.804688 C 508.324219 756.53125 508.296875 756.253906 508.296875 755.976562 C 508.296875 755.695312 508.324219 755.421875 508.378906 755.148438 C 508.433594 754.875 508.511719 754.609375 508.621094 754.351562 C 508.726562 754.09375 508.855469 753.847656 509.011719 753.617188 C 509.167969 753.382812 509.34375 753.167969 509.539062 752.972656 C 509.738281 752.777344 509.953125 752.597656 510.183594 752.445312 C 510.417969 752.289062 510.660156 752.160156 510.917969 752.050781 C 511.175781 751.945312 511.441406 751.863281 511.71875 751.8125 C 511.992188 751.757812 512.265625 751.730469 512.546875 751.730469 C 512.824219 751.730469 513.101562 751.757812 513.375 751.8125 C 513.648438 751.863281 513.914062 751.945312 514.171875 752.050781 C 514.429688 752.160156 514.675781 752.289062 514.90625 752.445312 C 515.140625 752.597656 515.355469 752.777344 515.550781 752.972656 C 515.75 753.167969 515.925781 753.382812 516.078125 753.617188 C 516.234375 753.847656 516.367188 754.09375 516.472656 754.351562 C 516.578125 754.609375 516.660156 754.875 516.714844 755.148438 C 516.769531 755.421875 516.796875 755.695312 516.796875 755.976562 Z M 516.796875 755.976562 " fill-opacity="1" fill-rule="nonzero"/><path fill="#ffae46" d="M 481.070312 848.917969 C 481.070312 849.195312 481.042969 849.472656 480.988281 849.746094 C 480.933594 850.019531 480.851562 850.285156 480.746094 850.542969 C 480.640625 850.800781 480.507812 851.046875 480.351562 851.277344 C 480.199219 851.507812 480.023438 851.722656 479.824219 851.921875 C 479.628906 852.117188 479.414062 852.292969 479.179688 852.449219 C 478.949219 852.601562 478.703125 852.734375 478.445312 852.839844 C 478.1875 852.949219 477.921875 853.027344 477.648438 853.082031 C 477.375 853.136719 477.097656 853.164062 476.820312 853.164062 C 476.539062 853.164062 476.265625 853.136719 475.988281 853.082031 C 475.714844 853.027344 475.449219 852.949219 475.191406 852.839844 C 474.933594 852.734375 474.691406 852.601562 474.457031 852.449219 C 474.226562 852.292969 474.011719 852.117188 473.8125 851.921875 C 473.617188 851.722656 473.441406 851.507812 473.285156 851.277344 C 473.128906 851.046875 473 850.800781 472.894531 850.542969 C 472.785156 850.285156 472.707031 850.019531 472.652344 849.746094 C 472.597656 849.472656 472.570312 849.195312 472.570312 848.917969 C 472.570312 848.640625 472.597656 848.363281 472.652344 848.089844 C 472.707031 847.816406 472.785156 847.550781 472.894531 847.292969 C 473 847.035156 473.128906 846.789062 473.285156 846.558594 C 473.441406 846.328125 473.617188 846.113281 473.8125 845.914062 C 474.011719 845.71875 474.226562 845.542969 474.457031 845.386719 C 474.691406 845.234375 474.933594 845.101562 475.191406 844.996094 C 475.449219 844.890625 475.714844 844.808594 475.988281 844.753906 C 476.265625 844.699219 476.539062 844.671875 476.820312 844.671875 C 477.097656 844.671875 477.375 844.699219 477.648438 844.753906 C 477.921875 844.808594 478.1875 844.890625 478.445312 844.996094 C 478.703125 845.101562 478.949219 845.234375 479.179688 845.386719 C 479.414062 845.542969 479.628906 845.71875 479.824219 845.914062 C 480.023438 846.113281 480.199219 846.328125 480.351562 846.558594 C 480.507812 846.789062 480.640625 847.035156 480.746094 847.292969 C 480.851562 847.550781 480.933594 847.816406 480.988281 848.089844 C 481.042969 848.363281 481.070312 848.640625 481.070312 848.917969 Z M 481.070312 848.917969 " fill-opacity="1" fill-rule="nonzero"/><path fill="#ffae46" d="M 541.5 647.242188 C 541.5 647.519531 541.472656 647.796875 541.417969 648.070312 C 541.363281 648.34375 541.28125 648.609375 541.175781 648.867188 C 541.070312 649.125 540.9375 649.371094 540.785156 649.601562 C 540.628906 649.832031 540.453125 650.046875 540.253906 650.246094 C 540.058594 650.441406 539.84375 650.617188 539.609375 650.773438 C 539.378906 650.929688 539.132812 651.058594 538.875 651.164062 C 538.617188 651.273438 538.351562 651.351562 538.078125 651.40625 C 537.804688 651.460938 537.527344 651.488281 537.25 651.488281 C 536.96875 651.488281 536.695312 651.460938 536.421875 651.40625 C 536.148438 651.351562 535.882812 651.273438 535.625 651.164062 C 535.367188 651.058594 535.121094 650.929688 534.886719 650.773438 C 534.65625 650.617188 534.441406 650.441406 534.246094 650.246094 C 534.046875 650.046875 533.871094 649.832031 533.714844 649.601562 C 533.5625 649.371094 533.429688 649.125 533.324219 648.867188 C 533.214844 648.609375 533.136719 648.34375 533.082031 648.070312 C 533.027344 647.796875 533 647.519531 533 647.242188 C 533 646.964844 533.027344 646.6875 533.082031 646.414062 C 533.136719 646.140625 533.214844 645.875 533.324219 645.617188 C 533.429688 645.359375 533.5625 645.117188 533.714844 644.882812 C 533.871094 644.652344 534.046875 644.4375 534.246094 644.242188 C 534.441406 644.042969 534.65625 643.867188 534.886719 643.710938 C 535.121094 643.558594 535.367188 643.425781 535.625 643.320312 C 535.882812 643.214844 536.148438 643.132812 536.421875 643.078125 C 536.695312 643.023438 536.96875 642.996094 537.25 642.996094 C 537.527344 642.996094 537.804688 643.023438 538.078125 643.078125 C 538.351562 643.132812 538.617188 643.214844 538.875 643.320312 C 539.132812 643.425781 539.378906 643.558594 539.609375 643.710938 C 539.84375 643.867188 540.058594 644.042969 540.253906 644.242188 C 540.453125 644.4375 540.628906 644.652344 540.785156 644.882812 C 540.9375 645.117188 541.070312 645.359375 541.175781 645.617188 C 541.28125 645.875 541.363281 646.140625 541.417969 646.414062 C 541.472656 646.6875 541.5 646.964844 541.5 647.242188 Z M 541.5 647.242188 " fill-opacity="1" fill-rule="nonzero"/><g clip-path="url(#d5036a4133)"><path fill="#ffae46" d="M 407.425781 861.789062 C 407.425781 862.066406 407.398438 862.34375 407.34375 862.617188 C 407.289062 862.890625 407.207031 863.15625 407.101562 863.414062 C 406.992188 863.671875 406.863281 863.914062 406.707031 864.148438 C 406.550781 864.378906 406.375 864.59375 406.179688 864.789062 C 405.980469 864.988281 405.765625 865.164062 405.535156 865.316406 C 405.304688 865.472656 405.058594 865.605469 404.800781 865.710938 C 404.542969 865.816406 404.277344 865.898438 404.003906 865.953125 C 403.730469 866.007812 403.453125 866.035156 403.171875 866.035156 C 402.894531 866.035156 402.617188 866.007812 402.34375 865.953125 C 402.070312 865.898438 401.804688 865.816406 401.546875 865.710938 C 401.289062 865.605469 401.042969 865.472656 400.8125 865.316406 C 400.582031 865.164062 400.367188 864.988281 400.167969 864.789062 C 399.972656 864.59375 399.796875 864.378906 399.640625 864.148438 C 399.484375 863.914062 399.355469 863.671875 399.246094 863.414062 C 399.140625 863.15625 399.058594 862.890625 399.003906 862.617188 C 398.949219 862.34375 398.921875 862.066406 398.921875 861.789062 C 398.921875 861.507812 398.949219 861.234375 399.003906 860.960938 C 399.058594 860.6875 399.140625 860.421875 399.246094 860.164062 C 399.355469 859.90625 399.484375 859.660156 399.640625 859.429688 C 399.796875 859.199219 399.972656 858.984375 400.167969 858.785156 C 400.367188 858.589844 400.582031 858.414062 400.8125 858.257812 C 401.042969 858.101562 401.289062 857.972656 401.546875 857.867188 C 401.804688 857.757812 402.070312 857.679688 402.34375 857.625 C 402.617188 857.570312 402.894531 857.542969 403.171875 857.542969 C 403.453125 857.542969 403.730469 857.570312 404.003906 857.625 C 404.277344 857.679688 404.542969 857.757812 404.800781 857.867188 C 405.058594 857.972656 405.304688 858.101562 405.535156 858.257812 C 405.765625 858.414062 405.980469 858.589844 406.179688 858.785156 C 406.375 858.984375 406.550781 859.199219 406.707031 859.429688 C 406.863281 859.660156 406.992188 859.90625 407.101562 860.164062 C 407.207031 860.421875 407.289062 860.6875 407.34375 860.960938 C 407.398438 861.234375 407.425781 861.507812 407.425781 861.789062 Z M 407.425781 861.789062 " fill-opacity="1" fill-rule="nonzero"/></g><path fill="#ffae46" d="M 347.324219 844.871094 C 347.324219 845.148438 347.296875 845.425781 347.242188 845.699219 C 347.1875 845.972656 347.109375 846.238281 347 846.496094 C 346.894531 846.753906 346.765625 847 346.609375 847.230469 C 346.453125 847.460938 346.277344 847.675781 346.082031 847.875 C 345.882812 848.070312 345.667969 848.246094 345.4375 848.402344 C 345.203125 848.554688 344.960938 848.6875 344.703125 848.792969 C 344.445312 848.902344 344.179688 848.980469 343.90625 849.035156 C 343.628906 849.089844 343.355469 849.117188 343.074219 849.117188 C 342.796875 849.117188 342.519531 849.089844 342.246094 849.035156 C 341.972656 848.980469 341.707031 848.902344 341.449219 848.792969 C 341.191406 848.6875 340.945312 848.554688 340.714844 848.402344 C 340.480469 848.246094 340.265625 848.070312 340.070312 847.875 C 339.871094 847.675781 339.695312 847.460938 339.542969 847.230469 C 339.386719 847 339.253906 846.753906 339.148438 846.496094 C 339.042969 846.238281 338.960938 845.972656 338.90625 845.699219 C 338.851562 845.425781 338.824219 845.148438 338.824219 844.871094 C 338.824219 844.59375 338.851562 844.316406 338.90625 844.042969 C 338.960938 843.769531 339.042969 843.503906 339.148438 843.246094 C 339.253906 842.988281 339.386719 842.746094 339.542969 842.511719 C 339.695312 842.28125 339.871094 842.066406 340.070312 841.867188 C 340.265625 841.671875 340.480469 841.496094 340.714844 841.339844 C 340.945312 841.1875 341.191406 841.054688 341.449219 840.949219 C 341.707031 840.84375 341.972656 840.761719 342.246094 840.707031 C 342.519531 840.652344 342.796875 840.625 343.074219 840.625 C 343.355469 840.625 343.628906 840.652344 343.90625 840.707031 C 344.179688 840.761719 344.445312 840.84375 344.703125 840.949219 C 344.960938 841.054688 345.203125 841.1875 345.4375 841.339844 C 345.667969 841.496094 345.882812 841.671875 346.082031 841.867188 C 346.277344 842.066406 346.453125 842.28125 346.609375 842.511719 C 346.765625 842.746094 346.894531 842.988281 347 843.246094 C 347.109375 843.503906 347.1875 843.769531 347.242188 844.042969 C 347.296875 844.316406 347.324219 844.59375 347.324219 844.871094 Z M 347.324219 844.871094 " fill-opacity="1" fill-rule="nonzero"/><path fill="#ffae46" d="M 251.5 737.863281 C 251.5 738.144531 251.472656 738.417969 251.417969 738.691406 C 251.363281 738.964844 251.285156 739.230469 251.175781 739.488281 C 251.070312 739.746094 250.9375 739.992188 250.785156 740.222656 C 250.628906 740.453125 250.453125 740.667969 250.253906 740.867188 C 250.058594 741.0625 249.84375 741.238281 249.609375 741.394531 C 249.378906 741.550781 249.132812 741.679688 248.875 741.785156 C 248.617188 741.894531 248.351562 741.972656 248.078125 742.027344 C 247.804688 742.082031 247.527344 742.109375 247.25 742.109375 C 246.972656 742.109375 246.695312 742.082031 246.421875 742.027344 C 246.148438 741.972656 245.882812 741.894531 245.625 741.785156 C 245.367188 741.679688 245.121094 741.550781 244.890625 741.394531 C 244.65625 741.238281 244.441406 741.0625 244.246094 740.867188 C 244.046875 740.667969 243.871094 740.453125 243.714844 740.222656 C 243.5625 739.992188 243.429688 739.746094 243.324219 739.488281 C 243.214844 739.230469 243.136719 738.964844 243.082031 738.691406 C 243.027344 738.417969 243 738.144531 243 737.863281 C 243 737.585938 243.027344 737.308594 243.082031 737.035156 C 243.136719 736.761719 243.214844 736.496094 243.324219 736.238281 C 243.429688 735.980469 243.5625 735.738281 243.714844 735.503906 C 243.871094 735.273438 244.046875 735.058594 244.246094 734.863281 C 244.441406 734.664062 244.65625 734.488281 244.890625 734.332031 C 245.121094 734.179688 245.367188 734.046875 245.625 733.941406 C 245.882812 733.835938 246.148438 733.753906 246.421875 733.699219 C 246.695312 733.644531 246.972656 733.617188 247.25 733.617188 C 247.527344 733.617188 247.804688 733.644531 248.078125 733.699219 C 248.351562 733.753906 248.617188 733.835938 248.875 733.941406 C 249.132812 734.046875 249.378906 734.179688 249.609375 734.332031 C 249.84375 734.488281 250.058594 734.664062 250.253906 734.863281 C 250.453125 735.058594 250.628906 735.273438 250.785156 735.503906 C 250.9375 735.738281 251.070312 735.980469 251.175781 736.238281 C 251.285156 736.496094 251.363281 736.761719 251.417969 737.035156 C 251.472656 737.308594 251.5 737.585938 251.5 737.863281 Z M 251.5 737.863281 " fill-opacity="1" fill-rule="nonzero"/></svg>