<svg xmlns="http://www.w3.org/2000/svg" xmlns:xlink="http://www.w3.org/1999/xlink" width="1024" zoomAndPan="magnify" viewBox="0 0 768 767.999994" height="1024" preserveAspectRatio="xMidYMid meet" version="1.0"><defs><clipPath id="da30c54568"><path d="M 249 613 L 261 613 L 261 693.195312 L 249 693.195312 Z M 249 613 " clip-rule="nonzero"/></clipPath><clipPath id="dfce830719"><path d="M 573 613 L 585 613 L 585 693.195312 L 573 693.195312 Z M 573 613 " clip-rule="nonzero"/></clipPath><clipPath id="ecfb53e390"><path d="M 39 74.445312 L 612 74.445312 L 612 415 L 39 415 Z M 39 74.445312 " clip-rule="nonzero"/></clipPath><clipPath id="2d1d231965"><path d="M 328 366 L 729 366 L 729 455 L 328 455 Z M 328 366 " clip-rule="nonzero"/></clipPath></defs><path fill="#6b99d2" d="M 445.011719 523.816406 L 452.894531 523.816406 C 453.207031 523.816406 453.507812 523.875 453.800781 523.996094 C 454.089844 524.113281 454.34375 524.285156 454.566406 524.507812 C 454.789062 524.730469 454.957031 524.984375 455.078125 525.273438 C 455.199219 525.5625 455.257812 525.863281 455.257812 526.179688 L 455.257812 613.925781 C 455.257812 614.238281 455.199219 614.539062 455.078125 614.828125 C 454.957031 615.121094 454.789062 615.375 454.566406 615.597656 C 454.34375 615.816406 454.089844 615.988281 453.800781 616.109375 C 453.507812 616.230469 453.207031 616.289062 452.894531 616.289062 L 445.011719 616.289062 C 444.699219 616.289062 444.394531 616.230469 444.105469 616.109375 C 443.816406 615.988281 443.5625 615.816406 443.339844 615.597656 C 443.117188 615.375 442.945312 615.121094 442.828125 614.828125 C 442.707031 614.539062 442.648438 614.238281 442.648438 613.925781 L 442.648438 526.179688 C 442.648438 525.863281 442.707031 525.5625 442.828125 525.273438 C 442.945312 524.984375 443.117188 524.730469 443.339844 524.507812 C 443.5625 524.285156 443.816406 524.113281 444.105469 523.996094 C 444.394531 523.875 444.699219 523.816406 445.011719 523.816406 Z M 445.011719 523.816406 " fill-opacity="1" fill-rule="nonzero"/><path fill="#6b99d2" d="M 495.300781 566.199219 L 495.300781 574.078125 C 495.300781 574.390625 495.242188 574.691406 495.121094 574.980469 C 495.003906 575.273438 494.832031 575.527344 494.609375 575.75 C 494.386719 575.96875 494.132812 576.140625 493.84375 576.261719 C 493.554688 576.382812 493.25 576.441406 492.9375 576.441406 L 405.140625 576.441406 C 404.828125 576.441406 404.527344 576.382812 404.234375 576.261719 C 403.945312 576.140625 403.691406 575.96875 403.46875 575.75 C 403.246094 575.527344 403.078125 575.273438 402.957031 574.980469 C 402.835938 574.691406 402.777344 574.390625 402.777344 574.078125 L 402.777344 566.199219 C 402.777344 565.886719 402.835938 565.585938 402.957031 565.292969 C 403.078125 565.003906 403.246094 564.75 403.46875 564.527344 C 403.691406 564.304688 403.945312 564.136719 404.234375 564.015625 C 404.527344 563.894531 404.828125 563.835938 405.140625 563.835938 L 492.9375 563.835938 C 493.25 563.835938 493.554688 563.894531 493.84375 564.015625 C 494.132812 564.136719 494.386719 564.304688 494.609375 564.527344 C 494.832031 564.75 495.003906 565.003906 495.121094 565.292969 C 495.242188 565.585938 495.300781 565.886719 495.300781 566.199219 Z M 495.300781 566.199219 " fill-opacity="1" fill-rule="nonzero"/><path fill="#6b99d2" d="M 478.921875 534.507812 L 484.496094 540.082031 C 484.714844 540.300781 484.886719 540.558594 485.007812 540.847656 C 485.128906 541.136719 485.1875 541.4375 485.1875 541.75 C 485.1875 542.066406 485.128906 542.367188 485.007812 542.65625 C 484.886719 542.945312 484.714844 543.199219 484.496094 543.421875 L 422.414062 605.46875 C 422.191406 605.691406 421.933594 605.863281 421.644531 605.980469 C 421.355469 606.101562 421.054688 606.160156 420.742188 606.160156 C 420.425781 606.160156 420.125 606.101562 419.835938 605.980469 C 419.546875 605.863281 419.289062 605.691406 419.066406 605.46875 L 413.496094 599.898438 C 413.273438 599.675781 413.101562 599.421875 412.980469 599.132812 C 412.863281 598.84375 412.800781 598.539062 412.800781 598.226562 C 412.800781 597.914062 412.863281 597.613281 412.980469 597.324219 C 413.101562 597.03125 413.273438 596.777344 413.496094 596.554688 L 475.574219 534.507812 C 475.796875 534.289062 476.054688 534.117188 476.34375 533.996094 C 476.632812 533.878906 476.933594 533.816406 477.25 533.816406 C 477.5625 533.816406 477.863281 533.878906 478.152344 533.996094 C 478.441406 534.117188 478.699219 534.289062 478.921875 534.507812 Z M 478.921875 534.507812 " fill-opacity="1" fill-rule="nonzero"/><path fill="#6b99d2" d="M 484.445312 599.929688 L 478.871094 605.5 C 478.648438 605.722656 478.390625 605.894531 478.101562 606.011719 C 477.8125 606.132812 477.511719 606.191406 477.199219 606.191406 C 476.882812 606.191406 476.582031 606.132812 476.292969 606.011719 C 476.003906 605.894531 475.746094 605.722656 475.523438 605.5 L 413.445312 543.453125 C 413.222656 543.234375 413.050781 542.976562 412.929688 542.6875 C 412.8125 542.398438 412.75 542.097656 412.75 541.78125 C 412.75 541.46875 412.8125 541.167969 412.929688 540.878906 C 413.050781 540.589844 413.222656 540.332031 413.445312 540.113281 L 419.019531 534.539062 C 419.238281 534.320312 419.496094 534.148438 419.785156 534.027344 C 420.074219 533.910156 420.375 533.847656 420.691406 533.847656 C 421.003906 533.847656 421.304688 533.910156 421.59375 534.027344 C 421.882812 534.148438 422.140625 534.320312 422.363281 534.539062 L 484.445312 596.585938 C 484.664062 596.808594 484.835938 597.066406 484.957031 597.355469 C 485.078125 597.644531 485.136719 597.945312 485.136719 598.257812 C 485.136719 598.570312 485.078125 598.875 484.957031 599.164062 C 484.835938 599.453125 484.664062 599.707031 484.445312 599.929688 Z M 484.445312 599.929688 " fill-opacity="1" fill-rule="nonzero"/><path fill="#6b99d2" d="M 123.085938 527.28125 L 129.234375 527.28125 C 129.464844 527.28125 129.683594 527.324219 129.898438 527.414062 C 130.109375 527.5 130.296875 527.625 130.460938 527.789062 C 130.621094 527.953125 130.746094 528.140625 130.835938 528.351562 C 130.921875 528.5625 130.96875 528.785156 130.96875 529.015625 L 130.96875 595.570312 C 130.96875 595.800781 130.921875 596.019531 130.835938 596.230469 C 130.746094 596.445312 130.621094 596.632812 130.460938 596.792969 C 130.296875 596.957031 130.109375 597.082031 129.898438 597.171875 C 129.683594 597.257812 129.464844 597.300781 129.234375 597.300781 L 123.085938 597.300781 C 122.855469 597.300781 122.632812 597.257812 122.421875 597.171875 C 122.207031 597.082031 122.019531 596.957031 121.859375 596.792969 C 121.695312 596.632812 121.570312 596.445312 121.484375 596.230469 C 121.394531 596.019531 121.351562 595.800781 121.351562 595.570312 L 121.351562 529.015625 C 121.351562 528.785156 121.394531 528.5625 121.484375 528.351562 C 121.570312 528.140625 121.695312 527.953125 121.859375 527.789062 C 122.019531 527.625 122.207031 527.5 122.421875 527.414062 C 122.632812 527.324219 122.855469 527.28125 123.085938 527.28125 Z M 123.085938 527.28125 " fill-opacity="1" fill-rule="nonzero"/><path fill="#6b99d2" d="M 161.078125 559.265625 L 161.078125 565.410156 C 161.078125 565.640625 161.035156 565.863281 160.949219 566.074219 C 160.859375 566.289062 160.734375 566.472656 160.570312 566.636719 C 160.410156 566.800781 160.222656 566.925781 160.007812 567.011719 C 159.796875 567.101562 159.574219 567.144531 159.34375 567.144531 L 92.753906 567.144531 C 92.523438 567.144531 92.300781 567.101562 92.089844 567.011719 C 91.875 566.925781 91.6875 566.800781 91.527344 566.636719 C 91.363281 566.472656 91.238281 566.289062 91.152344 566.074219 C 91.0625 565.863281 91.019531 565.640625 91.019531 565.410156 L 91.019531 559.265625 C 91.019531 559.035156 91.0625 558.816406 91.152344 558.601562 C 91.238281 558.390625 91.363281 558.203125 91.527344 558.042969 C 91.6875 557.878906 91.875 557.753906 92.089844 557.664062 C 92.300781 557.578125 92.523438 557.535156 92.753906 557.535156 L 159.34375 557.535156 C 159.574219 557.535156 159.796875 557.578125 160.007812 557.664062 C 160.222656 557.753906 160.410156 557.878906 160.570312 558.042969 C 160.734375 558.203125 160.859375 558.390625 160.949219 558.601562 C 161.035156 558.816406 161.078125 559.035156 161.078125 559.265625 Z M 161.078125 559.265625 " fill-opacity="1" fill-rule="nonzero"/><path fill="#6b99d2" d="M 148.722656 535.398438 L 153.070312 539.746094 C 153.230469 539.90625 153.355469 540.09375 153.445312 540.308594 C 153.53125 540.519531 153.578125 540.742188 153.578125 540.96875 C 153.578125 541.199219 153.53125 541.421875 153.445312 541.632812 C 153.355469 541.847656 153.230469 542.03125 153.070312 542.195312 L 105.980469 589.257812 C 105.816406 589.417969 105.628906 589.542969 105.417969 589.632812 C 105.207031 589.71875 104.984375 589.765625 104.753906 589.765625 C 104.523438 589.765625 104.304688 589.71875 104.089844 589.632812 C 103.878906 589.542969 103.691406 589.417969 103.527344 589.257812 L 99.179688 584.910156 C 99.019531 584.75 98.894531 584.5625 98.804688 584.347656 C 98.714844 584.136719 98.671875 583.914062 98.671875 583.6875 C 98.671875 583.457031 98.714844 583.234375 98.804688 583.023438 C 98.894531 582.8125 99.019531 582.625 99.179688 582.460938 L 146.269531 535.398438 C 146.429688 535.238281 146.617188 535.113281 146.832031 535.023438 C 147.042969 534.9375 147.265625 534.890625 147.496094 534.890625 C 147.726562 534.890625 147.945312 534.9375 148.160156 535.023438 C 148.371094 535.113281 148.558594 535.238281 148.722656 535.398438 Z M 148.722656 535.398438 " fill-opacity="1" fill-rule="nonzero"/><path fill="#6b99d2" d="M 152.957031 584.886719 L 148.609375 589.234375 C 148.449219 589.394531 148.261719 589.519531 148.046875 589.609375 C 147.835938 589.695312 147.613281 589.742188 147.382812 589.742188 C 147.152344 589.742188 146.933594 589.695312 146.71875 589.609375 C 146.507812 589.519531 146.320312 589.394531 146.15625 589.234375 L 99.070312 542.171875 C 98.90625 542.007812 98.78125 541.824219 98.695312 541.609375 C 98.605469 541.398438 98.5625 541.175781 98.5625 540.945312 C 98.5625 540.71875 98.605469 540.496094 98.695312 540.285156 C 98.78125 540.070312 98.90625 539.882812 99.070312 539.722656 L 103.417969 535.375 C 103.578125 535.214844 103.765625 535.089844 103.980469 535 C 104.191406 534.914062 104.414062 534.867188 104.644531 534.867188 C 104.875 534.867188 105.09375 534.914062 105.308594 535 C 105.519531 535.089844 105.707031 535.214844 105.871094 535.375 L 152.957031 582.4375 C 153.121094 582.601562 153.246094 582.789062 153.332031 583 C 153.421875 583.210938 153.464844 583.433594 153.464844 583.664062 C 153.464844 583.894531 153.421875 584.113281 153.332031 584.324219 C 153.246094 584.539062 153.121094 584.726562 152.957031 584.886719 Z M 152.957031 584.886719 " fill-opacity="1" fill-rule="nonzero"/><g clip-path="url(#da30c54568)"><path fill="#26477a" d="M 252.042969 613.3125 L 258.824219 613.3125 C 259.09375 613.3125 259.355469 613.363281 259.609375 613.464844 C 259.859375 613.570312 260.082031 613.71875 260.273438 613.910156 C 260.464844 614.101562 260.613281 614.324219 260.71875 614.574219 C 260.820312 614.824219 260.875 615.085938 260.875 615.359375 L 260.875 691.132812 C 260.875 691.402344 260.820312 691.664062 260.71875 691.914062 C 260.613281 692.164062 260.464844 692.386719 260.273438 692.578125 C 260.082031 692.769531 259.859375 692.917969 259.609375 693.023438 C 259.355469 693.128906 259.09375 693.179688 258.824219 693.179688 L 252.042969 693.179688 C 251.773438 693.179688 251.511719 693.128906 251.261719 693.023438 C 251.007812 692.917969 250.789062 692.769531 250.59375 692.578125 C 250.402344 692.386719 250.253906 692.164062 250.152344 691.914062 C 250.046875 691.664062 249.996094 691.402344 249.996094 691.132812 L 249.996094 615.359375 C 249.996094 615.085938 250.046875 614.824219 250.152344 614.574219 C 250.253906 614.324219 250.402344 614.101562 250.59375 613.910156 C 250.789062 613.71875 251.007812 613.570312 251.261719 613.464844 C 251.511719 613.363281 251.773438 613.3125 252.042969 613.3125 Z M 252.042969 613.3125 " fill-opacity="1" fill-rule="nonzero"/></g><path fill="#26477a" d="M 295.398438 649.867188 L 295.398438 656.640625 C 295.398438 656.914062 295.347656 657.171875 295.242188 657.425781 C 295.140625 657.675781 294.992188 657.898438 294.800781 658.089844 C 294.605469 658.28125 294.386719 658.429688 294.132812 658.53125 C 293.882812 658.636719 293.621094 658.6875 293.351562 658.6875 L 217.535156 658.6875 C 217.261719 658.6875 217 658.636719 216.75 658.53125 C 216.5 658.429688 216.277344 658.28125 216.085938 658.089844 C 215.894531 657.898438 215.746094 657.675781 215.640625 657.425781 C 215.539062 657.171875 215.484375 656.914062 215.484375 656.640625 L 215.484375 649.867188 C 215.484375 649.59375 215.539062 649.332031 215.640625 649.082031 C 215.746094 648.832031 215.894531 648.609375 216.085938 648.417969 C 216.277344 648.226562 216.5 648.078125 216.75 647.972656 C 217 647.867188 217.261719 647.816406 217.535156 647.816406 L 293.351562 647.816406 C 293.621094 647.816406 293.882812 647.867188 294.132812 647.972656 C 294.386719 648.078125 294.605469 648.226562 294.800781 648.417969 C 294.992188 648.609375 295.140625 648.832031 295.242188 649.082031 C 295.347656 649.332031 295.398438 649.59375 295.398438 649.867188 Z M 295.398438 649.867188 " fill-opacity="1" fill-rule="nonzero"/><path fill="#26477a" d="M 281.25 622.496094 L 286.042969 627.289062 C 286.234375 627.480469 286.382812 627.703125 286.488281 627.953125 C 286.589844 628.203125 286.644531 628.464844 286.644531 628.738281 C 286.644531 629.007812 286.589844 629.269531 286.488281 629.519531 C 286.382812 629.769531 286.234375 629.992188 286.042969 630.183594 L 232.433594 683.765625 C 232.242188 683.957031 232.019531 684.105469 231.769531 684.207031 C 231.515625 684.3125 231.253906 684.363281 230.984375 684.363281 C 230.710938 684.363281 230.449219 684.3125 230.199219 684.207031 C 229.949219 684.105469 229.726562 683.957031 229.535156 683.765625 L 224.742188 678.972656 C 224.550781 678.78125 224.402344 678.558594 224.296875 678.308594 C 224.191406 678.058594 224.140625 677.796875 224.140625 677.523438 C 224.140625 677.253906 224.191406 676.992188 224.296875 676.742188 C 224.402344 676.488281 224.550781 676.269531 224.742188 676.078125 L 278.351562 622.496094 C 278.542969 622.304688 278.765625 622.15625 279.015625 622.054688 C 279.265625 621.949219 279.527344 621.898438 279.800781 621.898438 C 280.070312 621.898438 280.332031 621.949219 280.585938 622.054688 C 280.835938 622.15625 281.058594 622.304688 281.25 622.496094 Z M 281.25 622.496094 " fill-opacity="1" fill-rule="nonzero"/><path fill="#26477a" d="M 286.050781 679.054688 L 281.253906 683.84375 C 281.0625 684.035156 280.839844 684.183594 280.589844 684.289062 C 280.339844 684.390625 280.078125 684.445312 279.804688 684.445312 C 279.535156 684.445312 279.273438 684.390625 279.023438 684.289062 C 278.769531 684.183594 278.550781 684.035156 278.355469 683.84375 L 224.746094 630.265625 C 224.554688 630.074219 224.40625 629.851562 224.304688 629.601562 C 224.199219 629.347656 224.148438 629.089844 224.148438 628.816406 C 224.148438 628.542969 224.199219 628.285156 224.304688 628.03125 C 224.40625 627.78125 224.554688 627.558594 224.746094 627.367188 L 229.542969 622.578125 C 229.734375 622.386719 229.957031 622.238281 230.207031 622.132812 C 230.457031 622.027344 230.71875 621.976562 230.992188 621.976562 C 231.261719 621.976562 231.523438 622.027344 231.773438 622.132812 C 232.027344 622.238281 232.246094 622.386719 232.441406 622.578125 L 286.050781 676.15625 C 286.242188 676.347656 286.390625 676.570312 286.492188 676.820312 C 286.597656 677.070312 286.648438 677.332031 286.648438 677.605469 C 286.648438 677.875 286.597656 678.136719 286.492188 678.386719 C 286.390625 678.640625 286.242188 678.859375 286.050781 679.054688 Z M 286.050781 679.054688 " fill-opacity="1" fill-rule="nonzero"/><g clip-path="url(#dfce830719)"><path fill="#26477a" d="M 575.390625 613.3125 L 582.167969 613.3125 C 582.441406 613.3125 582.703125 613.363281 582.953125 613.464844 C 583.203125 613.570312 583.425781 613.71875 583.617188 613.910156 C 583.808594 614.101562 583.957031 614.324219 584.0625 614.574219 C 584.167969 614.824219 584.21875 615.085938 584.21875 615.359375 L 584.21875 691.132812 C 584.21875 691.402344 584.167969 691.664062 584.0625 691.914062 C 583.957031 692.164062 583.808594 692.386719 583.617188 692.578125 C 583.425781 692.769531 583.203125 692.917969 582.953125 693.023438 C 582.703125 693.128906 582.441406 693.179688 582.167969 693.179688 L 575.390625 693.179688 C 575.117188 693.179688 574.855469 693.128906 574.605469 693.023438 C 574.355469 692.917969 574.132812 692.769531 573.941406 692.578125 C 573.75 692.386719 573.601562 692.164062 573.496094 691.914062 C 573.394531 691.664062 573.339844 691.402344 573.339844 691.132812 L 573.339844 615.359375 C 573.339844 615.085938 573.394531 614.824219 573.496094 614.574219 C 573.601562 614.324219 573.75 614.101562 573.941406 613.910156 C 574.132812 613.71875 574.355469 613.570312 574.605469 613.464844 C 574.855469 613.363281 575.117188 613.3125 575.390625 613.3125 Z M 575.390625 613.3125 " fill-opacity="1" fill-rule="nonzero"/></g><path fill="#26477a" d="M 618.746094 649.867188 L 618.746094 656.640625 C 618.746094 656.914062 618.691406 657.171875 618.589844 657.425781 C 618.484375 657.675781 618.335938 657.898438 618.144531 658.089844 C 617.953125 658.28125 617.730469 658.429688 617.480469 658.53125 C 617.226562 658.636719 616.96875 658.6875 616.695312 658.6875 L 540.878906 658.6875 C 540.609375 658.6875 540.347656 658.636719 540.097656 658.53125 C 539.84375 658.429688 539.625 658.28125 539.429688 658.089844 C 539.238281 657.898438 539.089844 657.675781 538.988281 657.425781 C 538.882812 657.171875 538.832031 656.914062 538.832031 656.640625 L 538.832031 649.867188 C 538.832031 649.59375 538.882812 649.332031 538.988281 649.082031 C 539.089844 648.832031 539.238281 648.609375 539.429688 648.417969 C 539.625 648.226562 539.84375 648.078125 540.097656 647.972656 C 540.347656 647.867188 540.609375 647.816406 540.878906 647.816406 L 616.695312 647.816406 C 616.96875 647.816406 617.226562 647.867188 617.480469 647.972656 C 617.730469 648.078125 617.953125 648.226562 618.144531 648.417969 C 618.335938 648.609375 618.484375 648.832031 618.589844 649.082031 C 618.691406 649.332031 618.746094 649.59375 618.746094 649.867188 Z M 618.746094 649.867188 " fill-opacity="1" fill-rule="nonzero"/><path fill="#26477a" d="M 604.75 622.652344 L 609.542969 627.445312 C 609.734375 627.636719 609.882812 627.855469 609.988281 628.109375 C 610.089844 628.359375 610.144531 628.621094 610.144531 628.890625 C 610.144531 629.164062 610.089844 629.425781 609.988281 629.675781 C 609.882812 629.925781 609.734375 630.148438 609.542969 630.339844 L 555.933594 683.917969 C 555.742188 684.113281 555.519531 684.257812 555.269531 684.363281 C 555.015625 684.46875 554.753906 684.519531 554.484375 684.519531 C 554.210938 684.519531 553.949219 684.46875 553.699219 684.363281 C 553.449219 684.257812 553.226562 684.113281 553.035156 683.917969 L 548.242188 679.128906 C 548.050781 678.9375 547.902344 678.714844 547.796875 678.464844 C 547.691406 678.214844 547.640625 677.953125 547.640625 677.679688 C 547.640625 677.410156 547.691406 677.148438 547.796875 676.894531 C 547.902344 676.644531 548.050781 676.425781 548.242188 676.230469 L 601.851562 622.652344 C 602.042969 622.460938 602.265625 622.3125 602.515625 622.207031 C 602.765625 622.105469 603.027344 622.054688 603.300781 622.054688 C 603.570312 622.054688 603.832031 622.105469 604.085938 622.207031 C 604.335938 622.3125 604.558594 622.460938 604.75 622.652344 Z M 604.75 622.652344 " fill-opacity="1" fill-rule="nonzero"/><path fill="#26477a" d="M 609.554688 679.207031 L 604.761719 683.996094 C 604.570312 684.1875 604.347656 684.335938 604.097656 684.441406 C 603.847656 684.542969 603.585938 684.597656 603.3125 684.597656 C 603.042969 684.597656 602.78125 684.542969 602.527344 684.441406 C 602.277344 684.335938 602.054688 684.1875 601.863281 683.996094 L 548.253906 630.417969 C 548.0625 630.226562 547.914062 630.003906 547.808594 629.753906 C 547.707031 629.503906 547.652344 629.242188 547.652344 628.96875 C 547.652344 628.699219 547.707031 628.4375 547.808594 628.183594 C 547.914062 627.933594 548.0625 627.714844 548.253906 627.519531 L 553.046875 622.730469 C 553.238281 622.539062 553.460938 622.390625 553.710938 622.285156 C 553.964844 622.183594 554.226562 622.128906 554.496094 622.128906 C 554.769531 622.128906 555.03125 622.183594 555.28125 622.285156 C 555.53125 622.390625 555.753906 622.539062 555.945312 622.730469 L 609.554688 676.308594 C 609.746094 676.5 609.894531 676.722656 610 676.972656 C 610.105469 677.222656 610.15625 677.484375 610.15625 677.757812 C 610.15625 678.027344 610.105469 678.289062 610 678.542969 C 609.894531 678.792969 609.746094 679.015625 609.554688 679.207031 Z M 609.554688 679.207031 " fill-opacity="1" fill-rule="nonzero"/><path fill="#b4e3fb" d="M 397.714844 668.929688 C 397.714844 669.480469 397.664062 670.023438 397.554688 670.558594 C 397.449219 671.097656 397.289062 671.621094 397.078125 672.125 C 396.871094 672.632812 396.613281 673.113281 396.308594 673.570312 C 396.003906 674.027344 395.65625 674.449219 395.269531 674.835938 C 394.878906 675.222656 394.457031 675.570312 394.003906 675.875 C 393.546875 676.179688 393.066406 676.4375 392.558594 676.644531 C 392.050781 676.855469 391.527344 677.015625 390.988281 677.121094 C 390.453125 677.226562 389.910156 677.28125 389.359375 677.28125 C 388.8125 677.28125 388.269531 677.226562 387.730469 677.121094 C 387.191406 677.015625 386.667969 676.855469 386.164062 676.644531 C 385.65625 676.4375 385.175781 676.179688 384.71875 675.875 C 384.261719 675.570312 383.839844 675.222656 383.453125 674.835938 C 383.0625 674.449219 382.71875 674.027344 382.414062 673.570312 C 382.109375 673.113281 381.851562 672.632812 381.640625 672.125 C 381.429688 671.621094 381.273438 671.097656 381.164062 670.558594 C 381.058594 670.023438 381.003906 669.480469 381.003906 668.929688 C 381.003906 668.382812 381.058594 667.839844 381.164062 667.300781 C 381.273438 666.761719 381.429688 666.242188 381.640625 665.734375 C 381.851562 665.226562 382.109375 664.746094 382.414062 664.289062 C 382.71875 663.835938 383.0625 663.414062 383.453125 663.027344 C 383.839844 662.636719 384.261719 662.292969 384.71875 661.988281 C 385.175781 661.683594 385.65625 661.425781 386.164062 661.214844 C 386.667969 661.003906 387.191406 660.847656 387.730469 660.738281 C 388.269531 660.632812 388.8125 660.578125 389.359375 660.578125 C 389.910156 660.578125 390.453125 660.632812 390.988281 660.738281 C 391.527344 660.847656 392.050781 661.003906 392.558594 661.214844 C 393.066406 661.425781 393.546875 661.683594 394.003906 661.988281 C 394.457031 662.292969 394.878906 662.636719 395.269531 663.027344 C 395.65625 663.414062 396.003906 663.835938 396.308594 664.289062 C 396.613281 664.746094 396.871094 665.226562 397.078125 665.734375 C 397.289062 666.242188 397.449219 666.761719 397.554688 667.300781 C 397.664062 667.839844 397.714844 668.382812 397.714844 668.929688 Z M 397.714844 668.929688 " fill-opacity="1" fill-rule="nonzero"/><path fill="#b4e3fb" d="M 661.625 565.097656 C 661.625 565.644531 661.574219 566.1875 661.464844 566.726562 C 661.359375 567.261719 661.199219 567.785156 660.988281 568.292969 C 660.78125 568.796875 660.523438 569.28125 660.21875 569.734375 C 659.914062 570.191406 659.566406 570.613281 659.179688 571 C 658.789062 571.390625 658.367188 571.734375 657.914062 572.039062 C 657.457031 572.34375 656.976562 572.601562 656.46875 572.8125 C 655.960938 573.019531 655.4375 573.179688 654.902344 573.285156 C 654.363281 573.394531 653.820312 573.445312 653.269531 573.449219 C 652.722656 573.445312 652.179688 573.394531 651.640625 573.285156 C 651.101562 573.179688 650.578125 573.019531 650.074219 572.8125 C 649.566406 572.601562 649.085938 572.34375 648.628906 572.039062 C 648.171875 571.734375 647.75 571.390625 647.363281 571 C 646.972656 570.613281 646.628906 570.191406 646.324219 569.734375 C 646.019531 569.28125 645.761719 568.796875 645.550781 568.292969 C 645.339844 567.785156 645.183594 567.261719 645.074219 566.726562 C 644.96875 566.1875 644.914062 565.644531 644.914062 565.097656 C 644.914062 564.546875 644.96875 564.003906 645.074219 563.46875 C 645.183594 562.929688 645.339844 562.40625 645.550781 561.902344 C 645.761719 561.394531 646.019531 560.914062 646.324219 560.457031 C 646.628906 560 646.972656 559.578125 647.363281 559.191406 C 647.75 558.804688 648.171875 558.457031 648.628906 558.152344 C 649.085938 557.847656 649.566406 557.589844 650.074219 557.382812 C 650.578125 557.171875 651.101562 557.011719 651.640625 556.90625 C 652.179688 556.800781 652.722656 556.746094 653.269531 556.746094 C 653.820312 556.746094 654.363281 556.800781 654.902344 556.90625 C 655.4375 557.011719 655.960938 557.171875 656.46875 557.382812 C 656.976562 557.589844 657.457031 557.847656 657.914062 558.152344 C 658.367188 558.457031 658.789062 558.804688 659.179688 559.191406 C 659.566406 559.578125 659.914062 560 660.21875 560.457031 C 660.523438 560.914062 660.78125 561.394531 660.988281 561.902344 C 661.199219 562.40625 661.359375 562.929688 661.464844 563.46875 C 661.574219 564.003906 661.625 564.546875 661.625 565.097656 Z M 661.625 565.097656 " fill-opacity="1" fill-rule="nonzero"/><path fill="#b4e3fb" d="M 110.472656 660.421875 C 110.472656 660.96875 110.417969 661.511719 110.3125 662.050781 C 110.207031 662.589844 110.046875 663.109375 109.835938 663.617188 C 109.625 664.125 109.371094 664.605469 109.066406 665.0625 C 108.761719 665.515625 108.414062 665.9375 108.027344 666.328125 C 107.636719 666.714844 107.214844 667.0625 106.757812 667.367188 C 106.304688 667.671875 105.820312 667.925781 105.316406 668.136719 C 104.808594 668.347656 104.285156 668.503906 103.746094 668.613281 C 103.210938 668.71875 102.664062 668.773438 102.117188 668.773438 C 101.570312 668.773438 101.023438 668.71875 100.488281 668.613281 C 99.949219 668.503906 99.425781 668.347656 98.917969 668.136719 C 98.414062 667.925781 97.929688 667.671875 97.476562 667.367188 C 97.019531 667.0625 96.597656 666.714844 96.207031 666.328125 C 95.820312 665.9375 95.476562 665.515625 95.167969 665.0625 C 94.863281 664.605469 94.609375 664.125 94.398438 663.617188 C 94.1875 663.109375 94.027344 662.589844 93.921875 662.050781 C 93.816406 661.511719 93.761719 660.96875 93.761719 660.421875 C 93.761719 659.875 93.816406 659.332031 93.921875 658.792969 C 94.027344 658.253906 94.1875 657.734375 94.398438 657.226562 C 94.609375 656.71875 94.863281 656.238281 95.167969 655.78125 C 95.476562 655.328125 95.820312 654.90625 96.207031 654.515625 C 96.597656 654.128906 97.019531 653.78125 97.476562 653.480469 C 97.929688 653.175781 98.414062 652.917969 98.917969 652.707031 C 99.425781 652.496094 99.949219 652.339844 100.488281 652.230469 C 101.023438 652.125 101.570312 652.070312 102.117188 652.070312 C 102.664062 652.070312 103.210938 652.125 103.746094 652.230469 C 104.285156 652.339844 104.808594 652.496094 105.316406 652.707031 C 105.820312 652.917969 106.304688 653.175781 106.757812 653.480469 C 107.214844 653.78125 107.636719 654.128906 108.027344 654.515625 C 108.414062 654.90625 108.761719 655.328125 109.066406 655.78125 C 109.371094 656.238281 109.625 656.71875 109.835938 657.226562 C 110.046875 657.734375 110.207031 658.253906 110.3125 658.792969 C 110.417969 659.332031 110.472656 659.875 110.472656 660.421875 Z M 110.472656 660.421875 " fill-opacity="1" fill-rule="nonzero"/><g clip-path="url(#ecfb53e390)"><path fill="#26477a" d="M 537.394531 266.355469 L 535.1875 266.355469 C 537.8125 257.511719 539.125 248.480469 539.128906 239.257812 C 539.128906 237.746094 539.09375 236.234375 539.019531 234.726562 C 538.945312 233.214844 538.832031 231.710938 538.683594 230.207031 C 538.535156 228.703125 538.351562 227.203125 538.128906 225.707031 C 537.910156 224.214844 537.648438 222.726562 537.355469 221.242188 C 537.058594 219.761719 536.730469 218.285156 536.363281 216.820312 C 535.992188 215.355469 535.589844 213.898438 535.152344 212.453125 C 534.714844 211.007812 534.238281 209.574219 533.730469 208.152344 C 533.21875 206.726562 532.675781 205.316406 532.097656 203.921875 C 531.519531 202.527344 530.90625 201.144531 530.261719 199.777344 C 529.613281 198.414062 528.933594 197.0625 528.222656 195.730469 C 527.507812 194.398438 526.761719 193.085938 525.984375 191.789062 C 525.210938 190.492188 524.398438 189.214844 523.558594 187.960938 C 522.71875 186.703125 521.851562 185.46875 520.949219 184.253906 C 520.046875 183.039062 519.117188 181.847656 518.160156 180.679688 C 517.199219 179.511719 516.214844 178.371094 515.199219 177.25 C 514.183594 176.128906 513.140625 175.035156 512.070312 173.96875 C 511.003906 172.898438 509.90625 171.859375 508.789062 170.84375 C 507.667969 169.828125 506.523438 168.839844 505.355469 167.882812 C 504.183594 166.925781 502.992188 165.996094 501.777344 165.09375 C 500.566406 164.195312 499.328125 163.324219 498.070312 162.484375 C 496.816406 161.644531 495.539062 160.835938 494.242188 160.058594 C 492.945312 159.285156 491.628906 158.539062 490.296875 157.828125 C 488.960938 157.113281 487.613281 156.433594 486.246094 155.789062 C 484.878906 155.144531 483.496094 154.53125 482.097656 153.953125 C 480.703125 153.375 479.292969 152.832031 477.867188 152.320312 C 476.445312 151.8125 475.011719 151.339844 473.5625 150.898438 C 472.117188 150.460938 470.660156 150.058594 469.191406 149.691406 C 467.726562 149.324219 466.25 148.992188 464.769531 148.699219 C 463.285156 148.402344 461.796875 148.144531 460.300781 147.921875 C 458.804688 147.703125 457.304688 147.515625 455.800781 147.367188 C 454.296875 147.222656 452.789062 147.109375 451.277344 147.035156 C 449.769531 146.960938 448.257812 146.925781 446.746094 146.925781 C 441.398438 146.902344 436.09375 147.347656 430.824219 148.257812 C 425.558594 149.167969 420.410156 150.527344 415.378906 152.34375 C 410.351562 154.15625 405.519531 156.394531 400.886719 159.058594 C 396.25 161.71875 391.882812 164.765625 387.785156 168.195312 C 387.398438 166.410156 386.972656 164.632812 386.507812 162.867188 C 386.042969 161.101562 385.535156 159.347656 384.988281 157.605469 C 384.441406 155.863281 383.855469 154.132812 383.230469 152.417969 C 382.601562 150.703125 381.9375 149.003906 381.234375 147.316406 C 380.53125 145.632812 379.789062 143.964844 379.007812 142.3125 C 378.226562 140.660156 377.40625 139.027344 376.550781 137.414062 C 375.695312 135.800781 374.804688 134.207031 373.875 132.636719 C 372.945312 131.0625 371.984375 129.511719 370.984375 127.984375 C 369.984375 126.457031 368.949219 124.949219 367.878906 123.46875 C 366.8125 121.988281 365.707031 120.53125 364.574219 119.101562 C 363.4375 117.671875 362.269531 116.265625 361.070312 114.890625 C 359.867188 113.511719 358.636719 112.164062 357.375 110.84375 C 356.113281 109.523438 354.820312 108.230469 353.5 106.972656 C 352.179688 105.710938 350.828125 104.480469 349.449219 103.28125 C 348.074219 102.082031 346.667969 100.914062 345.238281 99.777344 C 343.804688 98.644531 342.347656 97.542969 340.867188 96.472656 C 339.386719 95.40625 337.878906 94.371094 336.351562 93.371094 C 334.820312 92.371094 333.269531 91.410156 331.695312 90.480469 C 330.121094 89.550781 328.527344 88.660156 326.914062 87.804688 C 325.296875 86.949219 323.664062 86.132812 322.011719 85.351562 C 320.359375 84.574219 318.691406 83.832031 317.003906 83.125 C 315.320312 82.421875 313.617188 81.757812 311.902344 81.132812 C 310.183594 80.507812 308.453125 79.921875 306.710938 79.375 C 304.964844 78.828125 303.210938 78.324219 301.445312 77.855469 C 299.679688 77.390625 297.902344 76.964844 296.113281 76.582031 C 294.328125 76.195312 292.535156 75.855469 290.730469 75.550781 C 288.929688 75.25 287.121094 74.988281 285.308594 74.769531 C 283.492188 74.550781 281.675781 74.371094 279.855469 74.238281 C 278.03125 74.101562 276.207031 74.007812 274.378906 73.953125 C 272.554688 73.902344 270.726562 73.890625 268.902344 73.921875 C 267.074219 73.953125 265.25 74.027344 263.425781 74.144531 C 261.601562 74.257812 259.78125 74.414062 257.964844 74.613281 C 256.148438 74.8125 254.335938 75.050781 252.53125 75.335938 C 250.726562 75.617188 248.929688 75.9375 247.136719 76.304688 C 245.347656 76.667969 243.566406 77.070312 241.792969 77.515625 C 240.023438 77.964844 238.261719 78.449219 236.511719 78.976562 C 234.761719 79.503906 233.023438 80.070312 231.300781 80.675781 C 229.578125 81.28125 227.867188 81.925781 226.175781 82.609375 C 224.480469 83.292969 222.804688 84.019531 221.140625 84.777344 C 219.480469 85.539062 217.839844 86.339844 216.214844 87.175781 C 214.589844 88.011719 212.984375 88.886719 211.402344 89.796875 C 209.816406 90.707031 208.253906 91.652344 206.714844 92.632812 C 205.175781 93.617188 203.65625 94.632812 202.164062 95.683594 C 200.667969 96.734375 199.199219 97.820312 197.753906 98.9375 C 196.3125 100.058594 194.894531 101.210938 193.5 102.394531 C 192.109375 103.578125 190.746094 104.792969 189.410156 106.039062 C 188.074219 107.285156 186.769531 108.5625 185.492188 109.867188 C 184.214844 111.171875 182.96875 112.507812 181.753906 113.871094 C 180.535156 115.234375 179.351562 116.625 178.199219 118.042969 C 177.046875 119.460938 175.929688 120.902344 174.84375 122.371094 C 173.757812 123.839844 172.707031 125.332031 171.691406 126.851562 C 170.671875 128.367188 169.691406 129.90625 168.742188 131.46875 C 167.796875 133.03125 166.886719 134.613281 166.011719 136.21875 C 165.140625 137.824219 164.304688 139.445312 163.503906 141.085938 C 162.703125 142.730469 161.941406 144.390625 161.21875 146.066406 C 160.496094 147.742188 159.8125 149.4375 159.167969 151.144531 C 158.519531 152.851562 157.914062 154.574219 157.347656 156.3125 C 156.78125 158.046875 156.253906 159.796875 155.769531 161.558594 C 155.28125 163.316406 154.835938 165.085938 154.433594 166.867188 C 154.027344 168.648438 153.664062 170.4375 153.339844 172.234375 C 153.019531 174.035156 152.734375 175.835938 152.496094 177.648438 C 152.257812 179.457031 152.058594 181.273438 151.902344 183.09375 C 151.746094 184.914062 151.628906 186.734375 151.554688 188.558594 C 151.484375 190.382812 151.453125 192.210938 151.460938 194.035156 C 151.398438 201.726562 152.136719 209.34375 153.667969 216.882812 C 148.707031 216.117188 143.714844 215.75 138.691406 215.777344 C 135.960938 215.78125 133.230469 215.898438 130.507812 216.125 C 127.785156 216.351562 125.074219 216.691406 122.378906 217.144531 C 119.683594 217.59375 117.011719 218.152344 114.363281 218.824219 C 111.710938 219.496094 109.09375 220.273438 106.507812 221.15625 C 103.925781 222.042969 101.378906 223.035156 98.875 224.128906 C 96.371094 225.222656 93.917969 226.417969 91.511719 227.714844 C 89.105469 229.011719 86.757812 230.40625 84.46875 231.894531 C 82.175781 233.386719 79.953125 234.96875 77.792969 236.640625 C 75.628906 238.3125 73.542969 240.070312 71.527344 241.917969 C 69.511719 243.761719 67.574219 245.683594 65.71875 247.6875 C 63.859375 249.691406 62.089844 251.769531 60.402344 253.917969 C 58.714844 256.070312 57.121094 258.285156 55.617188 260.5625 C 54.113281 262.84375 52.707031 265.183594 51.394531 267.582031 C 50.082031 269.976562 48.871094 272.421875 47.761719 274.917969 C 46.652344 277.414062 45.648438 279.953125 44.746094 282.53125 C 43.84375 285.109375 43.050781 287.722656 42.367188 290.367188 C 41.679688 293.007812 41.105469 295.675781 40.636719 298.367188 C 40.171875 301.058594 39.816406 303.765625 39.574219 306.488281 C 39.328125 309.207031 39.199219 311.933594 39.179688 314.664062 C 39.160156 317.394531 39.253906 320.125 39.457031 322.847656 C 39.664062 325.570312 39.980469 328.28125 40.410156 330.980469 C 40.839844 333.675781 41.378906 336.351562 42.027344 339.003906 C 42.675781 341.660156 43.433594 344.28125 44.296875 346.871094 C 45.164062 349.464844 46.132812 352.015625 47.207031 354.527344 C 48.28125 357.035156 49.457031 359.5 50.734375 361.914062 C 52.015625 364.328125 53.390625 366.6875 54.859375 368.988281 C 56.332031 371.289062 57.898438 373.527344 59.550781 375.699219 C 61.207031 377.871094 62.953125 379.972656 64.78125 382.003906 C 66.609375 384.03125 68.519531 385.984375 70.507812 387.855469 C 72.5 389.730469 74.5625 391.515625 76.699219 393.21875 C 78.835938 394.921875 81.039062 396.535156 83.308594 398.054688 C 85.578125 399.578125 87.90625 401.003906 90.292969 402.332031 C 93.308594 404.382812 96.464844 406.195312 99.753906 407.769531 C 103.042969 409.347656 106.429688 410.667969 109.917969 411.734375 C 113.402344 412.804688 116.949219 413.605469 120.558594 414.144531 C 124.164062 414.679688 127.792969 414.945312 131.441406 414.9375 L 537.394531 414.9375 C 538.609375 414.9375 539.824219 414.902344 541.035156 414.84375 C 542.25 414.78125 543.460938 414.6875 544.667969 414.566406 C 545.878906 414.445312 547.082031 414.296875 548.285156 414.113281 C 549.484375 413.933594 550.679688 413.726562 551.871094 413.488281 C 553.0625 413.25 554.246094 412.980469 555.425781 412.683594 C 556.601562 412.386719 557.769531 412.0625 558.933594 411.707031 C 560.09375 411.355469 561.246094 410.972656 562.390625 410.5625 C 563.535156 410.152344 564.664062 409.714844 565.789062 409.246094 C 566.910156 408.78125 568.019531 408.289062 569.117188 407.769531 C 570.214844 407.25 571.296875 406.703125 572.367188 406.128906 C 573.4375 405.558594 574.496094 404.957031 575.535156 404.332031 C 576.578125 403.707031 577.601562 403.058594 578.613281 402.382812 C 579.621094 401.707031 580.613281 401.007812 581.589844 400.285156 C 582.566406 399.5625 583.519531 398.816406 584.460938 398.046875 C 585.398438 397.273438 586.316406 396.480469 587.21875 395.667969 C 588.117188 394.851562 588.996094 394.015625 589.855469 393.15625 C 590.714844 392.296875 591.550781 391.417969 592.367188 390.519531 C 593.183594 389.621094 593.976562 388.703125 594.746094 387.765625 C 595.519531 386.824219 596.265625 385.871094 596.988281 384.894531 C 597.714844 383.921875 598.414062 382.929688 599.085938 381.917969 C 599.761719 380.910156 600.414062 379.886719 601.039062 378.84375 C 601.664062 377.804688 602.261719 376.75 602.835938 375.679688 C 603.410156 374.609375 603.957031 373.527344 604.476562 372.429688 C 604.996094 371.332031 605.488281 370.222656 605.957031 369.101562 C 606.421875 367.980469 606.859375 366.847656 607.269531 365.707031 C 607.679688 364.566406 608.0625 363.414062 608.417969 362.25 C 608.773438 361.089844 609.097656 359.921875 609.394531 358.746094 C 609.691406 357.566406 609.957031 356.382812 610.199219 355.195312 C 610.4375 354.003906 610.644531 352.808594 610.824219 351.609375 C 611.007812 350.40625 611.15625 349.203125 611.277344 347.996094 C 611.398438 346.789062 611.492188 345.578125 611.554688 344.367188 C 611.617188 343.152344 611.648438 341.941406 611.648438 340.726562 C 611.648438 339.511719 611.617188 338.296875 611.554688 337.085938 C 611.492188 335.871094 611.398438 334.660156 611.277344 333.453125 C 611.15625 332.242188 611.007812 331.039062 610.828125 329.835938 C 610.644531 328.636719 610.4375 327.4375 610.199219 326.246094 C 609.960938 325.058594 609.691406 323.871094 609.394531 322.695312 C 609.097656 321.515625 608.773438 320.347656 608.417969 319.183594 C 608.066406 318.023438 607.683594 316.867188 607.273438 315.726562 C 606.863281 314.582031 606.425781 313.449219 605.960938 312.328125 C 605.492188 311.207031 605 310.09375 604.480469 308.996094 C 603.960938 307.898438 603.414062 306.816406 602.839844 305.742188 C 602.269531 304.671875 601.667969 303.617188 601.042969 302.574219 C 600.417969 301.53125 599.769531 300.503906 599.09375 299.496094 C 598.417969 298.484375 597.71875 297.492188 596.996094 296.515625 C 596.273438 295.539062 595.527344 294.582031 594.753906 293.640625 C 593.984375 292.703125 593.191406 291.78125 592.375 290.882812 C 591.5625 289.980469 590.722656 289.101562 589.867188 288.242188 C 589.007812 287.378906 588.128906 286.542969 587.226562 285.726562 C 586.328125 284.910156 585.410156 284.113281 584.472656 283.34375 C 583.53125 282.570312 582.574219 281.820312 581.601562 281.097656 C 580.625 280.371094 579.632812 279.671875 578.625 278.992188 C 577.613281 278.316406 576.589844 277.664062 575.546875 277.039062 C 574.507812 276.410156 573.449219 275.808594 572.378906 275.234375 C 571.308594 274.660156 570.226562 274.113281 569.128906 273.589844 C 568.03125 273.066406 566.921875 272.574219 565.800781 272.105469 C 564.675781 271.636719 563.546875 271.195312 562.402344 270.785156 C 561.257812 270.371094 560.105469 269.988281 558.945312 269.632812 C 557.78125 269.273438 556.613281 268.949219 555.433594 268.648438 C 554.253906 268.351562 553.070312 268.078125 551.878906 267.839844 C 550.6875 267.597656 549.492188 267.386719 548.289062 267.203125 C 547.089844 267.019531 545.882812 266.867188 544.675781 266.742188 C 543.464844 266.621094 542.253906 266.527344 541.039062 266.460938 C 539.824219 266.398438 538.609375 266.363281 537.394531 266.355469 Z M 537.394531 266.355469 " fill-opacity="1" fill-rule="nonzero"/></g><path fill="#6b99d2" d="M 287.832031 452.910156 C 364.609375 451.652344 441.386719 452.4375 518.164062 453.542969 C 534.558594 453.699219 552.371094 452.597656 568.609375 455.433594 C 592.730469 459.527344 610.230469 484.265625 592.257812 506.957031 C 579.015625 523.65625 540.074219 518.144531 545.59375 491.828125 C 547.328125 483.953125 535.03125 480.644531 533.453125 488.519531 C 525.570312 526.652344 579.488281 543.511719 601.875 515.464844 C 602.644531 514.53125 603.375 513.566406 604.066406 512.574219 C 604.757812 511.578125 605.402344 510.558594 606.011719 509.511719 C 606.617188 508.464844 607.175781 507.394531 607.695312 506.300781 C 608.210938 505.207031 608.683594 504.09375 609.109375 502.960938 C 609.535156 501.828125 609.914062 500.679688 610.242188 499.515625 C 610.574219 498.355469 610.855469 497.179688 611.089844 495.992188 C 611.324219 494.804688 611.507812 493.609375 611.644531 492.40625 C 611.777344 491.207031 611.863281 490 611.898438 488.789062 C 611.933594 487.582031 611.917969 486.371094 611.855469 485.164062 C 611.789062 483.957031 611.675781 482.753906 611.511719 481.554688 C 611.347656 480.355469 611.136719 479.167969 610.875 477.984375 C 610.613281 476.804688 610.300781 475.636719 609.941406 474.480469 C 609.585938 473.324219 609.179688 472.1875 608.726562 471.066406 C 608.273438 469.945312 607.773438 468.84375 607.230469 467.761719 C 606.6875 466.679688 606.101562 465.625 605.46875 464.589844 C 604.839844 463.558594 604.167969 462.554688 603.453125 461.578125 C 591.785156 445.191406 572.867188 442.199219 553.792969 441.410156 C 465.347656 437.628906 376.273438 438.730469 287.832031 440.148438 C 279.792969 440.304688 279.632812 452.910156 287.832031 452.910156 Z M 287.832031 452.910156 " fill-opacity="1" fill-rule="nonzero"/><path fill="#6b99d2" d="M 304.699219 281.796875 C 350.578125 282.585938 396.453125 282.902344 442.332031 281.484375 C 462.828125 280.851562 488.523438 282.742188 503.816406 266.828125 C 524.46875 245.402344 523.050781 202.542969 492.9375 189.78125 C 462.828125 177.019531 433.660156 200.179688 439.492188 230.433594 C 441.070312 238.3125 453.210938 235 451.632812 226.964844 C 448.320312 209.792969 463.457031 197.816406 479.851562 199.394531 C 501.765625 201.441406 510.59375 229.171875 502.398438 247.132812 C 493.09375 267.460938 471.339844 267.933594 451.789062 268.5625 C 402.761719 270.136719 353.730469 270.136719 304.699219 269.191406 C 296.503906 269.035156 296.503906 281.640625 304.699219 281.796875 Z M 304.699219 281.796875 " fill-opacity="1" fill-rule="nonzero"/><path fill="#6b99d2" d="M 532.351562 331.273438 C 566.5625 331.902344 640.5 345.925781 661.941406 309.84375 C 674.394531 288.730469 665.253906 254.855469 639.082031 249.96875 C 615.433594 245.558594 595.410156 263.835938 599.667969 287.46875 C 601.085938 295.347656 613.226562 292.039062 611.808594 284.003906 C 605.5 249.339844 672.660156 260.371094 652.007812 301.808594 C 643.496094 319.140625 624.105469 319.613281 607.394531 320.242188 C 582.484375 321.347656 557.101562 319.140625 532.351562 318.667969 C 524.152344 318.511719 524.152344 331.117188 532.351562 331.273438 Z M 532.351562 331.273438 " fill-opacity="1" fill-rule="nonzero"/><path fill="#6b99d2" d="M 151.777344 491.515625 C 200.335938 490.777344 248.996094 490.9375 297.765625 491.988281 C 312.898438 492.300781 331.5 491.355469 343.167969 502.230469 C 358.777344 516.726562 352.785156 543.667969 331.976562 548.867188 C 317.785156 552.332031 294.769531 545.242188 298.710938 526.964844 C 300.445312 519.089844 288.304688 515.621094 286.570312 523.65625 C 280.105469 553.277344 314.316406 568.5625 339.070312 559.898438 C 369.496094 549.339844 373.121094 507.113281 347.582031 489.152344 C 331.1875 477.648438 307.695312 479.539062 288.304688 479.066406 C 242.742188 477.964844 197.183594 478.121094 151.777344 478.910156 C 143.578125 479.066406 143.578125 491.671875 151.777344 491.515625 Z M 151.777344 491.515625 " fill-opacity="1" fill-rule="nonzero"/><g clip-path="url(#2d1d231965)"><path fill="#6b99d2" d="M 334.8125 379.960938 C 423.414062 378.542969 512.171875 379.644531 600.773438 380.433594 L 663.359375 381.0625 C 682.59375 381.535156 707.816406 382.164062 715.070312 404.066406 C 730.203125 450.707031 655.320312 450.234375 662.414062 417.617188 C 664.148438 409.582031 652.007812 406.273438 650.273438 414.152344 C 642.867188 448.34375 687.953125 464.886719 712.546875 446.453125 C 726.421875 436.050781 733.042969 414.308594 726.421875 398.238281 C 719.800781 382.164062 702.929688 372.238281 684.328125 369.71875 C 665.726562 367.195312 644.597656 368.300781 625.050781 368.144531 L 490.257812 367.039062 C 438.390625 366.882812 386.523438 366.566406 334.8125 367.355469 C 326.613281 367.511719 326.613281 380.117188 334.8125 379.960938 Z M 334.8125 379.960938 " fill-opacity="1" fill-rule="nonzero"/></g></svg>