<svg xmlns="http://www.w3.org/2000/svg" xmlns:xlink="http://www.w3.org/1999/xlink" width="1024" zoomAndPan="magnify" viewBox="0 0 768 767.999994" height="1024" preserveAspectRatio="xMidYMid meet" version="1.0"><defs><clipPath id="701955992d"><path d="M 61 497 L 404 497 L 404 591.164062 L 61 591.164062 Z M 61 497 " clip-rule="nonzero"/></clipPath><clipPath id="2933c736d8"><path d="M 48 177.164062 L 392 177.164062 L 392 269 L 48 269 Z M 48 177.164062 " clip-rule="nonzero"/></clipPath></defs><path fill="#26477a" d="M 82.941406 358.742188 C 247.765625 361.195312 412.585938 360.050781 577.246094 357.597656 C 608.773438 357.105469 640.625 357.597656 671.335938 348.441406 C 702.046875 339.289062 722.792969 322.449219 728.019531 291.386719 C 732.265625 266.046875 722.300781 239.238281 699.433594 226.484375 C 681.792969 216.511719 657.613281 211.933594 638.175781 218.964844 C 610.40625 228.9375 605.503906 259.019531 607.464844 285.175781 C 607.957031 293.511719 621.023438 293.675781 620.535156 285.175781 C 618.738281 259.835938 623.636719 231.554688 653.695312 228.9375 C 670.03125 227.464844 689.957031 233.023438 702.046875 244.632812 C 733.246094 274.875 710.050781 320.8125 675.09375 333.566406 C 655.164062 340.59375 633.765625 343.210938 612.691406 343.867188 C 524.972656 346.480469 436.925781 346.316406 348.878906 346.644531 C 260.832031 346.972656 171.640625 346.972656 82.941406 345.664062 C 74.609375 345.664062 74.609375 358.742188 82.941406 358.742188 Z M 82.941406 358.742188 " fill-opacity="1" fill-rule="nonzero"/><path fill="#26477a" d="M 45.371094 410.074219 C 184.382812 408.113281 323.558594 408.769531 462.734375 410.402344 C 497.910156 410.730469 532.976562 411.21875 567.933594 411.875 C 597.992188 412.363281 634.582031 414.164062 658.757812 433.453125 C 686.203125 455.523438 685.875 508.980469 648.46875 520.097656 C 618.410156 529.089844 594.398438 513.234375 600.933594 480.535156 C 602.566406 472.363281 589.988281 468.765625 588.355469 477.101562 C 584.105469 498.519531 586.882812 520.753906 608.609375 530.886719 C 625.109375 538.570312 647.8125 536.9375 663.496094 528.109375 C 687.34375 515.03125 695.347656 484.460938 689.304688 459.285156 C 682.445312 430.835938 660.390625 415.308594 633.601562 407.296875 C 604.363281 398.632812 574.304688 398.796875 544.25 398.304688 C 481.195312 397.324219 418.304688 396.667969 355.25 396.34375 C 252.011719 395.527344 148.609375 395.527344 45.371094 396.996094 C 36.875 397.160156 36.875 410.238281 45.371094 410.074219 Z M 45.371094 410.074219 " fill-opacity="1" fill-rule="nonzero"/><path fill="#26477a" d="M 126.066406 458.628906 C 224.242188 457.320312 322.578125 458.300781 420.753906 459.445312 C 441.828125 459.609375 463.878906 458.464844 484.625 461.734375 C 496.875 463.535156 506.839844 466.640625 515.171875 476.121094 C 528.078125 490.671875 524.644531 513.234375 507.332031 523.859375 C 490.015625 534.484375 445.09375 529.253906 452.28125 501.296875 C 454.242188 493.125 441.664062 489.691406 439.539062 497.863281 C 430.230469 534.320312 477.601562 548.382812 505.042969 539.226562 C 542.453125 526.636719 545.882812 476.9375 513.210938 456.832031 C 492.300781 444.078125 463.714844 446.859375 440.03125 446.53125 C 398.375 446.042969 356.71875 445.550781 315.066406 445.386719 C 252.011719 444.898438 189.121094 444.734375 126.066406 445.550781 C 117.734375 445.714844 117.734375 458.792969 126.066406 458.628906 Z M 126.066406 458.628906 " fill-opacity="1" fill-rule="nonzero"/><g clip-path="url(#701955992d)"><path fill="#26477a" d="M 67.421875 511.597656 C 146.976562 510.289062 226.527344 511.269531 306.082031 512.25 C 323.070312 512.414062 341.527344 511.269531 358.355469 514.214844 C 383.347656 518.628906 401.480469 544.128906 382.691406 567.835938 C 368.972656 585.164062 328.785156 579.441406 334.503906 552.140625 C 336.136719 543.804688 323.558594 540.371094 321.925781 548.542969 C 313.59375 588.269531 369.625 605.601562 392.65625 576.664062 C 393.457031 575.695312 394.21875 574.699219 394.9375 573.671875 C 395.652344 572.640625 396.328125 571.585938 396.960938 570.5 C 397.589844 569.414062 398.175781 568.304688 398.714844 567.171875 C 399.253906 566.039062 399.746094 564.886719 400.191406 563.710938 C 400.636719 562.539062 401.03125 561.347656 401.378906 560.140625 C 401.722656 558.933594 402.019531 557.714844 402.265625 556.484375 C 402.511719 555.253906 402.707031 554.015625 402.851562 552.769531 C 402.992188 551.523438 403.085938 550.269531 403.125 549.015625 C 403.167969 547.761719 403.15625 546.507812 403.089844 545.253906 C 403.027344 544 402.914062 542.75 402.746094 541.507812 C 402.582031 540.261719 402.363281 539.027344 402.097656 537.800781 C 401.828125 536.574219 401.511719 535.363281 401.140625 534.160156 C 400.773438 532.960938 400.355469 531.777344 399.890625 530.613281 C 399.425781 529.449219 398.914062 528.304688 398.351562 527.179688 C 397.792969 526.058594 397.1875 524.960938 396.535156 523.886719 C 395.886719 522.8125 395.191406 521.769531 394.453125 520.753906 C 382.367188 503.585938 362.765625 500.480469 343 499.664062 C 251.359375 495.738281 158.902344 497.046875 67.421875 498.519531 C 58.929688 498.683594 58.929688 511.761719 67.421875 511.597656 Z M 67.421875 511.597656 " fill-opacity="1" fill-rule="nonzero"/></g><path fill="#26477a" d="M 111.039062 311.167969 C 212.96875 312.804688 315.066406 311.496094 416.996094 310.1875 C 440.683594 309.859375 466.65625 311.824219 489.035156 302.996094 C 525.625 288.609375 533.140625 234.824219 499.328125 212.261719 C 469.105469 192.152344 415.035156 211.773438 424.511719 252.96875 C 426.308594 261.144531 439.050781 257.710938 437.089844 249.535156 C 430.554688 221.417969 469.269531 210.792969 489.363281 221.582031 C 521.378906 238.910156 509.453125 283.539062 478.90625 292.53125 C 457.34375 299.070312 431.699219 296.945312 409.15625 297.273438 C 309.839844 298.582031 210.355469 299.726562 111.039062 298.089844 C 102.542969 297.925781 102.542969 311.003906 111.039062 311.167969 Z M 111.039062 311.167969 " fill-opacity="1" fill-rule="nonzero"/><g clip-path="url(#2933c736d8)"><path fill="#26477a" d="M 55.171875 266.867188 C 146.484375 268.335938 238.453125 268.828125 329.765625 265.722656 C 349.207031 265.066406 368.972656 262.777344 381.875 246.59375 C 394.78125 230.410156 394.945312 207.847656 381.222656 191.171875 C 358.679688 163.707031 301.671875 179.074219 310.164062 218.3125 C 311.960938 226.648438 324.539062 223.050781 322.742188 214.878906 C 317.515625 190.519531 354.921875 183.324219 369.296875 197.386719 C 392.332031 219.945312 371.585938 247.085938 346.753906 251.171875 C 329.605469 253.949219 310.816406 252.804688 293.503906 253.132812 C 213.949219 254.113281 134.5625 254.929688 55.171875 253.785156 C 46.675781 253.625 46.675781 266.703125 55.171875 266.867188 Z M 55.171875 266.867188 " fill-opacity="1" fill-rule="nonzero"/></g></svg>