<svg xmlns="http://www.w3.org/2000/svg" xmlns:xlink="http://www.w3.org/1999/xlink" width="1080" zoomAndPan="magnify" viewBox="0 0 810 1439.999935" height="1920" preserveAspectRatio="xMidYMid meet" version="1.0"><defs><clipPath id="b490389b05"><path d="M 342 828 L 348 828 L 348 865.644531 L 342 865.644531 Z M 342 828 " clip-rule="nonzero"/></clipPath><clipPath id="17834d3c55"><path d="M 493 828 L 500 828 L 500 865.644531 L 493 865.644531 Z M 493 828 " clip-rule="nonzero"/></clipPath><clipPath id="7814435e9c"><path d="M 243 574.644531 L 512 574.644531 L 512 735 L 243 735 Z M 243 574.644531 " clip-rule="nonzero"/></clipPath><clipPath id="d157ba9f59"><path d="M 379 712 L 567 712 L 567 754 L 379 754 Z M 379 712 " clip-rule="nonzero"/></clipPath></defs><path fill="#6b99d2" d="M 433.648438 785.984375 L 437.351562 785.984375 C 437.496094 785.984375 437.640625 786.011719 437.773438 786.066406 C 437.910156 786.125 438.03125 786.207031 438.136719 786.308594 C 438.238281 786.414062 438.320312 786.535156 438.375 786.667969 C 438.433594 786.804688 438.460938 786.949219 438.460938 787.09375 L 438.460938 828.363281 C 438.460938 828.511719 438.433594 828.652344 438.375 828.789062 C 438.320312 828.925781 438.238281 829.042969 438.136719 829.148438 C 438.03125 829.253906 437.910156 829.332031 437.773438 829.390625 C 437.640625 829.445312 437.496094 829.472656 437.351562 829.472656 L 433.648438 829.472656 C 433.5 829.472656 433.359375 829.445312 433.222656 829.390625 C 433.085938 829.332031 432.96875 829.253906 432.863281 829.148438 C 432.757812 829.042969 432.679688 828.925781 432.621094 828.789062 C 432.566406 828.652344 432.539062 828.511719 432.539062 828.363281 L 432.539062 787.09375 C 432.539062 786.949219 432.566406 786.804688 432.621094 786.667969 C 432.679688 786.535156 432.757812 786.414062 432.863281 786.308594 C 432.96875 786.207031 433.085938 786.125 433.222656 786.070312 C 433.359375 786.011719 433.5 785.984375 433.648438 785.984375 Z M 433.648438 785.984375 " fill-opacity="1" fill-rule="nonzero"/><path fill="#6b99d2" d="M 457.261719 805.917969 L 457.261719 809.621094 C 457.261719 809.769531 457.234375 809.910156 457.179688 810.046875 C 457.121094 810.183594 457.042969 810.304688 456.9375 810.410156 C 456.835938 810.511719 456.714844 810.59375 456.578125 810.648438 C 456.441406 810.707031 456.300781 810.734375 456.152344 810.734375 L 414.925781 810.734375 C 414.78125 810.734375 414.636719 810.707031 414.503906 810.648438 C 414.367188 810.59375 414.246094 810.511719 414.140625 810.410156 C 414.039062 810.304688 413.957031 810.183594 413.902344 810.046875 C 413.84375 809.910156 413.816406 809.769531 413.816406 809.621094 L 413.816406 805.917969 C 413.816406 805.769531 413.84375 805.628906 413.902344 805.492188 C 413.957031 805.355469 414.039062 805.234375 414.140625 805.132812 C 414.246094 805.027344 414.367188 804.945312 414.503906 804.890625 C 414.636719 804.832031 414.78125 804.804688 414.925781 804.804688 L 456.152344 804.804688 C 456.300781 804.804688 456.441406 804.832031 456.578125 804.890625 C 456.714844 804.945312 456.835938 805.027344 456.9375 805.132812 C 457.042969 805.234375 457.121094 805.355469 457.179688 805.492188 C 457.234375 805.628906 457.261719 805.769531 457.261719 805.917969 Z M 457.261719 805.917969 " fill-opacity="1" fill-rule="nonzero"/><path fill="#6b99d2" d="M 449.570312 791.011719 L 452.1875 793.632812 C 452.292969 793.738281 452.371094 793.859375 452.429688 793.992188 C 452.484375 794.128906 452.511719 794.273438 452.511719 794.417969 C 452.511719 794.566406 452.484375 794.707031 452.429688 794.84375 C 452.371094 794.980469 452.292969 795.101562 452.1875 795.207031 L 423.039062 824.386719 C 422.933594 824.488281 422.8125 824.570312 422.675781 824.625 C 422.539062 824.683594 422.398438 824.710938 422.253906 824.710938 C 422.105469 824.710938 421.964844 824.683594 421.828125 824.625 C 421.691406 824.570312 421.570312 824.488281 421.464844 824.386719 L 418.847656 821.765625 C 418.746094 821.660156 418.664062 821.542969 418.609375 821.40625 C 418.550781 821.269531 418.523438 821.128906 418.523438 820.980469 C 418.523438 820.832031 418.550781 820.691406 418.609375 820.554688 C 418.664062 820.417969 418.746094 820.296875 418.847656 820.195312 L 448 791.011719 C 448.105469 790.910156 448.226562 790.828125 448.359375 790.773438 C 448.496094 790.714844 448.640625 790.6875 448.785156 790.6875 C 448.933594 790.6875 449.074219 790.714844 449.210938 790.773438 C 449.347656 790.828125 449.46875 790.910156 449.570312 791.011719 Z M 449.570312 791.011719 " fill-opacity="1" fill-rule="nonzero"/><path fill="#6b99d2" d="M 452.164062 821.78125 L 449.546875 824.402344 C 449.441406 824.503906 449.324219 824.585938 449.1875 824.640625 C 449.050781 824.699219 448.910156 824.726562 448.761719 824.726562 C 448.613281 824.726562 448.472656 824.699219 448.335938 824.640625 C 448.199219 824.585938 448.082031 824.503906 447.976562 824.402344 L 418.824219 795.21875 C 418.722656 795.117188 418.640625 794.996094 418.585938 794.859375 C 418.527344 794.722656 418.5 794.582031 418.5 794.433594 C 418.5 794.285156 418.527344 794.144531 418.585938 794.007812 C 418.640625 793.871094 418.722656 793.753906 418.824219 793.648438 L 421.441406 791.027344 C 421.546875 790.925781 421.667969 790.84375 421.804688 790.789062 C 421.9375 790.730469 422.082031 790.703125 422.226562 790.703125 C 422.375 790.703125 422.515625 790.730469 422.652344 790.789062 C 422.789062 790.84375 422.910156 790.925781 423.011719 791.027344 L 452.164062 820.207031 C 452.269531 820.3125 452.347656 820.433594 452.40625 820.570312 C 452.460938 820.707031 452.488281 820.847656 452.488281 820.996094 C 452.488281 821.140625 452.460938 821.285156 452.40625 821.421875 C 452.347656 821.554688 452.269531 821.675781 452.164062 821.78125 Z M 452.164062 821.78125 " fill-opacity="1" fill-rule="nonzero"/><path fill="#6b99d2" d="M 282.484375 787.613281 L 285.371094 787.613281 C 285.597656 787.613281 285.789062 787.695312 285.945312 787.851562 C 286.105469 788.011719 286.183594 788.203125 286.183594 788.429688 L 286.183594 819.730469 C 286.183594 819.953125 286.105469 820.148438 285.945312 820.304688 C 285.789062 820.464844 285.597656 820.546875 285.371094 820.546875 L 282.484375 820.546875 C 282.257812 820.546875 282.066406 820.464844 281.910156 820.304688 C 281.75 820.148438 281.667969 819.953125 281.667969 819.730469 L 281.667969 788.429688 C 281.667969 788.203125 281.75 788.011719 281.910156 787.851562 C 282.066406 787.695312 282.257812 787.613281 282.484375 787.613281 Z M 282.484375 787.613281 " fill-opacity="1" fill-rule="nonzero"/><path fill="#6b99d2" d="M 300.324219 802.65625 L 300.324219 805.546875 C 300.324219 805.773438 300.246094 805.964844 300.085938 806.125 C 299.925781 806.28125 299.734375 806.363281 299.511719 806.363281 L 268.242188 806.363281 C 268.015625 806.363281 267.824219 806.28125 267.664062 806.125 C 267.507812 805.964844 267.425781 805.773438 267.425781 805.546875 L 267.425781 802.65625 C 267.425781 802.433594 267.507812 802.238281 267.664062 802.082031 C 267.824219 801.921875 268.015625 801.839844 268.242188 801.839844 L 299.511719 801.839844 C 299.734375 801.839844 299.925781 801.921875 300.085938 802.082031 C 300.246094 802.238281 300.324219 802.433594 300.324219 802.65625 Z M 300.324219 802.65625 " fill-opacity="1" fill-rule="nonzero"/><path fill="#6b99d2" d="M 294.523438 791.433594 L 296.5625 793.476562 C 296.722656 793.632812 296.800781 793.828125 296.800781 794.050781 C 296.800781 794.277344 296.722656 794.46875 296.5625 794.628906 L 274.453125 816.761719 C 274.292969 816.921875 274.101562 817 273.875 817 C 273.652344 817 273.460938 816.921875 273.300781 816.761719 L 271.257812 814.71875 C 271.101562 814.558594 271.019531 814.367188 271.019531 814.140625 C 271.019531 813.917969 271.101562 813.722656 271.257812 813.566406 L 293.371094 791.433594 C 293.527344 791.273438 293.722656 791.191406 293.945312 791.191406 C 294.171875 791.191406 294.363281 791.273438 294.523438 791.433594 Z M 294.523438 791.433594 " fill-opacity="1" fill-rule="nonzero"/><path fill="#6b99d2" d="M 296.511719 814.707031 L 294.46875 816.75 C 294.3125 816.910156 294.117188 816.988281 293.894531 816.988281 C 293.667969 816.988281 293.476562 816.910156 293.316406 816.75 L 271.207031 794.617188 C 271.046875 794.457031 270.96875 794.265625 270.96875 794.039062 C 270.96875 793.816406 271.046875 793.625 271.207031 793.464844 L 273.25 791.421875 C 273.40625 791.261719 273.601562 791.183594 273.824219 791.183594 C 274.050781 791.183594 274.242188 791.261719 274.402344 791.421875 L 296.511719 813.554688 C 296.671875 813.714844 296.75 813.90625 296.75 814.128906 C 296.75 814.355469 296.671875 814.546875 296.511719 814.707031 Z M 296.511719 814.707031 " fill-opacity="1" fill-rule="nonzero"/><g clip-path="url(#b490389b05)"><path fill="#26477a" d="M 343.039062 828.074219 L 346.222656 828.074219 C 346.488281 828.074219 346.714844 828.167969 346.902344 828.355469 C 347.089844 828.542969 347.183594 828.769531 347.183594 829.039062 L 347.183594 864.671875 C 347.183594 864.9375 347.089844 865.167969 346.902344 865.355469 C 346.714844 865.542969 346.488281 865.636719 346.222656 865.636719 L 343.039062 865.636719 C 342.773438 865.636719 342.546875 865.542969 342.359375 865.355469 C 342.171875 865.167969 342.078125 864.9375 342.078125 864.671875 L 342.078125 829.039062 C 342.078125 828.769531 342.171875 828.542969 342.359375 828.355469 C 342.546875 828.167969 342.773438 828.074219 343.039062 828.074219 Z M 343.039062 828.074219 " fill-opacity="1" fill-rule="nonzero"/></g><path fill="#26477a" d="M 363.394531 845.265625 L 363.394531 848.453125 C 363.394531 848.71875 363.300781 848.945312 363.113281 849.132812 C 362.925781 849.320312 362.699219 849.414062 362.433594 849.414062 L 326.835938 849.414062 C 326.566406 849.414062 326.339844 849.320312 326.152344 849.132812 C 325.964844 848.945312 325.871094 848.71875 325.871094 848.453125 L 325.871094 845.265625 C 325.871094 845 325.964844 844.773438 326.152344 844.585938 C 326.339844 844.394531 326.566406 844.300781 326.835938 844.300781 L 362.433594 844.300781 C 362.699219 844.300781 362.925781 844.394531 363.113281 844.585938 C 363.300781 844.773438 363.394531 845 363.394531 845.265625 Z M 363.394531 845.265625 " fill-opacity="1" fill-rule="nonzero"/><path fill="#26477a" d="M 356.753906 832.394531 L 359.003906 834.648438 C 359.191406 834.835938 359.285156 835.0625 359.285156 835.328125 C 359.285156 835.59375 359.191406 835.820312 359.003906 836.011719 L 333.828125 861.207031 C 333.640625 861.394531 333.414062 861.492188 333.148438 861.492188 C 332.882812 861.492188 332.65625 861.394531 332.46875 861.207031 L 330.21875 858.957031 C 330.03125 858.765625 329.9375 858.539062 329.9375 858.273438 C 329.9375 858.007812 330.03125 857.78125 330.21875 857.59375 L 355.390625 832.394531 C 355.578125 832.207031 355.804688 832.113281 356.070312 832.113281 C 356.335938 832.113281 356.5625 832.207031 356.753906 832.394531 Z M 356.753906 832.394531 " fill-opacity="1" fill-rule="nonzero"/><path fill="#26477a" d="M 359.003906 858.992188 L 356.753906 861.246094 C 356.566406 861.433594 356.339844 861.527344 356.074219 861.527344 C 355.808594 861.527344 355.582031 861.433594 355.394531 861.246094 L 330.222656 836.046875 C 330.03125 835.859375 329.9375 835.632812 329.9375 835.367188 C 329.9375 835.101562 330.03125 834.875 330.222656 834.683594 L 332.472656 832.433594 C 332.660156 832.242188 332.886719 832.148438 333.152344 832.148438 C 333.417969 832.148438 333.644531 832.242188 333.832031 832.433594 L 359.003906 857.628906 C 359.195312 857.816406 359.289062 858.046875 359.289062 858.3125 C 359.289062 858.578125 359.195312 858.804688 359.003906 858.992188 Z M 359.003906 858.992188 " fill-opacity="1" fill-rule="nonzero"/><g clip-path="url(#17834d3c55)"><path fill="#26477a" d="M 494.871094 828.074219 L 498.054688 828.074219 C 498.320312 828.074219 498.546875 828.167969 498.734375 828.355469 C 498.921875 828.542969 499.015625 828.769531 499.015625 829.039062 L 499.015625 864.671875 C 499.015625 864.9375 498.921875 865.167969 498.734375 865.355469 C 498.546875 865.542969 498.320312 865.636719 498.054688 865.636719 L 494.871094 865.636719 C 494.605469 865.636719 494.378906 865.542969 494.1875 865.355469 C 494 865.167969 493.90625 864.9375 493.90625 864.671875 L 493.90625 829.039062 C 493.90625 828.769531 494 828.542969 494.1875 828.355469 C 494.378906 828.167969 494.605469 828.074219 494.871094 828.074219 Z M 494.871094 828.074219 " fill-opacity="1" fill-rule="nonzero"/></g><path fill="#26477a" d="M 515.226562 845.265625 L 515.226562 848.453125 C 515.226562 848.71875 515.132812 848.945312 514.945312 849.132812 C 514.757812 849.320312 514.53125 849.414062 514.265625 849.414062 L 478.664062 849.414062 C 478.398438 849.414062 478.171875 849.320312 477.984375 849.132812 C 477.796875 848.945312 477.703125 848.71875 477.703125 848.453125 L 477.703125 845.265625 C 477.703125 845 477.796875 844.773438 477.984375 844.585938 C 478.171875 844.394531 478.398438 844.300781 478.664062 844.300781 L 514.265625 844.300781 C 514.53125 844.300781 514.757812 844.394531 514.945312 844.585938 C 515.132812 844.773438 515.226562 845 515.226562 845.265625 Z M 515.226562 845.265625 " fill-opacity="1" fill-rule="nonzero"/><path fill="#26477a" d="M 508.65625 832.46875 L 510.90625 834.722656 C 511.09375 834.910156 511.1875 835.136719 511.1875 835.402344 C 511.1875 835.667969 511.09375 835.894531 510.90625 836.082031 L 485.734375 861.28125 C 485.546875 861.46875 485.320312 861.5625 485.054688 861.5625 C 484.789062 861.5625 484.558594 861.46875 484.371094 861.28125 L 482.121094 859.027344 C 481.933594 858.839844 481.839844 858.613281 481.839844 858.347656 C 481.839844 858.082031 481.933594 857.855469 482.121094 857.664062 L 507.292969 832.46875 C 507.484375 832.28125 507.710938 832.183594 507.976562 832.183594 C 508.242188 832.183594 508.46875 832.28125 508.65625 832.46875 Z M 508.65625 832.46875 " fill-opacity="1" fill-rule="nonzero"/><path fill="#26477a" d="M 510.914062 859.066406 L 508.660156 861.316406 C 508.472656 861.503906 508.246094 861.601562 507.980469 861.601562 C 507.714844 861.601562 507.488281 861.503906 507.300781 861.316406 L 482.128906 836.121094 C 481.941406 835.929688 481.847656 835.703125 481.847656 835.4375 C 481.847656 835.171875 481.941406 834.945312 482.128906 834.757812 L 484.378906 832.503906 C 484.566406 832.316406 484.792969 832.222656 485.058594 832.222656 C 485.324219 832.222656 485.550781 832.316406 485.738281 832.503906 L 510.914062 857.703125 C 511.101562 857.890625 511.195312 858.117188 511.195312 858.382812 C 511.195312 858.648438 511.101562 858.875 510.914062 859.066406 Z M 510.914062 859.066406 " fill-opacity="1" fill-rule="nonzero"/><path fill="#b4e3fb" d="M 411.441406 854.230469 C 411.441406 854.753906 411.339844 855.253906 411.140625 855.734375 C 410.941406 856.214844 410.660156 856.640625 410.292969 857.007812 C 409.921875 857.378906 409.5 857.660156 409.019531 857.859375 C 408.539062 858.058594 408.039062 858.160156 407.515625 858.160156 C 406.996094 858.160156 406.496094 858.058594 406.015625 857.859375 C 405.535156 857.660156 405.109375 857.378906 404.742188 857.007812 C 404.375 856.640625 404.089844 856.214844 403.890625 855.734375 C 403.691406 855.253906 403.59375 854.753906 403.59375 854.230469 C 403.59375 853.710938 403.691406 853.210938 403.890625 852.730469 C 404.089844 852.246094 404.375 851.824219 404.742188 851.453125 C 405.109375 851.085938 405.535156 850.804688 406.015625 850.605469 C 406.496094 850.402344 406.996094 850.304688 407.515625 850.304688 C 408.039062 850.304688 408.539062 850.402344 409.019531 850.605469 C 409.5 850.804688 409.921875 851.085938 410.292969 851.453125 C 410.660156 851.824219 410.941406 852.246094 411.140625 852.730469 C 411.339844 853.210938 411.441406 853.710938 411.441406 854.230469 Z M 411.441406 854.230469 " fill-opacity="1" fill-rule="nonzero"/><path fill="#b4e3fb" d="M 535.363281 805.398438 C 535.363281 805.917969 535.261719 806.421875 535.0625 806.902344 C 534.863281 807.382812 534.582031 807.808594 534.214844 808.175781 C 533.847656 808.542969 533.421875 808.828125 532.941406 809.027344 C 532.460938 809.226562 531.960938 809.324219 531.4375 809.324219 C 530.917969 809.324219 530.417969 809.226562 529.9375 809.027344 C 529.457031 808.828125 529.03125 808.542969 528.664062 808.175781 C 528.296875 807.808594 528.015625 807.382812 527.816406 806.902344 C 527.617188 806.421875 527.515625 805.917969 527.515625 805.398438 C 527.515625 804.878906 527.617188 804.375 527.816406 803.894531 C 528.011719 803.414062 528.296875 802.988281 528.664062 802.621094 C 529.03125 802.253906 529.457031 801.96875 529.9375 801.769531 C 530.417969 801.570312 530.917969 801.472656 531.4375 801.472656 C 531.960938 801.472656 532.460938 801.570312 532.941406 801.769531 C 533.421875 801.96875 533.847656 802.253906 534.214844 802.621094 C 534.582031 802.988281 534.863281 803.414062 535.0625 803.894531 C 535.261719 804.375 535.363281 804.878906 535.363281 805.398438 Z M 535.363281 805.398438 " fill-opacity="1" fill-rule="nonzero"/><path fill="#b4e3fb" d="M 276.5625 850.230469 C 276.5625 850.75 276.460938 851.253906 276.261719 851.734375 C 276.0625 852.214844 275.78125 852.640625 275.414062 853.007812 C 275.042969 853.375 274.621094 853.660156 274.140625 853.859375 C 273.660156 854.058594 273.160156 854.15625 272.636719 854.15625 C 272.117188 854.15625 271.617188 854.058594 271.136719 853.859375 C 270.65625 853.660156 270.230469 853.375 269.863281 853.007812 C 269.496094 852.640625 269.210938 852.214844 269.011719 851.734375 C 268.8125 851.253906 268.714844 850.75 268.714844 850.230469 C 268.714844 849.710938 268.8125 849.207031 269.011719 848.726562 C 269.210938 848.246094 269.496094 847.820312 269.863281 847.453125 C 270.230469 847.085938 270.65625 846.800781 271.136719 846.601562 C 271.617188 846.402344 272.117188 846.304688 272.636719 846.304688 C 273.160156 846.304688 273.660156 846.402344 274.140625 846.601562 C 274.621094 846.800781 275.042969 847.085938 275.414062 847.453125 C 275.78125 847.820312 276.0625 848.246094 276.261719 848.726562 C 276.460938 849.207031 276.5625 849.710938 276.5625 850.230469 Z M 276.5625 850.230469 " fill-opacity="1" fill-rule="nonzero"/><g clip-path="url(#7814435e9c)"><path fill="#26477a" d="M 477.027344 664.902344 L 475.992188 664.902344 C 477.222656 660.742188 477.839844 656.492188 477.84375 652.15625 C 477.84375 650.734375 477.773438 649.3125 477.632812 647.898438 C 477.496094 646.484375 477.285156 645.078125 477.007812 643.683594 C 476.734375 642.289062 476.386719 640.910156 475.976562 639.550781 C 475.5625 638.1875 475.085938 636.851562 474.542969 635.539062 C 473.996094 634.222656 473.390625 632.9375 472.722656 631.683594 C 472.050781 630.429688 471.320312 629.210938 470.53125 628.03125 C 469.742188 626.847656 468.898438 625.707031 467.996094 624.605469 C 467.09375 623.507812 466.140625 622.457031 465.136719 621.449219 C 464.132812 620.445312 463.082031 619.488281 461.984375 618.585938 C 460.886719 617.683594 459.746094 616.839844 458.5625 616.050781 C 457.382812 615.257812 456.164062 614.527344 454.914062 613.859375 C 453.660156 613.1875 452.375 612.582031 451.0625 612.035156 C 449.75 611.492188 448.414062 611.011719 447.054688 610.601562 C 445.695312 610.1875 444.320312 609.84375 442.925781 609.566406 C 441.53125 609.289062 440.128906 609.078125 438.714844 608.941406 C 437.300781 608.800781 435.882812 608.730469 434.464844 608.730469 C 431.953125 608.71875 429.460938 608.929688 426.988281 609.359375 C 424.511719 609.785156 422.097656 610.425781 419.734375 611.277344 C 417.375 612.132812 415.105469 613.183594 412.929688 614.4375 C 410.753906 615.6875 408.703125 617.121094 406.777344 618.734375 C 406.414062 617.054688 405.976562 615.394531 405.464844 613.753906 C 404.949219 612.113281 404.363281 610.5 403.699219 608.914062 C 403.039062 607.328125 402.308594 605.777344 401.503906 604.257812 C 400.699219 602.742188 399.828125 601.261719 398.886719 599.824219 C 397.949219 598.382812 396.945312 596.992188 395.878906 595.644531 C 394.808594 594.300781 393.683594 593.003906 392.496094 591.761719 C 391.3125 590.519531 390.070312 589.332031 388.777344 588.203125 C 387.480469 587.074219 386.140625 586.007812 384.746094 585.003906 C 383.355469 583.996094 381.917969 583.058594 380.441406 582.183594 C 378.960938 581.3125 377.445312 580.507812 375.894531 579.773438 C 374.339844 579.039062 372.757812 578.378906 371.144531 577.789062 C 369.53125 577.199219 367.894531 576.6875 366.234375 576.25 C 364.574219 575.808594 362.898438 575.449219 361.203125 575.164062 C 359.511719 574.878906 357.808594 574.671875 356.097656 574.546875 C 354.382812 574.417969 352.671875 574.367188 350.953125 574.398438 C 349.238281 574.429688 347.523438 574.535156 345.820312 574.722656 C 344.113281 574.910156 342.417969 575.175781 340.734375 575.515625 C 339.050781 575.859375 337.390625 576.277344 335.746094 576.773438 C 334.101562 577.269531 332.484375 577.839844 330.890625 578.484375 C 329.300781 579.128906 327.742188 579.84375 326.214844 580.632812 C 324.6875 581.417969 323.199219 582.273438 321.753906 583.199219 C 320.304688 584.121094 318.902344 585.109375 317.546875 586.164062 C 316.1875 587.214844 314.882812 588.328125 313.628906 589.503906 C 312.375 590.675781 311.175781 591.902344 310.03125 593.1875 C 308.890625 594.46875 307.808594 595.800781 306.789062 597.183594 C 305.769531 598.566406 304.8125 599.992188 303.921875 601.460938 C 303.035156 602.933594 302.214844 604.441406 301.464844 605.984375 C 300.710938 607.53125 300.03125 609.109375 299.425781 610.714844 C 298.820312 612.324219 298.289062 613.957031 297.832031 615.613281 C 297.375 617.269531 296.996094 618.945312 296.691406 620.636719 C 296.386719 622.328125 296.164062 624.027344 296.015625 625.742188 C 295.867188 627.453125 295.800781 629.167969 295.808594 630.886719 C 295.78125 634.503906 296.125 638.085938 296.84375 641.632812 C 294.515625 641.273438 292.171875 641.097656 289.8125 641.113281 C 288.53125 641.113281 287.25 641.167969 285.96875 641.277344 C 284.691406 641.382812 283.417969 641.542969 282.152344 641.753906 C 280.886719 641.96875 279.632812 642.230469 278.386719 642.546875 C 277.144531 642.859375 275.914062 643.226562 274.699219 643.644531 C 273.488281 644.058594 272.292969 644.527344 271.117188 645.039062 C 269.941406 645.554688 268.789062 646.117188 267.660156 646.726562 C 266.527344 647.335938 265.425781 647.992188 264.351562 648.695312 C 263.273438 649.394531 262.230469 650.136719 261.214844 650.925781 C 260.203125 651.710938 259.222656 652.539062 258.273438 653.40625 C 257.328125 654.273438 256.417969 655.179688 255.546875 656.121094 C 254.675781 657.0625 253.84375 658.039062 253.050781 659.050781 C 252.257812 660.0625 251.511719 661.105469 250.804688 662.175781 C 250.097656 663.25 249.4375 664.347656 248.820312 665.476562 C 248.207031 666.601562 247.636719 667.753906 247.117188 668.925781 C 246.59375 670.101562 246.121094 671.292969 245.699219 672.507812 C 245.277344 673.71875 244.902344 674.949219 244.582031 676.191406 C 244.257812 677.433594 243.988281 678.691406 243.769531 679.957031 C 243.550781 681.222656 243.382812 682.492188 243.269531 683.773438 C 243.15625 685.054688 243.09375 686.335938 243.085938 687.621094 C 243.074219 688.902344 243.121094 690.1875 243.214844 691.46875 C 243.3125 692.75 243.460938 694.023438 243.664062 695.292969 C 243.863281 696.5625 244.117188 697.820312 244.421875 699.066406 C 244.726562 700.316406 245.082031 701.546875 245.488281 702.765625 C 245.894531 703.984375 246.351562 705.183594 246.855469 706.367188 C 247.359375 707.546875 247.910156 708.707031 248.511719 709.839844 C 249.113281 710.976562 249.757812 712.085938 250.449219 713.167969 C 251.140625 714.25 251.875 715.304688 252.652344 716.324219 C 253.429688 717.347656 254.246094 718.335938 255.105469 719.289062 C 255.964844 720.242188 256.863281 721.160156 257.796875 722.042969 C 258.730469 722.921875 259.699219 723.761719 260.703125 724.5625 C 261.707031 725.363281 262.742188 726.125 263.804688 726.839844 C 264.871094 727.554688 265.964844 728.226562 267.085938 728.851562 C 269.9375 730.789062 273.007812 732.261719 276.300781 733.273438 C 279.59375 734.285156 282.964844 734.785156 286.40625 734.777344 L 477.027344 734.777344 C 478.171875 734.777344 479.308594 734.71875 480.445312 734.605469 C 481.578125 734.488281 482.707031 734.320312 483.824219 734.097656 C 484.945312 733.871094 486.050781 733.59375 487.140625 733.257812 C 488.234375 732.925781 489.304688 732.539062 490.359375 732.101562 C 491.414062 731.664062 492.445312 731.175781 493.449219 730.636719 C 494.457031 730.097656 495.433594 729.507812 496.382812 728.875 C 497.332031 728.238281 498.246094 727.558594 499.128906 726.832031 C 500.011719 726.109375 500.855469 725.34375 501.664062 724.535156 C 502.46875 723.726562 503.234375 722.882812 503.960938 722 C 504.683594 721.117188 505.363281 720.199219 505.996094 719.25 C 506.632812 718.300781 507.21875 717.320312 507.757812 716.316406 C 508.296875 715.308594 508.785156 714.277344 509.222656 713.222656 C 509.660156 712.167969 510.046875 711.09375 510.378906 710 C 510.710938 708.90625 510.988281 707.800781 511.214844 706.679688 C 511.4375 705.5625 511.609375 704.433594 511.722656 703.296875 C 511.835938 702.160156 511.894531 701.019531 511.894531 699.875 C 511.894531 698.734375 511.835938 697.59375 511.722656 696.457031 C 511.609375 695.316406 511.4375 694.1875 511.214844 693.066406 C 510.988281 691.945312 510.710938 690.839844 510.378906 689.746094 C 510.046875 688.652344 509.660156 687.578125 509.222656 686.519531 C 508.785156 685.464844 508.296875 684.433594 507.757812 683.425781 C 507.222656 682.414062 506.632812 681.4375 506 680.484375 C 505.367188 679.535156 504.6875 678.617188 503.960938 677.734375 C 503.238281 676.847656 502.472656 676 501.667969 675.191406 C 500.859375 674.382812 500.015625 673.617188 499.132812 672.890625 C 498.25 672.160156 497.335938 671.480469 496.386719 670.84375 C 495.441406 670.207031 494.460938 669.617188 493.457031 669.074219 C 492.449219 668.535156 491.421875 668.042969 490.367188 667.605469 C 489.3125 667.164062 488.238281 666.777344 487.148438 666.441406 C 486.054688 666.105469 484.949219 665.824219 483.828125 665.597656 C 482.710938 665.371094 481.582031 665.199219 480.445312 665.082031 C 479.308594 664.964844 478.171875 664.90625 477.027344 664.902344 Z M 477.027344 664.902344 " fill-opacity="1" fill-rule="nonzero"/></g><path fill="#6b99d2" d="M 359.84375 752.636719 C 395.894531 752.042969 431.945312 752.414062 467.996094 752.933594 C 475.695312 753.007812 484.0625 752.488281 491.6875 753.824219 C 503.011719 755.75 511.230469 767.382812 502.789062 778.054688 C 496.574219 785.910156 478.289062 783.316406 480.878906 770.941406 C 481.691406 767.234375 475.917969 765.679688 475.179688 769.386719 C 471.476562 787.316406 496.792969 795.246094 507.304688 782.054688 C 508.03125 781.175781 508.675781 780.242188 509.246094 779.257812 C 509.816406 778.269531 510.300781 777.242188 510.703125 776.175781 C 511.101562 775.109375 511.414062 774.015625 511.632812 772.898438 C 511.851562 771.78125 511.980469 770.652344 512.011719 769.511719 C 512.046875 768.371094 511.984375 767.238281 511.832031 766.109375 C 511.675781 764.980469 511.433594 763.871094 511.09375 762.78125 C 510.757812 761.695312 510.332031 760.640625 509.820312 759.621094 C 509.308594 758.601562 508.71875 757.632812 508.046875 756.714844 C 502.570312 749.007812 493.683594 747.597656 484.726562 747.226562 C 443.199219 745.449219 401.371094 745.96875 359.84375 746.636719 C 356.066406 746.710938 355.992188 752.636719 359.84375 752.636719 Z M 359.84375 752.636719 " fill-opacity="1" fill-rule="nonzero"/><path fill="#6b99d2" d="M 367.765625 672.164062 C 389.304688 672.53125 410.847656 672.679688 432.390625 672.015625 C 442.015625 671.71875 454.082031 672.605469 461.261719 665.121094 C 470.957031 655.042969 470.292969 634.890625 456.152344 628.886719 C 442.015625 622.882812 428.320312 633.777344 431.058594 648.003906 C 431.796875 651.710938 437.5 650.152344 436.757812 646.375 C 435.203125 638.296875 442.308594 632.664062 450.007812 633.40625 C 460.296875 634.371094 464.445312 647.414062 460.59375 655.859375 C 456.226562 665.417969 446.011719 665.640625 436.832031 665.9375 C 413.808594 666.679688 390.785156 666.679688 367.765625 666.234375 C 363.914062 666.160156 363.914062 672.089844 367.765625 672.164062 Z M 367.765625 672.164062 " fill-opacity="1" fill-rule="nonzero"/><path fill="#6b99d2" d="M 474.660156 695.429688 C 490.722656 695.726562 525.441406 702.320312 535.511719 685.351562 C 541.359375 675.421875 537.066406 659.492188 524.777344 657.195312 C 513.671875 655.117188 504.269531 663.714844 506.269531 674.832031 C 506.9375 678.535156 512.636719 676.980469 511.96875 673.199219 C 509.007812 656.898438 540.542969 662.085938 530.847656 681.574219 C 526.851562 689.726562 517.746094 689.945312 509.898438 690.242188 C 498.199219 690.761719 486.28125 689.726562 474.660156 689.503906 C 470.8125 689.429688 470.8125 695.355469 474.660156 695.429688 Z M 474.660156 695.429688 " fill-opacity="1" fill-rule="nonzero"/><path fill="#6b99d2" d="M 295.957031 770.792969 C 318.757812 770.445312 341.609375 770.519531 364.507812 771.015625 C 371.613281 771.164062 380.347656 770.71875 385.828125 775.832031 C 393.15625 782.648438 390.34375 795.320312 380.570312 797.765625 C 373.910156 799.394531 363.101562 796.0625 364.949219 787.464844 C 365.765625 783.761719 360.066406 782.128906 359.25 785.910156 C 356.214844 799.839844 372.28125 807.027344 383.902344 802.953125 C 398.1875 797.988281 399.890625 778.128906 387.898438 769.679688 C 380.199219 764.273438 369.171875 765.160156 360.066406 764.9375 C 338.671875 764.421875 317.277344 764.492188 295.957031 764.863281 C 292.109375 764.9375 292.109375 770.867188 295.957031 770.792969 Z M 295.957031 770.792969 " fill-opacity="1" fill-rule="nonzero"/><g clip-path="url(#d157ba9f59)"><path fill="#6b99d2" d="M 381.902344 718.328125 C 423.507812 717.660156 465.183594 718.179688 506.789062 718.550781 L 536.175781 718.847656 C 545.207031 719.070312 557.054688 719.367188 560.457031 729.664062 C 567.566406 751.601562 532.402344 751.378906 535.734375 736.039062 C 536.546875 732.257812 530.847656 730.703125 530.03125 734.410156 C 526.554688 750.488281 547.726562 758.269531 559.273438 749.597656 C 565.789062 744.707031 568.898438 734.484375 565.789062 726.925781 C 562.679688 719.367188 554.757812 714.699219 546.023438 713.511719 C 537.289062 712.324219 527.367188 712.84375 518.1875 712.769531 L 454.894531 712.25 C 430.539062 712.179688 406.183594 712.03125 381.902344 712.398438 C 378.054688 712.472656 378.054688 718.402344 381.902344 718.328125 Z M 381.902344 718.328125 " fill-opacity="1" fill-rule="nonzero"/></g></svg>