<svg xmlns="http://www.w3.org/2000/svg" xmlns:xlink="http://www.w3.org/1999/xlink" width="1024" zoomAndPan="magnify" viewBox="0 0 768 767.999994" height="1024" preserveAspectRatio="xMidYMid meet" version="1.0"><defs><clipPath id="1ce2f25ccf"><path d="M 39 39 L 729 39 L 729 450 L 39 450 Z M 39 39 " clip-rule="nonzero"/></clipPath></defs><path fill="#6b99d2" d="M 205.15625 497.527344 L 213.339844 497.527344 C 213.667969 497.527344 213.980469 497.589844 214.28125 497.714844 C 214.582031 497.839844 214.847656 498.015625 215.078125 498.246094 C 215.308594 498.476562 215.484375 498.742188 215.609375 499.042969 C 215.734375 499.34375 215.796875 499.65625 215.796875 499.980469 L 215.796875 591.148438 C 215.796875 591.472656 215.734375 591.785156 215.609375 592.085938 C 215.484375 592.386719 215.308594 592.652344 215.078125 592.882812 C 214.847656 593.113281 214.582031 593.292969 214.28125 593.414062 C 213.980469 593.539062 213.667969 593.601562 213.339844 593.601562 L 205.15625 593.601562 C 204.832031 593.601562 204.519531 593.539062 204.21875 593.414062 C 203.917969 593.292969 203.652344 593.113281 203.421875 592.882812 C 203.191406 592.652344 203.011719 592.386719 202.886719 592.085938 C 202.761719 591.785156 202.699219 591.472656 202.699219 591.148438 L 202.699219 499.980469 C 202.699219 499.65625 202.761719 499.34375 202.886719 499.042969 C 203.011719 498.742188 203.191406 498.476562 203.421875 498.246094 C 203.652344 498.015625 203.917969 497.839844 204.21875 497.714844 C 204.519531 497.589844 204.832031 497.527344 205.15625 497.527344 Z M 205.15625 497.527344 " fill-opacity="1" fill-rule="nonzero"/><path fill="#6b99d2" d="M 257.378906 541.5625 L 257.378906 549.746094 C 257.378906 550.074219 257.316406 550.386719 257.191406 550.6875 C 257.066406 550.988281 256.886719 551.253906 256.65625 551.484375 C 256.429688 551.714844 256.164062 551.890625 255.863281 552.015625 C 255.5625 552.140625 255.246094 552.203125 254.921875 552.203125 L 163.757812 552.203125 C 163.429688 552.203125 163.117188 552.140625 162.816406 552.015625 C 162.515625 551.890625 162.25 551.714844 162.019531 551.484375 C 161.789062 551.253906 161.613281 550.988281 161.488281 550.6875 C 161.363281 550.386719 161.300781 550.074219 161.300781 549.746094 L 161.300781 541.5625 C 161.300781 541.238281 161.363281 540.921875 161.488281 540.621094 C 161.613281 540.320312 161.789062 540.054688 162.019531 539.824219 C 162.25 539.59375 162.515625 539.417969 162.816406 539.292969 C 163.117188 539.167969 163.429688 539.105469 163.757812 539.105469 L 254.921875 539.105469 C 255.246094 539.105469 255.5625 539.167969 255.863281 539.292969 C 256.164062 539.417969 256.429688 539.59375 256.65625 539.824219 C 256.886719 540.054688 257.066406 540.320312 257.191406 540.621094 C 257.316406 540.921875 257.378906 541.238281 257.378906 541.5625 Z M 257.378906 541.5625 " fill-opacity="1" fill-rule="nonzero"/><path fill="#6b99d2" d="M 240.359375 508.789062 L 246.148438 514.578125 C 246.378906 514.808594 246.554688 515.070312 246.679688 515.371094 C 246.804688 515.671875 246.867188 515.988281 246.867188 516.3125 C 246.867188 516.636719 246.804688 516.953125 246.679688 517.253906 C 246.554688 517.554688 246.378906 517.820312 246.148438 518.050781 L 181.683594 582.511719 C 181.453125 582.742188 181.1875 582.921875 180.886719 583.042969 C 180.585938 583.167969 180.273438 583.230469 179.949219 583.230469 C 179.625 583.230469 179.308594 583.167969 179.007812 583.042969 C 178.707031 582.921875 178.441406 582.742188 178.210938 582.511719 L 172.425781 576.726562 C 172.195312 576.496094 172.015625 576.230469 171.890625 575.929688 C 171.769531 575.628906 171.707031 575.3125 171.707031 574.988281 C 171.707031 574.664062 171.769531 574.347656 171.890625 574.046875 C 172.015625 573.746094 172.195312 573.480469 172.425781 573.253906 L 236.886719 508.789062 C 237.117188 508.558594 237.382812 508.382812 237.683594 508.257812 C 237.984375 508.132812 238.300781 508.070312 238.625 508.070312 C 238.949219 508.070312 239.261719 508.132812 239.5625 508.257812 C 239.863281 508.382812 240.128906 508.558594 240.359375 508.789062 Z M 240.359375 508.789062 " fill-opacity="1" fill-rule="nonzero"/><path fill="#6b99d2" d="M 246.277344 576.765625 L 240.492188 582.554688 C 240.261719 582.785156 239.996094 582.960938 239.695312 583.085938 C 239.394531 583.210938 239.082031 583.273438 238.753906 583.273438 C 238.429688 583.273438 238.117188 583.210938 237.816406 583.085938 C 237.515625 582.960938 237.25 582.785156 237.019531 582.554688 L 172.554688 518.089844 C 172.324219 517.859375 172.148438 517.59375 172.023438 517.292969 C 171.898438 516.992188 171.835938 516.679688 171.835938 516.355469 C 171.835938 516.027344 171.898438 515.714844 172.023438 515.414062 C 172.148438 515.113281 172.324219 514.847656 172.554688 514.617188 L 178.34375 508.828125 C 178.574219 508.597656 178.839844 508.421875 179.140625 508.296875 C 179.441406 508.171875 179.753906 508.109375 180.078125 508.109375 C 180.40625 508.109375 180.71875 508.171875 181.019531 508.296875 C 181.320312 508.421875 181.585938 508.597656 181.816406 508.828125 L 246.277344 573.292969 C 246.507812 573.523438 246.6875 573.789062 246.8125 574.089844 C 246.9375 574.390625 246.996094 574.703125 246.996094 575.03125 C 246.996094 575.355469 246.9375 575.667969 246.8125 575.96875 C 246.6875 576.269531 246.507812 576.535156 246.277344 576.765625 Z M 246.277344 576.765625 " fill-opacity="1" fill-rule="nonzero"/><path fill="#6b99d2" d="M 589.527344 493.269531 L 597.710938 493.269531 C 598.039062 493.269531 598.351562 493.332031 598.652344 493.457031 C 598.953125 493.582031 599.21875 493.757812 599.449219 493.988281 C 599.679688 494.21875 599.855469 494.484375 599.980469 494.785156 C 600.105469 495.085938 600.167969 495.398438 600.167969 495.726562 L 600.167969 586.890625 C 600.167969 587.214844 600.105469 587.53125 599.980469 587.832031 C 599.855469 588.132812 599.679688 588.398438 599.449219 588.628906 C 599.21875 588.859375 598.953125 589.035156 598.652344 589.160156 C 598.351562 589.285156 598.039062 589.347656 597.710938 589.347656 L 589.527344 589.347656 C 589.199219 589.347656 588.886719 589.285156 588.585938 589.160156 C 588.285156 589.035156 588.019531 588.859375 587.789062 588.628906 C 587.558594 588.398438 587.382812 588.132812 587.257812 587.832031 C 587.132812 587.53125 587.070312 587.214844 587.070312 586.890625 L 587.070312 495.726562 C 587.070312 495.398438 587.132812 495.085938 587.257812 494.785156 C 587.382812 494.484375 587.558594 494.21875 587.789062 493.988281 C 588.019531 493.757812 588.285156 493.582031 588.585938 493.457031 C 588.886719 493.332031 589.199219 493.269531 589.527344 493.269531 Z M 589.527344 493.269531 " fill-opacity="1" fill-rule="nonzero"/><path fill="#6b99d2" d="M 641.746094 537.140625 L 641.746094 545.328125 C 641.746094 545.652344 641.683594 545.964844 641.558594 546.265625 C 641.4375 546.566406 641.257812 546.832031 641.027344 547.0625 C 640.796875 547.292969 640.53125 547.472656 640.230469 547.597656 C 639.929688 547.71875 639.617188 547.78125 639.292969 547.78125 L 548.125 547.78125 C 547.800781 547.78125 547.488281 547.71875 547.1875 547.597656 C 546.886719 547.472656 546.621094 547.292969 546.390625 547.0625 C 546.160156 546.832031 545.984375 546.566406 545.859375 546.265625 C 545.734375 545.964844 545.671875 545.652344 545.671875 545.328125 L 545.671875 537.140625 C 545.671875 536.816406 545.734375 536.503906 545.859375 536.203125 C 545.984375 535.902344 546.160156 535.636719 546.390625 535.40625 C 546.621094 535.175781 546.886719 535 547.1875 534.875 C 547.488281 534.75 547.800781 534.6875 548.125 534.6875 L 639.292969 534.6875 C 639.617188 534.6875 639.929688 534.75 640.230469 534.875 C 640.53125 535 640.796875 535.175781 641.027344 535.40625 C 641.257812 535.636719 641.4375 535.902344 641.558594 536.203125 C 641.683594 536.503906 641.746094 536.816406 641.746094 537.140625 Z M 641.746094 537.140625 " fill-opacity="1" fill-rule="nonzero"/><path fill="#6b99d2" d="M 624.792969 504.402344 L 630.578125 510.1875 C 630.808594 510.417969 630.988281 510.683594 631.113281 510.984375 C 631.238281 511.285156 631.300781 511.597656 631.300781 511.925781 C 631.300781 512.25 631.238281 512.5625 631.113281 512.863281 C 630.988281 513.164062 630.808594 513.429688 630.578125 513.660156 L 566.117188 578.125 C 565.886719 578.355469 565.621094 578.53125 565.320312 578.65625 C 565.019531 578.78125 564.707031 578.84375 564.378906 578.84375 C 564.054688 578.84375 563.742188 578.78125 563.441406 578.65625 C 563.140625 578.53125 562.875 578.355469 562.644531 578.125 L 556.855469 572.335938 C 556.625 572.105469 556.449219 571.839844 556.324219 571.539062 C 556.199219 571.238281 556.136719 570.925781 556.136719 570.601562 C 556.136719 570.273438 556.199219 569.960938 556.324219 569.660156 C 556.449219 569.359375 556.625 569.09375 556.855469 568.863281 L 621.320312 504.402344 C 621.550781 504.171875 621.816406 503.992188 622.117188 503.867188 C 622.417969 503.742188 622.730469 503.683594 623.054688 503.679688 C 623.382812 503.683594 623.695312 503.742188 623.996094 503.867188 C 624.296875 503.992188 624.5625 504.171875 624.792969 504.402344 Z M 624.792969 504.402344 " fill-opacity="1" fill-rule="nonzero"/><path fill="#6b99d2" d="M 630.617188 572.410156 L 624.828125 578.195312 C 624.597656 578.425781 624.332031 578.605469 624.03125 578.726562 C 623.730469 578.851562 623.417969 578.914062 623.09375 578.914062 C 622.765625 578.914062 622.453125 578.851562 622.152344 578.726562 C 621.851562 578.605469 621.585938 578.425781 621.355469 578.195312 L 556.890625 513.734375 C 556.660156 513.503906 556.484375 513.238281 556.359375 512.9375 C 556.234375 512.636719 556.171875 512.320312 556.171875 511.996094 C 556.171875 511.671875 556.234375 511.359375 556.359375 511.058594 C 556.484375 510.757812 556.660156 510.492188 556.890625 510.261719 L 562.679688 504.472656 C 562.910156 504.242188 563.175781 504.066406 563.476562 503.941406 C 563.777344 503.816406 564.089844 503.753906 564.417969 503.753906 C 564.742188 503.753906 565.054688 503.816406 565.355469 503.941406 C 565.65625 504.066406 565.921875 504.242188 566.152344 504.472656 L 630.617188 568.9375 C 630.847656 569.167969 631.023438 569.433594 631.148438 569.734375 C 631.273438 570.035156 631.335938 570.347656 631.335938 570.671875 C 631.335938 570.996094 631.273438 571.3125 631.148438 571.613281 C 631.023438 571.914062 630.847656 572.179688 630.617188 572.410156 Z M 630.617188 572.410156 " fill-opacity="1" fill-rule="nonzero"/><path fill="#26477a" d="M 426.316406 480.175781 L 433.355469 480.175781 C 433.636719 480.175781 433.910156 480.226562 434.171875 480.335938 C 434.429688 480.445312 434.660156 480.597656 434.859375 480.796875 C 435.058594 480.996094 435.214844 481.226562 435.320312 481.488281 C 435.429688 481.75 435.484375 482.019531 435.484375 482.300781 L 435.484375 561.027344 C 435.484375 561.308594 435.429688 561.578125 435.320312 561.839844 C 435.214844 562.101562 435.058594 562.332031 434.859375 562.53125 C 434.660156 562.730469 434.429688 562.882812 434.171875 562.992188 C 433.910156 563.101562 433.636719 563.15625 433.355469 563.15625 L 426.316406 563.15625 C 426.035156 563.15625 425.761719 563.101562 425.503906 562.992188 C 425.242188 562.882812 425.011719 562.730469 424.8125 562.53125 C 424.613281 562.332031 424.457031 562.101562 424.351562 561.839844 C 424.242188 561.578125 424.1875 561.308594 424.1875 561.027344 L 424.1875 482.300781 C 424.1875 482.019531 424.242188 481.75 424.351562 481.488281 C 424.457031 481.226562 424.613281 480.996094 424.8125 480.796875 C 425.011719 480.597656 425.242188 480.445312 425.503906 480.335938 C 425.761719 480.226562 426.035156 480.175781 426.316406 480.175781 Z M 426.316406 480.175781 " fill-opacity="1" fill-rule="nonzero"/><path fill="#26477a" d="M 471.5 518.152344 L 471.5 525.191406 C 471.5 525.472656 471.445312 525.746094 471.335938 526.007812 C 471.226562 526.265625 471.074219 526.496094 470.875 526.695312 C 470.675781 526.898438 470.445312 527.050781 470.183594 527.160156 C 469.925781 527.265625 469.652344 527.320312 469.371094 527.320312 L 390.644531 527.320312 C 390.363281 527.320312 390.09375 527.265625 389.832031 527.160156 C 389.570312 527.050781 389.339844 526.898438 389.140625 526.695312 C 388.941406 526.496094 388.789062 526.265625 388.679688 526.007812 C 388.574219 525.746094 388.519531 525.472656 388.519531 525.191406 L 388.519531 518.152344 C 388.519531 517.871094 388.574219 517.597656 388.679688 517.339844 C 388.789062 517.078125 388.941406 516.847656 389.140625 516.648438 C 389.339844 516.449219 389.570312 516.292969 389.832031 516.1875 C 390.09375 516.078125 390.363281 516.023438 390.644531 516.023438 L 469.371094 516.023438 C 469.652344 516.023438 469.925781 516.078125 470.183594 516.1875 C 470.445312 516.292969 470.675781 516.449219 470.875 516.648438 C 471.074219 516.847656 471.226562 517.078125 471.335938 517.339844 C 471.445312 517.597656 471.5 517.871094 471.5 518.152344 Z M 471.5 518.152344 " fill-opacity="1" fill-rule="nonzero"/><path fill="#26477a" d="M 456.765625 489.738281 L 461.742188 494.71875 C 461.945312 494.917969 462.097656 495.148438 462.207031 495.40625 C 462.3125 495.667969 462.367188 495.941406 462.367188 496.222656 C 462.367188 496.503906 462.3125 496.777344 462.207031 497.035156 C 462.097656 497.296875 461.945312 497.527344 461.742188 497.726562 L 406.078125 553.394531 C 405.878906 553.59375 405.648438 553.746094 405.386719 553.855469 C 405.125 553.960938 404.855469 554.015625 404.574219 554.015625 C 404.289062 554.015625 404.019531 553.960938 403.757812 553.855469 C 403.496094 553.746094 403.269531 553.59375 403.066406 553.394531 L 398.089844 548.414062 C 397.890625 548.214844 397.738281 547.984375 397.628906 547.726562 C 397.523438 547.464844 397.46875 547.191406 397.46875 546.910156 C 397.46875 546.628906 397.523438 546.355469 397.628906 546.097656 C 397.738281 545.835938 397.890625 545.605469 398.089844 545.40625 L 453.757812 489.738281 C 453.957031 489.539062 454.1875 489.386719 454.449219 489.277344 C 454.707031 489.171875 454.980469 489.117188 455.261719 489.117188 C 455.542969 489.117188 455.816406 489.171875 456.074219 489.277344 C 456.335938 489.386719 456.566406 489.539062 456.765625 489.738281 Z M 456.765625 489.738281 " fill-opacity="1" fill-rule="nonzero"/><path fill="#26477a" d="M 461.769531 548.441406 L 456.792969 553.417969 C 456.59375 553.617188 456.363281 553.769531 456.101562 553.878906 C 455.839844 553.988281 455.570312 554.039062 455.289062 554.039062 C 455.003906 554.039062 454.734375 553.988281 454.472656 553.878906 C 454.210938 553.769531 453.980469 553.617188 453.78125 553.417969 L 398.117188 497.75 C 397.917969 497.550781 397.761719 497.320312 397.65625 497.0625 C 397.546875 496.800781 397.492188 496.527344 397.492188 496.246094 C 397.492188 495.964844 397.546875 495.691406 397.65625 495.433594 C 397.761719 495.171875 397.917969 494.941406 398.117188 494.742188 L 403.09375 489.765625 C 403.292969 489.5625 403.523438 489.410156 403.785156 489.300781 C 404.042969 489.195312 404.316406 489.140625 404.597656 489.140625 C 404.878906 489.140625 405.152344 489.195312 405.414062 489.300781 C 405.671875 489.410156 405.902344 489.5625 406.101562 489.765625 L 461.769531 545.429688 C 461.96875 545.628906 462.121094 545.859375 462.230469 546.121094 C 462.339844 546.382812 462.394531 546.652344 462.394531 546.933594 C 462.394531 547.21875 462.339844 547.488281 462.230469 547.75 C 462.121094 548.011719 461.96875 548.238281 461.769531 548.441406 Z M 461.769531 548.441406 " fill-opacity="1" fill-rule="nonzero"/><path fill="#26477a" d="M 238.550781 646.003906 L 245.589844 646.003906 C 245.871094 646.003906 246.144531 646.058594 246.40625 646.164062 C 246.664062 646.273438 246.894531 646.425781 247.09375 646.625 C 247.296875 646.828125 247.449219 647.054688 247.558594 647.316406 C 247.664062 647.578125 247.71875 647.847656 247.71875 648.132812 L 247.71875 726.855469 C 247.71875 727.136719 247.664062 727.410156 247.558594 727.667969 C 247.449219 727.929688 247.296875 728.160156 247.09375 728.359375 C 246.894531 728.558594 246.664062 728.714844 246.40625 728.820312 C 246.144531 728.929688 245.871094 728.984375 245.589844 728.984375 L 238.550781 728.984375 C 238.269531 728.984375 237.996094 728.929688 237.738281 728.820312 C 237.476562 728.714844 237.246094 728.558594 237.046875 728.359375 C 236.847656 728.160156 236.695312 727.929688 236.585938 727.667969 C 236.476562 727.410156 236.421875 727.136719 236.421875 726.855469 L 236.421875 648.132812 C 236.421875 647.847656 236.476562 647.578125 236.585938 647.316406 C 236.695312 647.054688 236.847656 646.828125 237.046875 646.625 C 237.246094 646.425781 237.476562 646.273438 237.738281 646.164062 C 237.996094 646.058594 238.269531 646.003906 238.550781 646.003906 Z M 238.550781 646.003906 " fill-opacity="1" fill-rule="nonzero"/><path fill="#26477a" d="M 283.570312 684.144531 L 283.570312 691.183594 C 283.570312 691.46875 283.515625 691.738281 283.40625 692 C 283.300781 692.261719 283.144531 692.488281 282.945312 692.691406 C 282.746094 692.890625 282.515625 693.042969 282.253906 693.152344 C 281.996094 693.257812 281.722656 693.3125 281.441406 693.3125 L 202.71875 693.3125 C 202.433594 693.3125 202.164062 693.257812 201.902344 693.152344 C 201.640625 693.042969 201.414062 692.890625 201.210938 692.691406 C 201.011719 692.488281 200.859375 692.261719 200.75 692 C 200.644531 691.738281 200.589844 691.46875 200.589844 691.183594 L 200.589844 684.144531 C 200.589844 683.863281 200.644531 683.59375 200.75 683.332031 C 200.859375 683.070312 201.011719 682.839844 201.210938 682.640625 C 201.414062 682.441406 201.640625 682.289062 201.902344 682.179688 C 202.164062 682.070312 202.433594 682.019531 202.71875 682.019531 L 281.441406 682.019531 C 281.722656 682.019531 281.996094 682.070312 282.253906 682.179688 C 282.515625 682.289062 282.746094 682.441406 282.945312 682.640625 C 283.144531 682.839844 283.300781 683.070312 283.40625 683.332031 C 283.515625 683.59375 283.570312 683.863281 283.570312 684.144531 Z M 283.570312 684.144531 " fill-opacity="1" fill-rule="nonzero"/><path fill="#26477a" d="M 268.992188 655.726562 L 273.96875 660.703125 C 274.167969 660.902344 274.324219 661.132812 274.429688 661.394531 C 274.539062 661.65625 274.59375 661.925781 274.59375 662.207031 C 274.59375 662.492188 274.539062 662.761719 274.429688 663.023438 C 274.324219 663.285156 274.167969 663.515625 273.96875 663.714844 L 218.304688 719.378906 C 218.105469 719.578125 217.875 719.734375 217.613281 719.839844 C 217.351562 719.949219 217.082031 720.003906 216.796875 720.003906 C 216.515625 720.003906 216.246094 719.949219 215.984375 719.839844 C 215.722656 719.734375 215.492188 719.578125 215.292969 719.378906 L 210.316406 714.402344 C 210.117188 714.203125 209.964844 713.972656 209.855469 713.710938 C 209.746094 713.449219 209.691406 713.179688 209.691406 712.898438 C 209.691406 712.613281 209.746094 712.34375 209.855469 712.082031 C 209.964844 711.820312 210.117188 711.59375 210.316406 711.390625 L 265.980469 655.726562 C 266.183594 655.527344 266.414062 655.371094 266.671875 655.265625 C 266.933594 655.15625 267.203125 655.101562 267.488281 655.101562 C 267.769531 655.101562 268.039062 655.15625 268.300781 655.265625 C 268.5625 655.371094 268.792969 655.527344 268.992188 655.726562 Z M 268.992188 655.726562 " fill-opacity="1" fill-rule="nonzero"/><path fill="#26477a" d="M 273.847656 714.421875 L 268.867188 719.398438 C 268.667969 719.597656 268.4375 719.753906 268.179688 719.863281 C 267.917969 719.96875 267.648438 720.023438 267.363281 720.023438 C 267.082031 720.023438 266.8125 719.96875 266.550781 719.863281 C 266.289062 719.753906 266.058594 719.601562 265.859375 719.398438 L 210.191406 663.734375 C 209.992188 663.535156 209.839844 663.304688 209.730469 663.042969 C 209.625 662.78125 209.570312 662.511719 209.570312 662.230469 C 209.570312 661.945312 209.625 661.675781 209.730469 661.414062 C 209.839844 661.152344 209.992188 660.925781 210.191406 660.722656 L 215.171875 655.746094 C 215.371094 655.546875 215.601562 655.394531 215.859375 655.285156 C 216.121094 655.175781 216.394531 655.125 216.675781 655.125 C 216.957031 655.125 217.230469 655.175781 217.488281 655.285156 C 217.75 655.394531 217.980469 655.546875 218.179688 655.746094 L 273.847656 711.414062 C 274.046875 711.613281 274.199219 711.84375 274.308594 712.101562 C 274.414062 712.363281 274.46875 712.636719 274.46875 712.917969 C 274.46875 713.199219 274.414062 713.472656 274.308594 713.730469 C 274.199219 713.992188 274.046875 714.222656 273.847656 714.421875 Z M 273.847656 714.421875 " fill-opacity="1" fill-rule="nonzero"/><path fill="#26477a" d="M 555.804688 654.84375 L 561.699219 654.84375 C 561.9375 654.84375 562.164062 654.890625 562.386719 654.980469 C 562.605469 655.070312 562.800781 655.203125 562.972656 655.371094 C 563.140625 655.539062 563.269531 655.734375 563.359375 655.953125 C 563.453125 656.175781 563.5 656.40625 563.5 656.644531 L 563.5 722.925781 C 563.5 723.164062 563.453125 723.394531 563.359375 723.617188 C 563.269531 723.835938 563.140625 724.03125 562.972656 724.199219 C 562.800781 724.367188 562.605469 724.5 562.386719 724.589844 C 562.164062 724.679688 561.9375 724.726562 561.699219 724.726562 L 555.804688 724.726562 C 555.566406 724.726562 555.335938 724.679688 555.113281 724.589844 C 554.894531 724.5 554.699219 724.367188 554.53125 724.199219 C 554.363281 724.03125 554.230469 723.835938 554.140625 723.617188 C 554.050781 723.394531 554.003906 723.164062 554.003906 722.925781 L 554.003906 656.644531 C 554.003906 656.40625 554.050781 656.175781 554.140625 655.953125 C 554.230469 655.734375 554.363281 655.539062 554.53125 655.371094 C 554.699219 655.203125 554.894531 655.070312 555.113281 654.980469 C 555.335938 654.890625 555.566406 654.84375 555.804688 654.84375 Z M 555.804688 654.84375 " fill-opacity="1" fill-rule="nonzero"/><path fill="#26477a" d="M 593.621094 686.765625 L 593.621094 692.660156 C 593.621094 692.898438 593.574219 693.125 593.480469 693.347656 C 593.390625 693.566406 593.261719 693.761719 593.089844 693.929688 C 592.921875 694.101562 592.726562 694.230469 592.507812 694.320312 C 592.285156 694.414062 592.058594 694.457031 591.820312 694.457031 L 525.535156 694.457031 C 525.296875 694.457031 525.066406 694.414062 524.847656 694.320312 C 524.625 694.230469 524.429688 694.101562 524.261719 693.929688 C 524.09375 693.761719 523.964844 693.566406 523.871094 693.347656 C 523.78125 693.125 523.734375 692.898438 523.734375 692.660156 L 523.734375 686.765625 C 523.734375 686.527344 523.78125 686.296875 523.871094 686.074219 C 523.964844 685.855469 524.09375 685.660156 524.261719 685.492188 C 524.429688 685.324219 524.625 685.191406 524.847656 685.101562 C 525.066406 685.011719 525.296875 684.964844 525.535156 684.964844 L 591.820312 684.964844 C 592.058594 684.964844 592.285156 685.011719 592.507812 685.101562 C 592.726562 685.191406 592.921875 685.324219 593.09375 685.492188 C 593.261719 685.660156 593.390625 685.855469 593.480469 686.074219 C 593.574219 686.296875 593.621094 686.527344 593.621094 686.765625 Z M 593.621094 686.765625 " fill-opacity="1" fill-rule="nonzero"/><path fill="#26477a" d="M 581.25 662.90625 L 585.414062 667.070312 C 585.585938 667.242188 585.714844 667.433594 585.804688 667.65625 C 585.898438 667.875 585.941406 668.105469 585.941406 668.34375 C 585.941406 668.582031 585.898438 668.8125 585.804688 669.035156 C 585.714844 669.253906 585.585938 669.449219 585.414062 669.617188 L 538.546875 716.488281 C 538.378906 716.65625 538.183594 716.785156 537.960938 716.878906 C 537.742188 716.96875 537.511719 717.015625 537.273438 717.015625 C 537.035156 717.015625 536.804688 716.96875 536.585938 716.878906 C 536.363281 716.785156 536.167969 716.65625 536 716.488281 L 531.832031 712.320312 C 531.664062 712.152344 531.535156 711.957031 531.441406 711.734375 C 531.351562 711.515625 531.304688 711.285156 531.304688 711.046875 C 531.304688 710.808594 531.351562 710.578125 531.441406 710.359375 C 531.535156 710.136719 531.664062 709.941406 531.832031 709.773438 L 578.703125 662.90625 C 578.871094 662.734375 579.066406 662.605469 579.285156 662.515625 C 579.507812 662.421875 579.734375 662.378906 579.976562 662.378906 C 580.214844 662.378906 580.445312 662.421875 580.664062 662.515625 C 580.882812 662.605469 581.078125 662.734375 581.25 662.90625 Z M 581.25 662.90625 " fill-opacity="1" fill-rule="nonzero"/><path fill="#26477a" d="M 585.558594 712.210938 L 581.390625 716.378906 C 581.222656 716.546875 581.027344 716.675781 580.808594 716.769531 C 580.585938 716.859375 580.355469 716.90625 580.117188 716.90625 C 579.878906 716.90625 579.648438 716.859375 579.429688 716.769531 C 579.207031 716.675781 579.015625 716.546875 578.84375 716.378906 L 531.976562 669.507812 C 531.808594 669.339844 531.675781 669.144531 531.585938 668.925781 C 531.496094 668.703125 531.449219 668.472656 531.449219 668.234375 C 531.449219 667.996094 531.496094 667.765625 531.585938 667.546875 C 531.675781 667.324219 531.808594 667.132812 531.976562 666.960938 L 536.144531 662.792969 C 536.3125 662.625 536.507812 662.496094 536.726562 662.40625 C 536.949219 662.3125 537.175781 662.265625 537.417969 662.265625 C 537.65625 662.265625 537.886719 662.3125 538.105469 662.40625 C 538.328125 662.496094 538.519531 662.625 538.691406 662.792969 L 585.558594 709.664062 C 585.726562 709.832031 585.859375 710.027344 585.949219 710.246094 C 586.039062 710.46875 586.085938 710.699219 586.085938 710.9375 C 586.085938 711.175781 586.039062 711.40625 585.949219 711.625 C 585.859375 711.847656 585.726562 712.042969 585.558594 712.210938 Z M 585.558594 712.210938 " fill-opacity="1" fill-rule="nonzero"/><path fill="#6b99d2" d="M 355.269531 602.460938 L 360.34375 602.460938 C 360.5625 602.460938 360.769531 602.5 360.972656 602.582031 C 361.171875 602.667969 361.347656 602.785156 361.503906 602.9375 C 361.65625 603.09375 361.773438 603.269531 361.859375 603.46875 C 361.941406 603.671875 361.980469 603.878906 361.980469 604.097656 L 361.980469 661.964844 C 361.980469 662.179688 361.941406 662.390625 361.859375 662.589844 C 361.773438 662.792969 361.65625 662.96875 361.503906 663.121094 C 361.347656 663.273438 361.171875 663.394531 360.972656 663.476562 C 360.769531 663.558594 360.5625 663.601562 360.34375 663.601562 L 355.269531 663.601562 C 355.054688 663.601562 354.84375 663.558594 354.644531 663.476562 C 354.445312 663.394531 354.265625 663.273438 354.113281 663.121094 C 353.960938 662.96875 353.839844 662.792969 353.757812 662.589844 C 353.675781 662.390625 353.632812 662.179688 353.632812 661.964844 L 353.632812 604.097656 C 353.632812 603.878906 353.675781 603.671875 353.757812 603.46875 C 353.839844 603.269531 353.960938 603.09375 354.113281 602.9375 C 354.265625 602.785156 354.441406 602.667969 354.644531 602.582031 C 354.84375 602.5 355.054688 602.460938 355.269531 602.460938 Z M 355.269531 602.460938 " fill-opacity="1" fill-rule="nonzero"/><path fill="#6b99d2" d="M 388.5 630.453125 L 388.5 635.527344 C 388.5 635.742188 388.460938 635.953125 388.378906 636.152344 C 388.292969 636.355469 388.175781 636.53125 388.023438 636.683594 C 387.867188 636.835938 387.691406 636.957031 387.492188 637.039062 C 387.289062 637.121094 387.082031 637.164062 386.863281 637.164062 L 328.996094 637.164062 C 328.78125 637.164062 328.570312 637.121094 328.371094 637.039062 C 328.167969 636.957031 327.992188 636.835938 327.839844 636.683594 C 327.683594 636.53125 327.566406 636.355469 327.484375 636.152344 C 327.402344 635.953125 327.359375 635.742188 327.359375 635.527344 L 327.359375 630.453125 C 327.359375 630.234375 327.402344 630.027344 327.484375 629.824219 C 327.566406 629.625 327.683594 629.449219 327.839844 629.292969 C 327.992188 629.140625 328.167969 629.023438 328.371094 628.941406 C 328.570312 628.855469 328.78125 628.816406 328.996094 628.816406 L 386.863281 628.816406 C 387.082031 628.816406 387.289062 628.855469 387.492188 628.941406 C 387.691406 629.023438 387.867188 629.140625 388.023438 629.292969 C 388.175781 629.449219 388.292969 629.625 388.378906 629.824219 C 388.460938 630.027344 388.5 630.234375 388.5 630.453125 Z M 388.5 630.453125 " fill-opacity="1" fill-rule="nonzero"/><path fill="#6b99d2" d="M 377.683594 609.621094 L 381.273438 613.210938 C 381.425781 613.363281 381.542969 613.542969 381.628906 613.742188 C 381.710938 613.941406 381.753906 614.152344 381.753906 614.367188 C 381.753906 614.585938 381.710938 614.792969 381.628906 614.996094 C 381.542969 615.195312 381.425781 615.371094 381.273438 615.527344 L 340.355469 656.445312 C 340.199219 656.597656 340.023438 656.714844 339.824219 656.800781 C 339.621094 656.882812 339.414062 656.925781 339.195312 656.925781 C 338.980469 656.925781 338.769531 656.882812 338.570312 656.800781 C 338.371094 656.714844 338.191406 656.597656 338.039062 656.445312 L 334.449219 652.855469 C 334.296875 652.703125 334.179688 652.527344 334.097656 652.324219 C 334.011719 652.125 333.972656 651.917969 333.972656 651.699219 C 333.972656 651.480469 334.011719 651.273438 334.09375 651.074219 C 334.179688 650.871094 334.296875 650.695312 334.449219 650.542969 L 375.371094 609.621094 C 375.523438 609.46875 375.699219 609.351562 375.902344 609.269531 C 376.101562 609.183594 376.308594 609.144531 376.527344 609.144531 C 376.746094 609.144531 376.953125 609.183594 377.152344 609.269531 C 377.355469 609.351562 377.53125 609.46875 377.683594 609.621094 Z M 377.683594 609.621094 " fill-opacity="1" fill-rule="nonzero"/><path fill="#6b99d2" d="M 381.171875 652.867188 L 377.582031 656.453125 C 377.429688 656.609375 377.253906 656.726562 377.050781 656.808594 C 376.851562 656.890625 376.644531 656.933594 376.425781 656.933594 C 376.207031 656.933594 376 656.890625 375.800781 656.808594 C 375.597656 656.726562 375.421875 656.609375 375.269531 656.453125 L 334.347656 615.535156 C 334.195312 615.382812 334.078125 615.203125 333.996094 615.003906 C 333.910156 614.804688 333.871094 614.59375 333.871094 614.378906 C 333.871094 614.160156 333.910156 613.953125 333.996094 613.75 C 334.078125 613.550781 334.195312 613.375 334.347656 613.21875 L 337.9375 609.632812 C 338.089844 609.476562 338.269531 609.359375 338.46875 609.277344 C 338.667969 609.195312 338.878906 609.152344 339.09375 609.152344 C 339.3125 609.152344 339.519531 609.195312 339.722656 609.277344 C 339.921875 609.359375 340.097656 609.476562 340.253906 609.632812 L 381.171875 650.550781 C 381.324219 650.703125 381.445312 650.882812 381.527344 651.082031 C 381.609375 651.28125 381.652344 651.492188 381.652344 651.707031 C 381.652344 651.925781 381.609375 652.132812 381.527344 652.335938 C 381.445312 652.535156 381.324219 652.710938 381.171875 652.867188 Z M 381.171875 652.867188 " fill-opacity="1" fill-rule="nonzero"/><g clip-path="url(#1ce2f25ccf)"><path fill="#26477a" d="M 639.457031 270.472656 L 636.671875 270.472656 C 639.992188 259.8125 641.628906 248.898438 641.582031 237.734375 C 641.585938 235.105469 641.496094 232.484375 641.3125 229.863281 C 641.128906 227.246094 640.851562 224.636719 640.484375 222.035156 C 640.113281 219.433594 639.65625 216.851562 639.105469 214.285156 C 638.550781 211.714844 637.910156 209.171875 637.179688 206.648438 C 636.449219 204.128906 635.628906 201.632812 634.722656 199.171875 C 633.8125 196.707031 632.820312 194.277344 631.738281 191.882812 C 630.660156 189.488281 629.496094 187.136719 628.25 184.824219 C 627.003906 182.511719 625.679688 180.25 624.273438 178.03125 C 622.867188 175.8125 621.382812 173.648438 619.824219 171.535156 C 618.265625 169.421875 616.632812 167.367188 614.925781 165.371094 C 613.222656 163.375 611.449219 161.441406 609.605469 159.566406 C 607.761719 157.695312 605.859375 155.890625 603.886719 154.15625 C 601.917969 152.417969 599.890625 150.753906 597.800781 149.160156 C 595.714844 147.566406 593.574219 146.050781 591.378906 144.609375 C 589.183594 143.167969 586.941406 141.804688 584.648438 140.519531 C 582.359375 139.238281 580.023438 138.039062 577.648438 136.921875 C 575.273438 135.800781 572.859375 134.769531 570.410156 133.824219 C 567.960938 132.875 565.480469 132.015625 562.96875 131.246094 C 560.460938 130.472656 557.925781 129.792969 555.367188 129.199219 C 552.808594 128.609375 550.234375 128.105469 547.640625 127.695312 C 545.046875 127.289062 542.441406 126.96875 539.824219 126.746094 C 537.207031 126.519531 534.585938 126.386719 531.960938 126.347656 C 529.335938 126.304688 526.710938 126.359375 524.089844 126.503906 C 521.46875 126.652344 518.855469 126.890625 516.25 127.21875 C 513.644531 127.550781 511.054688 127.972656 508.476562 128.488281 C 505.902344 129 503.347656 129.605469 500.816406 130.300781 C 498.285156 130.996094 495.78125 131.777344 493.300781 132.648438 C 490.824219 133.523438 488.382812 134.480469 485.972656 135.523438 C 483.5625 136.570312 481.195312 137.699219 478.867188 138.910156 C 476.535156 140.125 474.253906 141.417969 472.015625 142.792969 C 469.777344 144.164062 467.589844 145.617188 465.457031 147.144531 C 463.320312 148.675781 461.242188 150.277344 459.21875 151.953125 C 458.753906 149.804688 458.238281 147.664062 457.675781 145.539062 C 457.109375 143.410156 456.496094 141.300781 455.835938 139.199219 C 455.175781 137.101562 454.464844 135.019531 453.710938 132.953125 C 452.953125 130.886719 452.148438 128.839844 451.300781 126.8125 C 450.449219 124.78125 449.554688 122.773438 448.609375 120.785156 C 447.667969 118.796875 446.679688 116.832031 445.648438 114.886719 C 444.617188 112.945312 443.539062 111.027344 442.417969 109.132812 C 441.296875 107.238281 440.136719 105.371094 438.929688 103.53125 C 437.722656 101.691406 436.476562 99.878906 435.1875 98.097656 C 433.898438 96.3125 432.570312 94.5625 431.199219 92.839844 C 429.832031 91.117188 428.421875 89.425781 426.976562 87.769531 C 425.53125 86.109375 424.046875 84.488281 422.523438 82.898438 C 421.003906 81.308594 419.445312 79.753906 417.855469 78.234375 C 416.261719 76.714844 414.636719 75.234375 412.976562 73.792969 C 411.316406 72.347656 409.625 70.941406 407.898438 69.574219 C 406.175781 68.210938 404.417969 66.882812 402.632812 65.597656 C 400.847656 64.3125 399.035156 63.066406 397.191406 61.863281 C 395.351562 60.660156 393.480469 59.5 391.585938 58.382812 C 389.691406 57.265625 387.769531 56.191406 385.824219 55.164062 C 383.882812 54.132812 381.914062 53.148438 379.925781 52.210938 C 377.933594 51.273438 375.925781 50.378906 373.894531 49.53125 C 371.863281 48.683594 369.8125 47.886719 367.746094 47.132812 C 365.679688 46.378906 363.59375 45.671875 361.496094 45.015625 C 359.394531 44.359375 357.28125 43.75 355.15625 43.1875 C 353.027344 42.628906 350.886719 42.117188 348.738281 41.652344 C 346.585938 41.191406 344.425781 40.777344 342.253906 40.414062 C 340.085938 40.046875 337.910156 39.734375 335.722656 39.472656 C 333.539062 39.207031 331.351562 38.992188 329.15625 38.828125 C 326.960938 38.664062 324.765625 38.550781 322.566406 38.488281 C 320.367188 38.425781 318.167969 38.414062 315.96875 38.449219 C 313.769531 38.488281 311.570312 38.578125 309.375 38.714844 C 307.179688 38.851562 304.988281 39.042969 302.800781 39.28125 C 300.613281 39.519531 298.429688 39.808594 296.257812 40.148438 C 294.082031 40.484375 291.917969 40.875 289.761719 41.3125 C 287.605469 41.75 285.460938 42.238281 283.328125 42.773438 C 281.191406 43.308594 279.074219 43.894531 276.964844 44.527344 C 274.859375 45.160156 272.765625 45.84375 270.691406 46.570312 C 268.613281 47.300781 266.558594 48.078125 264.515625 48.902344 C 262.476562 49.726562 260.457031 50.59375 258.457031 51.511719 C 256.453125 52.425781 254.476562 53.386719 252.519531 54.394531 C 250.5625 55.402344 248.632812 56.453125 246.722656 57.546875 C 244.816406 58.644531 242.933594 59.78125 241.078125 60.964844 C 239.222656 62.144531 237.394531 63.367188 235.59375 64.632812 C 233.792969 65.898438 232.023438 67.203125 230.28125 68.550781 C 228.542969 69.898438 226.832031 71.285156 225.15625 72.707031 C 223.480469 74.132812 221.835938 75.59375 220.226562 77.09375 C 218.617188 78.59375 217.042969 80.132812 215.503906 81.703125 C 213.964844 83.273438 212.460938 84.882812 210.996094 86.523438 C 209.53125 88.164062 208.101562 89.835938 206.714844 91.542969 C 205.324219 93.25 203.976562 94.988281 202.667969 96.753906 C 201.359375 98.523438 200.089844 100.320312 198.863281 102.148438 C 197.636719 103.972656 196.449219 105.828125 195.308594 107.707031 C 194.167969 109.589844 193.066406 111.496094 192.011719 113.425781 C 190.957031 115.355469 189.949219 117.308594 188.984375 119.289062 C 188.019531 121.265625 187.097656 123.261719 186.222656 125.28125 C 185.351562 127.300781 184.523438 129.339844 183.742188 131.398438 C 182.964844 133.453125 182.230469 135.527344 181.546875 137.617188 C 180.859375 139.710938 180.222656 141.816406 179.632812 143.933594 C 179.046875 146.054688 178.503906 148.1875 178.015625 150.332031 C 177.523438 152.476562 177.082031 154.632812 176.6875 156.796875 C 176.296875 158.960938 175.953125 161.132812 175.660156 163.316406 C 175.367188 165.496094 175.125 167.683594 174.933594 169.875 C 174.738281 172.066406 174.597656 174.261719 174.503906 176.460938 C 174.414062 178.65625 174.371094 180.855469 174.378906 183.058594 C 174.328125 192.3125 175.203125 201.480469 177 210.558594 C 171.027344 209.707031 165.023438 209.273438 158.992188 209.25 C 155.699219 209.257812 152.410156 209.398438 149.128906 209.675781 C 145.84375 209.953125 142.578125 210.367188 139.332031 210.910156 C 136.082031 211.457031 132.859375 212.136719 129.667969 212.949219 C 126.476562 213.757812 123.320312 214.699219 120.207031 215.769531 C 117.089844 216.839844 114.023438 218.039062 111.007812 219.359375 C 107.988281 220.683594 105.03125 222.128906 102.132812 223.695312 C 99.234375 225.261719 96.40625 226.941406 93.644531 228.742188 C 90.886719 230.539062 88.203125 232.449219 85.601562 234.46875 C 83 236.488281 80.484375 238.609375 78.054688 240.835938 C 75.625 243.0625 73.292969 245.386719 71.054688 247.804688 C 68.820312 250.222656 66.683594 252.726562 64.652344 255.320312 C 62.621094 257.914062 60.703125 260.585938 58.890625 263.339844 C 57.078125 266.089844 55.382812 268.914062 53.804688 271.804688 C 52.226562 274.695312 50.765625 277.644531 49.429688 280.65625 C 48.09375 283.667969 46.882812 286.726562 45.796875 289.839844 C 44.714844 292.949219 43.757812 296.101562 42.933594 299.289062 C 42.105469 302.476562 41.414062 305.695312 40.851562 308.941406 C 40.292969 312.1875 39.863281 315.453125 39.570312 318.734375 C 39.277344 322.015625 39.121094 325.300781 39.101562 328.597656 C 39.078125 331.890625 39.191406 335.179688 39.4375 338.464844 C 39.6875 341.75 40.070312 345.019531 40.585938 348.273438 C 41.105469 351.527344 41.753906 354.753906 42.539062 357.953125 C 43.320312 361.152344 44.234375 364.316406 45.277344 367.441406 C 46.320312 370.566406 47.488281 373.644531 48.785156 376.671875 C 50.078125 379.699219 51.496094 382.671875 53.039062 385.582031 C 54.578125 388.496094 56.234375 391.339844 58.007812 394.113281 C 59.785156 396.890625 61.667969 399.589844 63.664062 402.210938 C 65.660156 404.832031 67.761719 407.363281 69.964844 409.8125 C 72.171875 412.261719 74.472656 414.613281 76.871094 416.871094 C 79.269531 419.132812 81.753906 421.289062 84.332031 423.34375 C 86.90625 425.394531 89.5625 427.339844 92.296875 429.175781 C 95.03125 431.011719 97.839844 432.734375 100.714844 434.339844 C 104.359375 436.792969 108.167969 438.96875 112.132812 440.863281 C 116.097656 442.753906 120.183594 444.347656 124.386719 445.636719 C 128.585938 446.925781 132.859375 447.898438 137.207031 448.558594 C 141.550781 449.214844 145.921875 449.550781 150.316406 449.5625 L 639.457031 449.5625 C 640.921875 449.558594 642.382812 449.519531 643.847656 449.445312 C 645.308594 449.371094 646.769531 449.261719 648.226562 449.117188 C 649.683594 448.96875 651.136719 448.789062 652.585938 448.570312 C 654.035156 448.355469 655.476562 448.101562 656.914062 447.816406 C 658.351562 447.527344 659.777344 447.203125 661.199219 446.847656 C 662.617188 446.488281 664.03125 446.097656 665.429688 445.671875 C 666.832031 445.242188 668.222656 444.78125 669.601562 444.289062 C 670.980469 443.792969 672.34375 443.265625 673.699219 442.703125 C 675.050781 442.140625 676.386719 441.546875 677.710938 440.917969 C 679.035156 440.292969 680.34375 439.632812 681.632812 438.941406 C 682.925781 438.25 684.199219 437.527344 685.457031 436.773438 C 686.710938 436.019531 687.949219 435.234375 689.164062 434.421875 C 690.382812 433.605469 691.578125 432.761719 692.753906 431.890625 C 693.933594 431.015625 695.085938 430.117188 696.21875 429.1875 C 697.351562 428.257812 698.457031 427.300781 699.542969 426.316406 C 700.628906 425.332031 701.691406 424.324219 702.726562 423.289062 C 703.761719 422.25 704.769531 421.191406 705.753906 420.105469 C 706.738281 419.019531 707.695312 417.914062 708.625 416.78125 C 709.554688 415.648438 710.453125 414.496094 711.328125 413.316406 C 712.199219 412.140625 713.042969 410.945312 713.859375 409.726562 C 714.671875 408.511719 715.457031 407.273438 716.210938 406.015625 C 716.964844 404.761719 717.6875 403.488281 718.378906 402.195312 C 719.070312 400.90625 719.730469 399.597656 720.355469 398.273438 C 720.984375 396.949219 721.578125 395.613281 722.140625 394.257812 C 722.703125 392.90625 723.230469 391.542969 723.726562 390.164062 C 724.21875 388.785156 724.679688 387.394531 725.109375 385.992188 C 725.535156 384.59375 725.925781 383.179688 726.285156 381.761719 C 726.640625 380.339844 726.964844 378.910156 727.253906 377.476562 C 727.539062 376.039062 727.792969 374.597656 728.007812 373.148438 C 728.226562 371.699219 728.40625 370.246094 728.554688 368.789062 C 728.699219 367.332031 728.808594 365.871094 728.882812 364.410156 C 728.957031 362.945312 728.996094 361.484375 729 360.019531 C 728.996094 358.554688 728.957031 357.089844 728.882812 355.625 C 728.808594 354.164062 728.699219 352.703125 728.554688 351.246094 C 728.40625 349.789062 728.226562 348.335938 728.007812 346.886719 C 727.792969 345.4375 727.539062 343.996094 727.253906 342.558594 C 726.964844 341.125 726.640625 339.695312 726.285156 338.273438 C 725.925781 336.855469 725.535156 335.445312 725.109375 334.042969 C 724.679688 332.640625 724.21875 331.25 723.726562 329.871094 C 723.230469 328.496094 722.703125 327.128906 722.140625 325.777344 C 721.578125 324.421875 720.984375 323.085938 720.355469 321.761719 C 719.730469 320.4375 719.070312 319.128906 718.378906 317.839844 C 717.6875 316.546875 716.964844 315.273438 716.210938 314.019531 C 715.457031 312.761719 714.671875 311.527344 713.859375 310.308594 C 713.042969 309.089844 712.199219 307.894531 711.328125 306.71875 C 710.453125 305.542969 709.554688 304.386719 708.625 303.253906 C 707.695312 302.125 706.738281 301.015625 705.753906 299.929688 C 704.769531 298.84375 703.761719 297.785156 702.726562 296.75 C 701.691406 295.710938 700.628906 294.703125 699.542969 293.71875 C 698.457031 292.734375 697.351562 291.777344 696.21875 290.847656 C 695.085938 289.917969 693.933594 289.019531 692.753906 288.144531 C 691.578125 287.273438 690.382812 286.429688 689.164062 285.613281 C 687.949219 284.800781 686.710938 284.015625 685.457031 283.261719 C 684.199219 282.507812 682.925781 281.785156 681.632812 281.09375 C 680.34375 280.402344 679.035156 279.742188 677.710938 279.117188 C 676.386719 278.488281 675.050781 277.894531 673.699219 277.332031 C 672.34375 276.769531 670.980469 276.242188 669.601562 275.75 C 668.222656 275.253906 666.832031 274.792969 665.429688 274.367188 C 664.03125 273.9375 662.617188 273.546875 661.199219 273.1875 C 659.777344 272.832031 658.351562 272.507812 656.914062 272.222656 C 655.476562 271.933594 654.035156 271.679688 652.585938 271.464844 C 651.136719 271.246094 649.683594 271.066406 648.226562 270.917969 C 646.769531 270.773438 645.308594 270.664062 643.847656 270.589844 C 642.382812 270.515625 640.921875 270.476562 639.457031 270.472656 Z M 639.457031 270.472656 " fill-opacity="1" fill-rule="nonzero"/></g><path fill="#b4e3fb" d="M 327.277344 519.460938 C 327.277344 520.324219 327.195312 521.175781 327.027344 522.015625 C 326.859375 522.859375 326.609375 523.679688 326.28125 524.472656 C 325.953125 525.269531 325.546875 526.023438 325.070312 526.738281 C 324.59375 527.453125 324.050781 528.113281 323.441406 528.722656 C 322.832031 529.332031 322.171875 529.875 321.457031 530.351562 C 320.742188 530.828125 319.988281 531.234375 319.191406 531.5625 C 318.398438 531.890625 317.578125 532.140625 316.738281 532.308594 C 315.894531 532.476562 315.042969 532.558594 314.179688 532.558594 C 313.320312 532.558594 312.46875 532.476562 311.625 532.308594 C 310.78125 532.140625 309.964844 531.890625 309.167969 531.5625 C 308.375 531.234375 307.621094 530.828125 306.90625 530.351562 C 306.191406 529.875 305.527344 529.332031 304.921875 528.722656 C 304.3125 528.113281 303.769531 527.453125 303.292969 526.738281 C 302.816406 526.023438 302.410156 525.269531 302.082031 524.472656 C 301.753906 523.679688 301.503906 522.859375 301.335938 522.015625 C 301.167969 521.175781 301.085938 520.324219 301.085938 519.460938 C 301.085938 518.601562 301.167969 517.75 301.335938 516.90625 C 301.503906 516.0625 301.753906 515.246094 302.082031 514.449219 C 302.410156 513.65625 302.816406 512.902344 303.292969 512.1875 C 303.769531 511.472656 304.3125 510.808594 304.921875 510.203125 C 305.527344 509.59375 306.191406 509.050781 306.90625 508.574219 C 307.621094 508.097656 308.375 507.691406 309.167969 507.363281 C 309.964844 507.035156 310.78125 506.785156 311.625 506.617188 C 312.46875 506.449219 313.320312 506.367188 314.179688 506.367188 C 315.042969 506.367188 315.894531 506.449219 316.738281 506.617188 C 317.578125 506.785156 318.398438 507.035156 319.191406 507.363281 C 319.988281 507.691406 320.742188 508.097656 321.457031 508.574219 C 322.171875 509.050781 322.832031 509.59375 323.441406 510.203125 C 324.050781 510.808594 324.59375 511.472656 325.070312 512.1875 C 325.546875 512.902344 325.953125 513.65625 326.28125 514.449219 C 326.609375 515.246094 326.859375 516.0625 327.027344 516.90625 C 327.195312 517.75 327.277344 518.601562 327.277344 519.460938 Z M 327.277344 519.460938 " fill-opacity="1" fill-rule="nonzero"/><path fill="#b4e3fb" d="M 488.851562 611.136719 C 488.851562 611.703125 488.792969 612.269531 488.683594 612.828125 C 488.574219 613.386719 488.40625 613.929688 488.191406 614.457031 C 487.972656 614.980469 487.703125 615.480469 487.386719 615.957031 C 487.070312 616.429688 486.710938 616.867188 486.308594 617.269531 C 485.90625 617.671875 485.46875 618.03125 484.996094 618.347656 C 484.519531 618.664062 484.019531 618.933594 483.496094 619.152344 C 482.96875 619.367188 482.425781 619.535156 481.867188 619.644531 C 481.308594 619.753906 480.742188 619.8125 480.175781 619.8125 C 479.605469 619.8125 479.039062 619.753906 478.480469 619.644531 C 477.921875 619.535156 477.378906 619.367188 476.855469 619.152344 C 476.328125 618.933594 475.828125 618.664062 475.355469 618.347656 C 474.878906 618.03125 474.441406 617.671875 474.039062 617.269531 C 473.636719 616.867188 473.277344 616.429688 472.960938 615.957031 C 472.644531 615.480469 472.375 614.980469 472.160156 614.457031 C 471.941406 613.929688 471.777344 613.386719 471.664062 612.828125 C 471.554688 612.269531 471.5 611.703125 471.5 611.136719 C 471.5 610.566406 471.554688 610 471.664062 609.441406 C 471.777344 608.882812 471.941406 608.339844 472.160156 607.816406 C 472.375 607.289062 472.644531 606.789062 472.960938 606.316406 C 473.277344 605.839844 473.636719 605.402344 474.039062 605 C 474.441406 604.597656 474.878906 604.238281 475.355469 603.921875 C 475.828125 603.605469 476.328125 603.335938 476.855469 603.121094 C 477.378906 602.902344 477.921875 602.738281 478.480469 602.625 C 479.039062 602.515625 479.605469 602.460938 480.175781 602.460938 C 480.742188 602.460938 481.308594 602.515625 481.867188 602.625 C 482.425781 602.738281 482.96875 602.902344 483.496094 603.121094 C 484.019531 603.335938 484.519531 603.605469 484.996094 603.921875 C 485.46875 604.238281 485.90625 604.597656 486.308594 605 C 486.710938 605.402344 487.070312 605.839844 487.386719 606.316406 C 487.703125 606.789062 487.972656 607.289062 488.191406 607.816406 C 488.40625 608.339844 488.574219 608.882812 488.683594 609.441406 C 488.796875 610 488.851562 610.566406 488.851562 611.136719 Z M 488.851562 611.136719 " fill-opacity="1" fill-rule="nonzero"/><path fill="#b4e3fb" d="M 432.046875 713.777344 C 432.046875 714.496094 431.976562 715.210938 431.835938 715.914062 C 431.695312 716.621094 431.488281 717.308594 431.210938 717.972656 C 430.9375 718.636719 430.597656 719.269531 430.199219 719.871094 C 429.796875 720.46875 429.34375 721.023438 428.832031 721.53125 C 428.324219 722.039062 427.769531 722.496094 427.171875 722.894531 C 426.574219 723.296875 425.941406 723.632812 425.277344 723.910156 C 424.609375 724.183594 423.925781 724.390625 423.21875 724.53125 C 422.511719 724.671875 421.796875 724.742188 421.078125 724.742188 C 420.359375 724.742188 419.644531 724.671875 418.9375 724.53125 C 418.230469 724.390625 417.546875 724.183594 416.882812 723.910156 C 416.214844 723.632812 415.582031 723.296875 414.984375 722.894531 C 414.386719 722.496094 413.832031 722.039062 413.324219 721.53125 C 412.8125 721.023438 412.359375 720.46875 411.957031 719.871094 C 411.558594 719.269531 411.222656 718.636719 410.945312 717.972656 C 410.667969 717.308594 410.460938 716.621094 410.320312 715.914062 C 410.179688 715.210938 410.109375 714.496094 410.109375 713.777344 C 410.109375 713.054688 410.179688 712.34375 410.320312 711.636719 C 410.460938 710.929688 410.667969 710.242188 410.945312 709.578125 C 411.222656 708.914062 411.558594 708.28125 411.957031 707.683594 C 412.359375 707.082031 412.8125 706.53125 413.324219 706.019531 C 413.832031 705.511719 414.386719 705.054688 414.984375 704.65625 C 415.582031 704.257812 416.214844 703.917969 416.882812 703.644531 C 417.546875 703.367188 418.230469 703.160156 418.9375 703.019531 C 419.644531 702.878906 420.359375 702.808594 421.078125 702.808594 C 421.796875 702.808594 422.511719 702.878906 423.21875 703.019531 C 423.925781 703.160156 424.609375 703.367188 425.277344 703.644531 C 425.941406 703.917969 426.574219 704.257812 427.171875 704.65625 C 427.769531 705.054688 428.324219 705.511719 428.832031 706.019531 C 429.34375 706.53125 429.796875 707.082031 430.199219 707.683594 C 430.597656 708.28125 430.9375 708.914062 431.210938 709.578125 C 431.488281 710.242188 431.695312 710.929688 431.835938 711.636719 C 431.976562 712.34375 432.046875 713.054688 432.046875 713.777344 Z M 432.046875 713.777344 " fill-opacity="1" fill-rule="nonzero"/></svg>