<svg xmlns="http://www.w3.org/2000/svg" xmlns:xlink="http://www.w3.org/1999/xlink" width="1080" zoomAndPan="magnify" viewBox="0 0 810 1439.999935" height="1920" preserveAspectRatio="xMidYMid meet" version="1.0"><defs><clipPath id="0181de8028"><path d="M 253 772 L 414 772 L 414 817.125 L 253 817.125 Z M 253 772 " clip-rule="nonzero"/></clipPath><clipPath id="d622dd89c8"><path d="M 247 622.875 L 409 622.875 L 409 666 L 247 666 Z M 247 622.875 " clip-rule="nonzero"/></clipPath></defs><path fill="#26477a" d="M 263.632812 708.074219 C 341.027344 709.222656 418.421875 708.6875 495.742188 707.535156 C 510.546875 707.304688 525.503906 707.535156 539.921875 703.242188 C 554.34375 698.945312 564.085938 691.042969 566.539062 676.46875 C 568.535156 664.578125 563.855469 652 553.117188 646.015625 C 544.832031 641.335938 533.480469 639.1875 524.351562 642.488281 C 511.3125 647.167969 509.011719 661.28125 509.933594 673.554688 C 510.160156 677.464844 516.296875 677.542969 516.066406 673.554688 C 515.222656 661.664062 517.527344 648.394531 531.640625 647.167969 C 539.308594 646.476562 548.667969 649.085938 554.34375 654.53125 C 568.996094 668.722656 558.101562 690.277344 541.6875 696.261719 C 532.328125 699.558594 522.28125 700.785156 512.386719 701.09375 C 471.195312 702.320312 429.851562 702.242188 388.507812 702.398438 C 347.164062 702.550781 305.285156 702.550781 263.632812 701.9375 C 259.722656 701.9375 259.722656 708.074219 263.632812 708.074219 Z M 263.632812 708.074219 " fill-opacity="1" fill-rule="nonzero"/><path fill="#26477a" d="M 245.992188 732.160156 C 311.265625 731.238281 376.621094 731.546875 441.972656 732.3125 C 458.488281 732.46875 474.953125 732.695312 491.371094 733.003906 C 505.484375 733.234375 522.664062 734.078125 534.015625 743.128906 C 546.902344 753.484375 546.75 778.570312 529.183594 783.785156 C 515.070312 788.003906 503.796875 780.5625 506.863281 765.222656 C 507.628906 761.386719 501.722656 759.699219 500.957031 763.609375 C 498.964844 773.660156 500.265625 784.09375 510.46875 788.847656 C 518.214844 792.453125 528.878906 791.6875 536.242188 787.542969 C 547.441406 781.40625 551.199219 767.0625 548.359375 755.25 C 545.140625 741.902344 534.785156 734.613281 522.203125 730.855469 C 508.472656 726.789062 494.359375 726.867188 480.246094 726.636719 C 450.640625 726.175781 421.109375 725.871094 391.5 725.714844 C 343.023438 725.332031 294.46875 725.332031 245.992188 726.023438 C 242.003906 726.101562 242.003906 732.238281 245.992188 732.160156 Z M 245.992188 732.160156 " fill-opacity="1" fill-rule="nonzero"/><path fill="#26477a" d="M 283.882812 754.941406 C 329.984375 754.328125 376.160156 754.789062 422.257812 755.328125 C 432.152344 755.402344 442.507812 754.867188 452.25 756.398438 C 458.003906 757.242188 462.683594 758.703125 466.59375 763.152344 C 472.652344 769.976562 471.042969 780.5625 462.910156 785.550781 C 454.78125 790.535156 433.6875 788.082031 437.0625 774.964844 C 437.984375 771.128906 432.078125 769.515625 431.078125 773.351562 C 426.707031 790.460938 448.953125 797.054688 461.839844 792.761719 C 479.402344 786.855469 481.015625 763.535156 465.671875 754.097656 C 455.855469 748.117188 442.433594 749.417969 431.308594 749.265625 C 411.75 749.035156 392.191406 748.804688 372.628906 748.730469 C 343.023438 748.5 313.492188 748.421875 283.882812 748.804688 C 279.972656 748.882812 279.972656 755.019531 283.882812 754.941406 Z M 283.882812 754.941406 " fill-opacity="1" fill-rule="nonzero"/><g clip-path="url(#0181de8028)"><path fill="#26477a" d="M 256.347656 779.796875 C 293.703125 779.183594 331.058594 779.644531 368.410156 780.101562 C 376.390625 780.179688 385.058594 779.644531 392.957031 781.023438 C 404.691406 783.09375 413.207031 795.0625 404.386719 806.183594 C 397.941406 814.316406 379.074219 811.632812 381.757812 798.820312 C 382.527344 794.910156 376.621094 793.296875 375.851562 797.132812 C 371.941406 815.773438 398.25 823.90625 409.066406 810.328125 C 409.820312 809.417969 410.492188 808.453125 411.085938 807.433594 C 411.679688 806.414062 412.183594 805.351562 412.601562 804.25 C 413.019531 803.144531 413.347656 802.015625 413.578125 800.859375 C 413.808594 799.703125 413.941406 798.535156 413.980469 797.355469 C 414.019531 796.175781 413.960938 795 413.804688 793.832031 C 413.648438 792.660156 413.394531 791.511719 413.050781 790.382812 C 412.703125 789.257812 412.265625 788.164062 411.738281 787.109375 C 411.210938 786.050781 410.601562 785.046875 409.910156 784.09375 C 404.234375 776.039062 395.027344 774.582031 385.746094 774.195312 C 342.714844 772.355469 299.300781 772.96875 256.347656 773.660156 C 252.359375 773.738281 252.359375 779.875 256.347656 779.796875 Z M 256.347656 779.796875 " fill-opacity="1" fill-rule="nonzero"/></g><path fill="#26477a" d="M 276.828125 685.75 C 324.691406 686.519531 372.628906 685.90625 420.496094 685.289062 C 431.617188 685.136719 443.8125 686.058594 454.320312 681.914062 C 471.503906 675.164062 475.03125 649.929688 459.152344 639.34375 C 444.964844 629.90625 419.574219 639.113281 424.023438 658.441406 C 424.867188 662.277344 430.847656 660.667969 429.929688 656.832031 C 426.859375 643.636719 445.039062 638.652344 454.472656 643.714844 C 469.507812 651.84375 463.910156 672.789062 449.566406 677.007812 C 439.441406 680.074219 427.398438 679.078125 416.8125 679.230469 C 370.175781 679.84375 323.464844 680.382812 276.828125 679.613281 C 272.839844 679.539062 272.839844 685.675781 276.828125 685.75 Z M 276.828125 685.75 " fill-opacity="1" fill-rule="nonzero"/><g clip-path="url(#d622dd89c8)"><path fill="#26477a" d="M 250.59375 664.964844 C 293.472656 665.652344 336.65625 665.882812 379.535156 664.425781 C 388.660156 664.121094 397.941406 663.046875 404.003906 655.449219 C 410.0625 647.855469 410.140625 637.269531 403.695312 629.445312 C 393.109375 616.558594 366.339844 623.769531 370.328125 642.179688 C 371.171875 646.09375 377.078125 644.40625 376.234375 640.570312 C 373.78125 629.140625 391.347656 625.765625 398.097656 632.363281 C 408.910156 642.949219 399.171875 655.679688 387.511719 657.597656 C 379.457031 658.902344 370.636719 658.367188 362.503906 658.519531 C 325.152344 658.980469 287.871094 659.363281 250.59375 658.828125 C 246.605469 658.75 246.605469 664.886719 250.59375 664.964844 Z M 250.59375 664.964844 " fill-opacity="1" fill-rule="nonzero"/></g></svg>