<svg xmlns="http://www.w3.org/2000/svg" xmlns:xlink="http://www.w3.org/1999/xlink" width="1080" zoomAndPan="magnify" viewBox="0 0 810 1439.999935" height="1920" preserveAspectRatio="xMidYMid meet" version="1.0"><defs><clipPath id="50e63ce2ad"><path d="M 243 558 L 567 558 L 567 751 L 243 751 Z M 243 558 " clip-rule="nonzero"/></clipPath></defs><path fill="#6b99d2" d="M 321.019531 773.308594 L 324.863281 773.308594 C 325.019531 773.308594 325.164062 773.335938 325.304688 773.394531 C 325.445312 773.453125 325.570312 773.539062 325.679688 773.644531 C 325.789062 773.753906 325.871094 773.878906 325.929688 774.019531 C 325.988281 774.160156 326.019531 774.308594 326.019531 774.460938 L 326.019531 817.269531 C 326.019531 817.421875 325.988281 817.570312 325.929688 817.710938 C 325.871094 817.851562 325.789062 817.976562 325.679688 818.085938 C 325.570312 818.191406 325.445312 818.277344 325.304688 818.335938 C 325.164062 818.394531 325.019531 818.421875 324.863281 818.421875 L 321.019531 818.421875 C 320.867188 818.421875 320.722656 818.394531 320.582031 818.335938 C 320.4375 818.277344 320.3125 818.191406 320.207031 818.085938 C 320.097656 817.976562 320.015625 817.851562 319.957031 817.710938 C 319.898438 817.570312 319.867188 817.421875 319.867188 817.269531 L 319.867188 774.460938 C 319.867188 774.308594 319.898438 774.160156 319.957031 774.019531 C 320.015625 773.878906 320.097656 773.753906 320.207031 773.644531 C 320.3125 773.539062 320.4375 773.453125 320.582031 773.394531 C 320.722656 773.335938 320.867188 773.308594 321.019531 773.308594 Z M 321.019531 773.308594 " fill-opacity="1" fill-rule="nonzero"/><path fill="#6b99d2" d="M 345.542969 793.984375 L 345.542969 797.828125 C 345.542969 797.980469 345.511719 798.128906 345.453125 798.269531 C 345.394531 798.410156 345.3125 798.535156 345.203125 798.644531 C 345.097656 798.753906 344.972656 798.835938 344.832031 798.894531 C 344.6875 798.953125 344.542969 798.980469 344.390625 798.980469 L 301.582031 798.980469 C 301.429688 798.980469 301.28125 798.953125 301.140625 798.894531 C 301 798.835938 300.875 798.753906 300.765625 798.644531 C 300.65625 798.535156 300.574219 798.410156 300.515625 798.269531 C 300.457031 798.128906 300.429688 797.980469 300.429688 797.828125 L 300.429688 793.984375 C 300.429688 793.832031 300.457031 793.6875 300.515625 793.542969 C 300.574219 793.402344 300.65625 793.277344 300.765625 793.171875 C 300.875 793.0625 301 792.980469 301.140625 792.921875 C 301.28125 792.863281 301.429688 792.832031 301.582031 792.832031 L 344.390625 792.832031 C 344.542969 792.832031 344.6875 792.863281 344.832031 792.921875 C 344.972656 792.980469 345.097656 793.0625 345.203125 793.171875 C 345.3125 793.277344 345.394531 793.402344 345.453125 793.542969 C 345.511719 793.6875 345.542969 793.832031 345.542969 793.984375 Z M 345.542969 793.984375 " fill-opacity="1" fill-rule="nonzero"/><path fill="#6b99d2" d="M 337.550781 778.597656 L 340.269531 781.3125 C 340.378906 781.421875 340.460938 781.546875 340.519531 781.6875 C 340.578125 781.828125 340.609375 781.976562 340.609375 782.128906 C 340.609375 782.28125 340.578125 782.429688 340.519531 782.570312 C 340.460938 782.710938 340.378906 782.835938 340.269531 782.945312 L 310 813.214844 C 309.890625 813.324219 309.765625 813.40625 309.625 813.464844 C 309.484375 813.523438 309.335938 813.550781 309.183594 813.550781 C 309.03125 813.550781 308.882812 813.523438 308.742188 813.464844 C 308.601562 813.40625 308.476562 813.324219 308.371094 813.214844 L 305.652344 810.496094 C 305.542969 810.386719 305.460938 810.265625 305.402344 810.121094 C 305.34375 809.980469 305.3125 809.835938 305.3125 809.679688 C 305.3125 809.527344 305.34375 809.382812 305.402344 809.238281 C 305.460938 809.097656 305.542969 808.972656 305.652344 808.867188 L 335.921875 778.597656 C 336.03125 778.488281 336.152344 778.40625 336.296875 778.347656 C 336.4375 778.289062 336.582031 778.257812 336.738281 778.257812 C 336.890625 778.257812 337.035156 778.289062 337.179688 778.347656 C 337.320312 778.40625 337.445312 778.488281 337.550781 778.597656 Z M 337.550781 778.597656 " fill-opacity="1" fill-rule="nonzero"/><path fill="#6b99d2" d="M 340.332031 810.515625 L 337.613281 813.234375 C 337.503906 813.339844 337.378906 813.425781 337.238281 813.484375 C 337.097656 813.542969 336.949219 813.570312 336.796875 813.570312 C 336.644531 813.570312 336.496094 813.542969 336.355469 813.484375 C 336.214844 813.425781 336.089844 813.339844 335.984375 813.234375 L 305.710938 782.964844 C 305.605469 782.855469 305.519531 782.730469 305.460938 782.589844 C 305.40625 782.449219 305.375 782.300781 305.375 782.148438 C 305.375 781.996094 305.40625 781.847656 305.460938 781.707031 C 305.519531 781.566406 305.605469 781.441406 305.710938 781.332031 L 308.429688 778.617188 C 308.539062 778.507812 308.664062 778.425781 308.804688 778.367188 C 308.945312 778.308594 309.09375 778.277344 309.246094 778.277344 C 309.398438 778.277344 309.546875 778.308594 309.6875 778.367188 C 309.828125 778.425781 309.953125 778.507812 310.0625 778.617188 L 340.332031 808.886719 C 340.4375 808.992188 340.523438 809.117188 340.582031 809.257812 C 340.640625 809.402344 340.667969 809.546875 340.667969 809.699219 C 340.667969 809.855469 340.640625 810 340.582031 810.140625 C 340.523438 810.28125 340.4375 810.40625 340.332031 810.515625 Z M 340.332031 810.515625 " fill-opacity="1" fill-rule="nonzero"/><path fill="#6b99d2" d="M 501.507812 771.308594 L 505.351562 771.308594 C 505.503906 771.308594 505.652344 771.339844 505.792969 771.398438 C 505.933594 771.457031 506.058594 771.539062 506.167969 771.648438 C 506.273438 771.753906 506.359375 771.878906 506.417969 772.019531 C 506.476562 772.164062 506.503906 772.308594 506.503906 772.460938 L 506.503906 815.269531 C 506.503906 815.421875 506.476562 815.570312 506.417969 815.710938 C 506.359375 815.851562 506.273438 815.976562 506.167969 816.085938 C 506.058594 816.195312 505.933594 816.277344 505.792969 816.335938 C 505.652344 816.394531 505.503906 816.421875 505.351562 816.421875 L 501.507812 816.421875 C 501.355469 816.421875 501.207031 816.394531 501.066406 816.335938 C 500.925781 816.277344 500.800781 816.195312 500.691406 816.085938 C 500.585938 815.976562 500.5 815.851562 500.441406 815.710938 C 500.382812 815.570312 500.355469 815.421875 500.355469 815.269531 L 500.355469 772.460938 C 500.355469 772.308594 500.382812 772.164062 500.441406 772.019531 C 500.5 771.878906 500.585938 771.753906 500.691406 771.648438 C 500.800781 771.539062 500.925781 771.457031 501.066406 771.398438 C 501.207031 771.339844 501.355469 771.308594 501.507812 771.308594 Z M 501.507812 771.308594 " fill-opacity="1" fill-rule="nonzero"/><path fill="#6b99d2" d="M 526.027344 791.910156 L 526.027344 795.753906 C 526.027344 795.90625 526 796.054688 525.941406 796.195312 C 525.882812 796.335938 525.800781 796.460938 525.691406 796.570312 C 525.582031 796.675781 525.457031 796.761719 525.316406 796.820312 C 525.175781 796.878906 525.027344 796.90625 524.875 796.90625 L 482.066406 796.90625 C 481.914062 796.90625 481.769531 796.878906 481.625 796.820312 C 481.484375 796.761719 481.359375 796.675781 481.253906 796.570312 C 481.144531 796.460938 481.0625 796.335938 481.003906 796.195312 C 480.945312 796.054688 480.914062 795.90625 480.914062 795.753906 L 480.914062 791.910156 C 480.914062 791.757812 480.945312 791.609375 481.003906 791.46875 C 481.0625 791.328125 481.144531 791.203125 481.253906 791.09375 C 481.359375 790.988281 481.484375 790.902344 481.625 790.84375 C 481.769531 790.785156 481.914062 790.757812 482.066406 790.757812 L 524.875 790.757812 C 525.027344 790.757812 525.175781 790.785156 525.316406 790.84375 C 525.457031 790.902344 525.582031 790.988281 525.691406 791.09375 C 525.800781 791.203125 525.882812 791.328125 525.941406 791.46875 C 526 791.609375 526.027344 791.757812 526.027344 791.910156 Z M 526.027344 791.910156 " fill-opacity="1" fill-rule="nonzero"/><path fill="#6b99d2" d="M 518.066406 776.535156 L 520.785156 779.253906 C 520.894531 779.363281 520.976562 779.488281 521.035156 779.628906 C 521.09375 779.769531 521.121094 779.917969 521.125 780.070312 C 521.121094 780.222656 521.09375 780.367188 521.035156 780.511719 C 520.976562 780.652344 520.894531 780.777344 520.785156 780.882812 L 490.515625 811.152344 C 490.40625 811.261719 490.28125 811.34375 490.140625 811.402344 C 490 811.460938 489.851562 811.492188 489.699219 811.492188 C 489.546875 811.492188 489.398438 811.460938 489.257812 811.402344 C 489.117188 811.34375 488.992188 811.261719 488.886719 811.152344 L 486.167969 808.4375 C 486.058594 808.328125 485.976562 808.203125 485.917969 808.0625 C 485.859375 807.921875 485.828125 807.773438 485.828125 807.621094 C 485.828125 807.46875 485.859375 807.320312 485.917969 807.179688 C 485.976562 807.039062 486.058594 806.914062 486.167969 806.804688 L 516.4375 776.535156 C 516.546875 776.429688 516.667969 776.34375 516.8125 776.285156 C 516.953125 776.226562 517.097656 776.199219 517.253906 776.199219 C 517.40625 776.199219 517.550781 776.226562 517.695312 776.285156 C 517.835938 776.34375 517.960938 776.429688 518.066406 776.535156 Z M 518.066406 776.535156 " fill-opacity="1" fill-rule="nonzero"/><path fill="#6b99d2" d="M 520.800781 808.46875 L 518.085938 811.1875 C 517.976562 811.296875 517.851562 811.378906 517.710938 811.4375 C 517.570312 811.496094 517.421875 811.523438 517.269531 811.527344 C 517.117188 811.527344 516.96875 811.496094 516.828125 811.4375 C 516.6875 811.378906 516.5625 811.296875 516.453125 811.1875 L 486.183594 780.917969 C 486.074219 780.808594 485.992188 780.683594 485.933594 780.542969 C 485.875 780.402344 485.847656 780.253906 485.847656 780.101562 C 485.847656 779.949219 485.875 779.800781 485.933594 779.660156 C 485.992188 779.519531 486.074219 779.394531 486.183594 779.289062 L 488.902344 776.570312 C 489.011719 776.460938 489.132812 776.378906 489.277344 776.320312 C 489.417969 776.261719 489.5625 776.230469 489.71875 776.230469 C 489.871094 776.230469 490.015625 776.261719 490.160156 776.320312 C 490.300781 776.378906 490.425781 776.460938 490.53125 776.570312 L 520.800781 806.839844 C 520.910156 806.949219 520.992188 807.070312 521.050781 807.214844 C 521.109375 807.355469 521.140625 807.5 521.140625 807.65625 C 521.140625 807.808594 521.109375 807.953125 521.050781 808.097656 C 520.992188 808.238281 520.910156 808.363281 520.800781 808.46875 Z M 520.800781 808.46875 " fill-opacity="1" fill-rule="nonzero"/><path fill="#26477a" d="M 424.871094 765.160156 L 428.175781 765.160156 C 428.308594 765.160156 428.4375 765.183594 428.558594 765.234375 C 428.679688 765.285156 428.789062 765.359375 428.882812 765.453125 C 428.976562 765.546875 429.046875 765.65625 429.097656 765.777344 C 429.148438 765.898438 429.175781 766.027344 429.175781 766.160156 L 429.175781 803.125 C 429.175781 803.257812 429.148438 803.386719 429.097656 803.507812 C 429.046875 803.628906 428.976562 803.738281 428.882812 803.832031 C 428.789062 803.925781 428.679688 803.996094 428.558594 804.046875 C 428.4375 804.097656 428.308594 804.125 428.175781 804.125 L 424.871094 804.125 C 424.738281 804.125 424.609375 804.097656 424.488281 804.046875 C 424.367188 803.996094 424.257812 803.925781 424.164062 803.832031 C 424.070312 803.738281 423.996094 803.628906 423.945312 803.507812 C 423.898438 803.386719 423.871094 803.257812 423.871094 803.125 L 423.871094 766.160156 C 423.871094 766.027344 423.898438 765.898438 423.945312 765.777344 C 423.996094 765.65625 424.070312 765.546875 424.164062 765.453125 C 424.257812 765.359375 424.367188 765.285156 424.488281 765.234375 C 424.609375 765.183594 424.738281 765.160156 424.871094 765.160156 Z M 424.871094 765.160156 " fill-opacity="1" fill-rule="nonzero"/><path fill="#26477a" d="M 446.085938 782.992188 L 446.085938 786.300781 C 446.085938 786.429688 446.0625 786.558594 446.011719 786.679688 C 445.960938 786.804688 445.886719 786.910156 445.792969 787.003906 C 445.699219 787.097656 445.589844 787.171875 445.46875 787.222656 C 445.347656 787.273438 445.21875 787.296875 445.085938 787.296875 L 408.121094 787.296875 C 407.988281 787.296875 407.859375 787.273438 407.738281 787.222656 C 407.617188 787.171875 407.507812 787.097656 407.414062 787.003906 C 407.320312 786.910156 407.25 786.804688 407.199219 786.679688 C 407.148438 786.558594 407.121094 786.429688 407.121094 786.300781 L 407.121094 782.992188 C 407.121094 782.859375 407.148438 782.734375 407.199219 782.609375 C 407.25 782.488281 407.320312 782.378906 407.414062 782.285156 C 407.507812 782.191406 407.617188 782.121094 407.738281 782.070312 C 407.859375 782.019531 407.988281 781.996094 408.121094 781.996094 L 445.085938 781.996094 C 445.21875 781.996094 445.347656 782.019531 445.46875 782.070312 C 445.589844 782.121094 445.699219 782.191406 445.792969 782.285156 C 445.886719 782.378906 445.960938 782.488281 446.011719 782.609375 C 446.0625 782.734375 446.085938 782.859375 446.085938 782.992188 Z M 446.085938 782.992188 " fill-opacity="1" fill-rule="nonzero"/><path fill="#26477a" d="M 439.167969 769.652344 L 441.507812 771.988281 C 441.597656 772.082031 441.671875 772.191406 441.722656 772.3125 C 441.773438 772.4375 441.796875 772.5625 441.796875 772.695312 C 441.796875 772.828125 441.773438 772.957031 441.722656 773.078125 C 441.671875 773.199219 441.597656 773.308594 441.507812 773.402344 L 415.367188 799.542969 C 415.273438 799.632812 415.164062 799.707031 415.042969 799.757812 C 414.921875 799.808594 414.792969 799.832031 414.660156 799.832031 C 414.527344 799.832031 414.402344 799.808594 414.277344 799.757812 C 414.15625 799.707031 414.046875 799.632812 413.953125 799.542969 L 411.617188 797.203125 C 411.523438 797.109375 411.449219 797.003906 411.398438 796.878906 C 411.347656 796.757812 411.324219 796.628906 411.324219 796.496094 C 411.324219 796.363281 411.347656 796.238281 411.398438 796.113281 C 411.449219 795.992188 411.523438 795.882812 411.617188 795.789062 L 437.753906 769.652344 C 437.847656 769.558594 437.957031 769.484375 438.078125 769.433594 C 438.203125 769.382812 438.328125 769.359375 438.460938 769.359375 C 438.59375 769.359375 438.722656 769.382812 438.84375 769.433594 C 438.96875 769.484375 439.074219 769.558594 439.167969 769.652344 Z M 439.167969 769.652344 " fill-opacity="1" fill-rule="nonzero"/><path fill="#26477a" d="M 441.519531 797.214844 L 439.179688 799.550781 C 439.085938 799.644531 438.980469 799.71875 438.855469 799.769531 C 438.734375 799.820312 438.605469 799.84375 438.472656 799.84375 C 438.339844 799.84375 438.214844 799.820312 438.089844 799.769531 C 437.96875 799.71875 437.859375 799.644531 437.765625 799.550781 L 411.628906 773.414062 C 411.535156 773.320312 411.460938 773.210938 411.410156 773.089844 C 411.359375 772.96875 411.335938 772.839844 411.335938 772.707031 C 411.335938 772.574219 411.359375 772.445312 411.410156 772.324219 C 411.460938 772.203125 411.535156 772.09375 411.628906 772 L 413.964844 769.664062 C 414.058594 769.570312 414.167969 769.496094 414.289062 769.445312 C 414.414062 769.394531 414.539062 769.371094 414.671875 769.371094 C 414.804688 769.371094 414.933594 769.394531 415.054688 769.445312 C 415.175781 769.496094 415.285156 769.570312 415.378906 769.664062 L 441.519531 795.800781 C 441.613281 795.894531 441.683594 796.003906 441.734375 796.125 C 441.785156 796.25 441.8125 796.375 441.808594 796.507812 C 441.808594 796.640625 441.785156 796.769531 441.734375 796.890625 C 441.683594 797.011719 441.613281 797.121094 441.519531 797.214844 Z M 441.519531 797.214844 " fill-opacity="1" fill-rule="nonzero"/><path fill="#26477a" d="M 336.703125 843.027344 L 340.007812 843.027344 C 340.140625 843.027344 340.269531 843.054688 340.390625 843.105469 C 340.511719 843.15625 340.621094 843.226562 340.714844 843.320312 C 340.808594 843.414062 340.878906 843.523438 340.929688 843.644531 C 340.980469 843.765625 341.007812 843.894531 341.007812 844.027344 L 341.007812 880.992188 C 341.007812 881.125 340.980469 881.253906 340.929688 881.375 C 340.878906 881.496094 340.808594 881.605469 340.714844 881.699219 C 340.621094 881.792969 340.511719 881.867188 340.390625 881.917969 C 340.269531 881.96875 340.140625 881.992188 340.007812 881.992188 L 336.703125 881.992188 C 336.570312 881.992188 336.441406 881.96875 336.320312 881.917969 C 336.199219 881.867188 336.089844 881.792969 335.996094 881.699219 C 335.902344 881.605469 335.828125 881.496094 335.777344 881.375 C 335.730469 881.253906 335.703125 881.125 335.703125 880.992188 L 335.703125 844.027344 C 335.703125 843.894531 335.730469 843.765625 335.777344 843.644531 C 335.828125 843.523438 335.902344 843.414062 335.996094 843.320312 C 336.089844 843.226562 336.199219 843.15625 336.320312 843.105469 C 336.441406 843.054688 336.570312 843.027344 336.703125 843.027344 Z M 336.703125 843.027344 " fill-opacity="1" fill-rule="nonzero"/><path fill="#26477a" d="M 357.839844 860.9375 L 357.839844 864.242188 C 357.839844 864.375 357.816406 864.503906 357.765625 864.625 C 357.714844 864.75 357.640625 864.855469 357.546875 864.949219 C 357.453125 865.042969 357.347656 865.117188 357.222656 865.167969 C 357.101562 865.21875 356.972656 865.242188 356.84375 865.242188 L 319.875 865.242188 C 319.742188 865.242188 319.617188 865.21875 319.492188 865.167969 C 319.371094 865.117188 319.261719 865.042969 319.167969 864.949219 C 319.074219 864.855469 319.003906 864.75 318.953125 864.625 C 318.902344 864.503906 318.875 864.375 318.875 864.242188 L 318.875 860.9375 C 318.875 860.804688 318.902344 860.679688 318.953125 860.554688 C 319.003906 860.433594 319.074219 860.324219 319.167969 860.230469 C 319.261719 860.136719 319.371094 860.066406 319.492188 860.015625 C 319.617188 859.964844 319.742188 859.9375 319.875 859.9375 L 356.84375 859.9375 C 356.972656 859.9375 357.101562 859.964844 357.222656 860.015625 C 357.347656 860.066406 357.453125 860.136719 357.546875 860.230469 C 357.640625 860.324219 357.714844 860.433594 357.765625 860.554688 C 357.816406 860.679688 357.839844 860.804688 357.839844 860.9375 Z M 357.839844 860.9375 " fill-opacity="1" fill-rule="nonzero"/><path fill="#26477a" d="M 350.996094 847.59375 L 353.332031 849.929688 C 353.425781 850.023438 353.5 850.132812 353.550781 850.253906 C 353.601562 850.375 353.625 850.503906 353.625 850.636719 C 353.625 850.769531 353.601562 850.898438 353.550781 851.019531 C 353.5 851.140625 353.425781 851.25 353.332031 851.34375 L 327.195312 877.480469 C 327.101562 877.574219 326.992188 877.648438 326.871094 877.699219 C 326.746094 877.75 326.621094 877.773438 326.488281 877.773438 C 326.355469 877.773438 326.226562 877.75 326.105469 877.699219 C 325.984375 877.648438 325.875 877.574219 325.78125 877.480469 L 323.445312 875.144531 C 323.351562 875.050781 323.277344 874.945312 323.226562 874.820312 C 323.175781 874.699219 323.152344 874.570312 323.152344 874.4375 C 323.152344 874.304688 323.175781 874.179688 323.226562 874.054688 C 323.277344 873.933594 323.351562 873.824219 323.445312 873.730469 L 349.582031 847.59375 C 349.675781 847.5 349.785156 847.425781 349.90625 847.375 C 350.03125 847.324219 350.15625 847.300781 350.289062 847.300781 C 350.421875 847.300781 350.550781 847.324219 350.671875 847.375 C 350.792969 847.425781 350.902344 847.5 350.996094 847.59375 Z M 350.996094 847.59375 " fill-opacity="1" fill-rule="nonzero"/><path fill="#26477a" d="M 353.277344 875.15625 L 350.9375 877.492188 C 350.84375 877.585938 350.738281 877.65625 350.613281 877.707031 C 350.492188 877.757812 350.363281 877.785156 350.230469 877.785156 C 350.097656 877.785156 349.972656 877.757812 349.847656 877.707031 C 349.726562 877.65625 349.617188 877.585938 349.523438 877.492188 L 323.386719 851.351562 C 323.292969 851.257812 323.21875 851.152344 323.167969 851.027344 C 323.117188 850.90625 323.09375 850.777344 323.09375 850.648438 C 323.09375 850.515625 323.117188 850.386719 323.167969 850.265625 C 323.21875 850.140625 323.292969 850.035156 323.386719 849.941406 L 325.722656 847.601562 C 325.816406 847.507812 325.925781 847.4375 326.046875 847.386719 C 326.171875 847.335938 326.296875 847.308594 326.429688 847.308594 C 326.5625 847.308594 326.691406 847.335938 326.8125 847.386719 C 326.933594 847.4375 327.042969 847.507812 327.136719 847.601562 L 353.277344 873.742188 C 353.371094 873.835938 353.441406 873.945312 353.492188 874.066406 C 353.542969 874.1875 353.570312 874.316406 353.570312 874.449219 C 353.570312 874.582031 353.542969 874.707031 353.492188 874.832031 C 353.441406 874.953125 353.371094 875.0625 353.277344 875.15625 Z M 353.277344 875.15625 " fill-opacity="1" fill-rule="nonzero"/><path fill="#26477a" d="M 485.671875 847.179688 L 488.441406 847.179688 C 488.675781 847.179688 488.875 847.261719 489.039062 847.425781 C 489.203125 847.589844 489.285156 847.789062 489.285156 848.023438 L 489.285156 879.148438 C 489.285156 879.382812 489.203125 879.582031 489.039062 879.746094 C 488.875 879.910156 488.675781 879.992188 488.441406 879.992188 L 485.671875 879.992188 C 485.441406 879.992188 485.242188 879.910156 485.074219 879.746094 C 484.910156 879.582031 484.828125 879.382812 484.828125 879.148438 L 484.828125 848.023438 C 484.828125 847.789062 484.910156 847.589844 485.074219 847.425781 C 485.242188 847.261719 485.441406 847.179688 485.671875 847.179688 Z M 485.671875 847.179688 " fill-opacity="1" fill-rule="nonzero"/><path fill="#26477a" d="M 503.429688 862.167969 L 503.429688 864.933594 C 503.429688 865.167969 503.347656 865.367188 503.183594 865.53125 C 503.015625 865.699219 502.816406 865.78125 502.585938 865.78125 L 471.460938 865.78125 C 471.226562 865.78125 471.027344 865.699219 470.863281 865.53125 C 470.699219 865.367188 470.613281 865.167969 470.613281 864.933594 L 470.613281 862.167969 C 470.613281 861.933594 470.699219 861.734375 470.863281 861.570312 C 471.027344 861.40625 471.226562 861.320312 471.460938 861.324219 L 502.585938 861.324219 C 502.816406 861.320312 503.015625 861.40625 503.183594 861.570312 C 503.347656 861.734375 503.429688 861.933594 503.429688 862.167969 Z M 503.429688 862.167969 " fill-opacity="1" fill-rule="nonzero"/><path fill="#26477a" d="M 497.621094 850.964844 L 499.578125 852.921875 C 499.742188 853.085938 499.824219 853.285156 499.824219 853.519531 C 499.824219 853.75 499.742188 853.953125 499.578125 854.117188 L 477.570312 876.125 C 477.40625 876.289062 477.207031 876.371094 476.972656 876.371094 C 476.738281 876.371094 476.539062 876.289062 476.375 876.125 L 474.417969 874.167969 C 474.253906 874.003906 474.167969 873.804688 474.167969 873.570312 C 474.167969 873.335938 474.253906 873.136719 474.417969 872.972656 L 496.425781 850.964844 C 496.589844 850.796875 496.789062 850.714844 497.023438 850.714844 C 497.257812 850.714844 497.457031 850.796875 497.621094 850.964844 Z M 497.621094 850.964844 " fill-opacity="1" fill-rule="nonzero"/><path fill="#26477a" d="M 499.644531 874.117188 L 497.6875 876.074219 C 497.523438 876.238281 497.324219 876.320312 497.089844 876.320312 C 496.855469 876.320312 496.65625 876.238281 496.492188 876.074219 L 474.484375 854.066406 C 474.320312 853.898438 474.238281 853.699219 474.238281 853.46875 C 474.238281 853.234375 474.320312 853.035156 474.484375 852.867188 L 476.441406 850.914062 C 476.605469 850.746094 476.804688 850.664062 477.039062 850.664062 C 477.273438 850.664062 477.472656 850.746094 477.636719 850.914062 L 499.644531 872.921875 C 499.808594 873.085938 499.890625 873.285156 499.890625 873.519531 C 499.890625 873.75 499.808594 873.949219 499.644531 874.117188 Z M 499.644531 874.117188 " fill-opacity="1" fill-rule="nonzero"/><path fill="#6b99d2" d="M 391.507812 822.582031 L 393.890625 822.582031 C 394.105469 822.582031 394.285156 822.65625 394.4375 822.804688 C 394.585938 822.957031 394.660156 823.136719 394.660156 823.347656 L 394.660156 850.523438 C 394.660156 850.734375 394.585938 850.914062 394.4375 851.066406 C 394.285156 851.214844 394.105469 851.289062 393.890625 851.292969 L 391.507812 851.292969 C 391.296875 851.289062 391.117188 851.214844 390.964844 851.066406 C 390.816406 850.914062 390.742188 850.734375 390.742188 850.523438 L 390.742188 823.347656 C 390.742188 823.136719 390.816406 822.957031 390.964844 822.804688 C 391.117188 822.65625 391.296875 822.582031 391.507812 822.582031 Z M 391.507812 822.582031 " fill-opacity="1" fill-rule="nonzero"/><path fill="#6b99d2" d="M 407.113281 835.726562 L 407.113281 838.109375 C 407.113281 838.320312 407.039062 838.5 406.890625 838.652344 C 406.738281 838.800781 406.558594 838.875 406.34375 838.875 L 379.171875 838.875 C 378.960938 838.875 378.777344 838.800781 378.628906 838.652344 C 378.480469 838.5 378.402344 838.320312 378.402344 838.109375 L 378.402344 835.726562 C 378.402344 835.511719 378.480469 835.332031 378.628906 835.179688 C 378.777344 835.03125 378.960938 834.957031 379.171875 834.957031 L 406.34375 834.957031 C 406.558594 834.957031 406.738281 835.03125 406.890625 835.179688 C 407.039062 835.332031 407.113281 835.511719 407.113281 835.726562 Z M 407.113281 835.726562 " fill-opacity="1" fill-rule="nonzero"/><path fill="#6b99d2" d="M 402.035156 825.945312 L 403.71875 827.628906 C 403.871094 827.78125 403.945312 827.960938 403.945312 828.171875 C 403.945312 828.386719 403.871094 828.566406 403.71875 828.714844 L 384.503906 847.929688 C 384.355469 848.082031 384.175781 848.15625 383.960938 848.15625 C 383.75 848.15625 383.570312 848.082031 383.417969 847.929688 L 381.734375 846.246094 C 381.582031 846.09375 381.507812 845.914062 381.507812 845.703125 C 381.507812 845.488281 381.582031 845.308594 381.734375 845.160156 L 400.949219 825.945312 C 401.097656 825.792969 401.277344 825.71875 401.492188 825.71875 C 401.703125 825.71875 401.882812 825.792969 402.035156 825.945312 Z M 402.035156 825.945312 " fill-opacity="1" fill-rule="nonzero"/><path fill="#6b99d2" d="M 403.671875 846.25 L 401.988281 847.933594 C 401.835938 848.085938 401.65625 848.160156 401.445312 848.160156 C 401.230469 848.160156 401.050781 848.085938 400.898438 847.933594 L 381.6875 828.722656 C 381.535156 828.570312 381.460938 828.390625 381.460938 828.175781 C 381.460938 827.964844 381.535156 827.785156 381.6875 827.632812 L 383.371094 825.949219 C 383.519531 825.796875 383.703125 825.722656 383.914062 825.722656 C 384.125 825.722656 384.308594 825.796875 384.457031 825.949219 L 403.671875 845.164062 C 403.820312 845.3125 403.898438 845.496094 403.898438 845.707031 C 403.898438 845.917969 403.820312 846.101562 403.671875 846.25 Z M 403.671875 846.25 " fill-opacity="1" fill-rule="nonzero"/><g clip-path="url(#50e63ce2ad)"><path fill="#26477a" d="M 524.953125 666.691406 L 523.644531 666.691406 C 525.207031 661.6875 525.972656 656.5625 525.953125 651.316406 C 525.953125 648.847656 525.78125 646.390625 525.433594 643.945312 C 525.089844 641.503906 524.570312 639.09375 523.882812 636.722656 C 523.195312 634.351562 522.34375 632.039062 521.332031 629.789062 C 520.316406 627.539062 519.144531 625.371094 517.824219 623.285156 C 516.5 621.199219 515.039062 619.21875 513.433594 617.339844 C 511.832031 615.460938 510.105469 613.707031 508.25 612.074219 C 506.398438 610.441406 504.441406 608.945312 502.378906 607.589844 C 500.3125 606.234375 498.164062 605.03125 495.929688 603.980469 C 493.695312 602.929688 491.398438 602.039062 489.039062 601.316406 C 486.679688 600.589844 484.277344 600.035156 481.839844 599.648438 C 479.398438 599.261719 476.945312 599.050781 474.476562 599.015625 C 472.007812 598.976562 469.550781 599.113281 467.097656 599.425781 C 464.648438 599.734375 462.234375 600.21875 459.851562 600.871094 C 457.472656 601.523438 455.148438 602.34375 452.882812 603.324219 C 450.617188 604.308594 448.433594 605.445312 446.328125 606.738281 C 444.222656 608.027344 442.222656 609.464844 440.320312 611.039062 C 439.882812 609.019531 439.351562 607.023438 438.730469 605.050781 C 438.109375 603.078125 437.402344 601.140625 436.601562 599.234375 C 435.800781 597.324219 434.917969 595.460938 433.949219 593.632812 C 432.976562 591.808594 431.925781 590.03125 430.792969 588.300781 C 429.660156 586.574219 428.449219 584.898438 427.164062 583.28125 C 425.875 581.664062 424.519531 580.105469 423.089844 578.613281 C 421.660156 577.117188 420.164062 575.691406 418.605469 574.335938 C 417.046875 572.980469 415.425781 571.699219 413.75 570.488281 C 412.074219 569.28125 410.34375 568.152344 408.5625 567.101562 C 406.78125 566.050781 404.957031 565.085938 403.085938 564.203125 C 401.214844 563.320312 399.308594 562.527344 397.367188 561.816406 C 395.425781 561.109375 393.453125 560.492188 391.457031 559.964844 C 389.457031 559.4375 387.4375 559.003906 385.398438 558.664062 C 383.359375 558.320312 381.308594 558.074219 379.246094 557.917969 C 377.1875 557.765625 375.121094 557.707031 373.054688 557.742188 C 370.988281 557.777344 368.925781 557.90625 366.871094 558.132812 C 364.816406 558.355469 362.773438 558.675781 360.75 559.085938 C 358.722656 559.496094 356.71875 560 354.742188 560.597656 C 352.761719 561.191406 350.8125 561.875 348.894531 562.648438 C 346.976562 563.421875 345.101562 564.28125 343.261719 565.230469 C 341.421875 566.175781 339.632812 567.203125 337.886719 568.3125 C 336.144531 569.421875 334.453125 570.609375 332.820312 571.875 C 331.183594 573.140625 329.609375 574.480469 328.097656 575.886719 C 326.585938 577.296875 325.140625 578.773438 323.761719 580.316406 C 322.386719 581.855469 321.082031 583.457031 319.851562 585.121094 C 318.621094 586.78125 317.46875 588.496094 316.398438 590.261719 C 315.324219 592.03125 314.332031 593.84375 313.425781 595.699219 C 312.519531 597.558594 311.699219 599.453125 310.964844 601.386719 C 310.234375 603.320312 309.589844 605.28125 309.035156 607.273438 C 308.484375 609.265625 308.023438 611.277344 307.652344 613.3125 C 307.285156 615.347656 307.011719 617.394531 306.828125 619.453125 C 306.648438 621.511719 306.5625 623.578125 306.570312 625.644531 C 306.546875 629.988281 306.957031 634.292969 307.800781 638.558594 C 304.996094 638.160156 302.175781 637.953125 299.34375 637.941406 C 297.796875 637.945312 296.253906 638.011719 294.710938 638.144531 C 293.171875 638.273438 291.636719 638.46875 290.113281 638.722656 C 288.585938 638.980469 287.074219 639.300781 285.574219 639.679688 C 284.074219 640.0625 282.59375 640.503906 281.132812 641.003906 C 279.667969 641.507812 278.226562 642.070312 276.8125 642.691406 C 275.394531 643.3125 274.007812 643.992188 272.644531 644.726562 C 271.285156 645.460938 269.957031 646.25 268.660156 647.097656 C 267.363281 647.941406 266.105469 648.835938 264.882812 649.785156 C 263.660156 650.734375 262.480469 651.730469 261.339844 652.777344 C 260.199219 653.820312 259.101562 654.910156 258.050781 656.046875 C 257.003906 657.183594 256 658.359375 255.046875 659.578125 C 254.09375 660.792969 253.191406 662.050781 252.339844 663.339844 C 251.488281 664.632812 250.691406 665.957031 249.953125 667.316406 C 249.210938 668.675781 248.523438 670.058594 247.898438 671.472656 C 247.269531 672.886719 246.703125 674.324219 246.191406 675.785156 C 245.683594 677.246094 245.234375 678.726562 244.847656 680.222656 C 244.457031 681.71875 244.132812 683.230469 243.871094 684.753906 C 243.605469 686.28125 243.40625 687.8125 243.269531 689.351562 C 243.132812 690.894531 243.058594 692.4375 243.046875 693.984375 C 243.035156 695.53125 243.089844 697.074219 243.207031 698.617188 C 243.324219 700.160156 243.503906 701.695312 243.746094 703.222656 C 243.988281 704.75 244.292969 706.265625 244.660156 707.769531 C 245.027344 709.273438 245.457031 710.757812 245.945312 712.222656 C 246.4375 713.691406 246.984375 715.136719 247.59375 716.558594 C 248.203125 717.980469 248.867188 719.375 249.59375 720.742188 C 250.316406 722.109375 251.09375 723.445312 251.925781 724.75 C 252.757812 726.054688 253.644531 727.320312 254.582031 728.550781 C 255.519531 729.78125 256.503906 730.972656 257.539062 732.121094 C 258.574219 733.269531 259.65625 734.375 260.78125 735.4375 C 261.910156 736.496094 263.078125 737.507812 264.285156 738.472656 C 265.496094 739.4375 266.742188 740.351562 268.027344 741.214844 C 269.3125 742.074219 270.628906 742.882812 271.980469 743.636719 C 275.421875 745.957031 279.125 747.722656 283.09375 748.941406 C 287.0625 750.160156 291.121094 750.773438 295.269531 750.785156 L 524.953125 750.785156 C 526.328125 750.78125 527.703125 750.714844 529.070312 750.578125 C 530.441406 750.4375 531.800781 750.234375 533.152344 749.964844 C 534.5 749.695312 535.832031 749.359375 537.148438 748.957031 C 538.464844 748.558594 539.761719 748.09375 541.03125 747.566406 C 542.304688 747.035156 543.546875 746.449219 544.757812 745.796875 C 545.972656 745.148438 547.152344 744.441406 548.296875 743.675781 C 549.4375 742.910156 550.542969 742.089844 551.605469 741.21875 C 552.671875 740.34375 553.6875 739.421875 554.664062 738.449219 C 555.636719 737.476562 556.558594 736.457031 557.433594 735.390625 C 558.304688 734.328125 559.125 733.226562 559.890625 732.082031 C 560.65625 730.9375 561.363281 729.757812 562.011719 728.542969 C 562.664062 727.332031 563.25 726.089844 563.777344 724.816406 C 564.308594 723.546875 564.769531 722.253906 565.171875 720.9375 C 565.574219 719.617188 565.910156 718.285156 566.179688 716.9375 C 566.449219 715.585938 566.652344 714.226562 566.789062 712.859375 C 566.925781 711.488281 566.996094 710.113281 567 708.738281 C 566.996094 707.363281 566.925781 705.988281 566.789062 704.621094 C 566.652344 703.25 566.449219 701.890625 566.179688 700.542969 C 565.910156 699.191406 565.574219 697.859375 565.171875 696.542969 C 564.769531 695.226562 564.308594 693.929688 563.777344 692.660156 C 563.25 691.390625 562.664062 690.148438 562.011719 688.933594 C 561.363281 687.71875 560.65625 686.539062 559.890625 685.398438 C 559.125 684.253906 558.304688 683.148438 557.433594 682.085938 C 556.558594 681.019531 555.636719 680.003906 554.664062 679.03125 C 553.6875 678.054688 552.671875 677.132812 551.605469 676.257812 C 550.542969 675.386719 549.4375 674.566406 548.296875 673.800781 C 547.152344 673.035156 545.972656 672.328125 544.757812 671.679688 C 543.546875 671.03125 542.304688 670.441406 541.03125 669.914062 C 539.761719 669.386719 538.464844 668.921875 537.148438 668.519531 C 535.832031 668.117188 534.5 667.78125 533.152344 667.511719 C 531.800781 667.242188 530.441406 667.039062 529.070312 666.902344 C 527.703125 666.765625 526.328125 666.695312 524.953125 666.691406 Z M 524.953125 666.691406 " fill-opacity="1" fill-rule="nonzero"/></g><path fill="#b4e3fb" d="M 378.363281 783.609375 C 378.363281 784.011719 378.324219 784.414062 378.246094 784.808594 C 378.167969 785.203125 378.050781 785.589844 377.898438 785.960938 C 377.742188 786.335938 377.554688 786.6875 377.328125 787.023438 C 377.105469 787.359375 376.847656 787.671875 376.5625 787.957031 C 376.277344 788.242188 375.96875 788.496094 375.632812 788.722656 C 375.296875 788.945312 374.941406 789.136719 374.570312 789.289062 C 374.195312 789.445312 373.8125 789.5625 373.414062 789.640625 C 373.019531 789.71875 372.621094 789.757812 372.214844 789.757812 C 371.8125 789.757812 371.410156 789.71875 371.015625 789.640625 C 370.621094 789.5625 370.234375 789.445312 369.863281 789.289062 C 369.488281 789.136719 369.136719 788.945312 368.800781 788.722656 C 368.464844 788.496094 368.152344 788.242188 367.867188 787.957031 C 367.582031 787.671875 367.328125 787.359375 367.101562 787.023438 C 366.878906 786.6875 366.6875 786.335938 366.535156 785.960938 C 366.378906 785.589844 366.261719 785.203125 366.183594 784.808594 C 366.105469 784.414062 366.066406 784.011719 366.066406 783.609375 C 366.066406 783.203125 366.105469 782.804688 366.183594 782.410156 C 366.261719 782.011719 366.378906 781.628906 366.535156 781.253906 C 366.6875 780.882812 366.878906 780.527344 367.101562 780.191406 C 367.328125 779.855469 367.582031 779.546875 367.867188 779.261719 C 368.152344 778.972656 368.464844 778.71875 368.800781 778.496094 C 369.136719 778.269531 369.488281 778.082031 369.863281 777.925781 C 370.234375 777.773438 370.621094 777.65625 371.015625 777.578125 C 371.410156 777.5 371.8125 777.460938 372.214844 777.460938 C 372.621094 777.460938 373.019531 777.5 373.414062 777.578125 C 373.8125 777.65625 374.195312 777.773438 374.570312 777.925781 C 374.941406 778.082031 375.296875 778.269531 375.632812 778.496094 C 375.96875 778.71875 376.277344 778.972656 376.5625 779.261719 C 376.847656 779.546875 377.105469 779.855469 377.328125 780.191406 C 377.554688 780.527344 377.742188 780.882812 377.898438 781.253906 C 378.050781 781.628906 378.167969 782.011719 378.246094 782.410156 C 378.324219 782.804688 378.363281 783.203125 378.363281 783.609375 Z M 378.363281 783.609375 " fill-opacity="1" fill-rule="nonzero"/><path fill="#b4e3fb" d="M 454.234375 826.65625 C 454.234375 826.921875 454.207031 827.1875 454.15625 827.449219 C 454.105469 827.710938 454.027344 827.964844 453.925781 828.214844 C 453.820312 828.460938 453.695312 828.695312 453.546875 828.917969 C 453.398438 829.140625 453.230469 829.347656 453.039062 829.535156 C 452.851562 829.726562 452.644531 829.894531 452.421875 830.042969 C 452.199219 830.191406 451.964844 830.316406 451.71875 830.417969 C 451.472656 830.519531 451.21875 830.597656 450.953125 830.652344 C 450.691406 830.703125 450.425781 830.730469 450.160156 830.730469 C 449.894531 830.730469 449.628906 830.703125 449.367188 830.652344 C 449.101562 830.597656 448.847656 830.519531 448.601562 830.417969 C 448.355469 830.316406 448.117188 830.191406 447.898438 830.042969 C 447.675781 829.894531 447.46875 829.726562 447.28125 829.535156 C 447.089844 829.347656 446.921875 829.140625 446.773438 828.917969 C 446.625 828.695312 446.5 828.460938 446.394531 828.214844 C 446.292969 827.964844 446.214844 827.710938 446.164062 827.449219 C 446.113281 827.1875 446.085938 826.921875 446.085938 826.65625 C 446.085938 826.386719 446.113281 826.121094 446.164062 825.859375 C 446.214844 825.597656 446.292969 825.34375 446.394531 825.09375 C 446.5 824.847656 446.625 824.613281 446.773438 824.390625 C 446.921875 824.167969 447.089844 823.964844 447.28125 823.773438 C 447.46875 823.585938 447.675781 823.414062 447.898438 823.265625 C 448.117188 823.117188 448.355469 822.992188 448.601562 822.890625 C 448.847656 822.789062 449.101562 822.710938 449.367188 822.660156 C 449.628906 822.605469 449.894531 822.582031 450.160156 822.582031 C 450.425781 822.582031 450.691406 822.605469 450.953125 822.660156 C 451.21875 822.710938 451.472656 822.789062 451.71875 822.890625 C 451.964844 822.992188 452.199219 823.117188 452.421875 823.265625 C 452.644531 823.414062 452.851562 823.585938 453.039062 823.773438 C 453.230469 823.964844 453.398438 824.167969 453.546875 824.390625 C 453.695312 824.613281 453.820312 824.847656 453.925781 825.09375 C 454.027344 825.34375 454.105469 825.597656 454.15625 825.859375 C 454.207031 826.121094 454.234375 826.386719 454.234375 826.65625 Z M 454.234375 826.65625 " fill-opacity="1" fill-rule="nonzero"/><path fill="#b4e3fb" d="M 427.5625 874.851562 C 427.5625 875.1875 427.527344 875.523438 427.460938 875.855469 C 427.394531 876.1875 427.296875 876.507812 427.167969 876.820312 C 427.039062 877.132812 426.878906 877.429688 426.691406 877.710938 C 426.503906 877.992188 426.292969 878.253906 426.050781 878.492188 C 425.8125 878.730469 425.554688 878.945312 425.273438 879.132812 C 424.992188 879.320312 424.695312 879.480469 424.382812 879.609375 C 424.070312 879.738281 423.746094 879.835938 423.414062 879.902344 C 423.082031 879.96875 422.75 880 422.410156 880 C 422.074219 880 421.738281 879.96875 421.40625 879.902344 C 421.074219 879.835938 420.753906 879.738281 420.441406 879.609375 C 420.128906 879.480469 419.832031 879.320312 419.550781 879.132812 C 419.269531 878.945312 419.007812 878.730469 418.769531 878.492188 C 418.53125 878.253906 418.316406 877.992188 418.128906 877.710938 C 417.941406 877.429688 417.78125 877.132812 417.652344 876.820312 C 417.523438 876.507812 417.425781 876.1875 417.359375 875.855469 C 417.292969 875.523438 417.261719 875.1875 417.261719 874.851562 C 417.261719 874.511719 417.292969 874.179688 417.359375 873.847656 C 417.425781 873.515625 417.523438 873.191406 417.652344 872.878906 C 417.78125 872.566406 417.941406 872.269531 418.128906 871.988281 C 418.316406 871.707031 418.53125 871.449219 418.769531 871.210938 C 419.007812 870.96875 419.269531 870.757812 419.550781 870.570312 C 419.832031 870.382812 420.128906 870.222656 420.441406 870.09375 C 420.753906 869.964844 421.074219 869.867188 421.40625 869.800781 C 421.738281 869.734375 422.074219 869.699219 422.410156 869.699219 C 422.75 869.699219 423.082031 869.734375 423.414062 869.800781 C 423.746094 869.867188 424.070312 869.964844 424.382812 870.09375 C 424.695312 870.222656 424.992188 870.382812 425.273438 870.570312 C 425.554688 870.757812 425.8125 870.96875 426.050781 871.210938 C 426.292969 871.449219 426.503906 871.707031 426.691406 871.988281 C 426.878906 872.269531 427.039062 872.566406 427.167969 872.878906 C 427.296875 873.191406 427.394531 873.515625 427.460938 873.847656 C 427.527344 874.179688 427.5625 874.511719 427.5625 874.851562 Z M 427.5625 874.851562 " fill-opacity="1" fill-rule="nonzero"/></svg>