<svg xmlns="http://www.w3.org/2000/svg" xmlns:xlink="http://www.w3.org/1999/xlink" width="1024" zoomAndPan="magnify" viewBox="0 0 768 767.999994" height="1024" preserveAspectRatio="xMidYMid meet" version="1.0"><defs><clipPath id="310571727d"><path d="M 423 681 L 459 681 L 459 732.480469 L 423 732.480469 Z M 423 681 " clip-rule="nonzero"/></clipPath><clipPath id="2a8f3f1588"><path d="M 232 681 L 268 681 L 268 732.480469 L 232 732.480469 Z M 232 681 " clip-rule="nonzero"/></clipPath><clipPath id="a3e9f910d3"><path d="M 39 35.730469 L 729 35.730469 L 729 446 L 39 446 Z M 39 35.730469 " clip-rule="nonzero"/></clipPath></defs><path fill="#26477a" d="M 153.480469 573.742188 L 147.925781 577.828125 L 147.761719 577.828125 C 145.433594 580.167969 143.472656 582.78125 141.878906 585.675781 C 141.4375 586.519531 141.035156 587.386719 140.679688 588.273438 C 140.324219 589.15625 140.011719 590.058594 139.742188 590.972656 C 139.472656 591.890625 139.25 592.816406 139.074219 593.753906 C 138.894531 594.691406 138.765625 595.636719 138.679688 596.589844 C 138.59375 597.539062 138.558594 598.492188 138.566406 599.445312 C 138.574219 600.402344 138.632812 601.351562 138.734375 602.300781 C 138.835938 603.25 138.984375 604.191406 139.179688 605.125 C 139.375 606.0625 139.617188 606.984375 139.902344 607.894531 C 140.1875 608.804688 140.515625 609.699219 140.890625 610.578125 C 141.265625 611.457031 141.679688 612.3125 142.136719 613.152344 C 142.59375 613.988281 143.09375 614.800781 143.628906 615.589844 C 144.167969 616.378906 144.742188 617.140625 145.355469 617.871094 C 145.96875 618.605469 146.613281 619.304688 147.296875 619.972656 C 147.976562 620.640625 148.691406 621.273438 149.433594 621.871094 C 150.175781 622.472656 150.949219 623.03125 151.746094 623.554688 C 152.542969 624.078125 153.367188 624.558594 154.210938 625 C 155.058594 625.441406 155.925781 625.84375 156.808594 626.199219 C 157.695312 626.554688 158.59375 626.867188 159.511719 627.136719 C 160.425781 627.40625 161.351562 627.628906 162.289062 627.804688 C 163.226562 627.980469 164.171875 628.113281 165.125 628.195312 C 166.074219 628.28125 167.027344 628.316406 167.980469 628.308594 C 168.933594 628.300781 169.886719 628.242188 170.835938 628.140625 C 171.785156 628.039062 172.726562 627.886719 173.660156 627.691406 C 174.59375 627.496094 175.515625 627.257812 176.425781 626.972656 C 177.335938 626.683594 178.230469 626.355469 179.109375 625.980469 C 179.984375 625.605469 180.84375 625.191406 181.679688 624.734375 C 182.519531 624.273438 183.332031 623.777344 184.117188 623.238281 C 184.90625 622.699219 185.667969 622.125 186.398438 621.511719 C 187.128906 620.898438 187.828125 620.25 188.496094 619.570312 C 189.164062 618.886719 189.796875 618.175781 190.398438 617.429688 C 190.996094 616.6875 191.554688 615.917969 192.078125 615.117188 C 192.597656 614.320312 193.082031 613.496094 193.523438 612.648438 C 195.101562 609.726562 196.136719 606.617188 196.628906 603.332031 L 196.628906 596.300781 L 197.609375 541.699219 Z M 153.480469 573.742188 " fill-opacity="1" fill-rule="nonzero"/><path fill="#26477a" d="M 519.730469 582.40625 L 514.171875 586.492188 L 514.007812 586.492188 C 511.640625 588.742188 509.679688 591.304688 508.125 594.175781 C 507.679688 595.023438 507.277344 595.886719 506.917969 596.773438 C 506.5625 597.660156 506.246094 598.558594 505.976562 599.476562 C 505.703125 600.390625 505.480469 601.320312 505.300781 602.257812 C 505.121094 603.195312 504.988281 604.140625 504.898438 605.09375 C 504.8125 606.046875 504.773438 607 504.78125 607.953125 C 504.785156 608.910156 504.839844 609.863281 504.941406 610.8125 C 505.042969 611.761719 505.1875 612.707031 505.382812 613.640625 C 505.574219 614.578125 505.8125 615.503906 506.097656 616.414062 C 506.378906 617.328125 506.707031 618.222656 507.082031 619.105469 C 507.453125 619.984375 507.867188 620.84375 508.324219 621.683594 C 508.777344 622.523438 509.277344 623.339844 509.8125 624.128906 C 510.347656 624.917969 510.921875 625.683594 511.535156 626.417969 C 512.144531 627.148438 512.789062 627.851562 513.472656 628.523438 C 514.152344 629.195312 514.863281 629.832031 515.605469 630.429688 C 516.347656 631.03125 517.117188 631.59375 517.917969 632.121094 C 518.714844 632.644531 519.535156 633.128906 520.382812 633.574219 C 521.226562 634.019531 522.09375 634.421875 522.980469 634.78125 C 523.863281 635.140625 524.765625 635.453125 525.679688 635.726562 C 526.597656 635.996094 527.523438 636.222656 528.460938 636.402344 C 529.402344 636.582031 530.34375 636.714844 531.296875 636.800781 C 532.246094 636.886719 533.203125 636.929688 534.15625 636.921875 C 535.113281 636.914062 536.0625 636.859375 537.015625 636.761719 C 537.964844 636.660156 538.90625 636.511719 539.84375 636.320312 C 540.777344 636.125 541.703125 635.886719 542.613281 635.605469 C 543.527344 635.320312 544.421875 634.992188 545.300781 634.621094 C 546.183594 634.25 547.042969 633.832031 547.882812 633.378906 C 548.71875 632.921875 549.535156 632.425781 550.324219 631.886719 C 551.117188 631.351562 551.878906 630.777344 552.613281 630.164062 C 553.347656 629.554688 554.050781 628.90625 554.71875 628.226562 C 555.390625 627.546875 556.027344 626.835938 556.625 626.09375 C 557.226562 625.347656 557.789062 624.578125 558.316406 623.78125 C 558.839844 622.980469 559.324219 622.160156 559.769531 621.3125 C 561.371094 618.398438 562.40625 615.292969 562.875 611.996094 L 562.875 604.964844 L 563.855469 550.363281 Z M 519.730469 582.40625 " fill-opacity="1" fill-rule="nonzero"/><path fill="#3571aa" d="M 332.273438 629.976562 L 326.71875 633.902344 L 326.554688 633.902344 C 324.089844 636.140625 322.128906 638.757812 320.671875 641.75 C 320.230469 642.59375 319.832031 643.460938 319.476562 644.34375 C 319.121094 645.230469 318.808594 646.128906 318.539062 647.046875 C 318.273438 647.960938 318.050781 648.886719 317.875 649.824219 C 317.699219 650.761719 317.570312 651.707031 317.484375 652.65625 C 317.402344 653.609375 317.363281 654.558594 317.375 655.511719 C 317.382812 656.46875 317.441406 657.417969 317.542969 658.367188 C 317.644531 659.316406 317.792969 660.257812 317.992188 661.191406 C 318.1875 662.125 318.425781 663.046875 318.710938 663.957031 C 319 664.867188 319.328125 665.757812 319.703125 666.636719 C 320.074219 667.515625 320.492188 668.371094 320.949219 669.207031 C 321.40625 670.046875 321.90625 670.855469 322.441406 671.644531 C 322.980469 672.433594 323.554688 673.191406 324.167969 673.925781 C 324.777344 674.65625 325.425781 675.355469 326.105469 676.023438 C 326.789062 676.691406 327.5 677.324219 328.242188 677.921875 C 328.984375 678.519531 329.757812 679.078125 330.554688 679.601562 C 331.351562 680.125 332.171875 680.605469 333.019531 681.046875 C 333.863281 681.488281 334.730469 681.886719 335.613281 682.246094 C 336.5 682.601562 337.398438 682.914062 338.3125 683.183594 C 339.230469 683.449219 340.15625 683.671875 341.089844 683.851562 C 342.027344 684.027344 342.972656 684.15625 343.921875 684.242188 C 344.871094 684.328125 345.824219 684.363281 346.777344 684.355469 C 347.730469 684.347656 348.683594 684.289062 349.628906 684.1875 C 350.578125 684.085938 351.519531 683.9375 352.453125 683.742188 C 353.386719 683.546875 354.308594 683.308594 355.21875 683.023438 C 356.128906 682.738281 357.019531 682.40625 357.898438 682.035156 C 358.777344 681.660156 359.632812 681.246094 360.46875 680.789062 C 361.308594 680.332031 362.121094 679.832031 362.90625 679.296875 C 363.695312 678.757812 364.457031 678.183594 365.1875 677.574219 C 365.917969 676.960938 366.617188 676.316406 367.285156 675.632812 C 367.953125 674.953125 368.589844 674.242188 369.1875 673.5 C 369.785156 672.757812 370.34375 671.984375 370.867188 671.1875 C 371.390625 670.390625 371.871094 669.566406 372.316406 668.722656 C 373.871094 665.789062 374.90625 662.683594 375.417969 659.40625 L 375.417969 652.375 L 376.402344 597.773438 Z M 332.273438 629.976562 " fill-opacity="1" fill-rule="nonzero"/><path fill="#3571aa" d="M 279.976562 508.347656 L 274.421875 512.273438 L 274.257812 512.273438 C 271.792969 514.511719 269.832031 517.128906 268.375 520.121094 C 267.929688 520.964844 267.53125 521.832031 267.175781 522.714844 C 266.820312 523.601562 266.507812 524.503906 266.238281 525.417969 C 265.972656 526.335938 265.75 527.261719 265.570312 528.199219 C 265.394531 529.136719 265.261719 530.082031 265.179688 531.03125 C 265.09375 531.980469 265.058594 532.933594 265.066406 533.886719 C 265.074219 534.84375 265.132812 535.792969 265.234375 536.742188 C 265.335938 537.691406 265.484375 538.632812 265.679688 539.566406 C 265.875 540.5 266.117188 541.425781 266.402344 542.335938 C 266.6875 543.246094 267.019531 544.140625 267.390625 545.019531 C 267.765625 545.894531 268.179688 546.753906 268.636719 547.589844 C 269.097656 548.429688 269.59375 549.242188 270.132812 550.027344 C 270.667969 550.816406 271.246094 551.578125 271.855469 552.308594 C 272.46875 553.042969 273.117188 553.742188 273.796875 554.410156 C 274.476562 555.078125 275.191406 555.710938 275.933594 556.308594 C 276.675781 556.90625 277.449219 557.46875 278.246094 557.992188 C 279.042969 558.511719 279.867188 558.996094 280.710938 559.4375 C 281.558594 559.878906 282.421875 560.277344 283.308594 560.632812 C 284.191406 560.992188 285.09375 561.304688 286.007812 561.570312 C 286.925781 561.839844 287.851562 562.0625 288.789062 562.238281 C 289.726562 562.417969 290.667969 562.546875 291.621094 562.632812 C 292.570312 562.714844 293.523438 562.753906 294.476562 562.746094 C 295.429688 562.734375 296.382812 562.679688 297.332031 562.578125 C 298.277344 562.472656 299.21875 562.324219 300.152344 562.128906 C 301.085938 561.933594 302.011719 561.695312 302.921875 561.410156 C 303.832031 561.121094 304.722656 560.792969 305.601562 560.417969 C 306.480469 560.046875 307.335938 559.628906 308.175781 559.171875 C 309.011719 558.714844 309.824219 558.214844 310.613281 557.675781 C 311.398438 557.140625 312.160156 556.566406 312.890625 555.953125 C 313.625 555.339844 314.324219 554.691406 314.992188 554.011719 C 315.660156 553.328125 316.292969 552.617188 316.890625 551.875 C 317.488281 551.128906 318.050781 550.359375 318.570312 549.5625 C 319.09375 548.761719 319.574219 547.941406 320.015625 547.09375 C 321.570312 544.160156 322.605469 541.054688 323.121094 537.777344 L 323.121094 530.746094 L 324.101562 476.144531 Z M 279.976562 508.347656 " fill-opacity="1" fill-rule="nonzero"/><path fill="#3571aa" d="M 607.164062 503.9375 L 603.894531 506.386719 L 603.730469 506.386719 C 602.3125 507.707031 601.167969 509.230469 600.300781 510.964844 C 599.890625 511.957031 599.578125 512.976562 599.355469 514.023438 C 599.136719 515.074219 599.015625 516.132812 598.992188 517.203125 C 598.96875 518.273438 599.042969 519.339844 599.21875 520.398438 C 599.390625 521.453125 599.660156 522.484375 600.027344 523.492188 C 600.390625 524.5 600.847656 525.464844 601.390625 526.386719 C 601.9375 527.3125 602.5625 528.175781 603.265625 528.984375 C 603.96875 529.789062 604.742188 530.523438 605.585938 531.1875 C 606.425781 531.851562 607.320312 532.433594 608.269531 532.929688 C 609.21875 533.425781 610.203125 533.832031 611.230469 534.148438 C 612.253906 534.460938 613.296875 534.679688 614.363281 534.800781 C 615.425781 534.921875 616.492188 534.941406 617.5625 534.863281 C 618.628906 534.789062 619.679688 534.613281 620.71875 534.339844 C 621.753906 534.066406 622.753906 533.703125 623.722656 533.242188 C 624.691406 532.785156 625.609375 532.242188 626.476562 531.613281 C 627.34375 530.984375 628.148438 530.28125 628.882812 529.503906 C 629.621094 528.726562 630.28125 527.886719 630.859375 526.984375 C 631.761719 525.230469 632.359375 523.378906 632.660156 521.429688 L 632.660156 517.339844 L 633.3125 484.972656 Z M 607.164062 503.9375 " fill-opacity="1" fill-rule="nonzero"/><path fill="#3571aa" d="M 114.421875 499.523438 L 111.152344 501.972656 L 110.988281 501.972656 C 109.660156 503.363281 108.519531 504.886719 107.558594 506.550781 C 107.230469 507.054688 106.933594 507.574219 106.660156 508.109375 C 106.390625 508.644531 106.148438 509.195312 105.933594 509.753906 C 105.71875 510.316406 105.53125 510.886719 105.375 511.464844 C 105.21875 512.046875 105.09375 512.632812 105 513.226562 C 104.90625 513.820312 104.84375 514.414062 104.808594 515.015625 C 104.777344 515.613281 104.777344 516.214844 104.804688 516.8125 C 104.835938 517.414062 104.894531 518.007812 104.988281 518.601562 C 105.078125 519.195312 105.203125 519.785156 105.355469 520.363281 C 105.507812 520.945312 105.6875 521.515625 105.902344 522.078125 C 106.113281 522.640625 106.355469 523.1875 106.625 523.726562 C 106.890625 524.261719 107.1875 524.785156 107.511719 525.289062 C 107.835938 525.796875 108.183594 526.285156 108.558594 526.753906 C 108.933594 527.222656 109.328125 527.671875 109.75 528.101562 C 110.171875 528.527344 110.613281 528.933594 111.074219 529.316406 C 111.539062 529.699219 112.019531 530.054688 112.519531 530.386719 C 113.019531 530.722656 113.535156 531.027344 114.066406 531.304688 C 114.597656 531.582031 115.144531 531.835938 115.699219 532.054688 C 116.257812 532.277344 116.828125 532.472656 117.402344 532.632812 C 117.980469 532.796875 118.566406 532.929688 119.15625 533.03125 C 119.75 533.132812 120.34375 533.207031 120.945312 533.246094 C 121.542969 533.285156 122.140625 533.296875 122.742188 533.273438 C 123.339844 533.25 123.9375 533.199219 124.535156 533.113281 C 125.128906 533.03125 125.714844 532.914062 126.296875 532.769531 C 126.882812 532.625 127.453125 532.449219 128.019531 532.246094 C 128.582031 532.039062 129.136719 531.808594 129.675781 531.542969 C 130.214844 531.28125 130.738281 530.992188 131.25 530.675781 C 131.761719 530.359375 132.25 530.015625 132.726562 529.648438 C 133.199219 529.28125 133.65625 528.890625 134.089844 528.472656 C 134.523438 528.058594 134.933594 527.621094 135.320312 527.164062 C 135.710938 526.707031 136.074219 526.230469 136.410156 525.734375 C 136.75 525.238281 137.0625 524.726562 137.347656 524.195312 C 137.632812 523.667969 137.890625 523.128906 138.121094 522.570312 C 139.042969 520.824219 139.640625 518.972656 139.917969 517.015625 L 139.917969 512.925781 L 140.40625 480.558594 Z M 114.421875 499.523438 " fill-opacity="1" fill-rule="nonzero"/><g clip-path="url(#310571727d)"><path fill="#3571aa" d="M 432.785156 700.273438 L 429.351562 702.5625 C 427.929688 703.941406 426.785156 705.523438 425.917969 707.304688 C 425.660156 707.804688 425.425781 708.316406 425.214844 708.839844 C 425.003906 709.363281 424.824219 709.898438 424.664062 710.4375 C 424.507812 710.980469 424.378906 711.527344 424.273438 712.082031 C 424.171875 712.636719 424.09375 713.195312 424.046875 713.757812 C 423.996094 714.320312 423.976562 714.882812 423.984375 715.449219 C 423.992188 716.011719 424.023438 716.574219 424.085938 717.132812 C 424.148438 717.695312 424.238281 718.25 424.355469 718.804688 C 424.472656 719.355469 424.617188 719.902344 424.785156 720.4375 C 424.957031 720.976562 425.152344 721.503906 425.375 722.023438 C 425.597656 722.542969 425.84375 723.046875 426.113281 723.542969 C 426.386719 724.035156 426.683594 724.515625 427 724.980469 C 427.320312 725.445312 427.660156 725.894531 428.023438 726.328125 C 428.386719 726.757812 428.769531 727.171875 429.175781 727.566406 C 429.578125 727.957031 430 728.332031 430.441406 728.683594 C 430.882812 729.035156 431.335938 729.367188 431.808594 729.675781 C 432.28125 729.980469 432.769531 730.265625 433.269531 730.527344 C 433.769531 730.785156 434.28125 731.019531 434.808594 731.230469 C 435.332031 731.4375 435.863281 731.621094 436.40625 731.777344 C 436.945312 731.9375 437.496094 732.066406 438.050781 732.167969 C 438.601562 732.273438 439.160156 732.347656 439.722656 732.398438 C 440.285156 732.445312 440.847656 732.464844 441.414062 732.457031 C 441.976562 732.453125 442.539062 732.417969 443.097656 732.355469 C 443.660156 732.292969 444.214844 732.203125 444.765625 732.085938 C 445.320312 731.96875 445.863281 731.824219 446.402344 731.652344 C 446.9375 731.484375 447.464844 731.285156 447.984375 731.0625 C 448.503906 730.84375 449.007812 730.59375 449.503906 730.324219 C 449.996094 730.050781 450.476562 729.753906 450.941406 729.433594 C 451.40625 729.117188 451.855469 728.773438 452.285156 728.410156 C 452.71875 728.046875 453.128906 727.664062 453.523438 727.261719 C 453.917969 726.855469 454.289062 726.433594 454.640625 725.992188 C 454.996094 725.550781 455.324219 725.09375 455.632812 724.621094 C 455.9375 724.148438 456.222656 723.664062 456.480469 723.160156 C 457.300781 721.4375 457.902344 719.640625 458.277344 717.765625 L 458.277344 713.515625 L 458.933594 681.3125 Z M 432.785156 700.273438 " fill-opacity="1" fill-rule="nonzero"/></g><g clip-path="url(#2a8f3f1588)"><path fill="#3571aa" d="M 240.917969 700.273438 L 237.648438 702.5625 L 237.484375 702.5625 C 236.0625 703.941406 234.917969 705.523438 234.054688 707.304688 C 233.792969 707.804688 233.558594 708.316406 233.347656 708.839844 C 233.140625 709.363281 232.957031 709.898438 232.800781 710.4375 C 232.644531 710.980469 232.511719 711.527344 232.410156 712.082031 C 232.308594 712.636719 232.230469 713.195312 232.183594 713.757812 C 232.132812 714.320312 232.113281 714.882812 232.121094 715.445312 C 232.128906 716.007812 232.164062 716.570312 232.222656 717.132812 C 232.285156 717.691406 232.375 718.25 232.492188 718.800781 C 232.609375 719.351562 232.753906 719.898438 232.921875 720.433594 C 233.09375 720.972656 233.289062 721.5 233.511719 722.019531 C 233.734375 722.535156 233.980469 723.042969 234.253906 723.539062 C 234.523438 724.03125 234.820312 724.511719 235.140625 724.976562 C 235.457031 725.441406 235.800781 725.890625 236.164062 726.320312 C 236.527344 726.75 236.910156 727.164062 237.3125 727.558594 C 237.714844 727.953125 238.136719 728.324219 238.578125 728.675781 C 239.019531 729.03125 239.476562 729.359375 239.949219 729.667969 C 240.421875 729.976562 240.90625 730.257812 241.40625 730.519531 C 241.90625 730.777344 242.417969 731.011719 242.941406 731.222656 C 243.464844 731.429688 244 731.613281 244.539062 731.769531 C 245.082031 731.929688 245.628906 732.058594 246.183594 732.160156 C 246.738281 732.265625 247.296875 732.339844 247.859375 732.390625 C 248.421875 732.4375 248.984375 732.457031 249.546875 732.449219 C 250.109375 732.445312 250.671875 732.410156 251.234375 732.347656 C 251.792969 732.285156 252.347656 732.195312 252.902344 732.078125 C 253.453125 731.960938 253.996094 731.816406 254.535156 731.648438 C 255.070312 731.476562 255.597656 731.28125 256.117188 731.058594 C 256.636719 730.835938 257.140625 730.589844 257.636719 730.316406 C 258.128906 730.046875 258.609375 729.75 259.074219 729.429688 C 259.539062 729.113281 259.988281 728.769531 260.417969 728.40625 C 260.847656 728.042969 261.261719 727.660156 261.65625 727.257812 C 262.050781 726.855469 262.421875 726.433594 262.773438 725.992188 C 263.125 725.550781 263.457031 725.09375 263.765625 724.621094 C 264.070312 724.148438 264.355469 723.664062 264.613281 723.160156 C 265.507812 721.460938 266.109375 719.664062 266.410156 717.765625 L 266.410156 713.515625 L 267.066406 681.3125 Z M 240.917969 700.273438 " fill-opacity="1" fill-rule="nonzero"/></g><path fill="#26477a" d="M 423.796875 508.347656 L 418.238281 512.273438 L 418.074219 512.273438 C 417.296875 512.996094 416.558594 513.761719 415.859375 514.566406 C 415.164062 515.371094 414.511719 516.210938 413.910156 517.089844 C 413.304688 517.964844 412.75 518.871094 412.242188 519.808594 C 411.738281 520.746094 411.28125 521.707031 410.882812 522.691406 C 410.480469 523.679688 410.136719 524.683594 409.84375 525.707031 C 409.550781 526.730469 409.316406 527.769531 409.140625 528.816406 C 408.960938 529.867188 408.839844 530.925781 408.777344 531.988281 C 408.714844 533.050781 408.710938 534.113281 408.761719 535.175781 C 408.816406 536.238281 408.925781 537.296875 409.09375 538.347656 C 409.265625 539.398438 409.488281 540.4375 409.769531 541.464844 C 410.050781 542.492188 410.390625 543.5 410.78125 544.488281 C 411.171875 545.480469 411.617188 546.445312 412.113281 547.386719 C 412.613281 548.328125 413.160156 549.238281 413.753906 550.121094 C 414.351562 551.003906 414.996094 551.847656 415.683594 552.660156 C 416.371094 553.472656 417.105469 554.242188 417.878906 554.976562 C 418.648438 555.707031 419.460938 556.394531 420.308594 557.039062 C 421.15625 557.679688 422.039062 558.277344 422.949219 558.824219 C 423.863281 559.371094 424.804688 559.863281 425.773438 560.308594 C 426.738281 560.753906 427.726562 561.144531 428.738281 561.480469 C 429.746094 561.816406 430.773438 562.097656 431.8125 562.320312 C 432.851562 562.546875 433.902344 562.714844 434.960938 562.824219 C 436.019531 562.933594 437.082031 562.984375 438.144531 562.980469 C 439.210938 562.972656 440.269531 562.910156 441.328125 562.789062 C 442.386719 562.664062 443.433594 562.488281 444.46875 562.25 C 445.507812 562.015625 446.53125 561.722656 447.535156 561.375 C 448.542969 561.027344 449.527344 560.625 450.488281 560.171875 C 451.449219 559.714844 452.386719 559.207031 453.292969 558.652344 C 454.199219 558.09375 455.074219 557.488281 455.914062 556.835938 C 456.753906 556.183594 457.558594 555.488281 458.324219 554.746094 C 459.085938 554.007812 459.808594 553.226562 460.488281 552.40625 C 461.167969 551.589844 461.800781 550.734375 462.390625 549.847656 C 462.976562 548.957031 463.511719 548.042969 464 547.09375 C 465.429688 544.128906 466.410156 541.023438 466.941406 537.777344 L 466.941406 530.746094 L 467.921875 476.144531 Z M 423.796875 508.347656 " fill-opacity="1" fill-rule="nonzero"/><g clip-path="url(#a3e9f910d3)"><path fill="#26477a" d="M 639.195312 266.890625 L 636.417969 266.890625 C 639.742188 256.246094 641.378906 245.347656 641.320312 234.195312 C 641.324219 231.570312 641.230469 228.953125 641.046875 226.335938 C 640.863281 223.71875 640.589844 221.113281 640.222656 218.515625 C 639.855469 215.921875 639.394531 213.339844 638.84375 210.777344 C 638.292969 208.210938 637.652344 205.671875 636.925781 203.152344 C 636.195312 200.632812 635.375 198.144531 634.46875 195.683594 C 633.5625 193.222656 632.570312 190.796875 631.492188 188.40625 C 630.414062 186.015625 629.253906 183.667969 628.011719 181.359375 C 626.765625 179.050781 625.441406 176.789062 624.039062 174.574219 C 622.632812 172.359375 621.152344 170.195312 619.597656 168.085938 C 618.039062 165.976562 616.410156 163.925781 614.707031 161.929688 C 613.003906 159.9375 611.234375 158.003906 609.394531 156.136719 C 607.554688 154.265625 605.652344 152.464844 603.6875 150.730469 C 601.722656 148.996094 599.695312 147.332031 597.613281 145.742188 C 595.527344 144.148438 593.390625 142.636719 591.199219 141.195312 C 589.007812 139.753906 586.769531 138.394531 584.480469 137.113281 C 582.191406 135.832031 579.863281 134.632812 577.492188 133.519531 C 575.117188 132.402344 572.710938 131.371094 570.265625 130.425781 C 567.820312 129.480469 565.34375 128.621094 562.835938 127.851562 C 560.332031 127.082031 557.800781 126.398438 555.246094 125.808594 C 552.691406 125.214844 550.121094 124.714844 547.53125 124.308594 C 544.941406 123.898438 542.339844 123.582031 539.730469 123.355469 C 537.117188 123.128906 534.5 122.996094 531.878906 122.957031 C 529.257812 122.917969 526.636719 122.972656 524.019531 123.117188 C 521.402344 123.261719 518.792969 123.5 516.191406 123.828125 C 513.59375 124.160156 511.007812 124.582031 508.433594 125.09375 C 505.863281 125.609375 503.316406 126.210938 500.785156 126.90625 C 498.257812 127.601562 495.757812 128.382812 493.285156 129.253906 C 490.8125 130.125 488.371094 131.082031 485.96875 132.125 C 483.5625 133.167969 481.195312 134.296875 478.871094 135.507812 C 476.546875 136.71875 474.265625 138.007812 472.03125 139.382812 C 469.796875 140.753906 467.617188 142.203125 465.484375 143.730469 C 463.351562 145.257812 461.277344 146.855469 459.257812 148.53125 C 458.792969 146.382812 458.277344 144.246094 457.714844 142.121094 C 457.152344 139.996094 456.539062 137.886719 455.878906 135.789062 C 455.21875 133.691406 454.511719 131.613281 453.753906 129.550781 C 453 127.484375 452.199219 125.4375 451.347656 123.410156 C 450.5 121.382812 449.601562 119.378906 448.660156 117.390625 C 447.71875 115.40625 446.734375 113.441406 445.703125 111.5 C 444.671875 109.558594 443.597656 107.644531 442.476562 105.75 C 441.359375 103.859375 440.195312 101.996094 438.992188 100.15625 C 437.785156 98.316406 436.539062 96.507812 435.253906 94.726562 C 433.964844 92.945312 432.636719 91.195312 431.269531 89.472656 C 429.902344 87.753906 428.496094 86.066406 427.050781 84.410156 C 425.605469 82.753906 424.125 81.132812 422.605469 79.542969 C 421.085938 77.957031 419.53125 76.402344 417.9375 74.886719 C 416.347656 73.371094 414.722656 71.890625 413.066406 70.449219 C 411.40625 69.007812 409.714844 67.601562 407.992188 66.238281 C 406.269531 64.875 404.519531 63.550781 402.734375 62.265625 C 400.949219 60.980469 399.140625 59.738281 397.296875 58.535156 C 395.457031 57.335938 393.589844 56.175781 391.699219 55.0625 C 389.804688 53.945312 387.886719 52.875 385.945312 51.847656 C 384 50.820312 382.035156 49.835938 380.046875 48.898438 C 378.0625 47.960938 376.054688 47.070312 374.023438 46.222656 C 371.996094 45.378906 369.949219 44.578125 367.882812 43.828125 C 365.820312 43.078125 363.738281 42.371094 361.640625 41.714844 C 359.542969 41.058594 357.433594 40.453125 355.308594 39.894531 C 353.183594 39.332031 351.046875 38.824219 348.898438 38.363281 C 346.75 37.902344 344.589844 37.488281 342.421875 37.125 C 340.253906 36.765625 338.082031 36.453125 335.898438 36.1875 C 333.71875 35.925781 331.53125 35.714844 329.339844 35.550781 C 327.148438 35.386719 324.953125 35.277344 322.757812 35.214844 C 320.558594 35.152344 318.363281 35.140625 316.167969 35.179688 C 313.96875 35.21875 311.773438 35.308594 309.582031 35.445312 C 307.386719 35.585938 305.199219 35.777344 303.015625 36.015625 C 300.832031 36.253906 298.652344 36.546875 296.480469 36.886719 C 294.3125 37.226562 292.148438 37.613281 289.996094 38.054688 C 287.84375 38.492188 285.699219 38.980469 283.570312 39.515625 C 281.4375 40.054688 279.320312 40.640625 277.214844 41.273438 C 275.113281 41.90625 273.023438 42.589844 270.953125 43.320312 C 268.878906 44.050781 266.824219 44.828125 264.785156 45.652344 C 262.75 46.476562 260.730469 47.34375 258.734375 48.261719 C 256.738281 49.179688 254.761719 50.140625 252.808594 51.148438 C 250.855469 52.15625 248.925781 53.207031 247.023438 54.300781 C 245.117188 55.398438 243.238281 56.535156 241.382812 57.71875 C 239.53125 58.898438 237.707031 60.125 235.910156 61.390625 C 234.113281 62.65625 232.347656 63.960938 230.609375 65.308594 C 228.871094 66.652344 227.167969 68.039062 225.492188 69.464844 C 223.820312 70.890625 222.179688 72.351562 220.574219 73.851562 C 218.96875 75.351562 217.398438 76.886719 215.859375 78.457031 C 214.324219 80.03125 212.824219 81.636719 211.363281 83.277344 C 209.898438 84.917969 208.476562 86.59375 207.089844 88.296875 C 205.703125 90.003906 204.359375 91.742188 203.050781 93.507812 C 201.746094 95.277344 200.480469 97.074219 199.257812 98.898438 C 198.035156 100.722656 196.851562 102.578125 195.714844 104.457031 C 194.574219 106.335938 193.480469 108.242188 192.425781 110.171875 C 191.375 112.101562 190.367188 114.054688 189.40625 116.03125 C 188.445312 118.007812 187.527344 120.003906 186.65625 122.023438 C 185.789062 124.042969 184.964844 126.078125 184.1875 128.132812 C 183.410156 130.191406 182.679688 132.261719 181.996094 134.351562 C 181.3125 136.441406 180.679688 138.546875 180.09375 140.664062 C 179.507812 142.785156 178.972656 144.914062 178.484375 147.058594 C 177.996094 149.199219 177.554688 151.355469 177.167969 153.519531 C 176.777344 155.679688 176.4375 157.851562 176.148438 160.03125 C 175.855469 162.210938 175.617188 164.394531 175.425781 166.585938 C 175.238281 168.773438 175.097656 170.96875 175.007812 173.164062 C 174.917969 175.359375 174.878906 177.558594 174.890625 179.753906 C 174.855469 188.996094 175.726562 198.152344 177.507812 207.21875 C 171.550781 206.289062 165.558594 205.855469 159.527344 205.914062 C 156.230469 205.902344 152.9375 206.027344 149.652344 206.289062 C 146.363281 206.550781 143.09375 206.949219 139.839844 207.480469 C 136.585938 208.011719 133.359375 208.675781 130.15625 209.476562 C 126.957031 210.273438 123.796875 211.203125 120.675781 212.261719 C 117.550781 213.324219 114.476562 214.507812 111.453125 215.824219 C 108.429688 217.136719 105.460938 218.570312 102.554688 220.128906 C 99.648438 221.6875 96.8125 223.363281 94.042969 225.15625 C 91.277344 226.949219 88.585938 228.855469 85.976562 230.871094 C 83.367188 232.886719 80.84375 235.003906 78.40625 237.226562 C 75.972656 239.449219 73.632812 241.769531 71.386719 244.1875 C 69.140625 246.605469 67 249.109375 64.964844 251.703125 C 62.925781 254.296875 61 256.96875 59.183594 259.722656 C 57.367188 262.476562 55.664062 265.300781 54.082031 268.191406 C 52.5 271.085938 51.035156 274.039062 49.695312 277.054688 C 48.355469 280.066406 47.144531 283.132812 46.054688 286.246094 C 44.96875 289.359375 44.011719 292.515625 43.1875 295.707031 C 42.359375 298.902344 41.667969 302.121094 41.105469 305.375 C 40.546875 308.625 40.121094 311.890625 39.828125 315.179688 C 39.539062 318.464844 39.382812 321.753906 39.363281 325.054688 C 39.34375 328.351562 39.460938 331.648438 39.714844 334.933594 C 39.96875 338.222656 40.355469 341.496094 40.878906 344.753906 C 41.402344 348.011719 42.058594 351.242188 42.847656 354.441406 C 43.640625 357.644531 44.558594 360.808594 45.609375 363.9375 C 46.660156 367.0625 47.839844 370.140625 49.144531 373.171875 C 50.449219 376.199219 51.878906 379.171875 53.429688 382.082031 C 54.980469 384.992188 56.644531 387.835938 58.429688 390.609375 C 60.214844 393.382812 62.113281 396.078125 64.121094 398.695312 C 66.128906 401.3125 68.238281 403.839844 70.457031 406.28125 C 72.671875 408.726562 74.984375 411.070312 77.394531 413.324219 C 79.804688 415.574219 82.304688 417.722656 84.890625 419.769531 C 87.480469 421.8125 90.148438 423.746094 92.894531 425.570312 C 95.640625 427.398438 98.460938 429.105469 101.347656 430.695312 C 104.988281 433.136719 108.792969 435.296875 112.753906 437.171875 C 116.714844 439.050781 120.792969 440.625 124.988281 441.902344 C 129.183594 443.175781 133.449219 444.132812 137.785156 444.777344 C 142.121094 445.417969 146.484375 445.738281 150.867188 445.738281 L 639.195312 445.738281 C 640.660156 445.734375 642.121094 445.695312 643.582031 445.621094 C 645.039062 445.546875 646.5 445.4375 647.953125 445.292969 C 649.410156 445.144531 650.859375 444.964844 652.304688 444.746094 C 653.75 444.53125 655.191406 444.277344 656.625 443.992188 C 658.058594 443.703125 659.484375 443.382812 660.902344 443.023438 C 662.320312 442.667969 663.730469 442.277344 665.128906 441.851562 C 666.527344 441.421875 667.914062 440.964844 669.289062 440.46875 C 670.667969 439.976562 672.03125 439.449219 673.382812 438.886719 C 674.730469 438.324219 676.066406 437.730469 677.390625 437.105469 C 678.710938 436.480469 680.015625 435.820312 681.304688 435.128906 C 682.59375 434.4375 683.867188 433.71875 685.121094 432.964844 C 686.375 432.210938 687.609375 431.429688 688.824219 430.617188 C 690.039062 429.804688 691.234375 428.960938 692.40625 428.089844 C 693.582031 427.21875 694.734375 426.316406 695.863281 425.390625 C 696.996094 424.460938 698.101562 423.503906 699.183594 422.523438 C 700.269531 421.539062 701.328125 420.53125 702.359375 419.496094 C 703.394531 418.464844 704.402344 417.402344 705.386719 416.320312 C 706.367188 415.238281 707.324219 414.128906 708.25 413 C 709.179688 411.867188 710.078125 410.714844 710.949219 409.542969 C 711.820312 408.367188 712.664062 407.171875 713.476562 405.957031 C 714.289062 404.738281 715.070312 403.503906 715.824219 402.25 C 716.578125 400.996094 717.296875 399.726562 717.988281 398.433594 C 718.679688 397.144531 719.335938 395.839844 719.964844 394.519531 C 720.589844 393.195312 721.183594 391.859375 721.742188 390.507812 C 722.304688 389.15625 722.832031 387.792969 723.328125 386.417969 C 723.820312 385.039062 724.28125 383.652344 724.707031 382.253906 C 725.132812 380.855469 725.523438 379.445312 725.882812 378.027344 C 726.238281 376.609375 726.558594 375.183594 726.847656 373.746094 C 727.136719 372.3125 727.386719 370.875 727.605469 369.425781 C 727.820312 367.980469 728 366.527344 728.148438 365.074219 C 728.292969 363.617188 728.402344 362.160156 728.476562 360.699219 C 728.550781 359.238281 728.589844 357.777344 728.59375 356.3125 C 728.589844 354.851562 728.550781 353.390625 728.476562 351.929688 C 728.402344 350.46875 728.292969 349.007812 728.148438 347.554688 C 728 346.097656 727.820312 344.648438 727.605469 343.199219 C 727.386719 341.753906 727.136719 340.3125 726.847656 338.878906 C 726.558594 337.445312 726.238281 336.019531 725.882812 334.601562 C 725.523438 333.183594 725.132812 331.773438 724.707031 330.375 C 724.28125 328.972656 723.820312 327.585938 723.328125 326.210938 C 722.832031 324.832031 722.304688 323.46875 721.742188 322.117188 C 721.183594 320.765625 720.589844 319.429688 719.964844 318.109375 C 719.335938 316.789062 718.679688 315.480469 717.988281 314.191406 C 717.296875 312.902344 716.578125 311.628906 715.824219 310.375 C 715.070312 309.121094 714.289062 307.886719 713.476562 306.671875 C 712.664062 305.457031 711.820312 304.261719 710.949219 303.085938 C 710.078125 301.910156 709.179688 300.757812 708.25 299.628906 C 707.324219 298.496094 706.367188 297.390625 705.386719 296.304688 C 704.402344 295.222656 703.394531 294.164062 702.359375 293.128906 C 701.328125 292.09375 700.269531 291.085938 699.183594 290.105469 C 698.101562 289.121094 696.996094 288.167969 695.863281 287.238281 C 694.734375 286.308594 693.582031 285.410156 692.40625 284.539062 C 691.234375 283.667969 690.039062 282.824219 688.824219 282.011719 C 687.609375 281.199219 686.375 280.414062 685.121094 279.660156 C 683.867188 278.910156 682.59375 278.1875 681.304688 277.496094 C 680.015625 276.808594 678.710938 276.148438 677.390625 275.523438 C 676.066406 274.894531 674.730469 274.300781 673.382812 273.742188 C 672.03125 273.179688 670.667969 272.652344 669.289062 272.15625 C 667.914062 271.664062 666.527344 271.203125 665.128906 270.777344 C 663.730469 270.351562 662.320312 269.960938 660.902344 269.601562 C 659.484375 269.246094 658.058594 268.921875 656.625 268.636719 C 655.191406 268.347656 653.75 268.097656 652.304688 267.878906 C 650.859375 267.664062 649.410156 267.480469 647.953125 267.335938 C 646.5 267.191406 645.039062 267.078125 643.582031 267.003906 C 642.121094 266.929688 640.660156 266.894531 639.195312 266.890625 Z M 639.195312 266.890625 " fill-opacity="1" fill-rule="nonzero"/></g></svg>