<svg xmlns="http://www.w3.org/2000/svg" xmlns:xlink="http://www.w3.org/1999/xlink" width="1024" zoomAndPan="magnify" viewBox="0 0 768 767.999994" height="1024" preserveAspectRatio="xMidYMid meet" version="1.0"><defs><clipPath id="9c3c18cc78"><path d="M 39 76.769531 L 532 76.769531 L 532 370 L 39 370 Z M 39 76.769531 " clip-rule="nonzero"/></clipPath><clipPath id="0cd2e2d46f"><path d="M 160 484 L 512 484 L 512 691.019531 L 160 691.019531 Z M 160 484 " clip-rule="nonzero"/></clipPath></defs><g clip-path="url(#9c3c18cc78)"><path fill="#26477a" d="M 467.402344 241.914062 L 465.511719 241.914062 C 467.871094 234.296875 469.035156 226.503906 469 218.53125 C 469 216.65625 468.929688 214.785156 468.796875 212.917969 C 468.664062 211.050781 468.464844 209.1875 468.203125 207.332031 C 467.9375 205.480469 467.605469 203.636719 467.210938 201.804688 C 466.816406 199.972656 466.355469 198.160156 465.832031 196.359375 C 465.308594 194.5625 464.722656 192.785156 464.074219 191.027344 C 463.425781 189.269531 462.714844 187.539062 461.941406 185.832031 C 461.171875 184.125 460.339844 182.445312 459.449219 180.800781 C 458.558594 179.152344 457.609375 177.535156 456.605469 175.957031 C 455.601562 174.375 454.542969 172.832031 453.429688 171.324219 C 452.316406 169.820312 451.148438 168.355469 449.929688 166.929688 C 448.714844 165.507812 447.445312 164.128906 446.132812 162.792969 C 444.816406 161.457031 443.457031 160.171875 442.050781 158.933594 C 440.644531 157.695312 439.195312 156.511719 437.707031 155.375 C 436.214844 154.238281 434.6875 153.15625 433.121094 152.128906 C 431.554688 151.101562 429.953125 150.132812 428.316406 149.214844 C 426.683594 148.300781 425.015625 147.445312 423.320312 146.648438 C 421.625 145.855469 419.902344 145.117188 418.15625 144.441406 C 416.40625 143.769531 414.636719 143.15625 412.84375 142.605469 C 411.054688 142.058594 409.246094 141.570312 407.421875 141.148438 C 405.59375 140.726562 403.757812 140.371094 401.90625 140.078125 C 400.054688 139.785156 398.195312 139.5625 396.328125 139.398438 C 394.460938 139.238281 392.589844 139.144531 390.71875 139.117188 C 388.84375 139.089844 386.972656 139.128906 385.101562 139.230469 C 383.230469 139.335938 381.367188 139.503906 379.507812 139.742188 C 377.648438 139.976562 375.800781 140.277344 373.960938 140.644531 C 372.125 141.011719 370.300781 141.441406 368.496094 141.9375 C 366.6875 142.433594 364.902344 142.992188 363.132812 143.613281 C 361.367188 144.238281 359.621094 144.921875 357.902344 145.664062 C 356.183594 146.410156 354.492188 147.214844 352.832031 148.082031 C 351.167969 148.945312 349.539062 149.867188 347.941406 150.847656 C 346.347656 151.828125 344.785156 152.863281 343.261719 153.953125 C 341.738281 155.042969 340.253906 156.183594 338.8125 157.378906 C 338.472656 155.855469 338.097656 154.335938 337.6875 152.824219 C 337.277344 151.316406 336.832031 149.816406 336.351562 148.328125 C 335.875 146.835938 335.363281 145.359375 334.816406 143.894531 C 334.269531 142.429688 333.691406 140.976562 333.078125 139.535156 C 332.464844 138.097656 331.820312 136.671875 331.144531 135.261719 C 330.464844 133.851562 329.757812 132.457031 329.015625 131.078125 C 328.273438 129.699219 327.503906 128.339844 326.699219 126.996094 C 325.894531 125.65625 325.0625 124.332031 324.199219 123.027344 C 323.335938 121.722656 322.441406 120.4375 321.519531 119.175781 C 320.597656 117.910156 319.648438 116.667969 318.667969 115.449219 C 317.6875 114.226562 316.683594 113.03125 315.648438 111.855469 C 314.613281 110.679688 313.554688 109.53125 312.46875 108.40625 C 311.382812 107.277344 310.273438 106.175781 309.136719 105.101562 C 308 104.027344 306.839844 102.976562 305.652344 101.953125 C 304.46875 100.933594 303.261719 99.9375 302.03125 98.96875 C 300.804688 98.003906 299.550781 97.0625 298.28125 96.152344 C 297.007812 95.242188 295.714844 94.363281 294.402344 93.511719 C 293.089844 92.660156 291.757812 91.835938 290.40625 91.046875 C 289.054688 90.257812 287.6875 89.496094 286.304688 88.769531 C 284.917969 88.039062 283.519531 87.34375 282.101562 86.679688 C 280.683594 86.015625 279.253906 85.382812 277.808594 84.785156 C 276.363281 84.183594 274.902344 83.617188 273.433594 83.085938 C 271.960938 82.554688 270.476562 82.054688 268.984375 81.589844 C 267.488281 81.125 265.984375 80.695312 264.472656 80.296875 C 262.957031 79.902344 261.433594 79.539062 259.90625 79.214844 C 258.375 78.886719 256.835938 78.59375 255.292969 78.339844 C 253.75 78.082031 252.199219 77.859375 250.648438 77.675781 C 249.09375 77.488281 247.535156 77.335938 245.976562 77.222656 C 244.414062 77.109375 242.851562 77.027344 241.289062 76.984375 C 239.722656 76.941406 238.160156 76.933594 236.59375 76.960938 C 235.03125 76.988281 233.464844 77.050781 231.90625 77.152344 C 230.34375 77.25 228.785156 77.382812 227.230469 77.554688 C 225.671875 77.722656 224.121094 77.929688 222.574219 78.171875 C 221.03125 78.410156 219.488281 78.6875 217.957031 79 C 216.421875 79.308594 214.894531 79.65625 213.378906 80.035156 C 211.859375 80.417969 210.351562 80.832031 208.851562 81.28125 C 207.355469 81.730469 205.867188 82.214844 204.390625 82.730469 C 202.914062 83.25 201.449219 83.800781 199.996094 84.382812 C 198.546875 84.96875 197.109375 85.585938 195.683594 86.234375 C 194.261719 86.882812 192.851562 87.566406 191.460938 88.28125 C 190.066406 88.996094 188.691406 89.738281 187.332031 90.515625 C 185.976562 91.292969 184.636719 92.101562 183.3125 92.9375 C 181.992188 93.777344 180.691406 94.644531 179.410156 95.542969 C 178.128906 96.4375 176.867188 97.363281 175.625 98.320312 C 174.386719 99.273438 173.167969 100.257812 171.976562 101.265625 C 170.78125 102.277344 169.609375 103.316406 168.460938 104.378906 C 167.3125 105.441406 166.191406 106.53125 165.09375 107.648438 C 163.996094 108.761719 162.925781 109.902344 161.878906 111.066406 C 160.832031 112.230469 159.816406 113.414062 158.824219 114.625 C 157.832031 115.835938 156.867188 117.070312 155.933594 118.324219 C 154.996094 119.578125 154.089844 120.851562 153.214844 122.148438 C 152.335938 123.445312 151.492188 124.757812 150.671875 126.09375 C 149.855469 127.425781 149.070312 128.78125 148.316406 130.148438 C 147.558594 131.519531 146.835938 132.90625 146.144531 134.308594 C 145.453125 135.710938 144.792969 137.128906 144.164062 138.5625 C 143.539062 139.996094 142.945312 141.445312 142.382812 142.90625 C 141.820312 144.363281 141.292969 145.835938 140.800781 147.320312 C 140.304688 148.804688 139.847656 150.300781 139.421875 151.804688 C 138.996094 153.3125 138.605469 154.824219 138.246094 156.347656 C 137.890625 157.871094 137.570312 159.402344 137.28125 160.941406 C 136.996094 162.480469 136.746094 164.023438 136.527344 165.570312 C 136.3125 167.121094 136.132812 168.675781 135.984375 170.230469 C 135.839844 171.789062 135.730469 173.351562 135.65625 174.914062 C 135.582031 176.476562 135.542969 178.039062 135.542969 179.601562 C 135.582031 186.195312 136.210938 192.734375 137.429688 199.210938 C 133.1875 198.621094 128.925781 198.332031 124.644531 198.339844 C 122.296875 198.347656 119.953125 198.453125 117.613281 198.652344 C 115.273438 198.851562 112.945312 199.148438 110.628906 199.539062 C 108.3125 199.929688 106.015625 200.414062 103.738281 200.996094 C 101.464844 201.574219 99.214844 202.25 96.996094 203.011719 C 94.773438 203.777344 92.589844 204.632812 90.4375 205.578125 C 88.289062 206.519531 86.179688 207.550781 84.113281 208.667969 C 82.050781 209.785156 80.035156 210.988281 78.066406 212.269531 C 76.097656 213.554688 74.1875 214.914062 72.332031 216.355469 C 70.480469 217.796875 68.6875 219.308594 66.957031 220.898438 C 65.226562 222.484375 63.5625 224.140625 61.96875 225.863281 C 60.375 227.589844 58.851562 229.375 57.40625 231.222656 C 55.957031 233.074219 54.589844 234.976562 53.296875 236.9375 C 52.007812 238.902344 50.800781 240.910156 49.675781 242.972656 C 48.550781 245.035156 47.511719 247.136719 46.558594 249.285156 C 45.605469 251.429688 44.742188 253.609375 43.96875 255.828125 C 43.195312 258.046875 42.515625 260.289062 41.925781 262.5625 C 41.339844 264.835938 40.84375 267.128906 40.445312 269.441406 C 40.042969 271.757812 39.738281 274.082031 39.53125 276.421875 C 39.324219 278.757812 39.210938 281.101562 39.195312 283.449219 C 39.179688 285.796875 39.257812 288.144531 39.433594 290.484375 C 39.613281 292.824219 39.882812 295.15625 40.253906 297.472656 C 40.621094 299.792969 41.082031 302.09375 41.640625 304.375 C 42.199219 306.65625 42.847656 308.910156 43.589844 311.136719 C 44.335938 313.363281 45.167969 315.554688 46.089844 317.714844 C 47.011719 319.875 48.023438 321.992188 49.121094 324.066406 C 50.21875 326.144531 51.398438 328.171875 52.664062 330.148438 C 53.925781 332.128906 55.269531 334.054688 56.691406 335.921875 C 58.113281 337.789062 59.609375 339.597656 61.179688 341.34375 C 62.75 343.089844 64.390625 344.765625 66.097656 346.378906 C 67.808594 347.988281 69.578125 349.527344 71.414062 350.992188 C 73.25 352.457031 75.140625 353.84375 77.089844 355.15625 C 79.039062 356.464844 81.039062 357.691406 83.089844 358.839844 C 85.683594 360.582031 88.394531 362.125 91.21875 363.46875 C 94.042969 364.808594 96.949219 365.933594 99.941406 366.847656 C 102.933594 367.757812 105.972656 368.441406 109.066406 368.902344 C 112.160156 369.359375 115.269531 369.589844 118.398438 369.585938 L 467.402344 369.585938 C 469.492188 369.582031 471.582031 369.476562 473.664062 369.265625 C 475.746094 369.054688 477.8125 368.746094 479.863281 368.335938 C 481.914062 367.921875 483.941406 367.414062 485.941406 366.800781 C 487.945312 366.191406 489.910156 365.484375 491.84375 364.683594 C 493.777344 363.878906 495.664062 362.984375 497.507812 361.996094 C 499.351562 361.011719 501.144531 359.933594 502.882812 358.769531 C 504.625 357.609375 506.300781 356.363281 507.917969 355.035156 C 509.535156 353.707031 511.085938 352.304688 512.5625 350.824219 C 514.042969 349.347656 515.449219 347.796875 516.773438 346.183594 C 518.101562 344.566406 519.347656 342.886719 520.511719 341.148438 C 521.675781 339.410156 522.75 337.621094 523.738281 335.777344 C 524.726562 333.929688 525.625 332.042969 526.425781 330.113281 C 527.230469 328.179688 527.9375 326.214844 528.546875 324.214844 C 529.15625 322.210938 529.667969 320.1875 530.078125 318.136719 C 530.492188 316.085938 530.800781 314.019531 531.011719 311.9375 C 531.21875 309.855469 531.328125 307.769531 531.332031 305.679688 C 531.320312 303.589844 531.210938 301.503906 530.996094 299.429688 C 530.785156 297.351562 530.46875 295.289062 530.054688 293.242188 C 529.640625 291.195312 529.125 289.171875 528.511719 287.175781 C 527.898438 285.175781 527.191406 283.214844 526.382812 281.289062 C 525.578125 279.359375 524.683594 277.476562 523.691406 275.636719 C 522.703125 273.796875 521.625 272.011719 520.460938 270.277344 C 519.296875 268.542969 518.050781 266.867188 516.722656 265.253906 C 515.394531 263.644531 513.992188 262.097656 512.511719 260.625 C 511.035156 259.148438 509.484375 257.75 507.871094 256.425781 C 506.253906 255.101562 504.578125 253.859375 502.839844 252.699219 C 501.101562 251.539062 499.3125 250.464844 497.46875 249.480469 C 495.625 248.496094 493.738281 247.605469 491.808594 246.804688 C 489.878906 246.003906 487.914062 245.300781 485.917969 244.691406 C 483.917969 244.082031 481.894531 243.574219 479.84375 243.164062 C 477.796875 242.753906 475.730469 242.441406 473.652344 242.234375 C 471.574219 242.027344 469.488281 241.917969 467.402344 241.914062 Z M 467.402344 241.914062 " fill-opacity="1" fill-rule="nonzero"/></g><path fill="#6b99d2" d="M 466.527344 434.367188 L 465.074219 434.367188 C 466.894531 428.402344 467.816406 422.300781 467.835938 416.066406 C 467.835938 413.136719 467.625 410.222656 467.210938 407.320312 C 466.792969 404.421875 466.175781 401.5625 465.355469 398.75 C 464.535156 395.9375 463.519531 393.199219 462.3125 390.527344 C 461.101562 387.859375 459.710938 385.289062 458.136719 382.816406 C 456.566406 380.347656 454.824219 377.996094 452.917969 375.773438 C 451.011719 373.546875 448.957031 371.46875 446.757812 369.53125 C 444.554688 367.597656 442.230469 365.828125 439.777344 364.222656 C 437.324219 362.621094 434.773438 361.195312 432.117188 359.953125 C 429.464844 358.710938 426.738281 357.660156 423.933594 356.804688 C 421.132812 355.945312 418.28125 355.292969 415.386719 354.839844 C 412.492188 354.386719 409.578125 354.140625 406.648438 354.097656 C 403.71875 354.058594 400.796875 354.226562 397.890625 354.597656 C 394.984375 354.972656 392.117188 355.546875 389.292969 356.328125 C 386.46875 357.105469 383.710938 358.082031 381.023438 359.25 C 378.339844 360.417969 375.746094 361.773438 373.25 363.308594 C 370.757812 364.847656 368.382812 366.550781 366.128906 368.425781 C 365.617188 366.019531 365 363.644531 364.273438 361.296875 C 363.542969 358.949219 362.710938 356.636719 361.769531 354.367188 C 360.828125 352.09375 359.785156 349.871094 358.640625 347.695312 C 357.496094 345.523438 356.25 343.402344 354.910156 341.34375 C 353.570312 339.28125 352.140625 337.285156 350.617188 335.355469 C 349.09375 333.425781 347.484375 331.570312 345.789062 329.789062 C 344.09375 328.007812 342.320312 326.308594 340.46875 324.691406 C 338.621094 323.074219 336.699219 321.542969 334.707031 320.101562 C 332.714844 318.660156 330.660156 317.3125 328.546875 316.058594 C 326.429688 314.804688 324.261719 313.652344 322.039062 312.597656 C 319.820312 311.546875 317.554688 310.597656 315.242188 309.75 C 312.933594 308.90625 310.59375 308.167969 308.214844 307.539062 C 305.839844 306.910156 303.4375 306.390625 301.011719 305.980469 C 298.585938 305.570312 296.148438 305.273438 293.699219 305.089844 C 291.246094 304.902344 288.789062 304.832031 286.332031 304.871094 C 283.871094 304.914062 281.421875 305.066406 278.976562 305.332031 C 276.53125 305.601562 274.105469 305.976562 271.695312 306.46875 C 269.285156 306.957031 266.902344 307.554688 264.546875 308.265625 C 262.195312 308.972656 259.875 309.789062 257.597656 310.710938 C 255.316406 311.628906 253.085938 312.65625 250.898438 313.78125 C 248.714844 314.910156 246.585938 316.132812 244.511719 317.457031 C 242.4375 318.777344 240.433594 320.195312 238.488281 321.699219 C 236.546875 323.207031 234.675781 324.800781 232.882812 326.480469 C 231.085938 328.160156 229.371094 329.917969 227.734375 331.753906 C 226.101562 333.589844 224.554688 335.5 223.097656 337.476562 C 221.636719 339.457031 220.273438 341.5 219.003906 343.601562 C 217.730469 345.707031 216.558594 347.867188 215.488281 350.078125 C 214.414062 352.289062 213.445312 354.546875 212.582031 356.847656 C 211.71875 359.148438 210.960938 361.484375 210.3125 363.855469 C 209.660156 366.226562 209.121094 368.621094 208.691406 371.042969 C 208.261719 373.460938 207.945312 375.898438 207.742188 378.347656 C 207.535156 380.796875 207.445312 383.25 207.464844 385.707031 C 207.507812 390.882812 207.992188 396.015625 208.917969 401.105469 C 205.601562 400.511719 202.257812 400.222656 198.890625 400.234375 C 197.050781 400.230469 195.214844 400.300781 193.382812 400.445312 C 191.546875 400.59375 189.722656 400.816406 187.90625 401.113281 C 186.089844 401.410156 184.289062 401.78125 182.503906 402.226562 C 180.722656 402.675781 178.957031 403.191406 177.214844 403.785156 C 175.472656 404.375 173.757812 405.039062 172.070312 405.773438 C 170.382812 406.503906 168.730469 407.304688 167.109375 408.175781 C 165.488281 409.046875 163.90625 409.980469 162.359375 410.980469 C 160.816406 411.980469 159.316406 413.042969 157.859375 414.167969 C 156.40625 415.292969 154.996094 416.476562 153.640625 417.714844 C 152.28125 418.957031 150.976562 420.25 149.722656 421.597656 C 148.472656 422.945312 147.277344 424.34375 146.144531 425.789062 C 145.007812 427.238281 143.933594 428.726562 142.917969 430.261719 C 141.90625 431.800781 140.957031 433.375 140.074219 434.988281 C 139.191406 436.601562 138.378906 438.246094 137.632812 439.929688 C 136.886719 441.609375 136.207031 443.320312 135.601562 445.054688 C 134.996094 446.792969 134.464844 448.550781 134.003906 450.332031 C 133.542969 452.113281 133.15625 453.910156 132.847656 455.722656 C 132.535156 457.535156 132.296875 459.355469 132.136719 461.1875 C 131.976562 463.019531 131.890625 464.855469 131.878906 466.695312 C 131.871094 468.535156 131.9375 470.371094 132.078125 472.203125 C 132.21875 474.039062 132.4375 475.863281 132.730469 477.679688 C 133.023438 479.496094 133.390625 481.296875 133.832031 483.082031 C 134.273438 484.867188 134.789062 486.628906 135.375 488.375 C 135.960938 490.117188 136.621094 491.832031 137.347656 493.519531 C 138.078125 495.210938 138.875 496.867188 139.742188 498.488281 C 140.609375 500.109375 141.539062 501.695312 142.535156 503.242188 C 143.53125 504.789062 144.589844 506.289062 145.710938 507.75 C 146.832031 509.207031 148.011719 510.617188 149.25 511.976562 C 150.484375 513.339844 151.777344 514.648438 153.121094 515.902344 C 154.46875 517.15625 155.863281 518.351562 157.304688 519.492188 C 158.75 520.632812 160.238281 521.710938 161.773438 522.726562 C 163.304688 523.742188 164.878906 524.695312 166.492188 525.582031 C 170.5625 528.34375 174.949219 530.445312 179.65625 531.878906 C 184.363281 533.316406 189.175781 534.023438 194.097656 534.007812 L 466.527344 534.007812 C 468.164062 534.007812 469.792969 533.925781 471.417969 533.765625 C 473.042969 533.605469 474.660156 533.367188 476.261719 533.050781 C 477.863281 532.730469 479.449219 532.335938 481.011719 531.863281 C 482.574219 531.390625 484.113281 530.839844 485.621094 530.214844 C 487.132812 529.59375 488.609375 528.894531 490.050781 528.128906 C 491.492188 527.359375 492.890625 526.523438 494.253906 525.617188 C 495.613281 524.710938 496.921875 523.738281 498.1875 522.703125 C 499.453125 521.671875 500.664062 520.578125 501.820312 519.421875 C 502.976562 518.269531 504.074219 517.0625 505.113281 515.800781 C 506.152344 514.539062 507.125 513.230469 508.035156 511.875 C 508.945312 510.519531 509.789062 509.121094 510.5625 507.683594 C 511.335938 506.242188 512.035156 504.769531 512.664062 503.261719 C 513.292969 501.753906 513.847656 500.21875 514.324219 498.65625 C 514.800781 497.097656 515.203125 495.515625 515.527344 493.914062 C 515.847656 492.3125 516.09375 490.699219 516.257812 489.074219 C 516.421875 487.449219 516.507812 485.820312 516.511719 484.1875 C 516.507812 482.554688 516.421875 480.921875 516.257812 479.296875 C 516.09375 477.671875 515.847656 476.0625 515.527344 474.460938 C 515.203125 472.859375 514.800781 471.277344 514.324219 469.714844 C 513.847656 468.152344 513.292969 466.617188 512.664062 465.109375 C 512.035156 463.601562 511.335938 462.128906 510.5625 460.691406 C 509.789062 459.25 508.945312 457.855469 508.035156 456.496094 C 507.125 455.140625 506.152344 453.832031 505.113281 452.570312 C 504.074219 451.308594 502.976562 450.101562 501.820312 448.949219 C 500.664062 447.796875 499.453125 446.703125 498.1875 445.667969 C 496.921875 444.632812 495.613281 443.664062 494.253906 442.757812 C 492.890625 441.851562 491.492188 441.015625 490.050781 440.246094 C 488.609375 439.476562 487.132812 438.78125 485.621094 438.15625 C 484.113281 437.53125 482.574219 436.984375 481.011719 436.511719 C 479.449219 436.035156 477.863281 435.640625 476.261719 435.324219 C 474.660156 435.003906 473.042969 434.765625 471.417969 434.605469 C 469.792969 434.445312 468.164062 434.367188 466.527344 434.367188 Z M 466.527344 434.367188 " fill-opacity="1" fill-rule="nonzero"/><path fill="#26477a" d="M 470.453125 442.066406 L 469 442.066406 C 470.761719 436.140625 471.632812 430.089844 471.613281 423.910156 C 471.613281 420.984375 471.40625 418.070312 470.992188 415.175781 C 470.578125 412.277344 469.964844 409.421875 469.144531 406.613281 C 468.328125 403.804688 467.316406 401.066406 466.113281 398.398438 C 464.90625 395.730469 463.519531 393.164062 461.953125 390.691406 C 460.382812 388.222656 458.648438 385.875 456.746094 383.648438 C 454.84375 381.421875 452.796875 379.34375 450.601562 377.410156 C 448.402344 375.472656 446.082031 373.703125 443.636719 372.097656 C 441.191406 370.488281 438.640625 369.0625 435.992188 367.816406 C 433.34375 366.570312 430.621094 365.515625 427.824219 364.65625 C 425.027344 363.792969 422.179688 363.136719 419.289062 362.675781 C 416.398438 362.21875 413.488281 361.964844 410.5625 361.917969 C 407.636719 361.871094 404.71875 362.03125 401.816406 362.398438 C 398.910156 362.765625 396.046875 363.332031 393.222656 364.101562 C 390.398438 364.875 387.644531 365.839844 384.957031 367 C 382.269531 368.164062 379.679688 369.507812 377.179688 371.035156 C 374.683594 372.5625 372.308594 374.257812 370.050781 376.121094 C 369.507812 373.75 368.855469 371.40625 368.097656 369.09375 C 367.339844 366.777344 366.480469 364.503906 365.515625 362.265625 C 364.550781 360.03125 363.488281 357.84375 362.324219 355.703125 C 361.160156 353.566406 359.902344 351.484375 358.550781 349.460938 C 357.199219 347.433594 355.757812 345.476562 354.226562 343.582031 C 352.695312 341.6875 351.082031 339.867188 349.382812 338.121094 C 347.6875 336.375 345.914062 334.707031 344.066406 333.121094 C 342.21875 331.535156 340.300781 330.039062 338.316406 328.625 C 336.332031 327.214844 334.289062 325.894531 332.183594 324.667969 C 330.082031 323.445312 327.925781 322.316406 325.71875 321.285156 C 323.511719 320.257812 321.261719 319.328125 318.96875 318.503906 C 316.679688 317.679688 314.355469 316.957031 311.996094 316.34375 C 309.640625 315.730469 307.261719 315.222656 304.859375 314.828125 C 302.457031 314.429688 300.039062 314.140625 297.609375 313.964844 C 295.179688 313.785156 292.75 313.71875 290.3125 313.761719 C 287.878906 313.804688 285.449219 313.957031 283.027344 314.222656 C 280.609375 314.484375 278.203125 314.859375 275.816406 315.339844 C 273.429688 315.824219 271.070312 316.410156 268.734375 317.109375 C 266.402344 317.804688 264.105469 318.605469 261.84375 319.511719 C 259.582031 320.417969 257.367188 321.425781 255.199219 322.53125 C 253.027344 323.640625 250.914062 324.84375 248.855469 326.140625 C 246.792969 327.441406 244.796875 328.832031 242.863281 330.3125 C 240.929688 331.792969 239.070312 333.359375 237.277344 335.007812 C 235.488281 336.660156 233.773438 338.386719 232.140625 340.191406 C 230.507812 341.996094 228.960938 343.875 227.496094 345.820312 C 226.035156 347.765625 224.660156 349.777344 223.382812 351.847656 C 222.101562 353.917969 220.917969 356.042969 219.832031 358.222656 C 218.742188 360.402344 217.757812 362.625 216.871094 364.894531 C 215.988281 367.160156 215.207031 369.464844 214.53125 371.804688 C 213.859375 374.144531 213.289062 376.507812 212.832031 378.898438 C 212.371094 381.292969 212.019531 383.699219 211.777344 386.121094 C 211.539062 388.542969 211.40625 390.972656 211.386719 393.40625 C 211.351562 398.589844 211.835938 403.71875 212.839844 408.804688 C 209.515625 408.34375 206.171875 408.101562 202.816406 408.078125 C 200.980469 408.082031 199.152344 408.164062 197.324219 408.320312 C 195.496094 408.480469 193.679688 408.710938 191.871094 409.015625 C 190.0625 409.320312 188.269531 409.703125 186.496094 410.15625 C 184.71875 410.609375 182.960938 411.132812 181.230469 411.730469 C 179.496094 412.328125 177.789062 412.996094 176.109375 413.730469 C 174.433594 414.46875 172.785156 415.273438 171.171875 416.148438 C 169.5625 417.019531 167.988281 417.957031 166.449219 418.957031 C 164.914062 419.960938 163.421875 421.023438 161.976562 422.148438 C 160.527344 423.269531 159.125 424.453125 157.777344 425.691406 C 156.425781 426.929688 155.125 428.222656 153.882812 429.570312 C 152.636719 430.914062 151.449219 432.308594 150.316406 433.753906 C 149.1875 435.195312 148.117188 436.683594 147.109375 438.214844 C 146.101562 439.742188 145.15625 441.3125 144.277344 442.921875 C 143.398438 444.53125 142.585938 446.171875 141.839844 447.847656 C 141.097656 449.523438 140.421875 451.226562 139.816406 452.957031 C 139.214844 454.6875 138.679688 456.4375 138.21875 458.214844 C 137.757812 459.988281 137.371094 461.777344 137.058594 463.582031 C 136.746094 465.390625 136.503906 467.207031 136.339844 469.03125 C 136.175781 470.855469 136.085938 472.6875 136.074219 474.519531 C 136.058594 476.351562 136.121094 478.183594 136.257812 480.011719 C 136.394531 481.839844 136.605469 483.65625 136.890625 485.46875 C 137.175781 487.277344 137.535156 489.074219 137.96875 490.855469 C 138.402344 492.636719 138.90625 494.398438 139.484375 496.136719 C 140.0625 497.875 140.710938 499.589844 141.429688 501.277344 C 142.148438 502.960938 142.933594 504.617188 143.789062 506.238281 C 144.644531 507.859375 145.5625 509.445312 146.546875 510.992188 C 147.53125 512.535156 148.578125 514.039062 149.6875 515.5 C 150.792969 516.960938 151.960938 518.375 153.183594 519.738281 C 154.410156 521.101562 155.6875 522.414062 157.019531 523.675781 C 158.351562 524.933594 159.734375 526.136719 161.164062 527.285156 C 162.59375 528.429688 164.070312 529.515625 165.589844 530.542969 C 167.109375 531.566406 168.667969 532.527344 170.269531 533.425781 C 174.382812 536.15625 178.800781 538.242188 183.523438 539.675781 C 188.25 541.109375 193.082031 541.835938 198.019531 541.847656 L 470.453125 541.847656 C 472.085938 541.84375 473.714844 541.761719 475.339844 541.59375 C 476.964844 541.429688 478.582031 541.1875 480.183594 540.863281 C 481.785156 540.542969 483.367188 540.140625 484.929688 539.664062 C 486.492188 539.1875 488.027344 538.632812 489.535156 538.003906 C 491.042969 537.375 492.515625 536.675781 493.957031 535.902344 C 495.394531 535.128906 496.792969 534.289062 498.152344 533.378906 C 499.507812 532.46875 500.816406 531.496094 502.078125 530.457031 C 503.339844 529.417969 504.546875 528.320312 505.699219 527.164062 C 506.855469 526.007812 507.949219 524.796875 508.984375 523.53125 C 510.019531 522.269531 510.988281 520.957031 511.894531 519.597656 C 512.800781 518.238281 513.640625 516.839844 514.40625 515.398438 C 515.175781 513.957031 515.875 512.480469 516.496094 510.972656 C 517.121094 509.460938 517.671875 507.925781 518.144531 506.363281 C 518.617188 504.800781 519.011719 503.214844 519.332031 501.613281 C 519.648438 500.011719 519.890625 498.398438 520.046875 496.773438 C 520.207031 495.148438 520.289062 493.519531 520.289062 491.882812 C 520.285156 490.253906 520.199219 488.628906 520.035156 487.007812 C 519.871094 485.382812 519.628906 483.773438 519.308594 482.175781 C 518.984375 480.578125 518.585938 479 518.109375 477.4375 C 517.632812 475.878906 517.082031 474.347656 516.457031 472.84375 C 515.828125 471.335938 515.132812 469.867188 514.359375 468.429688 C 513.589844 466.992188 512.753906 465.59375 511.84375 464.242188 C 510.9375 462.886719 509.96875 461.578125 508.933594 460.316406 C 507.898438 459.058594 506.800781 457.851562 505.648438 456.699219 C 504.496094 455.546875 503.289062 454.453125 502.027344 453.417969 C 500.769531 452.382812 499.460938 451.414062 498.105469 450.503906 C 496.75 449.597656 495.351562 448.761719 493.914062 447.988281 C 492.476562 447.21875 491.007812 446.523438 489.5 445.894531 C 487.996094 445.269531 486.460938 444.71875 484.902344 444.242188 C 483.34375 443.765625 481.761719 443.367188 480.164062 443.046875 C 478.566406 442.722656 476.953125 442.480469 475.332031 442.316406 C 473.710938 442.152344 472.082031 442.070312 470.453125 442.066406 Z M 470.453125 442.066406 " fill-opacity="1" fill-rule="nonzero"/><path fill="#6b99d2" d="M 678.664062 517.882812 L 677.5 517.882812 C 678.851562 513.285156 679.53125 508.589844 679.535156 503.792969 C 679.53125 501.523438 679.371094 499.261719 679.046875 497.011719 C 678.726562 494.761719 678.246094 492.546875 677.609375 490.363281 C 676.976562 488.179688 676.191406 486.054688 675.253906 483.984375 C 674.316406 481.910156 673.238281 479.917969 672.019531 478 C 670.804688 476.078125 669.457031 474.257812 667.980469 472.527344 C 666.503906 470.800781 664.914062 469.183594 663.207031 467.679688 C 661.503906 466.175781 659.699219 464.800781 657.800781 463.550781 C 655.902344 462.300781 653.921875 461.195312 651.867188 460.222656 C 649.808594 459.253906 647.695312 458.4375 645.523438 457.765625 C 643.351562 457.09375 641.140625 456.582031 638.898438 456.222656 C 636.652344 455.863281 634.390625 455.664062 632.121094 455.628906 C 629.847656 455.589844 627.582031 455.710938 625.324219 455.992188 C 623.070312 456.273438 620.84375 456.710938 618.648438 457.304688 C 616.457031 457.902344 614.316406 458.648438 612.226562 459.546875 C 610.136719 460.445312 608.125 461.488281 606.183594 462.671875 C 604.242188 463.851562 602.394531 465.167969 600.636719 466.613281 C 600.230469 464.753906 599.738281 462.917969 599.160156 461.109375 C 598.585938 459.296875 597.925781 457.515625 597.1875 455.761719 C 596.449219 454.011719 595.628906 452.296875 594.734375 450.617188 C 593.835938 448.941406 592.867188 447.308594 591.820312 445.722656 C 590.773438 444.132812 589.65625 442.597656 588.472656 441.109375 C 587.285156 439.625 586.03125 438.195312 584.714844 436.824219 C 583.398438 435.453125 582.019531 434.144531 580.582031 432.898438 C 579.144531 431.652344 577.652344 430.476562 576.109375 429.367188 C 574.5625 428.257812 572.96875 427.222656 571.332031 426.257812 C 569.691406 425.296875 568.007812 424.410156 566.289062 423.601562 C 564.566406 422.792969 562.8125 422.0625 561.023438 421.414062 C 559.238281 420.765625 557.421875 420.199219 555.582031 419.71875 C 553.742188 419.234375 551.886719 418.835938 550.007812 418.523438 C 548.132812 418.210938 546.246094 417.984375 544.351562 417.84375 C 542.453125 417.703125 540.554688 417.652344 538.652344 417.683594 C 536.75 417.71875 534.855469 417.839844 532.964844 418.046875 C 531.074219 418.253906 529.195312 418.546875 527.332031 418.925781 C 525.46875 419.304688 523.625 419.769531 521.804688 420.316406 C 519.980469 420.863281 518.1875 421.492188 516.425781 422.207031 C 514.660156 422.917969 512.933594 423.707031 511.242188 424.578125 C 509.550781 425.449219 507.902344 426.394531 506.296875 427.414062 C 504.695312 428.433594 503.136719 429.527344 501.632812 430.6875 C 500.128906 431.851562 498.679688 433.082031 497.289062 434.378906 C 495.894531 435.671875 494.566406 437.027344 493.296875 438.445312 C 492.03125 439.863281 490.828125 441.335938 489.695312 442.863281 C 488.5625 444.390625 487.5 445.964844 486.511719 447.589844 C 485.523438 449.214844 484.609375 450.878906 483.773438 452.585938 C 482.9375 454.296875 482.183594 456.039062 481.503906 457.816406 C 480.828125 459.59375 480.234375 461.394531 479.722656 463.226562 C 479.210938 465.058594 478.785156 466.910156 478.441406 468.78125 C 478.101562 470.652344 477.84375 472.53125 477.675781 474.425781 C 477.503906 476.320312 477.421875 478.21875 477.425781 480.121094 C 477.4375 484.125 477.824219 488.097656 478.589844 492.03125 C 476.039062 491.613281 473.472656 491.421875 470.886719 491.449219 C 469.457031 491.441406 468.027344 491.488281 466.601562 491.597656 C 465.175781 491.707031 463.753906 491.875 462.34375 492.101562 C 460.929688 492.328125 459.527344 492.613281 458.140625 492.953125 C 456.75 493.296875 455.378906 493.695312 454.023438 494.152344 C 452.667969 494.605469 451.332031 495.117188 450.015625 495.683594 C 448.703125 496.25 447.414062 496.871094 446.152344 497.542969 C 444.890625 498.214844 443.65625 498.9375 442.453125 499.714844 C 441.253906 500.488281 440.082031 501.3125 438.949219 502.183594 C 437.8125 503.054688 436.71875 503.96875 435.660156 504.933594 C 434.601562 505.894531 433.582031 506.898438 432.609375 507.945312 C 431.632812 508.992188 430.703125 510.074219 429.816406 511.199219 C 428.929688 512.320312 428.09375 513.480469 427.300781 514.671875 C 426.511719 515.863281 425.773438 517.089844 425.085938 518.339844 C 424.394531 519.59375 423.761719 520.875 423.175781 522.179688 C 422.59375 523.488281 422.066406 524.816406 421.59375 526.164062 C 421.121094 527.515625 420.707031 528.882812 420.34375 530.265625 C 419.984375 531.652344 419.683594 533.046875 419.441406 534.457031 C 419.195312 535.867188 419.011719 537.285156 418.882812 538.707031 C 418.757812 540.132812 418.691406 541.558594 418.679688 542.992188 C 418.671875 544.421875 418.722656 545.847656 418.832031 547.273438 C 418.941406 548.699219 419.109375 550.121094 419.335938 551.53125 C 419.566406 552.945312 419.851562 554.34375 420.191406 555.734375 C 420.535156 557.121094 420.9375 558.492188 421.390625 559.847656 C 421.847656 561.203125 422.359375 562.539062 422.929688 563.851562 C 423.496094 565.164062 424.113281 566.453125 424.789062 567.714844 C 425.460938 568.976562 426.1875 570.207031 426.960938 571.410156 C 427.738281 572.613281 428.5625 573.777344 429.433594 574.914062 C 430.304688 576.046875 431.222656 577.140625 432.1875 578.199219 C 433.148438 579.257812 434.15625 580.273438 435.203125 581.25 C 436.25 582.222656 437.335938 583.152344 438.457031 584.039062 C 439.582031 584.921875 440.742188 585.761719 441.933594 586.550781 C 443.128906 587.339844 444.351562 588.078125 445.605469 588.765625 C 448.773438 590.921875 452.191406 592.558594 455.859375 593.675781 C 459.527344 594.789062 463.277344 595.332031 467.109375 595.300781 L 678.664062 595.300781 C 679.925781 595.296875 681.1875 595.230469 682.445312 595.101562 C 683.703125 594.972656 684.953125 594.785156 686.191406 594.535156 C 687.433594 594.285156 688.65625 593.972656 689.867188 593.605469 C 691.074219 593.234375 692.261719 592.808594 693.429688 592.320312 C 694.597656 591.835938 695.738281 591.292969 696.851562 590.695312 C 697.96875 590.097656 699.050781 589.449219 700.101562 588.746094 C 701.152344 588.042969 702.164062 587.289062 703.140625 586.488281 C 704.121094 585.683594 705.054688 584.835938 705.949219 583.941406 C 706.84375 583.046875 707.691406 582.113281 708.492188 581.136719 C 709.296875 580.160156 710.050781 579.144531 710.753906 578.09375 C 711.457031 577.046875 712.109375 575.960938 712.707031 574.847656 C 713.304688 573.734375 713.84375 572.59375 714.332031 571.425781 C 714.816406 570.261719 715.246094 569.074219 715.613281 567.863281 C 715.984375 566.65625 716.292969 565.429688 716.542969 564.191406 C 716.792969 562.953125 716.984375 561.703125 717.113281 560.445312 C 717.238281 559.191406 717.304688 557.929688 717.3125 556.664062 C 717.3125 555.398438 717.25 554.132812 717.125 552.871094 C 717 551.613281 716.816406 550.359375 716.570312 549.117188 C 716.324219 547.875 716.015625 546.644531 715.648438 545.433594 C 715.28125 544.21875 714.855469 543.027344 714.371094 541.855469 C 713.886719 540.6875 713.347656 539.542969 712.753906 538.421875 C 712.15625 537.304688 711.507812 536.21875 710.804688 535.164062 C 710.101562 534.109375 709.347656 533.09375 708.546875 532.109375 C 707.742188 531.128906 706.894531 530.191406 706 529.292969 C 705.105469 528.394531 704.167969 527.542969 703.191406 526.738281 C 702.214844 525.933594 701.199219 525.175781 700.144531 524.46875 C 699.09375 523.761719 698.007812 523.109375 696.894531 522.511719 C 695.777344 521.910156 694.632812 521.367188 693.464844 520.878906 C 692.292969 520.390625 691.101562 519.960938 689.890625 519.585938 C 688.679688 519.214844 687.453125 518.90625 686.210938 518.652344 C 684.96875 518.402344 683.714844 518.210938 682.453125 518.082031 C 681.195312 517.957031 679.929688 517.886719 678.664062 517.882812 Z M 678.664062 517.882812 " fill-opacity="1" fill-rule="nonzero"/><path fill="#26477a" d="M 682.585938 521.804688 L 681.277344 521.804688 C 682.75 517.175781 683.476562 512.429688 683.457031 507.570312 C 683.457031 505.996094 683.378906 504.425781 683.226562 502.859375 C 683.070312 501.292969 682.839844 499.734375 682.53125 498.191406 C 682.226562 496.648438 681.84375 495.121094 681.386719 493.617188 C 680.929688 492.109375 680.398438 490.628906 679.796875 489.171875 C 679.195312 487.71875 678.519531 486.296875 677.777344 484.90625 C 677.035156 483.519531 676.226562 482.171875 675.351562 480.859375 C 674.476562 479.550781 673.539062 478.289062 672.539062 477.070312 C 671.542969 475.855469 670.484375 474.6875 669.371094 473.574219 C 668.257812 472.460938 667.089844 471.40625 665.875 470.40625 C 664.65625 469.410156 663.394531 468.472656 662.082031 467.597656 C 660.773438 466.722656 659.425781 465.914062 658.035156 465.171875 C 656.644531 464.429688 655.222656 463.757812 653.769531 463.152344 C 652.3125 462.550781 650.832031 462.023438 649.324219 461.566406 C 647.816406 461.109375 646.292969 460.726562 644.746094 460.417969 C 643.203125 460.109375 641.644531 459.878906 640.078125 459.726562 C 638.511719 459.570312 636.9375 459.496094 635.363281 459.496094 C 632.574219 459.472656 629.800781 459.699219 627.050781 460.164062 C 624.296875 460.632812 621.609375 461.335938 618.980469 462.28125 C 616.355469 463.222656 613.828125 464.386719 611.40625 465.769531 C 608.984375 467.15625 606.703125 468.746094 604.5625 470.535156 C 604.152344 468.675781 603.660156 466.839844 603.082031 465.03125 C 602.507812 463.21875 601.851562 461.433594 601.109375 459.683594 C 600.371094 457.933594 599.554688 456.21875 598.65625 454.539062 C 597.761719 452.863281 596.789062 451.230469 595.742188 449.644531 C 594.695312 448.054688 593.582031 446.515625 592.394531 445.03125 C 591.207031 443.546875 589.953125 442.117188 588.636719 440.746094 C 587.320312 439.375 585.941406 438.066406 584.503906 436.820312 C 583.066406 435.574219 581.578125 434.398438 580.03125 433.289062 C 578.484375 432.179688 576.894531 431.144531 575.253906 430.179688 C 573.613281 429.21875 571.933594 428.332031 570.210938 427.523438 C 568.492188 426.714844 566.734375 425.984375 564.949219 425.335938 C 563.160156 424.6875 561.347656 424.121094 559.507812 423.636719 C 557.667969 423.15625 555.808594 422.757812 553.933594 422.445312 C 552.054688 422.132812 550.167969 421.90625 548.273438 421.765625 C 546.375 421.625 544.476562 421.574219 542.574219 421.605469 C 540.671875 421.640625 538.777344 421.761719 536.886719 421.96875 C 534.996094 422.175781 533.117188 422.46875 531.253906 422.847656 C 529.390625 423.226562 527.546875 423.691406 525.726562 424.238281 C 523.90625 424.785156 522.113281 425.414062 520.347656 426.128906 C 518.585938 426.839844 516.855469 427.628906 515.164062 428.5 C 513.472656 429.371094 511.824219 430.316406 510.222656 431.335938 C 508.617188 432.355469 507.0625 433.449219 505.558594 434.609375 C 504.050781 435.773438 502.601562 437.003906 501.210938 438.296875 C 499.820312 439.59375 498.488281 440.949219 497.222656 442.367188 C 495.953125 443.785156 494.753906 445.257812 493.617188 446.785156 C 492.484375 448.3125 491.425781 449.886719 490.4375 451.511719 C 489.445312 453.136719 488.535156 454.800781 487.699219 456.507812 C 486.863281 458.21875 486.105469 459.960938 485.429688 461.738281 C 484.75 463.515625 484.15625 465.316406 483.644531 467.148438 C 483.132812 468.980469 482.707031 470.832031 482.363281 472.703125 C 482.023438 474.574219 481.765625 476.453125 481.597656 478.347656 C 481.425781 480.242188 481.34375 482.140625 481.347656 484.042969 C 481.367188 488.046875 481.757812 492.015625 482.511719 495.953125 C 479.914062 495.535156 477.296875 495.339844 474.664062 495.371094 C 473.234375 495.367188 471.808594 495.417969 470.382812 495.53125 C 468.960938 495.644531 467.542969 495.816406 466.132812 496.046875 C 464.722656 496.273438 463.324219 496.5625 461.933594 496.910156 C 460.546875 497.253906 459.179688 497.65625 457.824219 498.113281 C 456.472656 498.574219 455.140625 499.085938 453.828125 499.65625 C 452.515625 500.222656 451.230469 500.847656 449.972656 501.519531 C 448.710938 502.195312 447.484375 502.921875 446.28125 503.699219 C 445.082031 504.472656 443.917969 505.300781 442.785156 506.171875 C 441.65625 507.042969 440.5625 507.960938 439.503906 508.925781 C 438.449219 509.890625 437.4375 510.894531 436.464844 511.941406 C 435.492188 512.988281 434.5625 514.074219 433.679688 515.195312 C 432.796875 516.320312 431.964844 517.476562 431.175781 518.671875 C 430.390625 519.863281 429.652344 521.085938 428.96875 522.339844 C 428.28125 523.59375 427.648438 524.875 427.070312 526.179688 C 426.488281 527.484375 425.964844 528.8125 425.492188 530.160156 C 425.023438 531.511719 424.609375 532.875 424.25 534.257812 C 423.894531 535.644531 423.59375 537.039062 423.351562 538.445312 C 423.109375 539.855469 422.925781 541.269531 422.804688 542.695312 C 422.679688 544.117188 422.613281 545.542969 422.605469 546.972656 C 422.597656 548.398438 422.648438 549.828125 422.761719 551.25 C 422.871094 552.675781 423.042969 554.09375 423.269531 555.503906 C 423.5 556.914062 423.785156 558.3125 424.128906 559.699219 C 424.472656 561.085938 424.871094 562.457031 425.328125 563.808594 C 425.785156 565.164062 426.300781 566.496094 426.867188 567.808594 C 427.433594 569.117188 428.054688 570.402344 428.726562 571.664062 C 429.402344 572.921875 430.125 574.152344 430.902344 575.355469 C 431.675781 576.554688 432.5 577.71875 433.371094 578.851562 C 434.242188 579.984375 435.160156 581.078125 436.121094 582.136719 C 437.085938 583.191406 438.089844 584.207031 439.136719 585.179688 C 440.179688 586.152344 441.265625 587.082031 442.390625 587.964844 C 443.511719 588.847656 444.667969 589.683594 445.859375 590.472656 C 447.054688 591.261719 448.277344 592 449.527344 592.6875 C 452.6875 594.800781 456.089844 596.417969 459.726562 597.53125 C 463.363281 598.644531 467.082031 599.207031 470.886719 599.222656 L 682.585938 599.222656 C 683.851562 599.21875 685.117188 599.152344 686.378906 599.023438 C 687.640625 598.894531 688.890625 598.703125 690.132812 598.453125 C 691.375 598.199219 692.601562 597.890625 693.8125 597.519531 C 695.027344 597.148438 696.214844 596.714844 697.386719 596.230469 C 698.554688 595.742188 699.699219 595.195312 700.816406 594.597656 C 701.933594 593.996094 703.015625 593.34375 704.066406 592.636719 C 705.121094 591.929688 706.136719 591.171875 707.113281 590.367188 C 708.09375 589.5625 709.027344 588.710938 709.921875 587.8125 C 710.816406 586.914062 711.667969 585.976562 712.46875 584.996094 C 713.269531 584.015625 714.023438 582.996094 714.726562 581.941406 C 715.429688 580.886719 716.078125 579.800781 716.675781 578.683594 C 717.269531 577.5625 717.8125 576.417969 718.296875 575.25 C 718.777344 574.078125 719.203125 572.886719 719.570312 571.671875 C 719.9375 570.460938 720.246094 569.230469 720.492188 567.988281 C 720.738281 566.746094 720.925781 565.496094 721.046875 564.234375 C 721.171875 562.972656 721.234375 561.707031 721.234375 560.441406 C 721.230469 559.175781 721.164062 557.917969 721.035156 556.660156 C 720.90625 555.402344 720.71875 554.152344 720.46875 552.914062 C 720.21875 551.675781 719.90625 550.449219 719.539062 549.242188 C 719.167969 548.035156 718.738281 546.84375 718.253906 545.679688 C 717.769531 544.511719 717.226562 543.371094 716.628906 542.257812 C 716.03125 541.144531 715.378906 540.0625 714.675781 539.011719 C 713.972656 537.960938 713.21875 536.945312 712.417969 535.96875 C 711.613281 534.992188 710.765625 534.058594 709.871094 533.164062 C 708.976562 532.269531 708.042969 531.421875 707.066406 530.621094 C 706.089844 529.816406 705.074219 529.0625 704.023438 528.359375 C 702.972656 527.65625 701.890625 527.007812 700.777344 526.410156 C 699.660156 525.8125 698.519531 525.269531 697.351562 524.785156 C 696.1875 524.300781 694.996094 523.871094 693.789062 523.5 C 692.578125 523.132812 691.355469 522.820312 690.113281 522.570312 C 688.875 522.320312 687.628906 522.132812 686.367188 522.003906 C 685.109375 521.875 683.851562 521.808594 682.585938 521.804688 Z M 682.585938 521.804688 " fill-opacity="1" fill-rule="nonzero"/><path fill="#6b99d2" d="M 365.984375 336.761719 L 367.582031 336.761719 C 365.640625 330.320312 364.671875 323.734375 364.675781 317.007812 C 364.675781 315.90625 364.703125 314.804688 364.757812 313.707031 C 364.8125 312.609375 364.890625 311.511719 365 310.414062 C 365.105469 309.320312 365.242188 308.226562 365.402344 307.140625 C 365.566406 306.050781 365.753906 304.964844 365.96875 303.886719 C 366.183594 302.808594 366.425781 301.734375 366.691406 300.667969 C 366.960938 299.597656 367.253906 298.539062 367.574219 297.484375 C 367.890625 296.433594 368.238281 295.386719 368.609375 294.351562 C 368.980469 293.316406 369.375 292.289062 369.796875 291.273438 C 370.21875 290.253906 370.664062 289.25 371.132812 288.253906 C 371.605469 287.257812 372.101562 286.277344 372.617188 285.304688 C 373.136719 284.335938 373.679688 283.378906 374.246094 282.433594 C 374.8125 281.488281 375.402344 280.558594 376.011719 279.644531 C 376.625 278.730469 377.257812 277.832031 377.914062 276.945312 C 378.570312 276.0625 379.246094 275.195312 379.945312 274.34375 C 380.644531 273.492188 381.363281 272.660156 382.101562 271.84375 C 382.839844 271.03125 383.601562 270.234375 384.378906 269.453125 C 385.15625 268.675781 385.953125 267.917969 386.769531 267.179688 C 387.585938 266.441406 388.417969 265.722656 389.269531 265.023438 C 390.121094 264.324219 390.988281 263.648438 391.875 262.992188 C 392.757812 262.335938 393.65625 261.703125 394.574219 261.089844 C 395.488281 260.480469 396.417969 259.890625 397.363281 259.324219 C 398.308594 258.757812 399.265625 258.21875 400.234375 257.699219 C 401.207031 257.179688 402.191406 256.683594 403.183594 256.214844 C 404.179688 255.742188 405.1875 255.296875 406.203125 254.875 C 407.222656 254.457031 408.246094 254.058594 409.285156 253.6875 C 410.320312 253.316406 411.367188 252.972656 412.417969 252.652344 C 413.472656 252.332031 414.535156 252.039062 415.601562 251.773438 C 416.671875 251.503906 417.742188 251.265625 418.824219 251.050781 C 419.902344 250.835938 420.988281 250.648438 422.078125 250.484375 C 423.167969 250.324219 424.257812 250.1875 425.355469 250.082031 C 426.449219 249.972656 427.546875 249.894531 428.648438 249.839844 C 429.746094 249.785156 430.847656 249.757812 431.949219 249.757812 C 435.839844 249.761719 439.703125 250.09375 443.539062 250.761719 C 447.375 251.429688 451.121094 252.417969 454.785156 253.730469 C 458.453125 255.039062 461.976562 256.65625 465.363281 258.574219 C 468.75 260.492188 471.945312 262.683594 474.957031 265.152344 C 475.527344 262.5625 476.214844 260 477.019531 257.46875 C 477.824219 254.941406 478.746094 252.453125 479.777344 250.007812 C 480.808594 247.5625 481.953125 245.167969 483.207031 242.828125 C 484.457031 240.488281 485.8125 238.207031 487.273438 235.992188 C 488.734375 233.773438 490.292969 231.628906 491.953125 229.554688 C 493.609375 227.480469 495.359375 225.488281 497.199219 223.574219 C 499.039062 221.660156 500.960938 219.832031 502.96875 218.09375 C 504.976562 216.355469 507.058594 214.714844 509.214844 213.164062 C 511.371094 211.617188 513.597656 210.171875 515.886719 208.828125 C 518.175781 207.484375 520.523438 206.246094 522.925781 205.117188 C 525.328125 203.988281 527.777344 202.972656 530.273438 202.066406 C 532.773438 201.160156 535.304688 200.371094 537.871094 199.699219 C 540.441406 199.023438 543.035156 198.46875 545.65625 198.03125 C 548.273438 197.597656 550.90625 197.28125 553.554688 197.085938 C 556.203125 196.890625 558.855469 196.816406 561.511719 196.863281 C 564.167969 196.910156 566.8125 197.082031 569.453125 197.371094 C 572.09375 197.660156 574.714844 198.070312 577.316406 198.597656 C 579.917969 199.128906 582.492188 199.777344 585.035156 200.539062 C 587.578125 201.304688 590.078125 202.183594 592.542969 203.179688 C 595.003906 204.171875 597.414062 205.277344 599.777344 206.492188 C 602.136719 207.707031 604.4375 209.027344 606.679688 210.453125 C 608.917969 211.875 611.089844 213.402344 613.191406 215.023438 C 615.292969 216.648438 617.3125 218.363281 619.257812 220.175781 C 621.203125 221.984375 623.058594 223.875 624.828125 225.855469 C 626.597656 227.832031 628.273438 229.890625 629.855469 232.019531 C 631.4375 234.152344 632.921875 236.351562 634.300781 238.621094 C 635.679688 240.890625 636.957031 243.214844 638.125 245.597656 C 639.289062 247.984375 640.347656 250.414062 641.292969 252.894531 C 642.238281 255.378906 643.066406 257.894531 643.78125 260.453125 C 644.496094 263.007812 645.089844 265.59375 645.570312 268.207031 C 646.046875 270.816406 646.402344 273.445312 646.640625 276.089844 C 646.878906 278.730469 646.992188 281.382812 646.988281 284.035156 C 646.972656 289.605469 646.441406 295.125 645.390625 300.59375 C 649.007812 300.128906 652.640625 299.886719 656.285156 299.867188 C 658.28125 299.863281 660.273438 299.941406 662.261719 300.101562 C 664.25 300.261719 666.230469 300.503906 668.199219 300.824219 C 670.167969 301.148438 672.117188 301.554688 674.054688 302.039062 C 675.988281 302.519531 677.902344 303.085938 679.789062 303.726562 C 681.679688 304.367188 683.535156 305.085938 685.367188 305.882812 C 687.195312 306.679688 688.988281 307.546875 690.746094 308.492188 C 692.503906 309.433594 694.21875 310.449219 695.894531 311.535156 C 697.566406 312.621094 699.195312 313.769531 700.773438 314.992188 C 702.351562 316.210938 703.878906 317.492188 705.351562 318.835938 C 706.824219 320.183594 708.238281 321.585938 709.59375 323.046875 C 710.953125 324.507812 712.246094 326.023438 713.476562 327.59375 C 714.710938 329.164062 715.875 330.777344 716.972656 332.445312 C 718.070312 334.109375 719.097656 335.816406 720.058594 337.566406 C 721.015625 339.316406 721.898438 341.101562 722.707031 342.925781 C 723.515625 344.746094 724.25 346.601562 724.90625 348.484375 C 725.5625 350.367188 726.140625 352.273438 726.640625 354.203125 C 727.140625 356.132812 727.558594 358.082031 727.898438 360.046875 C 728.238281 362.011719 728.492188 363.988281 728.667969 365.976562 C 728.84375 367.960938 728.9375 369.953125 728.949219 371.945312 C 728.960938 373.941406 728.890625 375.933594 728.734375 377.921875 C 728.582031 379.910156 728.347656 381.886719 728.03125 383.855469 C 727.714844 385.824219 727.316406 387.777344 726.835938 389.714844 C 726.359375 391.652344 725.800781 393.5625 725.167969 395.453125 C 724.53125 397.34375 723.816406 399.207031 723.027344 401.035156 C 722.238281 402.867188 721.375 404.664062 720.4375 406.425781 C 719.5 408.183594 718.488281 409.902344 717.410156 411.578125 C 716.328125 413.257812 715.183594 414.886719 713.96875 416.46875 C 712.753906 418.050781 711.476562 419.578125 710.136719 421.054688 C 708.792969 422.53125 707.394531 423.953125 705.9375 425.3125 C 704.480469 426.675781 702.96875 427.972656 701.402344 429.210938 C 699.835938 430.445312 698.222656 431.617188 696.5625 432.71875 C 694.898438 433.824219 693.195312 434.855469 691.449219 435.820312 C 687.03125 438.8125 682.273438 441.085938 677.171875 442.644531 C 672.070312 444.207031 666.851562 444.980469 661.515625 444.96875 L 365.984375 444.96875 C 364.210938 444.964844 362.441406 444.875 360.675781 444.695312 C 358.910156 444.519531 357.160156 444.253906 355.421875 443.90625 C 353.679688 443.554688 351.964844 443.121094 350.265625 442.605469 C 348.570312 442.085938 346.902344 441.488281 345.265625 440.808594 C 343.628906 440.125 342.027344 439.367188 340.464844 438.53125 C 338.902344 437.691406 337.382812 436.78125 335.90625 435.792969 C 334.433594 434.808594 333.011719 433.753906 331.640625 432.628906 C 330.269531 431.503906 328.957031 430.3125 327.703125 429.058594 C 326.449219 427.804688 325.257812 426.492188 324.132812 425.125 C 323.007812 423.753906 321.953125 422.332031 320.964844 420.859375 C 319.980469 419.382812 319.066406 417.867188 318.230469 416.304688 C 317.390625 414.738281 316.632812 413.140625 315.953125 411.503906 C 315.269531 409.867188 314.671875 408.199219 314.152344 406.503906 C 313.636719 404.808594 313.203125 403.089844 312.851562 401.351562 C 312.503906 399.613281 312.238281 397.863281 312.0625 396.097656 C 311.882812 394.335938 311.792969 392.566406 311.789062 390.792969 C 311.796875 389.023438 311.894531 387.257812 312.074219 385.496094 C 312.257812 383.734375 312.523438 381.988281 312.878906 380.253906 C 313.230469 378.519531 313.667969 376.804688 314.1875 375.113281 C 314.707031 373.421875 315.308594 371.761719 315.992188 370.128906 C 316.675781 368.492188 317.4375 366.898438 318.277344 365.339844 C 319.117188 363.78125 320.027344 362.265625 321.015625 360.796875 C 322.003906 359.328125 323.058594 357.910156 324.183594 356.542969 C 325.3125 355.175781 326.5 353.871094 327.753906 352.621094 C 329.007812 351.371094 330.320312 350.183594 331.691406 349.0625 C 333.058594 347.941406 334.480469 346.886719 335.953125 345.90625 C 337.425781 344.921875 338.941406 344.011719 340.503906 343.179688 C 342.066406 342.34375 343.664062 341.585938 345.300781 340.910156 C 346.933594 340.230469 348.597656 339.632812 350.292969 339.117188 C 351.988281 338.601562 353.703125 338.171875 355.4375 337.820312 C 357.175781 337.472656 358.921875 337.210938 360.683594 337.035156 C 362.445312 336.855469 364.210938 336.765625 365.984375 336.761719 Z M 365.984375 336.761719 " fill-opacity="1" fill-rule="nonzero"/><g clip-path="url(#0cd2e2d46f)"><path fill="#6b99d2" d="M 466.09375 600.820312 L 464.640625 600.820312 C 466.414062 595.441406 467.285156 589.921875 467.253906 584.261719 C 467.253906 553.324219 441.828125 528.195312 410.445312 528.195312 C 407.167969 528.175781 403.914062 528.441406 400.683594 528.988281 C 397.457031 529.539062 394.296875 530.363281 391.210938 531.464844 C 388.128906 532.570312 385.160156 533.929688 382.316406 535.550781 C 379.46875 537.175781 376.785156 539.03125 374.265625 541.125 C 373.804688 539.113281 373.257812 537.125 372.628906 535.164062 C 372 533.199219 371.289062 531.265625 370.496094 529.359375 C 369.703125 527.457031 368.832031 525.589844 367.882812 523.757812 C 366.933594 521.929688 365.90625 520.140625 364.808594 518.398438 C 363.707031 516.652344 362.535156 514.957031 361.289062 513.3125 C 360.046875 511.667969 358.734375 510.078125 357.359375 508.542969 C 355.980469 507.007812 354.539062 505.535156 353.039062 504.121094 C 351.535156 502.707031 349.976562 501.359375 348.359375 500.078125 C 346.746094 498.796875 345.078125 497.585938 343.359375 496.445312 C 341.640625 495.300781 339.878906 494.234375 338.070312 493.242188 C 336.261719 492.25 334.414062 491.335938 332.527344 490.5 C 330.644531 489.660156 328.726562 488.90625 326.777344 488.230469 C 324.828125 487.554688 322.855469 486.960938 320.855469 486.453125 C 318.855469 485.945312 316.839844 485.519531 314.804688 485.183594 C 312.769531 484.84375 310.722656 484.589844 308.667969 484.425781 C 306.609375 484.257812 304.550781 484.179688 302.488281 484.1875 C 261.949219 484.1875 229.113281 516.722656 229.113281 556.808594 C 229.09375 561.453125 229.53125 566.050781 230.421875 570.609375 C 227.382812 570.1875 224.332031 569.996094 221.265625 570.027344 C 187.558594 570.027344 160.097656 597.042969 160.097656 630.449219 C 160.105469 633.144531 160.292969 635.828125 160.660156 638.496094 C 161.027344 641.167969 161.574219 643.800781 162.292969 646.398438 C 163.011719 648.996094 163.902344 651.53125 164.960938 654.011719 C 166.023438 656.488281 167.242188 658.882812 168.621094 661.199219 C 170.003906 663.515625 171.53125 665.726562 173.207031 667.835938 C 174.886719 669.949219 176.695312 671.9375 178.636719 673.804688 C 180.582031 675.671875 182.640625 677.402344 184.8125 678.996094 C 186.988281 680.589844 189.257812 682.03125 191.625 683.320312 C 195.355469 685.847656 199.375 687.765625 203.6875 689.078125 C 207.996094 690.390625 212.402344 691.035156 216.910156 691.019531 L 466.09375 691.019531 C 467.578125 691.023438 469.0625 690.957031 470.542969 690.816406 C 472.023438 690.675781 473.492188 690.460938 474.949219 690.175781 C 476.410156 689.890625 477.851562 689.535156 479.273438 689.109375 C 480.699219 688.683594 482.097656 688.191406 483.472656 687.628906 C 484.851562 687.0625 486.195312 686.433594 487.507812 685.738281 C 488.820312 685.046875 490.097656 684.289062 491.339844 683.46875 C 492.578125 682.648438 493.773438 681.769531 494.929688 680.832031 C 496.082031 679.894531 497.1875 678.902344 498.242188 677.855469 C 499.296875 676.8125 500.300781 675.714844 501.25 674.574219 C 502.199219 673.429688 503.089844 672.242188 503.921875 671.011719 C 504.753906 669.777344 505.523438 668.507812 506.230469 667.203125 C 506.9375 665.894531 507.582031 664.558594 508.15625 663.1875 C 508.734375 661.820312 509.242188 660.425781 509.679688 659.003906 C 510.121094 657.585938 510.492188 656.148438 510.789062 654.691406 C 511.089844 653.238281 511.316406 651.769531 511.46875 650.292969 C 511.625 648.8125 511.707031 647.332031 511.714844 645.847656 C 511.714844 621.15625 491.230469 600.820312 466.09375 600.820312 Z M 466.09375 600.820312 " fill-opacity="1" fill-rule="nonzero"/></g><path fill="#6b99d2" d="M 76.695312 376.992188 L 77.421875 376.992188 C 76.488281 373.867188 76.003906 370.671875 75.96875 367.40625 C 75.96875 366.339844 76.023438 365.273438 76.128906 364.210938 C 76.234375 363.144531 76.390625 362.089844 76.597656 361.042969 C 76.808594 359.996094 77.070312 358.960938 77.378906 357.9375 C 77.691406 356.914062 78.050781 355.910156 78.460938 354.921875 C 78.871094 353.9375 79.328125 352.972656 79.835938 352.03125 C 80.339844 351.089844 80.890625 350.175781 81.484375 349.285156 C 82.082031 348.398438 82.71875 347.542969 83.398438 346.71875 C 84.078125 345.894531 84.796875 345.105469 85.554688 344.351562 C 86.3125 343.597656 87.105469 342.882812 87.933594 342.207031 C 88.761719 341.53125 89.621094 340.894531 90.511719 340.304688 C 91.402344 339.714844 92.320312 339.167969 93.261719 338.667969 C 94.207031 338.167969 95.171875 337.710938 96.164062 337.308594 C 97.152344 336.902344 98.15625 336.546875 99.183594 336.238281 C 100.207031 335.933594 101.242188 335.675781 102.292969 335.472656 C 103.339844 335.269531 104.398438 335.117188 105.460938 335.015625 C 106.527344 334.914062 107.59375 334.867188 108.664062 334.871094 C 110.546875 334.863281 112.421875 335.023438 114.277344 335.34375 C 116.136719 335.667969 117.953125 336.152344 119.726562 336.796875 C 121.496094 337.441406 123.199219 338.234375 124.832031 339.179688 C 126.464844 340.125 128 341.207031 129.441406 342.425781 C 129.703125 341.15625 130.019531 339.902344 130.398438 338.664062 C 130.777344 337.425781 131.210938 336.207031 131.699219 335.007812 C 132.191406 333.808594 132.734375 332.632812 133.332031 331.484375 C 133.929688 330.335938 134.582031 329.21875 135.28125 328.128906 C 135.984375 327.039062 136.734375 325.984375 137.53125 324.964844 C 138.332031 323.945312 139.175781 322.964844 140.066406 322.023438 C 140.953125 321.082031 141.886719 320.179688 142.859375 319.324219 C 143.828125 318.46875 144.839844 317.660156 145.886719 316.898438 C 146.933594 316.132812 148.011719 315.421875 149.125 314.757812 C 150.238281 314.09375 151.378906 313.484375 152.550781 312.925781 C 153.71875 312.367188 154.910156 311.863281 156.125 311.414062 C 157.34375 310.96875 158.578125 310.574219 159.828125 310.242188 C 161.078125 309.90625 162.34375 309.632812 163.621094 309.414062 C 164.898438 309.195312 166.183594 309.035156 167.476562 308.9375 C 168.765625 308.839844 170.0625 308.796875 171.355469 308.820312 C 172.652344 308.839844 173.945312 308.917969 175.230469 309.058594 C 176.519531 309.195312 177.800781 309.394531 179.070312 309.652344 C 180.339844 309.910156 181.59375 310.222656 182.835938 310.597656 C 184.074219 310.96875 185.296875 311.398438 186.5 311.882812 C 187.699219 312.367188 188.875 312.910156 190.027344 313.503906 C 191.179688 314.097656 192.300781 314.742188 193.390625 315.4375 C 194.484375 316.136719 195.542969 316.882812 196.566406 317.675781 C 197.589844 318.472656 198.570312 319.3125 199.519531 320.199219 C 200.464844 321.085938 201.367188 322.011719 202.226562 322.980469 C 203.085938 323.949219 203.898438 324.957031 204.667969 326 C 205.433594 327.042969 206.152344 328.121094 206.816406 329.230469 C 207.484375 330.339844 208.101562 331.480469 208.664062 332.644531 C 209.226562 333.8125 209.734375 335.003906 210.1875 336.214844 C 210.640625 337.429688 211.035156 338.660156 211.375 339.910156 C 211.714844 341.160156 211.996094 342.425781 212.21875 343.699219 C 212.441406 344.976562 212.601562 346.261719 212.707031 347.550781 C 212.8125 348.84375 212.855469 350.136719 212.839844 351.429688 C 212.84375 354.171875 212.554688 356.886719 211.96875 359.566406 C 213.699219 359.273438 215.445312 359.128906 217.199219 359.128906 C 218.167969 359.125 219.136719 359.160156 220.101562 359.234375 C 221.066406 359.308594 222.027344 359.421875 222.984375 359.578125 C 223.941406 359.730469 224.890625 359.925781 225.832031 360.15625 C 226.769531 360.390625 227.699219 360.660156 228.617188 360.96875 C 229.535156 361.277344 230.441406 361.625 231.332031 362.007812 C 232.21875 362.394531 233.089844 362.8125 233.945312 363.269531 C 234.800781 363.726562 235.636719 364.214844 236.449219 364.742188 C 237.265625 365.265625 238.054688 365.824219 238.824219 366.414062 C 239.589844 367.003906 240.332031 367.625 241.050781 368.277344 C 241.765625 368.929688 242.457031 369.609375 243.117188 370.320312 C 243.777344 371.027344 244.40625 371.761719 245.007812 372.523438 C 245.605469 373.285156 246.171875 374.066406 246.707031 374.875 C 247.242188 375.683594 247.742188 376.511719 248.210938 377.359375 C 248.675781 378.210938 249.105469 379.074219 249.5 379.960938 C 249.894531 380.84375 250.253906 381.746094 250.574219 382.660156 C 250.894531 383.574219 251.175781 384.5 251.417969 385.4375 C 251.664062 386.375 251.867188 387.320312 252.035156 388.273438 C 252.199219 389.226562 252.324219 390.1875 252.410156 391.152344 C 252.496094 392.117188 252.542969 393.082031 252.550781 394.050781 C 252.554688 395.019531 252.523438 395.988281 252.449219 396.953125 C 252.375 397.917969 252.261719 398.878906 252.109375 399.835938 C 251.953125 400.792969 251.761719 401.742188 251.53125 402.683594 C 251.296875 403.621094 251.027344 404.550781 250.71875 405.46875 C 250.410156 406.386719 250.066406 407.292969 249.683594 408.179688 C 249.300781 409.070312 248.878906 409.941406 248.425781 410.796875 C 247.96875 411.652344 247.480469 412.488281 246.953125 413.300781 C 246.429688 414.117188 245.875 414.90625 245.285156 415.675781 C 244.695312 416.445312 244.074219 417.1875 243.421875 417.90625 C 242.769531 418.621094 242.089844 419.3125 241.382812 419.972656 C 240.675781 420.632812 239.941406 421.261719 239.179688 421.863281 C 238.417969 422.464844 237.636719 423.03125 236.828125 423.566406 C 236.019531 424.101562 235.191406 424.605469 234.34375 425.070312 C 232.1875 426.496094 229.875 427.578125 227.402344 428.320312 C 224.925781 429.0625 222.398438 429.429688 219.8125 429.429688 L 76.695312 429.429688 C 75.839844 429.429688 74.980469 429.386719 74.128906 429.300781 C 73.273438 429.21875 72.425781 429.09375 71.585938 428.925781 C 70.742188 428.761719 69.910156 428.550781 69.089844 428.304688 C 68.265625 428.054688 67.460938 427.769531 66.667969 427.441406 C 65.871094 427.113281 65.097656 426.75 64.339844 426.34375 C 63.582031 425.941406 62.847656 425.503906 62.132812 425.027344 C 61.417969 424.554688 60.726562 424.042969 60.0625 423.5 C 59.398438 422.957031 58.761719 422.382812 58.152344 421.78125 C 57.542969 421.175781 56.964844 420.542969 56.417969 419.878906 C 55.871094 419.21875 55.359375 418.53125 54.878906 417.820312 C 54.402344 417.109375 53.957031 416.375 53.550781 415.621094 C 53.144531 414.863281 52.773438 414.089844 52.441406 413.300781 C 52.109375 412.507812 51.816406 411.703125 51.566406 410.882812 C 51.3125 410.0625 51.101562 409.234375 50.929688 408.390625 C 50.757812 407.550781 50.625 406.703125 50.539062 405.851562 C 50.449219 404.996094 50.402344 404.140625 50.398438 403.285156 C 50.402344 402.425781 50.449219 401.566406 50.539062 400.710938 C 50.625 399.855469 50.757812 399.007812 50.925781 398.164062 C 51.097656 397.324219 51.308594 396.492188 51.5625 395.667969 C 51.816406 394.847656 52.105469 394.039062 52.4375 393.246094 C 52.769531 392.453125 53.140625 391.675781 53.546875 390.917969 C 53.953125 390.160156 54.394531 389.425781 54.875 388.710938 C 55.351562 387.996094 55.867188 387.308594 56.410156 386.644531 C 56.957031 385.980469 57.535156 385.34375 58.144531 384.738281 C 58.75 384.128906 59.386719 383.550781 60.050781 383.003906 C 60.714844 382.460938 61.40625 381.949219 62.121094 381.46875 C 62.835938 380.992188 63.570312 380.546875 64.328125 380.140625 C 65.085938 379.734375 65.863281 379.363281 66.65625 379.035156 C 67.449219 378.703125 68.257812 378.410156 69.078125 378.160156 C 69.902344 377.90625 70.734375 377.695312 71.578125 377.523438 C 72.417969 377.351562 73.269531 377.222656 74.125 377.132812 C 74.980469 377.046875 75.835938 377 76.695312 376.992188 Z M 76.695312 376.992188 " fill-opacity="1" fill-rule="nonzero"/></svg>