<svg xmlns="http://www.w3.org/2000/svg" xmlns:xlink="http://www.w3.org/1999/xlink" width="1080" zoomAndPan="magnify" viewBox="0 0 810 1439.999935" height="1920" preserveAspectRatio="xMidYMid meet" version="1.0"><defs><clipPath id="9a9d003c51"><path d="M 423 859 L 441 859 L 441 883.464844 L 423 883.464844 Z M 423 859 " clip-rule="nonzero"/></clipPath><clipPath id="78b3cf1b78"><path d="M 333 859 L 351 859 L 351 883.464844 L 333 883.464844 Z M 333 859 " clip-rule="nonzero"/></clipPath><clipPath id="51a75cae5b"><path d="M 243 556.464844 L 567 556.464844 L 567 749 L 243 749 Z M 243 556.464844 " clip-rule="nonzero"/></clipPath></defs><path fill="#26477a" d="M 296.757812 808.964844 L 294.148438 810.882812 L 294.070312 810.882812 C 292.976562 811.980469 292.054688 813.207031 291.308594 814.566406 C 290.890625 815.363281 290.558594 816.191406 290.304688 817.054688 C 290.050781 817.914062 289.886719 818.792969 289.804688 819.6875 C 289.726562 820.582031 289.734375 821.476562 289.832031 822.367188 C 289.929688 823.261719 290.109375 824.136719 290.378906 824.992188 C 290.648438 825.851562 291 826.671875 291.429688 827.460938 C 291.859375 828.25 292.363281 828.988281 292.941406 829.675781 C 293.515625 830.367188 294.15625 830.992188 294.855469 831.554688 C 295.554688 832.117188 296.304688 832.605469 297.101562 833.023438 C 297.894531 833.4375 298.726562 833.773438 299.585938 834.023438 C 300.449219 834.277344 301.328125 834.441406 302.222656 834.523438 C 303.117188 834.601562 304.011719 834.59375 304.90625 834.496094 C 305.796875 834.398438 306.671875 834.214844 307.53125 833.945312 C 308.386719 833.679688 309.210938 833.328125 309.996094 832.894531 C 310.785156 832.464844 311.523438 831.960938 312.214844 831.382812 C 312.902344 830.808594 313.527344 830.167969 314.089844 829.46875 C 314.652344 828.769531 315.144531 828.023438 315.558594 827.226562 C 316.300781 825.851562 316.785156 824.394531 317.015625 822.851562 L 317.015625 819.554688 L 317.476562 793.925781 Z M 296.757812 808.964844 " fill-opacity="1" fill-rule="nonzero"/><path fill="#26477a" d="M 468.734375 813.03125 L 466.125 814.949219 L 466.046875 814.949219 C 464.9375 816.003906 464.015625 817.207031 463.285156 818.554688 C 462.867188 819.351562 462.53125 820.179688 462.273438 821.042969 C 462.019531 821.90625 461.851562 822.785156 461.769531 823.679688 C 461.6875 824.574219 461.695312 825.46875 461.789062 826.363281 C 461.882812 827.257812 462.066406 828.132812 462.332031 828.992188 C 462.597656 829.851562 462.949219 830.675781 463.378906 831.464844 C 463.808594 832.253906 464.308594 832.996094 464.886719 833.6875 C 465.460938 834.378906 466.097656 835.003906 466.796875 835.570312 C 467.496094 836.136719 468.246094 836.628906 469.039062 837.046875 C 469.835938 837.464844 470.664062 837.800781 471.527344 838.054688 C 472.390625 838.3125 473.269531 838.480469 474.164062 838.558594 C 475.0625 838.640625 475.957031 838.636719 476.851562 838.542969 C 477.746094 838.445312 478.621094 838.265625 479.480469 838 C 480.339844 837.730469 481.164062 837.382812 481.953125 836.953125 C 482.742188 836.523438 483.484375 836.023438 484.175781 835.445312 C 484.867188 834.871094 485.492188 834.234375 486.058594 833.535156 C 486.625 832.835938 487.117188 832.089844 487.535156 831.292969 C 488.289062 829.921875 488.773438 828.464844 488.992188 826.917969 L 488.992188 823.621094 L 489.453125 797.992188 Z M 468.734375 813.03125 " fill-opacity="1" fill-rule="nonzero"/><path fill="#3571aa" d="M 380.710938 835.359375 L 378.101562 837.199219 L 378.027344 837.199219 C 376.867188 838.25 375.949219 839.476562 375.261719 840.882812 C 374.847656 841.679688 374.515625 842.507812 374.261719 843.367188 C 374.011719 844.230469 373.84375 845.109375 373.765625 846.003906 C 373.6875 846.894531 373.695312 847.789062 373.792969 848.683594 C 373.890625 849.574219 374.074219 850.449219 374.34375 851.304688 C 374.613281 852.160156 374.960938 852.984375 375.394531 853.769531 C 375.824219 854.558594 376.328125 855.296875 376.90625 855.984375 C 377.480469 856.671875 378.117188 857.296875 378.816406 857.859375 C 379.519531 858.421875 380.265625 858.910156 381.0625 859.328125 C 381.855469 859.742188 382.6875 860.074219 383.546875 860.328125 C 384.410156 860.582031 385.285156 860.746094 386.179688 860.824219 C 387.074219 860.90625 387.96875 860.898438 388.859375 860.800781 C 389.753906 860.703125 390.628906 860.523438 391.484375 860.253906 C 392.339844 859.984375 393.164062 859.636719 393.953125 859.203125 C 394.738281 858.773438 395.476562 858.269531 396.167969 857.695312 C 396.855469 857.121094 397.480469 856.484375 398.042969 855.785156 C 398.605469 855.085938 399.097656 854.335938 399.511719 853.542969 C 400.242188 852.164062 400.730469 850.707031 400.972656 849.167969 L 400.972656 845.871094 L 401.429688 820.242188 Z M 380.710938 835.359375 " fill-opacity="1" fill-rule="nonzero"/><path fill="#3571aa" d="M 356.15625 778.273438 L 353.546875 780.117188 L 353.46875 780.117188 C 352.3125 781.167969 351.390625 782.394531 350.707031 783.800781 C 350.289062 784.59375 349.957031 785.425781 349.703125 786.285156 C 349.449219 787.148438 349.285156 788.027344 349.207031 788.921875 C 349.125 789.816406 349.136719 790.707031 349.230469 791.601562 C 349.328125 792.492188 349.511719 793.367188 349.78125 794.226562 C 350.050781 795.082031 350.398438 795.90625 350.832031 796.691406 C 351.261719 797.480469 351.765625 798.21875 352.339844 798.90625 C 352.917969 799.59375 353.554688 800.222656 354.253906 800.785156 C 354.957031 801.347656 355.703125 801.835938 356.5 802.25 C 357.296875 802.667969 358.125 803 358.988281 803.253906 C 359.847656 803.507812 360.726562 803.671875 361.621094 803.75 C 362.515625 803.832031 363.410156 803.820312 364.304688 803.726562 C 365.195312 803.628906 366.070312 803.445312 366.929688 803.175781 C 367.785156 802.90625 368.605469 802.558594 369.394531 802.128906 C 370.183594 801.695312 370.921875 801.191406 371.609375 800.617188 C 372.296875 800.039062 372.925781 799.402344 373.488281 798.703125 C 374.050781 798.003906 374.539062 797.253906 374.957031 796.460938 C 375.6875 795.082031 376.171875 793.625 376.414062 792.085938 L 376.414062 788.785156 L 376.875 763.160156 Z M 356.15625 778.273438 " fill-opacity="1" fill-rule="nonzero"/><path fill="#3571aa" d="M 509.789062 776.203125 L 508.253906 777.355469 L 508.179688 777.355469 C 507.511719 777.972656 506.972656 778.6875 506.566406 779.503906 C 506.375 779.96875 506.226562 780.445312 506.125 780.9375 C 506.019531 781.429688 505.964844 781.929688 505.953125 782.429688 C 505.941406 782.933594 505.976562 783.433594 506.058594 783.929688 C 506.140625 784.425781 506.265625 784.910156 506.4375 785.382812 C 506.609375 785.855469 506.824219 786.308594 507.078125 786.742188 C 507.335938 787.175781 507.628906 787.582031 507.960938 787.960938 C 508.289062 788.335938 508.652344 788.683594 509.046875 788.996094 C 509.445312 789.304688 509.863281 789.578125 510.308594 789.8125 C 510.753906 790.042969 511.21875 790.234375 511.699219 790.382812 C 512.179688 790.53125 512.671875 790.632812 513.167969 790.6875 C 513.667969 790.746094 514.171875 790.753906 514.671875 790.71875 C 515.171875 790.683594 515.667969 790.601562 516.152344 790.472656 C 516.640625 790.34375 517.109375 790.171875 517.566406 789.957031 C 518.019531 789.742188 518.453125 789.488281 518.859375 789.191406 C 519.265625 788.898438 519.644531 788.566406 519.988281 788.203125 C 520.335938 787.839844 520.644531 787.445312 520.917969 787.023438 C 521.339844 786.199219 521.621094 785.328125 521.761719 784.414062 L 521.761719 782.496094 L 522.070312 767.304688 Z M 509.789062 776.203125 " fill-opacity="1" fill-rule="nonzero"/><path fill="#3571aa" d="M 278.414062 774.132812 L 276.878906 775.28125 L 276.804688 775.28125 C 276.179688 775.933594 275.644531 776.652344 275.191406 777.429688 C 274.886719 777.90625 274.632812 778.40625 274.429688 778.933594 C 274.226562 779.460938 274.082031 780.003906 273.992188 780.5625 C 273.902344 781.121094 273.871094 781.683594 273.898438 782.246094 C 273.929688 782.8125 274.015625 783.367188 274.15625 783.914062 C 274.300781 784.460938 274.5 784.988281 274.753906 785.492188 C 275.007812 785.996094 275.308594 786.46875 275.660156 786.914062 C 276.015625 787.355469 276.410156 787.753906 276.84375 788.117188 C 277.28125 788.476562 277.75 788.785156 278.25 789.050781 C 278.75 789.3125 279.273438 789.519531 279.816406 789.671875 C 280.359375 789.824219 280.914062 789.921875 281.476562 789.960938 C 282.042969 789.996094 282.605469 789.976562 283.164062 789.898438 C 283.722656 789.820312 284.269531 789.683594 284.800781 789.488281 C 285.332031 789.296875 285.835938 789.050781 286.316406 788.753906 C 286.796875 788.457031 287.242188 788.109375 287.648438 787.71875 C 288.058594 787.328125 288.421875 786.902344 288.742188 786.433594 C 289.058594 785.96875 289.328125 785.472656 289.542969 784.949219 C 289.976562 784.128906 290.257812 783.261719 290.386719 782.339844 L 290.386719 780.421875 L 290.617188 765.230469 Z M 278.414062 774.132812 " fill-opacity="1" fill-rule="nonzero"/><g clip-path="url(#9a9d003c51)"><path fill="#3571aa" d="M 427.90625 868.351562 L 426.296875 869.425781 C 425.628906 870.070312 425.089844 870.8125 424.683594 871.648438 C 424.4375 872.121094 424.242188 872.609375 424.09375 873.121094 C 423.945312 873.628906 423.851562 874.148438 423.804688 874.679688 C 423.757812 875.207031 423.765625 875.734375 423.824219 876.261719 C 423.882812 876.789062 423.992188 877.308594 424.152344 877.8125 C 424.3125 878.320312 424.519531 878.804688 424.777344 879.269531 C 425.03125 879.734375 425.332031 880.171875 425.671875 880.578125 C 426.015625 880.984375 426.390625 881.351562 426.808594 881.683594 C 427.222656 882.015625 427.664062 882.304688 428.136719 882.546875 C 428.605469 882.792969 429.097656 882.988281 429.605469 883.136719 C 430.117188 883.285156 430.636719 883.378906 431.164062 883.425781 C 431.695312 883.472656 432.222656 883.464844 432.75 883.40625 C 433.277344 883.347656 433.796875 883.238281 434.300781 883.078125 C 434.808594 882.917969 435.292969 882.707031 435.757812 882.453125 C 436.222656 882.195312 436.660156 881.898438 437.066406 881.554688 C 437.46875 881.214844 437.839844 880.835938 438.171875 880.421875 C 438.503906 880.003906 438.789062 879.5625 439.035156 879.089844 C 439.421875 878.28125 439.703125 877.4375 439.878906 876.558594 L 439.878906 874.566406 L 440.1875 859.449219 Z M 427.90625 868.351562 " fill-opacity="1" fill-rule="nonzero"/></g><g clip-path="url(#78b3cf1b78)"><path fill="#3571aa" d="M 337.8125 868.351562 L 336.277344 869.425781 L 336.203125 869.425781 C 335.535156 870.070312 334.996094 870.8125 334.589844 871.648438 C 334.34375 872.121094 334.148438 872.609375 334 873.121094 C 333.855469 873.628906 333.757812 874.148438 333.710938 874.675781 C 333.667969 875.207031 333.671875 875.734375 333.730469 876.261719 C 333.789062 876.789062 333.898438 877.304688 334.058594 877.8125 C 334.21875 878.316406 334.429688 878.804688 334.683594 879.269531 C 334.941406 879.734375 335.238281 880.167969 335.582031 880.574219 C 335.921875 880.980469 336.300781 881.347656 336.714844 881.679688 C 337.128906 882.011719 337.574219 882.300781 338.042969 882.542969 C 338.515625 882.789062 339.003906 882.984375 339.515625 883.132812 C 340.023438 883.28125 340.542969 883.375 341.074219 883.421875 C 341.601562 883.46875 342.128906 883.460938 342.65625 883.402344 C 343.183594 883.34375 343.703125 883.234375 344.207031 883.074219 C 344.714844 882.914062 345.199219 882.707031 345.664062 882.449219 C 346.128906 882.195312 346.5625 881.894531 346.96875 881.554688 C 347.375 881.210938 347.746094 880.832031 348.078125 880.417969 C 348.410156 880.003906 348.695312 879.5625 348.941406 879.089844 C 349.359375 878.292969 349.640625 877.449219 349.785156 876.558594 L 349.785156 874.566406 L 350.089844 859.449219 Z M 337.8125 868.351562 " fill-opacity="1" fill-rule="nonzero"/></g><path fill="#26477a" d="M 423.6875 778.273438 L 421.078125 780.117188 L 421 780.117188 C 420.632812 780.457031 420.289062 780.816406 419.960938 781.195312 C 419.632812 781.570312 419.328125 781.964844 419.042969 782.375 C 418.761719 782.789062 418.5 783.214844 418.261719 783.652344 C 418.023438 784.09375 417.8125 784.542969 417.621094 785.007812 C 417.433594 785.46875 417.273438 785.941406 417.136719 786.421875 C 417 786.902344 416.886719 787.390625 416.804688 787.882812 C 416.722656 788.375 416.664062 788.871094 416.636719 789.367188 C 416.605469 789.867188 416.601562 790.367188 416.628906 790.867188 C 416.652344 791.363281 416.703125 791.859375 416.785156 792.355469 C 416.863281 792.847656 416.96875 793.335938 417.101562 793.816406 C 417.234375 794.300781 417.390625 794.773438 417.574219 795.238281 C 417.757812 795.703125 417.96875 796.15625 418.203125 796.597656 C 418.433594 797.039062 418.691406 797.464844 418.972656 797.878906 C 419.253906 798.292969 419.554688 798.691406 419.878906 799.070312 C 420.199219 799.453125 420.542969 799.8125 420.90625 800.15625 C 421.269531 800.5 421.652344 800.824219 422.050781 801.125 C 422.449219 801.425781 422.859375 801.707031 423.289062 801.964844 C 423.71875 802.21875 424.160156 802.453125 424.613281 802.660156 C 425.070312 802.871094 425.53125 803.054688 426.007812 803.210938 C 426.480469 803.367188 426.960938 803.5 427.449219 803.605469 C 427.941406 803.710938 428.433594 803.789062 428.929688 803.839844 C 429.425781 803.894531 429.925781 803.917969 430.425781 803.914062 C 430.925781 803.910156 431.421875 803.882812 431.917969 803.824219 C 432.414062 803.765625 432.90625 803.683594 433.394531 803.574219 C 433.882812 803.460938 434.363281 803.324219 434.835938 803.160156 C 435.308594 802.996094 435.769531 802.808594 436.21875 802.597656 C 436.671875 802.382812 437.109375 802.144531 437.535156 801.882812 C 437.960938 801.621094 438.375 801.335938 438.769531 801.03125 C 439.164062 800.726562 439.539062 800.398438 439.898438 800.050781 C 440.257812 799.703125 440.597656 799.335938 440.917969 798.953125 C 441.234375 798.570312 441.535156 798.167969 441.808594 797.75 C 442.085938 797.335938 442.335938 796.902344 442.566406 796.460938 C 443.234375 795.066406 443.695312 793.609375 443.945312 792.085938 L 443.945312 788.785156 L 444.40625 763.160156 Z M 423.6875 778.273438 " fill-opacity="1" fill-rule="nonzero"/><g clip-path="url(#51a75cae5b)"><path fill="#26477a" d="M 524.832031 664.953125 L 523.527344 664.953125 C 525.089844 659.957031 525.855469 654.84375 525.828125 649.609375 C 525.832031 647.144531 525.660156 644.691406 525.3125 642.25 C 524.96875 639.8125 524.449219 637.40625 523.765625 635.039062 C 523.078125 632.671875 522.226562 630.367188 521.214844 628.117188 C 520.199219 625.871094 519.035156 623.707031 517.714844 621.625 C 516.394531 619.546875 514.933594 617.566406 513.332031 615.691406 C 511.730469 613.820312 510.007812 612.066406 508.15625 610.4375 C 506.308594 608.804688 504.355469 607.316406 502.292969 605.960938 C 500.234375 604.609375 498.085938 603.40625 495.855469 602.359375 C 493.625 601.308594 491.332031 600.421875 488.976562 599.699219 C 486.621094 598.976562 484.222656 598.421875 481.789062 598.035156 C 479.355469 597.652344 476.902344 597.441406 474.4375 597.402344 C 471.972656 597.363281 469.519531 597.5 467.074219 597.8125 C 464.628906 598.121094 462.214844 598.605469 459.839844 599.253906 C 457.460938 599.90625 455.140625 600.722656 452.878906 601.703125 C 450.617188 602.683594 448.4375 603.820312 446.335938 605.109375 C 444.234375 606.398438 442.238281 607.832031 440.339844 609.40625 C 439.902344 607.386719 439.371094 605.394531 438.753906 603.425781 C 438.132812 601.457031 437.421875 599.519531 436.625 597.617188 C 435.828125 595.710938 434.941406 593.847656 433.972656 592.027344 C 433.003906 590.203125 431.953125 588.429688 430.820312 586.703125 C 429.691406 584.976562 428.480469 583.304688 427.195312 581.6875 C 425.910156 580.070312 424.554688 578.519531 423.128906 577.027344 C 421.699219 575.535156 420.207031 574.113281 418.648438 572.757812 C 417.089844 571.40625 415.472656 570.125 413.796875 568.917969 C 412.121094 567.710938 410.394531 566.585938 408.613281 565.539062 C 406.835938 564.488281 405.011719 563.527344 403.144531 562.644531 C 401.277344 561.765625 399.371094 560.972656 397.433594 560.265625 C 395.492188 559.558594 393.523438 558.945312 391.527344 558.417969 C 389.53125 557.894531 387.511719 557.460938 385.476562 557.121094 C 383.441406 556.78125 381.390625 556.53125 379.332031 556.378906 C 377.273438 556.226562 375.210938 556.167969 373.148438 556.207031 C 371.082031 556.242188 369.023438 556.375 366.972656 556.597656 C 364.917969 556.824219 362.882812 557.144531 360.859375 557.554688 C 358.835938 557.96875 356.835938 558.472656 354.859375 559.066406 C 352.882812 559.664062 350.9375 560.347656 349.023438 561.121094 C 347.105469 561.894531 345.234375 562.753906 343.398438 563.699219 C 341.5625 564.648438 339.773438 565.675781 338.03125 566.785156 C 336.292969 567.894531 334.605469 569.082031 332.972656 570.347656 C 331.339844 571.609375 329.769531 572.945312 328.261719 574.355469 C 326.75 575.765625 325.308594 577.238281 323.9375 578.78125 C 322.5625 580.320312 321.261719 581.921875 320.035156 583.582031 C 318.804688 585.242188 317.65625 586.953125 316.585938 588.71875 C 315.515625 590.484375 314.53125 592.296875 313.625 594.152344 C 312.722656 596.007812 311.90625 597.902344 311.175781 599.832031 C 310.445312 601.761719 309.804688 603.722656 309.253906 605.714844 C 308.703125 607.703125 308.246094 609.714844 307.878906 611.746094 C 307.511719 613.777344 307.238281 615.820312 307.0625 617.878906 C 306.882812 619.933594 306.800781 621.996094 306.808594 624.058594 C 306.792969 628.394531 307.203125 632.691406 308.039062 636.949219 C 305.242188 636.511719 302.425781 636.308594 299.597656 636.335938 C 298.046875 636.332031 296.5 636.390625 294.957031 636.511719 C 293.414062 636.636719 291.878906 636.820312 290.351562 637.070312 C 288.824219 637.320312 287.308594 637.632812 285.804688 638.007812 C 284.300781 638.382812 282.816406 638.816406 281.351562 639.316406 C 279.886719 639.8125 278.441406 640.371094 277.023438 640.984375 C 275.601562 641.601562 274.207031 642.277344 272.84375 643.007812 C 271.480469 643.738281 270.148438 644.527344 268.847656 645.367188 C 267.546875 646.207031 266.285156 647.101562 265.058594 648.046875 C 263.832031 648.992188 262.648438 649.988281 261.503906 651.03125 C 260.359375 652.074219 259.261719 653.164062 258.207031 654.296875 C 257.152344 655.433594 256.148438 656.609375 255.191406 657.824219 C 254.234375 659.042969 253.332031 660.296875 252.476562 661.589844 C 251.625 662.882812 250.824219 664.207031 250.082031 665.566406 C 249.339844 666.921875 248.652344 668.308594 248.023438 669.722656 C 247.394531 671.136719 246.824219 672.574219 246.3125 674.039062 C 245.804688 675.5 245.355469 676.980469 244.964844 678.476562 C 244.578125 679.976562 244.253906 681.488281 243.988281 683.015625 C 243.726562 684.539062 243.527344 686.074219 243.390625 687.617188 C 243.253906 689.15625 243.179688 690.703125 243.171875 692.25 C 243.164062 693.800781 243.21875 695.34375 243.335938 696.886719 C 243.453125 698.433594 243.636719 699.96875 243.882812 701.496094 C 244.128906 703.023438 244.4375 704.539062 244.808594 706.042969 C 245.179688 707.546875 245.609375 709.03125 246.105469 710.5 C 246.597656 711.964844 247.152344 713.410156 247.765625 714.832031 C 248.375 716.253906 249.046875 717.648438 249.773438 719.015625 C 250.503906 720.382812 251.285156 721.714844 252.125 723.015625 C 252.960938 724.320312 253.851562 725.582031 254.796875 726.8125 C 255.738281 728.039062 256.730469 729.226562 257.769531 730.375 C 258.8125 731.519531 259.898438 732.621094 261.03125 733.675781 C 262.160156 734.734375 263.335938 735.742188 264.550781 736.703125 C 265.765625 737.660156 267.015625 738.570312 268.308594 739.425781 C 269.597656 740.28125 270.921875 741.085938 272.277344 741.832031 C 275.714844 744.132812 279.417969 745.886719 283.378906 747.089844 C 287.339844 748.292969 291.390625 748.890625 295.527344 748.890625 L 524.832031 748.890625 C 526.207031 748.886719 527.574219 748.816406 528.941406 748.679688 C 530.308594 748.542969 531.667969 748.339844 533.015625 748.070312 C 534.363281 747.800781 535.695312 747.464844 537.007812 747.066406 C 538.324219 746.664062 539.613281 746.203125 540.882812 745.675781 C 542.152344 745.148438 543.390625 744.558594 544.605469 743.910156 C 545.816406 743.261719 546.992188 742.558594 548.132812 741.792969 C 549.277344 741.03125 550.378906 740.210938 551.441406 739.339844 C 552.503906 738.46875 553.519531 737.546875 554.492188 736.574219 C 555.460938 735.605469 556.382812 734.585938 557.257812 733.527344 C 558.128906 732.464844 558.945312 731.363281 559.710938 730.21875 C 560.472656 729.078125 561.179688 727.902344 561.828125 726.691406 C 562.476562 725.480469 563.066406 724.238281 563.59375 722.96875 C 564.121094 721.703125 564.582031 720.410156 564.984375 719.097656 C 565.382812 717.78125 565.71875 716.449219 565.988281 715.105469 C 566.257812 713.757812 566.460938 712.398438 566.597656 711.03125 C 566.734375 709.664062 566.804688 708.296875 566.808594 706.921875 C 566.804688 705.546875 566.734375 704.175781 566.597656 702.808594 C 566.460938 701.441406 566.257812 700.085938 565.988281 698.738281 C 565.71875 697.390625 565.382812 696.0625 564.984375 694.746094 C 564.582031 693.433594 564.121094 692.140625 563.59375 690.871094 C 563.066406 689.605469 562.476562 688.363281 561.828125 687.152344 C 561.179688 685.941406 560.472656 684.765625 559.710938 683.625 C 558.945312 682.480469 558.128906 681.378906 557.257812 680.316406 C 556.382812 679.257812 555.460938 678.238281 554.492188 677.269531 C 553.519531 676.296875 552.503906 675.375 551.441406 674.503906 C 550.378906 673.632812 549.277344 672.8125 548.132812 672.050781 C 546.992188 671.285156 545.816406 670.578125 544.605469 669.929688 C 543.390625 669.28125 542.152344 668.695312 540.882812 668.167969 C 539.613281 667.640625 538.324219 667.179688 537.007812 666.777344 C 535.695312 666.378906 534.363281 666.042969 533.015625 665.773438 C 531.667969 665.503906 530.308594 665.300781 528.941406 665.164062 C 527.574219 665.027344 526.207031 664.957031 524.832031 664.953125 Z M 524.832031 664.953125 " fill-opacity="1" fill-rule="nonzero"/></g></svg>