<svg xmlns="http://www.w3.org/2000/svg" xmlns:xlink="http://www.w3.org/1999/xlink" width="1080" zoomAndPan="magnify" viewBox="0 0 810 1439.999935" height="1920" preserveAspectRatio="xMidYMid meet" version="1.0"><defs><clipPath id="03723f6cf0"><path d="M 243 575.734375 L 475 575.734375 L 475 714 L 243 714 Z M 243 575.734375 " clip-rule="nonzero"/></clipPath><clipPath id="65a9016846"><path d="M 299 767 L 465 767 L 465 864.484375 L 299 864.484375 Z M 299 767 " clip-rule="nonzero"/></clipPath></defs><g clip-path="url(#03723f6cf0)"><path fill="#26477a" d="M 444.160156 653.367188 L 443.273438 653.367188 C 444.382812 649.785156 444.929688 646.121094 444.914062 642.375 C 444.910156 640.609375 444.785156 638.855469 444.539062 637.109375 C 444.289062 635.367188 443.917969 633.644531 443.425781 631.953125 C 442.933594 630.261719 442.324219 628.609375 441.597656 627.003906 C 440.875 625.398438 440.039062 623.847656 439.09375 622.359375 C 438.148438 620.871094 437.105469 619.457031 435.957031 618.117188 C 434.8125 616.777344 433.582031 615.523438 432.257812 614.359375 C 430.9375 613.195312 429.539062 612.128906 428.066406 611.160156 C 426.589844 610.195312 425.058594 609.335938 423.464844 608.585938 C 421.867188 607.835938 420.230469 607.203125 418.542969 606.683594 C 416.859375 606.167969 415.148438 605.769531 413.40625 605.496094 C 411.667969 605.222656 409.917969 605.070312 408.15625 605.042969 C 406.394531 605.015625 404.636719 605.113281 402.890625 605.335938 C 401.140625 605.558594 399.417969 605.902344 397.71875 606.371094 C 396.019531 606.835938 394.363281 607.421875 392.746094 608.121094 C 391.128906 608.824219 389.570312 609.636719 388.070312 610.558594 C 386.566406 611.480469 385.136719 612.503906 383.78125 613.628906 C 383.460938 612.191406 383.078125 610.773438 382.625 609.375 C 382.175781 607.972656 381.664062 606.59375 381.089844 605.242188 C 380.511719 603.886719 379.878906 602.5625 379.179688 601.265625 C 378.484375 599.96875 377.730469 598.707031 376.917969 597.480469 C 376.109375 596.253906 375.242188 595.066406 374.324219 593.917969 C 373.402344 592.769531 372.433594 591.664062 371.410156 590.605469 C 370.390625 589.546875 369.324219 588.535156 368.210938 587.574219 C 367.097656 586.613281 365.945312 585.703125 364.75 584.847656 C 363.554688 583.992188 362.320312 583.191406 361.050781 582.445312 C 359.785156 581.703125 358.484375 581.019531 357.152344 580.394531 C 355.820312 579.769531 354.464844 579.207031 353.082031 578.703125 C 351.699219 578.203125 350.296875 577.765625 348.875 577.394531 C 347.453125 577.019531 346.015625 576.714844 344.5625 576.472656 C 343.113281 576.230469 341.65625 576.054688 340.1875 575.949219 C 338.722656 575.839844 337.253906 575.800781 335.785156 575.824219 C 334.3125 575.851562 332.847656 575.945312 331.386719 576.105469 C 329.925781 576.265625 328.472656 576.492188 327.03125 576.78125 C 325.589844 577.074219 324.167969 577.433594 322.757812 577.855469 C 321.347656 578.277344 319.964844 578.765625 318.597656 579.316406 C 317.234375 579.863281 315.898438 580.476562 314.589844 581.144531 C 313.28125 581.816406 312.007812 582.546875 310.765625 583.335938 C 309.523438 584.125 308.320312 584.96875 307.15625 585.867188 C 305.992188 586.765625 304.871094 587.714844 303.792969 588.714844 C 302.714844 589.714844 301.683594 590.761719 300.699219 591.855469 C 299.71875 592.953125 298.789062 594.089844 297.910156 595.269531 C 297.03125 596.449219 296.207031 597.667969 295.4375 598.921875 C 294.671875 600.175781 293.960938 601.464844 293.3125 602.785156 C 292.660156 604.105469 292.074219 605.449219 291.546875 606.824219 C 291.019531 608.199219 290.554688 609.59375 290.15625 611.007812 C 289.753906 612.425781 289.421875 613.855469 289.152344 615.304688 C 288.882812 616.75 288.679688 618.207031 288.542969 619.671875 C 288.40625 621.136719 288.335938 622.605469 288.332031 624.074219 C 288.351562 627.175781 288.648438 630.246094 289.21875 633.292969 C 287.230469 633.015625 285.226562 632.878906 283.214844 632.882812 C 282.113281 632.886719 281.011719 632.9375 279.914062 633.03125 C 278.816406 633.125 277.722656 633.261719 276.636719 633.445312 C 275.546875 633.632812 274.46875 633.859375 273.402344 634.132812 C 272.332031 634.40625 271.277344 634.722656 270.234375 635.082031 C 269.191406 635.441406 268.164062 635.839844 267.15625 636.285156 C 266.144531 636.730469 265.15625 637.214844 264.1875 637.738281 C 263.214844 638.265625 262.269531 638.828125 261.34375 639.433594 C 260.421875 640.035156 259.523438 640.675781 258.652344 641.351562 C 257.78125 642.03125 256.941406 642.742188 256.128906 643.488281 C 255.316406 644.234375 254.535156 645.011719 253.785156 645.824219 C 253.039062 646.632812 252.324219 647.472656 251.644531 648.34375 C 250.964844 649.210938 250.320312 650.105469 249.714844 651.027344 C 249.109375 651.949219 248.542969 652.894531 248.011719 653.863281 C 247.484375 654.832031 246.996094 655.824219 246.550781 656.832031 C 246.101562 657.839844 245.699219 658.867188 245.335938 659.90625 C 244.972656 660.949219 244.652344 662.003906 244.375 663.074219 C 244.097656 664.140625 243.867188 665.21875 243.679688 666.308594 C 243.492188 667.394531 243.347656 668.488281 243.25 669.589844 C 243.152344 670.6875 243.101562 671.789062 243.09375 672.894531 C 243.085938 673.996094 243.121094 675.097656 243.207031 676.199219 C 243.289062 677.300781 243.417969 678.394531 243.589844 679.484375 C 243.761719 680.574219 243.980469 681.65625 244.242188 682.730469 C 244.503906 683.800781 244.808594 684.859375 245.15625 685.90625 C 245.507812 686.953125 245.898438 687.984375 246.332031 689 C 246.765625 690.015625 247.238281 691.011719 247.753906 691.988281 C 248.269531 692.960938 248.824219 693.914062 249.417969 694.847656 C 250.011719 695.777344 250.640625 696.679688 251.308594 697.558594 C 251.976562 698.4375 252.679688 699.285156 253.417969 700.105469 C 254.152344 700.929688 254.921875 701.71875 255.726562 702.472656 C 256.527344 703.230469 257.359375 703.953125 258.222656 704.644531 C 259.082031 705.332031 259.972656 705.984375 260.886719 706.601562 C 261.800781 707.214844 262.742188 707.792969 263.703125 708.332031 C 266.15625 709.980469 268.792969 711.234375 271.617188 712.097656 C 274.441406 712.957031 277.332031 713.386719 280.28125 713.382812 L 444.160156 713.382812 C 445.144531 713.382812 446.125 713.332031 447.101562 713.234375 C 448.078125 713.136719 449.050781 712.988281 450.011719 712.796875 C 450.976562 712.601562 451.929688 712.363281 452.867188 712.074219 C 453.808594 711.789062 454.730469 711.457031 455.640625 711.078125 C 456.546875 710.703125 457.433594 710.28125 458.300781 709.816406 C 459.164062 709.351562 460.007812 708.847656 460.824219 708.300781 C 461.640625 707.753906 462.429688 707.167969 463.1875 706.542969 C 463.945312 705.921875 464.675781 705.261719 465.367188 704.566406 C 466.0625 703.871094 466.722656 703.140625 467.347656 702.382812 C 467.96875 701.621094 468.554688 700.832031 469.101562 700.015625 C 469.648438 699.199219 470.152344 698.355469 470.617188 697.488281 C 471.082031 696.625 471.5 695.734375 471.878906 694.828125 C 472.253906 693.917969 472.585938 692.996094 472.875 692.054688 C 473.160156 691.113281 473.398438 690.160156 473.59375 689.199219 C 473.785156 688.234375 473.933594 687.261719 474.03125 686.285156 C 474.128906 685.304688 474.179688 684.324219 474.179688 683.339844 C 474.175781 682.359375 474.125 681.378906 474.023438 680.402344 C 473.925781 679.425781 473.777344 678.457031 473.582031 677.496094 C 473.386719 676.53125 473.144531 675.582031 472.855469 674.644531 C 472.570312 673.703125 472.238281 672.78125 471.859375 671.875 C 471.480469 670.96875 471.058594 670.085938 470.59375 669.21875 C 470.128906 668.355469 469.625 667.515625 469.078125 666.699219 C 468.53125 665.882812 467.945312 665.097656 467.320312 664.339844 C 466.699219 663.582031 466.039062 662.855469 465.34375 662.164062 C 464.648438 661.46875 463.921875 660.8125 463.164062 660.1875 C 462.40625 659.566406 461.617188 658.980469 460.800781 658.4375 C 459.988281 657.890625 459.144531 657.386719 458.28125 656.925781 C 457.414062 656.460938 456.53125 656.042969 455.625 655.664062 C 454.71875 655.289062 453.792969 654.957031 452.855469 654.671875 C 451.917969 654.386719 450.96875 654.148438 450.003906 653.953125 C 449.042969 653.761719 448.074219 653.617188 447.097656 653.519531 C 446.121094 653.417969 445.144531 653.371094 444.160156 653.367188 Z M 444.160156 653.367188 " fill-opacity="1" fill-rule="nonzero"/></g><path fill="#6b99d2" d="M 443.753906 743.835938 L 443.070312 743.835938 C 443.925781 741.03125 444.355469 738.164062 444.367188 735.234375 C 444.367188 733.855469 444.265625 732.484375 444.070312 731.121094 C 443.878906 729.757812 443.585938 728.417969 443.203125 727.09375 C 442.816406 725.773438 442.339844 724.484375 441.773438 723.230469 C 441.203125 721.972656 440.550781 720.765625 439.8125 719.605469 C 439.074219 718.441406 438.257812 717.339844 437.363281 716.292969 C 436.464844 715.246094 435.503906 714.269531 434.46875 713.359375 C 433.433594 712.449219 432.34375 711.617188 431.191406 710.863281 C 430.039062 710.109375 428.839844 709.441406 427.59375 708.855469 C 426.347656 708.269531 425.066406 707.777344 423.75 707.375 C 422.433594 706.972656 421.097656 706.664062 419.738281 706.453125 C 418.378906 706.238281 417.011719 706.121094 415.632812 706.105469 C 414.257812 706.085938 412.886719 706.164062 411.523438 706.339844 C 410.15625 706.515625 408.8125 706.785156 407.484375 707.152344 C 406.160156 707.515625 404.863281 707.976562 403.601562 708.523438 C 402.339844 709.074219 401.125 709.710938 399.953125 710.433594 C 398.78125 711.15625 397.667969 711.957031 396.609375 712.839844 C 396.367188 711.707031 396.078125 710.589844 395.738281 709.488281 C 395.394531 708.382812 395.003906 707.296875 394.5625 706.230469 C 394.121094 705.160156 393.628906 704.117188 393.089844 703.09375 C 392.554688 702.070312 391.96875 701.074219 391.339844 700.105469 C 390.710938 699.136719 390.039062 698.199219 389.324219 697.292969 C 388.609375 696.386719 387.851562 695.515625 387.058594 694.675781 C 386.261719 693.839844 385.429688 693.039062 384.558594 692.28125 C 383.691406 691.519531 382.789062 690.800781 381.855469 690.121094 C 380.917969 689.445312 379.953125 688.808594 378.960938 688.222656 C 377.96875 687.632812 376.949219 687.089844 375.90625 686.59375 C 374.863281 686.101562 373.800781 685.652344 372.714844 685.257812 C 371.628906 684.859375 370.53125 684.511719 369.414062 684.214844 C 368.296875 683.921875 367.171875 683.675781 366.03125 683.484375 C 364.894531 683.292969 363.75 683.152344 362.597656 683.066406 C 361.445312 682.976562 360.292969 682.945312 359.136719 682.964844 C 357.984375 682.984375 356.832031 683.054688 355.683594 683.179688 C 354.539062 683.304688 353.398438 683.484375 352.265625 683.710938 C 351.132812 683.941406 350.015625 684.222656 348.910156 684.558594 C 347.804688 684.890625 346.714844 685.273438 345.644531 685.707031 C 344.574219 686.140625 343.527344 686.621094 342.5 687.152344 C 341.476562 687.679688 340.476562 688.257812 339.5 688.878906 C 338.527344 689.5 337.585938 690.164062 336.671875 690.875 C 335.761719 691.582031 334.882812 692.332031 334.039062 693.121094 C 333.195312 693.910156 332.390625 694.734375 331.625 695.601562 C 330.855469 696.464844 330.132812 697.359375 329.445312 698.289062 C 328.761719 699.21875 328.121094 700.179688 327.523438 701.167969 C 326.925781 702.160156 326.375 703.171875 325.875 704.214844 C 325.371094 705.253906 324.914062 706.3125 324.507812 707.394531 C 324.101562 708.476562 323.746094 709.574219 323.441406 710.691406 C 323.136719 711.804688 322.882812 712.929688 322.683594 714.070312 C 322.480469 715.207031 322.332031 716.351562 322.234375 717.503906 C 322.140625 718.652344 322.097656 719.808594 322.105469 720.964844 C 322.125 723.394531 322.355469 725.808594 322.789062 728.199219 C 321.230469 727.921875 319.660156 727.785156 318.082031 727.789062 C 316.347656 727.785156 314.628906 727.925781 312.921875 728.203125 C 311.214844 728.484375 309.539062 728.902344 307.902344 729.460938 C 306.261719 730.015625 304.679688 730.707031 303.15625 731.523438 C 301.632812 732.34375 300.183594 733.28125 298.8125 734.339844 C 297.445312 735.398438 296.171875 736.566406 294.992188 737.835938 C 293.816406 739.105469 292.75 740.460938 291.796875 741.90625 C 290.84375 743.355469 290.015625 744.867188 289.316406 746.449219 C 288.613281 748.035156 288.042969 749.664062 287.613281 751.339844 C 287.179688 753.019531 286.886719 754.71875 286.734375 756.445312 C 286.582031 758.171875 286.574219 759.898438 286.707031 761.625 C 286.839844 763.351562 287.117188 765.054688 287.53125 766.734375 C 287.945312 768.417969 288.496094 770.054688 289.183594 771.644531 C 289.867188 773.234375 290.679688 774.757812 291.617188 776.214844 C 292.554688 777.667969 293.605469 779.039062 294.769531 780.320312 C 295.933594 781.601562 297.195312 782.78125 298.554688 783.851562 C 299.910156 784.925781 301.347656 785.878906 302.867188 786.714844 C 304.777344 788.015625 306.839844 789 309.046875 789.675781 C 311.257812 790.351562 313.519531 790.683594 315.828125 790.675781 L 443.753906 790.675781 C 444.519531 790.675781 445.285156 790.636719 446.046875 790.5625 C 446.8125 790.488281 447.570312 790.375 448.324219 790.226562 C 449.074219 790.078125 449.820312 789.890625 450.554688 789.667969 C 451.289062 789.445312 452.007812 789.1875 452.71875 788.894531 C 453.425781 788.601562 454.121094 788.273438 454.796875 787.914062 C 455.472656 787.550781 456.132812 787.15625 456.769531 786.730469 C 457.410156 786.304688 458.023438 785.847656 458.617188 785.363281 C 459.210938 784.875 459.78125 784.363281 460.324219 783.820312 C 460.867188 783.277344 461.382812 782.710938 461.871094 782.117188 C 462.359375 781.523438 462.816406 780.910156 463.242188 780.273438 C 463.671875 779.632812 464.066406 778.976562 464.429688 778.300781 C 464.792969 777.625 465.121094 776.933594 465.414062 776.222656 C 465.710938 775.515625 465.972656 774.792969 466.195312 774.058594 C 466.417969 773.324219 466.609375 772.582031 466.757812 771.828125 C 466.910156 771.074219 467.027344 770.316406 467.101562 769.554688 C 467.179688 768.789062 467.21875 768.023438 467.222656 767.257812 C 467.21875 766.488281 467.179688 765.722656 467.101562 764.957031 C 467.027344 764.195312 466.910156 763.4375 466.757812 762.683594 C 466.609375 761.929688 466.417969 761.1875 466.195312 760.453125 C 465.972656 759.71875 465.710938 758.996094 465.414062 758.289062 C 465.121094 757.578125 464.792969 756.886719 464.429688 756.210938 C 464.066406 755.535156 463.671875 754.878906 463.242188 754.238281 C 462.816406 753.601562 462.359375 752.988281 461.871094 752.394531 C 461.382812 751.800781 460.867188 751.234375 460.324219 750.691406 C 459.78125 750.148438 459.210938 749.636719 458.617188 749.148438 C 458.023438 748.664062 457.410156 748.207031 456.769531 747.78125 C 456.132812 747.355469 455.472656 746.960938 454.796875 746.601562 C 454.121094 746.238281 453.425781 745.910156 452.71875 745.617188 C 452.007812 745.324219 451.289062 745.066406 450.554688 744.84375 C 449.820312 744.621094 449.074219 744.4375 448.324219 744.285156 C 447.570312 744.136719 446.8125 744.023438 446.046875 743.949219 C 445.285156 743.875 444.519531 743.835938 443.753906 743.835938 Z M 443.753906 743.835938 " fill-opacity="1" fill-rule="nonzero"/><path fill="#26477a" d="M 445.59375 747.457031 L 444.914062 747.457031 C 445.738281 744.671875 446.148438 741.824219 446.140625 738.921875 C 446.140625 737.542969 446.042969 736.175781 445.847656 734.8125 C 445.652344 733.453125 445.363281 732.109375 444.980469 730.789062 C 444.597656 729.46875 444.121094 728.183594 443.558594 726.929688 C 442.992188 725.675781 442.339844 724.46875 441.601562 723.304688 C 440.867188 722.144531 440.050781 721.039062 439.160156 719.996094 C 438.265625 718.949219 437.304688 717.972656 436.273438 717.0625 C 435.242188 716.152344 434.152344 715.320312 433.003906 714.5625 C 431.855469 713.808594 430.65625 713.136719 429.414062 712.550781 C 428.171875 711.964844 426.890625 711.472656 425.578125 711.066406 C 424.265625 710.660156 422.929688 710.351562 421.570312 710.136719 C 420.214844 709.921875 418.847656 709.800781 417.472656 709.78125 C 416.097656 709.757812 414.730469 709.832031 413.367188 710.003906 C 412 710.175781 410.65625 710.445312 409.332031 710.808594 C 408.003906 711.167969 406.710938 711.625 405.449219 712.167969 C 404.1875 712.714844 402.96875 713.347656 401.796875 714.066406 C 400.625 714.785156 399.511719 715.582031 398.449219 716.457031 C 398.195312 715.339844 397.890625 714.238281 397.535156 713.152344 C 397.179688 712.0625 396.773438 710.996094 396.320312 709.945312 C 395.867188 708.890625 395.367188 707.863281 394.820312 706.859375 C 394.277344 705.851562 393.683594 704.875 393.050781 703.921875 C 392.414062 702.972656 391.738281 702.050781 391.019531 701.160156 C 390.300781 700.269531 389.542969 699.414062 388.746094 698.59375 C 387.949219 697.769531 387.117188 696.988281 386.25 696.242188 C 385.382812 695.496094 384.480469 694.792969 383.550781 694.128906 C 382.617188 693.464844 381.65625 692.84375 380.667969 692.269531 C 379.679688 691.691406 378.667969 691.164062 377.632812 690.679688 C 376.597656 690.195312 375.539062 689.757812 374.464844 689.371094 C 373.386719 688.984375 372.296875 688.644531 371.191406 688.355469 C 370.082031 688.066406 368.964844 687.828125 367.839844 687.640625 C 366.710938 687.457031 365.574219 687.320312 364.433594 687.238281 C 363.292969 687.152344 362.152344 687.121094 361.007812 687.140625 C 359.863281 687.160156 358.726562 687.234375 357.589844 687.359375 C 356.449219 687.480469 355.320312 687.65625 354.199219 687.882812 C 353.082031 688.109375 351.972656 688.386719 350.875 688.714844 C 349.78125 689.042969 348.703125 689.417969 347.640625 689.84375 C 346.578125 690.269531 345.539062 690.746094 344.519531 691.265625 C 343.5 691.785156 342.507812 692.351562 341.539062 692.960938 C 340.574219 693.570312 339.636719 694.226562 338.726562 694.921875 C 337.820312 695.617188 336.945312 696.355469 336.105469 697.128906 C 335.265625 697.90625 334.460938 698.71875 333.691406 699.566406 C 332.925781 700.414062 332.199219 701.296875 331.511719 702.210938 C 330.824219 703.128906 330.179688 704.070312 329.578125 705.046875 C 328.976562 706.019531 328.421875 707.019531 327.914062 708.042969 C 327.402344 709.066406 326.9375 710.113281 326.523438 711.179688 C 326.109375 712.246094 325.742188 713.328125 325.425781 714.425781 C 325.109375 715.527344 324.839844 716.636719 324.625 717.761719 C 324.410156 718.886719 324.246094 720.019531 324.132812 721.15625 C 324.019531 722.296875 323.957031 723.4375 323.949219 724.582031 C 323.929688 727.015625 324.160156 729.429688 324.628906 731.820312 C 323.066406 731.605469 321.5 731.488281 319.921875 731.476562 C 318.199219 731.484375 316.484375 731.632812 314.785156 731.917969 C 313.082031 732.207031 311.417969 732.632812 309.785156 733.195312 C 308.15625 733.757812 306.582031 734.449219 305.066406 735.273438 C 303.546875 736.09375 302.109375 737.035156 300.746094 738.09375 C 299.382812 739.152344 298.117188 740.3125 296.945312 741.582031 C 295.773438 742.847656 294.714844 744.203125 293.765625 745.644531 C 292.816406 747.085938 291.992188 748.597656 291.292969 750.171875 C 290.589844 751.75 290.023438 753.375 289.589844 755.046875 C 289.15625 756.71875 288.863281 758.414062 288.707031 760.132812 C 288.554688 761.851562 288.542969 763.570312 288.667969 765.292969 C 288.796875 767.015625 289.066406 768.714844 289.472656 770.390625 C 289.878906 772.070312 290.421875 773.703125 291.097656 775.289062 C 291.773438 776.878906 292.574219 778.398438 293.5 779.855469 C 294.425781 781.3125 295.464844 782.683594 296.617188 783.96875 C 297.769531 785.253906 299.019531 786.4375 300.363281 787.515625 C 301.710938 788.59375 303.136719 789.558594 304.640625 790.402344 C 306.570312 791.6875 308.644531 792.667969 310.863281 793.339844 C 313.082031 794.015625 315.351562 794.355469 317.671875 794.363281 L 445.59375 794.363281 C 446.363281 794.359375 447.125 794.320312 447.890625 794.242188 C 448.652344 794.164062 449.410156 794.050781 450.164062 793.898438 C 450.914062 793.746094 451.660156 793.558594 452.390625 793.335938 C 453.125 793.109375 453.847656 792.851562 454.554688 792.554688 C 455.261719 792.261719 455.957031 791.929688 456.632812 791.566406 C 457.308594 791.203125 457.964844 790.808594 458.601562 790.378906 C 459.238281 789.953125 459.851562 789.496094 460.445312 789.007812 C 461.039062 788.519531 461.605469 788.003906 462.144531 787.460938 C 462.6875 786.914062 463.203125 786.347656 463.6875 785.753906 C 464.171875 785.15625 464.628906 784.542969 465.054688 783.902344 C 465.480469 783.265625 465.875 782.605469 466.234375 781.929688 C 466.59375 781.25 466.921875 780.558594 467.214844 779.847656 C 467.507812 779.136719 467.765625 778.414062 467.988281 777.679688 C 468.210938 776.945312 468.398438 776.203125 468.546875 775.449219 C 468.695312 774.695312 468.808594 773.9375 468.882812 773.171875 C 468.957031 772.410156 468.996094 771.644531 468.996094 770.875 C 468.992188 770.109375 468.953125 769.34375 468.878906 768.582031 C 468.800781 767.820312 468.6875 767.0625 468.535156 766.3125 C 468.382812 765.558594 468.195312 764.816406 467.972656 764.085938 C 467.75 763.351562 467.492188 762.628906 467.195312 761.921875 C 466.902344 761.214844 466.574219 760.523438 466.210938 759.847656 C 465.851562 759.171875 465.457031 758.515625 465.03125 757.878906 C 464.605469 757.242188 464.148438 756.628906 463.664062 756.035156 C 463.175781 755.445312 462.664062 754.875 462.121094 754.335938 C 461.582031 753.792969 461.011719 753.277344 460.421875 752.792969 C 459.828125 752.304688 459.214844 751.847656 458.578125 751.421875 C 457.941406 750.996094 457.289062 750.601562 456.613281 750.242188 C 455.9375 749.878906 455.246094 749.550781 454.539062 749.257812 C 453.832031 748.960938 453.113281 748.703125 452.378906 748.480469 C 451.648438 748.253906 450.90625 748.066406 450.15625 747.917969 C 449.402344 747.765625 448.648438 747.652344 447.886719 747.574219 C 447.125 747.496094 446.359375 747.457031 445.59375 747.457031 Z M 445.59375 747.457031 " fill-opacity="1" fill-rule="nonzero"/><path fill="#6b99d2" d="M 543.363281 783.097656 L 542.816406 783.097656 C 543.453125 780.933594 543.769531 778.726562 543.769531 776.472656 C 543.769531 775.40625 543.695312 774.34375 543.542969 773.285156 C 543.390625 772.226562 543.167969 771.183594 542.867188 770.160156 C 542.570312 769.132812 542.199219 768.132812 541.761719 767.160156 C 541.320312 766.1875 540.816406 765.25 540.242188 764.347656 C 539.671875 763.445312 539.039062 762.585938 538.347656 761.773438 C 537.652344 760.960938 536.90625 760.203125 536.105469 759.496094 C 535.304688 758.789062 534.457031 758.144531 533.566406 757.554688 C 532.675781 756.96875 531.746094 756.449219 530.78125 755.992188 C 529.8125 755.535156 528.820312 755.152344 527.800781 754.835938 C 526.78125 754.519531 525.742188 754.277344 524.691406 754.109375 C 523.636719 753.941406 522.574219 753.847656 521.507812 753.832031 C 520.441406 753.8125 519.375 753.871094 518.316406 754 C 517.257812 754.132812 516.214844 754.339844 515.183594 754.621094 C 514.152344 754.898438 513.148438 755.25 512.167969 755.671875 C 511.1875 756.097656 510.238281 756.585938 509.328125 757.140625 C 508.417969 757.699219 507.550781 758.316406 506.726562 758.996094 C 506.53125 758.121094 506.300781 757.257812 506.03125 756.40625 C 505.761719 755.554688 505.453125 754.71875 505.105469 753.894531 C 504.757812 753.070312 504.375 752.265625 503.953125 751.476562 C 503.53125 750.6875 503.074219 749.921875 502.585938 749.175781 C 502.09375 748.425781 501.570312 747.703125 501.011719 747.007812 C 500.453125 746.308594 499.867188 745.636719 499.246094 744.992188 C 498.628906 744.347656 497.980469 743.730469 497.308594 743.144531 C 496.632812 742.5625 495.933594 742.007812 495.207031 741.488281 C 494.480469 740.964844 493.734375 740.476562 492.964844 740.027344 C 492.191406 739.574219 491.402344 739.15625 490.597656 738.777344 C 489.789062 738.394531 488.964844 738.050781 488.125 737.746094 C 487.285156 737.441406 486.433594 737.175781 485.570312 736.949219 C 484.707031 736.722656 483.832031 736.535156 482.953125 736.390625 C 482.070312 736.242188 481.183594 736.136719 480.292969 736.070312 C 479.402344 736.003906 478.511719 735.980469 477.617188 735.996094 C 476.726562 736.011719 475.835938 736.066406 474.949219 736.164062 C 474.058594 736.261719 473.179688 736.398438 472.304688 736.578125 C 471.425781 736.757812 470.5625 736.972656 469.707031 737.230469 C 468.851562 737.488281 468.011719 737.785156 467.183594 738.121094 C 466.355469 738.453125 465.542969 738.824219 464.75 739.234375 C 463.953125 739.644531 463.179688 740.089844 462.425781 740.566406 C 461.671875 741.046875 460.941406 741.5625 460.238281 742.109375 C 459.53125 742.65625 458.847656 743.230469 458.195312 743.839844 C 457.542969 744.449219 456.917969 745.089844 456.320312 745.753906 C 455.726562 746.421875 455.164062 747.113281 454.628906 747.832031 C 454.097656 748.546875 453.601562 749.289062 453.136719 750.050781 C 452.671875 750.816406 452.242188 751.597656 451.851562 752.402344 C 451.457031 753.203125 451.101562 754.023438 450.785156 754.859375 C 450.46875 755.695312 450.1875 756.542969 449.949219 757.402344 C 449.707031 758.265625 449.507812 759.132812 449.347656 760.015625 C 449.1875 760.894531 449.066406 761.777344 448.984375 762.667969 C 448.90625 763.558594 448.867188 764.449219 448.871094 765.34375 C 448.875 767.226562 449.058594 769.09375 449.414062 770.941406 C 448.21875 770.746094 447.011719 770.65625 445.800781 770.667969 C 444.453125 770.660156 443.117188 770.761719 441.785156 770.976562 C 440.457031 771.191406 439.15625 771.511719 437.878906 771.941406 C 436.605469 772.371094 435.371094 772.902344 434.183594 773.535156 C 432.996094 774.167969 431.871094 774.894531 430.800781 775.714844 C 429.734375 776.535156 428.742188 777.4375 427.824219 778.425781 C 426.90625 779.410156 426.078125 780.464844 425.332031 781.585938 C 424.589844 782.710938 423.945312 783.886719 423.394531 785.117188 C 422.847656 786.347656 422.40625 787.613281 422.066406 788.917969 C 421.726562 790.222656 421.5 791.542969 421.378906 792.886719 C 421.261719 794.226562 421.253906 795.570312 421.355469 796.914062 C 421.460938 798.253906 421.671875 799.582031 421.996094 800.890625 C 422.316406 802.195312 422.746094 803.46875 423.277344 804.707031 C 423.8125 805.941406 424.445312 807.125 425.171875 808.257812 C 425.902344 809.390625 426.722656 810.453125 427.625 811.449219 C 428.53125 812.445312 429.515625 813.363281 430.570312 814.195312 C 431.628906 815.027344 432.746094 815.769531 433.929688 816.417969 C 435.414062 817.429688 437.019531 818.199219 438.742188 818.726562 C 440.464844 819.25 442.226562 819.503906 444.023438 819.488281 L 543.363281 819.488281 C 543.957031 819.488281 544.546875 819.457031 545.140625 819.394531 C 545.730469 819.335938 546.316406 819.246094 546.898438 819.128906 C 547.480469 819.011719 548.054688 818.867188 548.621094 818.691406 C 549.191406 818.519531 549.75 818.316406 550.296875 818.089844 C 550.84375 817.859375 551.378906 817.605469 551.902344 817.324219 C 552.425781 817.042969 552.933594 816.738281 553.429688 816.40625 C 553.921875 816.078125 554.398438 815.722656 554.855469 815.347656 C 555.316406 814.96875 555.753906 814.570312 556.175781 814.148438 C 556.59375 813.730469 556.992188 813.289062 557.371094 812.832031 C 557.746094 812.371094 558.101562 811.894531 558.429688 811.402344 C 558.761719 810.90625 559.066406 810.398438 559.347656 809.875 C 559.628906 809.351562 559.882812 808.816406 560.109375 808.265625 C 560.339844 807.71875 560.539062 807.160156 560.714844 806.589844 C 560.886719 806.023438 561.03125 805.449219 561.148438 804.867188 C 561.269531 804.28125 561.355469 803.695312 561.417969 803.105469 C 561.476562 802.515625 561.507812 801.921875 561.511719 801.328125 C 561.511719 800.730469 561.480469 800.136719 561.421875 799.542969 C 561.363281 798.953125 561.277344 798.363281 561.160156 797.777344 C 561.046875 797.195312 560.902344 796.617188 560.730469 796.046875 C 560.558594 795.476562 560.355469 794.917969 560.128906 794.367188 C 559.902344 793.816406 559.648438 793.277344 559.371094 792.753906 C 559.089844 792.226562 558.785156 791.714844 558.453125 791.21875 C 558.125 790.722656 557.769531 790.246094 557.394531 789.785156 C 557.015625 789.324219 556.617188 788.882812 556.199219 788.460938 C 555.777344 788.039062 555.339844 787.636719 554.878906 787.257812 C 554.421875 786.878906 553.945312 786.523438 553.449219 786.191406 C 552.957031 785.859375 552.445312 785.554688 551.921875 785.269531 C 551.398438 784.988281 550.863281 784.734375 550.3125 784.503906 C 549.761719 784.273438 549.203125 784.074219 548.636719 783.898438 C 548.066406 783.722656 547.488281 783.578125 546.90625 783.457031 C 546.324219 783.339844 545.734375 783.25 545.144531 783.191406 C 544.550781 783.128906 543.957031 783.097656 543.363281 783.097656 Z M 543.363281 783.097656 " fill-opacity="1" fill-rule="nonzero"/><path fill="#26477a" d="M 545.203125 784.941406 L 544.589844 784.941406 C 545.28125 782.761719 545.621094 780.53125 545.613281 778.25 C 545.613281 777.507812 545.578125 776.769531 545.503906 776.035156 C 545.433594 775.296875 545.324219 774.566406 545.179688 773.839844 C 545.035156 773.113281 544.855469 772.398438 544.640625 771.6875 C 544.425781 770.980469 544.175781 770.285156 543.894531 769.601562 C 543.613281 768.917969 543.296875 768.246094 542.945312 767.59375 C 542.597656 766.941406 542.21875 766.308594 541.808594 765.691406 C 541.398438 765.078125 540.957031 764.484375 540.488281 763.910156 C 540.019531 763.339844 539.523438 762.792969 539 762.269531 C 538.476562 761.746094 537.929688 761.25 537.355469 760.777344 C 536.785156 760.308594 536.191406 759.867188 535.578125 759.457031 C 534.960938 759.046875 534.328125 758.667969 533.675781 758.316406 C 533.023438 757.96875 532.355469 757.652344 531.671875 757.367188 C 530.988281 757.085938 530.292969 756.835938 529.585938 756.621094 C 528.878906 756.40625 528.160156 756.226562 527.4375 756.082031 C 526.710938 755.9375 525.980469 755.828125 525.246094 755.757812 C 524.507812 755.683594 523.769531 755.648438 523.03125 755.648438 C 520.390625 755.628906 517.824219 756.066406 515.339844 756.957031 C 512.851562 757.851562 510.59375 759.144531 508.566406 760.835938 C 508.375 759.964844 508.144531 759.101562 507.875 758.25 C 507.601562 757.398438 507.292969 756.5625 506.945312 755.738281 C 506.597656 754.914062 506.214844 754.109375 505.792969 753.320312 C 505.375 752.53125 504.917969 751.765625 504.425781 751.015625 C 503.933594 750.269531 503.410156 749.546875 502.855469 748.851562 C 502.296875 748.152344 501.707031 747.480469 501.089844 746.835938 C 500.472656 746.191406 499.824219 745.574219 499.148438 744.988281 C 498.472656 744.40625 497.773438 743.851562 497.046875 743.328125 C 496.324219 742.808594 495.574219 742.320312 494.804688 741.867188 C 494.035156 741.417969 493.246094 741 492.4375 740.621094 C 491.628906 740.238281 490.804688 739.894531 489.964844 739.589844 C 489.125 739.285156 488.273438 739.019531 487.410156 738.792969 C 486.546875 738.566406 485.675781 738.378906 484.792969 738.234375 C 483.914062 738.085938 483.027344 737.980469 482.136719 737.914062 C 481.246094 737.847656 480.355469 737.824219 479.460938 737.839844 C 478.566406 737.855469 477.675781 737.910156 476.789062 738.007812 C 475.902344 738.105469 475.019531 738.242188 474.144531 738.421875 C 473.269531 738.601562 472.40625 738.816406 471.550781 739.074219 C 470.695312 739.332031 469.851562 739.628906 469.023438 739.964844 C 468.195312 740.296875 467.382812 740.667969 466.589844 741.078125 C 465.796875 741.488281 465.023438 741.933594 464.269531 742.410156 C 463.515625 742.890625 462.785156 743.40625 462.078125 743.953125 C 461.371094 744.496094 460.691406 745.074219 460.039062 745.683594 C 459.382812 746.292969 458.757812 746.929688 458.164062 747.597656 C 457.570312 748.265625 457.003906 748.957031 456.472656 749.675781 C 455.941406 750.390625 455.441406 751.132812 454.976562 751.894531 C 454.515625 752.660156 454.085938 753.441406 453.691406 754.246094 C 453.300781 755.046875 452.945312 755.867188 452.625 756.703125 C 452.308594 757.539062 452.03125 758.386719 451.789062 759.246094 C 451.550781 760.109375 451.347656 760.976562 451.1875 761.855469 C 451.027344 762.738281 450.90625 763.621094 450.828125 764.511719 C 450.75 765.402344 450.710938 766.292969 450.710938 767.1875 C 450.71875 769.070312 450.902344 770.9375 451.257812 772.785156 C 450.035156 772.589844 448.808594 772.5 447.574219 772.511719 C 446.226562 772.507812 444.894531 772.613281 443.566406 772.832031 C 442.238281 773.046875 440.9375 773.371094 439.664062 773.804688 C 438.390625 774.234375 437.164062 774.769531 435.976562 775.40625 C 434.792969 776.039062 433.667969 776.769531 432.605469 777.589844 C 431.539062 778.414062 430.550781 779.316406 429.636719 780.304688 C 428.71875 781.289062 427.894531 782.34375 427.152344 783.464844 C 426.410156 784.589844 425.769531 785.765625 425.222656 786.996094 C 424.675781 788.226562 424.238281 789.492188 423.902344 790.792969 C 423.566406 792.097656 423.335938 793.417969 423.21875 794.757812 C 423.101562 796.101562 423.097656 797.441406 423.199219 798.78125 C 423.304688 800.125 423.519531 801.445312 423.84375 802.753906 C 424.167969 804.058594 424.59375 805.328125 425.128906 806.566406 C 425.660156 807.800781 426.292969 808.980469 427.023438 810.113281 C 427.753906 811.242188 428.570312 812.304688 429.476562 813.300781 C 430.378906 814.296875 431.359375 815.207031 432.417969 816.042969 C 433.472656 816.875 434.589844 817.613281 435.769531 818.261719 C 437.253906 819.253906 438.851562 820.015625 440.558594 820.539062 C 442.265625 821.058594 444.011719 821.324219 445.800781 821.332031 L 545.203125 821.332031 C 545.800781 821.332031 546.394531 821.300781 546.984375 821.238281 C 547.578125 821.179688 548.164062 821.089844 548.75 820.972656 C 549.332031 820.851562 549.90625 820.707031 550.476562 820.53125 C 551.046875 820.355469 551.605469 820.15625 552.152344 819.925781 C 552.703125 819.695312 553.238281 819.441406 553.765625 819.15625 C 554.289062 818.875 554.796875 818.570312 555.292969 818.238281 C 555.785156 817.90625 556.261719 817.550781 556.722656 817.171875 C 557.179688 816.792969 557.621094 816.390625 558.039062 815.96875 C 558.460938 815.546875 558.859375 815.105469 559.234375 814.644531 C 559.613281 814.183594 559.964844 813.703125 560.296875 813.210938 C 560.625 812.714844 560.929688 812.203125 561.210938 811.675781 C 561.492188 811.152344 561.746094 810.613281 561.972656 810.0625 C 562.199219 809.511719 562.398438 808.953125 562.570312 808.382812 C 562.742188 807.8125 562.886719 807.234375 563.003906 806.652344 C 563.121094 806.066406 563.207031 805.476562 563.265625 804.886719 C 563.324219 804.292969 563.351562 803.699219 563.351562 803.101562 C 563.351562 802.507812 563.320312 801.914062 563.257812 801.324219 C 563.199219 800.734375 563.109375 800.144531 562.992188 799.5625 C 562.875 798.980469 562.730469 798.40625 562.554688 797.835938 C 562.382812 797.269531 562.179688 796.710938 561.953125 796.164062 C 561.722656 795.613281 561.46875 795.078125 561.1875 794.554688 C 560.910156 794.03125 560.601562 793.523438 560.273438 793.027344 C 559.941406 792.535156 559.589844 792.058594 559.210938 791.597656 C 558.835938 791.140625 558.4375 790.699219 558.015625 790.28125 C 557.597656 789.859375 557.15625 789.460938 556.699219 789.082031 C 556.238281 788.707031 555.765625 788.351562 555.269531 788.023438 C 554.777344 787.691406 554.269531 787.386719 553.746094 787.105469 C 553.222656 786.824219 552.6875 786.570312 552.136719 786.339844 C 551.589844 786.113281 551.03125 785.910156 550.464844 785.738281 C 549.898438 785.5625 549.320312 785.417969 548.738281 785.300781 C 548.15625 785.183594 547.570312 785.09375 546.980469 785.035156 C 546.390625 784.972656 545.796875 784.941406 545.203125 784.941406 Z M 545.203125 784.941406 " fill-opacity="1" fill-rule="nonzero"/><path fill="#6b99d2" d="M 396.539062 697.953125 L 397.289062 697.953125 C 396.378906 694.925781 395.925781 691.828125 395.925781 688.667969 C 395.925781 687.632812 395.976562 686.597656 396.078125 685.570312 C 396.179688 684.539062 396.332031 683.515625 396.53125 682.5 C 396.734375 681.484375 396.984375 680.480469 397.285156 679.492188 C 397.585938 678.5 397.933594 677.527344 398.332031 676.570312 C 398.726562 675.613281 399.167969 674.679688 399.65625 673.765625 C 400.144531 672.851562 400.675781 671.964844 401.25 671.105469 C 401.824219 670.242188 402.441406 669.414062 403.097656 668.613281 C 403.753906 667.8125 404.445312 667.046875 405.179688 666.3125 C 405.910156 665.582031 406.675781 664.886719 407.476562 664.230469 C 408.273438 663.574219 409.105469 662.957031 409.964844 662.382812 C 410.824219 661.808594 411.710938 661.273438 412.625 660.789062 C 413.535156 660.300781 414.46875 659.855469 415.425781 659.460938 C 416.382812 659.066406 417.355469 658.714844 418.34375 658.414062 C 419.335938 658.113281 420.335938 657.863281 421.351562 657.660156 C 422.367188 657.460938 423.390625 657.308594 424.417969 657.207031 C 425.449219 657.105469 426.480469 657.054688 427.515625 657.054688 C 431.195312 657.054688 434.773438 657.679688 438.238281 658.921875 C 441.707031 660.164062 444.863281 661.953125 447.710938 664.292969 C 447.976562 663.074219 448.300781 661.871094 448.679688 660.679688 C 449.058594 659.492188 449.488281 658.320312 449.972656 657.171875 C 450.457031 656.023438 450.996094 654.898438 451.582031 653.796875 C 452.171875 652.695312 452.808594 651.625 453.492188 650.582031 C 454.179688 649.542969 454.910156 648.53125 455.691406 647.558594 C 456.46875 646.582031 457.289062 645.644531 458.152344 644.746094 C 459.015625 643.84375 459.921875 642.988281 460.863281 642.167969 C 461.804688 641.351562 462.78125 640.582031 463.796875 639.851562 C 464.808594 639.125 465.851562 638.445312 466.929688 637.8125 C 468.003906 637.183594 469.105469 636.601562 470.234375 636.070312 C 471.363281 635.539062 472.511719 635.0625 473.683594 634.636719 C 474.859375 634.210938 476.046875 633.839844 477.253906 633.523438 C 478.457031 633.207031 479.675781 632.945312 480.90625 632.738281 C 482.136719 632.535156 483.375 632.386719 484.617188 632.292969 C 485.859375 632.203125 487.105469 632.167969 488.351562 632.191406 C 489.597656 632.210938 490.84375 632.292969 492.082031 632.429688 C 493.320312 632.5625 494.550781 632.757812 495.773438 633.003906 C 496.996094 633.253906 498.203125 633.558594 499.398438 633.917969 C 500.59375 634.277344 501.765625 634.691406 502.921875 635.160156 C 504.078125 635.625 505.210938 636.144531 506.320312 636.714844 C 507.429688 637.285156 508.511719 637.90625 509.5625 638.578125 C 510.613281 639.246094 511.632812 639.964844 512.621094 640.726562 C 513.605469 641.492188 514.554688 642.296875 515.46875 643.148438 C 516.378906 643.996094 517.253906 644.886719 518.082031 645.816406 C 518.914062 646.75 519.703125 647.714844 520.445312 648.71875 C 521.1875 649.71875 521.882812 650.753906 522.53125 651.820312 C 523.179688 652.886719 523.777344 653.980469 524.328125 655.097656 C 524.875 656.21875 525.371094 657.363281 525.816406 658.53125 C 526.257812 659.695312 526.648438 660.878906 526.984375 662.082031 C 527.320312 663.285156 527.597656 664.5 527.824219 665.726562 C 528.046875 666.953125 528.214844 668.1875 528.324219 669.433594 C 528.4375 670.675781 528.492188 671.921875 528.488281 673.167969 C 528.480469 675.785156 528.230469 678.378906 527.738281 680.953125 C 529.4375 680.734375 531.144531 680.621094 532.855469 680.609375 C 534.730469 680.605469 536.597656 680.757812 538.449219 681.0625 C 540.300781 681.367188 542.113281 681.820312 543.890625 682.425781 C 545.667969 683.027344 547.382812 683.777344 549.035156 684.664062 C 550.691406 685.554688 552.257812 686.570312 553.746094 687.71875 C 555.230469 688.867188 556.609375 690.128906 557.886719 691.507812 C 559.164062 692.882812 560.316406 694.355469 561.351562 695.925781 C 562.382812 697.492188 563.28125 699.132812 564.042969 700.851562 C 564.804688 702.566406 565.421875 704.335938 565.890625 706.152344 C 566.359375 707.972656 566.679688 709.816406 566.84375 711.6875 C 567.007812 713.558594 567.019531 715.429688 566.875 717.300781 C 566.730469 719.175781 566.433594 721.023438 565.984375 722.847656 C 565.535156 724.667969 564.9375 726.445312 564.195312 728.167969 C 563.453125 729.894531 562.570312 731.546875 561.554688 733.125 C 560.539062 734.703125 559.402344 736.1875 558.140625 737.578125 C 556.878906 738.96875 555.511719 740.246094 554.039062 741.414062 C 552.566406 742.578125 551.007812 743.613281 549.367188 744.519531 C 547.292969 745.925781 545.058594 746.996094 542.664062 747.726562 C 540.265625 748.460938 537.816406 748.824219 535.3125 748.820312 L 396.539062 748.820312 C 395.707031 748.820312 394.875 748.777344 394.046875 748.691406 C 393.21875 748.609375 392.398438 748.484375 391.578125 748.320312 C 390.761719 748.15625 389.957031 747.953125 389.160156 747.707031 C 388.363281 747.464844 387.582031 747.183594 386.8125 746.863281 C 386.042969 746.542969 385.292969 746.1875 384.558594 745.792969 C 383.824219 745.398438 383.109375 744.972656 382.417969 744.507812 C 381.726562 744.042969 381.058594 743.546875 380.414062 743.019531 C 379.769531 742.488281 379.152344 741.929688 378.566406 741.339844 C 377.976562 740.753906 377.417969 740.136719 376.890625 739.492188 C 376.359375 738.847656 375.863281 738.179688 375.402344 737.484375 C 374.9375 736.792969 374.511719 736.078125 374.117188 735.34375 C 373.722656 734.609375 373.367188 733.859375 373.046875 733.089844 C 372.726562 732.320312 372.445312 731.535156 372.203125 730.738281 C 371.960938 729.941406 371.757812 729.132812 371.59375 728.316406 C 371.429688 727.5 371.304688 726.675781 371.21875 725.847656 C 371.136719 725.019531 371.09375 724.1875 371.089844 723.351562 C 371.097656 722.519531 371.140625 721.691406 371.226562 720.863281 C 371.3125 720.035156 371.4375 719.214844 371.601562 718.398438 C 371.769531 717.582031 371.972656 716.777344 372.21875 715.984375 C 372.464844 715.1875 372.746094 714.40625 373.066406 713.636719 C 373.386719 712.871094 373.746094 712.121094 374.136719 711.386719 C 374.53125 710.65625 374.960938 709.941406 375.425781 709.253906 C 375.886719 708.5625 376.382812 707.894531 376.914062 707.253906 C 377.441406 706.609375 378 705.996094 378.589844 705.410156 C 379.179688 704.820312 379.792969 704.261719 380.4375 703.734375 C 381.082031 703.207031 381.746094 702.714844 382.4375 702.253906 C 383.128906 701.789062 383.84375 701.363281 384.574219 700.96875 C 385.308594 700.578125 386.058594 700.222656 386.828125 699.902344 C 387.59375 699.585938 388.378906 699.304688 389.171875 699.0625 C 389.96875 698.820312 390.773438 698.617188 391.589844 698.453125 C 392.402344 698.289062 393.226562 698.164062 394.050781 698.082031 C 394.878906 698 395.707031 697.957031 396.539062 697.953125 Z M 396.539062 697.953125 " fill-opacity="1" fill-rule="nonzero"/><g clip-path="url(#65a9016846)"><path fill="#6b99d2" d="M 443.546875 822.082031 L 442.867188 822.082031 C 443.699219 819.554688 444.109375 816.960938 444.09375 814.300781 C 444.09375 799.757812 432.152344 787.945312 417.417969 787.945312 C 414.316406 787.925781 411.304688 788.4375 408.386719 789.480469 C 405.46875 790.527344 402.816406 792.039062 400.429688 794.019531 C 400.210938 793.078125 399.957031 792.140625 399.660156 791.21875 C 399.363281 790.296875 399.03125 789.386719 398.660156 788.492188 C 398.289062 787.597656 397.878906 786.71875 397.433594 785.859375 C 396.984375 784.996094 396.503906 784.15625 395.988281 783.335938 C 395.472656 782.519531 394.921875 781.722656 394.335938 780.949219 C 393.753906 780.175781 393.136719 779.425781 392.488281 778.707031 C 391.84375 777.984375 391.167969 777.292969 390.460938 776.625 C 389.753906 775.960938 389.023438 775.328125 388.265625 774.726562 C 387.507812 774.125 386.722656 773.554688 385.917969 773.019531 C 385.109375 772.480469 384.28125 771.980469 383.433594 771.511719 C 382.582031 771.046875 381.714844 770.617188 380.832031 770.222656 C 379.945312 769.828125 379.046875 769.472656 378.128906 769.15625 C 377.214844 768.839844 376.289062 768.5625 375.347656 768.320312 C 374.410156 768.082031 373.464844 767.882812 372.507812 767.722656 C 371.550781 767.566406 370.59375 767.445312 369.625 767.367188 C 368.660156 767.289062 367.695312 767.253906 366.726562 767.257812 C 347.691406 767.257812 332.269531 782.550781 332.269531 801.394531 C 332.261719 803.578125 332.46875 805.738281 332.886719 807.882812 C 331.460938 807.683594 330.027344 807.59375 328.585938 807.609375 C 312.757812 807.609375 299.863281 820.308594 299.863281 836.011719 C 299.867188 837.28125 299.957031 838.539062 300.128906 839.796875 C 300.300781 841.050781 300.558594 842.289062 300.894531 843.507812 C 301.234375 844.730469 301.652344 845.921875 302.148438 847.085938 C 302.644531 848.253906 303.21875 849.378906 303.867188 850.46875 C 304.515625 851.554688 305.234375 852.59375 306.019531 853.585938 C 306.808594 854.578125 307.65625 855.515625 308.570312 856.394531 C 309.480469 857.269531 310.449219 858.085938 311.46875 858.832031 C 312.492188 859.582031 313.558594 860.261719 314.667969 860.867188 C 316.421875 862.054688 318.308594 862.957031 320.332031 863.574219 C 322.355469 864.1875 324.425781 864.492188 326.539062 864.484375 L 443.546875 864.484375 C 444.246094 864.488281 444.941406 864.453125 445.636719 864.390625 C 446.332031 864.324219 447.023438 864.222656 447.707031 864.089844 C 448.390625 863.957031 449.070312 863.789062 449.738281 863.589844 C 450.40625 863.386719 451.0625 863.15625 451.710938 862.890625 C 452.355469 862.625 452.988281 862.332031 453.605469 862.003906 C 454.21875 861.675781 454.820312 861.320312 455.402344 860.933594 C 455.984375 860.550781 456.546875 860.136719 457.085938 859.695312 C 457.628906 859.253906 458.148438 858.789062 458.644531 858.296875 C 459.140625 857.804688 459.609375 857.292969 460.054688 856.753906 C 460.5 856.214844 460.917969 855.65625 461.308594 855.078125 C 461.699219 854.5 462.0625 853.902344 462.394531 853.289062 C 462.726562 852.675781 463.027344 852.046875 463.300781 851.402344 C 463.570312 850.757812 463.808594 850.101562 464.015625 849.4375 C 464.222656 848.769531 464.394531 848.09375 464.535156 847.410156 C 464.675781 846.722656 464.78125 846.035156 464.855469 845.339844 C 464.925781 844.644531 464.964844 843.949219 464.96875 843.25 C 464.96875 831.644531 455.351562 822.082031 443.546875 822.082031 Z M 443.546875 822.082031 " fill-opacity="1" fill-rule="nonzero"/></g><path fill="#6b99d2" d="M 260.703125 716.867188 L 261.042969 716.867188 C 260.605469 715.394531 260.375 713.894531 260.359375 712.359375 C 260.359375 711.351562 260.460938 710.355469 260.65625 709.367188 C 260.851562 708.378906 261.144531 707.421875 261.53125 706.492188 C 261.917969 705.5625 262.390625 704.679688 262.949219 703.839844 C 263.511719 703.003906 264.148438 702.230469 264.863281 701.519531 C 265.574219 700.808594 266.351562 700.175781 267.1875 699.621094 C 268.027344 699.0625 268.910156 698.59375 269.84375 698.210938 C 270.773438 697.828125 271.734375 697.539062 272.722656 697.347656 C 273.707031 697.15625 274.707031 697.0625 275.710938 697.066406 C 277.496094 697.058594 279.230469 697.359375 280.90625 697.96875 C 282.585938 698.582031 284.105469 699.460938 285.46875 700.617188 C 285.714844 699.421875 286.066406 698.257812 286.53125 697.128906 C 286.992188 696 287.550781 694.921875 288.210938 693.894531 C 288.871094 692.871094 289.621094 691.914062 290.457031 691.023438 C 291.292969 690.136719 292.207031 689.335938 293.191406 688.617188 C 294.175781 687.898438 295.21875 687.273438 296.320312 686.75 C 297.421875 686.222656 298.558594 685.800781 299.738281 685.488281 C 300.914062 685.171875 302.113281 684.96875 303.328125 684.875 C 304.542969 684.78125 305.757812 684.800781 306.96875 684.929688 C 308.183594 685.0625 309.371094 685.300781 310.539062 685.652344 C 311.707031 686.003906 312.835938 686.460938 313.917969 687.019531 C 315 687.578125 316.023438 688.234375 316.988281 688.984375 C 317.949219 689.730469 318.835938 690.5625 319.644531 691.476562 C 320.453125 692.386719 321.175781 693.367188 321.800781 694.414062 C 322.429688 695.460938 322.957031 696.554688 323.382812 697.695312 C 323.808594 698.839844 324.128906 700.011719 324.335938 701.214844 C 324.546875 702.417969 324.644531 703.628906 324.628906 704.847656 C 324.632812 706.140625 324.496094 707.414062 324.21875 708.671875 C 325.035156 708.535156 325.851562 708.46875 326.675781 708.46875 C 327.589844 708.464844 328.492188 708.535156 329.394531 708.679688 C 330.292969 708.824219 331.175781 709.042969 332.039062 709.332031 C 332.902344 709.625 333.738281 709.984375 334.539062 710.414062 C 335.34375 710.84375 336.109375 711.335938 336.832031 711.894531 C 337.554688 712.449219 338.226562 713.0625 338.847656 713.726562 C 339.46875 714.394531 340.03125 715.109375 340.53125 715.871094 C 341.035156 716.632812 341.472656 717.429688 341.84375 718.261719 C 342.214844 719.09375 342.515625 719.953125 342.746094 720.835938 C 342.972656 721.71875 343.128906 722.613281 343.210938 723.523438 C 343.292969 724.429688 343.296875 725.339844 343.226562 726.25 C 343.160156 727.160156 343.015625 728.054688 342.796875 728.941406 C 342.578125 729.828125 342.289062 730.6875 341.929688 731.527344 C 341.570312 732.363281 341.140625 733.167969 340.648438 733.933594 C 340.15625 734.703125 339.601562 735.421875 338.988281 736.097656 C 338.378906 736.773438 337.714844 737.394531 336.996094 737.957031 C 336.28125 738.523438 335.527344 739.027344 334.726562 739.464844 C 332.660156 740.835938 330.382812 741.519531 327.90625 741.515625 L 260.703125 741.515625 C 259.894531 741.515625 259.09375 741.4375 258.300781 741.277344 C 257.507812 741.121094 256.738281 740.890625 255.992188 740.582031 C 255.246094 740.273438 254.535156 739.894531 253.863281 739.445312 C 253.191406 739 252.566406 738.488281 251.996094 737.917969 C 251.421875 737.347656 250.910156 736.730469 250.457031 736.058594 C 250.007812 735.386719 249.625 734.679688 249.3125 733.933594 C 249 733.1875 248.765625 732.417969 248.601562 731.625 C 248.441406 730.832031 248.359375 730.035156 248.351562 729.226562 C 248.359375 728.414062 248.441406 727.613281 248.601562 726.820312 C 248.761719 726.023438 249 725.253906 249.3125 724.507812 C 249.625 723.757812 250.003906 723.046875 250.457031 722.375 C 250.90625 721.703125 251.417969 721.078125 251.988281 720.507812 C 252.5625 719.933594 253.183594 719.421875 253.859375 718.96875 C 254.53125 718.519531 255.238281 718.136719 255.988281 717.824219 C 256.734375 717.511719 257.503906 717.277344 258.296875 717.113281 C 259.089844 716.953125 259.894531 716.871094 260.703125 716.867188 Z M 260.703125 716.867188 " fill-opacity="1" fill-rule="nonzero"/></svg>