<svg xmlns="http://www.w3.org/2000/svg" xmlns:xlink="http://www.w3.org/1999/xlink" width="1024" zoomAndPan="magnify" viewBox="0 0 768 767.999994" height="1024" preserveAspectRatio="xMidYMid meet" version="1.0"><path fill="#fffff8" d="M 678.683594 384.117188 C 678.675781 388.9375 678.550781 393.753906 678.308594 398.566406 C 678.0625 403.378906 677.703125 408.179688 677.222656 412.976562 C 676.746094 417.769531 676.148438 422.550781 675.4375 427.316406 C 674.722656 432.082031 673.894531 436.828125 672.945312 441.550781 C 672 446.277344 670.941406 450.976562 669.765625 455.648438 C 668.589844 460.324219 667.296875 464.964844 665.894531 469.574219 C 664.492188 474.183594 662.976562 478.757812 661.347656 483.292969 C 659.722656 487.828125 657.984375 492.320312 656.136719 496.769531 C 654.289062 501.222656 652.332031 505.625 650.269531 509.976562 C 648.207031 514.332031 646.039062 518.632812 643.765625 522.882812 C 641.488281 527.132812 639.113281 531.320312 636.632812 535.453125 C 634.15625 539.585938 631.574219 543.652344 628.898438 547.660156 C 626.21875 551.664062 623.441406 555.601562 620.570312 559.472656 C 617.699219 563.339844 614.734375 567.136719 611.675781 570.863281 C 608.621094 574.585938 605.472656 578.234375 602.234375 581.804688 C 599 585.375 595.679688 588.863281 592.269531 592.269531 C 588.863281 595.679688 585.375 599 581.804688 602.234375 C 578.234375 605.472656 574.585938 608.621094 570.863281 611.675781 C 567.136719 614.734375 563.339844 617.699219 559.472656 620.570312 C 555.601562 623.441406 551.664062 626.21875 547.660156 628.898438 C 543.652344 631.574219 539.585938 634.15625 535.453125 636.632812 C 531.320312 639.113281 527.132812 641.488281 522.882812 643.765625 C 518.632812 646.039062 514.332031 648.207031 509.976562 650.269531 C 505.625 652.332031 501.222656 654.289062 496.769531 656.136719 C 492.320312 657.984375 487.828125 659.722656 483.292969 661.347656 C 478.757812 662.976562 474.183594 664.492188 469.574219 665.894531 C 464.964844 667.296875 460.324219 668.589844 455.648438 669.765625 C 450.976562 670.941406 446.277344 672 441.550781 672.945312 C 436.828125 673.894531 432.082031 674.722656 427.316406 675.4375 C 422.550781 676.148438 417.769531 676.746094 412.976562 677.222656 C 408.179688 677.703125 403.378906 678.0625 398.566406 678.308594 C 393.753906 678.550781 388.9375 678.675781 384.117188 678.683594 C 221.597656 678.683594 89.550781 546.402344 89.550781 384.117188 C 89.554688 379.296875 89.675781 374.480469 89.917969 369.667969 C 90.15625 364.855469 90.515625 360.050781 90.992188 355.253906 C 91.46875 350.457031 92.058594 345.675781 92.769531 340.90625 C 93.480469 336.140625 94.308594 331.394531 95.25 326.667969 C 96.195312 321.941406 97.25 317.238281 98.425781 312.566406 C 99.597656 307.890625 100.886719 303.246094 102.289062 298.636719 C 103.691406 294.023438 105.203125 289.449219 106.828125 284.914062 C 108.453125 280.375 110.191406 275.882812 112.035156 271.429688 C 113.882812 266.976562 115.835938 262.574219 117.898438 258.214844 C 119.960938 253.859375 122.128906 249.558594 124.402344 245.308594 C 126.675781 241.058594 129.050781 236.867188 131.53125 232.730469 C 134.011719 228.597656 136.589844 224.527344 139.265625 220.519531 C 141.945312 216.515625 144.722656 212.574219 147.59375 208.703125 C 150.464844 204.832031 153.429688 201.035156 156.488281 197.308594 C 159.546875 193.585938 162.691406 189.9375 165.929688 186.367188 C 169.167969 182.792969 172.488281 179.304688 175.898438 175.898438 C 179.304688 172.488281 182.792969 169.167969 186.367188 165.929688 C 189.9375 162.691406 193.585938 159.546875 197.308594 156.488281 C 201.035156 153.429688 204.832031 150.464844 208.703125 147.59375 C 212.574219 144.722656 216.515625 141.945312 220.519531 139.265625 C 224.527344 136.589844 228.597656 134.011719 232.730469 131.53125 C 236.867188 129.050781 241.058594 126.675781 245.308594 124.402344 C 249.558594 122.128906 253.859375 119.960938 258.214844 117.898438 C 262.574219 115.835938 266.976562 113.882812 271.429688 112.035156 C 275.882812 110.191406 280.375 108.453125 284.914062 106.828125 C 289.449219 105.203125 294.023438 103.691406 298.636719 102.289062 C 303.246094 100.886719 307.890625 99.597656 312.566406 98.425781 C 317.238281 97.25 321.941406 96.195312 326.667969 95.25 C 331.394531 94.308594 336.140625 93.480469 340.90625 92.769531 C 345.675781 92.058594 350.457031 91.46875 355.253906 90.992188 C 360.050781 90.515625 364.855469 90.15625 369.667969 89.917969 C 374.480469 89.675781 379.296875 89.554688 384.117188 89.550781 C 546.402344 89.550781 678.683594 221.597656 678.683594 384.117188 Z M 678.683594 384.117188 " fill-opacity="1" fill-rule="nonzero"/><path fill="#26477a" d="M 394.039062 160.890625 L 439.628906 81.757812 L 348.449219 81.757812 Z M 394.039062 160.890625 " fill-opacity="1" fill-rule="nonzero"/><path fill="#26477a" d="M 394.039062 609.234375 L 348.449219 688.371094 L 439.628906 688.371094 Z M 394.039062 609.234375 " fill-opacity="1" fill-rule="nonzero"/><path fill="#26477a" d="M 608.292969 388.605469 L 687.425781 434.195312 L 687.425781 342.78125 Z M 608.292969 388.605469 " fill-opacity="1" fill-rule="nonzero"/><path fill="#26477a" d="M 159.707031 388.605469 L 80.574219 342.78125 L 80.574219 434.195312 Z M 159.707031 388.605469 " fill-opacity="1" fill-rule="nonzero"/><path fill="#26477a" d="M 312.070312 312.070312 L 238.371094 529.628906 L 456.164062 456.164062 L 529.628906 238.605469 Z M 384.117188 435.613281 C 382.578125 435.613281 381.042969 435.539062 379.511719 435.386719 C 377.976562 435.238281 376.457031 435.011719 374.949219 434.710938 C 373.4375 434.410156 371.945312 434.035156 370.472656 433.589844 C 369 433.144531 367.550781 432.625 366.128906 432.035156 C 364.707031 431.445312 363.316406 430.789062 361.957031 430.0625 C 360.601562 429.335938 359.28125 428.546875 358 427.691406 C 356.722656 426.835938 355.488281 425.921875 354.296875 424.945312 C 353.105469 423.96875 351.96875 422.933594 350.878906 421.847656 C 349.789062 420.757812 348.757812 419.617188 347.78125 418.429688 C 346.804688 417.238281 345.886719 416.003906 345.03125 414.722656 C 344.175781 413.441406 343.386719 412.125 342.660156 410.765625 C 341.933594 409.40625 341.277344 408.019531 340.6875 406.59375 C 340.097656 405.171875 339.582031 403.726562 339.132812 402.253906 C 338.6875 400.777344 338.3125 399.289062 338.011719 397.777344 C 337.714844 396.265625 337.488281 394.746094 337.335938 393.214844 C 337.1875 391.683594 337.109375 390.144531 337.109375 388.605469 C 337.109375 387.066406 337.1875 385.53125 337.335938 384 C 337.488281 382.464844 337.714844 380.945312 338.011719 379.433594 C 338.3125 377.925781 338.6875 376.433594 339.132812 374.960938 C 339.582031 373.488281 340.097656 372.039062 340.6875 370.617188 C 341.277344 369.195312 341.933594 367.804688 342.660156 366.445312 C 343.386719 365.089844 344.175781 363.769531 345.03125 362.488281 C 345.886719 361.210938 346.804688 359.976562 347.78125 358.785156 C 348.757812 357.59375 349.789062 356.457031 350.878906 355.367188 C 351.96875 354.277344 353.105469 353.246094 354.296875 352.269531 C 355.488281 351.292969 356.722656 350.375 358 349.519531 C 359.28125 348.664062 360.601562 347.875 361.957031 347.148438 C 363.316406 346.421875 364.707031 345.765625 366.128906 345.175781 C 367.550781 344.585938 369 344.070312 370.472656 343.621094 C 371.945312 343.175781 373.4375 342.800781 374.949219 342.5 C 376.457031 342.203125 377.976562 341.976562 379.511719 341.824219 C 381.042969 341.675781 382.578125 341.597656 384.117188 341.597656 C 385.65625 341.597656 387.195312 341.675781 388.726562 341.824219 C 390.257812 341.976562 391.777344 342.203125 393.289062 342.5 C 394.800781 342.800781 396.289062 343.175781 397.765625 343.621094 C 399.238281 344.070312 400.683594 344.585938 402.105469 345.175781 C 403.53125 345.765625 404.917969 346.421875 406.277344 347.148438 C 407.636719 347.875 408.953125 348.664062 410.234375 349.519531 C 411.515625 350.375 412.75 351.292969 413.941406 352.269531 C 415.128906 353.246094 416.269531 354.277344 417.359375 355.367188 C 418.445312 356.457031 419.480469 357.59375 420.457031 358.785156 C 421.433594 359.976562 422.347656 361.210938 423.203125 362.488281 C 424.058594 363.769531 424.851562 365.089844 425.574219 366.445312 C 426.300781 367.804688 426.957031 369.195312 427.546875 370.617188 C 428.136719 372.039062 428.65625 373.488281 429.101562 374.960938 C 429.546875 376.433594 429.921875 377.925781 430.222656 379.433594 C 430.523438 380.945312 430.75 382.464844 430.898438 384 C 431.050781 385.53125 431.125 387.066406 431.125 388.605469 C 431.117188 390.144531 431.035156 391.675781 430.878906 393.207031 C 430.722656 394.734375 430.488281 396.253906 430.183594 397.761719 C 429.878906 399.265625 429.5 400.753906 429.050781 402.226562 C 428.597656 403.695312 428.078125 405.140625 427.484375 406.558594 C 426.894531 407.976562 426.234375 409.363281 425.507812 410.71875 C 424.777344 412.074219 423.988281 413.390625 423.132812 414.667969 C 422.277344 415.945312 421.359375 417.175781 420.382812 418.363281 C 419.40625 419.550781 418.375 420.691406 417.289062 421.777344 C 416.203125 422.863281 415.0625 423.894531 413.875 424.871094 C 412.6875 425.847656 411.457031 426.765625 410.179688 427.621094 C 408.902344 428.476562 407.585938 429.265625 406.230469 429.996094 C 404.875 430.722656 403.488281 431.382812 402.070312 431.972656 C 400.652344 432.566406 399.207031 433.085938 397.738281 433.539062 C 396.269531 433.988281 394.78125 434.367188 393.273438 434.671875 C 391.765625 434.976562 390.246094 435.210938 388.71875 435.367188 C 387.1875 435.523438 385.65625 435.605469 384.117188 435.613281 Z M 384.117188 435.613281 " fill-opacity="1" fill-rule="nonzero"/><path fill="#6b99d2" d="M 384.117188 39 C 378.472656 39.003906 372.828125 39.144531 367.1875 39.425781 C 361.546875 39.707031 355.917969 40.125 350.296875 40.683594 C 344.679688 41.238281 339.074219 41.933594 333.492188 42.765625 C 327.90625 43.597656 322.34375 44.566406 316.804688 45.671875 C 311.265625 46.773438 305.761719 48.015625 300.28125 49.390625 C 294.804688 50.765625 289.363281 52.273438 283.960938 53.914062 C 278.558594 55.554688 273.199219 57.328125 267.882812 59.234375 C 262.566406 61.136719 257.300781 63.171875 252.082031 65.332031 C 246.867188 67.496094 241.707031 69.785156 236.601562 72.203125 C 231.5 74.617188 226.457031 77.15625 221.476562 79.820312 C 216.496094 82.484375 211.585938 85.269531 206.742188 88.171875 C 201.898438 91.074219 197.132812 94.097656 192.4375 97.234375 C 187.742188 100.375 183.125 103.625 178.589844 106.988281 C 174.054688 110.355469 169.605469 113.828125 165.242188 117.410156 C 160.875 120.992188 156.601562 124.679688 152.417969 128.472656 C 148.234375 132.265625 144.144531 136.160156 140.152344 140.152344 C 136.160156 144.144531 132.265625 148.234375 128.472656 152.417969 C 124.679688 156.601562 120.992188 160.875 117.410156 165.242188 C 113.828125 169.605469 110.355469 174.054688 106.988281 178.589844 C 103.625 183.125 100.375 187.742188 97.234375 192.4375 C 94.097656 197.132812 91.074219 201.902344 88.171875 206.742188 C 85.269531 211.585938 82.484375 216.496094 79.820312 221.476562 C 77.15625 226.457031 74.617188 231.5 72.203125 236.601562 C 69.785156 241.707031 67.496094 246.867188 65.332031 252.082031 C 63.171875 257.300781 61.136719 262.566406 59.234375 267.882812 C 57.328125 273.199219 55.554688 278.558594 53.914062 283.960938 C 52.273438 289.367188 50.765625 294.804688 49.390625 300.28125 C 48.015625 305.761719 46.773438 311.265625 45.671875 316.804688 C 44.566406 322.34375 43.597656 327.90625 42.765625 333.492188 C 41.933594 339.074219 41.238281 344.679688 40.683594 350.296875 C 40.125 355.917969 39.707031 361.546875 39.425781 367.1875 C 39.144531 372.828125 39.003906 378.472656 39 384.117188 C 39 574.277344 193.722656 729 384.117188 729 C 389.761719 728.996094 395.402344 728.855469 401.039062 728.574219 C 406.671875 728.292969 412.300781 727.875 417.914062 727.316406 C 423.53125 726.761719 429.128906 726.066406 434.710938 725.238281 C 440.292969 724.40625 445.851562 723.4375 451.382812 722.335938 C 456.917969 721.230469 462.421875 719.992188 467.894531 718.617188 C 473.371094 717.242188 478.804688 715.738281 484.207031 714.097656 C 489.605469 712.457031 494.960938 710.683594 500.273438 708.78125 C 505.585938 706.878906 510.847656 704.84375 516.0625 702.683594 C 521.273438 700.523438 526.429688 698.234375 531.53125 695.820312 C 536.632812 693.40625 541.671875 690.867188 546.648438 688.207031 C 551.625 685.546875 556.53125 682.765625 561.371094 679.863281 C 566.210938 676.960938 570.976562 673.941406 575.667969 670.804688 C 580.359375 667.667969 584.972656 664.417969 589.503906 661.058594 C 594.035156 657.695312 598.484375 654.222656 602.84375 650.644531 C 607.207031 647.0625 611.480469 643.378906 615.660156 639.585938 C 619.839844 635.796875 623.925781 631.90625 627.917969 627.917969 C 631.90625 623.925781 635.796875 619.839844 639.585938 615.660156 C 643.378906 611.480469 647.0625 607.207031 650.644531 602.84375 C 654.222656 598.484375 657.695312 594.035156 661.058594 589.503906 C 664.417969 584.972656 667.667969 580.359375 670.804688 575.667969 C 673.941406 570.976562 676.960938 566.210938 679.863281 561.371094 C 682.765625 556.53125 685.546875 551.625 688.207031 546.648438 C 690.867188 541.671875 693.40625 536.632812 695.820312 531.53125 C 698.234375 526.433594 700.523438 521.273438 702.683594 516.0625 C 704.84375 510.847656 706.878906 505.585938 708.78125 500.273438 C 710.683594 494.960938 712.457031 489.605469 714.097656 484.207031 C 715.738281 478.804688 717.242188 473.371094 718.617188 467.894531 C 719.992188 462.421875 721.230469 456.917969 722.335938 451.386719 C 723.4375 445.851562 724.40625 440.292969 725.238281 434.710938 C 726.066406 429.128906 726.761719 423.53125 727.316406 417.914062 C 727.875 412.300781 728.292969 406.671875 728.574219 401.039062 C 728.855469 395.402344 728.996094 389.761719 729 384.117188 C 729 193.960938 574.277344 39 384.117188 39 Z M 577.347656 606.164062 C 570.726562 611.953125 563.859375 617.429688 556.746094 622.597656 C 549.628906 627.765625 542.300781 632.605469 534.75 637.117188 C 527.203125 641.625 519.46875 645.789062 511.546875 649.605469 C 503.625 653.421875 495.546875 656.871094 487.3125 659.960938 C 479.082031 663.050781 470.726562 665.765625 462.25 668.105469 C 453.773438 670.445312 445.210938 672.398438 436.558594 673.96875 C 427.90625 675.539062 419.203125 676.71875 410.445312 677.503906 C 401.6875 678.292969 392.910156 678.6875 384.117188 678.683594 C 221.597656 678.683594 89.550781 546.402344 89.550781 384.117188 C 89.554688 379.296875 89.675781 374.480469 89.917969 369.667969 C 90.15625 364.855469 90.515625 360.050781 90.992188 355.253906 C 91.46875 350.457031 92.058594 345.675781 92.769531 340.90625 C 93.480469 336.140625 94.308594 331.394531 95.25 326.667969 C 96.195312 321.941406 97.25 317.238281 98.425781 312.566406 C 99.597656 307.890625 100.886719 303.246094 102.289062 298.636719 C 103.691406 294.023438 105.203125 289.449219 106.828125 284.914062 C 108.453125 280.375 110.191406 275.882812 112.035156 271.429688 C 113.882812 266.976562 115.835938 262.574219 117.898438 258.214844 C 119.960938 253.859375 122.128906 249.558594 124.402344 245.308594 C 126.675781 241.058594 129.050781 236.867188 131.53125 232.730469 C 134.011719 228.597656 136.589844 224.527344 139.265625 220.519531 C 141.945312 216.515625 144.722656 212.574219 147.59375 208.703125 C 150.464844 204.832031 153.429688 201.035156 156.488281 197.308594 C 159.546875 193.585938 162.691406 189.9375 165.929688 186.367188 C 169.167969 182.792969 172.488281 179.304688 175.898438 175.898438 C 179.304688 172.488281 182.792969 169.167969 186.367188 165.929688 C 189.9375 162.691406 193.585938 159.546875 197.308594 156.488281 C 201.035156 153.429688 204.832031 150.464844 208.703125 147.59375 C 212.574219 144.722656 216.515625 141.945312 220.519531 139.265625 C 224.527344 136.589844 228.597656 134.011719 232.730469 131.53125 C 236.867188 129.050781 241.058594 126.675781 245.308594 124.402344 C 249.558594 122.128906 253.859375 119.960938 258.214844 117.898438 C 262.574219 115.835938 266.976562 113.882812 271.429688 112.035156 C 275.882812 110.191406 280.375 108.453125 284.914062 106.828125 C 289.449219 105.203125 294.023438 103.691406 298.636719 102.289062 C 303.246094 100.886719 307.890625 99.597656 312.566406 98.425781 C 317.238281 97.25 321.941406 96.195312 326.667969 95.25 C 331.394531 94.308594 336.140625 93.480469 340.90625 92.769531 C 345.675781 92.058594 350.457031 91.46875 355.253906 90.992188 C 360.050781 90.515625 364.855469 90.15625 369.667969 89.917969 C 374.480469 89.675781 379.296875 89.554688 384.117188 89.550781 C 546.402344 89.550781 678.683594 221.597656 678.683594 384.117188 C 678.683594 389.363281 678.542969 394.605469 678.261719 399.839844 C 677.980469 405.078125 677.558594 410.304688 676.996094 415.519531 C 676.433594 420.734375 675.734375 425.929688 674.894531 431.105469 C 674.054688 436.285156 673.078125 441.433594 671.964844 446.558594 C 670.847656 451.683594 669.597656 456.777344 668.210938 461.835938 C 666.824219 466.890625 665.300781 471.910156 663.648438 476.886719 C 661.992188 481.863281 660.203125 486.792969 658.285156 491.671875 C 656.363281 496.554688 654.316406 501.378906 652.140625 506.152344 C 649.960938 510.921875 647.65625 515.632812 645.226562 520.28125 C 642.796875 524.929688 640.246094 529.507812 637.570312 534.019531 C 634.898438 538.53125 632.105469 542.96875 629.191406 547.332031 C 626.28125 551.691406 623.253906 555.972656 620.113281 560.175781 C 616.972656 564.375 613.722656 568.488281 610.359375 572.515625 C 607 576.539062 603.53125 580.472656 599.960938 584.316406 C 596.390625 588.15625 592.71875 591.898438 588.945312 595.542969 C 585.175781 599.1875 581.308594 602.726562 577.347656 606.164062 Z M 577.347656 606.164062 " fill-opacity="1" fill-rule="nonzero"/></svg>