<svg xmlns="http://www.w3.org/2000/svg" xmlns:xlink="http://www.w3.org/1999/xlink" width="1080" zoomAndPan="magnify" viewBox="0 0 810 1439.999935" height="1920" preserveAspectRatio="xMidYMid meet" version="1.0"><defs><clipPath id="f2826e9e75"><path d="M 266.515625 581.515625 L 543.265625 581.515625 L 543.265625 858.265625 L 266.515625 858.265625 Z M 266.515625 581.515625 " clip-rule="nonzero"/></clipPath></defs><path fill="#fffff8" d="M 523.085938 719.9375 C 523.082031 721.871094 523.03125 723.800781 522.933594 725.730469 C 522.835938 727.664062 522.691406 729.589844 522.5 731.511719 C 522.308594 733.433594 522.066406 735.351562 521.78125 737.265625 C 521.496094 739.175781 521.164062 741.078125 520.785156 742.972656 C 520.402344 744.871094 519.980469 746.753906 519.507812 748.628906 C 519.035156 750.503906 518.519531 752.363281 517.957031 754.214844 C 517.390625 756.0625 516.785156 757.894531 516.132812 759.714844 C 515.480469 761.535156 514.78125 763.335938 514.039062 765.121094 C 513.300781 766.90625 512.515625 768.671875 511.6875 770.417969 C 510.859375 772.164062 509.992188 773.890625 509.078125 775.59375 C 508.167969 777.296875 507.214844 778.980469 506.21875 780.636719 C 505.222656 782.292969 504.191406 783.925781 503.117188 785.53125 C 502.042969 787.136719 500.929688 788.71875 499.777344 790.269531 C 498.625 791.820312 497.433594 793.34375 496.207031 794.839844 C 494.984375 796.332031 493.71875 797.796875 492.421875 799.226562 C 491.125 800.660156 489.792969 802.058594 488.425781 803.425781 C 487.058594 804.792969 485.660156 806.125 484.226562 807.421875 C 482.796875 808.71875 481.332031 809.984375 479.839844 811.207031 C 478.34375 812.433594 476.820312 813.625 475.269531 814.777344 C 473.71875 815.929688 472.140625 817.039062 470.53125 818.117188 C 468.925781 819.191406 467.292969 820.222656 465.636719 821.21875 C 463.980469 822.214844 462.296875 823.167969 460.59375 824.078125 C 458.890625 824.992188 457.164062 825.859375 455.417969 826.6875 C 453.671875 827.515625 451.90625 828.300781 450.121094 829.039062 C 448.335938 829.78125 446.535156 830.480469 444.714844 831.132812 C 442.894531 831.785156 441.0625 832.390625 439.214844 832.953125 C 437.363281 833.519531 435.503906 834.035156 433.628906 834.507812 C 431.753906 834.980469 429.871094 835.402344 427.972656 835.785156 C 426.078125 836.164062 424.175781 836.496094 422.265625 836.78125 C 420.351562 837.066406 418.4375 837.308594 416.511719 837.5 C 414.589844 837.691406 412.664062 837.835938 410.730469 837.933594 C 408.800781 838.03125 406.871094 838.082031 404.9375 838.085938 C 339.753906 838.085938 286.789062 785.027344 286.789062 719.9375 C 286.792969 718.003906 286.839844 716.074219 286.9375 714.140625 C 287.035156 712.210938 287.175781 710.285156 287.367188 708.359375 C 287.558594 706.4375 287.796875 704.519531 288.082031 702.605469 C 288.367188 700.695312 288.699219 698.789062 289.078125 696.894531 C 289.457031 695 289.878906 693.113281 290.351562 691.238281 C 290.820312 689.363281 291.335938 687.5 291.898438 685.652344 C 292.460938 683.800781 293.070312 681.96875 293.722656 680.148438 C 294.371094 678.328125 295.070312 676.527344 295.808594 674.738281 C 296.550781 672.953125 297.335938 671.1875 298.160156 669.441406 C 298.988281 667.691406 299.859375 665.96875 300.769531 664.261719 C 301.679688 662.558594 302.632812 660.875 303.628906 659.21875 C 304.621094 657.5625 305.65625 655.929688 306.730469 654.320312 C 307.804688 652.714844 308.917969 651.132812 310.070312 649.582031 C 311.222656 648.03125 312.410156 646.507812 313.636719 645.011719 C 314.863281 643.515625 316.128906 642.054688 317.425781 640.621094 C 318.722656 639.191406 320.054688 637.789062 321.421875 636.421875 C 322.789062 635.054688 324.191406 633.722656 325.621094 632.425781 C 327.054688 631.128906 328.519531 629.863281 330.011719 628.636719 C 331.507812 627.410156 333.03125 626.222656 334.582031 625.070312 C 336.132812 623.917969 337.714844 622.804688 339.320312 621.730469 C 340.929688 620.65625 342.5625 619.621094 344.21875 618.628906 C 345.875 617.632812 347.558594 616.679688 349.261719 615.769531 C 350.96875 614.859375 352.691406 613.988281 354.441406 613.160156 C 356.1875 612.332031 357.953125 611.550781 359.738281 610.808594 C 361.527344 610.070312 363.328125 609.371094 365.148438 608.722656 C 366.96875 608.070312 368.800781 607.460938 370.652344 606.898438 C 372.5 606.335938 374.363281 605.820312 376.238281 605.351562 C 378.113281 604.878906 380 604.453125 381.894531 604.078125 C 383.789062 603.699219 385.695312 603.367188 387.605469 603.082031 C 389.519531 602.796875 391.4375 602.558594 393.359375 602.367188 C 395.285156 602.175781 397.210938 602.035156 399.140625 601.9375 C 401.074219 601.839844 403.003906 601.792969 404.9375 601.789062 C 470.027344 601.789062 523.085938 654.753906 523.085938 719.9375 Z M 523.085938 719.9375 " fill-opacity="1" fill-rule="nonzero"/><path fill="#26477a" d="M 408.917969 630.402344 L 427.203125 598.664062 L 390.632812 598.664062 Z M 408.917969 630.402344 " fill-opacity="1" fill-rule="nonzero"/><path fill="#26477a" d="M 408.917969 810.230469 L 390.632812 841.96875 L 427.203125 841.96875 Z M 408.917969 810.230469 " fill-opacity="1" fill-rule="nonzero"/><path fill="#26477a" d="M 494.851562 721.738281 L 526.589844 740.023438 L 526.589844 703.359375 Z M 494.851562 721.738281 " fill-opacity="1" fill-rule="nonzero"/><path fill="#26477a" d="M 314.929688 721.738281 L 283.191406 703.359375 L 283.191406 740.023438 Z M 314.929688 721.738281 " fill-opacity="1" fill-rule="nonzero"/><path fill="#26477a" d="M 376.039062 691.039062 L 346.480469 778.300781 L 433.835938 748.835938 L 463.300781 661.574219 Z M 404.9375 740.59375 C 404.320312 740.59375 403.703125 740.5625 403.089844 740.5 C 402.476562 740.441406 401.867188 740.351562 401.257812 740.230469 C 400.652344 740.109375 400.054688 739.960938 399.464844 739.78125 C 398.875 739.601562 398.292969 739.394531 397.722656 739.15625 C 397.152344 738.921875 396.59375 738.65625 396.050781 738.367188 C 395.503906 738.074219 394.976562 737.757812 394.464844 737.414062 C 393.949219 737.070312 393.453125 736.703125 392.976562 736.3125 C 392.5 735.921875 392.042969 735.507812 391.605469 735.070312 C 391.167969 734.632812 390.753906 734.175781 390.363281 733.699219 C 389.972656 733.222656 389.605469 732.726562 389.261719 732.210938 C 388.917969 731.699219 388.601562 731.171875 388.308594 730.625 C 388.019531 730.082031 387.753906 729.523438 387.519531 728.953125 C 387.28125 728.382812 387.074219 727.800781 386.894531 727.210938 C 386.714844 726.621094 386.566406 726.023438 386.445312 725.417969 C 386.324219 724.8125 386.234375 724.199219 386.175781 723.585938 C 386.113281 722.972656 386.082031 722.355469 386.082031 721.738281 C 386.082031 721.121094 386.113281 720.503906 386.175781 719.890625 C 386.234375 719.277344 386.324219 718.664062 386.445312 718.058594 C 386.566406 717.453125 386.714844 716.855469 386.894531 716.265625 C 387.074219 715.675781 387.28125 715.09375 387.519531 714.523438 C 387.753906 713.953125 388.019531 713.394531 388.308594 712.851562 C 388.601562 712.304688 388.917969 711.777344 389.261719 711.261719 C 389.605469 710.75 389.972656 710.253906 390.363281 709.777344 C 390.753906 709.300781 391.167969 708.84375 391.605469 708.40625 C 392.042969 707.96875 392.5 707.554688 392.976562 707.164062 C 393.453125 706.773438 393.949219 706.40625 394.464844 706.0625 C 394.976562 705.71875 395.503906 705.402344 396.050781 705.109375 C 396.59375 704.820312 397.152344 704.554688 397.722656 704.320312 C 398.292969 704.082031 398.875 703.875 399.464844 703.695312 C 400.054688 703.515625 400.652344 703.367188 401.257812 703.246094 C 401.867188 703.125 402.476562 703.035156 403.089844 702.972656 C 403.703125 702.914062 404.320312 702.882812 404.9375 702.882812 C 405.554688 702.882812 406.171875 702.914062 406.785156 702.972656 C 407.402344 703.035156 408.011719 703.125 408.617188 703.246094 C 409.222656 703.367188 409.820312 703.515625 410.410156 703.695312 C 411 703.875 411.582031 704.082031 412.152344 704.320312 C 412.722656 704.554688 413.28125 704.820312 413.824219 705.109375 C 414.371094 705.402344 414.898438 705.71875 415.414062 706.0625 C 415.925781 706.40625 416.421875 706.773438 416.898438 707.164062 C 417.375 707.554688 417.832031 707.96875 418.269531 708.40625 C 418.707031 708.84375 419.121094 709.300781 419.511719 709.777344 C 419.902344 710.253906 420.273438 710.75 420.613281 711.261719 C 420.957031 711.777344 421.273438 712.304688 421.566406 712.851562 C 421.855469 713.394531 422.121094 713.953125 422.355469 714.523438 C 422.59375 715.09375 422.800781 715.675781 422.980469 716.265625 C 423.160156 716.855469 423.308594 717.453125 423.429688 718.058594 C 423.550781 718.664062 423.640625 719.277344 423.703125 719.890625 C 423.761719 720.503906 423.792969 721.121094 423.792969 721.738281 C 423.789062 722.355469 423.757812 722.96875 423.691406 723.582031 C 423.628906 724.195312 423.535156 724.804688 423.414062 725.410156 C 423.292969 726.015625 423.140625 726.609375 422.960938 727.199219 C 422.777344 727.789062 422.570312 728.371094 422.332031 728.9375 C 422.09375 729.507812 421.828125 730.0625 421.539062 730.605469 C 421.246094 731.152344 420.929688 731.679688 420.585938 732.191406 C 420.242188 732.703125 419.875 733.199219 419.484375 733.671875 C 419.09375 734.148438 418.679688 734.605469 418.242188 735.042969 C 417.804688 735.476562 417.351562 735.890625 416.875 736.285156 C 416.398438 736.675781 415.902344 737.042969 415.390625 737.386719 C 414.878906 737.730469 414.351562 738.046875 413.808594 738.339844 C 413.265625 738.628906 412.707031 738.894531 412.136719 739.132812 C 411.570312 739.371094 410.988281 739.578125 410.402344 739.757812 C 409.8125 739.941406 409.214844 740.09375 408.609375 740.214844 C 408.003906 740.335938 407.394531 740.429688 406.78125 740.492188 C 406.167969 740.554688 405.554688 740.589844 404.9375 740.59375 Z M 404.9375 740.59375 " fill-opacity="1" fill-rule="nonzero"/><g clip-path="url(#f2826e9e75)"><path fill="#6b99d2" d="M 404.9375 581.515625 C 402.671875 581.515625 400.410156 581.574219 398.148438 581.6875 C 395.886719 581.800781 393.628906 581.96875 391.375 582.191406 C 389.121094 582.414062 386.871094 582.691406 384.632812 583.027344 C 382.390625 583.359375 380.160156 583.746094 377.941406 584.191406 C 375.71875 584.632812 373.507812 585.132812 371.3125 585.683594 C 369.117188 586.234375 366.933594 586.839844 364.765625 587.496094 C 362.597656 588.15625 360.449219 588.867188 358.316406 589.628906 C 356.183594 590.394531 354.074219 591.210938 351.980469 592.078125 C 349.886719 592.945312 347.820312 593.863281 345.773438 594.832031 C 343.722656 595.800781 341.703125 596.820312 339.703125 597.886719 C 337.707031 598.957031 335.738281 600.074219 333.796875 601.238281 C 331.851562 602.402344 329.941406 603.613281 328.058594 604.871094 C 326.175781 606.132812 324.324219 607.4375 322.503906 608.785156 C 320.683594 610.132812 318.898438 611.527344 317.148438 612.964844 C 315.398438 614.402344 313.683594 615.882812 312.007812 617.402344 C 310.328125 618.921875 308.6875 620.484375 307.085938 622.085938 C 305.484375 623.6875 303.921875 625.328125 302.402344 627.003906 C 300.882812 628.683594 299.402344 630.398438 297.964844 632.148438 C 296.527344 633.898438 295.132812 635.683594 293.785156 637.503906 C 292.4375 639.324219 291.132812 641.175781 289.875 643.058594 C 288.613281 644.941406 287.402344 646.851562 286.238281 648.796875 C 285.074219 650.738281 283.957031 652.707031 282.886719 654.703125 C 281.820312 656.703125 280.800781 658.722656 279.832031 660.769531 C 278.863281 662.820312 277.945312 664.886719 277.078125 666.980469 C 276.210938 669.074219 275.394531 671.183594 274.628906 673.316406 C 273.867188 675.449219 273.15625 677.597656 272.496094 679.765625 C 271.839844 681.933594 271.234375 684.117188 270.683594 686.3125 C 270.132812 688.507812 269.632812 690.71875 269.191406 692.941406 C 268.746094 695.160156 268.359375 697.390625 268.027344 699.632812 C 267.691406 701.871094 267.414062 704.117188 267.191406 706.371094 C 266.96875 708.628906 266.800781 710.886719 266.6875 713.148438 C 266.574219 715.410156 266.515625 717.671875 266.515625 719.9375 C 266.515625 796.207031 328.574219 858.265625 404.9375 858.265625 C 407.203125 858.265625 409.464844 858.207031 411.722656 858.09375 C 413.984375 857.980469 416.242188 857.8125 418.492188 857.589844 C 420.746094 857.367188 422.992188 857.089844 425.230469 856.757812 C 427.46875 856.421875 429.699219 856.035156 431.917969 855.59375 C 434.136719 855.148438 436.34375 854.652344 438.539062 854.101562 C 440.734375 853.550781 442.917969 852.945312 445.082031 852.289062 C 447.246094 851.628906 449.394531 850.917969 451.527344 850.15625 C 453.65625 849.390625 455.769531 848.578125 457.859375 847.710938 C 459.949219 846.84375 462.019531 845.925781 464.0625 844.957031 C 466.109375 843.988281 468.128906 842.972656 470.125 841.902344 C 472.121094 840.835938 474.089844 839.722656 476.03125 838.558594 C 477.972656 837.394531 479.882812 836.183594 481.765625 834.925781 C 483.648438 833.667969 485.496094 832.363281 487.316406 831.015625 C 489.132812 829.664062 490.917969 828.273438 492.667969 826.835938 C 494.417969 825.402344 496.128906 823.921875 497.804688 822.402344 C 499.484375 820.882812 501.121094 819.324219 502.722656 817.722656 C 504.324219 816.121094 505.882812 814.484375 507.402344 812.804688 C 508.921875 811.128906 510.402344 809.417969 511.835938 807.667969 C 513.273438 805.917969 514.664062 804.132812 516.015625 802.316406 C 517.363281 800.496094 518.667969 798.648438 519.925781 796.765625 C 521.183594 794.882812 522.394531 792.972656 523.558594 791.03125 C 524.722656 789.089844 525.835938 787.121094 526.902344 785.125 C 527.972656 783.128906 528.988281 781.109375 529.957031 779.0625 C 530.925781 777.019531 531.84375 774.949219 532.710938 772.859375 C 533.578125 770.769531 534.394531 768.65625 535.15625 766.527344 C 535.917969 764.394531 536.628906 762.246094 537.289062 760.082031 C 537.945312 757.914062 538.550781 755.734375 539.101562 753.539062 C 539.652344 751.34375 540.148438 749.136719 540.59375 746.917969 C 541.035156 744.699219 541.421875 742.46875 541.757812 740.230469 C 542.089844 737.992188 542.367188 735.746094 542.589844 733.492188 C 542.8125 731.242188 542.980469 728.984375 543.09375 726.722656 C 543.207031 724.464844 543.265625 722.203125 543.265625 719.9375 C 543.265625 643.667969 481.207031 581.515625 404.9375 581.515625 Z M 482.4375 809 C 479.785156 811.320312 477.027344 813.515625 474.175781 815.589844 C 471.324219 817.660156 468.382812 819.601562 465.355469 821.410156 C 462.328125 823.222656 459.226562 824.890625 456.046875 826.421875 C 452.871094 827.953125 449.628906 829.335938 446.328125 830.574219 C 443.027344 831.816406 439.675781 832.902344 436.277344 833.839844 C 432.875 834.78125 429.441406 835.5625 425.972656 836.191406 C 422.5 836.824219 419.007812 837.296875 415.496094 837.609375 C 411.984375 837.925781 408.464844 838.085938 404.9375 838.085938 C 339.753906 838.085938 286.789062 785.027344 286.789062 719.9375 C 286.792969 718.003906 286.839844 716.074219 286.9375 714.140625 C 287.035156 712.210938 287.175781 710.285156 287.367188 708.359375 C 287.558594 706.4375 287.796875 704.519531 288.082031 702.605469 C 288.367188 700.695312 288.699219 698.789062 289.078125 696.894531 C 289.457031 695 289.878906 693.113281 290.351562 691.238281 C 290.820312 689.363281 291.335938 687.5 291.898438 685.652344 C 292.460938 683.800781 293.070312 681.96875 293.722656 680.148438 C 294.371094 678.328125 295.070312 676.527344 295.808594 674.738281 C 296.550781 672.953125 297.335938 671.1875 298.160156 669.441406 C 298.988281 667.691406 299.859375 665.96875 300.769531 664.261719 C 301.679688 662.558594 302.632812 660.875 303.628906 659.21875 C 304.621094 657.5625 305.65625 655.929688 306.730469 654.320312 C 307.804688 652.714844 308.917969 651.132812 310.070312 649.582031 C 311.222656 648.03125 312.410156 646.507812 313.636719 645.011719 C 314.863281 643.515625 316.128906 642.054688 317.425781 640.621094 C 318.722656 639.191406 320.054688 637.789062 321.421875 636.421875 C 322.789062 635.054688 324.191406 633.722656 325.621094 632.425781 C 327.054688 631.128906 328.519531 629.863281 330.011719 628.636719 C 331.507812 627.410156 333.03125 626.222656 334.582031 625.070312 C 336.132812 623.917969 337.714844 622.804688 339.320312 621.730469 C 340.929688 620.65625 342.5625 619.621094 344.21875 618.628906 C 345.875 617.632812 347.558594 616.679688 349.261719 615.769531 C 350.96875 614.859375 352.691406 613.988281 354.441406 613.160156 C 356.1875 612.332031 357.953125 611.550781 359.738281 610.808594 C 361.527344 610.070312 363.328125 609.371094 365.148438 608.722656 C 366.96875 608.070312 368.800781 607.460938 370.652344 606.898438 C 372.5 606.335938 374.363281 605.820312 376.238281 605.351562 C 378.113281 604.878906 380 604.453125 381.894531 604.078125 C 383.789062 603.699219 385.695312 603.367188 387.605469 603.082031 C 389.519531 602.796875 391.4375 602.558594 393.359375 602.367188 C 395.285156 602.175781 397.210938 602.035156 399.140625 601.9375 C 401.074219 601.839844 403.003906 601.792969 404.9375 601.789062 C 470.027344 601.789062 523.085938 654.753906 523.085938 719.9375 C 523.082031 724.148438 522.859375 728.347656 522.40625 732.53125 C 521.957031 736.71875 521.285156 740.867188 520.390625 744.984375 C 519.496094 749.097656 518.382812 753.152344 517.054688 757.144531 C 515.722656 761.140625 514.1875 765.054688 512.4375 768.882812 C 510.691406 772.714844 508.742188 776.441406 506.59375 780.0625 C 504.449219 783.683594 502.113281 787.179688 499.59375 790.550781 C 497.070312 793.921875 494.375 797.152344 491.507812 800.234375 C 488.644531 803.316406 485.621094 806.238281 482.4375 809 Z M 482.4375 809 " fill-opacity="1" fill-rule="nonzero"/></g></svg>