<svg xmlns="http://www.w3.org/2000/svg" xmlns:xlink="http://www.w3.org/1999/xlink" width="1024" zoomAndPan="magnify" viewBox="0 0 768 767.999994" height="1024" preserveAspectRatio="xMidYMid meet" version="1.0"><path fill="#6b99d2" d="M 384.117188 39 C 378.472656 39.003906 372.832031 39.144531 367.195312 39.425781 C 361.558594 39.707031 355.929688 40.125 350.3125 40.683594 C 344.695312 41.238281 339.09375 41.933594 333.511719 42.761719 C 327.929688 43.59375 322.371094 44.5625 316.835938 45.664062 C 311.296875 46.769531 305.792969 48.007812 300.316406 49.378906 C 294.84375 50.753906 289.40625 52.261719 284.003906 53.902344 C 278.601562 55.539062 273.246094 57.3125 267.929688 59.214844 C 262.617188 61.117188 257.351562 63.148438 252.136719 65.3125 C 246.921875 67.472656 241.765625 69.757812 236.664062 72.171875 C 231.558594 74.585938 226.519531 77.125 221.542969 79.785156 C 216.5625 82.445312 211.65625 85.226562 206.8125 88.128906 C 201.972656 91.03125 197.203125 94.050781 192.511719 97.1875 C 187.816406 100.320312 183.203125 103.570312 178.667969 106.933594 C 174.132812 110.292969 169.683594 113.765625 165.320312 117.34375 C 160.957031 120.925781 156.683594 124.609375 152.5 128.398438 C 148.316406 132.1875 144.226562 136.078125 140.234375 140.066406 C 136.242188 144.058594 132.351562 148.144531 128.558594 152.324219 C 124.765625 156.503906 121.078125 160.777344 117.496094 165.136719 C 113.910156 169.5 110.4375 173.945312 107.074219 178.480469 C 103.707031 183.011719 100.457031 187.621094 97.316406 192.3125 C 94.179688 197.003906 91.15625 201.769531 88.25 206.609375 C 85.347656 211.449219 82.5625 216.359375 79.898438 221.332031 C 77.234375 226.308594 74.691406 231.347656 72.273438 236.449219 C 69.855469 241.550781 67.566406 246.707031 65.402344 251.921875 C 63.238281 257.132812 61.203125 262.394531 59.292969 267.707031 C 57.386719 273.023438 55.613281 278.378906 53.96875 283.777344 C 52.324219 289.179688 50.816406 294.613281 49.4375 300.089844 C 48.058594 305.5625 46.816406 311.066406 45.710938 316.601562 C 44.601562 322.136719 43.632812 327.695312 42.796875 333.277344 C 41.960938 338.859375 41.265625 344.460938 40.703125 350.078125 C 40.144531 355.695312 39.722656 361.320312 39.4375 366.957031 C 39.152344 372.597656 39.007812 378.238281 39 383.882812 C 39 574.277344 193.960938 729 384.117188 729 C 389.765625 728.996094 395.40625 728.855469 401.042969 728.574219 C 406.683594 728.292969 412.3125 727.875 417.929688 727.316406 C 423.546875 726.757812 429.148438 726.066406 434.734375 725.234375 C 440.316406 724.402344 445.878906 723.433594 451.414062 722.328125 C 456.949219 721.222656 462.457031 719.984375 467.933594 718.609375 C 473.40625 717.234375 478.847656 715.726562 484.25 714.082031 C 489.648438 712.441406 495.007812 710.667969 500.324219 708.761719 C 505.636719 706.859375 510.902344 704.824219 516.117188 702.660156 C 521.332031 700.5 526.488281 698.207031 531.59375 695.792969 C 536.695312 693.375 541.734375 690.835938 546.710938 688.171875 C 551.691406 685.507812 556.601562 682.726562 561.441406 679.820312 C 566.28125 676.914062 571.050781 673.894531 575.742188 670.753906 C 580.433594 667.617188 585.046875 664.363281 589.582031 661 C 594.113281 657.636719 598.5625 654.160156 602.925781 650.578125 C 607.289062 646.996094 611.558594 643.304688 615.742188 639.511719 C 619.925781 635.71875 624.011719 631.828125 628 627.832031 C 631.992188 623.839844 635.882812 619.75 639.671875 615.566406 C 643.460938 611.382812 647.148438 607.109375 650.726562 602.742188 C 654.308594 598.378906 657.777344 593.925781 661.140625 589.390625 C 664.503906 584.855469 667.75 580.242188 670.886719 575.546875 C 674.023438 570.851562 677.039062 566.082031 679.941406 561.238281 C 682.84375 556.394531 685.625 551.484375 688.285156 546.503906 C 690.945312 541.523438 693.480469 536.484375 695.894531 531.378906 C 698.304688 526.273438 700.59375 521.113281 702.753906 515.898438 C 704.910156 510.683594 706.941406 505.417969 708.84375 500.101562 C 710.746094 494.785156 712.515625 489.425781 714.152344 484.023438 C 715.789062 478.621094 717.296875 473.179688 718.667969 467.703125 C 720.039062 462.226562 721.273438 456.71875 722.375 451.183594 C 723.476562 445.644531 724.441406 440.082031 725.269531 434.5 C 726.097656 428.914062 726.785156 423.3125 727.339844 417.695312 C 727.894531 412.078125 728.308594 406.449219 728.585938 400.808594 C 728.863281 395.167969 729 389.527344 729 383.882812 C 729 193.722656 574.277344 39 384.117188 39 Z M 577.347656 606.164062 C 572.878906 610.050781 568.300781 613.796875 563.605469 617.40625 C 558.914062 621.011719 554.113281 624.476562 549.214844 627.796875 C 544.3125 631.113281 539.3125 634.285156 534.21875 637.300781 C 529.128906 640.320312 523.949219 643.179688 518.683594 645.886719 C 513.417969 648.59375 508.074219 651.136719 502.65625 653.519531 C 497.234375 655.902344 491.75 658.121094 486.199219 660.175781 C 480.644531 662.226562 475.035156 664.109375 469.367188 665.824219 C 463.703125 667.539062 457.988281 669.082031 452.230469 670.453125 C 446.472656 671.820312 440.675781 673.015625 434.84375 674.039062 C 429.011719 675.058594 423.15625 675.902344 417.273438 676.570312 C 411.390625 677.238281 405.496094 677.726562 399.582031 678.039062 C 393.671875 678.351562 387.753906 678.484375 381.835938 678.441406 C 375.914062 678.394531 370.003906 678.171875 364.097656 677.773438 C 358.191406 677.371094 352.300781 676.792969 346.429688 676.035156 C 340.558594 675.277344 334.714844 674.347656 328.898438 673.238281 C 323.082031 672.128906 317.308594 670.847656 311.570312 669.390625 C 305.832031 667.933594 300.140625 666.304688 294.503906 664.503906 C 288.863281 662.703125 283.28125 660.738281 277.761719 658.601562 C 272.238281 656.464844 266.789062 654.164062 261.40625 651.699219 C 256.023438 649.234375 250.71875 646.609375 245.496094 643.824219 C 240.273438 641.039062 235.136719 638.097656 230.089844 635.003906 C 225.042969 631.910156 220.09375 628.667969 215.242188 625.273438 C 210.390625 621.882812 205.644531 618.34375 201.007812 614.667969 C 196.371094 610.988281 191.847656 607.171875 187.4375 603.222656 C 183.03125 599.269531 178.746094 595.1875 174.582031 590.980469 C 170.421875 586.769531 166.390625 582.4375 162.488281 577.984375 C 158.585938 573.53125 154.824219 568.964844 151.199219 564.285156 C 147.574219 559.605469 144.089844 554.820312 140.753906 549.929688 C 137.417969 545.039062 134.230469 540.054688 131.195312 534.972656 C 128.15625 529.890625 125.277344 524.722656 122.550781 519.464844 C 119.828125 514.210938 117.261719 508.878906 114.859375 503.46875 C 112.457031 498.058594 110.21875 492.578125 108.144531 487.035156 C 106.070312 481.488281 104.167969 475.886719 102.433594 470.226562 C 100.695312 464.566406 99.132812 458.859375 97.742188 453.105469 C 96.351562 447.351562 95.132812 441.5625 94.09375 435.734375 C 93.050781 429.90625 92.183594 424.050781 91.496094 418.171875 C 90.804688 412.292969 90.292969 406.398438 89.960938 400.484375 C 89.628906 394.574219 89.472656 388.660156 89.496094 382.742188 C 89.519531 376.820312 89.71875 370.90625 90.097656 365 C 90.476562 359.089844 91.035156 353.199219 91.769531 347.324219 C 92.503906 341.453125 93.414062 335.605469 94.503906 329.785156 C 95.589844 323.964844 96.851562 318.183594 98.289062 312.441406 C 99.722656 306.699219 101.332031 301.003906 103.109375 295.355469 C 104.890625 289.710938 106.835938 284.121094 108.953125 278.59375 C 111.066406 273.066406 113.347656 267.605469 115.792969 262.214844 C 118.238281 256.820312 120.84375 251.507812 123.609375 246.273438 C 126.375 241.039062 129.296875 235.894531 132.371094 230.835938 C 135.449219 225.777344 138.671875 220.816406 142.046875 215.953125 C 145.421875 211.089844 148.941406 206.332031 152.601562 201.679688 C 156.265625 197.027344 160.0625 192.492188 164 188.066406 C 167.933594 183.644531 172 179.34375 176.195312 175.167969 C 180.390625 170.992188 184.707031 166.941406 189.144531 163.027344 C 193.582031 159.109375 198.136719 155.328125 202.800781 151.683594 C 207.46875 148.042969 212.238281 144.542969 217.117188 141.1875 C 221.996094 137.832031 226.96875 134.628906 232.039062 131.574219 C 237.109375 128.519531 242.269531 125.617188 247.515625 122.875 C 252.761719 120.128906 258.082031 117.546875 263.484375 115.121094 C 268.886719 112.699219 274.355469 110.441406 279.894531 108.347656 C 285.429688 106.253906 291.027344 104.328125 296.679688 102.574219 C 302.332031 100.816406 308.035156 99.234375 313.785156 97.820312 C 319.53125 96.410156 325.320312 95.171875 331.144531 94.105469 C 336.964844 93.042969 342.816406 92.15625 348.695312 91.445312 C 354.570312 90.734375 360.464844 90.203125 366.375 89.847656 C 372.285156 89.492188 378.199219 89.3125 384.117188 89.316406 C 546.402344 89.316406 678.683594 221.597656 678.683594 383.882812 C 678.683594 389.132812 678.542969 394.375 678.261719 399.617188 C 677.980469 404.859375 677.558594 410.089844 677 415.308594 C 676.4375 420.527344 675.738281 425.726562 674.898438 430.910156 C 674.058594 436.09375 673.082031 441.246094 671.96875 446.375 C 670.855469 451.507812 669.601562 456.601562 668.214844 461.664062 C 666.828125 466.726562 665.308594 471.75 663.652344 476.730469 C 661.996094 481.710938 660.210938 486.644531 658.289062 491.53125 C 656.371094 496.417969 654.324219 501.246094 652.144531 506.023438 C 649.96875 510.800781 647.664062 515.515625 645.234375 520.167969 C 642.804688 524.820312 640.253906 529.40625 637.578125 533.921875 C 634.902344 538.4375 632.109375 542.882812 629.199219 547.25 C 626.285156 551.617188 623.257812 555.902344 620.117188 560.109375 C 616.976562 564.3125 613.726562 568.433594 610.363281 572.464844 C 607.003906 576.496094 603.535156 580.433594 599.964844 584.28125 C 596.390625 588.128906 592.71875 591.875 588.949219 595.523438 C 585.175781 599.175781 581.308594 602.722656 577.347656 606.164062 Z M 577.347656 606.164062 " fill-opacity="1" fill-rule="nonzero"/><path fill="#fffff8" d="M 678.683594 383.882812 C 678.6875 390.109375 678.496094 396.328125 678.101562 402.542969 C 677.710938 408.757812 677.125 414.957031 676.339844 421.132812 C 675.554688 427.3125 674.574219 433.457031 673.402344 439.574219 C 672.226562 445.6875 670.859375 451.761719 669.300781 457.789062 C 667.742188 463.816406 665.992188 469.792969 664.054688 475.710938 C 662.117188 481.628906 659.996094 487.476562 657.683594 493.261719 C 655.375 499.042969 652.886719 504.75 650.214844 510.375 C 647.542969 516 644.699219 521.535156 641.675781 526.980469 C 638.65625 532.421875 635.464844 537.765625 632.101562 543.007812 C 628.742188 548.25 625.21875 553.382812 621.53125 558.402344 C 617.847656 563.421875 614.003906 568.316406 610.007812 573.09375 C 606.011719 577.867188 601.867188 582.511719 597.574219 587.023438 C 593.285156 591.539062 588.855469 595.910156 584.285156 600.140625 C 579.71875 604.371094 575.019531 608.453125 570.191406 612.386719 C 565.363281 616.320312 560.417969 620.097656 555.351562 623.71875 C 550.285156 627.339844 545.105469 630.792969 539.820312 634.085938 C 534.535156 637.378906 529.148438 640.5 523.664062 643.449219 C 518.183594 646.398438 512.609375 649.171875 506.949219 651.769531 C 501.289062 654.363281 495.554688 656.78125 489.742188 659.011719 C 483.925781 661.246094 478.050781 663.292969 472.105469 665.152344 C 466.164062 667.011719 460.167969 668.683594 454.117188 670.160156 C 448.070312 671.640625 441.980469 672.929688 435.851562 674.023438 C 429.71875 675.117188 423.5625 676.015625 417.375 676.714844 C 411.1875 677.417969 404.984375 677.925781 398.761719 678.234375 C 392.542969 678.546875 386.320312 678.65625 380.09375 678.574219 C 373.867188 678.488281 367.652344 678.207031 361.441406 677.726562 C 355.234375 677.246094 349.046875 676.570312 342.878906 675.699219 C 336.714844 674.828125 330.582031 673.761719 324.484375 672.5 C 318.386719 671.238281 312.332031 669.789062 306.328125 668.144531 C 300.320312 666.5 294.375 664.664062 288.484375 662.644531 C 282.59375 660.621094 276.773438 658.414062 271.023438 656.023438 C 265.273438 653.632812 259.605469 651.0625 254.019531 648.3125 C 248.433594 645.5625 242.9375 642.636719 237.535156 639.539062 C 232.136719 636.441406 226.835938 633.175781 221.644531 629.738281 C 216.449219 626.304688 211.367188 622.707031 206.402344 618.953125 C 201.4375 615.195312 196.59375 611.285156 191.875 607.21875 C 187.15625 603.15625 182.574219 598.945312 178.121094 594.59375 C 173.671875 590.238281 169.363281 585.746094 165.195312 581.117188 C 161.027344 576.488281 157.011719 571.734375 153.148438 566.851562 C 149.285156 561.96875 145.578125 556.96875 142.03125 551.851562 C 138.480469 546.734375 135.101562 541.507812 131.882812 536.175781 C 128.667969 530.84375 125.625 525.414062 122.75 519.890625 C 119.878906 514.363281 117.183594 508.753906 114.667969 503.058594 C 112.152344 497.363281 109.820312 491.59375 107.667969 485.746094 C 105.519531 479.902344 103.554688 473.996094 101.78125 468.027344 C 100.003906 462.058594 98.421875 456.042969 97.027344 449.972656 C 95.632812 443.902344 94.433594 437.796875 93.425781 431.652344 C 92.417969 425.503906 91.609375 419.335938 90.992188 413.136719 C 90.378906 406.941406 89.957031 400.730469 89.738281 394.507812 C 89.515625 388.285156 89.492188 382.0625 89.664062 375.835938 C 89.839844 369.609375 90.207031 363.398438 90.777344 357.195312 C 91.34375 350.996094 92.105469 344.820312 93.066406 338.664062 C 94.023438 332.511719 95.179688 326.398438 96.523438 320.316406 C 97.871094 314.238281 99.410156 308.207031 101.140625 302.222656 C 102.867188 296.242188 104.785156 290.320312 106.890625 284.460938 C 108.996094 278.597656 111.285156 272.8125 113.757812 267.097656 C 116.230469 261.378906 118.878906 255.75 121.707031 250.203125 C 124.539062 244.65625 127.539062 239.203125 130.714844 233.84375 C 133.890625 228.488281 137.230469 223.238281 140.738281 218.09375 C 144.246094 212.949219 147.914062 207.917969 151.742188 203.007812 C 155.566406 198.09375 159.546875 193.308594 163.675781 188.648438 C 167.808594 183.988281 172.082031 179.460938 176.5 175.074219 C 180.917969 170.683594 185.46875 166.441406 190.15625 162.339844 C 194.84375 158.238281 199.652344 154.292969 204.589844 150.496094 C 210.953125 145.558594 217.511719 140.894531 224.261719 136.5 C 231.011719 132.109375 237.929688 128 245.023438 124.183594 C 252.113281 120.363281 259.347656 116.84375 266.730469 113.621094 C 274.113281 110.402344 281.617188 107.492188 289.238281 104.894531 C 296.863281 102.296875 304.582031 100.019531 312.390625 98.0625 C 320.203125 96.101562 328.085938 94.472656 336.03125 93.167969 C 343.980469 91.863281 351.96875 90.886719 359.996094 90.246094 C 368.023438 89.601562 376.0625 89.292969 384.117188 89.316406 C 546.402344 89.316406 678.683594 221.597656 678.683594 383.882812 Z M 678.683594 383.882812 " fill-opacity="1" fill-rule="nonzero"/><path fill="#26477a" d="M 483.332031 347.738281 L 471.757812 325.0625 L 382.464844 149.078125 L 295.535156 326.242188 L 284.433594 348.921875 C 280.574219 360.253906 278.683594 371.910156 278.765625 383.882812 C 278.777344 385.789062 278.839844 387.699219 278.957031 389.601562 C 279.074219 391.507812 279.242188 393.410156 279.460938 395.304688 C 279.679688 397.203125 279.953125 399.089844 280.273438 400.972656 C 280.597656 402.855469 280.96875 404.726562 281.394531 406.585938 C 281.820312 408.449219 282.292969 410.296875 282.816406 412.132812 C 283.34375 413.964844 283.917969 415.785156 284.539062 417.589844 C 285.164062 419.394531 285.835938 421.179688 286.554688 422.949219 C 287.277344 424.714844 288.042969 426.464844 288.859375 428.1875 C 289.675781 429.914062 290.539062 431.617188 291.445312 433.296875 C 292.355469 434.976562 293.304688 436.628906 294.304688 438.257812 C 295.300781 439.882812 296.34375 441.484375 297.429688 443.054688 C 298.511719 444.625 299.640625 446.164062 300.808594 447.671875 C 301.976562 449.183594 303.1875 450.660156 304.433594 452.101562 C 305.683594 453.546875 306.972656 454.957031 308.296875 456.328125 C 309.621094 457.703125 310.984375 459.039062 312.382812 460.339844 C 313.78125 461.640625 315.210938 462.898438 316.679688 464.121094 C 318.144531 465.34375 319.644531 466.523438 321.175781 467.664062 C 322.707031 468.804688 324.265625 469.902344 325.855469 470.960938 C 327.445312 472.015625 329.066406 473.027344 330.710938 473.996094 C 332.355469 474.960938 334.027344 475.882812 335.722656 476.761719 C 337.417969 477.636719 339.136719 478.46875 340.875 479.253906 C 342.617188 480.035156 344.378906 480.769531 346.160156 481.457031 C 347.941406 482.144531 349.738281 482.785156 351.554688 483.375 C 353.367188 483.964844 355.199219 484.503906 357.042969 484.996094 C 358.886719 485.488281 360.746094 485.925781 362.613281 486.316406 C 364.484375 486.707031 366.359375 487.042969 368.246094 487.332031 C 370.136719 487.621094 372.027344 487.855469 373.929688 488.039062 C 375.828125 488.226562 377.730469 488.359375 379.640625 488.4375 C 381.546875 488.519531 383.453125 488.550781 385.363281 488.527344 C 387.273438 488.503906 389.179688 488.429688 391.082031 488.304688 C 392.988281 488.175781 394.886719 488 396.78125 487.769531 C 398.679688 487.539062 400.566406 487.257812 402.445312 486.925781 C 404.324219 486.59375 406.195312 486.210938 408.054688 485.777344 C 409.914062 485.34375 411.757812 484.859375 413.589844 484.328125 C 415.421875 483.792969 417.242188 483.210938 419.042969 482.578125 C 420.84375 481.945312 422.625 481.261719 424.390625 480.53125 C 426.152344 479.804688 427.894531 479.027344 429.617188 478.203125 C 431.339844 477.375 433.035156 476.507812 434.710938 475.589844 C 436.386719 474.671875 438.035156 473.710938 439.65625 472.703125 C 441.277344 471.699219 442.871094 470.648438 444.4375 469.554688 C 446.003906 468.464844 447.535156 467.328125 449.039062 466.152344 C 450.542969 464.976562 452.011719 463.757812 453.449219 462.503906 C 454.886719 461.246094 456.289062 459.953125 457.65625 458.621094 C 459.023438 457.289062 460.351562 455.917969 461.644531 454.515625 C 462.9375 453.109375 464.191406 451.671875 465.40625 450.199219 C 466.621094 448.722656 467.792969 447.21875 468.925781 445.683594 C 470.058594 444.144531 471.148438 442.578125 472.195312 440.984375 C 473.242188 439.386719 474.246094 437.765625 475.207031 436.113281 C 476.164062 434.464844 477.078125 432.789062 477.945312 431.089844 C 478.816406 429.386719 479.636719 427.664062 480.410156 425.921875 C 481.183594 424.175781 481.910156 422.410156 482.589844 420.628906 C 483.269531 418.84375 483.898438 417.042969 484.480469 415.222656 C 485.058594 413.40625 485.589844 411.574219 486.070312 409.726562 C 486.550781 407.878906 486.984375 406.019531 487.363281 404.148438 C 487.742188 402.277344 488.070312 400.398438 488.347656 398.507812 C 488.625 396.621094 488.851562 394.726562 489.027344 392.824219 C 489.203125 390.921875 489.324219 389.019531 489.398438 387.113281 C 489.46875 385.203125 489.488281 383.296875 489.453125 381.386719 C 489.421875 379.480469 489.339844 377.574219 489.203125 375.667969 C 489.066406 373.765625 488.878906 371.867188 488.640625 369.972656 C 488.398438 368.078125 488.109375 366.191406 487.765625 364.3125 C 487.425781 362.4375 487.03125 360.566406 486.589844 358.710938 C 486.144531 356.855469 485.652344 355.011719 485.109375 353.179688 C 484.566406 351.351562 483.972656 349.539062 483.332031 347.738281 Z M 384.117188 443.171875 C 382.386719 443.171875 380.65625 443.089844 378.933594 442.917969 C 377.207031 442.75 375.496094 442.496094 373.796875 442.15625 C 372.09375 441.820312 370.417969 441.398438 368.757812 440.894531 C 367.101562 440.390625 365.46875 439.808594 363.867188 439.144531 C 362.269531 438.480469 360.703125 437.742188 359.175781 436.925781 C 357.648438 436.109375 356.160156 435.21875 354.722656 434.253906 C 353.28125 433.292969 351.890625 432.261719 350.550781 431.164062 C 349.210938 430.0625 347.929688 428.902344 346.703125 427.675781 C 345.476562 426.449219 344.316406 425.167969 343.214844 423.828125 C 342.117188 422.488281 341.085938 421.097656 340.121094 419.65625 C 339.160156 418.214844 338.269531 416.730469 337.453125 415.203125 C 336.636719 413.675781 335.894531 412.109375 335.230469 410.507812 C 334.570312 408.90625 333.984375 407.277344 333.484375 405.621094 C 332.980469 403.960938 332.558594 402.28125 332.222656 400.582031 C 331.882812 398.882812 331.628906 397.171875 331.460938 395.445312 C 331.289062 393.722656 331.203125 391.992188 331.203125 390.261719 C 331.203125 388.527344 331.289062 386.796875 331.460938 385.074219 C 331.628906 383.347656 331.882812 381.636719 332.222656 379.9375 C 332.558594 378.238281 332.980469 376.558594 333.484375 374.898438 C 333.984375 373.242188 334.570312 371.613281 335.230469 370.011719 C 335.894531 368.410156 336.636719 366.84375 337.453125 365.316406 C 338.269531 363.789062 339.160156 362.304688 340.121094 360.863281 C 341.085938 359.421875 342.117188 358.03125 343.214844 356.691406 C 344.316406 355.351562 345.476562 354.070312 346.703125 352.84375 C 347.929688 351.621094 349.210938 350.457031 350.550781 349.355469 C 351.890625 348.257812 353.28125 347.226562 354.722656 346.265625 C 356.160156 345.300781 357.648438 344.410156 359.175781 343.59375 C 360.703125 342.777344 362.269531 342.039062 363.867188 341.375 C 365.46875 340.710938 367.101562 340.128906 368.757812 339.625 C 370.417969 339.121094 372.09375 338.703125 373.796875 338.363281 C 375.496094 338.023438 377.207031 337.769531 378.933594 337.601562 C 380.65625 337.429688 382.386719 337.347656 384.117188 337.347656 C 385.851562 337.347656 387.578125 337.429688 389.304688 337.601562 C 391.027344 337.769531 392.742188 338.023438 394.441406 338.363281 C 396.140625 338.703125 397.820312 339.121094 399.476562 339.625 C 401.136719 340.128906 402.765625 340.710938 404.367188 341.375 C 405.96875 342.039062 407.53125 342.777344 409.0625 343.59375 C 410.589844 344.410156 412.074219 345.300781 413.515625 346.265625 C 414.957031 347.226562 416.347656 348.257812 417.6875 349.355469 C 419.027344 350.457031 420.308594 351.617188 421.535156 352.84375 C 422.757812 354.070312 423.921875 355.351562 425.019531 356.691406 C 426.121094 358.03125 427.152344 359.421875 428.113281 360.863281 C 429.078125 362.304688 429.964844 363.789062 430.785156 365.316406 C 431.601562 366.84375 432.339844 368.410156 433.003906 370.011719 C 433.667969 371.613281 434.25 373.242188 434.753906 374.898438 C 435.257812 376.558594 435.675781 378.238281 436.015625 379.9375 C 436.351562 381.636719 436.605469 383.347656 436.777344 385.074219 C 436.945312 386.796875 437.03125 388.527344 437.03125 390.261719 C 437.03125 391.992188 436.945312 393.722656 436.777344 395.445312 C 436.605469 397.171875 436.351562 398.882812 436.015625 400.582031 C 435.675781 402.28125 435.257812 403.960938 434.753906 405.621094 C 434.25 407.277344 433.667969 408.90625 433.003906 410.507812 C 432.339844 412.109375 431.601562 413.675781 430.785156 415.203125 C 429.964844 416.730469 429.078125 418.214844 428.113281 419.65625 C 427.152344 421.097656 426.121094 422.488281 425.019531 423.828125 C 423.921875 425.167969 422.757812 426.449219 421.535156 427.675781 C 420.308594 428.902344 419.027344 430.0625 417.6875 431.164062 C 416.347656 432.261719 414.957031 433.292969 413.515625 434.253906 C 412.074219 435.21875 410.589844 436.109375 409.0625 436.925781 C 407.53125 437.742188 405.96875 438.480469 404.367188 439.144531 C 402.765625 439.808594 401.136719 440.390625 399.476562 440.894531 C 397.820312 441.398438 396.140625 441.820312 394.441406 442.15625 C 392.742188 442.496094 391.027344 442.75 389.304688 442.917969 C 387.578125 443.089844 385.851562 443.171875 384.117188 443.171875 Z M 384.117188 443.171875 " fill-opacity="1" fill-rule="nonzero"/></svg>