<svg xmlns="http://www.w3.org/2000/svg" xmlns:xlink="http://www.w3.org/1999/xlink" width="1080" zoomAndPan="magnify" viewBox="0 0 810 1439.999935" height="1920" preserveAspectRatio="xMidYMid meet" version="1.0"><defs><clipPath id="5125d8277f"><path d="M 266.515625 581.515625 L 543.265625 581.515625 L 543.265625 858.265625 L 266.515625 858.265625 Z M 266.515625 581.515625 " clip-rule="nonzero"/></clipPath></defs><g clip-path="url(#5125d8277f)"><path fill="#6b99d2" d="M 404.9375 581.515625 C 402.675781 581.515625 400.410156 581.574219 398.148438 581.6875 C 395.890625 581.800781 393.632812 581.96875 391.378906 582.191406 C 389.125 582.414062 386.878906 582.691406 384.640625 583.023438 C 382.402344 583.359375 380.171875 583.746094 377.953125 584.1875 C 375.730469 584.632812 373.523438 585.128906 371.328125 585.679688 C 369.132812 586.230469 366.949219 586.835938 364.785156 587.492188 C 362.617188 588.148438 360.46875 588.859375 358.335938 589.625 C 356.207031 590.386719 354.09375 591.203125 352.003906 592.070312 C 349.910156 592.933594 347.84375 593.851562 345.796875 594.820312 C 343.75 595.789062 341.726562 596.808594 339.730469 597.875 C 337.734375 598.941406 335.765625 600.058594 333.824219 601.222656 C 331.882812 602.382812 329.96875 603.59375 328.085938 604.851562 C 326.203125 606.109375 324.351562 607.414062 322.535156 608.761719 C 320.714844 610.109375 318.929688 611.503906 317.179688 612.9375 C 315.429688 614.375 313.714844 615.851562 312.039062 617.371094 C 310.359375 618.890625 308.722656 620.453125 307.121094 622.050781 C 305.519531 623.652344 303.957031 625.292969 302.4375 626.96875 C 300.914062 628.644531 299.4375 630.359375 298 632.109375 C 296.5625 633.855469 295.167969 635.640625 293.820312 637.457031 C 292.46875 639.277344 291.164062 641.125 289.90625 643.007812 C 288.648438 644.890625 287.433594 646.800781 286.269531 648.742188 C 285.105469 650.683594 283.988281 652.652344 282.917969 654.648438 C 281.851562 656.644531 280.832031 658.664062 279.863281 660.710938 C 278.890625 662.753906 277.972656 664.824219 277.105469 666.914062 C 276.238281 669.003906 275.421875 671.117188 274.65625 673.246094 C 273.890625 675.378906 273.179688 677.527344 272.519531 679.691406 C 271.859375 681.859375 271.253906 684.039062 270.703125 686.234375 C 270.148438 688.429688 269.652344 690.636719 269.207031 692.859375 C 268.761719 695.078125 268.375 697.308594 268.039062 699.546875 C 267.703125 701.785156 267.425781 704.03125 267.199219 706.285156 C 266.976562 708.539062 266.804688 710.792969 266.691406 713.054688 C 266.578125 715.316406 266.519531 717.578125 266.515625 719.84375 C 266.515625 796.207031 328.667969 858.265625 404.9375 858.265625 C 407.203125 858.265625 409.464844 858.207031 411.726562 858.09375 C 413.988281 857.980469 416.246094 857.8125 418.5 857.589844 C 420.753906 857.367188 423 857.089844 425.238281 856.753906 C 427.480469 856.421875 429.707031 856.03125 431.929688 855.589844 C 434.148438 855.144531 436.359375 854.648438 438.554688 854.097656 C 440.75 853.546875 442.933594 852.941406 445.097656 852.28125 C 447.265625 851.625 449.414062 850.914062 451.546875 850.148438 C 453.675781 849.386719 455.789062 848.570312 457.878906 847.703125 C 459.972656 846.832031 462.042969 845.914062 464.089844 844.945312 C 466.132812 843.976562 468.15625 842.957031 470.152344 841.890625 C 472.148438 840.820312 474.117188 839.703125 476.058594 838.539062 C 478 837.375 479.914062 836.164062 481.796875 834.902344 C 483.679688 833.644531 485.527344 832.339844 487.347656 830.992188 C 489.164062 829.640625 490.949219 828.25 492.699219 826.8125 C 494.449219 825.375 496.160156 823.894531 497.839844 822.375 C 499.515625 820.851562 501.15625 819.289062 502.757812 817.6875 C 504.355469 816.085938 505.917969 814.449219 507.4375 812.769531 C 508.957031 811.089844 510.433594 809.375 511.871094 807.625 C 513.308594 805.875 514.699219 804.089844 516.046875 802.269531 C 517.394531 800.449219 518.699219 798.601562 519.957031 796.71875 C 521.214844 794.832031 522.425781 792.921875 523.589844 790.980469 C 524.753906 789.035156 525.867188 787.066406 526.933594 785.070312 C 528 783.070312 529.019531 781.050781 529.988281 779.003906 C 530.953125 776.953125 531.871094 774.886719 532.738281 772.792969 C 533.605469 770.699219 534.417969 768.589844 535.179688 766.457031 C 535.945312 764.324219 536.652344 762.175781 537.308594 760.007812 C 537.96875 757.839844 538.570312 755.660156 539.121094 753.460938 C 539.671875 751.265625 540.167969 749.058594 540.609375 746.835938 C 541.050781 744.617188 541.4375 742.386719 541.769531 740.144531 C 542.101562 737.90625 542.378906 735.660156 542.597656 733.40625 C 542.820312 731.152344 542.988281 728.894531 543.097656 726.632812 C 543.210938 724.371094 543.265625 722.109375 543.265625 719.84375 C 543.265625 643.574219 481.207031 581.515625 404.9375 581.515625 Z M 482.4375 809 C 480.648438 810.554688 478.808594 812.058594 476.929688 813.507812 C 475.046875 814.953125 473.121094 816.34375 471.15625 817.675781 C 469.1875 819.003906 467.183594 820.277344 465.140625 821.488281 C 463.097656 822.695312 461.023438 823.84375 458.910156 824.929688 C 456.796875 826.015625 454.65625 827.035156 452.480469 827.992188 C 450.308594 828.949219 448.109375 829.835938 445.878906 830.660156 C 443.652344 831.484375 441.402344 832.238281 439.132812 832.925781 C 436.859375 833.613281 434.566406 834.234375 432.257812 834.78125 C 429.945312 835.332031 427.621094 835.8125 425.285156 836.222656 C 422.945312 836.628906 420.59375 836.96875 418.238281 837.238281 C 415.878906 837.503906 413.511719 837.699219 411.140625 837.824219 C 408.769531 837.949219 406.398438 838.003906 404.023438 837.988281 C 401.648438 837.96875 399.277344 837.878906 396.90625 837.71875 C 394.539062 837.558594 392.175781 837.324219 389.820312 837.023438 C 387.464844 836.71875 385.121094 836.34375 382.789062 835.898438 C 380.457031 835.457031 378.140625 834.941406 375.839844 834.355469 C 373.539062 833.773438 371.257812 833.121094 368.996094 832.398438 C 366.730469 831.675781 364.492188 830.886719 362.28125 830.027344 C 360.066406 829.171875 357.878906 828.25 355.71875 827.261719 C 353.5625 826.273438 351.433594 825.21875 349.339844 824.101562 C 347.242188 822.984375 345.183594 821.804688 343.160156 820.566406 C 341.136719 819.324219 339.148438 818.023438 337.203125 816.664062 C 335.257812 815.300781 333.355469 813.882812 331.496094 812.40625 C 329.632812 810.933594 327.820312 809.402344 326.050781 807.816406 C 324.285156 806.230469 322.566406 804.59375 320.894531 802.90625 C 319.226562 801.21875 317.609375 799.480469 316.046875 797.695312 C 314.480469 795.910156 312.972656 794.078125 311.515625 792.199219 C 310.0625 790.324219 308.667969 788.40625 307.328125 786.441406 C 305.988281 784.480469 304.710938 782.480469 303.492188 780.445312 C 302.277344 778.40625 301.121094 776.332031 300.027344 774.222656 C 298.933594 772.117188 297.90625 769.976562 296.941406 767.808594 C 295.976562 765.636719 295.078125 763.441406 294.25 761.214844 C 293.417969 758.992188 292.652344 756.746094 291.957031 754.476562 C 291.261719 752.203125 290.632812 749.914062 290.078125 747.609375 C 289.519531 745.300781 289.03125 742.976562 288.613281 740.640625 C 288.195312 738.300781 287.847656 735.953125 287.570312 733.597656 C 287.292969 731.238281 287.089844 728.875 286.957031 726.503906 C 286.820312 724.132812 286.757812 721.757812 286.769531 719.386719 C 286.777344 717.011719 286.859375 714.640625 287.011719 712.269531 C 287.164062 709.898438 287.386719 707.535156 287.679688 705.179688 C 287.976562 702.824219 288.339844 700.480469 288.777344 698.144531 C 289.214844 695.8125 289.71875 693.492188 290.292969 691.1875 C 290.871094 688.886719 291.515625 686.601562 292.230469 684.335938 C 292.941406 682.070312 293.722656 679.832031 294.574219 677.613281 C 295.421875 675.394531 296.335938 673.207031 297.316406 671.042969 C 298.296875 668.882812 299.34375 666.75 300.453125 664.652344 C 301.5625 662.550781 302.730469 660.488281 303.964844 658.457031 C 305.199219 656.429688 306.492188 654.441406 307.847656 652.488281 C 309.199219 650.539062 310.613281 648.628906 312.082031 646.765625 C 313.550781 644.898438 315.074219 643.078125 316.652344 641.304688 C 318.230469 639.53125 319.859375 637.804688 321.542969 636.128906 C 323.226562 634.453125 324.957031 632.832031 326.738281 631.261719 C 328.515625 629.6875 330.34375 628.171875 332.214844 626.710938 C 334.085938 625.25 336 623.847656 337.957031 622.503906 C 339.914062 621.15625 341.90625 619.871094 343.941406 618.644531 C 345.976562 617.421875 348.042969 616.257812 350.148438 615.15625 C 352.25 614.054688 354.386719 613.019531 356.554688 612.046875 C 358.71875 611.074219 360.914062 610.167969 363.132812 609.328125 C 365.355469 608.492188 367.601562 607.71875 369.867188 607.015625 C 372.136719 606.308594 374.421875 605.675781 376.726562 605.109375 C 379.035156 604.542969 381.355469 604.042969 383.691406 603.617188 C 386.027344 603.191406 388.371094 602.835938 390.730469 602.550781 C 393.085938 602.265625 395.449219 602.050781 397.820312 601.910156 C 400.191406 601.765625 402.5625 601.695312 404.9375 601.695312 C 470.027344 601.695312 523.085938 654.753906 523.085938 719.84375 C 523.085938 724.058594 522.859375 728.257812 522.410156 732.449219 C 521.957031 736.636719 521.285156 740.792969 520.390625 744.910156 C 519.496094 749.027344 518.382812 753.085938 517.054688 757.082031 C 515.726562 761.082031 514.1875 765 512.441406 768.832031 C 510.691406 772.667969 508.746094 776.398438 506.597656 780.023438 C 504.449219 783.648438 502.117188 787.148438 499.59375 790.523438 C 497.074219 793.902344 494.378906 797.132812 491.511719 800.21875 C 488.644531 803.308594 485.621094 806.234375 482.4375 809 Z M 482.4375 809 " fill-opacity="1" fill-rule="nonzero"/></g><path fill="#fffff8" d="M 523.085938 719.84375 C 523.085938 722.339844 523.007812 724.835938 522.851562 727.328125 C 522.695312 729.820312 522.457031 732.304688 522.144531 734.785156 C 521.828125 737.261719 521.4375 739.726562 520.964844 742.179688 C 520.496094 744.632812 519.945312 747.066406 519.320312 749.488281 C 518.695312 751.90625 517.996094 754.300781 517.21875 756.675781 C 516.441406 759.046875 515.589844 761.394531 514.664062 763.714844 C 513.734375 766.03125 512.738281 768.320312 511.667969 770.578125 C 510.59375 772.832031 509.453125 775.054688 508.242188 777.238281 C 507.027344 779.421875 505.75 781.566406 504.402344 783.667969 C 503.054688 785.769531 501.640625 787.828125 500.160156 789.839844 C 498.683594 791.855469 497.140625 793.816406 495.539062 795.734375 C 493.9375 797.648438 492.273438 799.511719 490.554688 801.320312 C 488.832031 803.132812 487.054688 804.882812 485.222656 806.582031 C 483.390625 808.277344 481.507812 809.917969 479.570312 811.492188 C 477.632812 813.070312 475.648438 814.585938 473.617188 816.039062 C 471.585938 817.492188 469.507812 818.875 467.386719 820.195312 C 465.269531 821.515625 463.109375 822.769531 460.910156 823.953125 C 458.710938 825.136719 456.472656 826.246094 454.203125 827.289062 C 451.933594 828.332031 449.632812 829.296875 447.300781 830.195312 C 444.96875 831.089844 442.613281 831.910156 440.230469 832.65625 C 437.84375 833.402344 435.441406 834.074219 433.015625 834.667969 C 430.589844 835.257812 428.144531 835.777344 425.6875 836.214844 C 423.226562 836.652344 420.757812 837.011719 418.277344 837.296875 C 415.792969 837.578125 413.304688 837.78125 410.8125 837.90625 C 408.316406 838.027344 405.820312 838.074219 403.324219 838.039062 C 400.828125 838.003906 398.332031 837.890625 395.84375 837.699219 C 393.351562 837.507812 390.871094 837.238281 388.398438 836.886719 C 385.925781 836.539062 383.464844 836.109375 381.019531 835.605469 C 378.574219 835.097656 376.144531 834.515625 373.738281 833.855469 C 371.328125 833.195312 368.941406 832.460938 366.582031 831.652344 C 364.21875 830.839844 361.882812 829.953125 359.578125 828.996094 C 357.269531 828.035156 354.996094 827.007812 352.757812 825.902344 C 350.515625 824.800781 348.3125 823.625 346.144531 822.382812 C 343.980469 821.140625 341.855469 819.832031 339.769531 818.453125 C 337.6875 817.074219 335.652344 815.632812 333.660156 814.125 C 331.667969 812.621094 329.722656 811.050781 327.832031 809.421875 C 325.941406 807.792969 324.101562 806.101562 322.316406 804.355469 C 320.53125 802.609375 318.800781 800.808594 317.132812 798.953125 C 315.460938 797.097656 313.847656 795.1875 312.300781 793.230469 C 310.75 791.273438 309.261719 789.265625 307.839844 787.214844 C 306.417969 785.160156 305.058594 783.066406 303.769531 780.925781 C 302.480469 778.789062 301.257812 776.609375 300.105469 774.394531 C 298.957031 772.179688 297.875 769.929688 296.867188 767.644531 C 295.855469 765.359375 294.921875 763.042969 294.058594 760.699219 C 293.195312 758.355469 292.410156 755.988281 291.695312 753.59375 C 290.984375 751.199219 290.347656 748.785156 289.789062 746.351562 C 289.230469 743.917969 288.75 741.46875 288.34375 739.003906 C 287.941406 736.539062 287.617188 734.0625 287.367188 731.578125 C 287.121094 729.089844 286.953125 726.601562 286.867188 724.105469 C 286.777344 721.609375 286.765625 719.113281 286.835938 716.617188 C 286.90625 714.121094 287.054688 711.628906 287.28125 709.140625 C 287.511719 706.652344 287.816406 704.175781 288.199219 701.707031 C 288.585938 699.238281 289.046875 696.785156 289.589844 694.347656 C 290.128906 691.910156 290.746094 689.492188 291.4375 687.089844 C 292.132812 684.691406 292.902344 682.316406 293.746094 679.964844 C 294.589844 677.617188 295.507812 675.292969 296.5 673 C 297.492188 670.710938 298.554688 668.449219 299.6875 666.226562 C 300.824219 664 302.027344 661.8125 303.300781 659.664062 C 304.574219 657.515625 305.914062 655.410156 307.320312 653.347656 C 308.730469 651.285156 310.199219 649.265625 311.734375 647.296875 C 313.269531 645.324219 314.867188 643.40625 316.523438 641.535156 C 318.179688 639.667969 319.894531 637.851562 321.664062 636.09375 C 323.4375 634.332031 325.261719 632.628906 327.140625 630.984375 C 329.023438 629.339844 330.953125 627.757812 332.933594 626.234375 C 338.046875 622.269531 343.449219 618.75 349.148438 615.679688 C 354.847656 612.613281 360.757812 610.03125 366.882812 607.945312 C 373.007812 605.859375 379.265625 604.289062 385.652344 603.242188 C 392.039062 602.191406 398.464844 601.675781 404.9375 601.695312 C 470.027344 601.695312 523.085938 654.753906 523.085938 719.84375 Z M 523.085938 719.84375 " fill-opacity="1" fill-rule="nonzero"/><path fill="#26477a" d="M 444.730469 705.347656 L 440.089844 696.25 L 404.273438 625.667969 L 369.410156 696.726562 L 364.957031 705.820312 C 363.40625 710.367188 362.648438 715.039062 362.683594 719.84375 C 362.6875 720.609375 362.710938 721.375 362.757812 722.136719 C 362.804688 722.902344 362.875 723.664062 362.960938 724.425781 C 363.050781 725.183594 363.160156 725.941406 363.289062 726.699219 C 363.417969 727.453125 363.566406 728.203125 363.738281 728.949219 C 363.90625 729.695312 364.097656 730.4375 364.308594 731.171875 C 364.519531 731.910156 364.75 732.640625 365 733.363281 C 365.25 734.085938 365.519531 734.804688 365.808594 735.511719 C 366.097656 736.222656 366.402344 736.921875 366.730469 737.613281 C 367.058594 738.304688 367.402344 738.988281 367.769531 739.664062 C 368.132812 740.335938 368.515625 741 368.914062 741.652344 C 369.316406 742.304688 369.734375 742.945312 370.167969 743.574219 C 370.601562 744.207031 371.054688 744.824219 371.523438 745.429688 C 371.992188 746.035156 372.476562 746.625 372.976562 747.207031 C 373.480469 747.785156 373.996094 748.351562 374.527344 748.902344 C 375.058594 749.453125 375.605469 749.988281 376.164062 750.507812 C 376.726562 751.03125 377.300781 751.535156 377.890625 752.027344 C 378.476562 752.515625 379.078125 752.992188 379.691406 753.449219 C 380.304688 753.90625 380.933594 754.34375 381.570312 754.769531 C 382.207031 755.191406 382.855469 755.597656 383.515625 755.984375 C 384.175781 756.375 384.847656 756.746094 385.527344 757.097656 C 386.207031 757.449219 386.894531 757.78125 387.59375 758.09375 C 388.292969 758.410156 389 758.703125 389.714844 758.980469 C 390.425781 759.253906 391.148438 759.511719 391.875 759.75 C 392.605469 759.984375 393.339844 760.203125 394.078125 760.398438 C 394.820312 760.59375 395.5625 760.773438 396.3125 760.929688 C 397.0625 761.085938 397.816406 761.21875 398.574219 761.335938 C 399.328125 761.449219 400.089844 761.546875 400.851562 761.621094 C 401.613281 761.695312 402.375 761.746094 403.140625 761.78125 C 403.90625 761.8125 404.671875 761.824219 405.4375 761.816406 C 406.203125 761.804688 406.96875 761.777344 407.730469 761.726562 C 408.496094 761.675781 409.257812 761.601562 410.019531 761.511719 C 410.777344 761.417969 411.535156 761.304688 412.289062 761.171875 C 413.042969 761.039062 413.792969 760.886719 414.539062 760.710938 C 415.285156 760.539062 416.023438 760.34375 416.757812 760.128906 C 417.496094 759.914062 418.222656 759.683594 418.945312 759.429688 C 419.667969 759.175781 420.382812 758.902344 421.089844 758.609375 C 421.796875 758.316406 422.496094 758.003906 423.1875 757.671875 C 423.878906 757.34375 424.558594 756.992188 425.230469 756.625 C 425.902344 756.257812 426.5625 755.871094 427.214844 755.46875 C 427.863281 755.066406 428.503906 754.644531 429.132812 754.207031 C 429.757812 753.765625 430.375 753.3125 430.976562 752.839844 C 431.582031 752.367188 432.167969 751.878906 432.746094 751.375 C 433.324219 750.875 433.886719 750.355469 434.433594 749.820312 C 434.980469 749.285156 435.515625 748.734375 436.035156 748.171875 C 436.550781 747.609375 437.054688 747.03125 437.542969 746.441406 C 438.027344 745.851562 438.5 745.246094 438.953125 744.628906 C 439.40625 744.015625 439.84375 743.386719 440.265625 742.746094 C 440.683594 742.105469 441.085938 741.453125 441.472656 740.792969 C 441.855469 740.132812 442.222656 739.457031 442.570312 738.777344 C 442.917969 738.09375 443.25 737.402344 443.558594 736.703125 C 443.871094 736.003906 444.160156 735.296875 444.433594 734.582031 C 444.707031 733.867188 444.957031 733.144531 445.191406 732.414062 C 445.425781 731.683594 445.636719 730.949219 445.828125 730.207031 C 446.023438 729.46875 446.195312 728.722656 446.347656 727.972656 C 446.5 727.222656 446.632812 726.46875 446.742188 725.710938 C 446.855469 724.953125 446.945312 724.191406 447.015625 723.429688 C 447.085938 722.667969 447.136719 721.902344 447.164062 721.136719 C 447.191406 720.375 447.199219 719.609375 447.1875 718.84375 C 447.175781 718.078125 447.140625 717.3125 447.085938 716.546875 C 447.03125 715.785156 446.957031 715.023438 446.859375 714.265625 C 446.765625 713.503906 446.648438 712.746094 446.511719 711.996094 C 446.375 711.242188 446.214844 710.492188 446.039062 709.746094 C 445.859375 709.003906 445.664062 708.261719 445.445312 707.53125 C 445.226562 706.796875 444.988281 706.066406 444.730469 705.347656 Z M 404.9375 743.625 C 404.242188 743.625 403.550781 743.589844 402.859375 743.523438 C 402.164062 743.453125 401.480469 743.351562 400.796875 743.214844 C 400.117188 743.082031 399.441406 742.910156 398.777344 742.710938 C 398.113281 742.507812 397.457031 742.273438 396.816406 742.007812 C 396.175781 741.742188 395.546875 741.445312 394.933594 741.117188 C 394.320312 740.789062 393.726562 740.433594 393.148438 740.046875 C 392.570312 739.660156 392.011719 739.246094 391.472656 738.808594 C 390.9375 738.367188 390.421875 737.898438 389.929688 737.40625 C 389.441406 736.917969 388.972656 736.402344 388.53125 735.863281 C 388.089844 735.328125 387.679688 734.769531 387.292969 734.191406 C 386.90625 733.613281 386.546875 733.019531 386.222656 732.40625 C 385.894531 731.792969 385.597656 731.164062 385.332031 730.523438 C 385.066406 729.878906 384.832031 729.226562 384.628906 728.5625 C 384.425781 727.898438 384.257812 727.222656 384.121094 726.542969 C 383.988281 725.859375 383.886719 725.171875 383.816406 724.480469 C 383.75 723.789062 383.714844 723.097656 383.714844 722.402344 C 383.714844 721.707031 383.75 721.011719 383.816406 720.320312 C 383.886719 719.628906 383.988281 718.941406 384.121094 718.261719 C 384.257812 717.578125 384.425781 716.90625 384.628906 716.242188 C 384.832031 715.574219 385.066406 714.921875 385.332031 714.28125 C 385.597656 713.636719 385.894531 713.011719 386.222656 712.398438 C 386.546875 711.785156 386.90625 711.1875 387.292969 710.609375 C 387.679688 710.03125 388.089844 709.476562 388.53125 708.9375 C 388.972656 708.398438 389.441406 707.886719 389.929688 707.394531 C 390.421875 706.902344 390.9375 706.4375 391.472656 705.996094 C 392.011719 705.554688 392.570312 705.140625 393.148438 704.753906 C 393.726562 704.367188 394.320312 704.011719 394.933594 703.683594 C 395.546875 703.355469 396.175781 703.058594 396.816406 702.792969 C 397.457031 702.527344 398.113281 702.292969 398.777344 702.09375 C 399.441406 701.890625 400.117188 701.722656 400.796875 701.585938 C 401.480469 701.449219 402.164062 701.347656 402.859375 701.28125 C 403.550781 701.210938 404.242188 701.179688 404.9375 701.179688 C 405.632812 701.179688 406.328125 701.210938 407.019531 701.28125 C 407.710938 701.347656 408.398438 701.449219 409.078125 701.585938 C 409.761719 701.722656 410.433594 701.890625 411.097656 702.09375 C 411.765625 702.292969 412.417969 702.527344 413.058594 702.792969 C 413.703125 703.058594 414.328125 703.355469 414.941406 703.683594 C 415.554688 704.011719 416.152344 704.367188 416.730469 704.753906 C 417.304688 705.140625 417.863281 705.554688 418.402344 705.996094 C 418.9375 706.4375 419.453125 706.902344 419.945312 707.394531 C 420.4375 707.886719 420.902344 708.398438 421.34375 708.9375 C 421.785156 709.476562 422.199219 710.03125 422.585938 710.609375 C 422.96875 711.1875 423.328125 711.785156 423.65625 712.398438 C 423.984375 713.011719 424.277344 713.636719 424.546875 714.28125 C 424.8125 714.921875 425.046875 715.574219 425.246094 716.242188 C 425.449219 716.90625 425.617188 717.578125 425.753906 718.261719 C 425.886719 718.941406 425.992188 719.628906 426.058594 720.320312 C 426.125 721.011719 426.160156 721.707031 426.160156 722.402344 C 426.160156 723.097656 426.125 723.789062 426.058594 724.480469 C 425.992188 725.171875 425.886719 725.859375 425.753906 726.542969 C 425.617188 727.222656 425.449219 727.898438 425.246094 728.5625 C 425.046875 729.226562 424.8125 729.878906 424.546875 730.523438 C 424.277344 731.164062 423.984375 731.792969 423.65625 732.40625 C 423.328125 733.019531 422.96875 733.613281 422.585938 734.191406 C 422.199219 734.769531 421.785156 735.328125 421.34375 735.863281 C 420.902344 736.402344 420.4375 736.917969 419.945312 737.40625 C 419.453125 737.898438 418.9375 738.367188 418.402344 738.808594 C 417.863281 739.246094 417.304688 739.660156 416.730469 740.046875 C 416.152344 740.433594 415.554688 740.789062 414.941406 741.117188 C 414.328125 741.445312 413.703125 741.742188 413.058594 742.007812 C 412.417969 742.273438 411.765625 742.507812 411.097656 742.710938 C 410.433594 742.910156 409.761719 743.082031 409.078125 743.214844 C 408.398438 743.351562 407.710938 743.453125 407.019531 743.523438 C 406.328125 743.589844 405.632812 743.625 404.9375 743.625 Z M 404.9375 743.625 " fill-opacity="1" fill-rule="nonzero"/></svg>