<svg xmlns="http://www.w3.org/2000/svg" xmlns:xlink="http://www.w3.org/1999/xlink" width="1024" zoomAndPan="magnify" viewBox="0 0 768 767.999994" height="1024" preserveAspectRatio="xMidYMid meet" version="1.0"><defs><clipPath id="aa7ac2f8b5"><path d="M 419 489 L 552 489 L 552 720.984375 L 419 720.984375 Z M 419 489 " clip-rule="nonzero"/></clipPath></defs><path fill="#3571aa" d="M 320.433594 527.8125 L 315.167969 531.679688 L 315.015625 531.679688 C 312.722656 533.773438 310.863281 536.199219 309.441406 538.957031 C 309.023438 539.757812 308.644531 540.578125 308.304688 541.414062 C 307.96875 542.253906 307.671875 543.105469 307.417969 543.972656 C 307.164062 544.839844 306.953125 545.71875 306.785156 546.605469 C 306.617188 547.492188 306.492188 548.386719 306.414062 549.289062 C 306.335938 550.1875 306.296875 551.089844 306.308594 551.992188 C 306.316406 552.894531 306.367188 553.796875 306.464844 554.695312 C 306.5625 555.59375 306.703125 556.484375 306.890625 557.371094 C 307.074219 558.253906 307.300781 559.128906 307.574219 559.988281 C 307.84375 560.851562 308.15625 561.699219 308.511719 562.53125 C 308.863281 563.363281 309.257812 564.171875 309.691406 564.964844 C 310.125 565.757812 310.597656 566.527344 311.105469 567.273438 C 311.617188 568.023438 312.160156 568.742188 312.742188 569.433594 C 313.320312 570.128906 313.933594 570.789062 314.578125 571.421875 C 315.226562 572.054688 315.898438 572.65625 316.605469 573.222656 C 317.308594 573.789062 318.039062 574.320312 318.796875 574.8125 C 319.550781 575.308594 320.332031 575.765625 321.132812 576.183594 C 321.933594 576.601562 322.753906 576.980469 323.589844 577.316406 C 324.429688 577.652344 325.28125 577.949219 326.148438 578.203125 C 327.019531 578.457031 327.894531 578.667969 328.785156 578.835938 C 329.671875 579.003906 330.566406 579.128906 331.464844 579.207031 C 332.367188 579.289062 333.269531 579.324219 334.171875 579.316406 C 335.078125 579.304688 335.976562 579.253906 336.878906 579.15625 C 337.777344 579.058594 338.667969 578.917969 339.550781 578.734375 C 340.4375 578.546875 341.3125 578.320312 342.171875 578.050781 C 343.035156 577.777344 343.882812 577.464844 344.714844 577.113281 C 345.546875 576.757812 346.359375 576.363281 347.152344 575.929688 C 347.945312 575.496094 348.714844 575.027344 349.460938 574.515625 C 350.207031 574.007812 350.929688 573.464844 351.621094 572.882812 C 352.316406 572.304688 352.976562 571.691406 353.609375 571.046875 C 354.242188 570.402344 354.84375 569.726562 355.410156 569.023438 C 355.976562 568.316406 356.507812 567.589844 357.003906 566.832031 C 357.496094 566.074219 357.953125 565.296875 358.371094 564.496094 C 359.917969 561.75 360.847656 558.808594 361.160156 555.671875 L 361.316406 555.671875 L 361.316406 549.019531 L 362.242188 497.320312 Z M 320.433594 527.8125 " fill-opacity="1" fill-rule="nonzero"/><path fill="#3571aa" d="M 200.738281 689.410156 L 197.640625 691.574219 C 196.246094 692.816406 195.109375 694.261719 194.234375 695.910156 C 193.847656 696.847656 193.546875 697.8125 193.339844 698.804688 C 193.132812 699.800781 193.015625 700.800781 192.992188 701.816406 C 192.972656 702.832031 193.042969 703.839844 193.207031 704.839844 C 193.371094 705.839844 193.628906 706.816406 193.976562 707.773438 C 194.320312 708.726562 194.753906 709.640625 195.269531 710.511719 C 195.785156 711.386719 196.375 712.207031 197.042969 712.96875 C 197.710938 713.734375 198.445312 714.429688 199.242188 715.058594 C 200.039062 715.6875 200.886719 716.234375 201.785156 716.707031 C 202.683594 717.179688 203.617188 717.5625 204.589844 717.859375 C 205.558594 718.15625 206.546875 718.363281 207.558594 718.476562 C 208.566406 718.589844 209.574219 718.613281 210.589844 718.539062 C 211.601562 718.464844 212.597656 718.300781 213.578125 718.042969 C 214.5625 717.785156 215.511719 717.4375 216.425781 717.003906 C 217.34375 716.570312 218.214844 716.054688 219.035156 715.460938 C 219.859375 714.863281 220.617188 714.199219 221.316406 713.460938 C 222.015625 712.726562 222.640625 711.929688 223.191406 711.078125 C 224.042969 709.417969 224.609375 707.664062 224.894531 705.816406 L 224.894531 701.792969 L 225.359375 671.296875 Z M 200.738281 689.410156 " fill-opacity="1" fill-rule="nonzero"/><path fill="#3571aa" d="M 357.753906 664.644531 L 354.65625 666.808594 L 354.5 666.808594 C 353.207031 668.097656 352.121094 669.539062 351.25 671.144531 C 351.003906 671.617188 350.78125 672.101562 350.582031 672.597656 C 350.382812 673.09375 350.210938 673.597656 350.0625 674.113281 C 349.910156 674.625 349.789062 675.144531 349.691406 675.667969 C 349.59375 676.195312 349.519531 676.722656 349.472656 677.253906 C 349.429688 677.789062 349.410156 678.320312 349.414062 678.855469 C 349.421875 679.386719 349.453125 679.921875 349.511719 680.453125 C 349.570312 680.984375 349.65625 681.507812 349.765625 682.03125 C 349.878906 682.554688 350.011719 683.070312 350.175781 683.578125 C 350.335938 684.089844 350.523438 684.589844 350.734375 685.078125 C 350.941406 685.570312 351.175781 686.050781 351.433594 686.519531 C 351.691406 686.988281 351.972656 687.441406 352.273438 687.882812 C 352.578125 688.320312 352.898438 688.746094 353.242188 689.15625 C 353.585938 689.5625 353.949219 689.953125 354.332031 690.328125 C 354.714844 690.699219 355.117188 691.054688 355.53125 691.386719 C 355.949219 691.722656 356.382812 692.035156 356.832031 692.324219 C 357.277344 692.617188 357.738281 692.886719 358.214844 693.132812 C 358.6875 693.375 359.171875 693.597656 359.667969 693.796875 C 360.164062 693.996094 360.671875 694.167969 361.183594 694.316406 C 361.695312 694.464844 362.214844 694.589844 362.742188 694.6875 C 363.265625 694.785156 363.796875 694.855469 364.328125 694.902344 C 364.859375 694.949219 365.394531 694.96875 365.929688 694.960938 C 366.460938 694.953125 366.996094 694.921875 367.527344 694.863281 C 368.058594 694.804688 368.585938 694.71875 369.105469 694.609375 C 369.628906 694.496094 370.144531 694.359375 370.65625 694.199219 C 371.164062 694.039062 371.664062 693.851562 372.15625 693.640625 C 372.648438 693.429688 373.125 693.195312 373.59375 692.9375 C 374.0625 692.679688 374.515625 692.402344 374.957031 692.097656 C 375.398438 691.796875 375.824219 691.472656 376.230469 691.128906 C 376.640625 690.785156 377.03125 690.421875 377.402344 690.039062 C 377.777344 689.65625 378.128906 689.257812 378.464844 688.839844 C 378.796875 688.421875 379.109375 687.988281 379.402344 687.542969 C 379.691406 687.09375 379.960938 686.632812 380.207031 686.160156 C 381.078125 684.558594 381.644531 682.855469 381.910156 681.050781 L 381.910156 677.027344 L 382.527344 646.53125 Z M 357.753906 664.644531 " fill-opacity="1" fill-rule="nonzero"/><path fill="#3571aa" d="M 593.277344 528.277344 L 590.027344 530.597656 C 588.675781 531.902344 587.59375 533.398438 586.773438 535.085938 C 586.527344 535.5625 586.304688 536.046875 586.109375 536.542969 C 585.910156 537.039062 585.734375 537.542969 585.585938 538.054688 C 585.4375 538.566406 585.316406 539.085938 585.21875 539.609375 C 585.121094 540.136719 585.046875 540.664062 585.003906 541.195312 C 584.957031 541.730469 584.9375 542.261719 584.941406 542.796875 C 584.949219 543.328125 584.984375 543.863281 585.042969 544.390625 C 585.101562 544.921875 585.183594 545.449219 585.296875 545.972656 C 585.40625 546.496094 585.542969 547.011719 585.703125 547.519531 C 585.867188 548.027344 586.050781 548.527344 586.261719 549.019531 C 586.472656 549.507812 586.707031 549.988281 586.964844 550.457031 C 587.222656 550.925781 587.5 551.378906 587.804688 551.820312 C 588.105469 552.257812 588.429688 552.683594 588.773438 553.09375 C 589.117188 553.5 589.480469 553.890625 589.863281 554.265625 C 590.246094 554.636719 590.644531 554.988281 591.0625 555.324219 C 591.480469 555.65625 591.910156 555.96875 592.359375 556.261719 C 592.808594 556.550781 593.269531 556.820312 593.742188 557.066406 C 594.214844 557.3125 594.703125 557.535156 595.199219 557.734375 C 595.695312 557.929688 596.199219 558.105469 596.710938 558.253906 C 597.222656 558.402344 597.742188 558.523438 598.269531 558.621094 C 598.792969 558.71875 599.320312 558.792969 599.855469 558.835938 C 600.386719 558.882812 600.917969 558.902344 601.453125 558.894531 C 601.988281 558.890625 602.519531 558.855469 603.050781 558.796875 C 603.582031 558.738281 604.109375 558.65625 604.632812 558.542969 C 605.15625 558.433594 605.671875 558.296875 606.179688 558.136719 C 606.6875 557.972656 607.1875 557.789062 607.679688 557.578125 C 608.171875 557.367188 608.648438 557.132812 609.117188 556.875 C 609.585938 556.617188 610.039062 556.339844 610.480469 556.035156 C 610.921875 555.734375 611.34375 555.410156 611.753906 555.066406 C 612.164062 554.722656 612.554688 554.359375 612.925781 553.980469 C 613.300781 553.597656 613.652344 553.195312 613.988281 552.78125 C 614.320312 552.363281 614.632812 551.929688 614.925781 551.484375 C 615.214844 551.035156 615.484375 550.574219 615.730469 550.101562 C 616.53125 548.421875 617.101562 546.667969 617.433594 544.839844 L 617.433594 540.96875 L 618.054688 510.320312 Z M 593.277344 528.277344 " fill-opacity="1" fill-rule="nonzero"/><path fill="#3571aa" d="M 105.660156 503.511719 L 102.5625 505.832031 C 101.207031 507.070312 100.121094 508.515625 99.3125 510.167969 C 99.003906 510.644531 98.71875 511.136719 98.460938 511.644531 C 98.203125 512.148438 97.972656 512.667969 97.769531 513.199219 C 97.566406 513.730469 97.390625 514.269531 97.242188 514.820312 C 97.097656 515.367188 96.976562 515.925781 96.886719 516.484375 C 96.800781 517.046875 96.738281 517.613281 96.707031 518.179688 C 96.675781 518.746094 96.675781 519.316406 96.703125 519.882812 C 96.730469 520.449219 96.789062 521.015625 96.875 521.578125 C 96.964844 522.140625 97.078125 522.695312 97.222656 523.246094 C 97.367188 523.792969 97.539062 524.335938 97.742188 524.867188 C 97.941406 525.398438 98.171875 525.917969 98.425781 526.425781 C 98.679688 526.933594 98.960938 527.429688 99.269531 527.90625 C 99.574219 528.386719 99.90625 528.847656 100.257812 529.292969 C 100.613281 529.738281 100.988281 530.164062 101.386719 530.570312 C 101.785156 530.976562 102.207031 531.359375 102.644531 531.71875 C 103.082031 532.082031 103.539062 532.421875 104.011719 532.734375 C 104.484375 533.050781 104.972656 533.339844 105.476562 533.605469 C 105.980469 533.867188 106.5 534.105469 107.027344 534.316406 C 107.554688 534.523438 108.09375 534.707031 108.640625 534.863281 C 109.1875 535.015625 109.742188 535.140625 110.300781 535.238281 C 110.863281 535.335938 111.425781 535.402344 111.992188 535.441406 C 112.5625 535.480469 113.128906 535.488281 113.699219 535.46875 C 114.265625 535.445312 114.832031 535.394531 115.394531 535.316406 C 115.957031 535.238281 116.515625 535.128906 117.066406 534.992188 C 117.621094 534.855469 118.164062 534.6875 118.699219 534.492188 C 119.230469 534.300781 119.753906 534.078125 120.265625 533.832031 C 120.777344 533.582031 121.277344 533.308594 121.757812 533.007812 C 122.242188 532.707031 122.707031 532.382812 123.15625 532.035156 C 123.605469 531.6875 124.039062 531.316406 124.449219 530.921875 C 124.859375 530.53125 125.25 530.117188 125.617188 529.683594 C 125.984375 529.25 126.328125 528.796875 126.648438 528.328125 C 126.96875 527.859375 127.265625 527.375 127.535156 526.875 C 127.808594 526.375 128.050781 525.859375 128.269531 525.335938 C 129.09375 523.671875 129.609375 521.917969 129.816406 520.074219 L 129.972656 520.074219 L 129.972656 516.203125 L 130.4375 485.554688 Z M 105.660156 503.511719 " fill-opacity="1" fill-rule="nonzero"/><path fill="#6b99d2" d="M 358.683594 189.449219 L 360.230469 189.449219 C 358.289062 182.828125 357.308594 176.070312 357.289062 169.171875 C 357.292969 167.554688 357.355469 165.9375 357.472656 164.324219 C 357.589844 162.710938 357.765625 161.101562 357.996094 159.5 C 358.230469 157.898438 358.515625 156.308594 358.863281 154.726562 C 359.207031 153.144531 359.605469 151.578125 360.0625 150.027344 C 360.515625 148.472656 361.023438 146.9375 361.589844 145.421875 C 362.152344 143.90625 362.769531 142.410156 363.4375 140.9375 C 364.105469 139.460938 364.828125 138.015625 365.597656 136.589844 C 366.371094 135.167969 367.191406 133.777344 368.0625 132.410156 C 368.929688 131.046875 369.847656 129.714844 370.8125 128.414062 C 371.777344 127.113281 372.785156 125.851562 373.839844 124.621094 C 374.890625 123.394531 375.988281 122.203125 377.125 121.050781 C 378.261719 119.902344 379.4375 118.789062 380.65625 117.722656 C 381.871094 116.65625 383.121094 115.628906 384.410156 114.652344 C 385.699219 113.671875 387.019531 112.738281 388.375 111.851562 C 389.730469 110.964844 391.113281 110.128906 392.527344 109.339844 C 393.941406 108.550781 395.378906 107.8125 396.84375 107.125 C 398.308594 106.4375 399.796875 105.800781 401.308594 105.21875 C 402.820312 104.636719 404.347656 104.109375 405.894531 103.636719 C 407.445312 103.160156 409.007812 102.742188 410.582031 102.378906 C 412.160156 102.015625 413.75 101.707031 415.347656 101.457031 C 416.949219 101.203125 418.554688 101.007812 420.167969 100.871094 C 421.777344 100.734375 423.394531 100.652344 425.011719 100.628906 C 426.632812 100.601562 428.25 100.636719 429.867188 100.726562 C 431.480469 100.816406 433.09375 100.964844 434.699219 101.167969 C 436.304688 101.371094 437.902344 101.628906 439.488281 101.945312 C 441.078125 102.265625 442.652344 102.636719 444.210938 103.0625 C 445.773438 103.492188 447.316406 103.972656 448.84375 104.511719 C 450.371094 105.046875 451.878906 105.636719 453.363281 106.28125 C 454.847656 106.921875 456.308594 107.617188 457.746094 108.363281 C 459.183594 109.109375 460.589844 109.90625 461.972656 110.75 C 463.351562 111.597656 464.699219 112.488281 466.015625 113.429688 C 467.332031 114.371094 468.617188 115.359375 469.863281 116.390625 C 470.207031 115.015625 470.582031 113.648438 470.992188 112.289062 C 471.402344 110.933594 471.84375 109.585938 472.316406 108.25 C 472.789062 106.910156 473.292969 105.585938 473.832031 104.273438 C 474.367188 102.960938 474.9375 101.664062 475.535156 100.378906 C 476.132812 99.09375 476.761719 97.824219 477.421875 96.570312 C 478.082031 95.3125 478.773438 94.074219 479.492188 92.851562 C 480.210938 91.632812 480.957031 90.425781 481.734375 89.242188 C 482.511719 88.054688 483.316406 86.886719 484.148438 85.738281 C 484.984375 84.59375 485.84375 83.464844 486.730469 82.359375 C 487.617188 81.25 488.527344 80.167969 489.46875 79.105469 C 490.40625 78.042969 491.371094 77 492.359375 75.984375 C 493.347656 74.96875 494.359375 73.976562 495.394531 73.007812 C 496.429688 72.039062 497.488281 71.09375 498.570312 70.175781 C 499.652344 69.261719 500.753906 68.367188 501.878906 67.503906 C 503.003906 66.640625 504.144531 65.800781 505.308594 64.992188 C 506.472656 64.179688 507.65625 63.398438 508.859375 62.644531 C 510.058594 61.890625 511.277344 61.167969 512.515625 60.472656 C 513.75 59.777344 515.003906 59.113281 516.269531 58.476562 C 517.539062 57.839844 518.820312 57.234375 520.117188 56.660156 C 521.414062 56.089844 522.726562 55.546875 524.046875 55.035156 C 525.371094 54.523438 526.707031 54.042969 528.050781 53.597656 C 529.398438 53.148438 530.753906 52.734375 532.117188 52.351562 C 533.484375 51.96875 534.859375 51.617188 536.242188 51.300781 C 537.625 50.984375 539.011719 50.703125 540.410156 50.453125 C 541.804688 50.199219 543.207031 49.984375 544.613281 49.800781 C 546.019531 49.617188 547.429688 49.46875 548.84375 49.351562 C 550.257812 49.238281 551.671875 49.15625 553.089844 49.105469 C 554.507812 49.058594 555.925781 49.042969 557.34375 49.0625 C 558.761719 49.085938 560.179688 49.136719 561.59375 49.226562 C 563.011719 49.3125 564.421875 49.433594 565.832031 49.589844 C 567.242188 49.746094 568.648438 49.933594 570.046875 50.15625 C 571.449219 50.378906 572.84375 50.632812 574.234375 50.921875 C 575.621094 51.214844 577 51.535156 578.375 51.890625 C 579.75 52.246094 581.113281 52.632812 582.464844 53.054688 C 583.820312 53.476562 585.164062 53.925781 586.496094 54.414062 C 587.832031 54.898438 589.152344 55.414062 590.460938 55.960938 C 591.765625 56.511719 593.0625 57.089844 594.34375 57.699219 C 595.621094 58.308594 596.886719 58.949219 598.136719 59.621094 C 599.386719 60.289062 600.621094 60.992188 601.835938 61.71875 C 603.050781 62.449219 604.25 63.207031 605.429688 63.996094 C 606.609375 64.78125 607.769531 65.597656 608.910156 66.4375 C 610.050781 67.28125 611.171875 68.148438 612.269531 69.046875 C 613.371094 69.941406 614.449219 70.863281 615.503906 71.8125 C 616.558594 72.757812 617.589844 73.730469 618.597656 74.726562 C 619.605469 75.726562 620.589844 76.746094 621.550781 77.789062 C 622.511719 78.832031 623.445312 79.898438 624.351562 80.988281 C 625.261719 82.078125 626.144531 83.1875 627 84.316406 C 627.855469 85.449219 628.683594 86.597656 629.484375 87.769531 C 630.28125 88.941406 631.054688 90.128906 631.796875 91.335938 C 632.542969 92.542969 633.257812 93.769531 633.941406 95.011719 C 634.625 96.253906 635.28125 97.507812 635.90625 98.78125 C 636.527344 100.054688 637.121094 101.34375 637.6875 102.644531 C 638.25 103.945312 638.78125 105.257812 639.28125 106.585938 C 639.78125 107.914062 640.246094 109.25 640.683594 110.601562 C 641.121094 111.949219 641.523438 113.308594 641.894531 114.675781 C 642.265625 116.046875 642.601562 117.421875 642.90625 118.808594 C 643.210938 120.191406 643.484375 121.582031 643.722656 122.980469 C 643.960938 124.378906 644.164062 125.78125 644.335938 127.1875 C 644.507812 128.59375 644.644531 130.007812 644.746094 131.421875 C 644.851562 132.835938 644.921875 134.25 644.957031 135.667969 C 644.992188 137.085938 644.992188 138.503906 644.960938 139.917969 C 644.929688 141.335938 644.863281 142.753906 644.761719 144.167969 C 644.664062 145.582031 644.53125 146.992188 644.363281 148.398438 C 644.195312 149.808594 643.992188 151.210938 643.757812 152.609375 C 647.449219 151.984375 651.164062 151.675781 654.90625 151.679688 C 656.9375 151.6875 658.964844 151.78125 660.988281 151.953125 C 663.011719 152.128906 665.027344 152.386719 667.027344 152.726562 C 669.03125 153.066406 671.015625 153.488281 672.984375 153.992188 C 674.953125 154.492188 676.894531 155.078125 678.816406 155.738281 C 680.734375 156.402344 682.625 157.140625 684.484375 157.960938 C 686.34375 158.777344 688.167969 159.667969 689.953125 160.636719 C 691.738281 161.605469 693.480469 162.644531 695.179688 163.753906 C 696.882812 164.863281 698.535156 166.042969 700.136719 167.289062 C 701.742188 168.535156 703.289062 169.84375 704.785156 171.21875 C 706.28125 172.59375 707.71875 174.023438 709.097656 175.515625 C 710.476562 177.007812 711.789062 178.554688 713.042969 180.152344 C 714.292969 181.75 715.476562 183.398438 716.59375 185.097656 C 717.707031 186.792969 718.753906 188.53125 719.726562 190.316406 C 720.699219 192.097656 721.59375 193.917969 722.417969 195.773438 C 723.242188 197.628906 723.988281 199.515625 724.65625 201.433594 C 725.324219 203.351562 725.914062 205.292969 726.421875 207.257812 C 726.929688 209.222656 727.355469 211.207031 727.703125 213.207031 C 728.046875 215.207031 728.3125 217.21875 728.492188 219.242188 C 728.671875 221.265625 728.769531 223.289062 728.78125 225.320312 C 728.796875 227.351562 728.726562 229.378906 728.574219 231.402344 C 728.421875 233.425781 728.183594 235.441406 727.867188 237.449219 C 727.546875 239.453125 727.148438 241.441406 726.664062 243.414062 C 726.183594 245.386719 725.621094 247.335938 724.980469 249.261719 C 724.335938 251.1875 723.617188 253.085938 722.820312 254.953125 C 722.023438 256.820312 721.148438 258.652344 720.199219 260.445312 C 719.25 262.242188 718.230469 263.996094 717.136719 265.707031 C 716.046875 267.417969 714.882812 269.082031 713.65625 270.699219 C 712.425781 272.3125 711.132812 273.878906 709.773438 275.386719 C 708.417969 276.898438 707 278.347656 705.523438 279.742188 C 704.042969 281.136719 702.511719 282.46875 700.925781 283.734375 C 699.339844 285.003906 697.703125 286.203125 696.019531 287.335938 C 694.332031 288.46875 692.605469 289.53125 690.832031 290.523438 C 686.292969 293.554688 681.414062 295.859375 676.191406 297.441406 C 670.96875 299.023438 665.628906 299.816406 660.171875 299.8125 L 358.683594 299.8125 C 356.875 299.804688 355.070312 299.714844 353.269531 299.53125 C 351.46875 299.351562 349.683594 299.082031 347.910156 298.722656 C 346.132812 298.367188 344.382812 297.925781 342.652344 297.398438 C 340.921875 296.871094 339.222656 296.257812 337.550781 295.5625 C 335.878906 294.871094 334.25 294.09375 332.652344 293.242188 C 331.058594 292.386719 329.511719 291.457031 328.007812 290.453125 C 326.503906 289.445312 325.050781 288.367188 323.652344 287.222656 C 322.253906 286.074219 320.917969 284.859375 319.636719 283.582031 C 318.359375 282.300781 317.144531 280.964844 315.996094 279.566406 C 314.847656 278.167969 313.769531 276.71875 312.765625 275.214844 C 311.757812 273.714844 310.828125 272.164062 309.972656 270.570312 C 309.121094 268.976562 308.34375 267.34375 307.652344 265.675781 C 306.957031 264.003906 306.34375 262.304688 305.816406 260.574219 C 305.289062 258.847656 304.847656 257.09375 304.488281 255.324219 C 304.132812 253.550781 303.863281 251.761719 303.679688 249.964844 C 303.5 248.164062 303.40625 246.359375 303.402344 244.550781 C 303.40625 242.746094 303.5 240.945312 303.683594 239.148438 C 303.863281 237.347656 304.132812 235.566406 304.488281 233.792969 C 304.847656 232.023438 305.289062 230.273438 305.816406 228.546875 C 306.347656 226.820312 306.957031 225.121094 307.652344 223.453125 C 308.347656 221.785156 309.125 220.15625 309.980469 218.566406 C 310.832031 216.972656 311.765625 215.425781 312.773438 213.925781 C 313.777344 212.425781 314.855469 210.980469 316.003906 209.585938 C 317.152344 208.191406 318.367188 206.855469 319.648438 205.578125 C 320.925781 204.304688 322.265625 203.09375 323.664062 201.949219 C 325.0625 200.804688 326.515625 199.730469 328.019531 198.730469 C 329.523438 197.726562 331.070312 196.800781 332.664062 195.949219 C 334.261719 195.101562 335.894531 194.332031 337.5625 193.640625 C 339.234375 192.949219 340.933594 192.34375 342.664062 191.820312 C 344.390625 191.296875 346.144531 190.859375 347.917969 190.507812 C 349.6875 190.15625 351.476562 189.890625 353.273438 189.714844 C 355.070312 189.535156 356.875 189.449219 358.683594 189.449219 Z M 358.683594 189.449219 " fill-opacity="1" fill-rule="nonzero"/><path fill="#26477a" d="M 607.058594 291.453125 L 604.425781 291.453125 C 607.578125 281.375 609.125 271.054688 609.070312 260.496094 C 609.070312 258.015625 608.980469 255.535156 608.804688 253.0625 C 608.625 250.585938 608.363281 248.121094 608.011719 245.664062 C 607.660156 243.207031 607.222656 240.765625 606.695312 238.339844 C 606.171875 235.914062 605.5625 233.511719 604.867188 231.128906 C 604.175781 228.746094 603.398438 226.390625 602.535156 224.066406 C 601.675781 221.738281 600.734375 219.441406 599.710938 217.183594 C 598.6875 214.921875 597.582031 212.699219 596.402344 210.515625 C 595.222656 208.335938 593.964844 206.195312 592.636719 204.101562 C 591.304688 202.007812 589.898438 199.964844 588.421875 197.96875 C 586.945312 195.972656 585.402344 194.035156 583.785156 192.148438 C 582.171875 190.261719 580.496094 188.4375 578.753906 186.667969 C 577.007812 184.902344 575.207031 183.199219 573.34375 181.558594 C 571.480469 179.921875 569.558594 178.347656 567.585938 176.84375 C 565.609375 175.339844 563.585938 173.910156 561.507812 172.550781 C 559.433594 171.1875 557.3125 169.902344 555.144531 168.691406 C 552.976562 167.480469 550.769531 166.347656 548.523438 165.292969 C 546.277344 164.238281 543.996094 163.265625 541.679688 162.371094 C 539.363281 161.480469 537.019531 160.667969 534.644531 159.941406 C 532.273438 159.214844 529.875 158.570312 527.457031 158.011719 C 525.039062 157.457031 522.601562 156.984375 520.152344 156.597656 C 517.699219 156.210938 515.234375 155.914062 512.761719 155.699219 C 510.289062 155.488281 507.8125 155.363281 505.328125 155.328125 C 502.847656 155.292969 500.367188 155.34375 497.886719 155.480469 C 495.410156 155.621094 492.9375 155.847656 490.476562 156.160156 C 488.015625 156.472656 485.566406 156.875 483.132812 157.359375 C 480.699219 157.847656 478.285156 158.417969 475.890625 159.074219 C 473.496094 159.730469 471.128906 160.472656 468.785156 161.296875 C 466.445312 162.121094 464.136719 163.027344 461.859375 164.015625 C 459.582031 165.003906 457.34375 166.070312 455.140625 167.21875 C 452.9375 168.363281 450.78125 169.585938 448.664062 170.882812 C 446.550781 172.183594 444.484375 173.554688 442.464844 175 C 440.445312 176.445312 438.480469 177.957031 436.570312 179.542969 C 436.128906 177.507812 435.640625 175.488281 435.109375 173.476562 C 434.574219 171.464844 433.996094 169.46875 433.371094 167.484375 C 432.746094 165.5 432.074219 163.53125 431.359375 161.578125 C 430.644531 159.625 429.882812 157.6875 429.078125 155.769531 C 428.273438 153.847656 427.425781 151.949219 426.535156 150.070312 C 425.644531 148.191406 424.710938 146.332031 423.734375 144.496094 C 422.757812 142.65625 421.738281 140.84375 420.679688 139.054688 C 419.617188 137.261719 418.519531 135.496094 417.378906 133.757812 C 416.238281 132.015625 415.054688 130.304688 413.835938 128.617188 C 412.617188 126.933594 411.359375 125.273438 410.066406 123.644531 C 408.769531 122.019531 407.4375 120.417969 406.070312 118.851562 C 404.703125 117.285156 403.296875 115.75 401.859375 114.246094 C 400.421875 112.742188 398.949219 111.273438 397.441406 109.835938 C 395.9375 108.402344 394.398438 107 392.828125 105.636719 C 391.257812 104.269531 389.65625 102.941406 388.023438 101.648438 C 386.394531 100.359375 384.734375 99.105469 383.042969 97.886719 C 381.355469 96.671875 379.640625 95.496094 377.898438 94.359375 C 376.15625 93.222656 374.386719 92.125 372.59375 91.066406 C 370.800781 90.011719 368.984375 88.996094 367.144531 88.023438 C 365.304688 87.050781 363.445312 86.121094 361.5625 85.230469 C 359.679688 84.34375 357.777344 83.5 355.859375 82.699219 C 353.9375 81.898438 352 81.140625 350.042969 80.429688 C 348.089844 79.714844 346.117188 79.050781 344.132812 78.425781 C 342.144531 77.804688 340.144531 77.230469 338.132812 76.699219 C 336.121094 76.167969 334.097656 75.683594 332.0625 75.246094 C 330.027344 74.808594 327.984375 74.417969 325.929688 74.074219 C 323.878906 73.730469 321.820312 73.433594 319.753906 73.183594 C 317.6875 72.933594 315.617188 72.734375 313.539062 72.578125 C 311.464844 72.421875 309.386719 72.316406 307.308594 72.257812 C 305.226562 72.195312 303.144531 72.183594 301.066406 72.21875 C 298.984375 72.257812 296.90625 72.339844 294.828125 72.46875 C 292.75 72.601562 290.675781 72.78125 288.609375 73.003906 C 286.539062 73.230469 284.476562 73.503906 282.421875 73.824219 C 280.363281 74.144531 278.316406 74.511719 276.277344 74.925781 C 274.238281 75.339844 272.207031 75.800781 270.1875 76.308594 C 268.171875 76.816406 266.164062 77.367188 264.171875 77.964844 C 262.179688 78.566406 260.199219 79.210938 258.238281 79.898438 C 256.273438 80.589844 254.328125 81.324219 252.394531 82.101562 C 250.464844 82.878906 248.554688 83.703125 246.664062 84.570312 C 244.769531 85.433594 242.898438 86.34375 241.046875 87.296875 C 239.199219 88.25 237.371094 89.242188 235.566406 90.277344 C 233.761719 91.3125 231.980469 92.390625 230.222656 93.507812 C 228.46875 94.625 226.738281 95.78125 225.035156 96.976562 C 223.332031 98.175781 221.660156 99.410156 220.011719 100.683594 C 218.367188 101.953125 216.75 103.265625 215.164062 104.613281 C 213.578125 105.960938 212.023438 107.34375 210.503906 108.761719 C 208.980469 110.179688 207.492188 111.628906 206.035156 113.117188 C 204.578125 114.605469 203.15625 116.121094 201.769531 117.675781 C 200.382812 119.226562 199.035156 120.808594 197.71875 122.421875 C 196.40625 124.035156 195.128906 125.679688 193.890625 127.351562 C 192.652344 129.023438 191.453125 130.722656 190.292969 132.449219 C 189.132812 134.175781 188.011719 135.925781 186.929688 137.707031 C 185.851562 139.484375 184.8125 141.285156 183.8125 143.113281 C 182.816406 144.9375 181.859375 146.785156 180.949219 148.65625 C 180.035156 150.523438 179.164062 152.414062 178.339844 154.324219 C 177.511719 156.234375 176.730469 158.160156 175.992188 160.105469 C 175.253906 162.050781 174.558594 164.011719 173.910156 165.988281 C 173.261719 167.964844 172.660156 169.957031 172.105469 171.960938 C 171.546875 173.964844 171.035156 175.980469 170.570312 178.007812 C 170.105469 180.035156 169.6875 182.074219 169.316406 184.121094 C 168.945312 186.167969 168.621094 188.222656 168.347656 190.285156 C 168.070312 192.347656 167.839844 194.414062 167.65625 196.488281 C 167.476562 198.558594 167.339844 200.632812 167.253906 202.714844 C 167.167969 204.792969 167.125 206.871094 167.136719 208.953125 C 167.09375 217.703125 167.917969 226.371094 169.613281 234.957031 C 163.964844 234.144531 158.285156 233.734375 152.578125 233.71875 C 149.464844 233.722656 146.351562 233.859375 143.246094 234.121094 C 140.140625 234.382812 137.054688 234.773438 133.980469 235.289062 C 130.90625 235.804688 127.859375 236.449219 124.839844 237.214844 C 121.820312 237.980469 118.835938 238.871094 115.890625 239.882812 C 112.941406 240.894531 110.042969 242.027344 107.1875 243.277344 C 104.332031 244.53125 101.535156 245.894531 98.792969 247.375 C 96.050781 248.855469 93.375 250.449219 90.765625 252.148438 C 88.15625 253.847656 85.617188 255.65625 83.15625 257.5625 C 80.695312 259.472656 78.316406 261.480469 76.019531 263.585938 C 73.722656 265.691406 71.515625 267.886719 69.398438 270.171875 C 67.28125 272.457031 65.261719 274.828125 63.339844 277.28125 C 61.421875 279.734375 59.601562 282.261719 57.890625 284.863281 C 56.175781 287.464844 54.574219 290.132812 53.078125 292.867188 C 51.585938 295.597656 50.207031 298.390625 48.941406 301.238281 C 47.675781 304.082031 46.53125 306.976562 45.507812 309.917969 C 44.480469 312.859375 43.578125 315.839844 42.796875 318.855469 C 42.015625 321.871094 41.359375 324.910156 40.828125 327.980469 C 40.296875 331.050781 39.894531 334.136719 39.617188 337.238281 C 39.339844 340.34375 39.191406 343.449219 39.167969 346.566406 C 39.148438 349.679688 39.253906 352.792969 39.492188 355.898438 C 39.726562 359.003906 40.085938 362.09375 40.578125 365.171875 C 41.066406 368.246094 41.679688 371.296875 42.421875 374.324219 C 43.160156 377.351562 44.023438 380.339844 45.011719 383.292969 C 46 386.25 47.105469 389.160156 48.332031 392.023438 C 49.554688 394.886719 50.898438 397.695312 52.355469 400.449219 C 53.8125 403.203125 55.378906 405.890625 57.058594 408.515625 C 58.734375 411.140625 60.519531 413.691406 62.40625 416.167969 C 64.292969 418.648438 66.28125 421.042969 68.367188 423.359375 C 70.453125 425.671875 72.628906 427.898438 74.898438 430.035156 C 77.164062 432.171875 79.519531 434.210938 81.953125 436.152344 C 84.390625 438.09375 86.902344 439.933594 89.488281 441.667969 C 92.078125 443.40625 94.730469 445.03125 97.453125 446.550781 C 100.90625 448.859375 104.507812 450.902344 108.261719 452.679688 C 112.015625 454.457031 115.878906 455.949219 119.851562 457.15625 C 123.828125 458.363281 127.871094 459.269531 131.976562 459.878906 C 136.085938 460.488281 140.21875 460.792969 144.371094 460.789062 L 607.058594 460.789062 C 608.445312 460.785156 609.828125 460.75 611.214844 460.679688 C 612.597656 460.609375 613.976562 460.503906 615.355469 460.367188 C 616.734375 460.230469 618.109375 460.058594 619.480469 459.851562 C 620.851562 459.648438 622.214844 459.410156 623.574219 459.136719 C 624.929688 458.863281 626.28125 458.558594 627.625 458.222656 C 628.96875 457.882812 630.304688 457.511719 631.628906 457.109375 C 632.957031 456.707031 634.269531 456.269531 635.574219 455.800781 C 636.878906 455.332031 638.167969 454.835938 639.449219 454.304688 C 640.730469 453.773438 641.996094 453.210938 643.246094 452.617188 C 644.5 452.023438 645.734375 451.398438 646.957031 450.746094 C 648.179688 450.09375 649.382812 449.410156 650.570312 448.695312 C 651.757812 447.984375 652.929688 447.242188 654.082031 446.472656 C 655.230469 445.703125 656.363281 444.90625 657.476562 444.078125 C 658.589844 443.253906 659.679688 442.402344 660.753906 441.523438 C 661.824219 440.644531 662.871094 439.738281 663.898438 438.808594 C 664.925781 437.878906 665.925781 436.925781 666.90625 435.945312 C 667.886719 434.964844 668.84375 433.964844 669.773438 432.9375 C 670.703125 431.910156 671.609375 430.863281 672.488281 429.792969 C 673.367188 428.722656 674.21875 427.632812 675.042969 426.519531 C 675.871094 425.40625 676.667969 424.273438 677.4375 423.125 C 678.210938 421.972656 678.949219 420.804688 679.664062 419.617188 C 680.375 418.429688 681.058594 417.222656 681.714844 416.003906 C 682.367188 414.78125 682.992188 413.546875 683.585938 412.292969 C 684.179688 411.042969 684.742188 409.777344 685.273438 408.5 C 685.804688 407.21875 686.304688 405.929688 686.773438 404.625 C 687.238281 403.320312 687.675781 402.007812 688.078125 400.683594 C 688.484375 399.355469 688.855469 398.023438 689.191406 396.679688 C 689.53125 395.335938 689.835938 393.988281 690.109375 392.628906 C 690.378906 391.269531 690.617188 389.90625 690.824219 388.535156 C 691.03125 387.167969 691.203125 385.792969 691.339844 384.414062 C 691.476562 383.039062 691.582031 381.65625 691.652344 380.273438 C 691.722656 378.890625 691.757812 377.507812 691.761719 376.121094 C 691.757812 374.738281 691.71875 373.351562 691.644531 371.972656 C 691.570312 370.589844 691.464844 369.207031 691.324219 367.832031 C 691.183594 366.453125 691.011719 365.082031 690.804688 363.714844 C 690.597656 362.34375 690.355469 360.980469 690.082031 359.625 C 689.808594 358.265625 689.5 356.917969 689.160156 355.574219 C 688.820312 354.234375 688.449219 352.902344 688.042969 351.578125 C 687.640625 350.253906 687.203125 348.941406 686.734375 347.636719 C 686.265625 346.335938 685.761719 345.046875 685.230469 343.769531 C 684.699219 342.488281 684.136719 341.226562 683.542969 339.976562 C 682.949219 338.726562 682.324219 337.488281 681.667969 336.269531 C 681.015625 335.050781 680.332031 333.847656 679.617188 332.660156 C 678.902344 331.472656 678.160156 330.304688 677.390625 329.15625 C 676.621094 328.003906 675.824219 326.875 674.996094 325.761719 C 674.171875 324.652344 673.320312 323.558594 672.441406 322.492188 C 671.5625 321.421875 670.65625 320.375 669.726562 319.347656 C 668.796875 318.324219 667.839844 317.320312 666.863281 316.339844 C 665.882812 315.363281 664.878906 314.410156 663.855469 313.480469 C 662.828125 312.546875 661.78125 311.644531 660.710938 310.765625 C 659.640625 309.886719 658.550781 309.035156 657.4375 308.210938 C 656.324219 307.382812 655.195312 306.585938 654.042969 305.816406 C 652.894531 305.046875 651.722656 304.304688 650.539062 303.59375 C 649.351562 302.878906 648.148438 302.195312 646.925781 301.542969 C 645.707031 300.886719 644.46875 300.261719 643.21875 299.667969 C 641.96875 299.074219 640.703125 298.511719 639.425781 297.980469 C 638.148438 297.449219 636.855469 296.949219 635.554688 296.476562 C 634.25 296.007812 632.9375 295.574219 631.613281 295.167969 C 630.289062 294.761719 628.953125 294.390625 627.613281 294.050781 C 626.269531 293.710938 624.917969 293.40625 623.5625 293.128906 C 622.203125 292.855469 620.839844 292.617188 619.472656 292.410156 C 618.101562 292.203125 616.730469 292.027344 615.351562 291.886719 C 613.972656 291.75 612.59375 291.640625 611.210938 291.570312 C 609.828125 291.496094 608.445312 291.457031 607.058594 291.453125 Z M 607.058594 291.453125 " fill-opacity="1" fill-rule="nonzero"/><path fill="#ffb544" d="M 225.046875 403.054688 L 291.011719 403.054688 L 225.046875 491.128906 L 280.019531 491.128906 L 158.929688 634.304688 L 202.90625 524.097656 L 158.929688 524.097656 Z M 225.046875 403.054688 " fill-opacity="1" fill-rule="nonzero"/><g clip-path="url(#aa7ac2f8b5)"><path fill="#ffb544" d="M 485.195312 489.734375 L 551.3125 489.734375 L 485.195312 577.808594 L 540.320312 577.808594 L 419.074219 720.984375 L 463.203125 610.933594 L 419.074219 610.933594 Z M 485.195312 489.734375 " fill-opacity="1" fill-rule="nonzero"/></g></svg>