<svg xmlns="http://www.w3.org/2000/svg" xmlns:xlink="http://www.w3.org/1999/xlink" width="1024" zoomAndPan="magnify" viewBox="0 0 768 767.999994" height="1024" preserveAspectRatio="xMidYMid meet" version="1.0"><path fill="#26477a" d="M 704.355469 445.851562 C 700.734375 445.871094 697.148438 445.53125 693.59375 444.828125 C 690.039062 444.125 686.59375 443.074219 683.25 441.675781 C 679.910156 440.273438 676.742188 438.554688 673.75 436.515625 C 670.753906 434.476562 667.996094 432.160156 665.472656 429.5625 C 664.296875 428.484375 663.097656 427.4375 661.875 426.417969 C 660.652344 425.398438 659.40625 424.40625 658.136719 423.441406 C 656.867188 422.480469 655.574219 421.546875 654.261719 420.644531 C 652.949219 419.742188 651.617188 418.871094 650.265625 418.027344 C 648.914062 417.1875 647.542969 416.378906 646.152344 415.601562 C 644.761719 414.824219 643.351562 414.078125 641.929688 413.367188 C 640.503906 412.65625 639.0625 411.976562 637.605469 411.332031 C 636.148438 410.683594 634.679688 410.074219 633.195312 409.496094 C 631.710938 408.917969 630.214844 408.375 628.703125 407.867188 C 627.195312 407.363281 625.671875 406.890625 624.140625 406.453125 C 622.609375 406.015625 621.070312 405.613281 619.519531 405.246094 C 617.96875 404.882812 616.410156 404.550781 614.84375 404.257812 C 613.277344 403.964844 611.707031 403.707031 610.128906 403.484375 C 608.550781 403.265625 606.96875 403.082031 605.382812 402.933594 C 603.796875 402.785156 602.210938 402.675781 600.617188 402.601562 C 599.027344 402.527344 597.433594 402.492188 595.84375 402.492188 C 594.25 402.492188 592.65625 402.527344 591.066406 402.601562 C 589.476562 402.675781 587.886719 402.785156 586.300781 402.933594 C 584.714844 403.082031 583.132812 403.265625 581.554688 403.484375 C 579.976562 403.707031 578.40625 403.964844 576.839844 404.257812 C 575.273438 404.550781 573.714844 404.882812 572.167969 405.246094 C 570.617188 405.613281 569.074219 406.015625 567.542969 406.453125 C 566.011719 406.890625 564.492188 407.363281 562.980469 407.871094 C 561.472656 408.375 559.972656 408.917969 558.488281 409.496094 C 557.003906 410.074219 555.535156 410.683594 554.078125 411.332031 C 552.621094 411.976562 551.179688 412.65625 549.757812 413.367188 C 548.332031 414.078125 546.925781 414.824219 545.535156 415.601562 C 544.144531 416.378906 542.773438 417.1875 541.417969 418.027344 C 540.066406 418.871094 538.734375 419.742188 537.421875 420.644531 C 536.109375 421.546875 534.816406 422.480469 533.550781 423.441406 C 532.28125 424.40625 531.035156 425.398438 529.808594 426.417969 C 528.585938 427.4375 527.386719 428.484375 526.214844 429.5625 L 525.203125 430.351562 C 489.078125 289.714844 312.953125 53.117188 305.144531 42.691406 C 304.546875 41.96875 303.910156 41.277344 303.238281 40.621094 C 302.566406 39.964844 301.855469 39.351562 301.117188 38.773438 C 300.375 38.195312 299.605469 37.660156 298.804688 37.167969 C 298.003906 36.675781 297.179688 36.230469 296.328125 35.828125 C 295.480469 35.425781 294.609375 35.074219 293.722656 34.769531 C 292.832031 34.464844 291.929688 34.207031 291.015625 34.003906 C 290.097656 33.796875 289.171875 33.644531 288.238281 33.539062 C 287.304688 33.4375 286.367188 33.382812 285.429688 33.382812 C 284.488281 33.382812 283.550781 33.4375 282.617188 33.539062 C 281.683594 33.644531 280.757812 33.796875 279.84375 34.003906 C 278.925781 34.207031 278.023438 34.464844 277.136719 34.769531 C 276.246094 35.074219 275.378906 35.425781 274.527344 35.828125 C 273.679688 36.230469 272.851562 36.675781 272.054688 37.167969 C 271.253906 37.660156 270.480469 38.195312 269.742188 38.773438 C 269 39.351562 268.292969 39.964844 267.621094 40.621094 C 266.945312 41.277344 266.3125 41.96875 265.714844 42.691406 C 242.5 73.742188 39 349.375 39 476.40625 C 39 481.953125 39.1875 487.496094 39.558594 493.03125 C 39.933594 498.5625 40.492188 504.078125 41.238281 509.578125 C 41.984375 515.074219 42.914062 520.539062 44.03125 525.972656 C 45.144531 531.40625 46.441406 536.796875 47.921875 542.140625 C 49.398438 547.488281 51.058594 552.777344 52.894531 558.011719 C 54.730469 563.246094 56.742188 568.414062 58.925781 573.511719 C 61.113281 578.609375 63.464844 583.628906 65.988281 588.570312 C 68.515625 593.507812 71.203125 598.359375 74.054688 603.117188 C 76.90625 607.875 79.914062 612.53125 83.078125 617.085938 C 86.246094 621.640625 89.5625 626.082031 93.027344 630.414062 C 96.492188 634.746094 100.101562 638.953125 103.851562 643.039062 C 107.601562 647.128906 111.484375 651.085938 115.503906 654.910156 C 119.519531 658.734375 123.664062 662.417969 127.929688 665.964844 C 132.195312 669.507812 136.574219 672.90625 141.070312 676.15625 C 145.566406 679.40625 150.167969 682.5 154.871094 685.4375 C 159.578125 688.378906 164.375 691.15625 169.265625 693.769531 C 174.160156 696.382812 179.132812 698.832031 184.191406 701.109375 C 189.25 703.386719 194.378906 705.492188 199.578125 707.425781 C 204.777344 709.359375 210.035156 711.113281 215.351562 712.691406 C 220.671875 714.269531 226.035156 715.664062 231.449219 716.878906 C 236.859375 718.09375 242.308594 719.125 247.789062 719.972656 C 253.273438 720.820312 258.777344 721.480469 264.304688 721.957031 C 269.828125 722.433594 275.367188 722.722656 280.914062 722.824219 C 286.457031 722.925781 292 722.839844 297.542969 722.566406 C 303.082031 722.292969 308.605469 721.835938 314.117188 721.1875 C 319.625 720.542969 325.105469 719.710938 330.558594 718.695312 C 336.011719 717.679688 341.425781 716.480469 346.796875 715.101562 C 352.171875 713.71875 357.492188 712.160156 362.757812 710.417969 C 368.023438 708.675781 373.226562 706.761719 378.363281 704.667969 C 383.5 702.578125 388.5625 700.3125 393.546875 697.878906 C 398.53125 695.445312 403.429688 692.847656 408.238281 690.082031 C 413.046875 687.320312 417.757812 684.394531 422.367188 681.3125 C 423.039062 680.863281 423.6875 680.382812 424.308594 679.871094 C 424.933594 679.355469 425.53125 678.816406 426.101562 678.242188 C 426.671875 677.671875 427.210938 677.074219 427.722656 676.449219 C 428.234375 675.824219 428.714844 675.175781 429.160156 674.507812 C 429.609375 673.835938 430.023438 673.140625 430.402344 672.429688 C 430.78125 671.71875 431.125 670.988281 431.433594 670.242188 C 431.742188 669.496094 432.015625 668.738281 432.246094 667.964844 C 432.480469 667.191406 432.675781 666.410156 432.832031 665.617188 C 432.988281 664.824219 433.105469 664.027344 433.183594 663.226562 C 433.261719 662.421875 433.300781 661.617188 433.300781 660.808594 C 433.300781 660.003906 433.261719 659.195312 433.179688 658.394531 C 433.101562 657.589844 432.980469 656.792969 432.824219 656 C 432.664062 655.210938 432.46875 654.429688 432.234375 653.65625 C 431.996094 652.882812 431.726562 652.125 431.414062 651.378906 C 431.105469 650.632812 430.761719 649.90625 430.378906 649.195312 C 429.996094 648.484375 429.582031 647.792969 429.132812 647.121094 C 428.683594 646.449219 428.203125 645.804688 427.691406 645.179688 C 427.179688 644.554688 426.636719 643.960938 426.0625 643.390625 C 425.492188 642.820312 424.894531 642.277344 424.269531 641.765625 C 423.644531 641.253906 423 640.777344 422.328125 640.328125 C 421.65625 639.878906 420.964844 639.464844 420.25 639.085938 C 419.539062 638.707031 418.808594 638.363281 418.0625 638.054688 C 417.316406 637.746094 416.558594 637.476562 415.785156 637.242188 C 415.011719 637.007812 414.230469 636.8125 413.4375 636.65625 C 412.644531 636.5 411.847656 636.382812 411.046875 636.304688 C 410.242188 636.226562 409.4375 636.1875 408.628906 636.1875 C 407.824219 636.191406 407.015625 636.230469 406.214844 636.308594 C 405.410156 636.390625 404.613281 636.507812 403.820312 636.667969 C 403.03125 636.824219 402.25 637.023438 401.476562 637.257812 C 400.703125 637.492188 399.945312 637.765625 399.199219 638.074219 C 398.453125 638.382812 397.726562 638.730469 397.015625 639.109375 C 396.304688 639.492188 395.613281 639.90625 394.941406 640.355469 C 391.25 642.820312 387.484375 645.160156 383.636719 647.371094 C 379.789062 649.578125 375.871094 651.65625 371.882812 653.601562 C 367.894531 655.550781 363.847656 657.359375 359.738281 659.03125 C 355.628906 660.703125 351.464844 662.234375 347.253906 663.625 C 343.039062 665.019531 338.785156 666.265625 334.484375 667.371094 C 330.1875 668.472656 325.859375 669.433594 321.496094 670.246094 C 317.132812 671.054688 312.75 671.71875 308.34375 672.234375 C 303.933594 672.75 299.515625 673.117188 295.085938 673.335938 C 290.652344 673.550781 286.21875 673.621094 281.78125 673.539062 C 277.34375 673.457031 272.917969 673.222656 268.496094 672.84375 C 264.074219 672.460938 259.671875 671.933594 255.289062 671.253906 C 250.902344 670.574219 246.546875 669.75 242.214844 668.777344 C 237.886719 667.804688 233.59375 666.6875 229.34375 665.425781 C 225.089844 664.164062 220.882812 662.757812 216.722656 661.210938 C 212.5625 659.664062 208.460938 657.980469 204.417969 656.15625 C 200.371094 654.335938 196.390625 652.375 192.480469 650.285156 C 188.566406 648.191406 184.726562 645.972656 180.964844 643.621094 C 177.203125 641.269531 173.523438 638.792969 169.925781 636.195312 C 166.332031 633.59375 162.828125 630.875 159.414062 628.039062 C 156.003906 625.203125 152.691406 622.253906 149.476562 619.195312 C 146.261719 616.136719 143.15625 612.972656 140.15625 609.699219 C 137.15625 606.429688 134.273438 603.0625 131.5 599.601562 C 128.726562 596.136719 126.074219 592.582031 123.542969 588.9375 C 121.011719 585.292969 118.605469 581.570312 116.324219 577.761719 C 114.042969 573.957031 111.890625 570.078125 109.875 566.128906 C 107.855469 562.175781 105.972656 558.160156 104.222656 554.082031 C 102.476562 550.003906 100.867188 545.871094 99.398438 541.683594 C 97.929688 537.496094 96.605469 533.265625 95.421875 528.988281 C 94.238281 524.710938 93.199219 520.402344 92.308594 516.054688 C 91.417969 511.707031 90.671875 507.335938 90.078125 502.941406 C 89.480469 498.542969 89.03125 494.132812 88.734375 489.703125 C 88.433594 485.277344 88.285156 480.84375 88.285156 476.40625 C 88.285156 391.710938 216.230469 195.726562 285.429688 99.371094 C 333.210938 166.300781 453 341.316406 477.964844 444.988281 C 472.4375 443.875 467.179688 442.011719 462.191406 439.398438 C 457.199219 436.78125 452.671875 433.519531 448.613281 429.609375 C 447.441406 428.535156 446.242188 427.484375 445.019531 426.464844 C 443.796875 425.445312 442.554688 424.453125 441.285156 423.488281 C 440.015625 422.527344 438.726562 421.59375 437.414062 420.691406 C 436.105469 419.789062 434.773438 418.914062 433.421875 418.074219 C 432.070312 417.234375 430.699219 416.421875 429.308594 415.644531 C 427.917969 414.867188 426.511719 414.121094 425.089844 413.410156 C 423.664062 412.699219 422.222656 412.019531 420.769531 411.375 C 419.3125 410.726562 417.84375 410.117188 416.359375 409.539062 C 414.875 408.960938 413.378906 408.417969 411.871094 407.910156 C 410.359375 407.402344 408.839844 406.929688 407.308594 406.492188 C 405.777344 406.054688 404.238281 405.652344 402.6875 405.285156 C 401.140625 404.921875 399.582031 404.589844 398.015625 404.296875 C 396.453125 404.003906 394.882812 403.746094 393.304688 403.527344 C 391.726562 403.304688 390.144531 403.121094 388.5625 402.972656 C 386.976562 402.824219 385.386719 402.714844 383.796875 402.640625 C 382.207031 402.566406 380.613281 402.53125 379.023438 402.53125 C 377.429688 402.53125 375.839844 402.566406 374.246094 402.640625 C 372.65625 402.714844 371.070312 402.824219 369.484375 402.972656 C 367.898438 403.121094 366.316406 403.304688 364.738281 403.527344 C 363.164062 403.746094 361.59375 404.003906 360.027344 404.296875 C 358.460938 404.589844 356.90625 404.921875 355.355469 405.289062 C 353.804688 405.652344 352.265625 406.054688 350.734375 406.492188 C 349.203125 406.929688 347.683594 407.402344 346.175781 407.910156 C 344.664062 408.417969 343.167969 408.960938 341.683594 409.539062 C 340.199219 410.117188 338.730469 410.726562 337.277344 411.375 C 335.820312 412.019531 334.378906 412.699219 332.957031 413.410156 C 331.53125 414.121094 330.125 414.867188 328.734375 415.644531 C 327.347656 416.421875 325.976562 417.234375 324.625 418.074219 C 323.273438 418.914062 321.941406 419.789062 320.628906 420.691406 C 319.316406 421.59375 318.027344 422.527344 316.757812 423.488281 C 315.492188 424.453125 314.246094 425.445312 313.023438 426.464844 C 311.800781 427.484375 310.605469 428.535156 309.429688 429.609375 C 306.914062 432.199219 304.164062 434.511719 301.179688 436.546875 C 298.195312 438.582031 295.039062 440.296875 291.707031 441.695312 C 288.378906 443.09375 284.941406 444.144531 281.398438 444.847656 C 277.855469 445.550781 274.277344 445.894531 270.667969 445.875 C 269.859375 445.875 269.054688 445.914062 268.253906 445.992188 C 267.449219 446.074219 266.652344 446.191406 265.859375 446.347656 C 265.066406 446.507812 264.285156 446.703125 263.515625 446.9375 C 262.742188 447.171875 261.984375 447.441406 261.238281 447.75 C 260.492188 448.058594 259.761719 448.402344 259.050781 448.785156 C 258.339844 449.164062 257.648438 449.578125 256.976562 450.027344 C 256.304688 450.476562 255.65625 450.957031 255.035156 451.46875 C 254.410156 451.980469 253.8125 452.523438 253.242188 453.09375 C 252.671875 453.664062 252.128906 454.261719 251.617188 454.882812 C 251.105469 455.507812 250.625 456.15625 250.175781 456.828125 C 249.730469 457.496094 249.316406 458.1875 248.933594 458.902344 C 248.554688 459.613281 248.210938 460.339844 247.902344 461.085938 C 247.589844 461.832031 247.320312 462.59375 247.085938 463.363281 C 246.851562 464.136719 246.65625 464.917969 246.5 465.710938 C 246.339844 466.5 246.222656 467.300781 246.144531 468.101562 C 246.0625 468.90625 246.023438 469.710938 246.023438 470.519531 C 246.023438 471.324219 246.0625 472.128906 246.144531 472.933594 C 246.222656 473.738281 246.339844 474.535156 246.5 475.324219 C 246.65625 476.117188 246.851562 476.898438 247.085938 477.671875 C 247.320312 478.445312 247.589844 479.203125 247.902344 479.949219 C 248.210938 480.695312 248.554688 481.421875 248.933594 482.132812 C 249.316406 482.847656 249.730469 483.539062 250.175781 484.207031 C 250.625 484.878906 251.105469 485.527344 251.617188 486.152344 C 252.128906 486.773438 252.671875 487.371094 253.242188 487.941406 C 253.8125 488.511719 254.410156 489.054688 255.035156 489.566406 C 255.65625 490.078125 256.304688 490.558594 256.976562 491.007812 C 257.648438 491.457031 258.339844 491.871094 259.050781 492.25 C 259.761719 492.632812 260.492188 492.976562 261.238281 493.285156 C 261.984375 493.59375 262.742188 493.867188 263.515625 494.097656 C 264.285156 494.332031 265.066406 494.53125 265.859375 494.6875 C 266.652344 494.84375 267.449219 494.964844 268.253906 495.042969 C 269.054688 495.121094 269.859375 495.160156 270.667969 495.160156 C 273.855469 495.1875 277.039062 495.066406 280.21875 494.792969 C 283.394531 494.515625 286.554688 494.09375 289.691406 493.515625 C 292.828125 492.941406 295.929688 492.21875 299 491.347656 C 302.070312 490.476562 305.089844 489.464844 308.0625 488.304688 C 311.03125 487.148438 313.941406 485.851562 316.792969 484.414062 C 319.640625 482.980469 322.414062 481.414062 325.113281 479.714844 C 327.8125 478.015625 330.425781 476.191406 332.953125 474.242188 C 335.476562 472.296875 337.90625 470.234375 340.234375 468.054688 C 341.496094 466.769531 342.820312 465.550781 344.203125 464.394531 C 345.585938 463.242188 347.023438 462.160156 348.511719 461.148438 C 350.003906 460.136719 351.539062 459.203125 353.125 458.34375 C 354.707031 457.488281 356.328125 456.710938 357.992188 456.011719 C 359.652344 455.316406 361.34375 454.703125 363.0625 454.175781 C 364.785156 453.644531 366.53125 453.203125 368.296875 452.847656 C 370.0625 452.492188 371.839844 452.226562 373.632812 452.046875 C 375.425781 451.871094 377.222656 451.78125 379.023438 451.78125 C 380.824219 451.78125 382.621094 451.871094 384.414062 452.046875 C 386.203125 452.226562 387.984375 452.492188 389.75 452.847656 C 391.515625 453.203125 393.257812 453.644531 394.980469 454.175781 C 396.703125 454.703125 398.394531 455.316406 400.054688 456.011719 C 401.714844 456.710938 403.335938 457.488281 404.921875 458.34375 C 406.503906 459.203125 408.042969 460.136719 409.53125 461.148438 C 411.023438 462.160156 412.460938 463.242188 413.84375 464.394531 C 415.226562 465.550781 416.546875 466.769531 417.808594 468.054688 C 418.984375 469.128906 420.183594 470.175781 421.40625 471.199219 C 422.628906 472.21875 423.875 473.210938 425.144531 474.171875 C 426.414062 475.132812 427.703125 476.066406 429.015625 476.96875 C 430.328125 477.871094 431.660156 478.746094 433.011719 479.585938 C 434.363281 480.425781 435.734375 481.234375 437.125 482.011719 C 438.515625 482.789062 439.921875 483.535156 441.347656 484.246094 C 442.773438 484.957031 444.210938 485.636719 445.667969 486.28125 C 447.125 486.929688 448.59375 487.539062 450.078125 488.117188 C 451.5625 488.695312 453.0625 489.234375 454.570312 489.742188 C 456.078125 490.25 457.601562 490.722656 459.132812 491.160156 C 460.664062 491.597656 462.203125 492 463.753906 492.367188 C 465.304688 492.730469 466.863281 493.0625 468.425781 493.355469 C 469.992188 493.648438 471.5625 493.90625 473.140625 494.125 C 474.71875 494.347656 476.300781 494.53125 477.886719 494.679688 C 479.472656 494.828125 481.058594 494.9375 482.652344 495.011719 C 484.242188 495.085938 485.832031 495.121094 487.425781 495.121094 C 489.019531 495.121094 490.609375 495.085938 492.203125 495.011719 C 493.792969 494.9375 495.378906 494.828125 496.964844 494.679688 C 498.550781 494.53125 500.132812 494.347656 501.710938 494.125 C 503.289062 493.90625 504.859375 493.648438 506.425781 493.355469 C 507.992188 493.0625 509.546875 492.730469 511.097656 492.367188 C 512.648438 492 514.1875 491.597656 515.71875 491.160156 C 517.25 490.722656 518.773438 490.25 520.28125 489.742188 C 521.792969 489.234375 523.289062 488.695312 524.773438 488.117188 C 526.257812 487.539062 527.726562 486.929688 529.183594 486.28125 C 530.640625 485.636719 532.078125 484.957031 533.503906 484.246094 C 534.929688 483.535156 536.335938 482.789062 537.726562 482.011719 C 539.117188 481.234375 540.488281 480.425781 541.839844 479.585938 C 543.191406 478.746094 544.523438 477.871094 545.835938 476.96875 C 547.148438 476.066406 548.441406 475.132812 549.707031 474.171875 C 550.976562 473.210938 552.222656 472.21875 553.445312 471.199219 C 554.667969 470.175781 555.867188 469.128906 557.042969 468.054688 C 558.308594 466.765625 559.632812 465.546875 561.019531 464.390625 C 562.40625 463.238281 563.847656 462.152344 565.34375 461.140625 C 566.835938 460.128906 568.378906 459.195312 569.964844 458.335938 C 571.550781 457.476562 573.175781 456.699219 574.84375 456.003906 C 576.507812 455.304688 578.203125 454.691406 579.925781 454.164062 C 581.652344 453.632812 583.398438 453.191406 585.167969 452.835938 C 586.9375 452.480469 588.71875 452.210938 590.515625 452.035156 C 592.3125 451.855469 594.113281 451.765625 595.917969 451.765625 C 597.722656 451.765625 599.519531 451.855469 601.316406 452.035156 C 603.113281 452.210938 604.894531 452.480469 606.664062 452.835938 C 608.433594 453.191406 610.179688 453.632812 611.90625 454.164062 C 613.632812 454.691406 615.324219 455.304688 616.992188 456.003906 C 618.65625 456.699219 620.28125 457.476562 621.867188 458.335938 C 623.453125 459.195312 624.996094 460.128906 626.488281 461.140625 C 627.984375 462.152344 629.425781 463.238281 630.8125 464.390625 C 632.199219 465.546875 633.523438 466.765625 634.789062 468.054688 C 637.121094 470.230469 639.550781 472.289062 642.078125 474.234375 C 644.605469 476.179688 647.21875 478 649.917969 479.695312 C 652.621094 481.390625 655.394531 482.957031 658.242188 484.390625 C 661.089844 485.824219 664 487.117188 666.972656 488.273438 C 669.945312 489.433594 672.964844 490.445312 676.03125 491.316406 C 679.101562 492.183594 682.203125 492.910156 685.339844 493.484375 C 688.476562 494.058594 691.632812 494.484375 694.808594 494.761719 C 697.984375 495.039062 701.167969 495.164062 704.355469 495.136719 C 705.164062 495.136719 705.96875 495.097656 706.773438 495.015625 C 707.574219 494.9375 708.375 494.820312 709.164062 494.664062 C 709.957031 494.503906 710.738281 494.308594 711.511719 494.074219 C 712.28125 493.839844 713.042969 493.570312 713.789062 493.261719 C 714.53125 492.953125 715.261719 492.605469 715.972656 492.226562 C 716.683594 491.847656 717.375 491.429688 718.046875 490.984375 C 718.71875 490.535156 719.367188 490.054688 719.992188 489.542969 C 720.613281 489.03125 721.210938 488.488281 721.78125 487.917969 C 722.351562 487.347656 722.894531 486.75 723.40625 486.125 C 723.917969 485.503906 724.398438 484.855469 724.847656 484.183594 C 725.296875 483.511719 725.710938 482.820312 726.089844 482.109375 C 726.46875 481.398438 726.816406 480.667969 727.125 479.921875 C 727.433594 479.179688 727.703125 478.417969 727.9375 477.648438 C 728.171875 476.875 728.367188 476.09375 728.527344 475.300781 C 728.683594 474.507812 728.800781 473.710938 728.882812 472.910156 C 728.960938 472.105469 729 471.300781 729 470.492188 C 729 469.6875 728.960938 468.882812 728.882812 468.078125 C 728.800781 467.273438 728.683594 466.476562 728.527344 465.6875 C 728.367188 464.894531 728.171875 464.113281 727.9375 463.339844 C 727.703125 462.566406 727.433594 461.808594 727.125 461.0625 C 726.816406 460.316406 726.46875 459.589844 726.089844 458.875 C 725.710938 458.164062 725.296875 457.472656 724.847656 456.800781 C 724.398438 456.132812 723.917969 455.484375 723.40625 454.859375 C 722.894531 454.234375 722.351562 453.640625 721.78125 453.066406 C 721.210938 452.496094 720.613281 451.957031 719.992188 451.445312 C 719.367188 450.933594 718.71875 450.453125 718.046875 450.003906 C 717.375 449.554688 716.683594 449.140625 715.972656 448.761719 C 715.261719 448.378906 714.53125 448.035156 713.789062 447.726562 C 713.042969 447.417969 712.28125 447.144531 711.511719 446.910156 C 710.738281 446.675781 709.957031 446.480469 709.164062 446.324219 C 708.375 446.167969 707.574219 446.046875 706.773438 445.96875 C 705.96875 445.890625 705.164062 445.851562 704.355469 445.851562 Z M 704.355469 445.851562 " fill-opacity="1" fill-rule="nonzero"/><path fill="#26477a" d="M 704.355469 547.378906 C 700.734375 547.402344 697.148438 547.058594 693.59375 546.355469 C 690.039062 545.652344 686.59375 544.601562 683.25 543.203125 C 679.910156 541.804688 676.742188 540.082031 673.75 538.042969 C 670.753906 536.003906 667.996094 533.6875 665.472656 531.089844 C 664.296875 530.015625 663.097656 528.964844 661.875 527.945312 C 660.652344 526.925781 659.40625 525.933594 658.136719 524.972656 C 656.867188 524.007812 655.574219 523.074219 654.261719 522.171875 C 652.949219 521.269531 651.617188 520.398438 650.265625 519.558594 C 648.914062 518.714844 647.542969 517.90625 646.152344 517.128906 C 644.761719 516.351562 643.351562 515.609375 641.929688 514.894531 C 640.503906 514.183594 639.0625 513.503906 637.605469 512.859375 C 636.148438 512.214844 634.679688 511.601562 633.195312 511.023438 C 631.710938 510.449219 630.214844 509.90625 628.703125 509.398438 C 627.195312 508.890625 625.671875 508.417969 624.140625 507.980469 C 622.609375 507.542969 621.070312 507.140625 619.519531 506.773438 C 617.96875 506.410156 616.410156 506.078125 614.84375 505.785156 C 613.277344 505.492188 611.707031 505.234375 610.128906 505.015625 C 608.550781 504.792969 606.96875 504.609375 605.382812 504.460938 C 603.796875 504.316406 602.210938 504.203125 600.617188 504.128906 C 599.027344 504.054688 597.433594 504.019531 595.84375 504.019531 C 594.25 504.019531 592.65625 504.054688 591.066406 504.128906 C 589.476562 504.203125 587.886719 504.316406 586.300781 504.460938 C 584.714844 504.609375 583.132812 504.792969 581.554688 505.015625 C 579.976562 505.234375 578.40625 505.492188 576.839844 505.785156 C 575.273438 506.078125 573.714844 506.410156 572.167969 506.777344 C 570.617188 507.140625 569.074219 507.542969 567.542969 507.980469 C 566.011719 508.417969 564.492188 508.890625 562.980469 509.398438 C 561.472656 509.90625 559.972656 510.449219 558.488281 511.023438 C 557.003906 511.601562 555.535156 512.214844 554.078125 512.859375 C 552.621094 513.503906 551.179688 514.183594 549.757812 514.894531 C 548.332031 515.609375 546.925781 516.351562 545.535156 517.128906 C 544.144531 517.90625 542.773438 518.714844 541.417969 519.558594 C 540.066406 520.398438 538.734375 521.269531 537.421875 522.171875 C 536.109375 523.074219 534.816406 524.007812 533.550781 524.972656 C 532.28125 525.933594 531.035156 526.925781 529.808594 527.945312 C 528.585938 528.964844 527.386719 530.015625 526.214844 531.089844 C 524.949219 532.375 523.625 533.597656 522.242188 534.753906 C 520.855469 535.90625 519.417969 536.992188 517.925781 538.003906 C 516.433594 539.015625 514.894531 539.949219 513.308594 540.808594 C 511.722656 541.667969 510.097656 542.445312 508.433594 543.144531 C 506.773438 543.839844 505.078125 544.457031 503.355469 544.984375 C 501.628906 545.515625 499.882812 545.957031 498.117188 546.3125 C 496.347656 546.667969 494.566406 546.933594 492.773438 547.113281 C 490.980469 547.292969 489.179688 547.382812 487.375 547.382812 C 485.574219 547.382812 483.773438 547.292969 481.980469 547.113281 C 480.1875 546.933594 478.40625 546.667969 476.636719 546.3125 C 474.867188 545.957031 473.121094 545.515625 471.398438 544.984375 C 469.675781 544.457031 467.980469 543.839844 466.320312 543.144531 C 464.65625 542.445312 463.03125 541.667969 461.445312 540.808594 C 459.859375 539.949219 458.320312 539.015625 456.828125 538.003906 C 455.335938 536.992188 453.898438 535.90625 452.511719 534.753906 C 451.128906 533.597656 449.804688 532.375 448.539062 531.089844 C 447.367188 530.015625 446.167969 528.964844 444.945312 527.945312 C 443.722656 526.925781 442.480469 525.933594 441.210938 524.96875 C 439.941406 524.007812 438.652344 523.074219 437.339844 522.171875 C 436.03125 521.265625 434.699219 520.394531 433.347656 519.554688 C 431.996094 518.710938 430.625 517.902344 429.234375 517.125 C 427.84375 516.347656 426.4375 515.601562 425.015625 514.890625 C 423.589844 514.175781 422.148438 513.5 420.695312 512.851562 C 419.238281 512.207031 417.769531 511.59375 416.285156 511.019531 C 414.800781 510.441406 413.304688 509.898438 411.796875 509.390625 C 410.285156 508.882812 408.765625 508.410156 407.234375 507.972656 C 405.703125 507.535156 404.164062 507.132812 402.613281 506.765625 C 401.066406 506.402344 399.507812 506.070312 397.941406 505.777344 C 396.378906 505.484375 394.808594 505.226562 393.230469 505.003906 C 391.652344 504.785156 390.070312 504.601562 388.488281 504.453125 C 386.902344 504.304688 385.3125 504.195312 383.722656 504.121094 C 382.132812 504.046875 380.539062 504.007812 378.949219 504.007812 C 377.355469 504.007812 375.765625 504.046875 374.175781 504.121094 C 372.582031 504.195312 370.996094 504.304688 369.410156 504.453125 C 367.824219 504.601562 366.242188 504.785156 364.667969 505.003906 C 363.089844 505.226562 361.519531 505.484375 359.953125 505.777344 C 358.386719 506.070312 356.832031 506.402344 355.28125 506.765625 C 353.730469 507.132812 352.191406 507.535156 350.660156 507.972656 C 349.128906 508.410156 347.609375 508.882812 346.101562 509.390625 C 344.589844 509.898438 343.09375 510.441406 341.609375 511.019531 C 340.125 511.59375 338.65625 512.207031 337.203125 512.851562 C 335.746094 513.5 334.304688 514.175781 332.882812 514.890625 C 331.457031 515.601562 330.050781 516.347656 328.660156 517.125 C 327.273438 517.902344 325.902344 518.710938 324.550781 519.554688 C 323.199219 520.394531 321.867188 521.265625 320.554688 522.171875 C 319.242188 523.074219 317.953125 524.007812 316.6875 524.96875 C 315.417969 525.933594 314.171875 526.925781 312.949219 527.945312 C 311.726562 528.964844 310.53125 530.015625 309.355469 531.089844 C 306.839844 533.679688 304.089844 535.992188 301.105469 538.027344 C 298.121094 540.0625 294.964844 541.777344 291.632812 543.175781 C 288.304688 544.574219 284.867188 545.621094 281.324219 546.328125 C 277.78125 547.03125 274.207031 547.371094 270.59375 547.355469 C 269.785156 547.355469 268.980469 547.394531 268.179688 547.472656 C 267.375 547.550781 266.578125 547.671875 265.785156 547.828125 C 264.996094 547.984375 264.210938 548.179688 263.441406 548.414062 C 262.667969 548.648438 261.910156 548.921875 261.164062 549.230469 C 260.417969 549.539062 259.6875 549.882812 258.976562 550.265625 C 258.265625 550.644531 257.574219 551.058594 256.902344 551.507812 C 256.230469 551.957031 255.585938 552.4375 254.960938 552.949219 C 254.335938 553.460938 253.738281 554 253.167969 554.570312 C 252.597656 555.144531 252.054688 555.738281 251.542969 556.363281 C 251.03125 556.988281 250.550781 557.636719 250.105469 558.304688 C 249.65625 558.976562 249.242188 559.667969 248.859375 560.378906 C 248.480469 561.09375 248.136719 561.820312 247.828125 562.566406 C 247.519531 563.3125 247.246094 564.070312 247.011719 564.84375 C 246.777344 565.617188 246.582031 566.398438 246.425781 567.191406 C 246.265625 567.980469 246.148438 568.777344 246.070312 569.582031 C 245.992188 570.386719 245.949219 571.191406 245.949219 571.996094 C 245.949219 572.804688 245.992188 573.609375 246.070312 574.414062 C 246.148438 575.214844 246.265625 576.011719 246.425781 576.804688 C 246.582031 577.597656 246.777344 578.378906 247.011719 579.152344 C 247.246094 579.921875 247.519531 580.683594 247.828125 581.425781 C 248.136719 582.171875 248.480469 582.902344 248.859375 583.613281 C 249.242188 584.324219 249.65625 585.015625 250.105469 585.6875 C 250.550781 586.359375 251.03125 587.007812 251.542969 587.628906 C 252.054688 588.253906 252.597656 588.851562 253.167969 589.421875 C 253.738281 589.992188 254.335938 590.535156 254.960938 591.046875 C 255.585938 591.558594 256.230469 592.039062 256.902344 592.488281 C 257.574219 592.933594 258.265625 593.351562 258.976562 593.730469 C 259.6875 594.109375 260.417969 594.457031 261.164062 594.765625 C 261.910156 595.074219 262.667969 595.34375 263.441406 595.578125 C 264.210938 595.8125 264.996094 596.007812 265.785156 596.167969 C 266.578125 596.324219 267.375 596.441406 268.179688 596.519531 C 268.980469 596.601562 269.785156 596.640625 270.59375 596.640625 C 273.78125 596.667969 276.964844 596.546875 280.144531 596.269531 C 283.324219 595.996094 286.480469 595.570312 289.617188 594.996094 C 292.753906 594.421875 295.859375 593.699219 298.925781 592.828125 C 301.996094 591.957031 305.015625 590.941406 307.988281 589.785156 C 310.960938 588.628906 313.871094 587.332031 316.71875 585.894531 C 319.566406 584.460938 322.339844 582.894531 325.039062 581.195312 C 327.738281 579.496094 330.351562 577.671875 332.878906 575.722656 C 335.402344 573.773438 337.832031 571.710938 340.160156 569.53125 C 341.421875 568.246094 342.746094 567.027344 344.128906 565.875 C 345.511719 564.722656 346.949219 563.640625 348.4375 562.628906 C 349.929688 561.617188 351.464844 560.683594 353.050781 559.824219 C 354.632812 558.96875 356.253906 558.1875 357.917969 557.492188 C 359.578125 556.796875 361.269531 556.183594 362.992188 555.65625 C 364.710938 555.125 366.457031 554.683594 368.222656 554.328125 C 369.988281 553.972656 371.765625 553.707031 373.558594 553.527344 C 375.351562 553.347656 377.148438 553.257812 378.949219 553.257812 C 380.75 553.257812 382.546875 553.347656 384.339844 553.527344 C 386.128906 553.707031 387.910156 553.972656 389.675781 554.328125 C 391.441406 554.683594 393.183594 555.125 394.90625 555.65625 C 396.628906 556.183594 398.320312 556.796875 399.980469 557.492188 C 401.640625 558.1875 403.261719 558.96875 404.847656 559.824219 C 406.429688 560.683594 407.96875 561.617188 409.457031 562.628906 C 410.949219 563.640625 412.386719 564.722656 413.769531 565.875 C 415.152344 567.027344 416.472656 568.246094 417.734375 569.53125 C 418.910156 570.609375 420.109375 571.65625 421.332031 572.675781 C 422.554688 573.695312 423.800781 574.6875 425.070312 575.652344 C 426.339844 576.613281 427.628906 577.546875 428.941406 578.449219 C 430.253906 579.351562 431.585938 580.222656 432.9375 581.0625 C 434.289062 581.90625 435.660156 582.714844 437.050781 583.492188 C 438.441406 584.269531 439.847656 585.015625 441.273438 585.726562 C 442.699219 586.4375 444.140625 587.117188 445.59375 587.761719 C 447.050781 588.40625 448.519531 589.019531 450.003906 589.597656 C 451.488281 590.171875 452.988281 590.714844 454.496094 591.222656 C 456.007812 591.730469 457.527344 592.203125 459.058594 592.640625 C 460.589844 593.078125 462.128906 593.480469 463.679688 593.84375 C 465.230469 594.210938 466.789062 594.539062 468.351562 594.835938 C 469.917969 595.128906 471.488281 595.386719 473.066406 595.605469 C 474.644531 595.828125 476.226562 596.011719 477.8125 596.160156 C 479.398438 596.304688 480.984375 596.417969 482.578125 596.488281 C 484.167969 596.5625 485.757812 596.601562 487.351562 596.601562 C 488.945312 596.601562 490.535156 596.5625 492.128906 596.488281 C 493.71875 596.417969 495.308594 596.304688 496.890625 596.160156 C 498.476562 596.011719 500.058594 595.828125 501.636719 595.605469 C 503.214844 595.386719 504.785156 595.128906 506.351562 594.835938 C 507.917969 594.539062 509.472656 594.210938 511.023438 593.84375 C 512.574219 593.480469 514.113281 593.078125 515.644531 592.640625 C 517.179688 592.203125 518.699219 591.730469 520.207031 591.222656 C 521.71875 590.714844 523.214844 590.171875 524.699219 589.597656 C 526.183594 589.019531 527.652344 588.40625 529.109375 587.761719 C 530.566406 587.117188 532.003906 586.4375 533.429688 585.726562 C 534.855469 585.015625 536.261719 584.269531 537.652344 583.492188 C 539.042969 582.714844 540.414062 581.90625 541.765625 581.0625 C 543.117188 580.222656 544.449219 579.351562 545.761719 578.449219 C 547.074219 577.546875 548.367188 576.613281 549.632812 575.652344 C 550.902344 574.6875 552.148438 573.699219 553.371094 572.675781 C 554.59375 571.65625 555.792969 570.609375 556.96875 569.53125 C 558.234375 568.246094 559.558594 567.027344 560.945312 565.871094 C 562.332031 564.714844 563.773438 563.632812 565.269531 562.621094 C 566.761719 561.609375 568.304688 560.675781 569.890625 559.816406 C 571.476562 558.957031 573.105469 558.179688 574.769531 557.480469 C 576.433594 556.785156 578.128906 556.171875 579.851562 555.640625 C 581.578125 555.113281 583.324219 554.671875 585.09375 554.316406 C 586.863281 553.960938 588.644531 553.691406 590.441406 553.511719 C 592.238281 553.335938 594.039062 553.246094 595.84375 553.246094 C 597.648438 553.246094 599.445312 553.335938 601.242188 553.511719 C 603.039062 553.691406 604.820312 553.960938 606.589844 554.316406 C 608.359375 554.671875 610.105469 555.113281 611.832031 555.640625 C 613.558594 556.171875 615.253906 556.785156 616.917969 557.480469 C 618.582031 558.179688 620.207031 558.957031 621.792969 559.816406 C 623.382812 560.675781 624.921875 561.609375 626.417969 562.621094 C 627.910156 563.632812 629.351562 564.714844 630.738281 565.871094 C 632.125 567.027344 633.449219 568.246094 634.714844 569.53125 C 637.050781 571.710938 639.480469 573.777344 642.007812 575.726562 C 644.539062 577.671875 647.15625 579.496094 649.855469 581.199219 C 652.558594 582.898438 655.335938 584.464844 658.1875 585.902344 C 661.039062 587.335938 663.953125 588.636719 666.929688 589.792969 C 669.902344 590.953125 672.925781 591.96875 675.996094 592.839844 C 679.070312 593.710938 682.175781 594.4375 685.316406 595.011719 C 688.457031 595.589844 691.617188 596.015625 694.796875 596.292969 C 697.976562 596.566406 701.164062 596.691406 704.355469 596.664062 C 705.164062 596.664062 705.96875 596.625 706.773438 596.546875 C 707.574219 596.46875 708.375 596.347656 709.164062 596.191406 C 709.957031 596.035156 710.738281 595.835938 711.511719 595.601562 C 712.28125 595.371094 713.042969 595.097656 713.789062 594.789062 C 714.53125 594.480469 715.261719 594.136719 715.972656 593.753906 C 716.683594 593.375 717.375 592.960938 718.046875 592.511719 C 718.71875 592.0625 719.367188 591.582031 719.992188 591.070312 C 720.613281 590.558594 721.210938 590.019531 721.78125 589.445312 C 722.351562 588.875 722.894531 588.277344 723.40625 587.65625 C 723.917969 587.03125 724.398438 586.382812 724.847656 585.710938 C 725.296875 585.042969 725.710938 584.351562 726.089844 583.636719 C 726.46875 582.925781 726.816406 582.199219 727.125 581.453125 C 727.433594 580.707031 727.703125 579.949219 727.9375 579.175781 C 728.171875 578.402344 728.367188 577.621094 728.527344 576.828125 C 728.683594 576.039062 728.800781 575.242188 728.882812 574.4375 C 728.960938 573.632812 729 572.828125 729 572.023438 C 729 571.214844 728.960938 570.410156 728.882812 569.605469 C 728.800781 568.804688 728.683594 568.003906 728.527344 567.214844 C 728.367188 566.421875 728.171875 565.640625 727.9375 564.867188 C 727.703125 564.097656 727.433594 563.335938 727.125 562.589844 C 726.816406 561.84375 726.46875 561.117188 726.089844 560.40625 C 725.710938 559.695312 725.296875 559.003906 724.847656 558.332031 C 724.398438 557.660156 723.917969 557.011719 723.40625 556.386719 C 722.894531 555.765625 722.351562 555.167969 721.78125 554.597656 C 721.210938 554.027344 720.613281 553.484375 719.992188 552.972656 C 719.367188 552.460938 718.71875 551.980469 718.046875 551.53125 C 717.375 551.082031 716.683594 550.667969 715.972656 550.289062 C 715.261719 549.910156 714.53125 549.5625 713.789062 549.253906 C 713.042969 548.945312 712.28125 548.675781 711.511719 548.441406 C 710.738281 548.207031 709.957031 548.011719 709.164062 547.851562 C 708.375 547.695312 707.574219 547.578125 706.773438 547.496094 C 705.96875 547.417969 705.164062 547.378906 704.355469 547.378906 Z M 704.355469 547.378906 " fill-opacity="1" fill-rule="nonzero"/><path fill="#26477a" d="M 618.105469 353.191406 C 619.921875 353.191406 621.734375 353.148438 623.546875 353.058594 C 625.359375 352.96875 627.171875 352.835938 628.976562 352.660156 C 630.78125 352.480469 632.582031 352.257812 634.378906 351.992188 C 636.171875 351.726562 637.960938 351.417969 639.742188 351.0625 C 641.519531 350.707031 643.292969 350.3125 645.050781 349.871094 C 646.8125 349.429688 648.5625 348.945312 650.296875 348.417969 C 652.035156 347.890625 653.757812 347.320312 655.464844 346.710938 C 657.175781 346.097656 658.867188 345.445312 660.542969 344.753906 C 662.21875 344.058594 663.878906 343.320312 665.519531 342.546875 C 667.160156 341.769531 668.78125 340.953125 670.382812 340.097656 C 671.980469 339.242188 673.5625 338.347656 675.117188 337.417969 C 676.675781 336.484375 678.207031 335.511719 679.714844 334.503906 C 681.226562 333.496094 682.707031 332.453125 684.164062 331.371094 C 685.625 330.289062 687.054688 329.171875 688.457031 328.023438 C 689.859375 326.871094 691.234375 325.683594 692.578125 324.464844 C 693.921875 323.246094 695.238281 321.996094 696.519531 320.714844 C 697.804688 319.429688 699.054688 318.117188 700.273438 316.769531 C 701.492188 315.425781 702.675781 314.054688 703.828125 312.648438 C 704.980469 311.246094 706.097656 309.816406 707.175781 308.359375 C 708.257812 306.902344 709.304688 305.417969 710.3125 303.910156 C 711.320312 302.398438 712.289062 300.867188 713.222656 299.3125 C 714.15625 297.753906 715.050781 296.175781 715.90625 294.574219 C 716.761719 292.972656 717.578125 291.355469 718.351562 289.714844 C 719.128906 288.074219 719.863281 286.414062 720.558594 284.738281 C 721.253906 283.058594 721.90625 281.367188 722.515625 279.660156 C 723.128906 277.949219 723.699219 276.226562 724.226562 274.492188 C 724.75 272.753906 725.234375 271.003906 725.675781 269.246094 C 726.117188 267.484375 726.515625 265.714844 726.867188 263.933594 C 727.222656 262.15625 727.535156 260.367188 727.800781 258.570312 C 728.066406 256.777344 728.289062 254.976562 728.464844 253.167969 C 728.644531 251.363281 728.777344 249.554688 728.867188 247.742188 C 728.957031 245.929688 729 244.117188 729 242.300781 C 729 188.996094 652.925781 87.050781 637.671875 67.140625 C 637.074219 66.425781 636.441406 65.75 635.769531 65.109375 C 635.097656 64.464844 634.394531 63.863281 633.65625 63.296875 C 632.917969 62.730469 632.152344 62.207031 631.355469 61.726562 C 630.5625 61.242188 629.742188 60.804688 628.898438 60.414062 C 628.058594 60.019531 627.195312 59.675781 626.316406 59.375 C 625.4375 59.078125 624.542969 58.828125 623.632812 58.625 C 622.726562 58.425781 621.8125 58.273438 620.886719 58.171875 C 619.964844 58.074219 619.035156 58.023438 618.105469 58.023438 C 617.175781 58.023438 616.25 58.074219 615.328125 58.171875 C 614.402344 58.273438 613.488281 58.425781 612.578125 58.625 C 611.671875 58.828125 610.777344 59.078125 609.898438 59.375 C 609.019531 59.675781 608.15625 60.019531 607.3125 60.414062 C 606.472656 60.804688 605.652344 61.242188 604.859375 61.726562 C 604.0625 62.207031 603.296875 62.730469 602.558594 63.296875 C 601.820312 63.863281 601.117188 64.464844 600.445312 65.109375 C 599.773438 65.75 599.136719 66.425781 598.539062 67.140625 C 583.285156 87.050781 507.214844 188.996094 507.214844 242.300781 C 507.214844 244.117188 507.257812 245.929688 507.347656 247.742188 C 507.4375 249.554688 507.570312 251.363281 507.75 253.167969 C 507.925781 254.976562 508.148438 256.777344 508.414062 258.570312 C 508.679688 260.367188 508.992188 262.15625 509.34375 263.933594 C 509.699219 265.714844 510.097656 267.484375 510.539062 269.246094 C 510.976562 271.003906 511.460938 272.753906 511.988281 274.492188 C 512.515625 276.226562 513.085938 277.949219 513.695312 279.660156 C 514.308594 281.367188 514.960938 283.058594 515.65625 284.738281 C 516.351562 286.414062 517.085938 288.074219 517.859375 289.714844 C 518.636719 291.355469 519.453125 292.972656 520.308594 294.574219 C 521.164062 296.175781 522.058594 297.753906 522.992188 299.3125 C 523.925781 300.867188 524.894531 302.398438 525.902344 303.910156 C 526.910156 305.417969 527.957031 306.902344 529.035156 308.359375 C 530.117188 309.816406 531.234375 311.246094 532.386719 312.648438 C 533.535156 314.054688 534.722656 315.425781 535.941406 316.769531 C 537.160156 318.117188 538.410156 319.429688 539.695312 320.714844 C 540.976562 321.996094 542.292969 323.246094 543.636719 324.464844 C 544.980469 325.683594 546.355469 326.871094 547.757812 328.023438 C 549.160156 329.171875 550.589844 330.289062 552.046875 331.371094 C 553.507812 332.453125 554.988281 333.496094 556.5 334.503906 C 558.007812 335.511719 559.539062 336.484375 561.097656 337.417969 C 562.652344 338.347656 564.230469 339.242188 565.832031 340.097656 C 567.433594 340.953125 569.054688 341.769531 570.695312 342.546875 C 572.335938 343.320312 573.992188 344.058594 575.671875 344.753906 C 577.347656 345.445312 579.039062 346.097656 580.75 346.710938 C 582.457031 347.320312 584.179688 347.890625 585.917969 348.417969 C 587.652344 348.945312 589.402344 349.429688 591.164062 349.871094 C 592.921875 350.3125 594.691406 350.707031 596.472656 351.0625 C 598.253906 351.417969 600.039062 351.726562 601.835938 351.992188 C 603.632812 352.257812 605.429688 352.480469 607.238281 352.660156 C 609.042969 352.835938 610.851562 352.96875 612.664062 353.058594 C 614.480469 353.148438 616.292969 353.191406 618.105469 353.191406 Z M 618.105469 124.015625 C 648.074219 166.746094 679.714844 220.121094 679.714844 242.300781 C 679.714844 244.316406 679.617188 246.332031 679.417969 248.339844 C 679.21875 250.347656 678.925781 252.339844 678.53125 254.320312 C 678.136719 256.296875 677.648438 258.253906 677.0625 260.183594 C 676.476562 262.113281 675.796875 264.011719 675.023438 265.875 C 674.253906 267.742188 673.390625 269.5625 672.441406 271.339844 C 671.488281 273.121094 670.453125 274.851562 669.332031 276.527344 C 668.210938 278.207031 667.011719 279.824219 665.730469 281.382812 C 664.449219 282.941406 663.097656 284.4375 661.667969 285.863281 C 660.242188 287.289062 658.75 288.644531 657.191406 289.921875 C 655.628906 291.203125 654.011719 292.402344 652.335938 293.523438 C 650.65625 294.644531 648.929688 295.683594 647.148438 296.632812 C 645.367188 297.585938 643.546875 298.445312 641.683594 299.21875 C 639.820312 299.988281 637.921875 300.667969 635.992188 301.253906 C 634.058594 301.839844 632.105469 302.332031 630.125 302.722656 C 628.148438 303.117188 626.152344 303.414062 624.144531 303.609375 C 622.136719 303.808594 620.125 303.90625 618.105469 303.90625 C 616.089844 303.90625 614.078125 303.808594 612.070312 303.609375 C 610.0625 303.414062 608.066406 303.117188 606.089844 302.722656 C 604.109375 302.332031 602.15625 301.839844 600.222656 301.253906 C 598.292969 300.667969 596.394531 299.988281 594.53125 299.21875 C 592.667969 298.445312 590.84375 297.585938 589.066406 296.632812 C 587.285156 295.683594 585.558594 294.644531 583.878906 293.523438 C 582.203125 292.402344 580.582031 291.203125 579.023438 289.921875 C 577.464844 288.644531 575.972656 287.289062 574.542969 285.863281 C 573.117188 284.4375 571.765625 282.941406 570.484375 281.382812 C 569.203125 279.824219 568.003906 278.207031 566.882812 276.527344 C 565.761719 274.851562 564.726562 273.121094 563.773438 271.339844 C 562.824219 269.5625 561.960938 267.742188 561.191406 265.875 C 560.417969 264.011719 559.738281 262.113281 559.152344 260.183594 C 558.566406 258.253906 558.078125 256.296875 557.683594 254.320312 C 557.289062 252.339844 556.996094 250.347656 556.796875 248.339844 C 556.597656 246.332031 556.5 244.316406 556.5 242.300781 C 556.5 220.121094 588.140625 166.746094 618.105469 124.015625 Z M 618.105469 124.015625 " fill-opacity="1" fill-rule="nonzero"/></svg>