<svg xmlns="http://www.w3.org/2000/svg" xmlns:xlink="http://www.w3.org/1999/xlink" width="1080" zoomAndPan="magnify" viewBox="0 0 810 1439.999935" height="1920" preserveAspectRatio="xMidYMid meet" version="1.0"><defs><clipPath id="b28d4b9b18"><path d="M 421 769 L 484 769 L 484 878.132812 L 421 878.132812 Z M 421 769 " clip-rule="nonzero"/></clipPath></defs><path fill="#3571aa" d="M 375.152344 787.453125 L 372.679688 789.269531 L 372.605469 789.269531 C 371.53125 790.253906 370.65625 791.390625 369.988281 792.6875 C 369.59375 793.441406 369.277344 794.226562 369.039062 795.039062 C 368.800781 795.855469 368.644531 796.6875 368.566406 797.535156 C 368.492188 798.382812 368.5 799.230469 368.59375 800.074219 C 368.683594 800.917969 368.855469 801.746094 369.113281 802.558594 C 369.367188 803.371094 369.699219 804.148438 370.105469 804.894531 C 370.515625 805.640625 370.992188 806.339844 371.539062 806.992188 C 372.085938 807.644531 372.691406 808.238281 373.351562 808.769531 C 374.015625 809.304688 374.722656 809.765625 375.480469 810.160156 C 376.234375 810.554688 377.019531 810.871094 377.835938 811.109375 C 378.652344 811.347656 379.484375 811.503906 380.332031 811.582031 C 381.179688 811.65625 382.027344 811.648438 382.871094 811.554688 C 383.71875 811.464844 384.546875 811.292969 385.359375 811.035156 C 386.171875 810.78125 386.949219 810.449219 387.695312 810.042969 C 388.445312 809.632812 389.144531 809.15625 389.796875 808.613281 C 390.449219 808.066406 391.042969 807.460938 391.574219 806.800781 C 392.109375 806.136719 392.570312 805.429688 392.964844 804.675781 C 393.691406 803.386719 394.128906 802.003906 394.273438 800.53125 L 394.347656 800.53125 L 394.347656 797.410156 L 394.785156 773.140625 Z M 375.152344 787.453125 " fill-opacity="1" fill-rule="nonzero"/><path fill="#3571aa" d="M 318.945312 863.308594 L 317.492188 864.328125 C 316.835938 864.910156 316.304688 865.589844 315.890625 866.363281 C 315.710938 866.800781 315.570312 867.253906 315.472656 867.722656 C 315.375 868.1875 315.320312 868.660156 315.308594 869.132812 C 315.296875 869.609375 315.332031 870.082031 315.410156 870.554688 C 315.488281 871.023438 315.605469 871.480469 315.769531 871.929688 C 315.933594 872.378906 316.136719 872.804688 316.378906 873.214844 C 316.621094 873.625 316.898438 874.011719 317.210938 874.371094 C 317.523438 874.726562 317.867188 875.054688 318.242188 875.351562 C 318.617188 875.644531 319.015625 875.902344 319.4375 876.125 C 319.859375 876.34375 320.296875 876.523438 320.753906 876.664062 C 321.210938 876.804688 321.675781 876.902344 322.148438 876.953125 C 322.621094 877.007812 323.09375 877.019531 323.570312 876.984375 C 324.046875 876.949219 324.515625 876.871094 324.976562 876.75 C 325.4375 876.628906 325.882812 876.46875 326.3125 876.261719 C 326.742188 876.058594 327.152344 875.816406 327.539062 875.539062 C 327.921875 875.257812 328.28125 874.945312 328.609375 874.601562 C 328.9375 874.253906 329.230469 873.882812 329.488281 873.480469 C 329.886719 872.703125 330.15625 871.878906 330.289062 871.011719 L 330.289062 869.121094 L 330.507812 854.808594 Z M 318.945312 863.308594 " fill-opacity="1" fill-rule="nonzero"/><path fill="#3571aa" d="M 392.675781 851.683594 L 391.222656 852.703125 L 391.148438 852.703125 C 390.539062 853.304688 390.03125 853.984375 389.621094 854.734375 C 389.390625 855.183594 389.203125 855.648438 389.0625 856.128906 C 388.921875 856.613281 388.832031 857.105469 388.789062 857.605469 C 388.746094 858.105469 388.75 858.605469 388.804688 859.105469 C 388.859375 859.605469 388.964844 860.09375 389.117188 860.574219 C 389.269531 861.054688 389.464844 861.511719 389.707031 861.953125 C 389.949219 862.394531 390.234375 862.804688 390.558594 863.191406 C 390.882812 863.574219 391.238281 863.925781 391.632812 864.238281 C 392.027344 864.554688 392.445312 864.824219 392.890625 865.058594 C 393.339844 865.289062 393.804688 865.472656 394.285156 865.613281 C 394.769531 865.753906 395.261719 865.84375 395.761719 865.886719 C 396.265625 865.929688 396.765625 865.925781 397.265625 865.871094 C 397.765625 865.8125 398.253906 865.710938 398.734375 865.558594 C 399.214844 865.40625 399.671875 865.210938 400.113281 864.964844 C 400.554688 864.722656 400.96875 864.441406 401.351562 864.117188 C 401.738281 863.792969 402.085938 863.433594 402.398438 863.042969 C 402.714844 862.648438 402.988281 862.230469 403.21875 861.785156 C 403.628906 861.03125 403.894531 860.234375 404.019531 859.386719 L 404.019531 857.496094 L 404.308594 843.183594 Z M 392.675781 851.683594 " fill-opacity="1" fill-rule="nonzero"/><path fill="#3571aa" d="M 503.269531 787.671875 L 501.742188 788.761719 C 501.109375 789.375 500.601562 790.078125 500.214844 790.871094 C 499.984375 791.316406 499.800781 791.78125 499.660156 792.261719 C 499.519531 792.746094 499.425781 793.238281 499.382812 793.738281 C 499.339844 794.238281 499.347656 794.738281 499.402344 795.238281 C 499.457031 795.738281 499.5625 796.226562 499.714844 796.707031 C 499.867188 797.183594 500.0625 797.644531 500.304688 798.085938 C 500.546875 798.523438 500.832031 798.9375 501.15625 799.320312 C 501.480469 799.707031 501.835938 800.054688 502.230469 800.367188 C 502.621094 800.683594 503.042969 800.957031 503.488281 801.1875 C 503.933594 801.417969 504.398438 801.605469 504.882812 801.742188 C 505.367188 801.882812 505.859375 801.976562 506.359375 802.019531 C 506.859375 802.0625 507.359375 802.054688 507.859375 802 C 508.359375 801.945312 508.847656 801.839844 509.328125 801.6875 C 509.808594 801.539062 510.269531 801.339844 510.707031 801.097656 C 511.148438 800.855469 511.5625 800.574219 511.945312 800.25 C 512.332031 799.925781 512.679688 799.566406 512.996094 799.175781 C 513.308594 798.78125 513.582031 798.363281 513.8125 797.917969 C 514.191406 797.128906 514.457031 796.304688 514.613281 795.445312 L 514.613281 793.628906 L 514.90625 779.246094 Z M 503.269531 787.671875 " fill-opacity="1" fill-rule="nonzero"/><path fill="#3571aa" d="M 274.300781 776.046875 L 272.84375 777.136719 C 272.207031 777.71875 271.699219 778.398438 271.320312 779.171875 C 271.027344 779.621094 270.785156 780.09375 270.59375 780.59375 C 270.402344 781.09375 270.265625 781.609375 270.179688 782.136719 C 270.097656 782.667969 270.066406 783.199219 270.09375 783.734375 C 270.121094 784.265625 270.203125 784.792969 270.339844 785.3125 C 270.472656 785.828125 270.664062 786.328125 270.902344 786.804688 C 271.144531 787.28125 271.429688 787.730469 271.761719 788.148438 C 272.097656 788.570312 272.46875 788.949219 272.882812 789.289062 C 273.296875 789.628906 273.738281 789.925781 274.214844 790.171875 C 274.6875 790.421875 275.183594 790.617188 275.699219 790.765625 C 276.214844 790.910156 276.738281 791 277.273438 791.035156 C 277.808594 791.070312 278.339844 791.050781 278.871094 790.976562 C 279.402344 790.902344 279.917969 790.773438 280.421875 790.589844 C 280.925781 790.410156 281.40625 790.175781 281.859375 789.894531 C 282.3125 789.609375 282.734375 789.285156 283.121094 788.914062 C 283.507812 788.542969 283.855469 788.140625 284.15625 787.695312 C 284.457031 787.253906 284.710938 786.785156 284.914062 786.292969 C 285.304688 785.511719 285.546875 784.6875 285.644531 783.820312 L 285.714844 783.820312 L 285.714844 782.003906 L 285.933594 767.617188 Z M 274.300781 776.046875 " fill-opacity="1" fill-rule="nonzero"/><path fill="#6b99d2" d="M 393.113281 628.625 L 393.839844 628.625 C 392.925781 625.515625 392.46875 622.34375 392.457031 619.105469 C 392.460938 617.585938 392.570312 616.070312 392.789062 614.566406 C 393.007812 613.058594 393.332031 611.578125 393.757812 610.117188 C 394.1875 608.660156 394.714844 607.234375 395.34375 605.851562 C 395.972656 604.464844 396.699219 603.132812 397.515625 601.847656 C 398.332031 600.566406 399.238281 599.347656 400.226562 598.191406 C 401.21875 597.039062 402.285156 595.957031 403.429688 594.953125 C 404.574219 593.949219 405.78125 593.03125 407.054688 592.199219 C 408.328125 591.363281 409.652344 590.625 411.03125 589.980469 C 412.410156 589.332031 413.828125 588.789062 415.28125 588.34375 C 416.738281 587.894531 418.214844 587.554688 419.71875 587.320312 C 421.222656 587.082031 422.738281 586.953125 424.257812 586.929688 C 425.78125 586.90625 427.296875 586.992188 428.808594 587.183594 C 430.316406 587.375 431.804688 587.671875 433.273438 588.074219 C 434.742188 588.476562 436.175781 588.976562 437.570312 589.582031 C 438.96875 590.1875 440.316406 590.886719 441.613281 591.683594 C 442.910156 592.476562 444.144531 593.359375 445.320312 594.328125 C 445.640625 593.035156 446.027344 591.761719 446.46875 590.507812 C 446.914062 589.25 447.417969 588.019531 447.980469 586.8125 C 448.542969 585.605469 449.164062 584.429688 449.839844 583.28125 C 450.515625 582.132812 451.246094 581.019531 452.027344 579.941406 C 452.808594 578.863281 453.640625 577.824219 454.523438 576.828125 C 455.40625 575.828125 456.335938 574.875 457.308594 573.964844 C 458.28125 573.054688 459.296875 572.195312 460.351562 571.382812 C 461.40625 570.570312 462.5 569.808594 463.628906 569.101562 C 464.757812 568.394531 465.917969 567.742188 467.109375 567.144531 C 468.300781 566.546875 469.519531 566.007812 470.761719 565.527344 C 472.003906 565.046875 473.269531 564.628906 474.550781 564.269531 C 475.835938 563.910156 477.132812 563.613281 478.445312 563.375 C 479.757812 563.140625 481.078125 562.96875 482.40625 562.859375 C 483.734375 562.75 485.0625 562.707031 486.398438 562.726562 C 487.730469 562.742188 489.058594 562.828125 490.382812 562.972656 C 491.707031 563.117188 493.023438 563.328125 494.328125 563.597656 C 495.632812 563.871094 496.921875 564.203125 498.195312 564.597656 C 499.46875 564.992188 500.71875 565.449219 501.945312 565.964844 C 503.175781 566.476562 504.378906 567.050781 505.550781 567.679688 C 506.726562 568.308594 507.867188 568.996094 508.976562 569.734375 C 510.085938 570.472656 511.15625 571.261719 512.1875 572.105469 C 513.222656 572.945312 514.210938 573.835938 515.160156 574.773438 C 516.109375 575.707031 517.007812 576.6875 517.863281 577.710938 C 518.714844 578.734375 519.519531 579.792969 520.269531 580.894531 C 521.023438 581.992188 521.722656 583.125 522.363281 584.292969 C 523.007812 585.460938 523.59375 586.652344 524.125 587.875 C 524.652344 589.097656 525.121094 590.34375 525.53125 591.609375 C 525.941406 592.878906 526.289062 594.164062 526.574219 595.464844 C 526.863281 596.765625 527.085938 598.074219 527.246094 599.398438 C 527.40625 600.71875 527.503906 602.046875 527.539062 603.378906 C 527.570312 604.710938 527.539062 606.039062 527.445312 607.367188 C 527.351562 608.695312 527.195312 610.015625 526.976562 611.332031 C 528.707031 611.039062 530.453125 610.890625 532.210938 610.894531 C 534.121094 610.902344 536.019531 611.066406 537.902344 611.386719 C 539.785156 611.707031 541.628906 612.175781 543.4375 612.800781 C 545.242188 613.421875 546.984375 614.1875 548.667969 615.097656 C 550.347656 616.007812 551.941406 617.050781 553.449219 618.222656 C 554.957031 619.394531 556.359375 620.679688 557.65625 622.082031 C 558.953125 623.484375 560.125 624.984375 561.175781 626.582031 C 562.226562 628.175781 563.136719 629.847656 563.910156 631.59375 C 564.6875 633.335938 565.3125 635.132812 565.789062 636.984375 C 566.269531 638.832031 566.59375 640.707031 566.761719 642.609375 C 566.933594 644.511719 566.945312 646.414062 566.800781 648.316406 C 566.65625 650.222656 566.359375 652.101562 565.90625 653.957031 C 565.453125 655.808594 564.851562 657.617188 564.101562 659.371094 C 563.347656 661.128906 562.460938 662.808594 561.433594 664.417969 C 560.402344 666.027344 559.25 667.542969 557.972656 668.964844 C 556.695312 670.382812 555.3125 671.691406 553.820312 672.882812 C 552.328125 674.074219 550.746094 675.136719 549.078125 676.070312 C 546.949219 677.492188 544.65625 678.574219 542.203125 679.316406 C 539.753906 680.058594 537.246094 680.429688 534.683594 680.429688 L 393.113281 680.429688 C 392.261719 680.425781 391.414062 680.382812 390.570312 680.296875 C 389.722656 680.210938 388.886719 680.085938 388.050781 679.917969 C 387.21875 679.75 386.398438 679.542969 385.585938 679.296875 C 384.773438 679.046875 383.972656 678.761719 383.1875 678.433594 C 382.40625 678.109375 381.636719 677.746094 380.890625 677.34375 C 380.140625 676.945312 379.414062 676.507812 378.707031 676.035156 C 378 675.5625 377.320312 675.058594 376.664062 674.519531 C 376.007812 673.980469 375.378906 673.410156 374.777344 672.808594 C 374.175781 672.210938 373.605469 671.582031 373.066406 670.925781 C 372.527344 670.269531 372.023438 669.589844 371.550781 668.882812 C 371.078125 668.179688 370.640625 667.453125 370.238281 666.703125 C 369.839844 665.953125 369.476562 665.1875 369.148438 664.40625 C 368.824219 663.621094 368.535156 662.824219 368.289062 662.011719 C 368.039062 661.199219 367.832031 660.378906 367.664062 659.546875 C 367.496094 658.714844 367.371094 657.875 367.285156 657.03125 C 367.199219 656.183594 367.15625 655.339844 367.152344 654.488281 C 367.15625 653.640625 367.199219 652.796875 367.285156 651.953125 C 367.371094 651.109375 367.496094 650.269531 367.664062 649.441406 C 367.832031 648.609375 368.039062 647.789062 368.289062 646.976562 C 368.535156 646.164062 368.824219 645.367188 369.148438 644.585938 C 369.476562 643.804688 369.839844 643.039062 370.242188 642.289062 C 370.644531 641.542969 371.082031 640.816406 371.554688 640.113281 C 372.027344 639.410156 372.53125 638.730469 373.070312 638.074219 C 373.609375 637.421875 374.179688 636.792969 374.78125 636.195312 C 375.382812 635.597656 376.011719 635.027344 376.667969 634.492188 C 377.324219 633.953125 378.007812 633.449219 378.710938 632.980469 C 379.417969 632.507812 380.144531 632.074219 380.894531 631.675781 C 381.644531 631.277344 382.410156 630.914062 383.195312 630.589844 C 383.980469 630.265625 384.777344 629.980469 385.589844 629.734375 C 386.402344 629.492188 387.222656 629.285156 388.054688 629.121094 C 388.886719 628.953125 389.726562 628.832031 390.570312 628.746094 C 391.417969 628.664062 392.261719 628.625 393.113281 628.625 Z M 393.113281 628.625 " fill-opacity="1" fill-rule="nonzero"/><path fill="#26477a" d="M 509.742188 676.503906 L 508.503906 676.503906 C 509.984375 671.773438 510.710938 666.929688 510.6875 661.972656 C 510.683594 659.640625 510.519531 657.320312 510.1875 655.011719 C 509.859375 652.703125 509.367188 650.429688 508.714844 648.1875 C 508.058594 645.949219 507.253906 643.765625 506.289062 641.640625 C 505.328125 639.515625 504.222656 637.46875 502.96875 635.5 C 501.714844 633.535156 500.332031 631.664062 498.8125 629.890625 C 497.296875 628.117188 495.660156 626.460938 493.910156 624.921875 C 492.15625 623.378906 490.304688 621.96875 488.351562 620.691406 C 486.402344 619.410156 484.367188 618.277344 482.253906 617.285156 C 480.140625 616.292969 477.96875 615.457031 475.738281 614.773438 C 473.507812 614.089844 471.238281 613.566406 468.933594 613.203125 C 466.625 612.839844 464.304688 612.640625 461.972656 612.605469 C 459.636719 612.574219 457.3125 612.703125 455 612.996094 C 452.683594 613.292969 450.398438 613.746094 448.148438 614.367188 C 445.898438 614.984375 443.703125 615.757812 441.558594 616.683594 C 439.417969 617.613281 437.355469 618.6875 435.363281 619.910156 C 433.375 621.128906 431.484375 622.484375 429.6875 623.972656 C 429.269531 622.0625 428.769531 620.175781 428.183594 618.3125 C 427.59375 616.449219 426.921875 614.617188 426.167969 612.8125 C 425.410156 611.011719 424.574219 609.246094 423.65625 607.519531 C 422.738281 605.796875 421.746094 604.117188 420.671875 602.480469 C 419.601562 600.847656 418.457031 599.265625 417.238281 597.734375 C 416.023438 596.207031 414.738281 594.734375 413.386719 593.324219 C 412.035156 591.910156 410.621094 590.5625 409.144531 589.28125 C 407.667969 588 406.136719 586.785156 404.550781 585.644531 C 402.964844 584.5 401.328125 583.433594 399.644531 582.441406 C 397.960938 581.449219 396.234375 580.535156 394.464844 579.703125 C 392.695312 578.867188 390.890625 578.117188 389.054688 577.449219 C 387.21875 576.777344 385.351562 576.195312 383.460938 575.699219 C 381.570312 575.199219 379.660156 574.789062 377.734375 574.464844 C 375.804688 574.144531 373.863281 573.910156 371.914062 573.761719 C 369.964844 573.617188 368.011719 573.5625 366.054688 573.59375 C 364.101562 573.628906 362.152344 573.75 360.207031 573.964844 C 358.261719 574.175781 356.332031 574.476562 354.417969 574.863281 C 352.5 575.253906 350.605469 575.730469 348.730469 576.292969 C 346.859375 576.855469 345.015625 577.503906 343.203125 578.234375 C 341.390625 578.964844 339.613281 579.777344 337.875 580.671875 C 336.136719 581.566406 334.441406 582.539062 332.792969 583.585938 C 331.140625 584.636719 329.542969 585.757812 327.996094 586.957031 C 326.449219 588.152344 324.960938 589.414062 323.53125 590.746094 C 322.101562 592.078125 320.734375 593.472656 319.429688 594.933594 C 318.128906 596.390625 316.894531 597.902344 315.730469 599.472656 C 314.566406 601.042969 313.476562 602.664062 312.460938 604.335938 C 311.445312 606.003906 310.511719 607.71875 309.652344 609.472656 C 308.792969 611.230469 308.019531 613.023438 307.324219 614.847656 C 306.632812 616.675781 306.023438 618.53125 305.5 620.414062 C 304.976562 622.296875 304.539062 624.199219 304.191406 626.121094 C 303.84375 628.046875 303.582031 629.980469 303.410156 631.925781 C 303.242188 633.875 303.160156 635.824219 303.167969 637.777344 C 303.148438 641.886719 303.535156 645.953125 304.328125 649.984375 C 301.675781 649.605469 299.011719 649.410156 296.332031 649.402344 C 294.867188 649.40625 293.40625 649.46875 291.949219 649.59375 C 290.492188 649.714844 289.039062 649.898438 287.597656 650.140625 C 286.15625 650.382812 284.722656 650.683594 283.304688 651.046875 C 281.886719 651.40625 280.488281 651.824219 279.101562 652.296875 C 277.71875 652.773438 276.355469 653.304688 275.015625 653.890625 C 273.675781 654.480469 272.363281 655.121094 271.074219 655.816406 C 269.789062 656.511719 268.53125 657.257812 267.304688 658.054688 C 266.078125 658.855469 264.890625 659.699219 263.734375 660.597656 C 262.578125 661.492188 261.460938 662.4375 260.378906 663.425781 C 259.300781 664.410156 258.265625 665.441406 257.273438 666.515625 C 256.277344 667.589844 255.332031 668.703125 254.429688 669.851562 C 253.527344 671.003906 252.671875 672.191406 251.867188 673.410156 C 251.0625 674.632812 250.3125 675.886719 249.609375 677.167969 C 248.90625 678.453125 248.261719 679.761719 247.667969 681.097656 C 247.074219 682.433594 246.535156 683.792969 246.054688 685.171875 C 245.570312 686.554688 245.148438 687.953125 244.78125 689.367188 C 244.414062 690.78125 244.105469 692.210938 243.855469 693.652344 C 243.605469 695.09375 243.417969 696.542969 243.289062 697.996094 C 243.15625 699.453125 243.085938 700.914062 243.078125 702.375 C 243.066406 703.839844 243.117188 705.296875 243.230469 706.757812 C 243.339844 708.214844 243.507812 709.664062 243.738281 711.109375 C 243.96875 712.554688 244.257812 713.984375 244.605469 715.40625 C 244.953125 716.824219 245.359375 718.230469 245.820312 719.617188 C 246.285156 721.003906 246.804688 722.371094 247.378906 723.714844 C 247.953125 725.058594 248.585938 726.375 249.269531 727.667969 C 249.953125 728.960938 250.6875 730.222656 251.476562 731.457031 C 252.265625 732.6875 253.101562 733.886719 253.988281 735.046875 C 254.875 736.210938 255.808594 737.335938 256.789062 738.421875 C 257.765625 739.511719 258.789062 740.554688 259.855469 741.558594 C 260.917969 742.558594 262.023438 743.515625 263.167969 744.429688 C 264.3125 745.339844 265.492188 746.203125 266.707031 747.019531 C 267.921875 747.832031 269.167969 748.597656 270.445312 749.308594 C 273.707031 751.488281 277.210938 753.148438 280.964844 754.289062 C 284.71875 755.425781 288.554688 755.996094 292.476562 755.992188 L 509.742188 755.992188 C 511.042969 755.992188 512.34375 755.925781 513.636719 755.796875 C 514.933594 755.664062 516.21875 755.472656 517.496094 755.21875 C 518.773438 754.960938 520.035156 754.644531 521.28125 754.265625 C 522.523438 753.886719 523.75 753.449219 524.953125 752.949219 C 526.152344 752.449219 527.328125 751.894531 528.476562 751.277344 C 529.625 750.664062 530.738281 749.996094 531.820312 749.273438 C 532.902344 748.550781 533.949219 747.773438 534.953125 746.949219 C 535.960938 746.125 536.925781 745.25 537.84375 744.332031 C 538.765625 743.410156 539.640625 742.449219 540.464844 741.441406 C 541.292969 740.4375 542.066406 739.394531 542.789062 738.3125 C 543.515625 737.230469 544.183594 736.117188 544.796875 734.96875 C 545.414062 733.824219 545.96875 732.648438 546.46875 731.449219 C 546.96875 730.246094 547.40625 729.023438 547.785156 727.777344 C 548.164062 726.535156 548.484375 725.273438 548.738281 723.996094 C 548.996094 722.722656 549.1875 721.4375 549.316406 720.144531 C 549.445312 718.847656 549.511719 717.550781 549.515625 716.25 C 549.511719 714.949219 549.441406 713.652344 549.3125 712.359375 C 549.179688 711.066406 548.984375 709.78125 548.726562 708.503906 C 548.46875 707.230469 548.152344 705.972656 547.769531 704.726562 C 547.390625 703.484375 546.949219 702.261719 546.449219 701.0625 C 545.949219 699.863281 545.390625 698.6875 544.777344 697.542969 C 544.160156 696.398438 543.492188 695.285156 542.769531 694.203125 C 542.042969 693.121094 541.269531 692.078125 540.441406 691.074219 C 539.617188 690.070312 538.742188 689.109375 537.824219 688.1875 C 536.902344 687.269531 535.941406 686.394531 534.933594 685.570312 C 533.929688 684.746094 532.886719 683.972656 531.804688 683.246094 C 530.722656 682.523438 529.609375 681.855469 528.460938 681.242188 C 527.316406 680.625 526.140625 680.070312 524.941406 679.570312 C 523.738281 679.070312 522.515625 678.628906 521.269531 678.25 C 520.027344 677.867188 518.765625 677.550781 517.492188 677.292969 C 516.214844 677.035156 514.929688 676.839844 513.636719 676.710938 C 512.339844 676.578125 511.042969 676.511719 509.742188 676.503906 Z M 509.742188 676.503906 " fill-opacity="1" fill-rule="nonzero"/><path fill="#ffb544" d="M 330.359375 728.890625 L 361.335938 728.890625 L 330.359375 770.234375 L 356.171875 770.234375 L 299.3125 837.445312 L 319.964844 785.710938 L 299.3125 785.710938 Z M 330.359375 728.890625 " fill-opacity="1" fill-rule="nonzero"/><g clip-path="url(#b28d4b9b18)"><path fill="#ffb544" d="M 452.515625 769.582031 L 483.566406 769.582031 L 452.515625 810.921875 L 478.402344 810.921875 L 421.46875 878.132812 L 442.191406 826.472656 L 421.46875 826.472656 Z M 452.515625 769.582031 " fill-opacity="1" fill-rule="nonzero"/></g></svg>