<svg xmlns="http://www.w3.org/2000/svg" xmlns:xlink="http://www.w3.org/1999/xlink" width="1080" zoomAndPan="magnify" viewBox="0 0 810 1439.999935" height="1920" preserveAspectRatio="xMidYMid meet" version="1.0"><defs><clipPath id="9fedb2862a"><path d="M 250 680 L 552 680 L 552 859.875 L 250 859.875 Z M 250 680 " clip-rule="nonzero"/></clipPath><clipPath id="2748695358"><path d="M 493 580.125 L 502 580.125 L 502 588 L 493 588 Z M 493 580.125 " clip-rule="nonzero"/></clipPath></defs><path fill="#6b99d2" d="M 396.191406 700.527344 L 396.976562 700.527344 C 396.046875 697.503906 395.59375 694.414062 395.621094 691.253906 C 395.621094 689.761719 395.722656 688.273438 395.933594 686.796875 C 396.144531 685.316406 396.457031 683.863281 396.875 682.429688 C 397.289062 680.996094 397.804688 679.597656 398.421875 678.238281 C 399.035156 676.875 399.742188 675.566406 400.542969 674.304688 C 401.34375 673.042969 402.226562 671.847656 403.195312 670.710938 C 404.167969 669.578125 405.210938 668.515625 406.332031 667.527344 C 407.453125 666.542969 408.636719 665.640625 409.886719 664.820312 C 411.132812 664 412.433594 663.273438 413.785156 662.640625 C 415.136719 662.003906 416.527344 661.46875 417.953125 661.03125 C 419.378906 660.59375 420.832031 660.257812 422.304688 660.027344 C 423.78125 659.792969 425.265625 659.667969 426.757812 659.644531 C 428.25 659.625 429.738281 659.707031 431.21875 659.894531 C 432.699219 660.085938 434.160156 660.378906 435.597656 660.773438 C 437.039062 661.167969 438.445312 661.664062 439.8125 662.261719 C 441.183594 662.855469 442.503906 663.542969 443.773438 664.324219 C 445.046875 665.109375 446.257812 665.976562 447.40625 666.929688 C 447.667969 665.707031 447.988281 664.496094 448.367188 663.304688 C 448.742188 662.109375 449.171875 660.9375 449.652344 659.78125 C 450.136719 658.625 450.671875 657.496094 451.257812 656.390625 C 451.847656 655.285156 452.484375 654.210938 453.167969 653.160156 C 453.855469 652.113281 454.585938 651.101562 455.367188 650.121094 C 456.144531 649.140625 456.964844 648.199219 457.832031 647.292969 C 458.695312 646.390625 459.601562 645.527344 460.546875 644.707031 C 461.488281 643.882812 462.46875 643.105469 463.484375 642.375 C 464.5 641.644531 465.546875 640.960938 466.625 640.324219 C 467.703125 639.6875 468.808594 639.101562 469.941406 638.570312 C 471.074219 638.035156 472.226562 637.554688 473.402344 637.125 C 474.578125 636.695312 475.773438 636.320312 476.980469 636.003906 C 478.191406 635.683594 479.414062 635.421875 480.648438 635.214844 C 481.882812 635.007812 483.125 634.855469 484.375 634.761719 C 485.621094 634.671875 486.871094 634.632812 488.125 634.65625 C 489.375 634.675781 490.621094 634.757812 491.867188 634.890625 C 493.109375 635.027344 494.347656 635.21875 495.574219 635.46875 C 496.800781 635.71875 498.011719 636.023438 499.210938 636.382812 C 500.410156 636.746094 501.589844 637.160156 502.75 637.628906 C 503.910156 638.097656 505.046875 638.617188 506.160156 639.191406 C 507.273438 639.761719 508.359375 640.386719 509.414062 641.058594 C 510.46875 641.730469 511.492188 642.449219 512.480469 643.214844 C 513.472656 643.984375 514.425781 644.792969 515.339844 645.644531 C 516.253906 646.5 517.128906 647.394531 517.964844 648.328125 C 518.796875 649.261719 519.585938 650.230469 520.332031 651.238281 C 521.074219 652.242188 521.773438 653.28125 522.421875 654.351562 C 523.070312 655.421875 523.671875 656.519531 524.21875 657.644531 C 524.765625 658.769531 525.265625 659.917969 525.707031 661.085938 C 526.152344 662.257812 526.539062 663.445312 526.875 664.652344 C 527.207031 665.859375 527.488281 667.078125 527.710938 668.308594 C 527.933594 669.539062 528.097656 670.78125 528.207031 672.027344 C 528.316406 673.273438 528.367188 674.523438 528.363281 675.773438 C 528.355469 678.390625 528.09375 680.984375 527.578125 683.550781 C 529.257812 683.320312 530.945312 683.203125 532.640625 683.191406 C 534.519531 683.1875 536.386719 683.339844 538.238281 683.640625 C 540.089844 683.945312 541.90625 684.398438 543.683594 685.003906 C 545.460938 685.605469 547.179688 686.351562 548.835938 687.238281 C 550.488281 688.125 552.058594 689.144531 553.546875 690.289062 C 555.035156 691.4375 556.417969 692.699219 557.695312 694.074219 C 558.972656 695.449219 560.128906 696.917969 561.164062 698.484375 C 562.203125 700.050781 563.101562 701.691406 563.867188 703.410156 C 564.628906 705.125 565.25 706.890625 565.722656 708.707031 C 566.195312 710.523438 566.515625 712.367188 566.683594 714.238281 C 566.851562 716.109375 566.863281 717.980469 566.722656 719.851562 C 566.582031 721.722656 566.285156 723.574219 565.839844 725.394531 C 565.394531 727.21875 564.800781 728.996094 564.0625 730.722656 C 563.320312 732.445312 562.445312 734.101562 561.429688 735.679688 C 560.417969 737.261719 559.28125 738.75 558.023438 740.144531 C 556.765625 741.535156 555.402344 742.816406 553.929688 743.984375 C 552.460938 745.152344 550.902344 746.191406 549.261719 747.101562 C 547.175781 748.511719 544.929688 749.585938 542.523438 750.328125 C 540.117188 751.070312 537.65625 751.445312 535.136719 751.453125 L 396.191406 751.453125 C 395.359375 751.449219 394.53125 751.402344 393.703125 751.320312 C 392.875 751.234375 392.054688 751.105469 391.238281 750.941406 C 390.421875 750.773438 389.617188 750.570312 388.824219 750.324219 C 388.027344 750.082031 387.246094 749.796875 386.480469 749.476562 C 385.710938 749.15625 384.960938 748.796875 384.230469 748.402344 C 383.496094 748.007812 382.785156 747.578125 382.09375 747.117188 C 381.402344 746.652344 380.738281 746.15625 380.097656 745.628906 C 379.453125 745.097656 378.839844 744.539062 378.25 743.949219 C 377.664062 743.359375 377.105469 742.746094 376.578125 742.101562 C 376.054688 741.457031 375.558594 740.789062 375.097656 740.097656 C 374.632812 739.40625 374.207031 738.695312 373.816406 737.960938 C 373.421875 737.226562 373.066406 736.476562 372.75 735.707031 C 372.429688 734.9375 372.148438 734.15625 371.90625 733.359375 C 371.664062 732.566406 371.460938 731.757812 371.296875 730.945312 C 371.132812 730.128906 371.011719 729.308594 370.925781 728.480469 C 370.84375 727.652344 370.800781 726.820312 370.796875 725.988281 C 370.800781 725.15625 370.84375 724.328125 370.925781 723.5 C 371.011719 722.671875 371.132812 721.851562 371.296875 721.035156 C 371.460938 720.21875 371.664062 719.414062 371.90625 718.617188 C 372.148438 717.824219 372.429688 717.039062 372.75 716.273438 C 373.066406 715.503906 373.421875 714.753906 373.816406 714.019531 C 374.207031 713.285156 374.632812 712.574219 375.097656 711.882812 C 375.558594 711.191406 376.054688 710.523438 376.578125 709.878906 C 377.105469 709.234375 377.664062 708.617188 378.25 708.03125 C 378.839844 707.441406 379.453125 706.882812 380.097656 706.351562 C 380.738281 705.824219 381.402344 705.328125 382.09375 704.863281 C 382.785156 704.398438 383.496094 703.96875 384.230469 703.578125 C 384.960938 703.183594 385.710938 702.824219 386.480469 702.503906 C 387.246094 702.183594 388.027344 701.898438 388.824219 701.65625 C 389.617188 701.410156 390.421875 701.203125 391.238281 701.039062 C 392.054688 700.871094 392.875 700.746094 393.703125 700.660156 C 394.53125 700.574219 395.359375 700.53125 396.191406 700.527344 Z M 396.191406 700.527344 " fill-opacity="1" fill-rule="nonzero"/><g clip-path="url(#9fedb2862a)"><path fill="#26477a" d="M 512.527344 781.839844 L 511.386719 781.839844 C 512.804688 777.191406 513.515625 772.433594 513.527344 767.574219 C 513.527344 765.28125 513.367188 763 513.042969 760.730469 C 512.722656 758.460938 512.242188 756.222656 511.601562 754.019531 C 510.960938 751.820312 510.167969 749.671875 509.226562 747.582031 C 508.28125 745.492188 507.195312 743.480469 505.964844 741.546875 C 504.738281 739.609375 503.375 737.769531 501.886719 736.027344 C 500.394531 734.285156 498.789062 732.65625 497.070312 731.140625 C 495.347656 729.625 493.527344 728.242188 491.609375 726.984375 C 489.691406 725.726562 487.695312 724.613281 485.621094 723.636719 C 483.542969 722.664062 481.410156 721.839844 479.21875 721.171875 C 477.023438 720.5 474.796875 719.988281 472.53125 719.632812 C 470.265625 719.277344 467.984375 719.082031 465.695312 719.050781 C 463.402344 719.019531 461.117188 719.148438 458.84375 719.441406 C 456.570312 719.734375 454.324219 720.183594 452.117188 720.796875 C 449.90625 721.40625 447.75 722.167969 445.648438 723.085938 C 443.546875 724 441.519531 725.0625 439.566406 726.265625 C 437.613281 727.46875 435.757812 728.800781 433.996094 730.269531 C 433.589844 728.394531 433.097656 726.542969 432.519531 724.710938 C 431.945312 722.882812 431.285156 721.082031 430.542969 719.3125 C 429.800781 717.542969 428.980469 715.8125 428.082031 714.117188 C 427.179688 712.425781 426.203125 710.777344 425.152344 709.171875 C 424.101562 707.566406 422.980469 706.011719 421.785156 704.511719 C 420.59375 703.011719 419.332031 701.566406 418.003906 700.179688 C 416.679688 698.792969 415.292969 697.472656 413.84375 696.210938 C 412.398438 694.953125 410.894531 693.761719 409.339844 692.640625 C 407.78125 691.519531 406.175781 690.472656 404.523438 689.5 C 402.871094 688.523438 401.179688 687.628906 399.445312 686.808594 C 397.707031 685.992188 395.941406 685.253906 394.136719 684.597656 C 392.335938 683.941406 390.507812 683.367188 388.652344 682.878906 C 386.796875 682.390625 384.921875 681.984375 383.03125 681.667969 C 381.136719 681.351562 379.234375 681.121094 377.324219 680.976562 C 375.410156 680.835938 373.496094 680.78125 371.578125 680.8125 C 369.65625 680.847656 367.746094 680.96875 365.839844 681.175781 C 363.929688 681.382812 362.039062 681.679688 360.15625 682.058594 C 358.277344 682.441406 356.417969 682.910156 354.582031 683.460938 C 352.746094 684.015625 350.9375 684.648438 349.15625 685.367188 C 347.378906 686.085938 345.636719 686.882812 343.929688 687.761719 C 342.226562 688.640625 340.5625 689.59375 338.945312 690.621094 C 337.328125 691.652344 335.757812 692.753906 334.242188 693.929688 C 332.722656 695.101562 331.261719 696.34375 329.859375 697.652344 C 328.457031 698.960938 327.117188 700.328125 325.839844 701.761719 C 324.558594 703.191406 323.351562 704.675781 322.207031 706.21875 C 321.066406 707.761719 320 709.351562 319.003906 710.992188 C 318.007812 712.628906 317.085938 714.3125 316.246094 716.035156 C 315.40625 717.761719 314.644531 719.519531 313.964844 721.3125 C 313.28125 723.105469 312.6875 724.925781 312.171875 726.777344 C 311.660156 728.625 311.230469 730.492188 310.890625 732.378906 C 310.546875 734.265625 310.292969 736.167969 310.125 738.078125 C 309.957031 739.988281 309.875 741.902344 309.882812 743.820312 C 309.898438 747.851562 310.28125 751.84375 311.023438 755.804688 C 308.445312 755.433594 305.855469 755.242188 303.25 755.234375 C 301.8125 755.234375 300.378906 755.296875 298.949219 755.414062 C 297.519531 755.535156 296.09375 755.710938 294.675781 755.949219 C 293.261719 756.183594 291.855469 756.480469 290.464844 756.832031 C 289.070312 757.183594 287.695312 757.589844 286.335938 758.054688 C 284.976562 758.519531 283.640625 759.042969 282.324219 759.617188 C 281.007812 760.191406 279.71875 760.820312 278.453125 761.5 C 277.191406 762.183594 275.957031 762.914062 274.753906 763.699219 C 273.546875 764.480469 272.378906 765.3125 271.242188 766.191406 C 270.105469 767.070312 269.007812 767.996094 267.949219 768.964844 C 266.890625 769.933594 265.871094 770.945312 264.894531 771.996094 C 263.921875 773.050781 262.988281 774.144531 262.101562 775.273438 C 261.214844 776.402344 260.378906 777.566406 259.585938 778.765625 C 258.796875 779.964844 258.054688 781.195312 257.367188 782.453125 C 256.675781 783.714844 256.039062 785 255.457031 786.3125 C 254.871094 787.625 254.34375 788.957031 253.871094 790.3125 C 253.394531 791.667969 252.980469 793.042969 252.617188 794.433594 C 252.257812 795.824219 251.953125 797.226562 251.707031 798.640625 C 251.460938 800.054688 251.277344 801.476562 251.148438 802.910156 C 251.019531 804.339844 250.949219 805.773438 250.9375 807.207031 C 250.929688 808.644531 250.976562 810.078125 251.085938 811.511719 C 251.191406 812.941406 251.359375 814.367188 251.582031 815.785156 C 251.808594 817.203125 252.089844 818.613281 252.429688 820.007812 C 252.773438 821.402344 253.167969 822.78125 253.625 824.144531 C 254.078125 825.503906 254.585938 826.847656 255.152344 828.167969 C 255.714844 829.488281 256.332031 830.785156 257.003906 832.054688 C 257.675781 833.324219 258.398438 834.5625 259.171875 835.773438 C 259.945312 836.984375 260.765625 838.160156 261.636719 839.304688 C 262.503906 840.445312 263.421875 841.550781 264.382812 842.617188 C 265.34375 843.683594 266.347656 844.710938 267.390625 845.695312 C 268.4375 846.679688 269.519531 847.621094 270.644531 848.515625 C 271.765625 849.414062 272.921875 850.261719 274.117188 851.0625 C 275.308594 851.859375 276.53125 852.609375 277.785156 853.3125 C 280.984375 855.453125 284.421875 857.082031 288.105469 858.199219 C 291.785156 859.316406 295.550781 859.875 299.398438 859.875 L 512.527344 859.875 C 513.804688 859.871094 515.078125 859.804688 516.351562 859.679688 C 517.621094 859.550781 518.882812 859.363281 520.132812 859.113281 C 521.386719 858.859375 522.625 858.550781 523.84375 858.175781 C 525.066406 857.804688 526.269531 857.375 527.449219 856.882812 C 528.628906 856.394531 529.78125 855.847656 530.90625 855.246094 C 532.03125 854.640625 533.125 853.984375 534.1875 853.277344 C 535.25 852.566406 536.273438 851.804688 537.261719 850.996094 C 538.246094 850.183594 539.191406 849.328125 540.09375 848.425781 C 541 847.523438 541.855469 846.578125 542.664062 845.589844 C 543.476562 844.601562 544.238281 843.578125 544.945312 842.515625 C 545.65625 841.453125 546.3125 840.359375 546.917969 839.234375 C 547.519531 838.109375 548.066406 836.957031 548.554688 835.777344 C 549.046875 834.597656 549.476562 833.394531 549.847656 832.175781 C 550.21875 830.953125 550.53125 829.714844 550.78125 828.464844 C 551.035156 827.210938 551.222656 825.949219 551.351562 824.679688 C 551.476562 823.40625 551.542969 822.132812 551.542969 820.855469 C 551.539062 819.578125 551.472656 818.308594 551.34375 817.035156 C 551.214844 815.765625 551.023438 814.507812 550.769531 813.253906 C 550.519531 812.003906 550.207031 810.765625 549.832031 809.546875 C 549.457031 808.324219 549.027344 807.125 548.535156 805.949219 C 548.046875 804.769531 547.5 803.617188 546.894531 802.492188 C 546.292969 801.367188 545.636719 800.273438 544.925781 799.214844 C 544.214844 798.152344 543.453125 797.128906 542.644531 796.144531 C 541.835938 795.15625 540.976562 794.210938 540.074219 793.308594 C 539.171875 792.40625 538.226562 791.550781 537.242188 790.738281 C 536.253906 789.929688 535.230469 789.167969 534.171875 788.460938 C 533.109375 787.75 532.015625 787.09375 530.890625 786.488281 C 529.765625 785.886719 528.613281 785.339844 527.4375 784.847656 C 526.257812 784.355469 525.058594 783.925781 523.835938 783.550781 C 522.617188 783.179688 521.378906 782.867188 520.128906 782.613281 C 518.878906 782.359375 517.617188 782.167969 516.347656 782.039062 C 515.078125 781.910156 513.804688 781.84375 512.527344 781.839844 Z M 512.527344 781.839844 " fill-opacity="1" fill-rule="nonzero"/></g><path fill="#26477a" d="M 407.816406 616.855469 C 407.816406 617.359375 407.722656 617.839844 407.53125 618.304688 C 407.335938 618.765625 407.066406 619.175781 406.710938 619.53125 C 406.355469 619.886719 405.945312 620.160156 405.484375 620.351562 C 405.019531 620.542969 404.539062 620.636719 404.035156 620.636719 C 403.535156 620.636719 403.054688 620.542969 402.589844 620.351562 C 402.128906 620.160156 401.71875 619.886719 401.363281 619.53125 C 401.007812 619.175781 400.734375 618.765625 400.542969 618.304688 C 400.351562 617.839844 400.257812 617.359375 400.257812 616.855469 C 400.257812 616.355469 400.351562 615.875 400.542969 615.410156 C 400.734375 614.949219 401.007812 614.539062 401.363281 614.183594 C 401.71875 613.828125 402.128906 613.554688 402.589844 613.363281 C 403.054688 613.171875 403.535156 613.078125 404.035156 613.078125 C 404.539062 613.078125 405.019531 613.171875 405.484375 613.363281 C 405.945312 613.554688 406.355469 613.828125 406.710938 614.183594 C 407.066406 614.539062 407.335938 614.949219 407.53125 615.410156 C 407.722656 615.875 407.816406 616.355469 407.816406 616.855469 Z M 407.816406 616.855469 " fill-opacity="1" fill-rule="nonzero"/><g clip-path="url(#2748695358)"><path fill="#26477a" d="M 501.328125 583.902344 C 501.328125 584.40625 501.234375 584.886719 501.042969 585.351562 C 500.847656 585.8125 500.574219 586.222656 500.222656 586.578125 C 499.867188 586.929688 499.457031 587.203125 498.996094 587.394531 C 498.53125 587.589844 498.050781 587.683594 497.546875 587.683594 C 497.046875 587.683594 496.566406 587.589844 496.101562 587.394531 C 495.640625 587.203125 495.230469 586.929688 494.875 586.578125 C 494.519531 586.222656 494.246094 585.8125 494.054688 585.351562 C 493.863281 584.886719 493.769531 584.40625 493.769531 583.902344 C 493.769531 583.402344 493.863281 582.921875 494.054688 582.457031 C 494.246094 581.992188 494.519531 581.585938 494.875 581.230469 C 495.230469 580.875 495.640625 580.601562 496.101562 580.410156 C 496.566406 580.21875 497.046875 580.125 497.546875 580.125 C 498.050781 580.125 498.53125 580.21875 498.996094 580.410156 C 499.457031 580.601562 499.867188 580.875 500.222656 581.230469 C 500.574219 581.585938 500.847656 581.992188 501.042969 582.457031 C 501.234375 582.921875 501.328125 583.402344 501.328125 583.902344 Z M 501.328125 583.902344 " fill-opacity="1" fill-rule="nonzero"/></g><path fill="#26477a" d="M 309.8125 594.960938 C 309.8125 595.460938 309.714844 595.941406 309.523438 596.40625 C 309.332031 596.871094 309.058594 597.277344 308.703125 597.632812 C 308.351562 597.988281 307.941406 598.261719 307.480469 598.453125 C 307.015625 598.644531 306.53125 598.738281 306.03125 598.738281 C 305.53125 598.738281 305.046875 598.644531 304.585938 598.453125 C 304.121094 598.261719 303.714844 597.988281 303.359375 597.632812 C 303.003906 597.277344 302.730469 596.871094 302.539062 596.40625 C 302.347656 595.941406 302.25 595.460938 302.25 594.960938 C 302.25 594.457031 302.347656 593.976562 302.539062 593.511719 C 302.730469 593.050781 303.003906 592.640625 303.359375 592.285156 C 303.714844 591.933594 304.121094 591.660156 304.585938 591.46875 C 305.046875 591.273438 305.53125 591.179688 306.03125 591.179688 C 306.53125 591.179688 307.015625 591.273438 307.480469 591.46875 C 307.941406 591.660156 308.351562 591.933594 308.703125 592.285156 C 309.058594 592.640625 309.332031 593.050781 309.523438 593.511719 C 309.714844 593.976562 309.8125 594.457031 309.8125 594.960938 Z M 309.8125 594.960938 " fill-opacity="1" fill-rule="nonzero"/><path fill="#26477a" d="M 551.542969 656.230469 C 551.542969 656.730469 551.449219 657.214844 551.257812 657.675781 C 551.066406 658.140625 550.792969 658.550781 550.4375 658.902344 C 550.082031 659.257812 549.671875 659.53125 549.210938 659.722656 C 548.746094 659.914062 548.265625 660.011719 547.765625 660.011719 C 547.261719 660.011719 546.78125 659.914062 546.316406 659.722656 C 545.855469 659.53125 545.445312 659.257812 545.089844 658.902344 C 544.734375 658.550781 544.464844 658.140625 544.269531 657.675781 C 544.078125 657.214844 543.984375 656.730469 543.984375 656.230469 C 543.984375 655.730469 544.078125 655.246094 544.269531 654.785156 C 544.464844 654.320312 544.734375 653.910156 545.089844 653.558594 C 545.445312 653.203125 545.855469 652.929688 546.316406 652.738281 C 546.78125 652.546875 547.261719 652.449219 547.765625 652.449219 C 548.265625 652.449219 548.746094 652.546875 549.210938 652.738281 C 549.671875 652.929688 550.082031 653.203125 550.4375 653.558594 C 550.792969 653.910156 551.066406 654.320312 551.257812 654.785156 C 551.449219 655.246094 551.542969 655.730469 551.542969 656.230469 Z M 551.542969 656.230469 " fill-opacity="1" fill-rule="nonzero"/><path fill="#26477a" d="M 250.824219 705.449219 C 250.824219 705.949219 250.726562 706.429688 250.535156 706.894531 C 250.34375 707.355469 250.070312 707.765625 249.714844 708.121094 C 249.363281 708.476562 248.953125 708.75 248.488281 708.941406 C 248.027344 709.132812 247.542969 709.226562 247.042969 709.226562 C 246.542969 709.226562 246.058594 709.132812 245.597656 708.941406 C 245.132812 708.75 244.722656 708.476562 244.371094 708.121094 C 244.015625 707.765625 243.742188 707.355469 243.550781 706.894531 C 243.359375 706.429688 243.261719 705.949219 243.261719 705.449219 C 243.261719 704.945312 243.359375 704.464844 243.550781 704 C 243.742188 703.539062 244.015625 703.128906 244.371094 702.773438 C 244.722656 702.417969 245.132812 702.144531 245.597656 701.953125 C 246.058594 701.761719 246.542969 701.667969 247.042969 701.667969 C 247.542969 701.667969 248.027344 701.761719 248.488281 701.953125 C 248.953125 702.144531 249.363281 702.417969 249.714844 702.773438 C 250.070312 703.128906 250.34375 703.539062 250.535156 704 C 250.726562 704.464844 250.824219 704.945312 250.824219 705.449219 Z M 250.824219 705.449219 " fill-opacity="1" fill-rule="nonzero"/><path fill="#ffb544" d="M 398.902344 754.234375 C 397.179688 755.570312 395.40625 756.824219 393.578125 758.003906 C 391.746094 759.183594 389.871094 760.28125 387.945312 761.292969 C 386.019531 762.308594 384.054688 763.238281 382.046875 764.082031 C 380.039062 764.921875 378 765.675781 375.929688 766.34375 C 373.855469 767.007812 371.757812 767.582031 369.636719 768.0625 C 367.511719 768.542969 365.375 768.929688 363.21875 769.226562 C 361.0625 769.519531 358.894531 769.722656 356.722656 769.828125 C 354.546875 769.933594 352.375 769.941406 350.199219 769.859375 C 348.023438 769.773438 345.859375 769.59375 343.699219 769.320312 C 341.539062 769.046875 339.394531 768.679688 337.269531 768.21875 C 335.140625 767.761719 333.039062 767.207031 330.960938 766.5625 C 328.882812 765.917969 326.835938 765.183594 324.820312 764.363281 C 322.804688 763.539062 320.832031 762.628906 318.894531 761.632812 C 316.960938 760.636719 315.070312 759.558594 313.230469 758.398438 C 311.390625 757.238281 309.601562 756 307.871094 754.683594 C 306.136719 753.367188 304.464844 751.976562 302.851562 750.511719 C 301.242188 749.050781 299.695312 747.519531 298.21875 745.921875 C 296.742188 744.324219 295.335938 742.664062 294.003906 740.945312 C 292.667969 739.226562 291.414062 737.449219 290.238281 735.621094 C 289.058594 733.789062 287.960938 731.910156 286.949219 729.984375 C 285.933594 728.058594 285.007812 726.09375 284.164062 724.085938 C 283.324219 722.078125 282.570312 720.039062 281.90625 717.96875 C 281.242188 715.894531 280.667969 713.796875 280.1875 711.675781 C 279.707031 709.550781 279.320312 707.410156 279.027344 705.253906 C 278.734375 703.097656 278.535156 700.933594 278.429688 698.761719 C 278.324219 696.585938 278.316406 694.410156 278.398438 692.238281 C 278.484375 690.0625 278.664062 687.894531 278.9375 685.734375 C 279.214844 683.578125 279.582031 681.433594 280.042969 679.308594 C 280.503906 677.179688 281.058594 675.078125 281.703125 673 C 282.347656 670.921875 283.082031 668.875 283.90625 666.859375 C 284.730469 664.84375 285.640625 662.871094 286.636719 660.9375 C 287.636719 659 288.714844 657.113281 289.875 655.273438 C 291.035156 653.433594 292.277344 651.644531 293.59375 649.914062 C 294.910156 648.179688 296.300781 646.507812 297.765625 644.898438 C 299.226562 643.289062 300.757812 641.742188 302.359375 640.265625 C 303.957031 638.789062 305.617188 637.382812 307.335938 636.050781 C 309.058594 634.71875 310.832031 633.464844 312.664062 632.289062 C 314.496094 631.109375 316.371094 630.015625 318.300781 629.003906 C 320.226562 627.988281 322.191406 627.0625 324.199219 626.222656 C 326.207031 625.378906 328.246094 624.628906 330.320312 623.964844 C 332.394531 623.300781 334.492188 622.730469 336.613281 622.25 C 338.734375 621.769531 340.875 621.382812 343.03125 621.089844 C 345.1875 620.796875 347.355469 620.597656 349.527344 620.496094 C 351.703125 620.390625 353.875 620.382812 356.050781 620.46875 C 358.226562 620.554688 360.394531 620.734375 362.550781 621.011719 C 364.710938 621.285156 366.851562 621.65625 368.980469 622.117188 C 371.105469 622.582031 373.210938 623.132812 375.289062 623.78125 C 377.367188 624.425781 379.410156 625.164062 381.425781 625.988281 C 380.34375 626.09375 379.265625 626.222656 378.191406 626.382812 C 377.117188 626.542969 376.046875 626.726562 374.980469 626.941406 C 373.917969 627.152344 372.859375 627.390625 371.804688 627.65625 C 370.75 627.921875 369.707031 628.214844 368.667969 628.535156 C 367.628906 628.851562 366.597656 629.195312 365.578125 629.566406 C 364.554688 629.9375 363.542969 630.332031 362.542969 630.753906 C 361.542969 631.175781 360.550781 631.621094 359.574219 632.09375 C 358.59375 632.5625 357.628906 633.058594 356.671875 633.578125 C 355.71875 634.097656 354.78125 634.640625 353.851562 635.210938 C 352.925781 635.777344 352.015625 636.367188 351.117188 636.980469 C 350.222656 637.59375 349.339844 638.226562 348.476562 638.882812 C 347.609375 639.542969 346.761719 640.21875 345.929688 640.921875 C 345.101562 641.621094 344.289062 642.339844 343.492188 643.082031 C 342.699219 643.820312 341.921875 644.582031 341.167969 645.363281 C 340.410156 646.140625 339.675781 646.941406 338.957031 647.757812 C 338.242188 648.574219 337.546875 649.40625 336.871094 650.257812 C 336.199219 651.113281 335.546875 651.980469 334.914062 652.863281 C 334.285156 653.75 333.675781 654.648438 333.09375 655.5625 C 332.507812 656.480469 331.945312 657.410156 331.40625 658.351562 C 330.867188 659.296875 330.355469 660.253906 329.863281 661.222656 C 329.375 662.191406 328.90625 663.171875 328.46875 664.164062 C 328.027344 665.15625 327.609375 666.160156 327.21875 667.175781 C 326.828125 668.1875 326.464844 669.210938 326.125 670.242188 C 325.785156 671.273438 325.472656 672.316406 325.1875 673.363281 C 324.902344 674.410156 324.640625 675.464844 324.40625 676.527344 C 324.171875 677.585938 323.964844 678.652344 323.785156 679.722656 C 323.605469 680.796875 323.453125 681.871094 323.328125 682.949219 C 323.203125 684.027344 323.105469 685.109375 323.03125 686.195312 C 322.960938 687.277344 322.917969 688.363281 322.898438 689.449219 C 322.882812 690.535156 322.894531 691.621094 322.929688 692.707031 C 322.96875 693.792969 323.035156 694.878906 323.125 695.960938 C 323.21875 697.042969 323.339844 698.121094 323.484375 699.199219 C 323.632812 700.273438 323.804688 701.347656 324.007812 702.414062 C 324.207031 703.480469 324.433594 704.542969 324.6875 705.597656 C 324.941406 706.65625 325.222656 707.703125 325.527344 708.746094 C 325.835938 709.789062 326.167969 710.824219 326.527344 711.847656 C 326.886719 712.871094 327.269531 713.890625 327.679688 714.894531 C 328.089844 715.902344 328.527344 716.894531 328.984375 717.878906 C 329.445312 718.863281 329.929688 719.835938 330.4375 720.796875 C 330.949219 721.753906 331.480469 722.703125 332.039062 723.632812 C 332.59375 724.566406 333.171875 725.484375 333.777344 726.390625 C 334.378906 727.292969 335.003906 728.179688 335.652344 729.054688 C 336.300781 729.925781 336.96875 730.78125 337.660156 731.621094 C 338.347656 732.457031 339.058594 733.277344 339.792969 734.082031 C 340.523438 734.886719 341.273438 735.667969 342.046875 736.433594 C 342.816406 737.199219 343.609375 737.945312 344.417969 738.667969 C 345.226562 739.394531 346.050781 740.097656 346.894531 740.78125 C 347.738281 741.464844 348.601562 742.128906 349.476562 742.769531 C 350.355469 743.410156 351.25 744.027344 352.15625 744.621094 C 353.066406 745.21875 353.988281 745.789062 354.925781 746.339844 C 355.863281 746.886719 356.8125 747.414062 357.777344 747.914062 C 358.742188 748.414062 359.71875 748.890625 360.707031 749.34375 C 361.691406 749.796875 362.691406 750.222656 363.699219 750.625 C 364.710938 751.027344 365.730469 751.402344 366.757812 751.753906 C 367.785156 752.105469 368.820312 752.429688 369.867188 752.726562 C 370.910156 753.027344 371.960938 753.296875 373.019531 753.542969 C 374.078125 753.789062 375.140625 754.007812 376.210938 754.199219 C 377.28125 754.390625 378.355469 754.558594 379.429688 754.695312 C 380.507812 754.832031 381.589844 754.945312 382.671875 755.027344 C 383.753906 755.109375 384.839844 755.167969 385.925781 755.195312 C 387.011719 755.226562 388.097656 755.226562 389.183594 755.203125 C 390.269531 755.175781 391.355469 755.121094 392.4375 755.042969 C 393.519531 754.960938 394.601562 754.855469 395.679688 754.71875 C 396.757812 754.585938 397.832031 754.425781 398.902344 754.234375 Z M 398.902344 754.234375 " fill-opacity="1" fill-rule="nonzero"/></svg>