<svg xmlns="http://www.w3.org/2000/svg" xmlns:xlink="http://www.w3.org/1999/xlink" width="1024" zoomAndPan="magnify" viewBox="0 0 768 767.999994" height="1024" preserveAspectRatio="xMidYMid meet" version="1.0"><defs><clipPath id="2443088952"><path d="M 250 51.925781 L 306 51.925781 L 306 105 L 250 105 Z M 250 51.925781 " clip-rule="nonzero"/></clipPath><clipPath id="24b0507ccc"><path d="M 249 645 L 323 645 L 323 716.425781 L 249 716.425781 Z M 249 645 " clip-rule="nonzero"/></clipPath></defs><path fill="#ffae46" d="M 586.566406 546.304688 C 586.566406 547.015625 586.496094 547.71875 586.359375 548.414062 C 586.222656 549.113281 586.015625 549.789062 585.742188 550.445312 C 585.472656 551.101562 585.136719 551.726562 584.742188 552.316406 C 584.347656 552.910156 583.902344 553.457031 583.398438 553.957031 C 582.894531 554.460938 582.351562 554.910156 581.757812 555.304688 C 581.167969 555.699219 580.546875 556.03125 579.890625 556.304688 C 579.234375 556.578125 578.554688 556.78125 577.859375 556.921875 C 577.164062 557.058594 576.460938 557.128906 575.75 557.128906 C 575.039062 557.128906 574.335938 557.058594 573.636719 556.921875 C 572.941406 556.78125 572.265625 556.578125 571.609375 556.304688 C 570.953125 556.03125 570.328125 555.699219 569.738281 555.304688 C 569.148438 554.910156 568.601562 554.460938 568.097656 553.957031 C 567.597656 553.457031 567.148438 552.910156 566.753906 552.316406 C 566.359375 551.726562 566.023438 551.101562 565.753906 550.445312 C 565.480469 549.789062 565.277344 549.113281 565.136719 548.414062 C 565 547.71875 564.929688 547.015625 564.929688 546.304688 C 564.929688 545.59375 565 544.890625 565.136719 544.191406 C 565.277344 543.496094 565.480469 542.816406 565.753906 542.160156 C 566.023438 541.503906 566.359375 540.882812 566.753906 540.289062 C 567.148438 539.699219 567.597656 539.152344 568.097656 538.648438 C 568.601562 538.148438 569.148438 537.699219 569.738281 537.304688 C 570.328125 536.910156 570.953125 536.574219 571.609375 536.304688 C 572.265625 536.03125 572.941406 535.824219 573.636719 535.6875 C 574.335938 535.546875 575.039062 535.480469 575.75 535.480469 C 576.460938 535.480469 577.164062 535.546875 577.859375 535.6875 C 578.554688 535.824219 579.234375 536.03125 579.890625 536.304688 C 580.546875 536.574219 581.167969 536.910156 581.757812 537.304688 C 582.351562 537.699219 582.894531 538.148438 583.398438 538.648438 C 583.902344 539.152344 584.347656 539.699219 584.742188 540.289062 C 585.136719 540.882812 585.472656 541.503906 585.742188 542.160156 C 586.015625 542.816406 586.222656 543.496094 586.359375 544.191406 C 586.496094 544.890625 586.566406 545.59375 586.566406 546.304688 Z M 586.566406 546.304688 " fill-opacity="1" fill-rule="nonzero"/><path fill="#26477a" d="M 215.988281 412.691406 C 215.988281 413.402344 215.917969 414.109375 215.78125 414.804688 C 215.640625 415.5 215.4375 416.179688 215.164062 416.835938 C 214.890625 417.492188 214.558594 418.117188 214.164062 418.707031 C 213.769531 419.296875 213.320312 419.84375 212.820312 420.347656 C 212.316406 420.847656 211.769531 421.296875 211.179688 421.691406 C 210.589844 422.089844 209.964844 422.421875 209.308594 422.695312 C 208.652344 422.964844 207.976562 423.171875 207.28125 423.308594 C 206.582031 423.449219 205.878906 423.515625 205.167969 423.515625 C 204.457031 423.515625 203.753906 423.449219 203.058594 423.308594 C 202.363281 423.171875 201.683594 422.964844 201.027344 422.695312 C 200.371094 422.421875 199.75 422.089844 199.160156 421.691406 C 198.566406 421.296875 198.019531 420.847656 197.519531 420.347656 C 197.015625 419.84375 196.566406 419.296875 196.171875 418.707031 C 195.777344 418.117188 195.445312 417.492188 195.175781 416.835938 C 194.902344 416.179688 194.695312 415.5 194.558594 414.804688 C 194.417969 414.109375 194.351562 413.402344 194.351562 412.691406 C 194.351562 411.980469 194.417969 411.277344 194.558594 410.582031 C 194.695312 409.882812 194.902344 409.207031 195.175781 408.550781 C 195.445312 407.894531 195.777344 407.269531 196.171875 406.679688 C 196.566406 406.089844 197.015625 405.542969 197.519531 405.039062 C 198.019531 404.535156 198.566406 404.085938 199.160156 403.691406 C 199.75 403.296875 200.371094 402.964844 201.027344 402.691406 C 201.683594 402.421875 202.363281 402.214844 203.058594 402.078125 C 203.753906 401.9375 204.457031 401.867188 205.167969 401.867188 C 205.878906 401.867188 206.582031 401.9375 207.28125 402.078125 C 207.976562 402.214844 208.652344 402.421875 209.308594 402.691406 C 209.964844 402.964844 210.589844 403.296875 211.179688 403.691406 C 211.769531 404.085938 212.316406 404.535156 212.820312 405.039062 C 213.320312 405.542969 213.769531 406.089844 214.164062 406.679688 C 214.558594 407.269531 214.890625 407.894531 215.164062 408.550781 C 215.4375 409.207031 215.640625 409.882812 215.78125 410.582031 C 215.917969 411.277344 215.988281 411.980469 215.988281 412.691406 Z M 215.988281 412.691406 " fill-opacity="1" fill-rule="nonzero"/><path fill="#26477a" d="M 86.648438 634.675781 C 86.648438 635.238281 86.59375 635.796875 86.484375 636.347656 C 86.375 636.898438 86.210938 637.433594 85.996094 637.953125 C 85.78125 638.472656 85.519531 638.96875 85.207031 639.433594 C 84.894531 639.902344 84.539062 640.335938 84.140625 640.730469 C 83.746094 641.128906 83.3125 641.484375 82.84375 641.796875 C 82.378906 642.109375 81.882812 642.375 81.363281 642.589844 C 80.847656 642.804688 80.3125 642.964844 79.761719 643.074219 C 79.207031 643.183594 78.652344 643.242188 78.089844 643.242188 C 77.527344 643.242188 76.972656 643.183594 76.421875 643.074219 C 75.871094 642.964844 75.335938 642.804688 74.816406 642.589844 C 74.296875 642.375 73.804688 642.109375 73.335938 641.796875 C 72.867188 641.484375 72.4375 641.128906 72.039062 640.730469 C 71.640625 640.335938 71.285156 639.902344 70.972656 639.433594 C 70.664062 638.96875 70.398438 638.472656 70.183594 637.953125 C 69.96875 637.433594 69.804688 636.898438 69.695312 636.347656 C 69.585938 635.796875 69.53125 635.238281 69.53125 634.675781 C 69.53125 634.117188 69.585938 633.558594 69.695312 633.007812 C 69.804688 632.457031 69.96875 631.921875 70.183594 631.402344 C 70.398438 630.882812 70.664062 630.386719 70.972656 629.921875 C 71.285156 629.453125 71.640625 629.019531 72.039062 628.621094 C 72.4375 628.226562 72.867188 627.871094 73.335938 627.558594 C 73.804688 627.246094 74.296875 626.980469 74.816406 626.765625 C 75.335938 626.550781 75.871094 626.390625 76.421875 626.28125 C 76.972656 626.167969 77.527344 626.113281 78.089844 626.113281 C 78.652344 626.113281 79.207031 626.167969 79.761719 626.28125 C 80.3125 626.390625 80.847656 626.550781 81.363281 626.765625 C 81.882812 626.980469 82.378906 627.246094 82.84375 627.558594 C 83.3125 627.871094 83.746094 628.226562 84.140625 628.621094 C 84.539062 629.019531 84.894531 629.453125 85.207031 629.921875 C 85.519531 630.386719 85.78125 630.882812 85.996094 631.402344 C 86.210938 631.921875 86.375 632.457031 86.484375 633.007812 C 86.59375 633.558594 86.648438 634.117188 86.648438 634.675781 Z M 86.648438 634.675781 " fill-opacity="1" fill-rule="nonzero"/><path fill="#26477a" d="M 728.5 225.28125 C 728.5 225.84375 728.445312 226.402344 728.335938 226.953125 C 728.226562 227.503906 728.066406 228.039062 727.851562 228.558594 C 727.636719 229.078125 727.371094 229.570312 727.058594 230.039062 C 726.746094 230.507812 726.390625 230.941406 725.996094 231.335938 C 725.597656 231.734375 725.164062 232.089844 724.699219 232.402344 C 724.230469 232.714844 723.738281 232.976562 723.21875 233.191406 C 722.699219 233.410156 722.164062 233.570312 721.613281 233.679688 C 721.0625 233.789062 720.503906 233.84375 719.945312 233.84375 C 719.382812 233.84375 718.824219 233.789062 718.273438 233.679688 C 717.722656 233.570312 717.1875 233.410156 716.667969 233.191406 C 716.148438 232.976562 715.65625 232.714844 715.1875 232.402344 C 714.722656 232.089844 714.289062 231.734375 713.890625 231.335938 C 713.496094 230.941406 713.140625 230.507812 712.828125 230.039062 C 712.515625 229.570312 712.253906 229.078125 712.035156 228.558594 C 711.820312 228.039062 711.660156 227.503906 711.550781 226.953125 C 711.441406 226.402344 711.386719 225.84375 711.386719 225.28125 C 711.386719 224.71875 711.441406 224.164062 711.550781 223.613281 C 711.660156 223.058594 711.820312 222.523438 712.035156 222.003906 C 712.253906 221.484375 712.515625 220.992188 712.828125 220.523438 C 713.140625 220.058594 713.496094 219.625 713.890625 219.226562 C 714.289062 218.828125 714.722656 218.476562 715.1875 218.164062 C 715.65625 217.851562 716.148438 217.585938 716.667969 217.371094 C 717.1875 217.15625 717.722656 216.992188 718.273438 216.882812 C 718.824219 216.773438 719.382812 216.71875 719.945312 216.71875 C 720.503906 216.71875 721.0625 216.773438 721.613281 216.882812 C 722.164062 216.992188 722.699219 217.15625 723.21875 217.371094 C 723.738281 217.585938 724.230469 217.851562 724.699219 218.164062 C 725.164062 218.476562 725.597656 218.828125 725.996094 219.226562 C 726.390625 219.625 726.746094 220.058594 727.058594 220.523438 C 727.371094 220.992188 727.636719 221.484375 727.851562 222.003906 C 728.066406 222.523438 728.226562 223.058594 728.335938 223.613281 C 728.445312 224.164062 728.5 224.71875 728.5 225.28125 Z M 728.5 225.28125 " fill-opacity="1" fill-rule="nonzero"/><path fill="#26477a" d="M 491.621094 70.023438 C 491.621094 70.585938 491.566406 71.140625 491.457031 71.691406 C 491.347656 72.246094 491.183594 72.78125 490.96875 73.300781 C 490.753906 73.820312 490.492188 74.3125 490.179688 74.78125 C 489.867188 75.246094 489.511719 75.679688 489.113281 76.078125 C 488.71875 76.472656 488.285156 76.828125 487.816406 77.140625 C 487.351562 77.453125 486.859375 77.71875 486.339844 77.933594 C 485.820312 78.148438 485.285156 78.3125 484.734375 78.421875 C 484.183594 78.53125 483.625 78.585938 483.0625 78.585938 C 482.5 78.585938 481.945312 78.53125 481.394531 78.421875 C 480.84375 78.3125 480.308594 78.148438 479.789062 77.933594 C 479.269531 77.71875 478.777344 77.453125 478.308594 77.140625 C 477.839844 76.828125 477.410156 76.472656 477.011719 76.078125 C 476.613281 75.679688 476.261719 75.246094 475.949219 74.78125 C 475.636719 74.3125 475.371094 73.820312 475.15625 73.300781 C 474.941406 72.78125 474.78125 72.246094 474.667969 71.691406 C 474.558594 71.140625 474.503906 70.585938 474.503906 70.023438 C 474.503906 69.460938 474.558594 68.902344 474.667969 68.351562 C 474.78125 67.800781 474.941406 67.265625 475.15625 66.746094 C 475.371094 66.226562 475.636719 65.734375 475.949219 65.265625 C 476.261719 64.796875 476.613281 64.363281 477.011719 63.96875 C 477.410156 63.570312 477.839844 63.214844 478.308594 62.902344 C 478.777344 62.589844 479.269531 62.328125 479.789062 62.113281 C 480.308594 61.894531 480.84375 61.734375 481.394531 61.625 C 481.945312 61.515625 482.5 61.460938 483.0625 61.460938 C 483.625 61.460938 484.183594 61.515625 484.734375 61.625 C 485.285156 61.734375 485.820312 61.894531 486.339844 62.113281 C 486.859375 62.328125 487.351562 62.589844 487.816406 62.902344 C 488.285156 63.214844 488.71875 63.570312 489.113281 63.96875 C 489.511719 64.363281 489.867188 64.796875 490.179688 65.265625 C 490.492188 65.734375 490.753906 66.226562 490.96875 66.746094 C 491.183594 67.265625 491.347656 67.800781 491.457031 68.351562 C 491.566406 68.902344 491.621094 69.460938 491.621094 70.023438 Z M 491.621094 70.023438 " fill-opacity="1" fill-rule="nonzero"/><path fill="#26477a" d="M 418.3125 272.621094 C 418.3125 273.183594 418.257812 273.738281 418.148438 274.289062 C 418.039062 274.839844 417.875 275.378906 417.660156 275.894531 C 417.445312 276.414062 417.183594 276.910156 416.871094 277.375 C 416.558594 277.84375 416.203125 278.277344 415.804688 278.675781 C 415.410156 279.070312 414.976562 279.425781 414.507812 279.738281 C 414.042969 280.050781 413.550781 280.316406 413.03125 280.53125 C 412.511719 280.746094 411.976562 280.90625 411.425781 281.019531 C 410.875 281.128906 410.316406 281.183594 409.753906 281.183594 C 409.191406 281.183594 408.636719 281.128906 408.085938 281.019531 C 407.535156 280.90625 407 280.746094 406.480469 280.53125 C 405.960938 280.316406 405.46875 280.050781 405 279.738281 C 404.53125 279.425781 404.101562 279.070312 403.703125 278.675781 C 403.304688 278.277344 402.953125 277.84375 402.640625 277.375 C 402.328125 276.910156 402.0625 276.414062 401.847656 275.894531 C 401.632812 275.378906 401.472656 274.839844 401.359375 274.289062 C 401.25 273.738281 401.195312 273.183594 401.195312 272.621094 C 401.195312 272.058594 401.25 271.5 401.359375 270.949219 C 401.472656 270.398438 401.632812 269.863281 401.847656 269.34375 C 402.0625 268.824219 402.328125 268.328125 402.640625 267.863281 C 402.953125 267.394531 403.304688 266.960938 403.703125 266.566406 C 404.101562 266.167969 404.53125 265.8125 405 265.5 C 405.46875 265.1875 405.960938 264.925781 406.480469 264.707031 C 407 264.492188 407.535156 264.332031 408.085938 264.222656 C 408.636719 264.113281 409.191406 264.058594 409.753906 264.058594 C 410.316406 264.058594 410.875 264.113281 411.425781 264.222656 C 411.976562 264.332031 412.511719 264.492188 413.03125 264.707031 C 413.550781 264.925781 414.042969 265.1875 414.507812 265.5 C 414.976562 265.8125 415.410156 266.167969 415.804688 266.566406 C 416.203125 266.960938 416.558594 267.394531 416.871094 267.863281 C 417.183594 268.328125 417.445312 268.824219 417.660156 269.34375 C 417.875 269.863281 418.039062 270.398438 418.148438 270.949219 C 418.257812 271.5 418.3125 272.058594 418.3125 272.621094 Z M 418.3125 272.621094 " fill-opacity="1" fill-rule="nonzero"/><path fill="#26477a" d="M 573.488281 402.03125 C 573.488281 402.59375 573.433594 403.148438 573.324219 403.699219 C 573.214844 404.25 573.050781 404.789062 572.835938 405.308594 C 572.621094 405.824219 572.359375 406.320312 572.046875 406.785156 C 571.734375 407.253906 571.378906 407.6875 570.980469 408.085938 C 570.585938 408.480469 570.152344 408.835938 569.683594 409.148438 C 569.21875 409.460938 568.722656 409.726562 568.203125 409.941406 C 567.6875 410.15625 567.152344 410.320312 566.597656 410.429688 C 566.046875 410.539062 565.492188 410.59375 564.929688 410.59375 C 564.367188 410.59375 563.8125 410.539062 563.261719 410.429688 C 562.710938 410.320312 562.175781 410.15625 561.65625 409.941406 C 561.136719 409.726562 560.640625 409.460938 560.175781 409.148438 C 559.707031 408.835938 559.277344 408.480469 558.878906 408.085938 C 558.480469 407.6875 558.125 407.253906 557.8125 406.785156 C 557.5 406.320312 557.238281 405.824219 557.023438 405.308594 C 556.808594 404.789062 556.644531 404.25 556.535156 403.699219 C 556.425781 403.148438 556.371094 402.59375 556.371094 402.03125 C 556.371094 401.46875 556.425781 400.910156 556.535156 400.359375 C 556.644531 399.808594 556.808594 399.273438 557.023438 398.753906 C 557.238281 398.234375 557.5 397.738281 557.8125 397.273438 C 558.125 396.804688 558.480469 396.371094 558.878906 395.976562 C 559.277344 395.578125 559.707031 395.222656 560.175781 394.910156 C 560.640625 394.597656 561.136719 394.335938 561.65625 394.117188 C 562.175781 393.902344 562.710938 393.742188 563.261719 393.632812 C 563.8125 393.523438 564.367188 393.46875 564.929688 393.46875 C 565.492188 393.46875 566.046875 393.523438 566.597656 393.632812 C 567.152344 393.742188 567.6875 393.902344 568.203125 394.117188 C 568.722656 394.335938 569.21875 394.597656 569.683594 394.910156 C 570.152344 395.222656 570.585938 395.578125 570.980469 395.976562 C 571.378906 396.371094 571.734375 396.804688 572.046875 397.273438 C 572.359375 397.738281 572.621094 398.234375 572.835938 398.753906 C 573.050781 399.273438 573.214844 399.808594 573.324219 400.359375 C 573.433594 400.910156 573.488281 401.46875 573.488281 402.03125 Z M 573.488281 402.03125 " fill-opacity="1" fill-rule="nonzero"/><path fill="#26477a" d="M 224.546875 216.558594 C 224.546875 217.121094 224.492188 217.675781 224.382812 218.226562 C 224.273438 218.78125 224.109375 219.316406 223.894531 219.835938 C 223.679688 220.355469 223.414062 220.847656 223.101562 221.316406 C 222.792969 221.78125 222.4375 222.214844 222.039062 222.613281 C 221.640625 223.011719 221.210938 223.367188 220.742188 223.675781 C 220.273438 223.988281 219.78125 224.253906 219.261719 224.46875 C 218.742188 224.683594 218.207031 224.847656 217.65625 224.957031 C 217.105469 225.066406 216.550781 225.121094 215.988281 225.121094 C 215.425781 225.121094 214.871094 225.066406 214.316406 224.957031 C 213.765625 224.847656 213.230469 224.683594 212.710938 224.46875 C 212.195312 224.253906 211.699219 223.988281 211.234375 223.675781 C 210.765625 223.367188 210.332031 223.011719 209.9375 222.613281 C 209.539062 222.214844 209.183594 221.78125 208.871094 221.316406 C 208.558594 220.847656 208.296875 220.355469 208.082031 219.835938 C 207.867188 219.316406 207.703125 218.78125 207.59375 218.226562 C 207.484375 217.675781 207.429688 217.121094 207.429688 216.558594 C 207.429688 215.996094 207.484375 215.4375 207.59375 214.886719 C 207.703125 214.335938 207.867188 213.800781 208.082031 213.28125 C 208.296875 212.761719 208.558594 212.269531 208.871094 211.800781 C 209.183594 211.332031 209.539062 210.902344 209.9375 210.503906 C 210.332031 210.105469 210.765625 209.75 211.234375 209.4375 C 211.699219 209.125 212.195312 208.863281 212.710938 208.648438 C 213.230469 208.433594 213.765625 208.269531 214.316406 208.160156 C 214.871094 208.050781 215.425781 207.996094 215.988281 207.996094 C 216.550781 207.996094 217.105469 208.050781 217.65625 208.160156 C 218.207031 208.269531 218.742188 208.433594 219.261719 208.648438 C 219.78125 208.863281 220.273438 209.125 220.742188 209.4375 C 221.210938 209.75 221.640625 210.105469 222.039062 210.503906 C 222.4375 210.902344 222.792969 211.332031 223.101562 211.800781 C 223.414062 212.269531 223.679688 212.761719 223.894531 213.28125 C 224.109375 213.800781 224.273438 214.335938 224.382812 214.886719 C 224.492188 215.4375 224.546875 215.996094 224.546875 216.558594 Z M 224.546875 216.558594 " fill-opacity="1" fill-rule="nonzero"/><path fill="#26477a" d="M 491.621094 660.527344 C 491.621094 661.089844 491.566406 661.644531 491.457031 662.199219 C 491.347656 662.75 491.183594 663.285156 490.96875 663.804688 C 490.753906 664.324219 490.492188 664.816406 490.179688 665.285156 C 489.867188 665.753906 489.511719 666.183594 489.113281 666.582031 C 488.71875 666.980469 488.285156 667.335938 487.816406 667.648438 C 487.351562 667.960938 486.859375 668.222656 486.339844 668.4375 C 485.820312 668.652344 485.285156 668.816406 484.734375 668.925781 C 484.183594 669.035156 483.625 669.089844 483.0625 669.089844 C 482.5 669.089844 481.945312 669.035156 481.394531 668.925781 C 480.84375 668.816406 480.308594 668.652344 479.789062 668.4375 C 479.269531 668.222656 478.777344 667.960938 478.308594 667.648438 C 477.839844 667.335938 477.410156 666.980469 477.011719 666.582031 C 476.613281 666.183594 476.261719 665.753906 475.949219 665.285156 C 475.636719 664.816406 475.371094 664.324219 475.15625 663.804688 C 474.941406 663.285156 474.78125 662.75 474.667969 662.199219 C 474.558594 661.644531 474.503906 661.089844 474.503906 660.527344 C 474.503906 659.964844 474.558594 659.410156 474.667969 658.855469 C 474.78125 658.304688 474.941406 657.769531 475.15625 657.25 C 475.371094 656.730469 475.636719 656.238281 475.949219 655.769531 C 476.261719 655.300781 476.613281 654.871094 477.011719 654.472656 C 477.410156 654.074219 477.839844 653.71875 478.308594 653.40625 C 478.777344 653.09375 479.269531 652.832031 479.789062 652.617188 C 480.308594 652.402344 480.84375 652.238281 481.394531 652.128906 C 481.945312 652.019531 482.5 651.964844 483.0625 651.964844 C 483.625 651.964844 484.183594 652.019531 484.734375 652.128906 C 485.285156 652.238281 485.820312 652.402344 486.339844 652.617188 C 486.859375 652.832031 487.351562 653.09375 487.816406 653.40625 C 488.285156 653.71875 488.71875 654.074219 489.113281 654.472656 C 489.511719 654.871094 489.867188 655.300781 490.179688 655.769531 C 490.492188 656.238281 490.753906 656.730469 490.96875 657.25 C 491.183594 657.769531 491.347656 658.304688 491.457031 658.855469 C 491.566406 659.410156 491.621094 659.964844 491.621094 660.527344 Z M 491.621094 660.527344 " fill-opacity="1" fill-rule="nonzero"/><path fill="#ffb544" d="M 56.453125 427.878906 C 56.453125 428.441406 56.398438 429 56.289062 429.550781 C 56.179688 430.101562 56.015625 430.636719 55.800781 431.15625 C 55.585938 431.675781 55.324219 432.167969 55.011719 432.636719 C 54.699219 433.105469 54.34375 433.535156 53.945312 433.933594 C 53.550781 434.332031 53.117188 434.6875 52.648438 435 C 52.183594 435.3125 51.6875 435.574219 51.167969 435.789062 C 50.652344 436.003906 50.117188 436.167969 49.5625 436.277344 C 49.011719 436.386719 48.457031 436.441406 47.894531 436.441406 C 47.332031 436.441406 46.777344 436.386719 46.226562 436.277344 C 45.675781 436.167969 45.140625 436.003906 44.621094 435.789062 C 44.101562 435.574219 43.609375 435.3125 43.140625 435 C 42.671875 434.6875 42.242188 434.332031 41.84375 433.933594 C 41.445312 433.535156 41.089844 433.105469 40.777344 432.636719 C 40.46875 432.167969 40.203125 431.675781 39.988281 431.15625 C 39.773438 430.636719 39.609375 430.101562 39.5 429.550781 C 39.390625 429 39.335938 428.441406 39.335938 427.878906 C 39.335938 427.316406 39.390625 426.761719 39.5 426.210938 C 39.609375 425.65625 39.773438 425.121094 39.988281 424.601562 C 40.203125 424.082031 40.46875 423.589844 40.777344 423.121094 C 41.089844 422.65625 41.445312 422.222656 41.84375 421.824219 C 42.242188 421.425781 42.671875 421.074219 43.140625 420.761719 C 43.609375 420.449219 44.101562 420.183594 44.621094 419.96875 C 45.140625 419.753906 45.675781 419.589844 46.226562 419.480469 C 46.777344 419.371094 47.332031 419.316406 47.894531 419.316406 C 48.457031 419.316406 49.011719 419.371094 49.5625 419.480469 C 50.117188 419.589844 50.652344 419.753906 51.167969 419.96875 C 51.6875 420.183594 52.183594 420.449219 52.648438 420.761719 C 53.117188 421.074219 53.550781 421.425781 53.945312 421.824219 C 54.34375 422.222656 54.699219 422.65625 55.011719 423.121094 C 55.324219 423.589844 55.585938 424.082031 55.800781 424.601562 C 56.015625 425.121094 56.179688 425.65625 56.289062 426.210938 C 56.398438 426.761719 56.453125 427.316406 56.453125 427.878906 Z M 56.453125 427.878906 " fill-opacity="1" fill-rule="nonzero"/><path fill="#ffae46" d="M 323.691406 566.5 C 323.691406 567.210938 323.621094 567.914062 323.480469 568.609375 C 323.34375 569.308594 323.136719 569.984375 322.867188 570.640625 C 322.59375 571.296875 322.261719 571.921875 321.867188 572.511719 C 321.472656 573.105469 321.023438 573.652344 320.519531 574.152344 C 320.019531 574.65625 319.472656 575.105469 318.882812 575.5 C 318.292969 575.894531 317.667969 576.226562 317.011719 576.5 C 316.355469 576.769531 315.679688 576.976562 314.980469 577.117188 C 314.285156 577.253906 313.582031 577.324219 312.871094 577.324219 C 312.160156 577.324219 311.457031 577.253906 310.761719 577.117188 C 310.0625 576.976562 309.386719 576.769531 308.730469 576.5 C 308.074219 576.226562 307.453125 575.894531 306.859375 575.5 C 306.269531 575.105469 305.722656 574.65625 305.222656 574.152344 C 304.71875 573.652344 304.269531 573.105469 303.875 572.511719 C 303.480469 571.921875 303.148438 571.296875 302.875 570.640625 C 302.605469 569.984375 302.398438 569.308594 302.261719 568.609375 C 302.121094 567.914062 302.050781 567.210938 302.050781 566.5 C 302.050781 565.789062 302.121094 565.085938 302.261719 564.386719 C 302.398438 563.691406 302.605469 563.011719 302.875 562.355469 C 303.148438 561.699219 303.480469 561.074219 303.875 560.484375 C 304.269531 559.894531 304.71875 559.347656 305.222656 558.84375 C 305.722656 558.34375 306.269531 557.894531 306.859375 557.5 C 307.453125 557.105469 308.074219 556.769531 308.730469 556.5 C 309.386719 556.226562 310.0625 556.019531 310.761719 555.882812 C 311.457031 555.742188 312.160156 555.675781 312.871094 555.675781 C 313.582031 555.675781 314.285156 555.742188 314.980469 555.882812 C 315.679688 556.019531 316.355469 556.226562 317.011719 556.5 C 317.667969 556.769531 318.292969 557.105469 318.882812 557.5 C 319.472656 557.894531 320.019531 558.34375 320.519531 558.84375 C 321.023438 559.347656 321.472656 559.894531 321.867188 560.484375 C 322.261719 561.074219 322.59375 561.699219 322.867188 562.355469 C 323.136719 563.011719 323.34375 563.691406 323.480469 564.386719 C 323.621094 565.085938 323.691406 565.789062 323.691406 566.5 Z M 323.691406 566.5 " fill-opacity="1" fill-rule="nonzero"/><path fill="#ffae46" d="M 103.925781 119.621094 C 103.925781 120.332031 103.855469 121.035156 103.71875 121.734375 C 103.578125 122.429688 103.375 123.105469 103.101562 123.765625 C 102.832031 124.421875 102.496094 125.042969 102.101562 125.636719 C 101.707031 126.226562 101.257812 126.773438 100.757812 127.277344 C 100.253906 127.777344 99.707031 128.226562 99.117188 128.621094 C 98.527344 129.015625 97.902344 129.351562 97.246094 129.621094 C 96.589844 129.894531 95.914062 130.097656 95.21875 130.238281 C 94.519531 130.375 93.816406 130.445312 93.105469 130.445312 C 92.398438 130.445312 91.691406 130.375 90.996094 130.238281 C 90.300781 130.097656 89.625 129.894531 88.96875 129.621094 C 88.3125 129.351562 87.6875 129.015625 87.097656 128.621094 C 86.507812 128.226562 85.960938 127.777344 85.457031 127.277344 C 84.953125 126.773438 84.507812 126.226562 84.113281 125.636719 C 83.71875 125.042969 83.382812 124.421875 83.113281 123.765625 C 82.839844 123.105469 82.636719 122.429688 82.496094 121.734375 C 82.359375 121.035156 82.289062 120.332031 82.289062 119.621094 C 82.289062 118.910156 82.359375 118.207031 82.496094 117.507812 C 82.636719 116.8125 82.839844 116.136719 83.113281 115.480469 C 83.382812 114.824219 83.71875 114.199219 84.113281 113.609375 C 84.507812 113.015625 84.953125 112.46875 85.457031 111.96875 C 85.960938 111.464844 86.507812 111.015625 87.097656 110.621094 C 87.6875 110.226562 88.3125 109.894531 88.96875 109.621094 C 89.625 109.347656 90.300781 109.144531 90.996094 109.003906 C 91.691406 108.867188 92.398438 108.796875 93.105469 108.796875 C 93.816406 108.796875 94.519531 108.867188 95.21875 109.003906 C 95.914062 109.144531 96.589844 109.347656 97.246094 109.621094 C 97.902344 109.894531 98.527344 110.226562 99.117188 110.621094 C 99.707031 111.015625 100.253906 111.464844 100.757812 111.96875 C 101.257812 112.46875 101.707031 113.015625 102.101562 113.609375 C 102.496094 114.199219 102.832031 114.824219 103.101562 115.480469 C 103.375 116.136719 103.578125 116.8125 103.71875 117.507812 C 103.855469 118.207031 103.925781 118.910156 103.925781 119.621094 Z M 103.925781 119.621094 " fill-opacity="1" fill-rule="nonzero"/><path fill="#ffae46" d="M 728.664062 429.980469 C 728.664062 430.691406 728.59375 431.394531 728.457031 432.089844 C 728.316406 432.789062 728.113281 433.464844 727.839844 434.121094 C 727.566406 434.777344 727.234375 435.402344 726.839844 435.992188 C 726.445312 436.585938 725.996094 437.132812 725.496094 437.632812 C 724.992188 438.136719 724.445312 438.585938 723.855469 438.980469 C 723.265625 439.375 722.640625 439.707031 721.984375 439.980469 C 721.328125 440.253906 720.652344 440.457031 719.957031 440.597656 C 719.257812 440.734375 718.554688 440.804688 717.84375 440.804688 C 717.132812 440.804688 716.429688 440.734375 715.734375 440.597656 C 715.035156 440.457031 714.359375 440.253906 713.703125 439.980469 C 713.046875 439.707031 712.425781 439.375 711.832031 438.980469 C 711.242188 438.585938 710.695312 438.136719 710.195312 437.632812 C 709.691406 437.132812 709.242188 436.585938 708.847656 435.992188 C 708.453125 435.402344 708.121094 434.777344 707.847656 434.121094 C 707.578125 433.464844 707.371094 432.789062 707.234375 432.089844 C 707.09375 431.394531 707.027344 430.691406 707.027344 429.980469 C 707.027344 429.269531 707.09375 428.566406 707.234375 427.867188 C 707.371094 427.171875 707.578125 426.496094 707.847656 425.835938 C 708.121094 425.179688 708.453125 424.558594 708.847656 423.964844 C 709.242188 423.375 709.691406 422.828125 710.195312 422.324219 C 710.695312 421.824219 711.242188 421.375 711.832031 420.980469 C 712.425781 420.585938 713.046875 420.25 713.703125 419.980469 C 714.359375 419.707031 715.035156 419.503906 715.734375 419.363281 C 716.429688 419.226562 717.132812 419.15625 717.84375 419.15625 C 718.554688 419.15625 719.257812 419.226562 719.957031 419.363281 C 720.652344 419.503906 721.328125 419.707031 721.984375 419.980469 C 722.640625 420.25 723.265625 420.585938 723.855469 420.980469 C 724.445312 421.375 724.992188 421.824219 725.496094 422.324219 C 725.996094 422.828125 726.445312 423.375 726.839844 423.964844 C 727.234375 424.558594 727.566406 425.179688 727.839844 425.835938 C 728.113281 426.496094 728.316406 427.171875 728.457031 427.867188 C 728.59375 428.566406 728.664062 429.269531 728.664062 429.980469 Z M 728.664062 429.980469 " fill-opacity="1" fill-rule="nonzero"/><path fill="#ffae46" d="M 629.519531 119.621094 C 629.519531 120.332031 629.449219 121.035156 629.3125 121.734375 C 629.171875 122.429688 628.96875 123.105469 628.695312 123.765625 C 628.421875 124.421875 628.089844 125.042969 627.695312 125.636719 C 627.300781 126.226562 626.851562 126.773438 626.351562 127.277344 C 625.847656 127.777344 625.300781 128.226562 624.710938 128.621094 C 624.121094 129.015625 623.496094 129.351562 622.839844 129.621094 C 622.183594 129.894531 621.507812 130.097656 620.8125 130.238281 C 620.113281 130.375 619.410156 130.445312 618.699219 130.445312 C 617.988281 130.445312 617.285156 130.375 616.589844 130.238281 C 615.894531 130.097656 615.214844 129.894531 614.558594 129.621094 C 613.902344 129.351562 613.28125 129.015625 612.691406 128.621094 C 612.097656 128.226562 611.550781 127.777344 611.050781 127.277344 C 610.546875 126.773438 610.097656 126.226562 609.703125 125.636719 C 609.308594 125.042969 608.976562 124.421875 608.703125 123.765625 C 608.433594 123.105469 608.226562 122.429688 608.089844 121.734375 C 607.949219 121.035156 607.882812 120.332031 607.882812 119.621094 C 607.882812 118.910156 607.949219 118.207031 608.089844 117.507812 C 608.226562 116.8125 608.433594 116.136719 608.703125 115.480469 C 608.976562 114.824219 609.308594 114.199219 609.703125 113.609375 C 610.097656 113.015625 610.546875 112.46875 611.050781 111.96875 C 611.550781 111.464844 612.097656 111.015625 612.691406 110.621094 C 613.28125 110.226562 613.902344 109.894531 614.558594 109.621094 C 615.214844 109.347656 615.894531 109.144531 616.589844 109.003906 C 617.285156 108.867188 617.988281 108.796875 618.699219 108.796875 C 619.410156 108.796875 620.113281 108.867188 620.8125 109.003906 C 621.507812 109.144531 622.183594 109.347656 622.839844 109.621094 C 623.496094 109.894531 624.121094 110.226562 624.710938 110.621094 C 625.300781 111.015625 625.847656 111.464844 626.351562 111.96875 C 626.851562 112.46875 627.300781 113.015625 627.695312 113.609375 C 628.089844 114.199219 628.421875 114.824219 628.695312 115.480469 C 628.96875 116.136719 629.171875 116.8125 629.3125 117.507812 C 629.449219 118.207031 629.519531 118.910156 629.519531 119.621094 Z M 629.519531 119.621094 " fill-opacity="1" fill-rule="nonzero"/><path fill="#ffb544" d="M 510.03125 477.316406 C 508.082031 478.828125 506.105469 480.292969 504.097656 481.714844 C 502.085938 483.140625 500.046875 484.519531 497.976562 485.851562 C 495.90625 487.1875 493.808594 488.476562 491.683594 489.71875 C 489.554688 490.960938 487.402344 492.15625 485.226562 493.304688 C 483.046875 494.453125 480.84375 495.554688 478.617188 496.605469 C 476.390625 497.660156 474.144531 498.660156 471.875 499.617188 C 469.601562 500.570312 467.3125 501.472656 465.003906 502.328125 C 462.695312 503.183594 460.367188 503.984375 458.023438 504.738281 C 455.679688 505.492188 453.316406 506.191406 450.941406 506.839844 C 448.566406 507.492188 446.179688 508.089844 443.777344 508.632812 C 441.378906 509.179688 438.964844 509.671875 436.542969 510.109375 C 434.121094 510.550781 431.6875 510.9375 429.25 511.269531 C 426.808594 511.605469 424.363281 511.886719 421.910156 512.113281 C 419.460938 512.339844 417.003906 512.511719 414.546875 512.632812 C 412.085938 512.75 409.625 512.816406 407.164062 512.828125 C 404.699219 512.839844 402.238281 512.800781 399.777344 512.703125 C 397.316406 512.609375 394.859375 512.460938 392.40625 512.257812 C 389.953125 512.054688 387.503906 511.796875 385.0625 511.488281 C 382.617188 511.179688 380.183594 510.816406 377.757812 510.398438 C 375.332031 509.984375 372.914062 509.515625 370.507812 508.992188 C 368.101562 508.472656 365.707031 507.898438 363.324219 507.269531 C 360.945312 506.644531 358.578125 505.96875 356.226562 505.238281 C 353.875 504.507812 351.539062 503.726562 349.222656 502.898438 C 346.902344 502.066406 344.605469 501.183594 342.324219 500.25 C 340.046875 499.320312 337.789062 498.339844 335.550781 497.308594 C 333.316406 496.277344 331.101562 495.199219 328.914062 494.070312 C 326.722656 492.945312 324.558594 491.769531 322.421875 490.546875 C 320.28125 489.328125 318.171875 488.058594 316.089844 486.746094 C 314.007812 485.433594 311.953125 484.074219 309.929688 482.667969 C 307.90625 481.265625 305.914062 479.820312 303.953125 478.328125 C 301.992188 476.839844 300.066406 475.304688 298.171875 473.730469 C 296.277344 472.15625 294.417969 470.539062 292.597656 468.886719 C 290.773438 467.230469 288.988281 465.535156 287.238281 463.800781 C 285.488281 462.066406 283.777344 460.296875 282.105469 458.488281 C 280.433594 456.679688 278.800781 454.835938 277.210938 452.953125 C 275.617188 451.074219 274.070312 449.160156 272.5625 447.214844 C 271.054688 445.265625 269.585938 443.285156 268.167969 441.273438 C 266.746094 439.261719 265.367188 437.222656 264.035156 435.148438 C 262.703125 433.078125 261.414062 430.980469 260.175781 428.851562 C 258.933594 426.722656 257.738281 424.570312 256.59375 422.390625 C 255.445312 420.210938 254.347656 418.003906 253.296875 415.777344 C 252.246094 413.550781 251.242188 411.300781 250.289062 409.027344 C 249.335938 406.757812 248.433594 404.464844 247.582031 402.152344 C 246.730469 399.84375 245.925781 397.511719 245.175781 395.167969 C 244.425781 392.820312 243.726562 390.460938 243.078125 388.082031 C 242.429688 385.707031 241.832031 383.316406 241.289062 380.914062 C 240.746094 378.511719 240.253906 376.097656 239.816406 373.671875 C 239.375 371.25 238.992188 368.816406 238.660156 366.375 C 238.328125 363.933594 238.046875 361.488281 237.820312 359.035156 C 237.597656 356.582031 237.425781 354.125 237.304688 351.664062 C 237.1875 349.203125 237.121094 346.738281 237.109375 344.277344 C 237.101562 341.8125 237.144531 339.351562 237.238281 336.886719 C 237.335938 334.425781 237.484375 331.96875 237.6875 329.511719 C 237.894531 327.058594 238.148438 324.609375 238.460938 322.164062 C 238.769531 319.71875 239.132812 317.285156 239.550781 314.855469 C 239.96875 312.425781 240.4375 310.007812 240.960938 307.601562 C 241.480469 305.195312 242.054688 302.800781 242.683594 300.417969 C 243.308594 298.035156 243.988281 295.667969 244.71875 293.3125 C 245.449219 290.960938 246.230469 288.625 247.0625 286.304688 C 247.894531 283.988281 248.777344 281.6875 249.707031 279.40625 C 250.640625 277.128906 251.621094 274.867188 252.652344 272.632812 C 253.683594 270.394531 254.761719 268.179688 255.890625 265.992188 C 257.015625 263.800781 258.191406 261.636719 259.414062 259.496094 C 260.636719 257.359375 261.902344 255.246094 263.21875 253.164062 C 264.53125 251.078125 265.890625 249.027344 267.292969 247 C 268.695312 244.976562 270.144531 242.984375 271.632812 241.023438 C 273.125 239.0625 274.65625 237.136719 276.230469 235.242188 C 277.808594 233.347656 279.421875 231.488281 281.078125 229.664062 C 282.734375 227.839844 284.429688 226.054688 286.160156 224.304688 C 287.894531 222.554688 289.667969 220.84375 291.472656 219.171875 C 293.28125 217.5 295.125 215.867188 297.007812 214.277344 C 298.886719 212.683594 300.796875 211.136719 302.746094 209.628906 C 304.691406 208.121094 306.671875 206.65625 308.683594 205.234375 C 310.695312 203.8125 312.734375 202.433594 314.804688 201.101562 C 316.875 199.769531 318.976562 198.484375 321.101562 197.242188 C 323.230469 196 325.382812 194.808594 327.5625 193.660156 C 329.742188 192.511719 331.945312 191.414062 334.171875 190.363281 C 336.398438 189.3125 338.648438 188.3125 340.917969 187.359375 C 343.191406 186.40625 345.480469 185.503906 347.792969 184.652344 C 350.101562 183.800781 352.429688 183 354.773438 182.25 C 357.121094 181.5 359.480469 180.800781 361.855469 180.152344 C 364.230469 179.503906 366.621094 178.910156 369.023438 178.367188 C 371.425781 177.824219 373.835938 177.332031 376.257812 176.894531 C 378.683594 176.457031 381.113281 176.070312 383.554688 175.738281 C 385.992188 175.410156 388.441406 175.128906 390.890625 174.90625 C 393.34375 174.679688 395.800781 174.507812 398.257812 174.390625 C 400.71875 174.273438 403.179688 174.210938 405.640625 174.199219 C 408.105469 174.191406 410.566406 174.234375 413.027344 174.332031 C 415.484375 174.429688 417.941406 174.582031 420.398438 174.785156 C 422.851562 174.988281 425.296875 175.246094 427.742188 175.558594 C 430.183594 175.871094 432.617188 176.234375 435.042969 176.652344 C 437.472656 177.070312 439.886719 177.542969 442.292969 178.066406 C 444.699219 178.589844 447.09375 179.164062 449.472656 179.792969 C 451.855469 180.421875 454.222656 181.101562 456.574219 181.832031 C 458.921875 182.5625 461.257812 183.347656 463.574219 184.179688 C 465.890625 185.011719 468.191406 185.898438 470.46875 186.832031 C 468.019531 187.066406 465.582031 187.367188 463.148438 187.726562 C 460.714844 188.085938 458.292969 188.503906 455.882812 188.988281 C 453.46875 189.46875 451.070312 190.011719 448.6875 190.613281 C 446.304688 191.214844 443.933594 191.878906 441.585938 192.597656 C 439.234375 193.320312 436.902344 194.101562 434.589844 194.9375 C 432.277344 195.777344 429.988281 196.675781 427.722656 197.628906 C 425.457031 198.582031 423.214844 199.59375 420.996094 200.660156 C 418.78125 201.726562 416.59375 202.847656 414.433594 204.027344 C 412.273438 205.203125 410.148438 206.433594 408.050781 207.71875 C 405.953125 209.003906 403.886719 210.339844 401.855469 211.726562 C 399.828125 213.117188 397.832031 214.554688 395.875 216.042969 C 393.917969 217.53125 391.996094 219.066406 390.117188 220.652344 C 388.234375 222.238281 386.394531 223.871094 384.597656 225.546875 C 382.796875 227.226562 381.042969 228.949219 379.332031 230.714844 C 377.617188 232.480469 375.953125 234.289062 374.332031 236.140625 C 372.710938 237.988281 371.136719 239.878906 369.609375 241.808594 C 368.082031 243.738281 366.605469 245.703125 365.179688 247.707031 C 363.753906 249.710938 362.375 251.75 361.050781 253.824219 C 359.726562 255.894531 358.453125 258 357.234375 260.136719 C 356.015625 262.273438 354.851562 264.441406 353.742188 266.636719 C 352.632812 268.832031 351.578125 271.054688 350.582031 273.304688 C 349.582031 275.550781 348.640625 277.824219 347.757812 280.121094 C 346.875 282.417969 346.046875 284.734375 345.28125 287.070312 C 344.511719 289.410156 343.804688 291.765625 343.15625 294.136719 C 342.507812 296.511719 341.917969 298.898438 341.390625 301.300781 C 340.859375 303.707031 340.394531 306.121094 339.984375 308.546875 C 339.578125 310.972656 339.230469 313.410156 338.945312 315.851562 C 338.664062 318.296875 338.4375 320.746094 338.277344 323.203125 C 338.117188 325.65625 338.015625 328.113281 337.976562 330.574219 C 337.9375 333.035156 337.964844 335.496094 338.046875 337.953125 C 338.132812 340.414062 338.28125 342.867188 338.492188 345.320312 C 338.699219 347.769531 338.96875 350.214844 339.300781 352.652344 C 339.632812 355.089844 340.027344 357.519531 340.480469 359.9375 C 340.9375 362.355469 341.449219 364.761719 342.027344 367.152344 C 342.601562 369.546875 343.234375 371.921875 343.929688 374.28125 C 344.625 376.644531 345.378906 378.984375 346.191406 381.308594 C 347.003906 383.628906 347.875 385.929688 348.800781 388.207031 C 349.730469 390.488281 350.714844 392.742188 351.753906 394.96875 C 352.796875 397.199219 353.894531 399.398438 355.046875 401.574219 C 356.199219 403.746094 357.402344 405.890625 358.664062 408.003906 C 359.921875 410.117188 361.234375 412.199219 362.601562 414.246094 C 363.964844 416.292969 365.378906 418.304688 366.84375 420.277344 C 368.3125 422.253906 369.824219 424.191406 371.386719 426.089844 C 372.953125 427.992188 374.5625 429.851562 376.21875 431.667969 C 377.875 433.488281 379.574219 435.261719 381.320312 436.996094 C 383.066406 438.726562 384.855469 440.417969 386.6875 442.058594 C 388.519531 443.703125 390.386719 445.296875 392.300781 446.847656 C 394.210938 448.394531 396.160156 449.894531 398.144531 451.34375 C 400.132812 452.796875 402.152344 454.195312 404.210938 455.542969 C 406.265625 456.890625 408.355469 458.1875 410.480469 459.433594 C 412.601562 460.675781 414.753906 461.863281 416.933594 463 C 419.117188 464.136719 421.324219 465.214844 423.5625 466.238281 C 425.796875 467.261719 428.058594 468.230469 430.34375 469.140625 C 432.628906 470.050781 434.933594 470.902344 437.261719 471.695312 C 439.589844 472.488281 441.933594 473.226562 444.300781 473.902344 C 446.664062 474.578125 449.042969 475.191406 451.441406 475.75 C 453.835938 476.304688 456.242188 476.800781 458.664062 477.234375 C 461.085938 477.671875 463.515625 478.042969 465.953125 478.355469 C 468.394531 478.667969 470.839844 478.921875 473.289062 479.109375 C 475.742188 479.296875 478.199219 479.425781 480.65625 479.492188 C 483.113281 479.558594 485.570312 479.5625 488.03125 479.503906 C 490.488281 479.445312 492.945312 479.328125 495.398438 479.144531 C 497.851562 478.964844 500.296875 478.71875 502.734375 478.414062 C 505.175781 478.109375 507.609375 477.746094 510.03125 477.316406 Z M 510.03125 477.316406 " fill-opacity="1" fill-rule="nonzero"/><g clip-path="url(#2443088952)"><path fill="#ffae46" d="M 278.476562 51.925781 L 286.875 69.214844 L 305.929688 71.960938 L 292.203125 85.371094 L 295.433594 104.273438 L 278.476562 95.226562 L 261.363281 104.273438 L 264.753906 85.371094 L 250.867188 71.960938 L 269.917969 69.214844 Z M 278.476562 51.925781 " fill-opacity="1" fill-rule="nonzero"/></g><path fill="#ffae46" d="M 158.019531 492.179688 L 171.90625 520.292969 L 203.070312 524.816406 L 180.625 546.789062 L 185.792969 577.808594 L 158.019531 563.105469 L 130.246094 577.808594 L 135.574219 546.789062 L 113.128906 524.816406 L 144.132812 520.292969 Z M 158.019531 492.179688 " fill-opacity="1" fill-rule="nonzero"/><g clip-path="url(#24b0507ccc)"><path fill="#ffae46" d="M 266.042969 645.988281 L 287.679688 659.074219 L 310.933594 648.734375 L 305.121094 673.453125 L 322.238281 692.191406 L 296.886719 694.292969 L 284.289062 716.425781 L 274.441406 693 L 249.574219 687.832031 L 268.789062 671.191406 Z M 266.042969 645.988281 " fill-opacity="1" fill-rule="nonzero"/></g><path fill="#ffae46" d="M 562.992188 250.808594 L 576.878906 278.921875 L 608.042969 283.445312 L 585.4375 305.417969 L 590.765625 336.4375 L 562.992188 321.734375 L 535.21875 336.4375 L 540.546875 305.417969 L 518.101562 283.445312 L 549.105469 278.921875 Z M 562.992188 250.808594 " fill-opacity="1" fill-rule="nonzero"/><path fill="#26477a" d="M 644.859375 569.730469 L 656.160156 592.511719 L 681.191406 596.226562 L 663.105469 613.996094 L 667.304688 638.878906 L 644.859375 627.085938 L 622.414062 638.878906 L 626.613281 613.996094 L 608.527344 596.226562 L 633.554688 592.511719 Z M 644.859375 569.730469 " fill-opacity="1" fill-rule="nonzero"/><path fill="#26477a" d="M 76.152344 212.035156 L 87.457031 234.8125 L 112.644531 238.367188 L 94.398438 256.140625 L 98.757812 281.183594 L 76.152344 269.386719 L 53.707031 281.183594 L 58.066406 256.140625 L 39.820312 238.367188 L 65.011719 234.8125 Z M 76.152344 212.035156 " fill-opacity="1" fill-rule="nonzero"/><path fill="#ffae46" d="M 506.476562 141.269531 C 506.476562 141.757812 506.429688 142.242188 506.335938 142.71875 C 506.238281 143.199219 506.097656 143.664062 505.910156 144.113281 C 505.726562 144.566406 505.496094 144.992188 505.226562 145.398438 C 504.953125 145.804688 504.644531 146.179688 504.300781 146.527344 C 503.957031 146.871094 503.582031 147.179688 503.175781 147.449219 C 502.769531 147.722656 502.34375 147.949219 501.890625 148.136719 C 501.441406 148.324219 500.976562 148.464844 500.5 148.558594 C 500.019531 148.65625 499.535156 148.703125 499.050781 148.703125 C 498.5625 148.703125 498.078125 148.65625 497.601562 148.558594 C 497.121094 148.464844 496.65625 148.324219 496.207031 148.136719 C 495.757812 147.949219 495.328125 147.722656 494.921875 147.449219 C 494.515625 147.179688 494.140625 146.871094 493.796875 146.527344 C 493.453125 146.179688 493.144531 145.804688 492.875 145.398438 C 492.601562 144.992188 492.375 144.566406 492.1875 144.113281 C 492 143.664062 491.859375 143.199219 491.765625 142.71875 C 491.667969 142.242188 491.621094 141.757812 491.621094 141.269531 C 491.621094 140.78125 491.667969 140.300781 491.765625 139.820312 C 491.859375 139.34375 492 138.878906 492.1875 138.425781 C 492.375 137.976562 492.601562 137.546875 492.875 137.140625 C 493.144531 136.734375 493.453125 136.359375 493.796875 136.015625 C 494.140625 135.671875 494.515625 135.363281 494.921875 135.089844 C 495.328125 134.820312 495.757812 134.589844 496.207031 134.40625 C 496.65625 134.21875 497.121094 134.078125 497.601562 133.980469 C 498.078125 133.886719 498.5625 133.839844 499.050781 133.839844 C 499.535156 133.839844 500.019531 133.886719 500.5 133.980469 C 500.976562 134.078125 501.441406 134.21875 501.890625 134.40625 C 502.34375 134.589844 502.769531 134.820312 503.175781 135.089844 C 503.582031 135.363281 503.957031 135.671875 504.300781 136.015625 C 504.644531 136.359375 504.953125 136.734375 505.226562 137.140625 C 505.496094 137.546875 505.726562 137.976562 505.910156 138.425781 C 506.097656 138.878906 506.238281 139.34375 506.335938 139.820312 C 506.429688 140.300781 506.476562 140.78125 506.476562 141.269531 Z M 506.476562 141.269531 " fill-opacity="1" fill-rule="nonzero"/></svg>