<svg xmlns="http://www.w3.org/2000/svg" xmlns:xlink="http://www.w3.org/1999/xlink" width="1024" zoomAndPan="magnify" viewBox="0 0 768 767.999994" height="1024" preserveAspectRatio="xMidYMid meet" version="1.0"><defs><clipPath id="161cb5ea4c"><path d="M 359 39 L 417 39 L 417 213 L 359 213 Z M 359 39 " clip-rule="nonzero"/></clipPath><clipPath id="d44d15b21b"><path d="M 364 555 L 421 555 L 421 729 L 364 729 Z M 364 555 " clip-rule="nonzero"/></clipPath><clipPath id="be439969c2"><path d="M 555 347 L 729 347 L 729 404 L 555 404 Z M 555 347 " clip-rule="nonzero"/></clipPath><clipPath id="7838a31c36"><path d="M 39 351 L 213 351 L 213 409 L 39 409 Z M 39 351 " clip-rule="nonzero"/></clipPath></defs><path fill="#ffb544" d="M 553.894531 375.371094 C 553.890625 378.082031 553.824219 380.789062 553.6875 383.492188 C 553.550781 386.195312 553.351562 388.894531 553.082031 391.589844 C 552.8125 394.285156 552.480469 396.972656 552.078125 399.648438 C 551.679688 402.328125 551.214844 404.996094 550.683594 407.652344 C 550.152344 410.304688 549.558594 412.945312 548.898438 415.574219 C 548.234375 418.199219 547.511719 420.808594 546.722656 423.398438 C 545.933594 425.988281 545.082031 428.558594 544.167969 431.109375 C 543.253906 433.65625 542.277344 436.179688 541.238281 438.683594 C 540.199219 441.183594 539.101562 443.65625 537.941406 446.105469 C 536.78125 448.550781 535.5625 450.96875 534.285156 453.355469 C 533.007812 455.742188 531.667969 458.097656 530.277344 460.417969 C 528.882812 462.742188 527.429688 465.027344 525.925781 467.277344 C 524.417969 469.527344 522.859375 471.738281 521.242188 473.914062 C 519.628906 476.085938 517.960938 478.21875 516.242188 480.3125 C 514.523438 482.402344 512.753906 484.453125 510.933594 486.457031 C 509.113281 488.464844 507.246094 490.421875 505.328125 492.335938 C 503.414062 494.25 501.449219 496.113281 499.445312 497.933594 C 497.4375 499.75 495.382812 501.515625 493.289062 503.234375 C 491.195312 504.949219 489.0625 506.613281 486.882812 508.226562 C 484.707031 509.835938 482.496094 511.394531 480.242188 512.898438 C 477.988281 514.402344 475.699219 515.847656 473.378906 517.238281 C 471.054688 518.628906 468.699219 519.960938 466.308594 521.238281 C 463.921875 522.511719 461.5 523.726562 459.050781 524.886719 C 456.605469 526.042969 454.128906 527.136719 451.625 528.171875 C 449.125 529.207031 446.597656 530.179688 444.046875 531.089844 C 441.496094 532.003906 438.925781 532.851562 436.335938 533.636719 C 433.742188 534.421875 431.132812 535.140625 428.507812 535.796875 C 425.878906 536.453125 423.238281 537.046875 420.582031 537.574219 C 417.925781 538.101562 415.257812 538.5625 412.578125 538.957031 C 409.898438 539.355469 407.214844 539.683594 404.519531 539.949219 C 401.824219 540.214844 399.125 540.410156 396.417969 540.542969 C 393.714844 540.675781 391.007812 540.742188 388.300781 540.742188 C 385.589844 540.738281 382.886719 540.671875 380.179688 540.539062 C 377.476562 540.40625 374.777344 540.203125 372.082031 539.9375 C 369.386719 539.671875 366.699219 539.339844 364.019531 538.941406 C 361.34375 538.542969 358.675781 538.082031 356.019531 537.550781 C 353.363281 537.023438 350.722656 536.429688 348.097656 535.769531 C 345.46875 535.109375 342.859375 534.390625 340.269531 533.601562 C 337.679688 532.816406 335.109375 531.964844 332.558594 531.054688 C 330.007812 530.140625 327.484375 529.164062 324.980469 528.128906 C 322.480469 527.09375 320.003906 525.996094 317.558594 524.835938 C 315.109375 523.679688 312.691406 522.460938 310.304688 521.183594 C 307.914062 519.90625 305.558594 518.574219 303.238281 517.179688 C 300.914062 515.789062 298.628906 514.339844 296.375 512.835938 C 294.125 511.328125 291.910156 509.769531 289.738281 508.15625 C 287.5625 506.542969 285.425781 504.878906 283.335938 503.160156 C 281.242188 501.441406 279.191406 499.675781 277.183594 497.855469 C 275.179688 496.035156 273.21875 494.171875 271.304688 492.253906 C 269.386719 490.339844 267.519531 488.378906 265.703125 486.375 C 263.882812 484.367188 262.117188 482.316406 260.398438 480.222656 C 258.679688 478.128906 257.015625 475.996094 255.402344 473.820312 C 253.789062 471.648438 252.230469 469.433594 250.722656 467.183594 C 249.21875 464.929688 247.769531 462.644531 246.378906 460.320312 C 244.984375 458 243.652344 455.644531 242.375 453.253906 C 241.097656 450.867188 239.878906 448.449219 238.722656 446 C 237.5625 443.554688 236.464844 441.078125 235.429688 438.578125 C 234.394531 436.074219 233.417969 433.550781 232.503906 431 C 231.59375 428.449219 230.742188 425.878906 229.957031 423.289062 C 229.167969 420.699219 228.445312 418.089844 227.789062 415.460938 C 227.128906 412.835938 226.535156 410.195312 226.007812 407.539062 C 225.476562 404.882812 225.015625 402.214844 224.617188 399.539062 C 224.21875 396.859375 223.886719 394.171875 223.621094 391.476562 C 223.355469 388.78125 223.152344 386.082031 223.019531 383.378906 C 222.886719 380.671875 222.820312 377.96875 222.816406 375.257812 C 222.816406 372.550781 222.882812 369.84375 223.015625 367.140625 C 223.144531 364.433594 223.34375 361.734375 223.609375 359.039062 C 223.875 356.34375 224.203125 353.65625 224.601562 350.980469 C 224.996094 348.300781 225.457031 345.632812 225.984375 342.976562 C 226.511719 340.320312 227.105469 337.679688 227.761719 335.050781 C 228.417969 332.425781 229.136719 329.816406 229.921875 327.222656 C 230.707031 324.632812 231.554688 322.0625 232.46875 319.511719 C 233.378906 316.960938 234.351562 314.433594 235.386719 311.933594 C 236.421875 309.429688 237.515625 306.953125 238.671875 304.503906 C 239.828125 302.058594 241.046875 299.636719 242.320312 297.25 C 243.597656 294.859375 244.929688 292.503906 246.320312 290.179688 C 247.710938 287.855469 249.15625 285.570312 250.660156 283.316406 C 252.164062 281.0625 253.722656 278.851562 255.332031 276.671875 C 256.945312 274.496094 258.609375 272.363281 260.324219 270.269531 C 262.042969 268.171875 263.808594 266.121094 265.625 264.113281 C 267.445312 262.105469 269.308594 260.144531 271.222656 258.230469 C 273.136719 256.3125 275.09375 254.445312 277.101562 252.625 C 279.105469 250.804688 281.152344 249.035156 283.246094 247.316406 C 285.339844 245.597656 287.472656 243.929688 289.644531 242.3125 C 291.820312 240.699219 294.03125 239.140625 296.28125 237.632812 C 298.53125 236.125 300.816406 234.675781 303.140625 233.28125 C 305.460938 231.886719 307.816406 230.550781 310.203125 229.273438 C 312.589844 227.996094 315.007812 226.777344 317.453125 225.617188 C 319.902344 224.457031 322.375 223.355469 324.875 222.320312 C 327.375 221.28125 329.902344 220.304688 332.449219 219.390625 C 335 218.476562 337.570312 217.625 340.160156 216.835938 C 342.75 216.046875 345.359375 215.320312 347.984375 214.660156 C 350.613281 214 353.253906 213.40625 355.90625 212.875 C 358.5625 212.34375 361.230469 211.878906 363.910156 211.480469 C 366.585938 211.078125 369.273438 210.746094 371.96875 210.476562 C 374.664062 210.207031 377.363281 210.007812 380.066406 209.871094 C 382.769531 209.734375 385.476562 209.667969 388.183594 209.664062 C 390.902344 209.644531 393.617188 209.691406 396.332031 209.804688 C 399.050781 209.921875 401.757812 210.101562 404.464844 210.351562 C 407.171875 210.601562 409.871094 210.917969 412.558594 211.300781 C 415.25 211.683594 417.929688 212.132812 420.597656 212.648438 C 423.265625 213.164062 425.917969 213.742188 428.558594 214.390625 C 431.199219 215.039062 433.820312 215.75 436.421875 216.527344 C 439.027344 217.304688 441.609375 218.144531 444.171875 219.050781 C 446.734375 219.953125 449.273438 220.921875 451.789062 221.953125 C 454.300781 222.984375 456.789062 224.078125 459.25 225.230469 C 461.710938 226.382812 464.140625 227.597656 466.539062 228.875 C 468.941406 230.148438 471.308594 231.480469 473.640625 232.871094 C 475.972656 234.265625 478.273438 235.710938 480.535156 237.21875 C 482.796875 238.722656 485.019531 240.285156 487.207031 241.898438 C 489.390625 243.515625 491.535156 245.183594 493.636719 246.90625 C 495.738281 248.628906 497.796875 250.402344 499.8125 252.226562 C 501.824219 254.050781 503.792969 255.921875 505.714844 257.84375 C 507.636719 259.765625 509.507812 261.734375 511.332031 263.746094 C 513.15625 265.761719 514.929688 267.820312 516.652344 269.921875 C 518.375 272.023438 520.042969 274.167969 521.65625 276.351562 C 523.273438 278.539062 524.835938 280.761719 526.339844 283.023438 C 527.84375 285.285156 529.292969 287.582031 530.6875 289.917969 C 532.078125 292.25 533.410156 294.617188 534.683594 297.019531 C 535.960938 299.417969 537.175781 301.847656 538.328125 304.308594 C 539.480469 306.769531 540.574219 309.257812 541.605469 311.769531 C 542.636719 314.285156 543.605469 316.824219 544.507812 319.386719 C 545.414062 321.949219 546.253906 324.53125 547.03125 327.136719 C 547.808594 329.738281 548.519531 332.359375 549.167969 335 C 549.8125 337.640625 550.394531 340.292969 550.910156 342.960938 C 551.425781 345.628906 551.875 348.308594 552.257812 351 C 552.640625 353.6875 552.957031 356.386719 553.207031 359.09375 C 553.457031 361.800781 553.636719 364.507812 553.753906 367.222656 C 553.867188 369.9375 553.914062 372.65625 553.894531 375.371094 Z M 553.894531 375.371094 " fill-opacity="1" fill-rule="nonzero"/><path fill="#ffae46" d="M 385.453125 39.855469 L 390.917969 39.855469 C 391.121094 39.855469 391.320312 39.894531 391.507812 39.972656 C 391.695312 40.050781 391.863281 40.160156 392.007812 40.304688 C 392.148438 40.449219 392.261719 40.613281 392.339844 40.804688 C 392.417969 40.992188 392.457031 41.1875 392.457031 41.390625 L 392.457031 187.011719 C 392.457031 187.214844 392.417969 187.410156 392.339844 187.597656 C 392.261719 187.789062 392.148438 187.953125 392.007812 188.097656 C 391.863281 188.242188 391.695312 188.351562 391.507812 188.429688 C 391.320312 188.507812 391.121094 188.546875 390.917969 188.546875 L 385.453125 188.546875 C 385.25 188.546875 385.050781 188.507812 384.863281 188.429688 C 384.675781 188.351562 384.507812 188.242188 384.363281 188.097656 C 384.21875 187.953125 384.109375 187.789062 384.03125 187.597656 C 383.953125 187.410156 383.914062 187.214844 383.914062 187.011719 L 383.914062 41.390625 C 383.914062 41.1875 383.953125 40.992188 384.03125 40.804688 C 384.109375 40.613281 384.21875 40.449219 384.363281 40.304688 C 384.507812 40.160156 384.675781 40.050781 384.863281 39.972656 C 385.050781 39.894531 385.25 39.855469 385.453125 39.855469 Z M 385.453125 39.855469 " fill-opacity="1" fill-rule="nonzero"/><g clip-path="url(#161cb5ea4c)"><path stroke-linecap="butt" transform="matrix(1.708344, 0, 0, 1.708344, 39.000001, 39.000018)" fill="none" stroke-linejoin="miter" d="M 202.800621 0.500749 L 205.999535 0.500749 C 206.118436 0.500749 206.235052 0.523614 206.344807 0.569346 C 206.454562 0.615077 206.552885 0.679101 206.637488 0.763704 C 206.719805 0.848308 206.786115 0.944344 206.831847 1.056386 C 206.877578 1.166141 206.900444 1.28047 206.900444 1.399371 L 206.900444 86.64048 C 206.900444 86.759381 206.877578 86.87371 206.831847 86.983465 C 206.786115 87.095507 206.719805 87.191543 206.637488 87.276146 C 206.552885 87.36075 206.454562 87.424774 206.344807 87.470505 C 206.235052 87.516237 206.118436 87.539102 205.999535 87.539102 L 202.800621 87.539102 C 202.681719 87.539102 202.565104 87.516237 202.455349 87.470505 C 202.345593 87.424774 202.24727 87.36075 202.162667 87.276146 C 202.078064 87.191543 202.01404 87.095507 201.968309 86.983465 C 201.922577 86.87371 201.899712 86.759381 201.899712 86.64048 L 201.899712 1.399371 C 201.899712 1.28047 201.922577 1.166141 201.968309 1.056386 C 202.01404 0.944344 202.078064 0.848308 202.162667 0.763704 C 202.24727 0.679101 202.345593 0.615077 202.455349 0.569346 C 202.565104 0.523614 202.681719 0.500749 202.800621 0.500749 Z M 202.800621 0.500749 " stroke="#ffae46" stroke-width="1" stroke-opacity="1" stroke-miterlimit="10"/></g><path stroke-linecap="butt" transform="matrix(1.536754, -0.746208, 0.746208, 1.536754, -116.288091, 95.204811)" fill-opacity="1" fill="#ffae46" fill-rule="nonzero" stroke-linejoin="miter" d="M 197.000043 113.999232 L 200.199939 113.999926 C 200.319585 113.99956 200.435414 114.022759 200.54537 114.068525 C 200.655325 114.114291 200.751179 114.178628 200.837045 114.263534 C 200.920854 114.347442 200.985389 114.444867 201.030651 114.555811 C 201.076912 114.664698 201.099726 114.779994 201.100092 114.89964 L 201.099917 161.489753 C 201.100283 161.609399 201.077084 161.725228 201.031318 161.835184 C 200.985552 161.945139 200.921215 162.040993 200.836309 162.126859 C 200.752401 162.210668 200.654976 162.275203 200.544032 162.320465 C 200.435144 162.366726 200.319849 162.38954 200.200203 162.389906 L 197.000308 162.389212 C 196.880661 162.389578 196.766889 162.367378 196.654877 162.320613 C 196.544921 162.274847 196.449068 162.21051 196.363202 162.125604 C 196.279393 162.041696 196.214857 161.94427 196.168597 161.835383 C 196.123335 161.724439 196.10052 161.609144 196.100154 161.489498 L 196.100329 114.899385 C 196.099963 114.779739 196.122164 114.665966 196.167929 114.556011 C 196.213695 114.446056 196.279031 114.348145 196.362939 114.264336 C 196.447845 114.17847 196.545271 114.113935 196.656215 114.068673 C 196.765102 114.022412 196.880397 113.999598 197.000043 113.999232 Z M 197.000043 113.999232 " stroke="#ffae46" stroke-width="1" stroke-opacity="1" stroke-miterlimit="10"/><path stroke-linecap="butt" transform="matrix(1.536754, -0.746208, 0.746208, 1.536754, -289.514515, 224.697328)" fill-opacity="1" fill="#ffae46" fill-rule="nonzero" stroke-linejoin="miter" d="M 311.399633 372.599283 L 314.599528 372.599977 C 314.719175 372.599611 314.835004 372.62281 314.944959 372.668576 C 315.054915 372.714342 315.152825 372.779678 315.236634 372.863586 C 315.320443 372.947493 315.384979 373.044919 315.430241 373.155863 C 315.476502 373.26475 315.499316 373.380045 315.499682 373.499691 L 315.499507 420.089804 C 315.499873 420.209451 315.477672 420.323223 315.430908 420.435235 C 315.385142 420.54519 315.320805 420.641044 315.235898 420.72691 C 315.151991 420.810719 315.054565 420.875255 314.943621 420.920517 C 314.834734 420.966777 314.719439 420.989591 314.599793 420.989958 L 311.399897 420.989263 C 311.280251 420.989629 311.166479 420.967429 311.056523 420.921663 C 310.944511 420.874899 310.848657 420.810561 310.762792 420.725655 C 310.678982 420.641748 310.614447 420.544322 310.568186 420.435435 C 310.522924 420.324491 310.50011 420.209196 310.499744 420.089549 L 310.499919 373.499436 C 310.499553 373.37979 310.521753 373.266018 310.567519 373.156062 C 310.613285 373.046107 310.678621 372.948196 310.763527 372.86233 C 310.847435 372.778521 310.944861 372.713986 311.055805 372.668724 C 311.166749 372.623462 311.279987 372.599649 311.399633 372.599283 Z M 311.399633 372.599283 " stroke="#ffae46" stroke-width="1" stroke-opacity="1" stroke-miterlimit="10"/><path stroke-linecap="butt" transform="matrix(1.614297, 0.559001, -0.559001, 1.614297, 57.279327, -234.163884)" fill-opacity="1" fill="#ffae46" fill-rule="nonzero" stroke-linejoin="miter" d="M 302.701079 111.399971 L 305.900195 111.400439 C 306.018788 111.400508 306.133312 111.423765 306.243018 111.468049 C 306.355633 111.513745 306.451131 111.579887 306.535992 111.664231 C 306.620854 111.748575 306.685605 111.844722 306.730994 111.954833 C 306.776383 112.064945 306.799417 112.180378 306.800095 112.301132 L 306.799986 158.889257 C 306.800665 159.010011 306.777408 159.124535 306.730963 159.23499 C 306.68668 159.344696 306.621286 159.442354 306.536942 159.527215 C 306.45185 159.609916 306.353542 159.675416 306.243431 159.720805 C 306.134067 159.768354 306.018635 159.791388 305.899293 159.789158 L 302.700926 159.790851 C 302.579423 159.789369 302.465648 159.768272 302.355193 159.721828 C 302.244739 159.675384 302.147081 159.60999 302.062968 159.527807 C 301.980267 159.442715 301.914767 159.344407 301.869378 159.234295 C 301.82399 159.124184 301.800956 159.008751 301.801025 158.890158 L 301.800386 112.299871 C 301.800456 112.181278 301.822965 112.064593 301.867248 111.954887 C 301.913692 111.844433 301.979835 111.748936 302.064178 111.664074 C 302.148522 111.579212 302.244669 111.514461 302.354781 111.469072 C 302.467053 111.422935 302.580325 111.40065 302.701079 111.399971 Z M 302.701079 111.399971 " stroke="#ffae46" stroke-width="1" stroke-opacity="1" stroke-miterlimit="10"/><path stroke-linecap="butt" transform="matrix(1.614297, 0.559001, -0.559001, 1.614297, 195.484081, -151.992966)" fill-opacity="1" fill="#ffae46" fill-rule="nonzero" stroke-linejoin="miter" d="M 200.700956 375.199635 L 203.900072 375.200103 C 204.018665 375.200172 204.133189 375.223429 204.245804 375.269125 C 204.35551 375.313409 204.451007 375.379551 204.535869 375.463895 C 204.620731 375.548238 204.685482 375.644386 204.731619 375.756658 C 204.777008 375.866769 204.799293 375.980041 204.799972 376.100796 L 204.799863 422.688921 C 204.800541 422.809675 204.777284 422.924199 204.73084 423.034653 C 204.686557 423.14436 204.621163 423.242018 204.536819 423.326879 C 204.452475 423.411741 204.353419 423.47508 204.244056 423.522629 C 204.133944 423.568018 204.018511 423.591052 203.899918 423.590982 L 200.700803 423.590514 C 200.580048 423.591193 200.465524 423.567936 200.35507 423.521492 C 200.244616 423.475048 200.147706 423.411814 200.062844 423.327471 C 199.980143 423.242379 199.914644 423.144071 199.869255 423.033959 C 199.823866 422.923848 199.800833 422.808415 199.800902 422.689821 L 199.800263 376.099535 C 199.800333 375.980942 199.82359 375.866418 199.867873 375.756712 C 199.914317 375.646257 199.979711 375.548599 200.064055 375.463738 C 200.148399 375.378876 200.244546 375.314125 200.354658 375.268736 C 200.46693 375.222599 200.580202 375.200313 200.700956 375.199635 Z M 200.700956 375.199635 " stroke="#ffae46" stroke-width="1" stroke-opacity="1" stroke-miterlimit="10"/><path stroke-linecap="butt" transform="matrix(0.746208, 1.536754, -1.536754, 0.746208, 643.069723, -468.378773)" fill-opacity="1" fill="#ffae46" fill-rule="nonzero" stroke-linejoin="miter" d="M 383.499722 183.598955 L 386.699617 183.59965 C 386.819264 183.599283 386.935093 183.622483 387.045048 183.668248 C 387.155004 183.714014 387.252914 183.77935 387.336723 183.863258 C 387.420532 183.947165 387.485068 184.044591 387.53033 184.155535 C 387.57659 184.264422 387.599405 184.379717 387.599771 184.499364 L 387.599596 231.089476 C 387.599962 231.209123 387.576763 231.324952 387.530997 231.434907 C 387.485231 231.544863 387.419895 231.642773 387.335987 231.726582 C 387.25208 231.810391 387.154654 231.874927 387.045767 231.921188 C 386.934823 231.966449 386.819528 231.989264 386.699882 231.98963 L 383.499986 231.988935 C 383.38034 231.989301 383.266568 231.967101 383.156612 231.921335 C 383.0446 231.874571 382.948746 231.810233 382.86288 231.725327 C 382.779071 231.64142 382.714536 231.543994 382.668275 231.435107 C 382.623013 231.324163 382.600199 231.208868 382.599833 231.089221 L 382.600008 184.499109 C 382.599642 184.379462 382.621842 184.26569 382.667608 184.155734 C 382.713374 184.045779 382.77871 183.947869 382.862617 183.864059 C 382.947524 183.778194 383.04495 183.713658 383.155894 183.668396 C 383.266837 183.623134 383.380076 183.599321 383.499722 183.598955 Z M 383.499722 183.598955 " stroke="#ffae46" stroke-width="1" stroke-opacity="1" stroke-miterlimit="10"/><path stroke-linecap="butt" transform="matrix(0.746208, 1.536754, -1.536754, 0.746208, 569.782127, 39.513274)" fill-opacity="1" fill="#ffae46" fill-rule="nonzero" stroke-linejoin="miter" d="M 124.900395 297.999941 L 128.10029 298.000636 C 128.219937 298.000269 128.333709 298.02247 128.443665 298.068236 C 128.55362 298.114001 128.65153 298.179337 128.73534 298.263245 C 128.821205 298.348151 128.885741 298.445577 128.931003 298.556521 C 128.977264 298.665408 129.000078 298.780703 129.000444 298.90035 L 129.000269 345.490462 C 129.000635 345.610109 128.978435 345.723881 128.932669 345.833836 C 128.885904 345.945849 128.821567 346.041702 128.736661 346.127568 C 128.652753 346.211377 128.555327 346.275913 128.444383 346.321175 C 128.333439 346.366437 128.220201 346.39025 128.100555 346.390616 L 124.90066 346.389921 C 124.781013 346.390288 124.665184 346.367088 124.555229 346.321323 C 124.445273 346.275557 124.347363 346.210221 124.263554 346.126313 C 124.179745 346.042406 124.115209 345.94498 124.06789 345.833037 C 124.02163 345.72415 124.000872 345.609854 124.000506 345.490207 L 124.000681 298.900095 C 124.000315 298.780448 124.022516 298.666676 124.06928 298.554664 C 124.115046 298.444708 124.179383 298.348855 124.264289 298.262989 C 124.348197 298.17918 124.445623 298.114644 124.55451 298.068383 C 124.665454 298.023121 124.780749 298.000307 124.900395 297.999941 Z M 124.900395 297.999941 " stroke="#ffae46" stroke-width="1" stroke-opacity="1" stroke-miterlimit="10"/><path stroke-linecap="butt" transform="matrix(-0.559001, 1.614297, -1.614297, -0.559001, 1346.053184, 20.379753)" fill-opacity="1" fill="#ffae46" fill-rule="nonzero" stroke-linejoin="miter" d="M 386.098845 294.299546 L 389.300122 294.299265 C 389.418715 294.299335 389.533239 294.322592 389.643693 294.369036 C 389.754148 294.41548 389.851057 294.478714 389.935919 294.563057 C 390.020781 294.647401 390.08628 294.745709 390.131669 294.855821 C 390.177058 294.965932 390.200092 295.081365 390.200022 295.199958 L 390.200658 341.790246 C 390.200588 341.908839 390.177331 342.023363 390.130887 342.133817 C 390.084443 342.244272 390.02121 342.341181 389.936866 342.426043 C 389.852522 342.510905 389.754214 342.576404 389.644103 342.621793 C 389.533991 342.667182 389.418558 342.690216 389.299965 342.690146 L 386.100849 342.689678 C 385.980095 342.690357 385.865571 342.6671 385.755117 342.620656 C 385.645411 342.576372 385.547753 342.510978 385.462891 342.426634 C 385.38019 342.341542 385.315439 342.245395 385.267141 342.133871 C 385.221752 342.02376 385.199467 341.910487 385.198788 341.789733 L 385.200313 295.198698 C 385.200383 295.080104 385.22364 294.96558 385.267923 294.855874 C 385.314367 294.74542 385.379761 294.647762 385.464105 294.5629 C 385.548449 294.478039 385.644596 294.413287 385.754708 294.367899 C 385.864819 294.32251 385.980252 294.299476 386.098845 294.299546 Z M 386.098845 294.299546 " stroke="#ffae46" stroke-width="1" stroke-opacity="1" stroke-miterlimit="10"/><path stroke-linecap="butt" transform="matrix(-0.559001, 1.614297, -1.614297, -0.559001, 583.10599, 214.617489)" fill-opacity="1" fill="#ffae46" fill-rule="nonzero" stroke-linejoin="miter" d="M 122.299965 192.298975 L 125.49908 192.299443 C 125.619835 192.298764 125.734359 192.322021 125.844813 192.368465 C 125.955267 192.41491 126.052177 192.478143 126.137039 192.562487 C 126.21974 192.647579 126.285239 192.745887 126.330628 192.855998 C 126.378177 192.965361 126.401211 193.080794 126.398981 193.200136 L 126.399617 239.790423 C 126.399547 239.909017 126.37629 240.023541 126.332007 240.133247 C 126.285562 240.243701 126.220168 240.341359 126.135825 240.426221 C 126.051481 240.511082 125.955333 240.575834 125.845222 240.621222 C 125.735111 240.666611 125.619678 240.689645 125.498924 240.690324 L 122.299808 240.689856 C 122.181215 240.689786 122.066691 240.666529 121.956236 240.620085 C 121.84437 240.57655 121.748872 240.510407 121.664011 240.426064 C 121.579149 240.34172 121.514398 240.245572 121.468261 240.1333 C 121.422872 240.023189 121.400586 239.909917 121.399908 239.789163 L 121.40002 193.201036 C 121.399341 193.080282 121.422598 192.965758 121.469043 192.855304 C 121.513326 192.745597 121.57872 192.64794 121.663064 192.563078 C 121.747408 192.478216 121.846464 192.414877 121.955827 192.367328 C 122.065939 192.321939 122.181371 192.298905 122.299965 192.298975 Z M 122.299965 192.298975 " stroke="#ffae46" stroke-width="1" stroke-opacity="1" stroke-miterlimit="10"/><path fill="#ffae46" d="M 389.722656 579.347656 L 395.191406 579.347656 C 395.394531 579.347656 395.589844 579.386719 395.777344 579.464844 C 395.964844 579.542969 396.132812 579.65625 396.277344 579.800781 C 396.421875 579.945312 396.53125 580.109375 396.609375 580.296875 C 396.6875 580.488281 396.726562 580.683594 396.726562 580.886719 L 396.726562 726.503906 C 396.726562 726.710938 396.6875 726.90625 396.609375 727.09375 C 396.53125 727.28125 396.421875 727.449219 396.277344 727.59375 C 396.132812 727.738281 395.964844 727.847656 395.777344 727.925781 C 395.589844 728.003906 395.394531 728.042969 395.191406 728.042969 L 389.722656 728.042969 C 389.519531 728.042969 389.324219 728.003906 389.132812 727.925781 C 388.945312 727.847656 388.78125 727.738281 388.636719 727.59375 C 388.492188 727.449219 388.378906 727.28125 388.300781 727.09375 C 388.222656 726.90625 388.183594 726.710938 388.183594 726.503906 L 388.183594 580.886719 C 388.183594 580.683594 388.222656 580.488281 388.300781 580.296875 C 388.378906 580.109375 388.492188 579.945312 388.636719 579.800781 C 388.78125 579.65625 388.945312 579.542969 389.132812 579.464844 C 389.324219 579.386719 389.519531 579.347656 389.722656 579.347656 Z M 389.722656 579.347656 " fill-opacity="1" fill-rule="nonzero"/><g clip-path="url(#d44d15b21b)"><path stroke-linecap="butt" transform="matrix(1.708344, 0, 0, 1.708344, 39.000001, 39.000018)" fill="none" stroke-linejoin="miter" d="M 205.299844 316.299173 L 208.501044 316.299173 C 208.619946 316.299173 208.734275 316.322038 208.84403 316.36777 C 208.953785 316.413501 209.052108 316.479812 209.136711 316.564415 C 209.221314 316.649018 209.285338 316.745054 209.33107 316.85481 C 209.376801 316.966852 209.399667 317.08118 209.399667 317.200082 L 209.399667 402.438904 C 209.399667 402.560092 209.376801 402.674421 209.33107 402.784176 C 209.285338 402.893931 209.221314 402.992254 209.136711 403.076857 C 209.052108 403.16146 208.953785 403.225484 208.84403 403.271216 C 208.734275 403.316947 208.619946 403.339813 208.501044 403.339813 L 205.299844 403.339813 C 205.180942 403.339813 205.066613 403.316947 204.954571 403.271216 C 204.844816 403.225484 204.74878 403.16146 204.664177 403.076857 C 204.579574 402.992254 204.513263 402.893931 204.467532 402.784176 C 204.4218 402.674421 204.398934 402.560092 204.398934 402.438904 L 204.398934 317.200082 C 204.398934 317.08118 204.4218 316.966852 204.467532 316.85481 C 204.513263 316.745054 204.579574 316.649018 204.664177 316.564415 C 204.74878 316.479812 204.844816 316.413501 204.954571 316.36777 C 205.066613 316.322038 205.180942 316.299173 205.299844 316.299173 Z M 205.299844 316.299173 " stroke="#ffae46" stroke-width="1" stroke-opacity="1" stroke-miterlimit="10"/></g><path fill="#ffae46" d="M 728.144531 372.808594 L 728.144531 378.277344 C 728.144531 378.480469 728.105469 378.675781 728.027344 378.867188 C 727.949219 379.054688 727.839844 379.21875 727.695312 379.363281 C 727.550781 379.507812 727.386719 379.621094 727.195312 379.699219 C 727.007812 379.777344 726.8125 379.816406 726.609375 379.816406 L 580.988281 379.816406 C 580.785156 379.816406 580.589844 379.777344 580.402344 379.699219 C 580.210938 379.621094 580.046875 379.507812 579.902344 379.363281 C 579.757812 379.21875 579.648438 379.054688 579.570312 378.867188 C 579.492188 378.675781 579.453125 378.480469 579.453125 378.277344 L 579.453125 372.808594 C 579.453125 372.605469 579.492188 372.410156 579.570312 372.222656 C 579.648438 372.035156 579.757812 371.867188 579.902344 371.722656 C 580.046875 371.578125 580.210938 371.46875 580.402344 371.390625 C 580.589844 371.3125 580.785156 371.273438 580.988281 371.273438 L 726.609375 371.273438 C 726.8125 371.273438 727.007812 371.3125 727.195312 371.390625 C 727.386719 371.46875 727.550781 371.578125 727.695312 371.722656 C 727.839844 371.867188 727.949219 372.035156 728.027344 372.222656 C 728.105469 372.410156 728.144531 372.605469 728.144531 372.808594 Z M 728.144531 372.808594 " fill-opacity="1" fill-rule="nonzero"/><g clip-path="url(#be439969c2)"><path stroke-linecap="butt" transform="matrix(0, 1.708344, -1.708344, 0, 1105.689788, -325.560492)" fill="none" stroke-linejoin="miter" d="M 408.798981 221.000785 L 412.000182 221.000785 C 412.119084 221.000785 412.233412 221.023651 412.345454 221.069383 C 412.45521 221.115114 412.551246 221.179138 412.635849 221.263741 C 412.720452 221.348344 412.786762 221.44438 412.832494 221.556422 C 412.878225 221.666178 412.901091 221.780506 412.901091 221.899408 L 412.901091 307.140516 C 412.901091 307.259418 412.878225 307.373747 412.832494 307.483502 C 412.786762 307.595544 412.720452 307.69158 412.635849 307.776183 C 412.551246 307.860786 412.45521 307.92481 412.345454 307.970542 C 412.233412 308.016273 412.119084 308.039139 412.000182 308.039139 L 408.798981 308.039139 C 408.68008 308.039139 408.565751 308.016273 408.455996 307.970542 C 408.34624 307.92481 408.247918 307.860786 408.163314 307.776183 C 408.078711 307.69158 408.014687 307.595544 407.968956 307.483502 C 407.923224 307.373747 407.900359 307.259418 407.900359 307.140516 L 407.900359 221.899408 C 407.900359 221.780506 407.923224 221.666178 407.968956 221.556422 C 408.014687 221.44438 408.078711 221.348344 408.163314 221.263741 C 408.247918 221.179138 408.34624 221.115114 408.455996 221.069383 C 408.565751 221.023651 408.68008 221.000785 408.798981 221.000785 Z M 408.798981 221.000785 " stroke="#ffae46" stroke-width="1" stroke-opacity="1" stroke-miterlimit="10"/></g><path fill="#ffae46" d="M 188.480469 377.082031 L 188.480469 382.546875 C 188.480469 382.75 188.441406 382.949219 188.363281 383.136719 C 188.285156 383.324219 188.175781 383.492188 188.03125 383.636719 C 187.886719 383.777344 187.71875 383.890625 187.53125 383.96875 C 187.34375 384.046875 187.148438 384.085938 186.941406 384.085938 L 41.324219 384.085938 C 41.121094 384.085938 40.921875 384.046875 40.734375 383.96875 C 40.546875 383.890625 40.378906 383.777344 40.234375 383.636719 C 40.09375 383.492188 39.980469 383.324219 39.902344 383.136719 C 39.824219 382.949219 39.785156 382.75 39.785156 382.546875 L 39.785156 377.082031 C 39.785156 376.878906 39.824219 376.679688 39.902344 376.492188 C 39.980469 376.304688 40.09375 376.136719 40.234375 375.992188 C 40.378906 375.851562 40.546875 375.738281 40.734375 375.660156 C 40.921875 375.582031 41.121094 375.542969 41.324219 375.542969 L 186.941406 375.542969 C 187.148438 375.542969 187.34375 375.582031 187.53125 375.660156 C 187.71875 375.738281 187.886719 375.851562 188.03125 375.992188 C 188.175781 376.136719 188.285156 376.304688 188.363281 376.492188 C 188.441406 376.679688 188.480469 376.878906 188.480469 377.082031 Z M 188.480469 377.082031 " fill-opacity="1" fill-rule="nonzero"/><g clip-path="url(#7838a31c36)"><path stroke-linecap="butt" transform="matrix(0, 1.708344, -1.708344, 0, 570.294887, 218.205259)" fill="none" stroke-linejoin="miter" d="M 93.000484 223.499792 L 96.199398 223.499792 C 96.318299 223.499792 96.434914 223.522657 96.54467 223.568389 C 96.654425 223.61412 96.752748 223.678144 96.837351 223.762747 C 96.919668 223.847351 96.985978 223.945673 97.03171 224.055429 C 97.077441 224.165184 97.100307 224.279513 97.100307 224.400701 L 97.100307 309.639523 C 97.100307 309.758424 97.077441 309.875039 97.03171 309.984795 C 96.985978 310.09455 96.919668 310.192873 96.837351 310.277476 C 96.752748 310.359793 96.654425 310.426103 96.54467 310.471835 C 96.434914 310.517566 96.318299 310.540432 96.199398 310.540432 L 93.000484 310.540432 C 92.881582 310.540432 92.764967 310.517566 92.655211 310.471835 C 92.545456 310.426103 92.447133 310.359793 92.36253 310.277476 C 92.280214 310.192873 92.213903 310.09455 92.168172 309.984795 C 92.12244 309.875039 92.099574 309.758424 92.099574 309.639523 L 92.099574 224.400701 C 92.099574 224.279513 92.12244 224.165184 92.168172 224.055429 C 92.213903 223.945673 92.280214 223.847351 92.36253 223.762747 C 92.447133 223.678144 92.545456 223.61412 92.655211 223.568389 C 92.764967 223.522657 92.881582 223.499792 93.000484 223.499792 Z M 93.000484 223.499792 " stroke="#ffae46" stroke-width="1" stroke-opacity="1" stroke-miterlimit="10"/></g><path stroke-linecap="butt" transform="matrix(-1.207981, 1.207981, -1.207981, -1.207981, 1482.20981, 584.986815)" fill-opacity="1" fill="#ffae46" fill-rule="nonzero" stroke-linejoin="miter" d="M 365.899849 335.498614 L 369.099596 335.500231 C 369.219243 335.500231 369.335656 335.522867 369.445602 335.568139 C 369.553931 335.615027 369.650942 335.679701 369.735018 335.763778 C 369.820711 335.849471 369.885385 335.946482 369.932274 336.054811 C 369.977545 336.164756 370.000181 336.28117 370.000181 336.400817 L 370.000181 421.641169 C 369.998564 421.759199 369.977545 421.873995 369.932274 421.983941 C 369.885385 422.095504 369.820711 422.192515 369.736635 422.276591 C 369.652558 422.360667 369.555547 422.425341 369.443985 422.47223 C 369.334039 422.517502 369.219243 422.538521 369.101212 422.540138 L 365.899849 422.540138 C 365.780202 422.540138 365.665405 422.515885 365.55546 422.470613 C 365.445514 422.425341 365.348503 422.360667 365.264427 422.276591 C 365.178733 422.190898 365.114059 422.093887 365.068788 421.983941 C 365.023516 421.873995 364.999263 421.759199 364.999263 421.639552 L 364.999263 336.3992 C 365.00088 336.28117 365.021899 336.166373 365.068788 336.054811 C 365.114059 335.944865 365.178733 335.847854 365.26281 335.763778 C 365.346886 335.679701 365.445514 335.61341 365.55546 335.568139 C 365.665405 335.522867 365.781819 335.500231 365.899849 335.498614 Z M 365.899849 335.498614 " stroke="#ffae46" stroke-width="1" stroke-opacity="1" stroke-miterlimit="10"/><path stroke-linecap="butt" transform="matrix(-1.207981, 1.207981, -1.207981, -1.207981, 558.166607, 210.688999)" fill-opacity="1" fill="#ffae46" fill-rule="nonzero" stroke-linejoin="miter" d="M 140.800615 114.000944 L 144.000361 113.999327 C 144.120008 113.999327 144.234805 114.02358 144.344751 114.068851 C 144.454696 114.114123 144.551707 114.178797 144.635784 114.262873 C 144.721477 114.348567 144.786151 114.445578 144.831423 114.555523 C 144.876694 114.665469 144.900947 114.780266 144.900947 114.899913 L 144.900947 200.140265 C 144.900947 200.259912 144.876694 200.374708 144.831423 200.484654 C 144.786151 200.5946 144.721477 200.691611 144.635784 200.777304 C 144.551707 200.86138 144.454696 200.926054 144.344751 200.971326 C 144.234805 201.016598 144.120008 201.04085 144.000361 201.04085 L 140.800615 201.039233 C 140.680968 201.039233 140.566171 201.018214 140.454609 200.971326 C 140.344663 200.926054 140.247652 200.86138 140.163576 200.777304 C 140.079499 200.693227 140.013208 200.5946 139.967937 200.484654 C 139.922665 200.374708 139.900029 200.258295 139.900029 200.138648 L 139.900029 114.901529 C 139.900029 114.781882 139.922665 114.665469 139.967937 114.555523 C 140.013208 114.445578 140.079499 114.34695 140.163576 114.262873 C 140.247652 114.178797 140.344663 114.114123 140.454609 114.068851 C 140.566171 114.021963 140.680968 114.000944 140.800615 114.000944 Z M 140.800615 114.000944 " stroke="#ffae46" stroke-width="1" stroke-opacity="1" stroke-miterlimit="10"/><path stroke-linecap="butt" transform="matrix(-1.207981, -1.207981, 1.207981, -1.207981, -91.004642, 1197.937569)" fill-opacity="1" fill="#ffae46" fill-rule="nonzero" stroke-linejoin="miter" d="M 140.101426 334.799925 L 143.299556 334.799925 C 143.419203 334.799925 143.534 334.824177 143.643945 334.869449 C 143.753891 334.914721 143.850902 334.979395 143.934979 335.063471 C 144.020672 335.149164 144.085346 335.246175 144.130617 335.356121 C 144.175889 335.466067 144.200142 335.580863 144.200142 335.70051 L 144.200142 420.940862 C 144.200142 421.060509 144.177506 421.173689 144.132234 421.283635 C 144.085346 421.395197 144.020672 421.492208 143.936595 421.576285 C 143.852519 421.660361 143.755508 421.725035 143.643945 421.771923 C 143.534 421.817195 143.419203 421.841448 143.301173 421.839831 L 140.099809 421.839831 C 139.980162 421.839831 139.866983 421.817195 139.75542 421.770307 C 139.645474 421.725035 139.548463 421.660361 139.464387 421.576285 C 139.380311 421.492208 139.31402 421.39358 139.268748 421.283635 C 139.223477 421.173689 139.199224 421.058892 139.199224 420.939246 L 139.200841 335.70051 C 139.200841 335.580863 139.22186 335.466067 139.268748 335.354504 C 139.31402 335.244558 139.378694 335.147547 139.46277 335.063471 C 139.546847 334.979395 139.645474 334.913104 139.75542 334.867832 C 139.865366 334.822561 139.981779 334.799925 140.101426 334.799925 Z M 140.101426 334.799925 " stroke="#ffae46" stroke-width="1" stroke-opacity="1" stroke-miterlimit="10"/><path stroke-linecap="butt" transform="matrix(-1.207981, -1.207981, 1.207981, -1.207981, 826.887202, 809.290636)" fill-opacity="1" fill="#ffae46" fill-rule="nonzero" stroke-linejoin="miter" d="M 361.699983 109.700516 L 364.89973 109.698899 C 365.019377 109.698899 365.134173 109.723152 365.244119 109.768424 C 365.354065 109.813695 365.452692 109.879986 365.536769 109.964062 C 365.620845 110.048139 365.685519 110.14515 365.730791 110.255096 C 365.777679 110.366658 365.800315 110.479838 365.800315 110.599485 L 365.800315 195.839837 C 365.800315 195.959484 365.776063 196.07428 365.730791 196.184226 C 365.685519 196.294172 365.620845 196.391183 365.536769 196.475259 C 365.451076 196.560952 365.354065 196.625626 365.244119 196.670898 C 365.134173 196.71617 365.019377 196.740422 364.89973 196.740422 L 361.699983 196.738806 C 361.580336 196.738806 361.465539 196.717787 361.355594 196.672515 C 361.244031 196.625626 361.14702 196.560952 361.062944 196.476876 C 360.978867 196.3928 360.914193 196.295789 360.867305 196.184226 C 360.822033 196.07428 360.801014 195.959484 360.801014 195.839837 L 360.801014 110.599485 C 360.799397 110.481455 360.822033 110.365041 360.868922 110.256712 C 360.914193 110.146767 360.980484 110.048139 361.064561 109.964062 C 361.148637 109.879986 361.245648 109.815312 361.353977 109.768424 C 361.465539 109.721535 361.580336 109.700516 361.699983 109.700516 Z M 361.699983 109.700516 " stroke="#ffae46" stroke-width="1" stroke-opacity="1" stroke-miterlimit="10"/></svg>