<svg xmlns="http://www.w3.org/2000/svg" xmlns:xlink="http://www.w3.org/1999/xlink" width="1080" zoomAndPan="magnify" viewBox="0 0 810 1439.999935" height="1920" preserveAspectRatio="xMidYMid meet" version="1.0"><defs><clipPath id="e4556b22c3"><path d="M 342 564.070312 L 369 564.070312 L 369 589 L 342 589 Z M 342 564.070312 " clip-rule="nonzero"/></clipPath><clipPath id="0adbc763a8"><path d="M 341 842 L 376 842 L 376 876.070312 L 341 876.070312 Z M 341 842 " clip-rule="nonzero"/></clipPath></defs><path fill="#ffae46" d="M 500.121094 796.191406 C 500.121094 796.527344 500.085938 796.855469 500.023438 797.183594 C 499.957031 797.511719 499.859375 797.828125 499.734375 798.136719 C 499.605469 798.445312 499.449219 798.738281 499.261719 799.015625 C 499.078125 799.292969 498.867188 799.550781 498.632812 799.785156 C 498.394531 800.023438 498.140625 800.234375 497.863281 800.417969 C 497.585938 800.605469 497.292969 800.761719 496.984375 800.886719 C 496.675781 801.015625 496.359375 801.113281 496.03125 801.175781 C 495.703125 801.242188 495.375 801.273438 495.039062 801.273438 C 494.707031 801.273438 494.375 801.242188 494.046875 801.175781 C 493.722656 801.113281 493.402344 801.015625 493.09375 800.886719 C 492.789062 800.761719 492.496094 800.605469 492.21875 800.417969 C 491.941406 800.234375 491.683594 800.023438 491.449219 799.785156 C 491.210938 799.550781 491 799.292969 490.816406 799.015625 C 490.628906 798.738281 490.472656 798.445312 490.347656 798.136719 C 490.21875 797.828125 490.121094 797.511719 490.058594 797.183594 C 489.992188 796.855469 489.960938 796.527344 489.960938 796.191406 C 489.960938 795.859375 489.992188 795.527344 490.058594 795.203125 C 490.121094 794.875 490.21875 794.554688 490.347656 794.246094 C 490.472656 793.941406 490.628906 793.648438 490.816406 793.367188 C 491 793.089844 491.210938 792.835938 491.449219 792.597656 C 491.683594 792.363281 491.941406 792.152344 492.21875 791.96875 C 492.496094 791.78125 492.789062 791.625 493.09375 791.496094 C 493.402344 791.371094 493.722656 791.273438 494.046875 791.207031 C 494.375 791.144531 494.707031 791.109375 495.039062 791.109375 C 495.375 791.109375 495.703125 791.144531 496.03125 791.207031 C 496.359375 791.273438 496.675781 791.371094 496.984375 791.496094 C 497.292969 791.625 497.585938 791.78125 497.863281 791.96875 C 498.140625 792.152344 498.394531 792.363281 498.632812 792.597656 C 498.867188 792.835938 499.078125 793.089844 499.261719 793.367188 C 499.449219 793.648438 499.605469 793.941406 499.734375 794.246094 C 499.859375 794.554688 499.957031 794.875 500.023438 795.203125 C 500.085938 795.527344 500.121094 795.859375 500.121094 796.191406 Z M 500.121094 796.191406 " fill-opacity="1" fill-rule="nonzero"/><path fill="#26477a" d="M 326.105469 733.460938 C 326.105469 733.792969 326.074219 734.125 326.007812 734.449219 C 325.945312 734.777344 325.847656 735.09375 325.71875 735.402344 C 325.59375 735.710938 325.433594 736.003906 325.25 736.28125 C 325.066406 736.558594 324.855469 736.816406 324.617188 737.054688 C 324.382812 737.289062 324.125 737.5 323.847656 737.683594 C 323.570312 737.871094 323.277344 738.027344 322.96875 738.15625 C 322.660156 738.28125 322.34375 738.378906 322.015625 738.445312 C 321.691406 738.507812 321.359375 738.542969 321.027344 738.542969 C 320.691406 738.542969 320.363281 738.507812 320.035156 738.445312 C 319.707031 738.378906 319.390625 738.28125 319.082031 738.15625 C 318.773438 738.027344 318.480469 737.871094 318.203125 737.683594 C 317.925781 737.5 317.667969 737.289062 317.433594 737.054688 C 317.199219 736.816406 316.988281 736.558594 316.800781 736.28125 C 316.617188 736.003906 316.460938 735.710938 316.332031 735.402344 C 316.207031 735.09375 316.109375 734.777344 316.042969 734.449219 C 315.980469 734.125 315.945312 733.792969 315.945312 733.460938 C 315.945312 733.125 315.980469 732.792969 316.042969 732.46875 C 316.109375 732.140625 316.207031 731.824219 316.332031 731.515625 C 316.460938 731.207031 316.617188 730.914062 316.800781 730.636719 C 316.988281 730.359375 317.199219 730.101562 317.433594 729.863281 C 317.667969 729.628906 317.925781 729.417969 318.203125 729.234375 C 318.480469 729.046875 318.773438 728.890625 319.082031 728.761719 C 319.390625 728.636719 319.707031 728.539062 320.035156 728.472656 C 320.363281 728.410156 320.691406 728.375 321.027344 728.375 C 321.359375 728.375 321.691406 728.410156 322.015625 728.472656 C 322.34375 728.539062 322.660156 728.636719 322.96875 728.761719 C 323.277344 728.890625 323.570312 729.046875 323.847656 729.234375 C 324.125 729.417969 324.382812 729.628906 324.617188 729.863281 C 324.855469 730.101562 325.066406 730.359375 325.25 730.636719 C 325.433594 730.914062 325.59375 731.207031 325.71875 731.515625 C 325.847656 731.824219 325.945312 732.140625 326.007812 732.46875 C 326.074219 732.792969 326.105469 733.125 326.105469 733.460938 Z M 326.105469 733.460938 " fill-opacity="1" fill-rule="nonzero"/><path fill="#26477a" d="M 265.371094 837.6875 C 265.371094 837.949219 265.347656 838.210938 265.296875 838.472656 C 265.242188 838.730469 265.167969 838.980469 265.066406 839.226562 C 264.964844 839.46875 264.839844 839.699219 264.695312 839.921875 C 264.546875 840.140625 264.382812 840.34375 264.195312 840.53125 C 264.007812 840.714844 263.804688 840.882812 263.585938 841.03125 C 263.367188 841.175781 263.136719 841.300781 262.890625 841.402344 C 262.648438 841.503906 262.394531 841.578125 262.136719 841.628906 C 261.878906 841.679688 261.617188 841.707031 261.355469 841.707031 C 261.089844 841.707031 260.828125 841.679688 260.570312 841.628906 C 260.3125 841.578125 260.058594 841.503906 259.816406 841.402344 C 259.570312 841.300781 259.339844 841.175781 259.121094 841.03125 C 258.902344 840.882812 258.699219 840.714844 258.511719 840.53125 C 258.324219 840.34375 258.160156 840.140625 258.011719 839.921875 C 257.867188 839.699219 257.742188 839.46875 257.640625 839.226562 C 257.539062 838.980469 257.464844 838.730469 257.414062 838.472656 C 257.359375 838.210938 257.335938 837.949219 257.335938 837.6875 C 257.335938 837.421875 257.359375 837.160156 257.414062 836.902344 C 257.464844 836.644531 257.539062 836.390625 257.640625 836.148438 C 257.742188 835.902344 257.867188 835.671875 258.011719 835.453125 C 258.160156 835.234375 258.324219 835.03125 258.511719 834.84375 C 258.699219 834.65625 258.902344 834.492188 259.121094 834.34375 C 259.339844 834.195312 259.570312 834.074219 259.816406 833.972656 C 260.058594 833.871094 260.3125 833.796875 260.570312 833.742188 C 260.828125 833.691406 261.089844 833.667969 261.355469 833.667969 C 261.617188 833.667969 261.878906 833.691406 262.136719 833.742188 C 262.394531 833.796875 262.648438 833.871094 262.890625 833.972656 C 263.136719 834.074219 263.367188 834.195312 263.585938 834.34375 C 263.804688 834.492188 264.007812 834.65625 264.195312 834.84375 C 264.382812 835.03125 264.546875 835.234375 264.695312 835.453125 C 264.839844 835.671875 264.964844 835.902344 265.066406 836.148438 C 265.167969 836.390625 265.242188 836.644531 265.296875 836.902344 C 265.347656 837.160156 265.371094 837.421875 265.371094 837.6875 Z M 265.371094 837.6875 " fill-opacity="1" fill-rule="nonzero"/><path fill="#26477a" d="M 566.769531 645.464844 C 566.769531 645.730469 566.742188 645.992188 566.691406 646.25 C 566.640625 646.507812 566.5625 646.757812 566.460938 647.003906 C 566.359375 647.246094 566.238281 647.480469 566.089844 647.699219 C 565.945312 647.917969 565.777344 648.121094 565.589844 648.308594 C 565.40625 648.496094 565.203125 648.660156 564.980469 648.808594 C 564.761719 648.953125 564.53125 649.078125 564.289062 649.179688 C 564.042969 649.28125 563.792969 649.355469 563.535156 649.40625 C 563.273438 649.460938 563.011719 649.484375 562.75 649.484375 C 562.484375 649.484375 562.222656 649.460938 561.964844 649.40625 C 561.707031 649.355469 561.457031 649.28125 561.210938 649.179688 C 560.96875 649.078125 560.734375 648.953125 560.515625 648.808594 C 560.296875 648.660156 560.09375 648.496094 559.90625 648.308594 C 559.722656 648.121094 559.554688 647.917969 559.40625 647.699219 C 559.261719 647.480469 559.136719 647.246094 559.035156 647.003906 C 558.9375 646.757812 558.859375 646.507812 558.808594 646.25 C 558.757812 645.992188 558.730469 645.730469 558.730469 645.464844 C 558.730469 645.199219 558.757812 644.9375 558.808594 644.679688 C 558.859375 644.421875 558.9375 644.171875 559.035156 643.925781 C 559.136719 643.683594 559.261719 643.449219 559.40625 643.230469 C 559.554688 643.011719 559.722656 642.808594 559.90625 642.621094 C 560.09375 642.433594 560.296875 642.269531 560.515625 642.121094 C 560.734375 641.976562 560.96875 641.851562 561.210938 641.75 C 561.457031 641.648438 561.707031 641.574219 561.964844 641.523438 C 562.222656 641.46875 562.484375 641.445312 562.75 641.445312 C 563.011719 641.445312 563.273438 641.46875 563.535156 641.523438 C 563.792969 641.574219 564.042969 641.648438 564.289062 641.75 C 564.53125 641.851562 564.761719 641.976562 564.980469 642.121094 C 565.203125 642.269531 565.40625 642.433594 565.589844 642.621094 C 565.777344 642.808594 565.945312 643.011719 566.089844 643.230469 C 566.238281 643.449219 566.359375 643.683594 566.460938 643.925781 C 566.5625 644.171875 566.640625 644.421875 566.691406 644.679688 C 566.742188 644.9375 566.769531 645.199219 566.769531 645.464844 Z M 566.769531 645.464844 " fill-opacity="1" fill-rule="nonzero"/><path fill="#26477a" d="M 455.535156 572.566406 C 455.535156 572.832031 455.511719 573.089844 455.457031 573.351562 C 455.40625 573.609375 455.332031 573.859375 455.230469 574.105469 C 455.128906 574.347656 455.003906 574.582031 454.859375 574.800781 C 454.710938 575.019531 454.546875 575.222656 454.359375 575.410156 C 454.171875 575.597656 453.96875 575.761719 453.75 575.910156 C 453.53125 576.054688 453.300781 576.179688 453.054688 576.28125 C 452.8125 576.382812 452.558594 576.457031 452.300781 576.507812 C 452.042969 576.5625 451.78125 576.585938 451.515625 576.585938 C 451.253906 576.585938 450.992188 576.5625 450.734375 576.507812 C 450.472656 576.457031 450.222656 576.382812 449.980469 576.28125 C 449.734375 576.179688 449.503906 576.054688 449.285156 575.910156 C 449.066406 575.761719 448.863281 575.597656 448.675781 575.410156 C 448.488281 575.222656 448.324219 575.019531 448.175781 574.800781 C 448.03125 574.582031 447.90625 574.347656 447.804688 574.105469 C 447.703125 573.859375 447.628906 573.609375 447.574219 573.351562 C 447.523438 573.089844 447.5 572.832031 447.5 572.566406 C 447.5 572.300781 447.523438 572.039062 447.574219 571.78125 C 447.628906 571.523438 447.703125 571.273438 447.804688 571.027344 C 447.90625 570.785156 448.03125 570.550781 448.175781 570.332031 C 448.324219 570.113281 448.488281 569.910156 448.675781 569.722656 C 448.863281 569.535156 449.066406 569.371094 449.285156 569.222656 C 449.503906 569.078125 449.734375 568.953125 449.980469 568.851562 C 450.222656 568.75 450.472656 568.675781 450.734375 568.625 C 450.992188 568.570312 451.253906 568.546875 451.515625 568.546875 C 451.78125 568.546875 452.042969 568.570312 452.300781 568.625 C 452.558594 568.675781 452.8125 568.75 453.054688 568.851562 C 453.300781 568.953125 453.53125 569.078125 453.75 569.222656 C 453.96875 569.371094 454.171875 569.535156 454.359375 569.722656 C 454.546875 569.910156 454.710938 570.113281 454.859375 570.332031 C 455.003906 570.550781 455.128906 570.785156 455.230469 571.027344 C 455.332031 571.273438 455.40625 571.523438 455.457031 571.78125 C 455.511719 572.039062 455.535156 572.300781 455.535156 572.566406 Z M 455.535156 572.566406 " fill-opacity="1" fill-rule="nonzero"/><path fill="#26477a" d="M 421.113281 667.691406 C 421.113281 667.953125 421.085938 668.214844 421.035156 668.476562 C 420.984375 668.734375 420.90625 668.984375 420.804688 669.230469 C 420.707031 669.472656 420.582031 669.707031 420.433594 669.925781 C 420.289062 670.144531 420.121094 670.347656 419.933594 670.535156 C 419.75 670.71875 419.546875 670.886719 419.328125 671.035156 C 419.105469 671.179688 418.875 671.304688 418.632812 671.40625 C 418.386719 671.507812 418.136719 671.582031 417.878906 671.632812 C 417.617188 671.6875 417.359375 671.710938 417.09375 671.710938 C 416.828125 671.710938 416.570312 671.6875 416.308594 671.632812 C 416.050781 671.582031 415.800781 671.507812 415.554688 671.40625 C 415.3125 671.304688 415.082031 671.179688 414.859375 671.035156 C 414.640625 670.886719 414.4375 670.71875 414.253906 670.535156 C 414.066406 670.347656 413.898438 670.144531 413.753906 669.925781 C 413.605469 669.707031 413.480469 669.472656 413.382812 669.230469 C 413.28125 668.984375 413.203125 668.734375 413.152344 668.476562 C 413.101562 668.214844 413.074219 667.953125 413.074219 667.691406 C 413.074219 667.425781 413.101562 667.164062 413.152344 666.90625 C 413.203125 666.648438 413.28125 666.394531 413.382812 666.152344 C 413.480469 665.910156 413.605469 665.675781 413.753906 665.457031 C 413.898438 665.238281 414.066406 665.035156 414.253906 664.847656 C 414.4375 664.660156 414.640625 664.496094 414.859375 664.347656 C 415.082031 664.203125 415.3125 664.078125 415.554688 663.976562 C 415.800781 663.875 416.050781 663.800781 416.308594 663.746094 C 416.570312 663.695312 416.828125 663.671875 417.09375 663.671875 C 417.359375 663.671875 417.617188 663.695312 417.878906 663.746094 C 418.136719 663.800781 418.386719 663.875 418.632812 663.976562 C 418.875 664.078125 419.105469 664.203125 419.328125 664.347656 C 419.546875 664.496094 419.75 664.660156 419.933594 664.847656 C 420.121094 665.035156 420.289062 665.238281 420.433594 665.457031 C 420.582031 665.675781 420.707031 665.910156 420.804688 666.152344 C 420.90625 666.394531 420.984375 666.648438 421.035156 666.90625 C 421.085938 667.164062 421.113281 667.425781 421.113281 667.691406 Z M 421.113281 667.691406 " fill-opacity="1" fill-rule="nonzero"/><path fill="#26477a" d="M 493.976562 728.453125 C 493.976562 728.714844 493.953125 728.976562 493.902344 729.238281 C 493.847656 729.496094 493.773438 729.746094 493.671875 729.992188 C 493.570312 730.234375 493.449219 730.464844 493.300781 730.6875 C 493.152344 730.90625 492.988281 731.109375 492.800781 731.296875 C 492.613281 731.480469 492.410156 731.648438 492.191406 731.796875 C 491.972656 731.941406 491.742188 732.066406 491.496094 732.167969 C 491.253906 732.269531 491.003906 732.34375 490.742188 732.394531 C 490.484375 732.445312 490.222656 732.472656 489.960938 732.472656 C 489.695312 732.472656 489.433594 732.445312 489.175781 732.394531 C 488.917969 732.34375 488.664062 732.269531 488.421875 732.167969 C 488.179688 732.066406 487.945312 731.941406 487.726562 731.796875 C 487.507812 731.648438 487.304688 731.480469 487.117188 731.296875 C 486.929688 731.109375 486.765625 730.90625 486.617188 730.6875 C 486.472656 730.464844 486.347656 730.234375 486.246094 729.992188 C 486.144531 729.746094 486.070312 729.496094 486.019531 729.238281 C 485.964844 728.976562 485.941406 728.714844 485.941406 728.453125 C 485.941406 728.1875 485.964844 727.925781 486.019531 727.667969 C 486.070312 727.410156 486.144531 727.15625 486.246094 726.914062 C 486.347656 726.671875 486.472656 726.4375 486.617188 726.21875 C 486.765625 726 486.929688 725.796875 487.117188 725.609375 C 487.304688 725.421875 487.507812 725.257812 487.726562 725.109375 C 487.945312 724.964844 488.179688 724.839844 488.421875 724.738281 C 488.664062 724.636719 488.917969 724.5625 489.175781 724.507812 C 489.433594 724.457031 489.695312 724.433594 489.960938 724.433594 C 490.222656 724.433594 490.484375 724.457031 490.742188 724.507812 C 491.003906 724.5625 491.253906 724.636719 491.496094 724.738281 C 491.742188 724.839844 491.972656 724.960938 492.191406 725.109375 C 492.410156 725.257812 492.613281 725.421875 492.800781 725.609375 C 492.988281 725.796875 493.152344 726 493.300781 726.21875 C 493.449219 726.4375 493.570312 726.671875 493.671875 726.914062 C 493.773438 727.15625 493.847656 727.410156 493.902344 727.667969 C 493.953125 727.925781 493.976562 728.1875 493.976562 728.453125 Z M 493.976562 728.453125 " fill-opacity="1" fill-rule="nonzero"/><path fill="#26477a" d="M 330.125 641.367188 C 330.125 641.632812 330.097656 641.894531 330.046875 642.152344 C 329.996094 642.410156 329.921875 642.664062 329.820312 642.90625 C 329.71875 643.152344 329.59375 643.382812 329.449219 643.601562 C 329.300781 643.820312 329.132812 644.023438 328.949219 644.210938 C 328.761719 644.398438 328.558594 644.566406 328.339844 644.710938 C 328.121094 644.859375 327.886719 644.980469 327.644531 645.082031 C 327.398438 645.183594 327.148438 645.261719 326.890625 645.3125 C 326.632812 645.363281 326.371094 645.390625 326.105469 645.390625 C 325.84375 645.390625 325.582031 645.363281 325.324219 645.3125 C 325.0625 645.261719 324.8125 645.183594 324.570312 645.082031 C 324.324219 644.980469 324.09375 644.859375 323.875 644.710938 C 323.652344 644.566406 323.453125 644.398438 323.265625 644.210938 C 323.078125 644.023438 322.910156 643.820312 322.765625 643.601562 C 322.617188 643.382812 322.496094 643.152344 322.394531 642.90625 C 322.292969 642.664062 322.214844 642.410156 322.164062 642.152344 C 322.113281 641.894531 322.085938 641.632812 322.085938 641.367188 C 322.085938 641.105469 322.113281 640.84375 322.164062 640.585938 C 322.214844 640.324219 322.292969 640.074219 322.394531 639.828125 C 322.496094 639.585938 322.617188 639.355469 322.765625 639.136719 C 322.910156 638.914062 323.078125 638.710938 323.265625 638.527344 C 323.453125 638.339844 323.652344 638.171875 323.875 638.027344 C 324.09375 637.878906 324.324219 637.753906 324.570312 637.652344 C 324.8125 637.554688 325.0625 637.476562 325.324219 637.425781 C 325.582031 637.375 325.84375 637.347656 326.105469 637.347656 C 326.371094 637.347656 326.632812 637.375 326.890625 637.425781 C 327.148438 637.476562 327.398438 637.554688 327.644531 637.652344 C 327.886719 637.753906 328.121094 637.878906 328.339844 638.027344 C 328.558594 638.171875 328.761719 638.339844 328.949219 638.527344 C 329.132812 638.710938 329.300781 638.914062 329.449219 639.136719 C 329.59375 639.355469 329.71875 639.585938 329.820312 639.828125 C 329.921875 640.074219 329.996094 640.324219 330.046875 640.585938 C 330.097656 640.84375 330.125 641.105469 330.125 641.367188 Z M 330.125 641.367188 " fill-opacity="1" fill-rule="nonzero"/><path fill="#26477a" d="M 455.535156 849.824219 C 455.535156 850.085938 455.511719 850.347656 455.457031 850.609375 C 455.40625 850.867188 455.332031 851.117188 455.230469 851.363281 C 455.128906 851.605469 455.003906 851.835938 454.859375 852.058594 C 454.710938 852.277344 454.546875 852.480469 454.359375 852.667969 C 454.171875 852.851562 453.96875 853.019531 453.75 853.167969 C 453.53125 853.3125 453.300781 853.4375 453.054688 853.539062 C 452.8125 853.640625 452.558594 853.714844 452.300781 853.765625 C 452.042969 853.820312 451.78125 853.84375 451.515625 853.84375 C 451.253906 853.84375 450.992188 853.820312 450.734375 853.765625 C 450.472656 853.714844 450.222656 853.640625 449.980469 853.539062 C 449.734375 853.4375 449.503906 853.3125 449.285156 853.167969 C 449.066406 853.019531 448.863281 852.851562 448.675781 852.667969 C 448.488281 852.480469 448.324219 852.277344 448.175781 852.058594 C 448.03125 851.835938 447.90625 851.605469 447.804688 851.363281 C 447.703125 851.117188 447.628906 850.867188 447.574219 850.609375 C 447.523438 850.347656 447.5 850.085938 447.5 849.824219 C 447.5 849.558594 447.523438 849.296875 447.574219 849.039062 C 447.628906 848.78125 447.703125 848.527344 447.804688 848.285156 C 447.90625 848.042969 448.03125 847.808594 448.175781 847.589844 C 448.324219 847.371094 448.488281 847.167969 448.675781 846.980469 C 448.863281 846.792969 449.066406 846.628906 449.285156 846.480469 C 449.503906 846.335938 449.734375 846.210938 449.980469 846.109375 C 450.222656 846.007812 450.472656 845.933594 450.734375 845.878906 C 450.992188 845.828125 451.253906 845.804688 451.515625 845.804688 C 451.78125 845.804688 452.042969 845.828125 452.300781 845.878906 C 452.558594 845.933594 452.8125 846.007812 453.054688 846.109375 C 453.300781 846.210938 453.53125 846.335938 453.75 846.480469 C 453.96875 846.628906 454.171875 846.792969 454.359375 846.980469 C 454.546875 847.167969 454.710938 847.371094 454.859375 847.589844 C 455.003906 847.808594 455.128906 848.042969 455.230469 848.285156 C 455.332031 848.527344 455.40625 848.78125 455.457031 849.039062 C 455.511719 849.296875 455.535156 849.558594 455.535156 849.824219 Z M 455.535156 849.824219 " fill-opacity="1" fill-rule="nonzero"/><path fill="#ffb544" d="M 251.191406 740.589844 C 251.191406 740.855469 251.167969 741.113281 251.117188 741.375 C 251.066406 741.632812 250.988281 741.882812 250.886719 742.128906 C 250.785156 742.371094 250.664062 742.605469 250.515625 742.824219 C 250.371094 743.042969 250.203125 743.246094 250.015625 743.433594 C 249.828125 743.617188 249.625 743.785156 249.40625 743.933594 C 249.1875 744.078125 248.957031 744.203125 248.710938 744.304688 C 248.46875 744.40625 248.21875 744.480469 247.957031 744.53125 C 247.699219 744.585938 247.4375 744.609375 247.175781 744.609375 C 246.910156 744.609375 246.648438 744.585938 246.390625 744.53125 C 246.132812 744.480469 245.878906 744.40625 245.636719 744.304688 C 245.394531 744.203125 245.160156 744.078125 244.941406 743.933594 C 244.722656 743.785156 244.519531 743.617188 244.332031 743.433594 C 244.148438 743.246094 243.980469 743.042969 243.832031 742.824219 C 243.6875 742.605469 243.5625 742.371094 243.460938 742.128906 C 243.359375 741.882812 243.285156 741.632812 243.234375 741.375 C 243.183594 741.113281 243.15625 740.855469 243.15625 740.589844 C 243.15625 740.324219 243.183594 740.0625 243.234375 739.804688 C 243.285156 739.546875 243.359375 739.292969 243.460938 739.050781 C 243.5625 738.808594 243.6875 738.574219 243.832031 738.355469 C 243.980469 738.136719 244.148438 737.933594 244.332031 737.746094 C 244.519531 737.558594 244.722656 737.394531 244.941406 737.246094 C 245.160156 737.101562 245.394531 736.976562 245.636719 736.875 C 245.878906 736.773438 246.132812 736.699219 246.390625 736.644531 C 246.648438 736.59375 246.910156 736.570312 247.175781 736.570312 C 247.4375 736.570312 247.699219 736.59375 247.957031 736.644531 C 248.21875 736.699219 248.46875 736.773438 248.710938 736.875 C 248.957031 736.976562 249.1875 737.101562 249.40625 737.246094 C 249.625 737.394531 249.828125 737.558594 250.015625 737.746094 C 250.203125 737.933594 250.371094 738.136719 250.515625 738.355469 C 250.664062 738.574219 250.785156 738.808594 250.886719 739.050781 C 250.988281 739.292969 251.066406 739.546875 251.117188 739.804688 C 251.167969 740.0625 251.191406 740.324219 251.191406 740.589844 Z M 251.191406 740.589844 " fill-opacity="1" fill-rule="nonzero"/><path fill="#ffae46" d="M 376.679688 805.675781 C 376.679688 806.007812 376.648438 806.339844 376.582031 806.667969 C 376.515625 806.992188 376.421875 807.3125 376.292969 807.621094 C 376.164062 807.929688 376.007812 808.222656 375.824219 808.5 C 375.636719 808.777344 375.429688 809.03125 375.191406 809.269531 C 374.957031 809.503906 374.699219 809.714844 374.421875 809.902344 C 374.144531 810.085938 373.851562 810.242188 373.542969 810.371094 C 373.234375 810.5 372.917969 810.59375 372.589844 810.660156 C 372.265625 810.726562 371.933594 810.757812 371.601562 810.757812 C 371.265625 810.757812 370.9375 810.726562 370.609375 810.660156 C 370.28125 810.59375 369.964844 810.5 369.65625 810.371094 C 369.347656 810.242188 369.054688 810.085938 368.777344 809.902344 C 368.5 809.714844 368.242188 809.503906 368.007812 809.269531 C 367.773438 809.03125 367.5625 808.777344 367.375 808.5 C 367.191406 808.222656 367.035156 807.929688 366.90625 807.621094 C 366.777344 807.3125 366.683594 806.992188 366.617188 806.667969 C 366.550781 806.339844 366.519531 806.007812 366.519531 805.675781 C 366.519531 805.339844 366.550781 805.011719 366.617188 804.683594 C 366.683594 804.355469 366.777344 804.039062 366.90625 803.730469 C 367.035156 803.421875 367.191406 803.128906 367.375 802.851562 C 367.5625 802.574219 367.773438 802.316406 368.007812 802.082031 C 368.242188 801.84375 368.5 801.632812 368.777344 801.449219 C 369.054688 801.261719 369.347656 801.105469 369.65625 800.980469 C 369.964844 800.851562 370.28125 800.753906 370.609375 800.691406 C 370.9375 800.625 371.265625 800.59375 371.601562 800.59375 C 371.933594 800.59375 372.265625 800.625 372.589844 800.691406 C 372.917969 800.753906 373.234375 800.851562 373.542969 800.980469 C 373.851562 801.105469 374.144531 801.261719 374.421875 801.449219 C 374.699219 801.632812 374.957031 801.84375 375.191406 802.082031 C 375.429688 802.316406 375.636719 802.574219 375.824219 802.851562 C 376.007812 803.128906 376.164062 803.421875 376.292969 803.730469 C 376.421875 804.039062 376.515625 804.355469 376.582031 804.683594 C 376.648438 805.011719 376.679688 805.339844 376.679688 805.675781 Z M 376.679688 805.675781 " fill-opacity="1" fill-rule="nonzero"/><path fill="#ffae46" d="M 273.484375 595.855469 C 273.484375 596.1875 273.453125 596.519531 273.386719 596.847656 C 273.324219 597.171875 273.226562 597.492188 273.097656 597.800781 C 272.972656 598.109375 272.8125 598.402344 272.628906 598.679688 C 272.445312 598.957031 272.234375 599.210938 271.996094 599.449219 C 271.761719 599.683594 271.503906 599.894531 271.226562 600.082031 C 270.949219 600.265625 270.65625 600.421875 270.347656 600.550781 C 270.042969 600.675781 269.722656 600.773438 269.394531 600.839844 C 269.070312 600.902344 268.738281 600.9375 268.40625 600.9375 C 268.070312 600.9375 267.742188 600.902344 267.414062 600.839844 C 267.085938 600.773438 266.769531 600.675781 266.460938 600.550781 C 266.152344 600.421875 265.859375 600.265625 265.582031 600.082031 C 265.304688 599.894531 265.046875 599.683594 264.8125 599.449219 C 264.578125 599.210938 264.367188 598.957031 264.179688 598.679688 C 263.996094 598.402344 263.839844 598.109375 263.710938 597.800781 C 263.585938 597.492188 263.488281 597.171875 263.421875 596.847656 C 263.359375 596.519531 263.324219 596.1875 263.324219 595.855469 C 263.324219 595.519531 263.359375 595.191406 263.421875 594.863281 C 263.488281 594.535156 263.585938 594.21875 263.710938 593.910156 C 263.839844 593.601562 263.996094 593.308594 264.179688 593.03125 C 264.367188 592.753906 264.578125 592.496094 264.8125 592.261719 C 265.046875 592.023438 265.304688 591.8125 265.582031 591.628906 C 265.859375 591.441406 266.152344 591.285156 266.460938 591.160156 C 266.769531 591.03125 267.085938 590.933594 267.414062 590.871094 C 267.742188 590.804688 268.070312 590.773438 268.40625 590.773438 C 268.738281 590.773438 269.070312 590.804688 269.394531 590.871094 C 269.722656 590.933594 270.042969 591.03125 270.347656 591.160156 C 270.65625 591.285156 270.949219 591.441406 271.226562 591.628906 C 271.503906 591.8125 271.761719 592.023438 271.996094 592.261719 C 272.234375 592.496094 272.445312 592.753906 272.628906 593.03125 C 272.8125 593.308594 272.972656 593.601562 273.097656 593.910156 C 273.226562 594.21875 273.324219 594.535156 273.386719 594.863281 C 273.453125 595.191406 273.484375 595.519531 273.484375 595.855469 Z M 273.484375 595.855469 " fill-opacity="1" fill-rule="nonzero"/><path fill="#ffae46" d="M 566.84375 741.574219 C 566.84375 741.910156 566.8125 742.238281 566.746094 742.566406 C 566.679688 742.894531 566.585938 743.210938 566.457031 743.519531 C 566.328125 743.828125 566.171875 744.121094 565.988281 744.398438 C 565.800781 744.675781 565.589844 744.933594 565.355469 745.167969 C 565.121094 745.40625 564.863281 745.617188 564.585938 745.800781 C 564.308594 745.988281 564.015625 746.144531 563.707031 746.269531 C 563.398438 746.398438 563.082031 746.496094 562.753906 746.558594 C 562.425781 746.625 562.097656 746.65625 561.765625 746.65625 C 561.429688 746.65625 561.101562 746.625 560.773438 746.558594 C 560.445312 746.496094 560.128906 746.398438 559.820312 746.269531 C 559.511719 746.144531 559.21875 745.988281 558.941406 745.800781 C 558.664062 745.617188 558.40625 745.40625 558.171875 745.167969 C 557.9375 744.933594 557.726562 744.675781 557.539062 744.398438 C 557.355469 744.121094 557.199219 743.828125 557.070312 743.519531 C 556.941406 743.210938 556.847656 742.894531 556.78125 742.566406 C 556.714844 742.238281 556.683594 741.910156 556.683594 741.574219 C 556.683594 741.242188 556.714844 740.910156 556.78125 740.585938 C 556.847656 740.257812 556.941406 739.9375 557.070312 739.628906 C 557.199219 739.324219 557.355469 739.03125 557.539062 738.753906 C 557.726562 738.472656 557.9375 738.21875 558.171875 737.980469 C 558.40625 737.746094 558.664062 737.535156 558.941406 737.351562 C 559.21875 737.164062 559.511719 737.007812 559.820312 736.878906 C 560.128906 736.753906 560.445312 736.65625 560.773438 736.589844 C 561.101562 736.527344 561.429688 736.492188 561.765625 736.492188 C 562.097656 736.492188 562.425781 736.527344 562.753906 736.589844 C 563.082031 736.65625 563.398438 736.753906 563.707031 736.878906 C 564.015625 737.007812 564.308594 737.164062 564.585938 737.351562 C 564.863281 737.535156 565.121094 737.746094 565.355469 737.980469 C 565.589844 738.21875 565.800781 738.472656 565.988281 738.753906 C 566.171875 739.03125 566.328125 739.324219 566.457031 739.628906 C 566.585938 739.9375 566.679688 740.257812 566.746094 740.585938 C 566.8125 740.910156 566.84375 741.242188 566.84375 741.574219 Z M 566.84375 741.574219 " fill-opacity="1" fill-rule="nonzero"/><path fill="#ffae46" d="M 520.289062 595.855469 C 520.289062 596.1875 520.257812 596.519531 520.191406 596.847656 C 520.125 597.171875 520.03125 597.492188 519.902344 597.800781 C 519.773438 598.109375 519.617188 598.402344 519.433594 598.679688 C 519.246094 598.957031 519.035156 599.210938 518.800781 599.449219 C 518.566406 599.683594 518.308594 599.894531 518.03125 600.082031 C 517.753906 600.265625 517.460938 600.421875 517.152344 600.550781 C 516.84375 600.675781 516.527344 600.773438 516.199219 600.839844 C 515.871094 600.902344 515.542969 600.9375 515.207031 600.9375 C 514.875 600.9375 514.542969 600.902344 514.21875 600.839844 C 513.890625 600.773438 513.574219 600.675781 513.265625 600.550781 C 512.957031 600.421875 512.664062 600.265625 512.386719 600.082031 C 512.109375 599.894531 511.851562 599.683594 511.617188 599.449219 C 511.378906 599.210938 511.167969 598.957031 510.984375 598.679688 C 510.800781 598.402344 510.644531 598.109375 510.515625 597.800781 C 510.386719 597.492188 510.289062 597.171875 510.226562 596.847656 C 510.160156 596.519531 510.128906 596.1875 510.128906 595.855469 C 510.128906 595.519531 510.160156 595.191406 510.226562 594.863281 C 510.289062 594.535156 510.386719 594.21875 510.515625 593.910156 C 510.644531 593.601562 510.800781 593.308594 510.984375 593.03125 C 511.167969 592.753906 511.378906 592.496094 511.617188 592.261719 C 511.851562 592.023438 512.109375 591.8125 512.386719 591.628906 C 512.664062 591.441406 512.957031 591.285156 513.265625 591.160156 C 513.574219 591.03125 513.890625 590.933594 514.21875 590.871094 C 514.542969 590.804688 514.875 590.773438 515.207031 590.773438 C 515.542969 590.773438 515.871094 590.804688 516.199219 590.871094 C 516.527344 590.933594 516.84375 591.03125 517.152344 591.160156 C 517.460938 591.285156 517.753906 591.441406 518.03125 591.628906 C 518.308594 591.8125 518.566406 592.023438 518.800781 592.261719 C 519.035156 592.496094 519.246094 592.753906 519.433594 593.03125 C 519.617188 593.308594 519.773438 593.601562 519.902344 593.910156 C 520.03125 594.21875 520.125 594.535156 520.191406 594.863281 C 520.257812 595.191406 520.289062 595.519531 520.289062 595.855469 Z M 520.289062 595.855469 " fill-opacity="1" fill-rule="nonzero"/><path fill="#ffb544" d="M 464.179688 763.800781 C 462.351562 765.21875 460.464844 766.554688 458.519531 767.808594 C 456.574219 769.0625 454.578125 770.230469 452.53125 771.308594 C 450.484375 772.386719 448.394531 773.375 446.261719 774.273438 C 444.128906 775.167969 441.960938 775.96875 439.757812 776.675781 C 437.554688 777.382812 435.328125 777.992188 433.070312 778.503906 C 430.8125 779.019531 428.539062 779.429688 426.246094 779.742188 C 423.957031 780.058594 421.652344 780.269531 419.34375 780.382812 C 417.03125 780.496094 414.722656 780.507812 412.410156 780.417969 C 410.097656 780.328125 407.792969 780.136719 405.5 779.847656 C 403.203125 779.554688 400.925781 779.164062 398.664062 778.675781 C 396.402344 778.183594 394.167969 777.597656 391.957031 776.910156 C 389.75 776.226562 387.574219 775.445312 385.429688 774.570312 C 383.289062 773.695312 381.191406 772.726562 379.132812 771.667969 C 377.074219 770.609375 375.066406 769.464844 373.109375 768.230469 C 371.152344 766.996094 369.253906 765.675781 367.410156 764.277344 C 365.570312 762.875 363.792969 761.398438 362.078125 759.84375 C 360.367188 758.285156 358.722656 756.660156 357.152344 754.960938 C 355.582031 753.261719 354.089844 751.496094 352.671875 749.667969 C 351.253906 747.835938 349.917969 745.949219 348.667969 744.003906 C 347.414062 742.058594 346.25 740.058594 345.171875 738.011719 C 344.09375 735.964844 343.109375 733.871094 342.214844 731.738281 C 341.320312 729.605469 340.519531 727.433594 339.8125 725.230469 C 339.105469 723.027344 338.5 720.796875 337.988281 718.539062 C 337.476562 716.28125 337.0625 714.003906 336.753906 711.710938 C 336.441406 709.417969 336.226562 707.117188 336.117188 704.804688 C 336.003906 702.492188 335.996094 700.179688 336.085938 697.867188 C 336.175781 695.554688 336.367188 693.25 336.660156 690.953125 C 336.949219 688.65625 337.339844 686.378906 337.832031 684.117188 C 338.324219 681.855469 338.910156 679.617188 339.597656 677.40625 C 340.285156 675.195312 341.0625 673.019531 341.941406 670.878906 C 342.816406 668.734375 343.785156 666.636719 344.84375 664.578125 C 345.902344 662.519531 347.050781 660.511719 348.285156 658.554688 C 349.519531 656.597656 350.835938 654.699219 352.238281 652.855469 C 353.636719 651.011719 355.113281 649.234375 356.671875 647.523438 C 358.226562 645.808594 359.855469 644.167969 361.550781 642.597656 C 363.25 641.023438 365.015625 639.53125 366.84375 638.113281 C 368.675781 636.699219 370.5625 635.363281 372.507812 634.113281 C 374.453125 632.859375 376.449219 631.695312 378.5 630.617188 C 380.546875 629.539062 382.636719 628.554688 384.769531 627.660156 C 386.90625 626.765625 389.074219 625.964844 391.277344 625.257812 C 393.480469 624.554688 395.710938 623.945312 397.96875 623.4375 C 400.222656 622.925781 402.496094 622.515625 404.789062 622.203125 C 407.082031 621.890625 409.382812 621.679688 411.695312 621.570312 C 414.007812 621.460938 416.316406 621.449219 418.628906 621.542969 C 420.941406 621.632812 423.246094 621.824219 425.539062 622.117188 C 427.835938 622.410156 430.113281 622.804688 432.371094 623.296875 C 434.632812 623.789062 436.867188 624.378906 439.078125 625.0625 C 441.285156 625.75 443.460938 626.535156 445.601562 627.410156 C 444.453125 627.523438 443.308594 627.660156 442.164062 627.832031 C 441.023438 628 439.886719 628.199219 438.753906 628.421875 C 437.621094 628.648438 436.496094 628.902344 435.375 629.1875 C 434.253906 629.46875 433.144531 629.78125 432.039062 630.117188 C 430.9375 630.457031 429.839844 630.824219 428.753906 631.21875 C 427.667969 631.613281 426.59375 632.03125 425.53125 632.480469 C 424.464844 632.929688 423.414062 633.402344 422.375 633.90625 C 421.332031 634.40625 420.304688 634.933594 419.292969 635.484375 C 418.277344 636.039062 417.277344 636.617188 416.292969 637.21875 C 415.308594 637.820312 414.339844 638.449219 413.386719 639.101562 C 412.433594 639.753906 411.496094 640.429688 410.574219 641.125 C 409.65625 641.824219 408.753906 642.546875 407.871094 643.292969 C 406.988281 644.035156 406.125 644.800781 405.28125 645.589844 C 404.4375 646.378906 403.609375 647.1875 402.808594 648.015625 C 402.003906 648.84375 401.222656 649.695312 400.460938 650.5625 C 399.699219 651.429688 398.960938 652.320312 398.242188 653.222656 C 397.527344 654.128906 396.832031 655.054688 396.164062 655.996094 C 395.492188 656.933594 394.847656 657.890625 394.222656 658.867188 C 393.601562 659.839844 393.003906 660.828125 392.433594 661.832031 C 391.859375 662.835938 391.3125 663.851562 390.792969 664.882812 C 390.269531 665.914062 389.777344 666.957031 389.308594 668.011719 C 388.839844 669.066406 388.398438 670.136719 387.980469 671.214844 C 387.566406 672.292969 387.179688 673.378906 386.820312 674.476562 C 386.457031 675.574219 386.125 676.679688 385.820312 677.792969 C 385.515625 678.910156 385.238281 680.03125 384.992188 681.160156 C 384.742188 682.285156 384.523438 683.421875 384.332031 684.558594 C 384.140625 685.699219 383.976562 686.84375 383.84375 687.988281 C 383.710938 689.136719 383.605469 690.289062 383.53125 691.441406 C 383.453125 692.59375 383.40625 693.746094 383.390625 694.902344 C 383.371094 696.058594 383.382812 697.210938 383.421875 698.367188 C 383.460938 699.519531 383.53125 700.675781 383.628906 701.824219 C 383.726562 702.976562 383.855469 704.125 384.011719 705.269531 C 384.167969 706.414062 384.351562 707.554688 384.566406 708.6875 C 384.777344 709.824219 385.019531 710.953125 385.289062 712.078125 C 385.558594 713.199219 385.859375 714.316406 386.183594 715.425781 C 386.511719 716.53125 386.863281 717.632812 387.246094 718.722656 C 387.628906 719.8125 388.035156 720.894531 388.472656 721.960938 C 388.90625 723.03125 389.371094 724.089844 389.859375 725.136719 C 390.347656 726.183594 390.863281 727.21875 391.402344 728.238281 C 391.945312 729.257812 392.511719 730.265625 393.101562 731.257812 C 393.695312 732.25 394.308594 733.226562 394.953125 734.1875 C 395.59375 735.148438 396.257812 736.09375 396.945312 737.019531 C 397.632812 737.949219 398.34375 738.859375 399.078125 739.75 C 399.8125 740.640625 400.566406 741.515625 401.347656 742.367188 C 402.125 743.222656 402.921875 744.054688 403.742188 744.871094 C 404.5625 745.683594 405.402344 746.476562 406.261719 747.246094 C 407.121094 748.019531 408 748.769531 408.898438 749.496094 C 409.792969 750.222656 410.710938 750.925781 411.640625 751.605469 C 412.574219 752.289062 413.523438 752.945312 414.492188 753.578125 C 415.457031 754.210938 416.4375 754.820312 417.433594 755.402344 C 418.429688 755.988281 419.441406 756.546875 420.464844 757.078125 C 421.488281 757.613281 422.527344 758.121094 423.578125 758.601562 C 424.628906 759.082031 425.6875 759.535156 426.761719 759.960938 C 427.835938 760.390625 428.917969 760.789062 430.011719 761.164062 C 431.101562 761.535156 432.203125 761.878906 433.316406 762.199219 C 434.425781 762.515625 435.542969 762.804688 436.667969 763.066406 C 437.792969 763.328125 438.921875 763.558594 440.058594 763.761719 C 441.195312 763.96875 442.335938 764.144531 443.484375 764.289062 C 444.628906 764.4375 445.777344 764.554688 446.929688 764.644531 C 448.078125 764.730469 449.230469 764.792969 450.386719 764.824219 C 451.539062 764.855469 452.695312 764.855469 453.851562 764.828125 C 455.003906 764.800781 456.15625 764.746094 457.308594 764.660156 C 458.460938 764.574219 459.609375 764.460938 460.753906 764.316406 C 461.902344 764.175781 463.042969 764.003906 464.179688 763.800781 Z M 464.179688 763.800781 " fill-opacity="1" fill-rule="nonzero"/><g clip-path="url(#e4556b22c3)"><path fill="#ffae46" d="M 355.449219 564.070312 L 359.390625 572.1875 L 368.339844 573.476562 L 361.894531 579.773438 L 363.410156 588.648438 L 355.449219 584.398438 L 347.414062 588.648438 L 349.003906 579.773438 L 342.484375 573.476562 L 351.429688 572.1875 Z M 355.449219 564.070312 " fill-opacity="1" fill-rule="nonzero"/></g><path fill="#ffae46" d="M 298.886719 770.78125 L 305.40625 783.980469 L 320.039062 786.105469 L 309.5 796.421875 L 311.925781 810.984375 L 298.886719 804.082031 L 285.84375 810.984375 L 288.347656 796.421875 L 277.808594 786.105469 L 292.363281 783.980469 Z M 298.886719 770.78125 " fill-opacity="1" fill-rule="nonzero"/><g clip-path="url(#0adbc763a8)"><path fill="#ffae46" d="M 349.613281 842.996094 L 359.773438 849.140625 L 370.691406 844.285156 L 367.960938 855.890625 L 375.996094 864.691406 L 364.09375 865.679688 L 358.179688 876.070312 L 353.554688 865.070312 L 341.878906 862.644531 L 350.898438 854.832031 Z M 349.613281 842.996094 " fill-opacity="1" fill-rule="nonzero"/></g><path fill="#ffae46" d="M 489.050781 657.449219 L 495.570312 670.648438 L 510.203125 672.773438 L 499.589844 683.089844 L 502.089844 697.65625 L 489.050781 690.75 L 476.007812 697.65625 L 478.511719 683.089844 L 467.972656 672.773438 L 482.527344 670.648438 Z M 489.050781 657.449219 " fill-opacity="1" fill-rule="nonzero"/><path fill="#26477a" d="M 527.492188 807.191406 L 532.800781 817.886719 L 544.550781 819.632812 L 536.058594 827.976562 L 538.03125 839.660156 L 527.492188 834.121094 L 516.953125 839.660156 L 518.921875 827.976562 L 510.429688 819.632812 L 522.183594 817.886719 Z M 527.492188 807.191406 " fill-opacity="1" fill-rule="nonzero"/><path fill="#26477a" d="M 260.445312 639.246094 L 265.75 649.941406 L 277.578125 651.609375 L 269.011719 659.953125 L 271.058594 671.710938 L 260.445312 666.171875 L 249.90625 671.710938 L 251.953125 659.953125 L 243.382812 651.609375 L 255.210938 649.941406 Z M 260.445312 639.246094 " fill-opacity="1" fill-rule="nonzero"/><path fill="#ffae46" d="M 462.511719 606.019531 C 462.511719 606.480469 462.421875 606.925781 462.246094 607.355469 C 462.070312 607.78125 461.816406 608.160156 461.488281 608.488281 C 461.164062 608.8125 460.785156 609.066406 460.359375 609.242188 C 459.929688 609.421875 459.484375 609.507812 459.023438 609.507812 C 458.5625 609.507812 458.117188 609.421875 457.6875 609.242188 C 457.261719 609.066406 456.882812 608.8125 456.558594 608.488281 C 456.230469 608.160156 455.976562 607.78125 455.800781 607.355469 C 455.625 606.925781 455.535156 606.480469 455.535156 606.019531 C 455.535156 605.554688 455.625 605.113281 455.800781 604.683594 C 455.976562 604.257812 456.230469 603.878906 456.558594 603.550781 C 456.882812 603.222656 457.261719 602.972656 457.6875 602.796875 C 458.117188 602.617188 458.5625 602.53125 459.023438 602.53125 C 459.484375 602.53125 459.929688 602.617188 460.359375 602.796875 C 460.785156 602.972656 461.164062 603.222656 461.488281 603.550781 C 461.816406 603.878906 462.070312 604.257812 462.246094 604.683594 C 462.421875 605.113281 462.511719 605.554688 462.511719 606.019531 Z M 462.511719 606.019531 " fill-opacity="1" fill-rule="nonzero"/></svg>