<svg xmlns="http://www.w3.org/2000/svg" xmlns:xlink="http://www.w3.org/1999/xlink" width="1024" zoomAndPan="magnify" viewBox="0 0 768 767.999994" height="1024" preserveAspectRatio="xMidYMid meet" version="1.0"><defs><clipPath id="a5c100015c"><path d="M 145 643 L 203 643 L 203 729 L 145 729 Z M 145 643 " clip-rule="nonzero"/></clipPath><clipPath id="d9c2125215"><path d="M 427 39 L 481 39 L 481 153 L 427 153 Z M 427 39 " clip-rule="nonzero"/></clipPath><clipPath id="3cf34339ab"><path d="M 544 214 L 676.5 214 L 676.5 267 L 544 267 Z M 544 214 " clip-rule="nonzero"/></clipPath><clipPath id="f15d1b46c9"><path d="M 92 207 L 676.5 207 L 676.5 554 L 92 554 Z M 92 207 " clip-rule="nonzero"/></clipPath></defs><path fill="#3571aa" d="M 263.308594 601.0625 L 260.144531 603.394531 L 259.976562 603.394531 C 258.582031 604.777344 257.417969 606.332031 256.476562 608.058594 C 256.164062 608.617188 255.886719 609.1875 255.636719 609.777344 C 255.386719 610.363281 255.171875 610.964844 254.988281 611.578125 C 254.804688 612.1875 254.65625 612.808594 254.542969 613.4375 C 254.429688 614.066406 254.351562 614.699219 254.304688 615.335938 C 254.261719 615.972656 254.253906 616.609375 254.277344 617.25 C 254.304688 617.886719 254.367188 618.523438 254.464844 619.152344 C 254.558594 619.785156 254.691406 620.410156 254.855469 621.027344 C 255.023438 621.644531 255.222656 622.25 255.453125 622.84375 C 255.6875 623.4375 255.953125 624.019531 256.25 624.585938 C 256.546875 625.148438 256.871094 625.699219 257.230469 626.226562 C 257.585938 626.757812 257.972656 627.265625 258.386719 627.75 C 258.800781 628.238281 259.238281 628.699219 259.703125 629.136719 C 260.167969 629.578125 260.65625 629.988281 261.167969 630.371094 C 261.675781 630.757812 262.207031 631.109375 262.757812 631.4375 C 263.304688 631.761719 263.871094 632.058594 264.453125 632.320312 C 265.035156 632.582031 265.628906 632.8125 266.238281 633.011719 C 266.847656 633.207031 267.460938 633.371094 268.085938 633.5 C 268.714844 633.628906 269.34375 633.722656 269.980469 633.78125 C 270.617188 633.84375 271.253906 633.867188 271.890625 633.855469 C 272.53125 633.84375 273.167969 633.796875 273.800781 633.714844 C 274.433594 633.632812 275.0625 633.519531 275.679688 633.367188 C 276.300781 633.214844 276.914062 633.03125 277.511719 632.8125 C 278.113281 632.59375 278.699219 632.34375 279.273438 632.0625 C 279.84375 631.777344 280.398438 631.464844 280.9375 631.117188 C 281.476562 630.773438 281.992188 630.402344 282.488281 630 C 282.984375 629.597656 283.457031 629.167969 283.90625 628.714844 C 284.355469 628.261719 284.78125 627.785156 285.175781 627.28125 C 285.570312 626.78125 285.941406 626.261719 286.277344 625.71875 C 286.617188 625.175781 286.925781 624.617188 287.203125 624.042969 C 287.480469 623.46875 287.722656 622.878906 287.933594 622.277344 C 288.144531 621.671875 288.324219 621.0625 288.46875 620.4375 C 288.613281 619.816406 288.722656 619.1875 288.796875 618.554688 L 288.796875 614.386719 L 289.296875 582.070312 Z M 263.308594 601.0625 " fill-opacity="1" fill-rule="nonzero"/><path fill="#3571aa" d="M 381.25 695.183594 L 377.917969 697.683594 C 376.417969 698.984375 375.253906 700.539062 374.421875 702.347656 C 374.164062 702.84375 373.929688 703.355469 373.71875 703.878906 C 373.511719 704.402344 373.328125 704.933594 373.171875 705.472656 C 373.011719 706.011719 372.882812 706.558594 372.78125 707.113281 C 372.675781 707.664062 372.601562 708.222656 372.554688 708.78125 C 372.503906 709.34375 372.484375 709.902344 372.492188 710.464844 C 372.496094 711.027344 372.53125 711.589844 372.59375 712.148438 C 372.65625 712.707031 372.746094 713.261719 372.863281 713.8125 C 372.976562 714.363281 373.121094 714.90625 373.289062 715.441406 C 373.460938 715.976562 373.65625 716.503906 373.878906 717.023438 C 374.097656 717.539062 374.34375 718.042969 374.617188 718.535156 C 374.886719 719.03125 375.183594 719.507812 375.5 719.972656 C 375.816406 720.4375 376.160156 720.882812 376.519531 721.3125 C 376.882812 721.742188 377.265625 722.15625 377.667969 722.546875 C 378.070312 722.941406 378.492188 723.3125 378.929688 723.664062 C 379.367188 724.015625 379.824219 724.347656 380.296875 724.652344 C 380.765625 724.960938 381.25 725.242188 381.75 725.5 C 382.25 725.761719 382.761719 725.996094 383.28125 726.203125 C 383.804688 726.414062 384.335938 726.597656 384.875 726.753906 C 385.417969 726.910156 385.964844 727.039062 386.515625 727.140625 C 387.070312 727.246094 387.625 727.320312 388.1875 727.371094 C 388.746094 727.417969 389.308594 727.4375 389.871094 727.433594 C 390.433594 727.425781 390.992188 727.390625 391.554688 727.328125 C 392.113281 727.265625 392.667969 727.179688 393.21875 727.0625 C 393.765625 726.945312 394.3125 726.800781 394.847656 726.632812 C 395.382812 726.460938 395.910156 726.265625 396.425781 726.046875 C 396.945312 725.824219 397.449219 725.578125 397.941406 725.304688 C 398.433594 725.035156 398.914062 724.742188 399.375 724.421875 C 399.839844 724.105469 400.289062 723.765625 400.71875 723.402344 C 401.148438 723.039062 401.558594 722.660156 401.953125 722.253906 C 402.347656 721.851562 402.71875 721.433594 403.070312 720.992188 C 403.421875 720.554688 403.75 720.097656 404.058594 719.628906 C 404.363281 719.15625 404.648438 718.671875 404.90625 718.171875 C 405.84375 716.449219 406.457031 714.617188 406.738281 712.675781 L 406.738281 708.511719 L 407.40625 676.359375 Z M 381.25 695.183594 " fill-opacity="1" fill-rule="nonzero"/><path fill="#3571aa" d="M 553.5 601.0625 L 550.335938 603.394531 L 550.167969 603.394531 C 548.777344 604.777344 547.609375 606.332031 546.671875 608.058594 C 546.363281 608.5625 546.082031 609.082031 545.828125 609.617188 C 545.574219 610.152344 545.347656 610.695312 545.148438 611.253906 C 544.949219 611.808594 544.777344 612.375 544.636719 612.949219 C 544.496094 613.523438 544.386719 614.105469 544.304688 614.691406 C 544.222656 615.277344 544.171875 615.867188 544.148438 616.457031 C 544.128906 617.046875 544.136719 617.640625 544.175781 618.230469 C 544.214844 618.820312 544.285156 619.40625 544.386719 619.988281 C 544.484375 620.570312 544.613281 621.148438 544.773438 621.71875 C 544.929688 622.289062 545.117188 622.847656 545.332031 623.398438 C 545.550781 623.949219 545.792969 624.488281 546.0625 625.015625 C 546.335938 625.539062 546.632812 626.050781 546.953125 626.546875 C 547.277344 627.042969 547.625 627.519531 547.996094 627.980469 C 548.371094 628.4375 548.765625 628.878906 549.183594 629.296875 C 549.597656 629.71875 550.035156 630.113281 550.496094 630.488281 C 550.953125 630.863281 551.429688 631.214844 551.921875 631.539062 C 552.414062 631.863281 552.925781 632.164062 553.449219 632.4375 C 553.972656 632.710938 554.511719 632.957031 555.0625 633.175781 C 555.609375 633.394531 556.167969 633.585938 556.738281 633.746094 C 557.308594 633.90625 557.882812 634.039062 558.464844 634.140625 C 559.050781 634.242188 559.636719 634.316406 560.226562 634.359375 C 560.816406 634.402344 561.40625 634.414062 561.996094 634.394531 C 562.589844 634.375 563.175781 634.328125 563.765625 634.25 C 564.351562 634.171875 564.929688 634.0625 565.507812 633.925781 C 566.082031 633.785156 566.648438 633.621094 567.207031 633.421875 C 567.765625 633.226562 568.3125 633.003906 568.847656 632.75 C 569.382812 632.5 569.902344 632.21875 570.410156 631.914062 C 570.914062 631.609375 571.40625 631.277344 571.878906 630.921875 C 572.351562 630.566406 572.804688 630.1875 573.238281 629.789062 C 573.671875 629.386719 574.082031 628.960938 574.472656 628.519531 C 574.863281 628.074219 575.230469 627.609375 575.574219 627.128906 C 575.917969 626.648438 576.234375 626.148438 576.527344 625.632812 C 576.820312 625.121094 577.085938 624.59375 577.324219 624.050781 C 578.160156 622.292969 578.769531 620.460938 579.15625 618.554688 L 579.15625 614.390625 L 579.65625 582.070312 Z M 553.5 601.0625 " fill-opacity="1" fill-rule="nonzero"/><path fill="#6b99d2" d="M 265.808594 698.515625 L 263.476562 700.179688 C 262.453125 701.152344 261.621094 702.261719 260.976562 703.511719 C 260.601562 704.222656 260.296875 704.960938 260.070312 705.734375 C 259.839844 706.503906 259.6875 707.289062 259.613281 708.089844 C 259.539062 708.886719 259.546875 709.6875 259.632812 710.488281 C 259.714844 711.285156 259.878906 712.070312 260.117188 712.835938 C 260.359375 713.601562 260.671875 714.335938 261.058594 715.042969 C 261.445312 715.746094 261.894531 716.40625 262.410156 717.023438 C 262.929688 717.636719 263.5 718.195312 264.128906 718.699219 C 264.753906 719.199219 265.425781 719.636719 266.140625 720.003906 C 266.566406 720.246094 267.007812 720.460938 267.464844 720.652344 C 267.917969 720.839844 268.382812 721 268.855469 721.128906 C 269.332031 721.261719 269.8125 721.363281 270.296875 721.4375 C 270.785156 721.507812 271.273438 721.550781 271.765625 721.5625 C 272.257812 721.574219 272.75 721.554688 273.238281 721.507812 C 273.726562 721.457031 274.214844 721.378906 274.691406 721.273438 C 275.171875 721.164062 275.644531 721.027344 276.109375 720.859375 C 276.570312 720.695312 277.023438 720.5 277.460938 720.277344 C 277.902344 720.058594 278.324219 719.808594 278.734375 719.535156 C 279.140625 719.261719 279.53125 718.964844 279.90625 718.640625 C 280.277344 718.320312 280.628906 717.976562 280.957031 717.613281 C 281.289062 717.246094 281.59375 716.863281 281.875 716.460938 C 282.160156 716.058594 282.414062 715.636719 282.648438 715.203125 C 282.878906 714.769531 283.082031 714.324219 283.257812 713.863281 C 283.433594 713.402344 283.582031 712.933594 283.699219 712.457031 C 283.816406 711.980469 283.90625 711.496094 283.964844 711.007812 L 283.964844 708.011719 L 284.296875 685.019531 Z M 265.808594 698.515625 " fill-opacity="1" fill-rule="nonzero"/><path fill="#6b99d2" d="M 162.023438 585.734375 L 159.691406 587.566406 C 158.628906 588.507812 157.796875 589.617188 157.191406 590.898438 C 156.816406 591.609375 156.515625 592.351562 156.285156 593.121094 C 156.054688 593.890625 155.90625 594.675781 155.832031 595.476562 C 155.757812 596.277344 155.761719 597.074219 155.847656 597.875 C 155.933594 598.671875 156.09375 599.457031 156.335938 600.222656 C 156.574219 600.988281 156.890625 601.726562 157.273438 602.429688 C 157.660156 603.136719 158.113281 603.792969 158.628906 604.410156 C 159.144531 605.027344 159.71875 605.585938 160.34375 606.085938 C 160.972656 606.585938 161.644531 607.023438 162.355469 607.390625 C 163.074219 607.769531 163.820312 608.074219 164.597656 608.304688 C 165.371094 608.535156 166.164062 608.6875 166.96875 608.761719 C 167.777344 608.835938 168.582031 608.832031 169.386719 608.746094 C 170.195312 608.664062 170.984375 608.5 171.757812 608.261719 C 172.53125 608.023438 173.273438 607.710938 173.984375 607.324219 C 174.695312 606.9375 175.363281 606.484375 175.988281 605.96875 C 176.609375 605.449219 177.175781 604.875 177.683594 604.246094 C 178.195312 603.617188 178.636719 602.945312 179.015625 602.226562 C 179.636719 600.960938 180.023438 599.628906 180.183594 598.230469 L 180.183594 595.230469 L 180.679688 572.410156 Z M 162.023438 585.734375 " fill-opacity="1" fill-rule="nonzero"/><path fill="#6b99d2" d="M 491.863281 697.183594 L 489.53125 698.847656 C 488.511719 699.816406 487.679688 700.929688 487.035156 702.179688 C 486.65625 702.890625 486.355469 703.628906 486.125 704.398438 C 485.898438 705.171875 485.746094 705.957031 485.671875 706.753906 C 485.597656 707.554688 485.605469 708.355469 485.6875 709.152344 C 485.773438 709.953125 485.9375 710.734375 486.175781 711.503906 C 486.417969 712.269531 486.730469 713.003906 487.117188 713.710938 C 487.5 714.414062 487.953125 715.074219 488.46875 715.691406 C 488.984375 716.304688 489.558594 716.863281 490.1875 717.367188 C 490.8125 717.867188 491.484375 718.300781 492.199219 718.671875 C 492.914062 719.050781 493.660156 719.351562 494.4375 719.585938 C 495.214844 719.816406 496.003906 719.96875 496.8125 720.042969 C 497.617188 720.117188 498.421875 720.113281 499.230469 720.027344 C 500.035156 719.945312 500.824219 719.78125 501.597656 719.542969 C 502.371094 719.300781 503.113281 718.988281 503.824219 718.601562 C 504.539062 718.214844 505.203125 717.765625 505.828125 717.246094 C 506.449219 716.730469 507.015625 716.15625 507.527344 715.527344 C 508.035156 714.898438 508.480469 714.222656 508.855469 713.507812 C 509.375 712.269531 509.761719 710.992188 510.023438 709.675781 L 510.023438 706.675781 L 510.523438 683.6875 Z M 491.863281 697.183594 " fill-opacity="1" fill-rule="nonzero"/><path fill="#6b99d2" d="M 452.550781 592.398438 L 450.21875 594.230469 C 449.15625 595.171875 448.324219 596.28125 447.71875 597.5625 C 447.347656 598.273438 447.046875 599.015625 446.820312 599.785156 C 446.597656 600.554688 446.449219 601.339844 446.375 602.136719 C 446.304688 602.9375 446.3125 603.734375 446.398438 604.535156 C 446.484375 605.332031 446.644531 606.113281 446.886719 606.878906 C 447.125 607.644531 447.4375 608.378906 447.820312 609.085938 C 448.207031 609.789062 448.65625 610.449219 449.171875 611.0625 C 449.683594 611.679688 450.253906 612.238281 450.878906 612.742188 C 451.503906 613.246094 452.171875 613.683594 452.882812 614.054688 C 453.59375 614.425781 454.335938 614.726562 455.105469 614.953125 C 455.875 615.179688 456.660156 615.328125 457.457031 615.398438 C 458.257812 615.46875 459.054688 615.464844 459.855469 615.378906 C 460.652344 615.292969 461.433594 615.128906 462.199219 614.890625 C 462.964844 614.648438 463.699219 614.335938 464.402344 613.953125 C 465.109375 613.566406 465.769531 613.117188 466.382812 612.605469 C 467 612.089844 467.558594 611.519531 468.0625 610.894531 C 468.566406 610.269531 469.003906 609.601562 469.375 608.890625 C 470.046875 607.632812 470.492188 606.300781 470.707031 604.894531 L 470.707031 601.894531 L 471.207031 579.074219 Z M 452.550781 592.398438 " fill-opacity="1" fill-rule="nonzero"/><path fill="#b4e3fb" d="M 420.195312 545.589844 L 427.265625 549.667969 C 427.550781 549.835938 427.796875 550.050781 427.996094 550.3125 C 428.199219 550.574219 428.34375 550.867188 428.429688 551.1875 C 428.515625 551.507812 428.535156 551.832031 428.492188 552.160156 C 428.449219 552.488281 428.34375 552.796875 428.179688 553.082031 L 382.71875 631.824219 C 382.550781 632.113281 382.335938 632.355469 382.074219 632.558594 C 381.8125 632.757812 381.519531 632.902344 381.199219 632.988281 C 380.878906 633.074219 380.554688 633.09375 380.226562 633.050781 C 379.898438 633.007812 379.589844 632.90625 379.304688 632.738281 L 372.234375 628.65625 C 371.949219 628.492188 371.703125 628.277344 371.5 628.015625 C 371.300781 627.75 371.15625 627.460938 371.070312 627.140625 C 370.984375 626.820312 370.964844 626.496094 371.007812 626.167969 C 371.050781 625.839844 371.15625 625.53125 371.320312 625.246094 L 416.78125 546.503906 C 416.945312 546.214844 417.160156 545.972656 417.425781 545.769531 C 417.6875 545.566406 417.980469 545.425781 418.296875 545.339844 C 418.617188 545.253906 418.941406 545.230469 419.273438 545.273438 C 419.601562 545.316406 419.90625 545.421875 420.195312 545.589844 Z M 420.195312 545.589844 " fill-opacity="1" fill-rule="nonzero"/><g clip-path="url(#a5c100015c)"><path fill="#b4e3fb" d="M 194.417969 644.222656 L 201.519531 648.304688 C 201.808594 648.46875 202.054688 648.683594 202.257812 648.949219 C 202.460938 649.210938 202.605469 649.503906 202.691406 649.824219 C 202.777344 650.144531 202.800781 650.46875 202.757812 650.800781 C 202.714844 651.128906 202.609375 651.4375 202.445312 651.726562 L 156.984375 730.832031 C 156.816406 731.117188 156.601562 731.363281 156.339844 731.566406 C 156.074219 731.769531 155.785156 731.914062 155.460938 732 C 155.140625 732.089844 154.816406 732.109375 154.488281 732.066406 C 154.15625 732.023438 153.847656 731.921875 153.558594 731.753906 L 146.457031 727.671875 C 146.167969 727.507812 145.925781 727.292969 145.722656 727.03125 C 145.519531 726.765625 145.375 726.472656 145.285156 726.152344 C 145.199219 725.832031 145.179688 725.507812 145.222656 725.175781 C 145.261719 724.847656 145.367188 724.539062 145.535156 724.25 L 190.996094 645.148438 C 191.160156 644.859375 191.375 644.613281 191.636719 644.410156 C 191.902344 644.207031 192.195312 644.0625 192.515625 643.976562 C 192.835938 643.890625 193.160156 643.867188 193.492188 643.910156 C 193.820312 643.953125 194.128906 644.058594 194.417969 644.222656 Z M 194.417969 644.222656 " fill-opacity="1" fill-rule="nonzero"/></g><path fill="#b4e3fb" d="M 607.792969 641.511719 L 614.863281 645.59375 C 615.152344 645.757812 615.394531 645.972656 615.597656 646.238281 C 615.796875 646.5 615.941406 646.792969 616.027344 647.109375 C 616.113281 647.429688 616.136719 647.753906 616.09375 648.085938 C 616.046875 648.414062 615.945312 648.71875 615.777344 649.007812 L 570.316406 727.75 C 570.152344 728.035156 569.9375 728.28125 569.675781 728.480469 C 569.410156 728.683594 569.121094 728.828125 568.800781 728.914062 C 568.480469 729 568.15625 729.019531 567.828125 728.976562 C 567.5 728.933594 567.191406 728.828125 566.902344 728.664062 L 559.835938 724.582031 C 559.546875 724.417969 559.304688 724.203125 559.101562 723.9375 C 558.898438 723.675781 558.757812 723.386719 558.671875 723.066406 C 558.585938 722.746094 558.5625 722.421875 558.605469 722.09375 C 558.648438 721.761719 558.753906 721.457031 558.921875 721.167969 L 604.382812 642.425781 C 604.546875 642.140625 604.761719 641.894531 605.023438 641.695312 C 605.285156 641.492188 605.578125 641.347656 605.898438 641.261719 C 606.21875 641.175781 606.542969 641.15625 606.871094 641.199219 C 607.199219 641.242188 607.507812 641.347656 607.792969 641.511719 Z M 607.792969 641.511719 " fill-opacity="1" fill-rule="nonzero"/><path fill="#ffb544" d="M 553 240.570312 C 553 242.191406 552.960938 243.8125 552.882812 245.433594 C 552.800781 247.054688 552.683594 248.671875 552.523438 250.285156 C 552.367188 251.898438 552.167969 253.507812 551.929688 255.113281 C 551.691406 256.71875 551.414062 258.316406 551.097656 259.90625 C 550.78125 261.496094 550.425781 263.078125 550.03125 264.652344 C 549.636719 266.226562 549.203125 267.789062 548.734375 269.34375 C 548.261719 270.894531 547.753906 272.433594 547.207031 273.960938 C 546.660156 275.488281 546.078125 277 545.457031 278.5 C 544.835938 280 544.179688 281.480469 543.484375 282.949219 C 542.792969 284.414062 542.0625 285.863281 541.296875 287.292969 C 540.53125 288.722656 539.734375 290.136719 538.898438 291.527344 C 538.066406 292.917969 537.199219 294.289062 536.296875 295.636719 C 535.394531 296.984375 534.460938 298.3125 533.496094 299.613281 C 532.53125 300.917969 531.53125 302.195312 530.503906 303.449219 C 529.472656 304.703125 528.414062 305.929688 527.324219 307.132812 C 526.234375 308.335938 525.117188 309.511719 523.96875 310.65625 C 522.824219 311.804688 521.648438 312.921875 520.445312 314.011719 C 519.246094 315.101562 518.015625 316.160156 516.761719 317.1875 C 515.507812 318.21875 514.230469 319.214844 512.929688 320.183594 C 511.625 321.148438 510.300781 322.082031 508.949219 322.984375 C 507.601562 323.882812 506.230469 324.753906 504.839844 325.585938 C 503.449219 326.421875 502.039062 327.21875 500.605469 327.984375 C 499.175781 328.75 497.726562 329.476562 496.261719 330.171875 C 494.796875 330.863281 493.3125 331.523438 491.8125 332.144531 C 490.316406 332.765625 488.800781 333.347656 487.273438 333.894531 C 485.746094 334.441406 484.207031 334.949219 482.65625 335.421875 C 481.101562 335.890625 479.539062 336.324219 477.964844 336.71875 C 476.394531 337.113281 474.8125 337.46875 473.21875 337.785156 C 471.628906 338.101562 470.03125 338.378906 468.425781 338.617188 C 466.820312 338.851562 465.210938 339.050781 463.597656 339.210938 C 461.984375 339.371094 460.367188 339.488281 458.746094 339.570312 C 457.125 339.648438 455.503906 339.6875 453.882812 339.6875 C 452.261719 339.6875 450.640625 339.648438 449.019531 339.570312 C 447.398438 339.488281 445.78125 339.371094 444.167969 339.210938 C 442.554688 339.050781 440.945312 338.851562 439.339844 338.617188 C 437.734375 338.378906 436.136719 338.101562 434.546875 337.785156 C 432.953125 337.46875 431.371094 337.113281 429.800781 336.71875 C 428.226562 336.324219 426.664062 335.890625 425.109375 335.421875 C 423.558594 334.949219 422.019531 334.441406 420.492188 333.894531 C 418.964844 333.347656 417.449219 332.765625 415.953125 332.144531 C 414.453125 331.523438 412.96875 330.863281 411.503906 330.171875 C 410.039062 329.476562 408.589844 328.75 407.160156 327.984375 C 405.726562 327.21875 404.316406 326.421875 402.925781 325.585938 C 401.535156 324.753906 400.164062 323.882812 398.816406 322.984375 C 397.464844 322.082031 396.140625 321.148438 394.839844 320.183594 C 393.535156 319.214844 392.257812 318.21875 391.003906 317.1875 C 389.75 316.160156 388.519531 315.101562 387.320312 314.011719 C 386.117188 312.921875 384.941406 311.804688 383.796875 310.65625 C 382.648438 309.511719 381.53125 308.335938 380.441406 307.132812 C 379.351562 305.929688 378.292969 304.703125 377.261719 303.449219 C 376.234375 302.195312 375.234375 300.917969 374.269531 299.613281 C 373.304688 298.3125 372.371094 296.984375 371.46875 295.636719 C 370.566406 294.289062 369.699219 292.917969 368.867188 291.527344 C 368.03125 290.136719 367.234375 288.722656 366.46875 287.292969 C 365.703125 285.863281 364.972656 284.414062 364.28125 282.949219 C 363.585938 281.480469 362.929688 280 362.308594 278.5 C 361.6875 277 361.105469 275.488281 360.558594 273.960938 C 360.011719 272.433594 359.503906 270.894531 359.03125 269.34375 C 358.5625 267.789062 358.128906 266.226562 357.734375 264.652344 C 357.339844 263.078125 356.984375 261.496094 356.667969 259.90625 C 356.351562 258.316406 356.074219 256.71875 355.835938 255.113281 C 355.597656 253.507812 355.402344 251.898438 355.242188 250.285156 C 355.082031 248.671875 354.964844 247.054688 354.882812 245.433594 C 354.804688 243.8125 354.765625 242.191406 354.765625 240.570312 C 354.765625 238.945312 354.804688 237.324219 354.882812 235.707031 C 354.964844 234.085938 355.082031 232.46875 355.242188 230.855469 C 355.402344 229.238281 355.597656 227.628906 355.835938 226.027344 C 356.074219 224.421875 356.351562 222.824219 356.667969 221.230469 C 356.984375 219.640625 357.339844 218.058594 357.734375 216.484375 C 358.128906 214.910156 358.5625 213.347656 359.03125 211.796875 C 359.503906 210.246094 360.011719 208.703125 360.558594 207.175781 C 361.105469 205.648438 361.6875 204.136719 362.308594 202.636719 C 362.929688 201.140625 363.585938 199.65625 364.28125 198.191406 C 364.972656 196.722656 365.703125 195.277344 366.46875 193.84375 C 367.234375 192.414062 368.03125 191.003906 368.867188 189.613281 C 369.699219 188.21875 370.566406 186.851562 371.46875 185.5 C 372.371094 184.152344 373.304688 182.828125 374.269531 181.523438 C 375.234375 180.222656 376.234375 178.941406 377.261719 177.6875 C 378.292969 176.433594 379.351562 175.207031 380.441406 174.003906 C 381.53125 172.804688 382.648438 171.628906 383.796875 170.480469 C 384.941406 169.335938 386.117188 168.214844 387.320312 167.128906 C 388.519531 166.039062 389.75 164.976562 391.003906 163.949219 C 392.257812 162.921875 393.535156 161.921875 394.835938 160.957031 C 396.140625 159.988281 397.464844 159.054688 398.816406 158.15625 C 400.164062 157.253906 401.535156 156.386719 402.925781 155.550781 C 404.316406 154.71875 405.726562 153.917969 407.160156 153.15625 C 408.589844 152.390625 410.039062 151.660156 411.503906 150.96875 C 412.96875 150.273438 414.453125 149.617188 415.953125 148.996094 C 417.449219 148.375 418.964844 147.792969 420.492188 147.246094 C 422.019531 146.699219 423.558594 146.1875 425.109375 145.71875 C 426.664062 145.246094 428.226562 144.816406 429.800781 144.421875 C 431.371094 144.027344 432.953125 143.671875 434.546875 143.355469 C 436.136719 143.039062 437.734375 142.761719 439.339844 142.523438 C 440.945312 142.285156 442.554688 142.085938 444.167969 141.929688 C 445.78125 141.769531 447.398438 141.648438 449.019531 141.570312 C 450.640625 141.492188 452.261719 141.449219 453.882812 141.449219 C 455.507812 141.445312 457.128906 141.480469 458.75 141.554688 C 460.375 141.628906 461.992188 141.742188 463.609375 141.898438 C 465.226562 142.050781 466.835938 142.246094 468.441406 142.480469 C 470.050781 142.714844 471.648438 142.988281 473.242188 143.300781 C 474.835938 143.613281 476.421875 143.964844 477.996094 144.355469 C 479.574219 144.746094 481.136719 145.175781 482.691406 145.644531 C 484.246094 146.113281 485.789062 146.617188 487.320312 147.160156 C 488.847656 147.707031 490.363281 148.285156 491.867188 148.90625 C 493.367188 149.523438 494.851562 150.179688 496.320312 150.871094 C 497.789062 151.5625 499.242188 152.292969 500.671875 153.054688 C 502.105469 153.820312 503.519531 154.617188 504.914062 155.449219 C 506.304688 156.285156 507.679688 157.152344 509.03125 158.050781 C 510.378906 158.953125 511.707031 159.886719 513.011719 160.851562 C 514.316406 161.820312 515.597656 162.816406 516.851562 163.847656 C 518.109375 164.875 519.339844 165.9375 520.542969 167.027344 C 521.746094 168.117188 522.921875 169.234375 524.070312 170.382812 C 525.214844 171.53125 526.335938 172.707031 527.425781 173.910156 C 528.515625 175.113281 529.574219 176.34375 530.605469 177.597656 C 531.636719 178.855469 532.632812 180.132812 533.597656 181.4375 C 534.566406 182.742188 535.5 184.070312 536.398438 185.421875 C 537.300781 186.773438 538.167969 188.144531 539 189.539062 C 539.835938 190.933594 540.632812 192.347656 541.398438 193.777344 C 542.160156 195.210938 542.886719 196.664062 543.578125 198.132812 C 544.273438 199.601562 544.925781 201.085938 545.546875 202.585938 C 546.164062 204.085938 546.746094 205.601562 547.289062 207.132812 C 547.835938 208.664062 548.339844 210.203125 548.808594 211.757812 C 549.277344 213.3125 549.707031 214.878906 550.097656 216.457031 C 550.488281 218.03125 550.839844 219.617188 551.152344 221.210938 C 551.464844 222.800781 551.738281 224.402344 551.972656 226.007812 C 552.207031 227.617188 552.398438 229.226562 552.554688 230.84375 C 552.710938 232.460938 552.824219 234.078125 552.898438 235.699219 C 552.972656 237.324219 553.007812 238.945312 553 240.570312 Z M 553 240.570312 " fill-opacity="1" fill-rule="nonzero"/><path fill="#ffae46" d="M 452.382812 39.832031 L 455.546875 39.832031 C 455.679688 39.832031 455.808594 39.859375 455.929688 39.910156 C 456.054688 39.960938 456.160156 40.03125 456.253906 40.125 C 456.347656 40.21875 456.421875 40.328125 456.472656 40.449219 C 456.523438 40.574219 456.546875 40.699219 456.546875 40.832031 L 456.546875 127.839844 C 456.546875 127.972656 456.523438 128.101562 456.472656 128.222656 C 456.421875 128.34375 456.347656 128.453125 456.253906 128.546875 C 456.160156 128.640625 456.054688 128.714844 455.929688 128.765625 C 455.808594 128.816406 455.679688 128.839844 455.546875 128.839844 L 452.382812 128.839844 C 452.25 128.839844 452.125 128.816406 452 128.765625 C 451.878906 128.714844 451.769531 128.640625 451.675781 128.546875 C 451.582031 128.453125 451.511719 128.34375 451.460938 128.222656 C 451.410156 128.101562 451.382812 127.972656 451.382812 127.839844 L 451.382812 40.832031 C 451.382812 40.699219 451.410156 40.574219 451.460938 40.449219 C 451.511719 40.328125 451.582031 40.21875 451.675781 40.125 C 451.769531 40.03125 451.878906 39.960938 452 39.910156 C 452.125 39.859375 452.25 39.832031 452.382812 39.832031 Z M 452.382812 39.832031 " fill-opacity="1" fill-rule="nonzero"/><g clip-path="url(#d9c2125215)"><path stroke-linecap="butt" transform="matrix(1.665862, 0, 0, 1.665862, 91.891112, 39.000018)" fill="none" stroke-linejoin="miter" d="M 216.399526 0.499449 L 218.298881 0.499449 C 218.378607 0.499449 218.455988 0.515863 218.52868 0.546347 C 218.603716 0.57683 218.667028 0.619038 218.723305 0.675315 C 218.779582 0.731592 218.824135 0.797249 218.854618 0.869941 C 218.885102 0.944977 218.899171 1.020013 218.899171 1.099739 L 218.899171 53.32965 C 218.899171 53.409376 218.885102 53.486757 218.854618 53.559448 C 218.824135 53.63214 218.779582 53.697796 218.723305 53.754074 C 218.667028 53.810351 218.603716 53.854904 218.52868 53.885387 C 218.455988 53.915871 218.378607 53.92994 218.298881 53.92994 L 216.399526 53.92994 C 216.3198 53.92994 216.244764 53.915871 216.169728 53.885387 C 216.097036 53.854904 216.03138 53.810351 215.975103 53.754074 C 215.918825 53.697796 215.876618 53.63214 215.846134 53.559448 C 215.815651 53.486757 215.799236 53.409376 215.799236 53.32965 L 215.799236 1.099739 C 215.799236 1.020013 215.815651 0.944977 215.846134 0.869941 C 215.876618 0.797249 215.918825 0.731592 215.975103 0.675315 C 216.03138 0.619038 216.097036 0.57683 216.169728 0.546347 C 216.244764 0.515863 216.3198 0.499449 216.399526 0.499449 Z M 216.399526 0.499449 " stroke="#ffae46" stroke-width="1" stroke-opacity="1" stroke-miterlimit="10"/></g><path stroke-linecap="butt" transform="matrix(1.498539, -0.727651, 0.727651, 1.498539, -54.871283, 170.603025)" fill-opacity="1" fill="#ffae46" fill-rule="nonzero" stroke-linejoin="miter" d="M 258.29965 71.299557 L 260.199956 71.299522 C 260.28071 71.299634 260.356403 71.315535 260.43017 71.346141 C 260.503936 71.376746 260.569448 71.418984 260.624657 71.477072 C 260.680889 71.533051 260.723563 71.59548 260.754849 71.670625 C 260.784025 71.744747 260.799582 71.820075 260.79947 71.900829 L 260.799936 100.400168 C 260.800849 100.478812 260.783924 100.556615 260.753318 100.630382 C 260.723736 100.702039 260.681499 100.767551 260.62552 100.823783 C 260.567432 100.878992 260.503979 100.923775 260.428833 100.955061 C 260.356821 100.985261 260.279383 100.999794 260.200739 101.000707 L 258.300433 101.000742 C 258.21968 101.00063 258.143986 100.984729 258.07022 100.954124 C 257.996453 100.923518 257.930941 100.88128 257.875733 100.823192 C 257.8195 100.767213 257.775741 100.701651 257.74554 100.629639 C 257.716364 100.555517 257.700808 100.480189 257.700919 100.399435 L 257.700453 71.900096 C 257.69954 71.821452 257.716466 71.743649 257.747071 71.669882 C 257.776653 71.598225 257.81889 71.532713 257.874869 71.476481 C 257.931872 71.418139 257.996411 71.376489 258.071556 71.345203 C 258.143568 71.315003 258.221006 71.30047 258.29965 71.299557 Z M 258.29965 71.299557 " stroke="#ffae46" stroke-width="1" stroke-opacity="1" stroke-miterlimit="10"/><path stroke-linecap="butt" transform="matrix(1.498539, -0.727651, 0.727651, 1.498539, -158.487644, 248.232341)" fill-opacity="1" fill="#ffae46" fill-rule="nonzero" stroke-linejoin="miter" d="M 328.500173 230.099442 L 330.400478 230.099407 C 330.478098 230.100603 330.556925 230.115419 330.628583 230.145001 C 330.702349 230.175606 330.766837 230.219953 330.82307 230.275932 C 330.879302 230.331911 330.923061 230.397473 330.955371 230.47051 C 330.984547 230.544631 331.000104 230.619959 330.999993 230.700713 L 331.000458 259.200052 C 331.000347 259.280806 330.984446 259.356499 330.95384 259.430266 C 330.923235 259.504033 330.880997 259.569545 330.822909 259.624753 C 330.76693 259.680986 330.702392 259.722635 330.629355 259.754945 C 330.555234 259.784121 330.479906 259.799678 330.399152 259.799567 L 328.500956 259.800626 C 328.420202 259.800515 328.344509 259.784614 328.270742 259.754008 C 328.196975 259.723402 328.131463 259.681165 328.075231 259.625186 C 328.020022 259.567097 327.975239 259.503645 327.946063 259.429523 C 327.913753 259.356487 327.899221 259.279049 327.900417 259.201429 L 327.900975 230.699981 C 327.900063 230.621336 327.914879 230.542509 327.94446 230.470852 C 327.975066 230.397085 328.019413 230.332598 328.075392 230.276365 C 328.131371 230.220132 328.196933 230.176373 328.268945 230.146173 C 328.344091 230.114887 328.421528 230.100355 328.500173 230.099442 Z M 328.500173 230.099442 " stroke="#ffae46" stroke-width="1" stroke-opacity="1" stroke-miterlimit="10"/><path stroke-linecap="butt" transform="matrix(1.574154, 0.5451, -0.5451, 1.574154, 40.582575, -201.217338)" fill-opacity="1" fill="#ffae46" fill-rule="nonzero" stroke-linejoin="miter" d="M 323.199941 69.80069 L 325.100571 69.800133 C 325.179917 69.799954 325.257218 69.815371 325.329494 69.844936 C 325.402536 69.876718 325.466801 69.918982 325.523824 69.976163 C 325.58008 70.031127 325.623127 70.09811 325.652879 70.169697 C 325.683398 70.243499 325.699855 70.31969 325.700035 70.399035 L 325.700119 98.898934 C 325.700299 98.978279 325.684882 99.055581 325.653868 99.130839 C 325.624303 99.203115 325.579822 99.268147 325.524857 99.324403 C 325.467677 99.381426 325.40291 99.423705 325.329108 99.454225 C 325.255305 99.484744 325.179115 99.501201 325.099002 99.499165 L 323.200588 99.498954 C 323.121243 99.499134 323.043941 99.483717 322.96945 99.454919 C 322.896407 99.423138 322.832142 99.380873 322.775119 99.323692 C 322.718863 99.268728 322.676584 99.203961 322.646065 99.130158 C 322.615545 99.056356 322.599088 98.980166 322.601124 98.900053 L 322.60104 70.400154 C 322.60086 70.320809 322.616277 70.243507 322.645843 70.171232 C 322.676857 70.095973 322.719121 70.031708 322.776302 69.974685 C 322.832034 69.920645 322.896033 69.87615 322.969836 69.845631 C 323.043638 69.815111 323.120596 69.80087 323.199941 69.80069 Z M 323.199941 69.80069 " stroke="#ffae46" stroke-width="1" stroke-opacity="1" stroke-miterlimit="10"/><path stroke-linecap="butt" transform="matrix(1.574154, 0.5451, -0.5451, 1.574154, 123.209558, -152.241109)" fill-opacity="1" fill="#ffae46" fill-rule="nonzero" stroke-linejoin="miter" d="M 260.598941 231.700074 L 262.49957 231.699517 C 262.578916 231.699337 262.656218 231.714754 262.72926 231.746535 C 262.803751 231.775333 262.868784 231.819814 262.925039 231.874779 C 262.979846 231.932726 263.024342 231.996726 263.054861 232.070529 C 263.08538 232.144331 263.099622 232.221289 263.099801 232.300634 L 263.099886 260.800533 C 263.100065 260.879878 263.084648 260.95718 263.055083 261.029455 C 263.023302 261.102498 262.981037 261.166763 262.923857 261.223786 C 262.868892 261.280042 262.801909 261.323088 262.728107 261.353608 C 262.65652 261.38336 262.58033 261.399817 262.500984 261.399997 L 260.600355 261.400553 C 260.521009 261.400733 260.443707 261.385316 260.370665 261.353535 C 260.296174 261.324737 260.231141 261.280256 260.174886 261.225291 C 260.120079 261.167344 260.075583 261.103344 260.045064 261.029542 C 260.014544 260.955739 260.000303 260.878782 260.000123 260.799436 L 260.000039 232.299537 C 259.99986 232.220192 260.015277 232.14289 260.044842 232.070615 C 260.076623 231.997572 260.118888 231.933307 260.176068 231.876284 C 260.231033 231.820029 260.297248 231.774766 260.371051 231.744247 C 260.442638 231.714495 260.519595 231.700253 260.598941 231.700074 Z M 260.598941 231.700074 " stroke="#ffae46" stroke-width="1" stroke-opacity="1" stroke-miterlimit="10"/><path stroke-linecap="butt" transform="matrix(0.727651, 1.498539, -1.498539, 0.727651, 508.855466, -471.087149)" fill-opacity="1" fill="#ffae46" fill-rule="nonzero" stroke-linejoin="miter" d="M 372.800293 114.10014 L 374.700599 114.100105 C 374.779243 114.099192 374.854937 114.115093 374.928703 114.145699 C 375.00247 114.176305 375.067982 114.218542 375.124214 114.274521 C 375.179423 114.332609 375.224206 114.396062 375.253382 114.470184 C 375.285692 114.54322 375.300225 114.620658 375.301138 114.699302 L 375.300578 143.20075 C 375.299382 143.27837 375.284566 143.357197 375.254984 143.428855 C 375.224379 143.502621 375.180032 143.567109 375.124053 143.623341 C 375.068074 143.679574 375.002511 143.723333 374.930499 143.753534 C 374.855354 143.784819 374.780025 143.800376 374.699272 143.800265 L 372.798966 143.8003 C 372.720322 143.801213 372.644628 143.785311 372.570862 143.754706 C 372.497095 143.7241 372.432608 143.679753 372.376375 143.623774 C 372.320142 143.567795 372.276383 143.502233 372.246183 143.430221 C 372.214897 143.355075 372.19934 143.279747 372.199452 143.198993 L 372.198987 114.699654 C 372.201207 114.619925 372.214999 114.543207 372.245605 114.469441 C 372.276211 114.395674 372.319533 114.333296 372.376537 114.274954 C 372.432515 114.218721 372.497053 114.177071 372.57009 114.144761 C 372.644211 114.115585 372.719539 114.100029 372.800293 114.10014 Z M 372.800293 114.10014 " stroke="#ffae46" stroke-width="1" stroke-opacity="1" stroke-miterlimit="10"/><path stroke-linecap="butt" transform="matrix(0.727651, 1.498539, -1.498539, 0.727651, 464.877868, -167.234269)" fill-opacity="1" fill="#ffae46" fill-rule="nonzero" stroke-linejoin="miter" d="M 213.999531 184.300091 L 215.899836 184.300056 C 215.98059 184.300168 216.056284 184.316069 216.13005 184.346675 C 216.203817 184.37728 216.267219 184.418494 216.325561 184.475497 C 216.381794 184.531476 216.423444 184.596014 216.454729 184.671159 C 216.48493 184.743171 216.499462 184.820609 216.500375 184.899254 L 216.499816 213.400702 C 216.500729 213.479346 216.484828 213.555039 216.454222 213.628806 C 216.423616 213.702573 216.381379 213.768084 216.3254 213.824317 C 216.267312 213.879526 216.203859 213.924309 216.129737 213.953485 C 216.056701 213.985795 215.979263 214.000327 215.900619 214.00124 L 214.000313 214.001275 C 213.920584 213.999055 213.843866 213.985263 213.770099 213.954657 C 213.696333 213.924051 213.631845 213.879704 213.575613 213.823726 C 213.51938 213.767747 213.475621 213.702184 213.44542 213.630172 C 213.416244 213.556051 213.400687 213.480723 213.400799 213.399969 L 213.400334 184.90063 C 213.400445 184.819876 213.416346 184.744183 213.444843 184.669392 C 213.475448 184.595625 213.519795 184.531138 213.575774 184.474905 C 213.631753 184.418672 213.696291 184.377023 213.771437 184.345737 C 213.843449 184.315537 213.920887 184.301004 213.999531 184.300091 Z M 213.999531 184.300091 " stroke="#ffae46" stroke-width="1" stroke-opacity="1" stroke-miterlimit="10"/><path stroke-linecap="butt" transform="matrix(-0.5451, 1.574154, -1.574154, -0.5451, 1104.40154, -187.223364)" fill-opacity="1" fill="#ffae46" fill-rule="nonzero" stroke-linejoin="miter" d="M 374.299381 181.999982 L 376.200011 181.999426 C 376.279357 181.999246 376.356659 182.014663 376.429701 182.046444 C 376.501976 182.07601 376.569225 182.119723 376.623264 182.175455 C 376.680287 182.232635 376.724783 182.296635 376.755302 182.370437 C 376.785821 182.44424 376.800063 182.521197 376.800242 182.600543 L 376.800326 211.100442 C 376.800505 211.179787 376.785088 211.257089 376.753307 211.330132 C 376.723742 211.402407 376.679261 211.46744 376.624297 211.523695 C 376.567116 211.580718 376.502349 211.622998 376.428547 211.653517 C 376.354744 211.684036 376.278554 211.700494 376.199208 211.700673 L 374.300795 211.700463 C 374.221449 211.700642 374.144147 211.685225 374.071105 211.653444 C 373.996614 211.624646 373.931581 211.580165 373.875326 211.525201 C 373.818303 211.46802 373.776023 211.403253 373.745504 211.329451 C 373.714984 211.255648 373.700743 211.178691 373.700563 211.099345 L 373.70048 182.599446 C 373.7003 182.520101 373.715717 182.442799 373.745283 182.370524 C 373.777064 182.297481 373.819329 182.233216 373.876509 182.176193 C 373.931474 182.119937 373.995473 182.075442 374.069276 182.044923 C 374.143078 182.014403 374.220036 182.000162 374.299381 181.999982 Z M 374.299381 181.999982 " stroke="#ffae46" stroke-width="1" stroke-opacity="1" stroke-miterlimit="10"/><path stroke-linecap="butt" transform="matrix(-0.5451, 1.574154, -1.574154, -0.5451, 647.789323, -70.78171)" fill-opacity="1" fill="#ffae46" fill-rule="nonzero" stroke-linejoin="miter" d="M 212.400646 119.400688 L 214.301275 119.400131 C 214.380621 119.399951 214.455707 119.416136 214.530198 119.444934 C 214.603241 119.476715 214.667506 119.51898 214.724529 119.57616 C 214.780784 119.631125 214.823831 119.698107 214.853583 119.769694 C 214.884103 119.843497 214.90056 119.919687 214.900739 119.999032 L 214.900823 148.498931 C 214.898787 148.579044 214.885585 148.655579 214.853804 148.728621 C 214.825006 148.803112 214.780525 148.868145 214.723345 148.925168 C 214.668381 148.981423 214.603614 149.023703 214.529811 149.054222 C 214.456009 149.084741 214.379051 149.098983 214.299705 149.099162 L 212.399076 149.099719 C 212.31973 149.099899 212.244644 149.083714 212.170153 149.054916 C 212.097111 149.023135 212.032845 148.98087 211.975823 148.92369 C 211.919567 148.868725 211.87652 148.801743 211.846768 148.730156 C 211.816249 148.656353 211.799791 148.580163 211.799612 148.500818 L 211.799528 120.000919 C 211.799349 119.921573 211.814766 119.844271 211.846547 119.771229 C 211.875345 119.696738 211.919826 119.631705 211.97479 119.57545 C 212.031971 119.518427 212.096738 119.476147 212.17054 119.445628 C 212.244343 119.415109 212.3213 119.400867 212.400646 119.400688 Z M 212.400646 119.400688 " stroke="#ffae46" stroke-width="1" stroke-opacity="1" stroke-miterlimit="10"/><path stroke-linecap="butt" transform="matrix(1.665862, 0, 0, 1.665862, 91.891112, 39.000018)" fill-opacity="1" fill="#ffae46" fill-rule="nonzero" stroke-linejoin="miter" d="M 217.900251 194.400121 L 219.799606 194.400121 C 219.879332 194.400121 219.956713 194.41419 220.029404 194.444674 C 220.102096 194.475157 220.167752 194.51971 220.22403 194.575987 C 220.280307 194.632264 220.324859 194.697921 220.355343 194.770612 C 220.385826 194.843304 220.399896 194.920685 220.399896 195.000411 L 220.399896 247.230322 C 220.399896 247.310048 220.385826 247.385084 220.355343 247.46012 C 220.324859 247.532812 220.280307 247.598468 220.22403 247.654746 C 220.167752 247.711023 220.102096 247.753231 220.029404 247.783714 C 219.956713 247.814198 219.879332 247.830612 219.799606 247.830612 L 217.900251 247.830612 C 217.820525 247.830612 217.743144 247.814198 217.670453 247.783714 C 217.597761 247.753231 217.532105 247.711023 217.475827 247.654746 C 217.41955 247.598468 217.374997 247.532812 217.344514 247.46012 C 217.31403 247.385084 217.299961 247.310048 217.299961 247.230322 L 217.299961 195.000411 C 217.299961 194.920685 217.31403 194.843304 217.344514 194.770612 C 217.374997 194.697921 217.41955 194.632264 217.475827 194.575987 C 217.532105 194.51971 217.597761 194.475157 217.670453 194.444674 C 217.743144 194.41419 217.820525 194.400121 217.900251 194.400121 Z M 217.900251 194.400121 " stroke="#ffae46" stroke-width="1" stroke-opacity="1" stroke-miterlimit="10"/><path fill="#ffae46" d="M 657.453125 239.238281 L 657.453125 242.402344 C 657.453125 242.535156 657.425781 242.660156 657.375 242.785156 C 657.324219 242.90625 657.253906 243.015625 657.160156 243.109375 C 657.066406 243.203125 656.957031 243.273438 656.835938 243.324219 C 656.710938 243.375 656.585938 243.402344 656.453125 243.402344 L 569.445312 243.402344 C 569.3125 243.402344 569.183594 243.375 569.0625 243.324219 C 568.9375 243.273438 568.832031 243.203125 568.738281 243.109375 C 568.644531 243.015625 568.570312 242.90625 568.519531 242.785156 C 568.46875 242.660156 568.445312 242.535156 568.445312 242.402344 L 568.445312 239.238281 C 568.445312 239.105469 568.46875 238.976562 568.519531 238.855469 C 568.570312 238.730469 568.644531 238.625 568.738281 238.53125 C 568.832031 238.4375 568.9375 238.363281 569.0625 238.3125 C 569.183594 238.261719 569.3125 238.238281 569.445312 238.238281 L 656.453125 238.238281 C 656.585938 238.238281 656.710938 238.261719 656.835938 238.3125 C 656.957031 238.363281 657.066406 238.4375 657.160156 238.53125 C 657.253906 238.625 657.324219 238.730469 657.375 238.855469 C 657.425781 238.976562 657.453125 239.105469 657.453125 239.238281 Z M 657.453125 239.238281 " fill-opacity="1" fill-rule="nonzero"/><g clip-path="url(#3cf34339ab)"><path stroke-linecap="butt" transform="matrix(0, 1.665862, -1.665862, 0, 885.674263, -407.617496)" fill="none" stroke-linejoin="miter" d="M 388.300989 136.998844 L 390.200344 136.998844 C 390.28007 136.998844 390.355106 137.015258 390.430142 137.045742 C 390.502833 137.076225 390.56849 137.118433 390.624767 137.17471 C 390.681045 137.230987 390.723252 137.296644 390.753736 137.369335 C 390.784219 137.444372 390.800634 137.519408 390.800634 137.599134 L 390.800634 189.829045 C 390.800634 189.908771 390.784219 189.986152 390.753736 190.058843 C 390.723252 190.133879 390.681045 190.197191 390.624767 190.253468 C 390.56849 190.309746 390.502833 190.354298 390.430142 190.384782 C 390.355106 190.415265 390.28007 190.429335 390.200344 190.429335 L 388.300989 190.429335 C 388.221263 190.429335 388.143882 190.415265 388.07119 190.384782 C 387.996154 190.354298 387.932842 190.309746 387.876565 190.253468 C 387.820288 190.197191 387.775735 190.133879 387.745252 190.058843 C 387.714768 189.986152 387.700699 189.908771 387.700699 189.829045 L 387.700699 137.599134 C 387.700699 137.519408 387.714768 137.444372 387.745252 137.369335 C 387.775735 137.296644 387.820288 137.230987 387.876565 137.17471 C 387.932842 137.118433 387.996154 137.076225 388.07119 137.045742 C 388.143882 137.015258 388.221263 136.998844 388.300989 136.998844 Z M 388.300989 136.998844 " stroke="#ffae46" stroke-width="1" stroke-opacity="1" stroke-miterlimit="10"/></g><path stroke-linecap="butt" transform="matrix(0, 1.665862, -1.665862, 0, 565.328999, -82.10813)" fill-opacity="1" fill="#ffae46" fill-rule="nonzero" stroke-linejoin="miter" d="M 194.399385 138.59949 L 196.301084 138.59949 C 196.378465 138.59949 196.455847 138.615904 196.528538 138.646387 C 196.603574 138.676871 196.666886 138.719079 196.723163 138.775356 C 196.77944 138.831633 196.823993 138.89729 196.854477 138.969981 C 196.88496 139.045017 196.899029 139.120054 196.899029 139.19978 L 196.899029 191.429691 C 196.899029 191.509417 196.88496 191.586798 196.854477 191.659489 C 196.823993 191.73218 196.77944 191.797837 196.723163 191.854114 C 196.666886 191.910391 196.603574 191.954944 196.528538 191.985428 C 196.455847 192.015911 196.378465 192.02998 196.301084 192.02998 L 194.399385 192.02998 C 194.319659 192.02998 194.244622 192.015911 194.169586 191.985428 C 194.096895 191.954944 194.031238 191.910391 193.974961 191.854114 C 193.918684 191.797837 193.876476 191.73218 193.845992 191.659489 C 193.815509 191.586798 193.799095 191.509417 193.799095 191.429691 L 193.799095 139.19978 C 193.799095 139.120054 193.815509 139.045017 193.845992 138.969981 C 193.876476 138.89729 193.918684 138.831633 193.974961 138.775356 C 194.031238 138.719079 194.096895 138.676871 194.169586 138.646387 C 194.244622 138.615904 194.319659 138.59949 194.399385 138.59949 Z M 194.399385 138.59949 " stroke="#ffae46" stroke-width="1" stroke-opacity="1" stroke-miterlimit="10"/><path stroke-linecap="butt" transform="matrix(-1.177942, 1.177942, -1.177942, -1.177942, 1272.153348, 206.085727)" fill-opacity="1" fill="#ffae46" fill-rule="nonzero" stroke-linejoin="miter" d="M 361.999673 207.300417 L 363.899835 207.300417 C 363.979423 207.300417 364.057353 207.31534 364.130308 207.345185 C 364.203264 207.375031 364.267929 207.419799 364.324304 207.476174 C 364.380679 207.532548 364.423789 207.595556 364.455293 207.670169 C 364.485138 207.743125 364.500061 207.821055 364.500061 207.900643 L 364.500061 260.130235 C 364.500061 260.209823 364.48348 260.286094 364.453634 260.35905 C 364.423789 260.432006 364.380679 260.498329 364.324304 260.554704 C 364.267929 260.611079 364.203264 260.652531 364.12865 260.684034 C 364.055695 260.71388 363.979423 260.730461 363.899835 260.730461 L 361.999673 260.730461 C 361.920085 260.730461 361.843813 260.71388 361.770857 260.684034 C 361.697902 260.654189 361.631578 260.611079 361.575204 260.554704 C 361.518829 260.498329 361.475719 260.432006 361.445873 260.35905 C 361.416028 260.286094 361.399447 260.209823 361.399447 260.130235 L 361.399447 207.900643 C 361.399447 207.821055 361.41437 207.743125 361.444215 207.670169 C 361.475719 207.595556 361.518829 207.532548 361.575204 207.476174 C 361.631578 207.419799 361.697902 207.376689 361.769199 207.345185 C 361.843813 207.313682 361.920085 207.300417 361.999673 207.300417 Z M 361.999673 207.300417 " stroke="#ffae46" stroke-width="1" stroke-opacity="1" stroke-miterlimit="10"/><path stroke-linecap="butt" transform="matrix(-1.177942, 1.177942, -1.177942, -1.177942, 719.088255, -17.971539)" fill-opacity="1" fill="#ffae46" fill-rule="nonzero" stroke-linejoin="miter" d="M 223.800166 71.300654 L 225.700329 71.300654 C 225.779917 71.300654 225.856188 71.313919 225.930802 71.345423 C 226.003758 71.375268 226.068423 71.420036 226.124798 71.476411 C 226.181173 71.532786 226.224283 71.595793 226.255786 71.670407 C 226.285632 71.743362 226.300554 71.821292 226.300554 71.90088 L 226.300554 124.130472 C 226.300554 124.21006 226.283974 124.286332 226.254128 124.359288 C 226.224283 124.432243 226.181173 124.498567 226.124798 124.554941 C 226.068423 124.611316 226.0021 124.654426 225.929144 124.684272 C 225.856188 124.714117 225.779917 124.730698 225.700329 124.730698 L 223.800166 124.730698 C 223.720578 124.730698 223.644307 124.714117 223.571351 124.684272 C 223.496737 124.652768 223.432072 124.611316 223.375697 124.554941 C 223.319322 124.498567 223.276212 124.432243 223.246367 124.359288 C 223.216521 124.286332 223.199941 124.21006 223.199941 124.130472 L 223.199941 71.90088 C 223.199941 71.821292 223.214863 71.743362 223.244709 71.670407 C 223.276212 71.595793 223.319322 71.532786 223.375697 71.476411 C 223.432072 71.420036 223.496737 71.375268 223.569693 71.345423 C 223.642649 71.315577 223.720578 71.300654 223.800166 71.300654 Z M 223.800166 71.300654 " stroke="#ffae46" stroke-width="1" stroke-opacity="1" stroke-miterlimit="10"/><path stroke-linecap="butt" transform="matrix(-1.177942, -1.177942, 1.177942, -1.177942, 327.110612, 896.420544)" fill-opacity="1" fill="#ffae46" fill-rule="nonzero" stroke-linejoin="miter" d="M 223.300534 206.90105 L 225.199038 206.899392 C 225.278626 206.899392 225.356556 206.914314 225.429512 206.94416 C 225.504125 206.975663 225.567132 207.018774 225.623507 207.075148 C 225.679882 207.131523 225.72465 207.196188 225.754496 207.269144 C 225.785999 207.343758 225.799264 207.420029 225.799264 207.499617 L 225.799264 259.729209 C 225.799264 259.808797 225.784341 259.886727 225.754496 259.959683 C 225.72465 260.032639 225.679882 260.097304 225.623507 260.153679 C 225.567132 260.210053 225.502467 260.254822 225.429512 260.284667 C 225.356556 260.314512 225.278626 260.329435 225.199038 260.329435 L 223.300534 260.331093 C 223.220946 260.331093 223.144674 260.314512 223.070061 260.283009 C 222.997105 260.253163 222.930782 260.210053 222.876065 260.155337 C 222.81969 260.098962 222.77658 260.032639 222.746735 259.959683 C 222.715231 259.885069 222.700308 259.810455 222.700308 259.730868 L 222.700308 207.501275 C 222.700308 207.421688 222.715231 207.343758 222.745076 207.270802 C 222.77658 207.196188 222.81969 207.133181 222.876065 207.076806 C 222.93244 207.020432 222.997105 206.975663 223.070061 206.945818 C 223.143016 206.915972 223.220946 206.90105 223.300534 206.90105 Z M 223.300534 206.90105 " stroke="#ffae46" stroke-width="1" stroke-opacity="1" stroke-miterlimit="10"/><path stroke-linecap="butt" transform="matrix(-1.177942, -1.177942, 1.177942, -1.177942, 876.678464, 663.698123)" fill-opacity="1" fill="#ffae46" fill-rule="nonzero" stroke-linejoin="miter" d="M 359.300473 68.699378 L 361.200635 68.699378 C 361.280223 68.699378 361.356495 68.715959 361.42945 68.745804 C 361.502406 68.77565 361.568729 68.81876 361.625104 68.875135 C 361.681479 68.931509 361.722931 68.996175 361.754435 69.070788 C 361.78428 69.143744 361.800861 69.220016 361.800861 69.299604 L 361.800861 121.529196 C 361.800861 121.608784 361.78428 121.685055 361.752776 121.759669 C 361.722931 121.832625 361.679821 121.898948 361.625104 121.953665 C 361.568729 122.01004 361.502406 122.05315 361.42945 122.082995 C 361.354837 122.114499 361.280223 122.129421 361.200635 122.129421 L 359.300473 122.129421 C 359.220885 122.129421 359.142955 122.114499 359.069999 122.084653 C 358.997044 122.054808 358.932378 122.01004 358.876004 121.953665 C 358.819629 121.89729 358.776519 121.834283 358.745015 121.759669 C 358.71517 121.686713 358.700247 121.608784 358.700247 121.529196 L 358.700247 69.299604 C 358.700247 69.220016 358.71517 69.145402 358.746673 69.070788 C 358.776519 68.997833 358.819629 68.931509 358.876004 68.875135 C 358.932378 68.81876 358.997044 68.777308 359.071657 68.745804 C 359.144613 68.715959 359.220885 68.699378 359.300473 68.699378 Z M 359.300473 68.699378 " stroke="#ffae46" stroke-width="1" stroke-opacity="1" stroke-miterlimit="10"/><g clip-path="url(#f15d1b46c9)"><path fill="#26477a" d="M 600.3125 402.324219 L 597.980469 402.324219 C 600.753906 393.371094 602.140625 384.210938 602.144531 374.835938 C 602.144531 323.03125 559.832031 281.214844 507.855469 281.214844 C 502.398438 281.191406 496.980469 281.636719 491.601562 282.554688 C 486.222656 283.46875 480.960938 284.84375 475.820312 286.675781 C 470.679688 288.507812 465.738281 290.769531 460.988281 293.460938 C 456.242188 296.152344 451.765625 299.234375 447.550781 302.707031 C 446.796875 299.359375 445.902344 296.050781 444.867188 292.78125 C 443.832031 289.511719 442.660156 286.289062 441.351562 283.117188 C 440.046875 279.945312 438.605469 276.835938 437.035156 273.785156 C 435.464844 270.734375 433.769531 267.757812 431.949219 264.851562 C 430.125 261.941406 428.183594 259.117188 426.125 256.375 C 424.0625 253.632812 421.890625 250.984375 419.605469 248.421875 C 417.320312 245.863281 414.933594 243.40625 412.441406 241.050781 C 409.949219 238.691406 407.359375 236.445312 404.675781 234.304688 C 401.996094 232.167969 399.226562 230.144531 396.375 228.242188 C 393.519531 226.335938 390.59375 224.554688 387.589844 222.898438 C 384.585938 221.242188 381.515625 219.714844 378.382812 218.316406 C 375.25 216.917969 372.066406 215.65625 368.824219 214.527344 C 365.585938 213.398438 362.304688 212.410156 358.980469 211.558594 C 355.65625 210.707031 352.304688 210 348.921875 209.429688 C 345.539062 208.863281 342.136719 208.4375 338.71875 208.160156 C 335.296875 207.878906 331.875 207.742188 328.445312 207.75 C 261.144531 207.75 206.503906 261.890625 206.503906 328.859375 C 206.457031 336.648438 207.179688 344.367188 208.667969 352.015625 C 203.636719 351.34375 198.585938 351.011719 193.507812 351.015625 C 190.730469 351 187.957031 351.101562 185.1875 351.316406 C 182.414062 351.53125 179.660156 351.859375 176.917969 352.300781 C 174.171875 352.742188 171.453125 353.296875 168.753906 353.964844 C 166.058594 354.628906 163.394531 355.40625 160.761719 356.292969 C 158.125 357.179688 155.535156 358.175781 152.984375 359.273438 C 150.433594 360.375 147.929688 361.578125 145.480469 362.886719 C 143.027344 364.195312 140.632812 365.601562 138.296875 367.105469 C 135.964844 368.609375 133.695312 370.207031 131.488281 371.902344 C 129.285156 373.59375 127.15625 375.375 125.101562 377.242188 C 123.042969 379.109375 121.066406 381.058594 119.171875 383.089844 C 117.277344 385.121094 115.46875 387.226562 113.746094 389.410156 C 112.023438 391.589844 110.394531 393.835938 108.859375 396.152344 C 107.324219 398.46875 105.882812 400.84375 104.542969 403.277344 C 103.203125 405.710938 101.96875 408.195312 100.832031 410.730469 C 99.695312 413.269531 98.667969 415.847656 97.746094 418.46875 C 96.824219 421.089844 96.011719 423.742188 95.308594 426.429688 C 94.605469 429.117188 94.015625 431.832031 93.539062 434.566406 C 93.058594 437.304688 92.691406 440.058594 92.441406 442.824219 C 92.191406 445.589844 92.054688 448.363281 92.03125 451.140625 C 92.007812 453.921875 92.097656 456.695312 92.304688 459.464844 C 92.511719 462.238281 92.832031 464.996094 93.265625 467.738281 C 93.699219 470.484375 94.246094 473.203125 94.90625 475.902344 C 95.566406 478.601562 96.332031 481.269531 97.214844 483.90625 C 98.09375 486.542969 99.078125 489.136719 100.171875 491.691406 C 101.265625 494.246094 102.460938 496.75 103.761719 499.207031 C 105.0625 501.660156 106.460938 504.058594 107.960938 506.398438 C 109.457031 508.738281 111.050781 511.011719 112.734375 513.222656 C 114.421875 515.429688 116.195312 517.566406 118.058594 519.628906 C 119.917969 521.6875 121.863281 523.671875 123.890625 525.574219 C 125.914062 527.472656 128.015625 529.289062 130.191406 531.015625 C 132.367188 532.746094 134.609375 534.378906 136.921875 535.921875 C 139.230469 537.464844 141.601562 538.910156 144.03125 540.257812 C 147.136719 542.328125 150.375 544.160156 153.746094 545.757812 C 157.121094 547.351562 160.589844 548.691406 164.160156 549.78125 C 167.730469 550.867188 171.359375 551.6875 175.046875 552.238281 C 178.738281 552.792969 182.449219 553.074219 186.179688 553.085938 L 600.3125 553.085938 C 641.957031 553.085938 676.109375 519.101562 676.109375 477.789062 C 676.101562 476.550781 676.0625 475.316406 675.992188 474.082031 C 675.925781 472.847656 675.828125 471.617188 675.699219 470.386719 C 675.570312 469.15625 675.410156 467.929688 675.222656 466.707031 C 675.035156 465.488281 674.816406 464.269531 674.570312 463.058594 C 674.320312 461.847656 674.042969 460.644531 673.738281 459.445312 C 673.429688 458.25 673.09375 457.058594 672.730469 455.878906 C 672.363281 454.695312 671.972656 453.523438 671.550781 452.363281 C 671.128906 451.199219 670.679688 450.050781 670.199219 448.910156 C 669.722656 447.769531 669.214844 446.640625 668.683594 445.527344 C 668.148438 444.410156 667.589844 443.308594 667.003906 442.222656 C 666.414062 441.132812 665.800781 440.058594 665.164062 439.003906 C 664.523438 437.945312 663.859375 436.902344 663.167969 435.875 C 662.480469 434.851562 661.765625 433.84375 661.023438 432.851562 C 660.285156 431.859375 659.523438 430.890625 658.734375 429.9375 C 657.949219 428.980469 657.136719 428.046875 656.304688 427.132812 C 655.472656 426.21875 654.617188 425.328125 653.742188 424.457031 C 652.867188 423.582031 651.96875 422.734375 651.050781 421.902344 C 650.132812 421.074219 649.199219 420.269531 648.242188 419.488281 C 647.285156 418.703125 646.308594 417.945312 645.3125 417.210938 C 644.320312 416.476562 643.308594 415.765625 642.28125 415.078125 C 641.25 414.394531 640.207031 413.734375 639.144531 413.097656 C 638.085938 412.464844 637.007812 411.855469 635.917969 411.273438 C 634.828125 410.691406 633.722656 410.136719 632.605469 409.609375 C 631.488281 409.078125 630.359375 408.578125 629.214844 408.105469 C 628.074219 407.632812 626.921875 407.1875 625.757812 406.769531 C 624.59375 406.355469 623.417969 405.964844 622.238281 405.605469 C 621.054688 405.246094 619.863281 404.917969 618.664062 404.617188 C 617.464844 404.3125 616.257812 404.042969 615.046875 403.800781 C 613.835938 403.558594 612.617188 403.34375 611.394531 403.160156 C 610.171875 402.980469 608.945312 402.824219 607.714844 402.703125 C 606.484375 402.578125 605.253906 402.484375 604.019531 402.421875 C 602.785156 402.359375 601.546875 402.328125 600.3125 402.324219 Z M 600.3125 402.324219 " fill-opacity="1" fill-rule="nonzero"/></g></svg>