<svg xmlns="http://www.w3.org/2000/svg" xmlns:xlink="http://www.w3.org/1999/xlink" width="1080" zoomAndPan="magnify" viewBox="0 0 810 1439.999935" height="1920" preserveAspectRatio="xMidYMid meet" version="1.0"><defs><clipPath id="a2eaa55183"><path d="M 393 558 L 421 558 L 421 640 L 393 640 Z M 393 558 " clip-rule="nonzero"/></clipPath><clipPath id="a0e5e779ab"><path d="M 395 800 L 423 800 L 423 882 L 395 882 Z M 395 800 " clip-rule="nonzero"/></clipPath><clipPath id="af566c132a"><path d="M 485 702 L 567 702 L 567 730 L 485 730 Z M 485 702 " clip-rule="nonzero"/></clipPath><clipPath id="0e18ebe65e"><path d="M 243 704 L 325 704 L 325 732 L 243 732 Z M 243 704 " clip-rule="nonzero"/></clipPath></defs><path fill="#ffb544" d="M 484.777344 715.949219 C 484.773438 717.21875 484.742188 718.492188 484.679688 719.761719 C 484.617188 721.03125 484.519531 722.300781 484.394531 723.5625 C 484.269531 724.828125 484.113281 726.089844 483.925781 727.347656 C 483.738281 728.605469 483.519531 729.859375 483.269531 731.105469 C 483.019531 732.351562 482.738281 733.59375 482.429688 734.824219 C 482.121094 736.058594 481.78125 737.285156 481.410156 738.5 C 481.039062 739.714844 480.640625 740.921875 480.210938 742.121094 C 479.78125 743.316406 479.320312 744.503906 478.835938 745.675781 C 478.347656 746.851562 477.832031 748.011719 477.285156 749.160156 C 476.742188 750.3125 476.167969 751.445312 475.566406 752.566406 C 474.96875 753.6875 474.339844 754.792969 473.6875 755.882812 C 473.03125 756.972656 472.351562 758.046875 471.644531 759.105469 C 470.9375 760.160156 470.203125 761.199219 469.445312 762.21875 C 468.6875 763.242188 467.902344 764.242188 467.097656 765.226562 C 466.289062 766.207031 465.457031 767.167969 464.601562 768.109375 C 463.75 769.050781 462.871094 769.972656 461.972656 770.871094 C 461.070312 771.769531 460.152344 772.644531 459.207031 773.5 C 458.265625 774.351562 457.300781 775.179688 456.320312 775.988281 C 455.335938 776.792969 454.332031 777.574219 453.3125 778.332031 C 452.289062 779.089844 451.25 779.820312 450.191406 780.527344 C 449.132812 781.230469 448.058594 781.910156 446.96875 782.5625 C 445.878906 783.21875 444.769531 783.84375 443.648438 784.441406 C 442.527344 785.039062 441.390625 785.613281 440.242188 786.15625 C 439.09375 786.699219 437.929688 787.210938 436.753906 787.699219 C 435.578125 788.183594 434.394531 788.640625 433.195312 789.070312 C 432 789.496094 430.792969 789.894531 429.574219 790.261719 C 428.359375 790.632812 427.132812 790.96875 425.898438 791.277344 C 424.664062 791.585938 423.425781 791.863281 422.175781 792.113281 C 420.929688 792.359375 419.675781 792.578125 418.417969 792.761719 C 417.160156 792.949219 415.898438 793.105469 414.632812 793.226562 C 413.371094 793.351562 412.101562 793.445312 410.832031 793.507812 C 409.5625 793.570312 408.289062 793.601562 407.019531 793.601562 C 405.746094 793.597656 404.476562 793.566406 403.207031 793.503906 C 401.9375 793.441406 400.667969 793.347656 399.402344 793.222656 C 398.136719 793.097656 396.875 792.941406 395.617188 792.753906 C 394.359375 792.570312 393.109375 792.351562 391.859375 792.101562 C 390.613281 791.855469 389.375 791.574219 388.140625 791.265625 C 386.90625 790.957031 385.683594 790.617188 384.464844 790.246094 C 383.25 789.878906 382.042969 789.480469 380.84375 789.050781 C 379.648438 788.621094 378.460938 788.164062 377.285156 787.679688 C 376.113281 787.191406 374.949219 786.675781 373.800781 786.132812 C 372.652344 785.589844 371.515625 785.015625 370.394531 784.417969 C 369.273438 783.816406 368.167969 783.191406 367.078125 782.535156 C 365.984375 781.882812 364.914062 781.203125 363.855469 780.496094 C 362.796875 779.789062 361.757812 779.058594 360.738281 778.300781 C 359.714844 777.542969 358.714844 776.761719 357.730469 775.953125 C 356.746094 775.148438 355.785156 774.316406 354.84375 773.460938 C 353.902344 772.609375 352.980469 771.730469 352.082031 770.832031 C 351.183594 769.933594 350.304688 769.011719 349.453125 768.070312 C 348.597656 767.128906 347.765625 766.167969 346.960938 765.183594 C 346.152344 764.199219 345.371094 763.199219 344.613281 762.175781 C 343.855469 761.15625 343.125 760.117188 342.417969 759.058594 C 341.710938 758.003906 341.03125 756.929688 340.378906 755.835938 C 339.722656 754.746094 339.097656 753.640625 338.496094 752.519531 C 337.898438 751.398438 337.328125 750.261719 336.78125 749.113281 C 336.238281 747.964844 335.722656 746.800781 335.238281 745.628906 C 334.75 744.453125 334.292969 743.265625 333.863281 742.070312 C 333.433594 740.871094 333.035156 739.664062 332.667969 738.449219 C 332.296875 737.230469 331.957031 736.007812 331.648438 734.773438 C 331.339844 733.539062 331.058594 732.300781 330.8125 731.054688 C 330.5625 729.804688 330.347656 728.554688 330.160156 727.296875 C 329.972656 726.039062 329.816406 724.777344 329.691406 723.511719 C 329.566406 722.246094 329.472656 720.976562 329.410156 719.707031 C 329.347656 718.4375 329.316406 717.167969 329.316406 715.894531 C 329.3125 714.625 329.34375 713.351562 329.40625 712.082031 C 329.46875 710.8125 329.5625 709.546875 329.6875 708.28125 C 329.808594 707.015625 329.964844 705.753906 330.152344 704.496094 C 330.335938 703.238281 330.554688 701.984375 330.800781 700.738281 C 331.050781 699.488281 331.328125 698.25 331.636719 697.015625 C 331.945312 695.78125 332.28125 694.558594 332.652344 693.339844 C 333.019531 692.121094 333.417969 690.914062 333.84375 689.71875 C 334.273438 688.519531 334.730469 687.335938 335.214844 686.160156 C 335.703125 684.984375 336.214844 683.820312 336.757812 682.671875 C 337.300781 681.523438 337.875 680.386719 338.472656 679.265625 C 339.070312 678.144531 339.695312 677.035156 340.351562 675.945312 C 341.003906 674.855469 341.683594 673.78125 342.386719 672.722656 C 343.09375 671.664062 343.824219 670.625 344.582031 669.601562 C 345.339844 668.582031 346.121094 667.578125 346.925781 666.59375 C 347.734375 665.613281 348.5625 664.648438 349.414062 663.707031 C 350.269531 662.761719 351.144531 661.84375 352.042969 660.941406 C 352.941406 660.042969 353.863281 659.164062 354.804688 658.3125 C 355.746094 657.457031 356.707031 656.625 357.691406 655.816406 C 358.671875 655.011719 359.671875 654.226562 360.695312 653.46875 C 361.714844 652.710938 362.753906 651.976562 363.808594 651.269531 C 364.867188 650.5625 365.941406 649.882812 367.03125 649.226562 C 368.121094 648.574219 369.226562 647.945312 370.347656 647.347656 C 371.46875 646.746094 372.601562 646.171875 373.753906 645.628906 C 374.902344 645.082031 376.0625 644.566406 377.238281 644.082031 C 378.410156 643.59375 379.597656 643.132812 380.792969 642.703125 C 381.992188 642.273438 383.199219 641.875 384.414062 641.503906 C 385.628906 641.136719 386.855469 640.792969 388.089844 640.484375 C 389.320312 640.175781 390.5625 639.894531 391.808594 639.644531 C 393.054688 639.394531 394.308594 639.179688 395.566406 638.988281 C 396.824219 638.800781 398.085938 638.644531 399.351562 638.519531 C 400.617188 638.394531 401.882812 638.296875 403.152344 638.234375 C 404.421875 638.171875 405.695312 638.140625 406.964844 638.136719 C 408.242188 638.128906 409.515625 638.152344 410.792969 638.203125 C 412.066406 638.257812 413.339844 638.34375 414.609375 638.460938 C 415.878906 638.578125 417.148438 638.726562 418.410156 638.90625 C 419.675781 639.085938 420.933594 639.296875 422.183594 639.539062 C 423.4375 639.78125 424.683594 640.054688 425.921875 640.359375 C 427.164062 640.660156 428.394531 640.996094 429.617188 641.359375 C 430.839844 641.726562 432.050781 642.121094 433.253906 642.546875 C 434.457031 642.96875 435.648438 643.425781 436.832031 643.910156 C 438.011719 644.390625 439.179688 644.90625 440.335938 645.449219 C 441.488281 645.988281 442.628906 646.558594 443.757812 647.15625 C 444.882812 647.757812 445.996094 648.382812 447.09375 649.035156 C 448.1875 649.6875 449.265625 650.371094 450.328125 651.078125 C 451.390625 651.785156 452.4375 652.515625 453.460938 653.273438 C 454.488281 654.035156 455.496094 654.816406 456.480469 655.625 C 457.46875 656.433594 458.433594 657.265625 459.378906 658.125 C 460.328125 658.980469 461.25 659.859375 462.152344 660.761719 C 463.054688 661.664062 463.933594 662.585938 464.789062 663.535156 C 465.648438 664.480469 466.480469 665.445312 467.289062 666.433594 C 468.097656 667.421875 468.878906 668.425781 469.640625 669.453125 C 470.398438 670.480469 471.132812 671.523438 471.839844 672.585938 C 472.546875 673.648438 473.226562 674.726562 473.878906 675.820312 C 474.53125 676.917969 475.15625 678.03125 475.757812 679.15625 C 476.355469 680.285156 476.925781 681.425781 477.46875 682.578125 C 478.007812 683.734375 478.523438 684.902344 479.003906 686.082031 C 479.488281 687.265625 479.945312 688.457031 480.371094 689.660156 C 480.792969 690.863281 481.1875 692.074219 481.554688 693.296875 C 481.917969 694.519531 482.253906 695.753906 482.558594 696.992188 C 482.859375 698.230469 483.132812 699.476562 483.375 700.730469 C 483.617188 701.980469 483.828125 703.242188 484.007812 704.503906 C 484.1875 705.765625 484.335938 707.035156 484.453125 708.304688 C 484.570312 709.574219 484.65625 710.847656 484.710938 712.121094 C 484.765625 713.398438 484.785156 714.671875 484.777344 715.949219 Z M 484.777344 715.949219 " fill-opacity="1" fill-rule="nonzero"/><path fill="#ffae46" d="M 405.683594 558.402344 L 408.25 558.402344 C 408.449219 558.402344 408.617188 558.472656 408.757812 558.613281 C 408.898438 558.753906 408.972656 558.921875 408.972656 559.121094 L 408.972656 627.5 C 408.972656 627.699219 408.898438 627.871094 408.757812 628.011719 C 408.617188 628.152344 408.449219 628.222656 408.25 628.222656 L 405.683594 628.222656 C 405.484375 628.222656 405.3125 628.152344 405.171875 628.011719 C 405.03125 627.871094 404.960938 627.699219 404.960938 627.5 L 404.960938 559.121094 C 404.960938 558.921875 405.03125 558.753906 405.171875 558.613281 C 405.3125 558.472656 405.484375 558.402344 405.683594 558.402344 Z M 405.683594 558.402344 " fill-opacity="1" fill-rule="nonzero"/><g clip-path="url(#a2eaa55183)"><path stroke-linecap="butt" transform="matrix(0.802179, 0, 0, 0.802179, 242.999997, 557.999932)" fill="none" stroke-linejoin="miter" d="M 202.802174 0.501649 L 206.001468 0.501649 C 206.249815 0.501649 206.459206 0.589301 206.63451 0.764605 C 206.809814 0.939909 206.902335 1.149299 206.902335 1.397646 L 206.902335 86.639128 C 206.902335 86.887475 206.809814 87.101735 206.63451 87.277039 C 206.459206 87.452343 206.249815 87.539995 206.001468 87.539995 L 202.802174 87.539995 C 202.553826 87.539995 202.339566 87.452343 202.164262 87.277039 C 201.988959 87.101735 201.901307 86.887475 201.901307 86.639128 L 201.901307 1.397646 C 201.901307 1.149299 201.988959 0.939909 202.164262 0.764605 C 202.339566 0.589301 202.553826 0.501649 202.802174 0.501649 Z M 202.802174 0.501649 " stroke="#ffae46" stroke-width="1" stroke-opacity="1" stroke-miterlimit="10"/></g><path stroke-linecap="butt" transform="matrix(0.721606, -0.350393, 0.350393, 0.721606, 170.082104, 584.391721)" fill-opacity="1" fill="#ffae46" fill-rule="nonzero" stroke-linejoin="miter" d="M 196.999484 114.001871 L 200.198782 114.001758 C 200.449204 113.998851 200.661466 114.08568 200.835568 114.262245 C 201.01405 114.440937 201.101428 114.651177 201.099954 114.899472 L 201.098488 161.490793 C 201.101395 161.741215 201.010185 161.95135 200.838001 162.127579 C 200.661436 162.30168 200.451196 162.389058 200.200774 162.391965 L 197.001476 162.392078 C 196.753181 162.390604 196.540919 162.303775 196.362437 162.125083 C 196.188335 161.948518 196.100957 161.738279 196.102431 161.489984 L 196.09739 114.900916 C 196.098863 114.652621 196.185692 114.440359 196.364384 114.261877 C 196.540949 114.087775 196.751189 114.000397 196.999484 114.001871 Z M 196.999484 114.001871 " stroke="#ffae46" stroke-width="1" stroke-opacity="1" stroke-miterlimit="10"/><path stroke-linecap="butt" transform="matrix(0.721606, -0.350393, 0.350393, 0.721606, 88.741007, 645.196916)" fill-opacity="1" fill="#ffae46" fill-rule="nonzero" stroke-linejoin="miter" d="M 311.399085 372.597055 L 314.602764 372.599069 C 314.846679 372.598415 315.063321 372.687371 315.237423 372.863936 C 315.411525 373.040501 315.498902 373.250741 315.501809 373.501163 L 315.500343 420.092484 C 315.500996 420.336399 315.41204 420.553041 315.235475 420.727143 C 315.058911 420.901245 314.848671 420.988622 314.598249 420.991529 L 311.39895 420.991642 C 311.150655 420.990169 310.938393 420.90334 310.764291 420.726775 C 310.59019 420.55021 310.498432 420.337843 310.499905 420.089548 L 310.501371 373.498227 C 310.500718 373.254312 310.589674 373.03767 310.766239 372.863568 C 310.938423 372.687339 311.153043 372.602089 311.399085 372.597055 Z M 311.399085 372.597055 " stroke="#ffae46" stroke-width="1" stroke-opacity="1" stroke-miterlimit="10"/><path stroke-linecap="butt" transform="matrix(0.758018, 0.262487, -0.262487, 0.758018, 251.583337, 429.731655)" fill-opacity="1" fill="#ffae46" fill-rule="nonzero" stroke-linejoin="miter" d="M 302.698148 111.399554 L 305.898248 111.399368 C 306.150808 111.399516 306.361255 111.486393 306.535784 111.663006 C 306.710313 111.839619 306.799008 112.051108 306.797266 112.299067 L 306.800613 158.888377 C 306.800465 159.140937 306.713588 159.351384 306.536975 159.525913 C 306.360362 159.700442 306.148873 159.789137 305.900914 159.787395 L 302.700815 159.787582 C 302.449848 159.792035 302.237807 159.700557 302.063278 159.523944 C 301.890343 159.351932 301.801648 159.140443 301.801796 158.887883 L 301.798449 112.298573 C 301.800191 112.050614 301.887068 111.840167 302.063681 111.665638 C 302.2387 111.486507 302.451783 111.402414 302.698148 111.399554 Z M 302.698148 111.399554 " stroke="#ffae46" stroke-width="1" stroke-opacity="1" stroke-miterlimit="10"/><path stroke-linecap="butt" transform="matrix(0.758018, 0.262487, -0.262487, 0.758018, 316.479483, 468.316259)" fill-opacity="1" fill="#ffae46" fill-rule="nonzero" stroke-linejoin="miter" d="M 200.700749 375.200414 L 203.900849 375.200228 C 204.148807 375.201969 204.359255 375.288846 204.538385 375.463865 C 204.712914 375.640479 204.801609 375.851968 204.799867 376.099927 L 204.798613 422.69083 C 204.801472 422.937195 204.709994 423.149236 204.534975 423.328367 C 204.358362 423.502896 204.146872 423.59159 203.898914 423.589848 L 200.698814 423.590035 C 200.450856 423.588293 200.240408 423.501417 200.061278 423.326397 C 199.886749 423.149784 199.798054 422.938295 199.799796 422.690336 L 199.80105 376.099433 C 199.798191 375.853067 199.889669 375.641027 200.064688 375.461896 C 200.241301 375.287367 200.452791 375.198672 200.700749 375.200414 Z M 200.700749 375.200414 " stroke="#ffae46" stroke-width="1" stroke-opacity="1" stroke-miterlimit="10"/><path stroke-linecap="butt" transform="matrix(0.350393, 0.721606, -0.721606, 0.350393, 526.650093, 319.752521)" fill-opacity="1" fill="#ffae46" fill-rule="nonzero" stroke-linejoin="miter" d="M 383.499698 183.599736 L 386.698997 183.599623 C 386.947292 183.601097 387.159554 183.687926 387.333656 183.864491 C 387.514265 184.038802 387.599515 184.253422 387.598042 184.501717 L 387.598701 231.088657 C 387.601608 231.339079 387.510399 231.549214 387.338214 231.725443 C 387.159522 231.903925 386.949283 231.991303 386.700988 231.989829 L 383.501689 231.989942 C 383.253394 231.988469 383.041132 231.901639 382.860523 231.727328 C 382.686421 231.550763 382.599043 231.340523 382.600517 231.092228 L 382.601985 184.500908 C 382.599078 184.250486 382.685907 184.038224 382.862472 183.864122 C 383.039037 183.690021 383.251403 183.598262 383.499698 183.599736 Z M 383.499698 183.599736 " stroke="#ffae46" stroke-width="1" stroke-opacity="1" stroke-miterlimit="10"/><path stroke-linecap="butt" transform="matrix(0.350393, 0.721606, -0.721606, 0.350393, 492.236808, 558.24094)" fill-opacity="1" fill="#ffae46" fill-rule="nonzero" stroke-linejoin="miter" d="M 124.897544 298.000695 L 128.101223 298.00271 C 128.347265 297.997676 128.56178 298.091012 128.738009 298.263197 C 128.912111 298.439761 128.999488 298.650001 129.002395 298.900423 L 129.000927 345.491744 C 128.999454 345.740039 128.912625 345.952301 128.73606 346.126402 C 128.559495 346.300504 128.349255 346.387882 128.098833 346.390789 L 124.899535 346.390902 C 124.65124 346.389428 124.438978 346.302599 124.264876 346.126034 C 124.090774 345.949469 123.999016 345.737102 124.00049 345.488807 L 123.99983 298.901867 C 124.001304 298.653572 124.088133 298.44131 124.262445 298.260701 C 124.439009 298.086599 124.649249 297.999222 124.897544 298.000695 Z M 124.897544 298.000695 " stroke="#ffae46" stroke-width="1" stroke-opacity="1" stroke-miterlimit="10"/><path stroke-linecap="butt" transform="matrix(-0.262487, 0.758018, -0.758018, -0.262487, 856.746688, 549.256516)" fill-opacity="1" fill="#ffae46" fill-rule="nonzero" stroke-linejoin="miter" d="M 386.098036 294.299783 L 389.298136 294.299596 C 389.550696 294.299745 389.761143 294.386621 389.935672 294.563234 C 390.110201 294.739847 390.198896 294.951337 390.201755 295.197702 L 390.200499 341.788606 C 390.198758 342.036565 390.113475 342.251613 389.936861 342.426143 C 389.760248 342.600672 389.548759 342.689366 389.3008 342.687624 L 386.100701 342.687811 C 385.849734 342.692264 385.637694 342.600786 385.463165 342.424173 C 385.290229 342.252161 385.199941 342.036071 385.201683 341.788112 L 385.198337 295.198801 C 385.200079 294.950843 385.286956 294.740395 385.463569 294.565866 C 385.638588 294.386736 385.850078 294.298041 386.098036 294.299783 Z M 386.098036 294.299783 " stroke="#ffae46" stroke-width="1" stroke-opacity="1" stroke-miterlimit="10"/><path stroke-linecap="butt" transform="matrix(-0.262487, 0.758018, -0.758018, -0.262487, 498.493223, 640.46378)" fill-opacity="1" fill="#ffae46" fill-rule="nonzero" stroke-linejoin="miter" d="M 122.297718 192.299745 L 125.497817 192.299559 C 125.750377 192.299707 125.960824 192.386583 126.135354 192.563197 C 126.309883 192.73981 126.398577 192.951299 126.401437 193.197664 L 126.400181 239.788568 C 126.398439 240.036527 126.313156 240.251576 126.136543 240.426105 C 125.95993 240.600634 125.748441 240.689328 125.500482 240.687587 L 122.300383 240.687773 C 122.054017 240.690633 121.837375 240.600748 121.662846 240.424135 C 121.48991 240.252124 121.401216 240.040634 121.401364 239.788074 L 121.398019 193.198763 C 121.39976 192.950805 121.486637 192.740357 121.66325 192.565828 C 121.83827 192.386698 122.051352 192.302605 122.297718 192.299745 Z M 122.297718 192.299745 " stroke="#ffae46" stroke-width="1" stroke-opacity="1" stroke-miterlimit="10"/><path fill="#ffae46" d="M 407.6875 811.730469 L 410.253906 811.730469 C 410.453125 811.730469 410.625 811.800781 410.765625 811.941406 C 410.90625 812.082031 410.976562 812.25 410.976562 812.449219 L 410.976562 880.828125 C 410.976562 881.027344 410.90625 881.199219 410.765625 881.339844 C 410.625 881.480469 410.453125 881.550781 410.253906 881.550781 L 407.6875 881.550781 C 407.488281 881.550781 407.316406 881.480469 407.175781 881.339844 C 407.035156 881.199219 406.964844 881.027344 406.964844 880.828125 L 406.964844 812.449219 C 406.964844 812.25 407.035156 812.082031 407.175781 811.941406 C 407.316406 811.800781 407.488281 811.730469 407.6875 811.730469 Z M 407.6875 811.730469 " fill-opacity="1" fill-rule="nonzero"/><g clip-path="url(#a0e5e779ab)"><path stroke-linecap="butt" transform="matrix(0.802179, 0, 0, 0.802179, 242.999997, 557.999932)" fill="none" stroke-linejoin="miter" d="M 205.300253 316.301739 L 208.499548 316.301739 C 208.747895 316.301739 208.962155 316.38939 209.137459 316.564694 C 209.312763 316.739998 209.400414 316.949389 209.400414 317.197736 L 209.400414 402.439218 C 209.400414 402.687565 209.312763 402.901825 209.137459 403.077129 C 208.962155 403.252432 208.747895 403.340084 208.499548 403.340084 L 205.300253 403.340084 C 205.051906 403.340084 204.837646 403.252432 204.662342 403.077129 C 204.487038 402.901825 204.399386 402.687565 204.399386 402.439218 L 204.399386 317.197736 C 204.399386 316.949389 204.487038 316.739998 204.662342 316.564694 C 204.837646 316.38939 205.051906 316.301739 205.300253 316.301739 Z M 205.300253 316.301739 " stroke="#ffae46" stroke-width="1" stroke-opacity="1" stroke-miterlimit="10"/></g><path fill="#ffae46" d="M 566.597656 714.746094 L 566.597656 717.3125 C 566.597656 717.511719 566.527344 717.683594 566.386719 717.824219 C 566.246094 717.964844 566.078125 718.035156 565.875 718.035156 L 497.5 718.035156 C 497.300781 718.035156 497.128906 717.964844 496.988281 717.824219 C 496.847656 717.683594 496.777344 717.511719 496.777344 717.3125 L 496.777344 714.746094 C 496.777344 714.546875 496.847656 714.375 496.988281 714.234375 C 497.128906 714.09375 497.300781 714.023438 497.5 714.023438 L 565.875 714.023438 C 566.078125 714.023438 566.246094 714.09375 566.386719 714.234375 C 566.527344 714.375 566.597656 714.546875 566.597656 714.746094 Z M 566.597656 714.746094 " fill-opacity="1" fill-rule="nonzero"/><g clip-path="url(#af566c132a)"><path stroke-linecap="butt" transform="matrix(0, 0.802179, -0.802179, 0, 743.880362, 386.814995)" fill="none" stroke-linejoin="miter" d="M 408.800524 221.001495 L 411.999819 221.001495 C 412.248166 221.001495 412.462426 221.089147 412.63773 221.26445 C 412.813034 221.439754 412.900686 221.649145 412.900686 221.902361 L 412.900686 307.138974 C 412.900686 307.387321 412.813034 307.601581 412.63773 307.776885 C 412.462426 307.952189 412.248166 308.03984 411.999819 308.03984 L 408.800524 308.03984 C 408.552177 308.03984 408.337917 307.952189 408.162613 307.776885 C 407.987309 307.601581 407.899657 307.387321 407.899657 307.138974 L 407.899657 221.902361 C 407.899657 221.649145 407.987309 221.439754 408.162613 221.26445 C 408.337917 221.089147 408.552177 221.001495 408.800524 221.001495 Z M 408.800524 221.001495 " stroke="#ffae46" stroke-width="1" stroke-opacity="1" stroke-miterlimit="10"/></g><path fill="#ffae46" d="M 313.191406 716.75 L 313.191406 719.316406 C 313.191406 719.515625 313.121094 719.6875 312.980469 719.828125 C 312.839844 719.96875 312.667969 720.039062 312.46875 720.039062 L 244.089844 720.039062 C 243.890625 720.039062 243.722656 719.96875 243.582031 719.828125 C 243.441406 719.6875 243.367188 719.515625 243.367188 719.316406 L 243.367188 716.75 C 243.367188 716.550781 243.441406 716.382812 243.582031 716.242188 C 243.722656 716.097656 243.890625 716.027344 244.089844 716.027344 L 312.46875 716.027344 C 312.667969 716.027344 312.839844 716.097656 312.980469 716.242188 C 313.121094 716.382812 313.191406 716.550781 313.191406 716.75 Z M 313.191406 716.75 " fill-opacity="1" fill-rule="nonzero"/><g clip-path="url(#0e18ebe65e)"><path stroke-linecap="butt" transform="matrix(0, 0.802179, -0.802179, 0, 492.477576, 642.14846)" fill="none" stroke-linejoin="miter" d="M 92.998647 223.499023 L 96.197942 223.499023 C 96.446289 223.499023 96.660549 223.586674 96.835853 223.761978 C 97.011157 223.937282 97.098809 224.151542 97.098809 224.399889 L 97.098809 309.641371 C 97.098809 309.889718 97.011157 310.099109 96.835853 310.274413 C 96.660549 310.449716 96.446289 310.542238 96.197942 310.542238 L 92.998647 310.542238 C 92.7503 310.542238 92.540909 310.449716 92.365606 310.274413 C 92.185432 310.099109 92.09778 309.889718 92.09778 309.641371 L 92.09778 224.399889 C 92.09778 224.151542 92.185432 223.937282 92.365606 223.761978 C 92.540909 223.586674 92.7503 223.499023 92.998647 223.499023 Z M 92.998647 223.499023 " stroke="#ffae46" stroke-width="1" stroke-opacity="1" stroke-miterlimit="10"/></g><path stroke-linecap="butt" transform="matrix(-0.567226, 0.567226, -0.567226, -0.567226, 920.681122, 814.376285)" fill-opacity="1" fill="#ffae46" fill-rule="nonzero" stroke-linejoin="miter" d="M 365.901599 335.499593 L 369.096974 335.499593 C 369.348335 335.503036 369.561819 335.585675 369.737427 335.761283 C 369.913035 335.936891 369.999117 336.153819 369.999117 336.401736 L 370.00256 421.640439 C 370.00256 421.888356 369.913035 422.10184 369.737427 422.277448 C 369.561819 422.453056 369.348335 422.542582 369.100418 422.542582 L 365.901599 422.539138 C 365.653682 422.539138 365.440198 422.449613 365.26459 422.274005 C 365.088982 422.098397 365.0029 421.888356 365.0029 421.640439 L 364.999456 336.401736 C 364.999456 336.153819 365.088982 335.940335 365.26459 335.764727 C 365.440198 335.589119 365.653682 335.499593 365.901599 335.499593 Z M 365.901599 335.499593 " stroke="#ffae46" stroke-width="1" stroke-opacity="1" stroke-miterlimit="10"/><path stroke-linecap="butt" transform="matrix(-0.567226, 0.567226, -0.567226, -0.567226, 486.782544, 638.619117)" fill-opacity="1" fill="#ffae46" fill-rule="nonzero" stroke-linejoin="miter" d="M 140.79911 113.999923 L 144.001372 113.999923 C 144.249289 113.999923 144.45933 114.086005 144.634938 114.261613 C 144.813989 114.440664 144.900071 114.650705 144.900071 114.898622 L 144.900071 200.140769 C 144.900071 200.388686 144.810546 200.60217 144.634938 200.777778 C 144.45933 200.953386 144.249289 201.039468 144.001372 201.039468 L 140.79911 201.039468 C 140.551193 201.039468 140.341152 200.953386 140.165544 200.777778 C 139.986493 200.598727 139.900411 200.388686 139.900411 200.140769 L 139.900411 114.898622 C 139.900411 114.650705 139.986493 114.440664 140.162101 114.265056 C 140.337709 114.089448 140.551193 113.999923 140.79911 113.999923 Z M 140.79911 113.999923 " stroke="#ffae46" stroke-width="1" stroke-opacity="1" stroke-miterlimit="10"/><path stroke-linecap="butt" transform="matrix(-0.567226, -0.567226, 0.567226, -0.567226, 181.954339, 1102.196596)" fill-opacity="1" fill="#ffae46" fill-rule="nonzero" stroke-linejoin="miter" d="M 140.09944 334.801712 L 143.301702 334.801712 C 143.549619 334.801712 143.75966 334.887794 143.935268 335.063402 C 144.110876 335.23901 144.200401 335.452494 144.200401 335.700411 L 144.200401 420.942558 C 144.200401 421.190475 144.114319 421.400515 143.938711 421.576123 C 143.763103 421.751731 143.549619 421.841257 143.301702 421.841257 L 140.09944 421.841257 C 139.851523 421.841257 139.638039 421.751731 139.462431 421.576123 C 139.286823 421.400515 139.200741 421.190475 139.200741 420.942558 L 139.200741 335.700411 C 139.200741 335.452494 139.290266 335.23901 139.465874 335.063402 C 139.641482 334.887794 139.851523 334.801712 140.09944 334.801712 Z M 140.09944 334.801712 " stroke="#ffae46" stroke-width="1" stroke-opacity="1" stroke-miterlimit="10"/><path stroke-linecap="butt" transform="matrix(-0.567226, -0.567226, 0.567226, -0.567226, 612.964429, 919.701572)" fill-opacity="1" fill="#ffae46" fill-rule="nonzero" stroke-linejoin="miter" d="M 361.698916 109.698849 L 364.901178 109.698849 C 365.149095 109.698849 365.362579 109.788375 365.538187 109.963983 C 365.713795 110.139591 365.799877 110.349632 365.799877 110.597549 L 365.799877 195.839695 C 365.799877 196.087613 365.710352 196.301097 365.534744 196.476705 C 365.359136 196.652312 365.149095 196.738395 364.901178 196.738395 L 361.698916 196.738395 C 361.450999 196.738395 361.240958 196.652312 361.06535 196.476705 C 360.889742 196.301097 360.800217 196.087613 360.800217 195.839695 L 360.800217 110.597549 C 360.800217 110.349632 360.886299 110.139591 361.061907 109.963983 C 361.237515 109.788375 361.450999 109.698849 361.698916 109.698849 Z M 361.698916 109.698849 " stroke="#ffae46" stroke-width="1" stroke-opacity="1" stroke-miterlimit="10"/></svg>