<svg xmlns="http://www.w3.org/2000/svg" xmlns:xlink="http://www.w3.org/1999/xlink" width="1024" zoomAndPan="magnify" viewBox="0 0 768 767.999994" height="1024" preserveAspectRatio="xMidYMid meet" version="1.0"><defs><clipPath id="37cf943745"><path d="M 39 47.992188 L 729 47.992188 L 729 459 L 39 459 Z M 39 47.992188 " clip-rule="nonzero"/></clipPath><clipPath id="20243dc75f"><path d="M 292 551 L 389 551 L 389 719.992188 L 292 719.992188 Z M 292 551 " clip-rule="nonzero"/></clipPath></defs><g clip-path="url(#37cf943745)"><path fill="#26477a" d="M 639.378906 279.242188 L 636.597656 279.242188 C 639.925781 268.59375 641.5625 257.691406 641.503906 246.535156 C 641.503906 243.910156 641.414062 241.285156 641.230469 238.667969 C 641.042969 236.050781 640.769531 233.441406 640.398438 230.839844 C 640.03125 228.242188 639.570312 225.660156 639.015625 223.089844 C 638.464844 220.523438 637.820312 217.980469 637.089844 215.460938 C 636.359375 212.9375 635.535156 210.445312 634.628906 207.984375 C 633.71875 205.519531 632.722656 203.09375 631.644531 200.699219 C 630.5625 198.308594 629.398438 195.957031 628.152344 193.644531 C 626.90625 191.335938 625.578125 189.070312 624.167969 186.855469 C 622.761719 184.640625 621.277344 182.476562 619.714844 180.363281 C 618.15625 178.253906 616.523438 176.199219 614.816406 174.207031 C 613.109375 172.210938 611.335938 170.277344 609.492188 168.40625 C 607.648438 166.539062 605.742188 164.734375 603.769531 163 C 601.800781 161.265625 599.769531 159.601562 597.683594 158.011719 C 595.59375 156.421875 593.449219 154.90625 591.253906 153.46875 C 589.058594 152.027344 586.816406 150.667969 584.523438 149.386719 C 582.230469 148.109375 579.898438 146.910156 577.519531 145.796875 C 575.144531 144.679688 572.730469 143.652344 570.277344 142.707031 C 567.828125 141.761719 565.347656 140.90625 562.839844 140.140625 C 560.328125 139.371094 557.792969 138.691406 555.234375 138.101562 C 552.675781 137.515625 550.101562 137.015625 547.507812 136.609375 C 544.914062 136.203125 542.308594 135.890625 539.691406 135.667969 C 537.074219 135.445312 534.453125 135.316406 531.828125 135.28125 C 529.203125 135.242188 526.582031 135.300781 523.960938 135.449219 C 521.339844 135.601562 518.726562 135.839844 516.121094 136.175781 C 513.519531 136.511719 510.929688 136.9375 508.355469 137.453125 C 505.78125 137.972656 503.230469 138.582031 500.699219 139.28125 C 498.167969 139.976562 495.664062 140.765625 493.1875 141.640625 C 490.714844 142.515625 488.273438 143.480469 485.867188 144.527344 C 483.460938 145.578125 481.09375 146.710938 478.765625 147.925781 C 476.4375 149.144531 474.160156 150.441406 471.925781 151.816406 C 469.6875 153.195312 467.503906 154.652344 465.375 156.183594 C 463.242188 157.714844 461.167969 159.320312 459.148438 161 C 458.683594 158.851562 458.167969 156.71875 457.605469 154.59375 C 457.042969 152.46875 456.429688 150.355469 455.769531 148.261719 C 455.109375 146.164062 454.398438 144.082031 453.644531 142.019531 C 452.886719 139.957031 452.085938 137.910156 451.234375 135.882812 C 450.386719 133.855469 449.492188 131.847656 448.550781 129.863281 C 447.609375 127.875 446.621094 125.914062 445.589844 123.972656 C 444.558594 122.03125 443.484375 120.113281 442.363281 118.222656 C 441.246094 116.328125 440.082031 114.464844 438.878906 112.625 C 437.671875 110.789062 436.425781 108.976562 435.140625 107.195312 C 433.851562 105.414062 432.523438 103.664062 431.15625 101.941406 C 429.789062 100.222656 428.378906 98.535156 426.933594 96.878906 C 425.488281 95.222656 424.007812 93.597656 422.488281 92.011719 C 420.96875 90.421875 419.414062 88.871094 417.824219 87.351562 C 416.230469 85.835938 414.605469 84.355469 412.949219 82.914062 C 411.289062 81.472656 409.597656 80.066406 407.875 78.703125 C 406.152344 77.335938 404.398438 76.011719 402.617188 74.726562 C 400.832031 73.441406 399.019531 72.199219 397.179688 71 C 395.339844 69.796875 393.472656 68.636719 391.578125 67.519531 C 389.683594 66.40625 387.765625 65.332031 385.824219 64.304688 C 383.882812 63.277344 381.914062 62.292969 379.929688 61.355469 C 377.941406 60.417969 375.933594 59.523438 373.902344 58.679688 C 371.875 57.832031 369.828125 57.03125 367.761719 56.28125 C 365.695312 55.527344 363.613281 54.824219 361.515625 54.167969 C 359.417969 53.507812 357.308594 52.902344 355.183594 52.339844 C 353.058594 51.78125 350.917969 51.269531 348.769531 50.804688 C 346.621094 50.34375 344.464844 49.929688 342.296875 49.566406 C 340.128906 49.203125 337.953125 48.890625 335.769531 48.625 C 333.585938 48.363281 331.402344 48.148438 329.207031 47.984375 C 327.015625 47.820312 324.820312 47.707031 322.625 47.644531 C 320.425781 47.582031 318.230469 47.570312 316.03125 47.609375 C 313.835938 47.644531 311.636719 47.734375 309.445312 47.871094 C 307.25 48.011719 305.0625 48.199219 302.875 48.4375 C 300.691406 48.675781 298.511719 48.964844 296.339844 49.300781 C 294.167969 49.640625 292.003906 50.027344 289.851562 50.464844 C 287.695312 50.902344 285.554688 51.390625 283.421875 51.925781 C 281.289062 52.460938 279.171875 53.046875 277.066406 53.679688 C 274.960938 54.3125 272.871094 54.992188 270.796875 55.722656 C 268.722656 56.449219 266.667969 57.226562 264.628906 58.046875 C 262.589844 58.871094 260.574219 59.738281 258.574219 60.65625 C 256.574219 61.570312 254.597656 62.53125 252.644531 63.535156 C 250.691406 64.542969 248.757812 65.59375 246.851562 66.6875 C 244.945312 67.78125 243.066406 68.917969 241.210938 70.097656 C 239.359375 71.277344 237.53125 72.5 235.734375 73.765625 C 233.933594 75.03125 232.167969 76.335938 230.425781 77.679688 C 228.6875 79.023438 226.980469 80.410156 225.308594 81.832031 C 223.632812 83.253906 221.992188 84.714844 220.382812 86.214844 C 218.773438 87.714844 217.199219 89.246094 215.664062 90.820312 C 214.125 92.390625 212.625 93.996094 211.160156 95.632812 C 209.695312 97.273438 208.269531 98.945312 206.882812 100.648438 C 205.496094 102.355469 204.144531 104.089844 202.839844 105.855469 C 201.53125 107.625 200.261719 109.417969 199.039062 111.242188 C 197.8125 113.066406 196.628906 114.917969 195.488281 116.796875 C 194.347656 118.675781 193.25 120.582031 192.195312 122.511719 C 191.140625 124.4375 190.132812 126.390625 189.167969 128.367188 C 188.203125 130.34375 187.285156 132.339844 186.410156 134.355469 C 185.539062 136.371094 184.710938 138.410156 183.933594 140.464844 C 183.152344 142.519531 182.421875 144.589844 181.738281 146.679688 C 181.050781 148.769531 180.414062 150.871094 179.828125 152.992188 C 179.238281 155.109375 178.699219 157.238281 178.207031 159.382812 C 177.71875 161.523438 177.277344 163.675781 176.886719 165.839844 C 176.492188 168.003906 176.152344 170.171875 175.859375 172.351562 C 175.566406 174.53125 175.324219 176.714844 175.128906 178.90625 C 174.9375 181.09375 174.796875 183.285156 174.703125 185.484375 C 174.613281 187.679688 174.570312 189.875 174.578125 192.074219 C 174.589844 201.324219 175.515625 210.484375 177.359375 219.550781 C 171.394531 218.699219 165.394531 218.265625 159.371094 218.242188 C 156.070312 218.230469 152.773438 218.355469 149.484375 218.617188 C 146.195312 218.882812 142.921875 219.277344 139.664062 219.808594 C 136.410156 220.34375 133.179688 221.007812 129.976562 221.804688 C 126.777344 222.605469 123.613281 223.535156 120.488281 224.59375 C 117.363281 225.65625 114.285156 226.839844 111.257812 228.15625 C 108.230469 229.46875 105.265625 230.90625 102.355469 232.464844 C 99.449219 234.023438 96.609375 235.699219 93.839844 237.496094 C 91.070312 239.289062 88.378906 241.191406 85.765625 243.207031 C 83.152344 245.226562 80.628906 247.34375 78.191406 249.570312 C 75.753906 251.792969 73.410156 254.113281 71.164062 256.53125 C 68.917969 258.949219 66.777344 261.457031 64.738281 264.050781 C 62.699219 266.644531 60.769531 269.320312 58.953125 272.074219 C 57.132812 274.828125 55.433594 277.652344 53.847656 280.546875 C 52.261719 283.441406 50.800781 286.394531 49.457031 289.410156 C 48.117188 292.425781 46.902344 295.492188 45.816406 298.605469 C 44.730469 301.722656 43.769531 304.878906 42.945312 308.070312 C 42.117188 311.265625 41.421875 314.488281 40.863281 317.742188 C 40.300781 320.992188 39.875 324.261719 39.585938 327.550781 C 39.292969 330.835938 39.136719 334.128906 39.121094 337.429688 C 39.101562 340.730469 39.21875 344.023438 39.472656 347.316406 C 39.722656 350.605469 40.113281 353.878906 40.636719 357.136719 C 41.160156 360.394531 41.816406 363.625 42.605469 366.832031 C 43.398438 370.035156 44.316406 373.199219 45.371094 376.328125 C 46.421875 379.457031 47.601562 382.535156 48.90625 385.566406 C 50.214844 388.59375 51.640625 391.566406 53.191406 394.480469 C 54.746094 397.390625 56.414062 400.234375 58.199219 403.011719 C 59.984375 405.785156 61.882812 408.480469 63.894531 411.097656 C 65.902344 413.714844 68.015625 416.246094 70.234375 418.691406 C 72.453125 421.132812 74.765625 423.480469 77.179688 425.734375 C 79.589844 427.984375 82.089844 430.136719 84.679688 432.179688 C 87.269531 434.226562 89.9375 436.164062 92.6875 437.988281 C 95.4375 439.8125 98.257812 441.523438 101.148438 443.113281 C 104.792969 445.554688 108.597656 447.714844 112.5625 449.59375 C 116.527344 451.472656 120.605469 453.046875 124.804688 454.324219 C 129.003906 455.597656 133.273438 456.554688 137.609375 457.199219 C 141.949219 457.84375 146.3125 458.164062 150.703125 458.160156 L 639.378906 458.160156 C 640.839844 458.15625 642.304688 458.117188 643.765625 458.042969 C 645.226562 457.96875 646.683594 457.859375 648.140625 457.714844 C 649.597656 457.570312 651.046875 457.386719 652.496094 457.171875 C 653.941406 456.953125 655.382812 456.703125 656.820312 456.414062 C 658.253906 456.125 659.679688 455.804688 661.101562 455.445312 C 662.519531 455.089844 663.929688 454.699219 665.328125 454.269531 C 666.726562 453.84375 668.117188 453.382812 669.492188 452.890625 C 670.871094 452.394531 672.234375 451.867188 673.585938 451.308594 C 674.9375 450.746094 676.277344 450.152344 677.597656 449.523438 C 678.921875 448.898438 680.226562 448.238281 681.515625 447.546875 C 682.804688 446.859375 684.078125 446.136719 685.332031 445.382812 C 686.589844 444.628906 687.824219 443.847656 689.039062 443.035156 C 690.257812 442.21875 691.453125 441.378906 692.628906 440.503906 C 693.800781 439.632812 694.957031 438.734375 696.085938 437.804688 C 697.21875 436.875 698.324219 435.917969 699.410156 434.9375 C 700.492188 433.953125 701.554688 432.945312 702.585938 431.910156 C 703.621094 430.875 704.632812 429.816406 705.613281 428.730469 C 706.597656 427.648438 707.550781 426.539062 708.480469 425.410156 C 709.410156 424.277344 710.308594 423.125 711.183594 421.949219 C 712.054688 420.777344 712.898438 419.578125 713.710938 418.363281 C 714.523438 417.148438 715.308594 415.910156 716.058594 414.65625 C 716.8125 413.402344 717.535156 412.128906 718.226562 410.839844 C 718.917969 409.550781 719.574219 408.242188 720.203125 406.921875 C 720.828125 405.597656 721.421875 404.261719 721.984375 402.910156 C 722.546875 401.558594 723.074219 400.195312 723.566406 398.816406 C 724.0625 397.441406 724.523438 396.050781 724.949219 394.652344 C 725.375 393.253906 725.765625 391.84375 726.125 390.421875 C 726.480469 389.003906 726.804688 387.578125 727.089844 386.144531 C 727.378906 384.707031 727.632812 383.265625 727.847656 381.820312 C 728.066406 380.371094 728.246094 378.921875 728.390625 377.464844 C 728.539062 376.007812 728.648438 374.550781 728.722656 373.089844 C 728.796875 371.628906 728.835938 370.164062 728.835938 368.703125 C 728.832031 367.238281 728.792969 365.777344 728.714844 364.316406 C 728.636719 362.855469 728.523438 361.398438 728.378906 359.941406 C 728.230469 358.488281 728.046875 357.039062 727.828125 355.589844 C 727.609375 354.144531 727.355469 352.707031 727.066406 351.273438 C 726.773438 349.839844 726.453125 348.414062 726.09375 346.996094 C 725.734375 345.578125 725.339844 344.167969 724.914062 342.769531 C 724.484375 341.371094 724.023438 339.984375 723.527344 338.609375 C 723.03125 337.230469 722.503906 335.867188 721.941406 334.519531 C 721.378906 333.167969 720.785156 331.832031 720.15625 330.511719 C 719.527344 329.191406 718.871094 327.882812 718.179688 326.59375 C 717.488281 325.308594 716.765625 324.035156 716.011719 322.78125 C 715.257812 321.527344 714.472656 320.292969 713.660156 319.078125 C 712.847656 317.863281 712.003906 316.667969 711.132812 315.492188 C 710.261719 314.320312 709.359375 313.167969 708.429688 312.039062 C 707.503906 310.90625 706.546875 309.800781 705.566406 308.71875 C 704.582031 307.632812 703.574219 306.574219 702.539062 305.539062 C 701.503906 304.507812 700.445312 303.496094 699.363281 302.515625 C 698.28125 301.53125 697.171875 300.578125 696.042969 299.648438 C 694.914062 298.71875 693.761719 297.820312 692.585938 296.949219 C 691.410156 296.078125 690.21875 295.234375 689 294.417969 C 687.785156 293.605469 686.550781 292.824219 685.296875 292.070312 C 684.042969 291.316406 682.773438 290.59375 681.484375 289.902344 C 680.195312 289.210938 678.890625 288.550781 677.570312 287.925781 C 676.246094 287.296875 674.910156 286.703125 673.5625 286.140625 C 672.210938 285.578125 670.847656 285.050781 669.472656 284.554688 C 668.097656 284.058594 666.707031 283.597656 665.308594 283.167969 C 663.910156 282.742188 662.503906 282.347656 661.085938 281.988281 C 659.667969 281.628906 658.242188 281.304688 656.808594 281.015625 C 655.375 280.726562 653.933594 280.472656 652.488281 280.253906 C 651.042969 280.035156 649.589844 279.851562 648.136719 279.703125 C 646.679688 279.554688 645.222656 279.441406 643.761719 279.367188 C 642.300781 279.289062 640.839844 279.25 639.378906 279.242188 Z M 639.378906 279.242188 " fill-opacity="1" fill-rule="nonzero"/></g><path fill="#ffb544" d="M 248.175781 349.078125 L 330.4375 349.078125 L 248.175781 458.8125 L 316.699219 458.8125 L 165.910156 637.078125 L 220.699219 499.863281 L 165.910156 499.863281 Z M 248.175781 349.078125 " fill-opacity="1" fill-rule="nonzero"/><path fill="#ffb544" d="M 528.003906 458.160156 L 597.835938 458.160156 L 528.003906 551.214844 L 586.226562 551.214844 L 458.167969 702.492188 L 504.777344 586.050781 L 458.167969 586.050781 Z M 528.003906 458.160156 " fill-opacity="1" fill-rule="nonzero"/><g clip-path="url(#20243dc75f)"><path fill="#ffb544" d="M 340.414062 551.871094 L 388.332031 551.871094 L 340.414062 615.980469 L 380.320312 615.980469 L 292.332031 719.992188 L 324.386719 639.855469 L 292.332031 639.855469 Z M 340.414062 551.871094 " fill-opacity="1" fill-rule="nonzero"/></g></svg>