<svg xmlns="http://www.w3.org/2000/svg" xmlns:xlink="http://www.w3.org/1999/xlink" width="1080" zoomAndPan="magnify" viewBox="0 0 810 1439.999935" height="1920" preserveAspectRatio="xMidYMid meet" version="1.0"><defs><clipPath id="26747a2e9d"><path d="M 272 864 L 305 864 L 305 911.421875 L 272 911.421875 Z M 272 864 " clip-rule="nonzero"/></clipPath><clipPath id="f75c5611e9"><path d="M 501 862 L 534 862 L 534 911.421875 L 501 911.421875 Z M 501 862 " clip-rule="nonzero"/></clipPath><clipPath id="e37b92e288"><path d="M 429 528.921875 L 459 528.921875 L 459 592 L 429 592 Z M 429 528.921875 " clip-rule="nonzero"/></clipPath><clipPath id="d687f46451"><path d="M 494 626 L 567 626 L 567 656 L 494 656 Z M 494 626 " clip-rule="nonzero"/></clipPath></defs><path fill="#3571aa" d="M 338.15625 840.5 L 336.402344 841.792969 L 336.3125 841.792969 C 335.539062 842.5625 334.894531 843.421875 334.375 844.378906 C 334.199219 844.6875 334.046875 845.003906 333.90625 845.332031 C 333.769531 845.65625 333.648438 845.992188 333.546875 846.328125 C 333.445312 846.667969 333.363281 847.011719 333.300781 847.359375 C 333.238281 847.710938 333.195312 848.058594 333.171875 848.414062 C 333.144531 848.765625 333.140625 849.121094 333.15625 849.472656 C 333.171875 849.828125 333.203125 850.179688 333.257812 850.53125 C 333.3125 850.878906 333.382812 851.226562 333.476562 851.566406 C 333.566406 851.910156 333.679688 852.246094 333.808594 852.574219 C 333.933594 852.90625 334.082031 853.226562 334.246094 853.539062 C 334.410156 853.855469 334.59375 854.15625 334.789062 854.449219 C 334.988281 854.746094 335.203125 855.027344 335.429688 855.296875 C 335.660156 855.566406 335.902344 855.820312 336.160156 856.066406 C 336.417969 856.308594 336.6875 856.535156 336.96875 856.75 C 337.253906 856.960938 337.546875 857.160156 337.851562 857.339844 C 338.15625 857.519531 338.46875 857.683594 338.789062 857.828125 C 339.113281 857.972656 339.441406 858.101562 339.777344 858.210938 C 340.117188 858.320312 340.457031 858.410156 340.804688 858.484375 C 341.148438 858.554688 341.5 858.605469 341.851562 858.640625 C 342.203125 858.671875 342.554688 858.6875 342.910156 858.679688 C 343.265625 858.671875 343.617188 858.648438 343.96875 858.601562 C 344.316406 858.558594 344.664062 858.492188 345.007812 858.410156 C 345.351562 858.324219 345.691406 858.222656 346.023438 858.101562 C 346.355469 857.980469 346.679688 857.84375 346.996094 857.683594 C 347.316406 857.527344 347.621094 857.355469 347.921875 857.164062 C 348.21875 856.972656 348.503906 856.765625 348.78125 856.542969 C 349.054688 856.320312 349.316406 856.082031 349.566406 855.832031 C 349.8125 855.578125 350.046875 855.3125 350.265625 855.035156 C 350.488281 854.757812 350.691406 854.46875 350.878906 854.167969 C 351.066406 853.867188 351.234375 853.558594 351.390625 853.238281 C 351.542969 852.921875 351.679688 852.59375 351.796875 852.261719 C 351.914062 851.925781 352.011719 851.585938 352.089844 851.242188 C 352.171875 850.898438 352.230469 850.546875 352.273438 850.195312 L 352.273438 847.886719 L 352.550781 829.972656 Z M 338.15625 840.5 " fill-opacity="1" fill-rule="nonzero"/><path fill="#3571aa" d="M 403.476562 892.675781 L 401.632812 894.0625 C 400.800781 894.785156 400.15625 895.644531 399.695312 896.648438 C 399.40625 897.203125 399.175781 897.78125 399.003906 898.378906 C 398.828125 898.980469 398.714844 899.59375 398.660156 900.214844 C 398.605469 900.835938 398.613281 901.460938 398.683594 902.082031 C 398.75 902.703125 398.878906 903.3125 399.070312 903.90625 C 399.257812 904.503906 399.5 905.074219 399.804688 905.621094 C 400.105469 906.171875 400.457031 906.683594 400.859375 907.160156 C 401.257812 907.640625 401.703125 908.074219 402.191406 908.464844 C 402.679688 908.855469 403.199219 909.195312 403.753906 909.484375 C 404.308594 909.773438 404.886719 910.003906 405.484375 910.175781 C 406.085938 910.351562 406.695312 910.464844 407.320312 910.519531 C 407.941406 910.574219 408.5625 910.566406 409.183594 910.496094 C 409.804688 910.425781 410.410156 910.300781 411.007812 910.109375 C 411.601562 909.921875 412.175781 909.675781 412.722656 909.375 C 413.269531 909.074219 413.78125 908.722656 414.257812 908.320312 C 414.738281 907.917969 415.171875 907.472656 415.5625 906.984375 C 415.953125 906.496094 416.292969 905.976562 416.578125 905.421875 C 417.097656 904.464844 417.4375 903.449219 417.59375 902.371094 L 417.59375 900.0625 L 417.960938 882.242188 Z M 403.476562 892.675781 " fill-opacity="1" fill-rule="nonzero"/><path fill="#3571aa" d="M 498.875 840.5 L 497.125 841.792969 L 497.03125 841.792969 C 496.257812 842.5625 495.613281 843.421875 495.09375 844.378906 C 494.75 844.941406 494.46875 845.53125 494.25 846.148438 C 494.027344 846.769531 493.871094 847.40625 493.78125 848.054688 C 493.691406 848.707031 493.667969 849.359375 493.710938 850.015625 C 493.753906 850.671875 493.867188 851.316406 494.042969 851.953125 C 494.21875 852.585938 494.457031 853.195312 494.757812 853.777344 C 495.058594 854.363281 495.414062 854.910156 495.828125 855.421875 C 496.242188 855.933594 496.703125 856.398438 497.210938 856.8125 C 497.71875 857.230469 498.265625 857.589844 498.847656 857.894531 C 499.429688 858.199219 500.039062 858.441406 500.667969 858.617188 C 501.300781 858.796875 501.945312 858.910156 502.601562 858.957031 C 503.253906 859.003906 503.910156 858.984375 504.558594 858.898438 C 505.210938 858.8125 505.847656 858.65625 506.464844 858.441406 C 507.085938 858.222656 507.675781 857.945312 508.238281 857.605469 C 508.800781 857.265625 509.324219 856.871094 509.808594 856.425781 C 510.289062 855.976562 510.71875 855.484375 511.101562 854.949219 C 511.484375 854.414062 511.804688 853.847656 512.070312 853.246094 C 512.535156 852.269531 512.871094 851.253906 513.085938 850.195312 L 513.085938 847.886719 L 513.363281 829.972656 Z M 498.875 840.5 " fill-opacity="1" fill-rule="nonzero"/><path fill="#6b99d2" d="M 339.539062 894.523438 L 338.25 895.445312 C 337.683594 895.984375 337.222656 896.601562 336.863281 897.292969 C 336.65625 897.6875 336.488281 898.097656 336.363281 898.523438 C 336.234375 898.953125 336.152344 899.386719 336.109375 899.832031 C 336.070312 900.273438 336.074219 900.71875 336.121094 901.160156 C 336.167969 901.601562 336.257812 902.035156 336.390625 902.460938 C 336.523438 902.886719 336.695312 903.292969 336.910156 903.683594 C 337.125 904.074219 337.375 904.441406 337.660156 904.78125 C 337.945312 905.125 338.261719 905.433594 338.609375 905.710938 C 338.957031 905.988281 339.328125 906.230469 339.726562 906.4375 C 339.960938 906.570312 340.207031 906.691406 340.457031 906.792969 C 340.710938 906.898438 340.96875 906.988281 341.230469 907.058594 C 341.492188 907.132812 341.757812 907.191406 342.027344 907.230469 C 342.296875 907.269531 342.566406 907.292969 342.839844 907.300781 C 343.113281 907.304688 343.386719 907.296875 343.65625 907.269531 C 343.925781 907.242188 344.195312 907.199219 344.460938 907.140625 C 344.726562 907.078125 344.988281 907.003906 345.246094 906.910156 C 345.5 906.820312 345.75 906.710938 345.996094 906.589844 C 346.238281 906.464844 346.472656 906.328125 346.699219 906.175781 C 346.925781 906.023438 347.140625 905.859375 347.347656 905.679688 C 347.554688 905.503906 347.75 905.3125 347.929688 905.109375 C 348.113281 904.90625 348.285156 904.695312 348.441406 904.472656 C 348.597656 904.246094 348.738281 904.015625 348.867188 903.773438 C 348.996094 903.535156 349.105469 903.285156 349.203125 903.03125 C 349.300781 902.777344 349.382812 902.515625 349.449219 902.253906 C 349.515625 901.988281 349.5625 901.71875 349.597656 901.449219 L 349.597656 899.789062 L 349.78125 887.042969 Z M 339.539062 894.523438 " fill-opacity="1" fill-rule="nonzero"/><path fill="#6b99d2" d="M 282.0625 832.003906 L 280.769531 833.019531 C 280.179688 833.542969 279.71875 834.15625 279.386719 834.867188 C 279.175781 835.261719 279.011719 835.671875 278.882812 836.097656 C 278.757812 836.523438 278.671875 836.960938 278.632812 837.402344 C 278.589844 837.847656 278.59375 838.289062 278.640625 838.734375 C 278.6875 839.175781 278.777344 839.609375 278.910156 840.035156 C 279.042969 840.460938 279.21875 840.867188 279.429688 841.257812 C 279.644531 841.648438 279.894531 842.015625 280.179688 842.355469 C 280.46875 842.699219 280.785156 843.007812 281.132812 843.285156 C 281.480469 843.5625 281.851562 843.804688 282.246094 844.007812 C 282.640625 844.21875 283.054688 844.386719 283.484375 844.515625 C 283.914062 844.644531 284.355469 844.726562 284.800781 844.769531 C 285.246094 844.8125 285.695312 844.808594 286.140625 844.761719 C 286.585938 844.714844 287.023438 844.625 287.453125 844.492188 C 287.878906 844.359375 288.292969 844.1875 288.683594 843.972656 C 289.078125 843.757812 289.449219 843.507812 289.792969 843.21875 C 290.140625 842.933594 290.453125 842.613281 290.734375 842.265625 C 291.015625 841.917969 291.261719 841.542969 291.472656 841.148438 C 291.816406 840.445312 292.03125 839.707031 292.117188 838.929688 L 292.117188 837.269531 L 292.394531 824.617188 Z M 282.0625 832.003906 " fill-opacity="1" fill-rule="nonzero"/><path fill="#6b99d2" d="M 464.738281 893.785156 L 463.449219 894.707031 C 462.882812 895.246094 462.421875 895.859375 462.0625 896.554688 C 461.855469 896.949219 461.6875 897.359375 461.5625 897.785156 C 461.433594 898.210938 461.351562 898.648438 461.308594 899.089844 C 461.269531 899.535156 461.273438 899.976562 461.320312 900.421875 C 461.367188 900.863281 461.457031 901.296875 461.589844 901.722656 C 461.722656 902.148438 461.894531 902.554688 462.109375 902.945312 C 462.324219 903.335938 462.574219 903.703125 462.859375 904.042969 C 463.144531 904.386719 463.460938 904.695312 463.808594 904.972656 C 464.15625 905.25 464.527344 905.492188 464.925781 905.699219 C 465.320312 905.90625 465.734375 906.074219 466.164062 906.203125 C 466.59375 906.332031 467.03125 906.414062 467.480469 906.457031 C 467.925781 906.5 468.371094 906.496094 468.816406 906.449219 C 469.265625 906.402344 469.703125 906.3125 470.128906 906.179688 C 470.558594 906.046875 470.96875 905.875 471.363281 905.660156 C 471.757812 905.445312 472.128906 905.195312 472.472656 904.90625 C 472.816406 904.621094 473.132812 904.300781 473.414062 903.953125 C 473.695312 903.605469 473.941406 903.230469 474.148438 902.835938 C 474.4375 902.148438 474.652344 901.441406 474.796875 900.710938 L 474.796875 899.046875 L 475.074219 886.304688 Z M 464.738281 893.785156 " fill-opacity="1" fill-rule="nonzero"/><path fill="#6b99d2" d="M 442.964844 835.699219 L 441.675781 836.714844 C 441.085938 837.234375 440.625 837.851562 440.289062 838.5625 C 440.085938 838.957031 439.917969 839.367188 439.792969 839.792969 C 439.667969 840.21875 439.585938 840.65625 439.546875 841.097656 C 439.507812 841.539062 439.511719 841.984375 439.558594 842.425781 C 439.605469 842.867188 439.695312 843.300781 439.828125 843.726562 C 439.960938 844.148438 440.132812 844.558594 440.347656 844.949219 C 440.558594 845.339844 440.808594 845.703125 441.09375 846.046875 C 441.378906 846.386719 441.695312 846.695312 442.039062 846.976562 C 442.386719 847.253906 442.757812 847.496094 443.148438 847.703125 C 443.542969 847.910156 443.953125 848.074219 444.378906 848.199219 C 444.808594 848.324219 445.242188 848.410156 445.683594 848.449219 C 446.125 848.488281 446.570312 848.484375 447.011719 848.4375 C 447.453125 848.390625 447.886719 848.296875 448.308594 848.164062 C 448.734375 848.03125 449.140625 847.859375 449.53125 847.648438 C 449.921875 847.433594 450.285156 847.183594 450.628906 846.898438 C 450.96875 846.613281 451.277344 846.296875 451.558594 845.953125 C 451.835938 845.605469 452.078125 845.234375 452.285156 844.839844 C 452.65625 844.144531 452.902344 843.40625 453.023438 842.625 L 453.023438 840.960938 L 453.300781 828.3125 Z M 442.964844 835.699219 " fill-opacity="1" fill-rule="nonzero"/><path fill="#b4e3fb" d="M 425.046875 809.75 L 428.960938 812.011719 C 429.121094 812.101562 429.253906 812.222656 429.367188 812.367188 C 429.480469 812.511719 429.558594 812.675781 429.605469 812.851562 C 429.652344 813.03125 429.664062 813.210938 429.640625 813.390625 C 429.617188 813.574219 429.558594 813.746094 429.46875 813.902344 L 404.289062 857.554688 C 404.199219 857.710938 404.078125 857.847656 403.933594 857.960938 C 403.789062 858.070312 403.625 858.152344 403.449219 858.199219 C 403.273438 858.246094 403.09375 858.257812 402.910156 858.234375 C 402.726562 858.210938 402.558594 858.152344 402.398438 858.0625 L 398.484375 855.796875 C 398.324219 855.707031 398.191406 855.585938 398.078125 855.441406 C 397.964844 855.296875 397.886719 855.132812 397.839844 854.957031 C 397.792969 854.78125 397.78125 854.601562 397.804688 854.417969 C 397.828125 854.234375 397.886719 854.066406 397.976562 853.90625 L 423.15625 810.257812 C 423.246094 810.097656 423.367188 809.960938 423.511719 809.851562 C 423.65625 809.738281 423.820312 809.65625 423.996094 809.609375 C 424.171875 809.5625 424.351562 809.550781 424.535156 809.574219 C 424.714844 809.597656 424.886719 809.65625 425.046875 809.75 Z M 425.046875 809.75 " fill-opacity="1" fill-rule="nonzero"/><g clip-path="url(#26747a2e9d)"><path fill="#b4e3fb" d="M 300.003906 864.425781 L 303.933594 866.6875 C 304.09375 866.78125 304.230469 866.898438 304.34375 867.046875 C 304.457031 867.191406 304.535156 867.355469 304.585938 867.53125 C 304.632812 867.710938 304.644531 867.890625 304.621094 868.074219 C 304.597656 868.253906 304.539062 868.425781 304.449219 868.585938 L 279.269531 912.4375 C 279.175781 912.597656 279.058594 912.734375 278.914062 912.847656 C 278.765625 912.957031 278.605469 913.039062 278.425781 913.085938 C 278.25 913.132812 278.070312 913.148438 277.886719 913.125 C 277.703125 913.097656 277.53125 913.042969 277.375 912.949219 L 273.441406 910.6875 C 273.28125 910.59375 273.144531 910.476562 273.03125 910.332031 C 272.917969 910.183594 272.839844 910.023438 272.792969 909.84375 C 272.742188 909.667969 272.730469 909.488281 272.753906 909.304688 C 272.777344 909.121094 272.835938 908.949219 272.929688 908.789062 L 298.105469 864.9375 C 298.199219 864.78125 298.316406 864.644531 298.460938 864.53125 C 298.609375 864.417969 298.769531 864.339844 298.949219 864.289062 C 299.125 864.242188 299.304688 864.230469 299.488281 864.253906 C 299.671875 864.277344 299.84375 864.335938 300.003906 864.425781 Z M 300.003906 864.425781 " fill-opacity="1" fill-rule="nonzero"/></g><g clip-path="url(#f75c5611e9)"><path fill="#b4e3fb" d="M 528.945312 862.925781 L 532.859375 865.1875 C 533.019531 865.277344 533.15625 865.398438 533.265625 865.542969 C 533.378906 865.6875 533.457031 865.851562 533.507812 866.027344 C 533.554688 866.207031 533.566406 866.386719 533.542969 866.566406 C 533.515625 866.75 533.460938 866.921875 533.367188 867.078125 L 508.191406 910.730469 C 508.097656 910.886719 507.980469 911.023438 507.832031 911.136719 C 507.6875 911.246094 507.527344 911.328125 507.347656 911.375 C 507.171875 911.421875 506.992188 911.433594 506.808594 911.410156 C 506.628906 911.386719 506.457031 911.328125 506.300781 911.234375 L 502.382812 908.972656 C 502.226562 908.882812 502.089844 908.761719 501.976562 908.617188 C 501.867188 908.472656 501.785156 908.308594 501.738281 908.132812 C 501.691406 907.957031 501.679688 907.777344 501.703125 907.59375 C 501.726562 907.410156 501.785156 907.242188 501.878906 907.082031 L 527.054688 863.429688 C 527.148438 863.273438 527.265625 863.136719 527.410156 863.023438 C 527.558594 862.914062 527.71875 862.832031 527.894531 862.785156 C 528.074219 862.738281 528.253906 862.726562 528.433594 862.75 C 528.617188 862.773438 528.789062 862.832031 528.945312 862.925781 Z M 528.945312 862.925781 " fill-opacity="1" fill-rule="nonzero"/></g><path fill="#ffb544" d="M 498.597656 640.664062 C 498.597656 642.460938 498.511719 644.257812 498.335938 646.046875 C 498.160156 647.839844 497.894531 649.617188 497.542969 651.382812 C 497.195312 653.148438 496.757812 654.890625 496.234375 656.613281 C 495.714844 658.335938 495.109375 660.027344 494.421875 661.6875 C 493.734375 663.351562 492.964844 664.976562 492.117188 666.5625 C 491.269531 668.152344 490.347656 669.691406 489.347656 671.1875 C 488.347656 672.683594 487.28125 674.128906 486.140625 675.519531 C 485 676.910156 483.792969 678.242188 482.519531 679.515625 C 481.25 680.789062 479.917969 681.996094 478.53125 683.136719 C 477.140625 684.277344 475.695312 685.347656 474.203125 686.347656 C 472.707031 687.347656 471.167969 688.273438 469.582031 689.121094 C 467.996094 689.96875 466.371094 690.738281 464.710938 691.425781 C 463.050781 692.113281 461.359375 692.71875 459.640625 693.242188 C 457.917969 693.765625 456.175781 694.203125 454.414062 694.554688 C 452.648438 694.902344 450.875 695.167969 449.085938 695.34375 C 447.296875 695.519531 445.5 695.609375 443.703125 695.609375 C 441.90625 695.609375 440.113281 695.519531 438.324219 695.34375 C 436.535156 695.167969 434.757812 694.902344 432.996094 694.554688 C 431.230469 694.203125 429.488281 693.765625 427.769531 693.242188 C 426.046875 692.71875 424.355469 692.113281 422.695312 691.425781 C 421.035156 690.738281 419.410156 689.96875 417.824219 689.121094 C 416.242188 688.273438 414.699219 687.347656 413.207031 686.347656 C 411.710938 685.347656 410.269531 684.277344 408.878906 683.136719 C 407.488281 681.996094 406.15625 680.789062 404.886719 679.515625 C 403.617188 678.242188 402.410156 676.910156 401.269531 675.519531 C 400.128906 674.128906 399.058594 672.683594 398.058594 671.1875 C 397.0625 669.691406 396.136719 668.152344 395.289062 666.5625 C 394.441406 664.976562 393.675781 663.351562 392.988281 661.6875 C 392.296875 660.027344 391.695312 658.335938 391.171875 656.613281 C 390.648438 654.890625 390.214844 653.148438 389.863281 651.382812 C 389.511719 649.617188 389.25 647.839844 389.074219 646.046875 C 388.894531 644.257812 388.808594 642.460938 388.808594 640.664062 C 388.808594 638.863281 388.894531 637.066406 389.074219 635.277344 C 389.25 633.484375 389.511719 631.707031 389.863281 629.941406 C 390.214844 628.179688 390.648438 626.433594 391.171875 624.710938 C 391.695312 622.988281 392.296875 621.296875 392.988281 619.636719 C 393.675781 617.972656 394.441406 616.347656 395.289062 614.761719 C 396.136719 613.171875 397.0625 611.632812 398.058594 610.136719 C 399.058594 608.640625 400.128906 607.195312 401.269531 605.804688 C 402.410156 604.414062 403.617188 603.082031 404.886719 601.808594 C 406.15625 600.535156 407.488281 599.328125 408.878906 598.1875 C 410.269531 597.046875 411.710938 595.976562 413.207031 594.976562 C 414.699219 593.976562 416.242188 593.050781 417.824219 592.203125 C 419.410156 591.355469 421.035156 590.585938 422.695312 589.898438 C 424.355469 589.210938 426.046875 588.605469 427.769531 588.082031 C 429.488281 587.558594 431.230469 587.121094 432.992188 586.773438 C 434.757812 586.421875 436.535156 586.15625 438.324219 585.980469 C 440.113281 585.804688 441.90625 585.714844 443.703125 585.714844 C 445.503906 585.710938 447.300781 585.792969 449.089844 585.964844 C 450.882812 586.136719 452.660156 586.394531 454.425781 586.742188 C 456.191406 587.089844 457.9375 587.519531 459.660156 588.039062 C 461.382812 588.558594 463.078125 589.164062 464.742188 589.847656 C 466.402344 590.535156 468.03125 591.300781 469.617188 592.148438 C 471.207031 592.996094 472.75 593.917969 474.246094 594.917969 C 475.742188 595.917969 477.1875 596.988281 478.578125 598.132812 C 479.972656 599.273438 481.304688 600.480469 482.574219 601.753906 C 483.847656 603.027344 485.054688 604.363281 486.195312 605.753906 C 487.335938 607.148438 488.40625 608.59375 489.40625 610.09375 C 490.402344 611.589844 491.324219 613.132812 492.171875 614.722656 C 493.019531 616.3125 493.785156 617.941406 494.46875 619.605469 C 495.15625 621.273438 495.757812 622.96875 496.277344 624.691406 C 496.796875 626.417969 497.230469 628.164062 497.574219 629.929688 C 497.921875 631.699219 498.179688 633.476562 498.351562 635.269531 C 498.523438 637.0625 498.605469 638.859375 498.597656 640.664062 Z M 498.597656 640.664062 " fill-opacity="1" fill-rule="nonzero"/><path fill="#ffae46" d="M 442.875 529.382812 L 444.625 529.382812 C 444.777344 529.382812 444.910156 529.4375 445.019531 529.546875 C 445.125 529.65625 445.179688 529.785156 445.179688 529.9375 L 445.179688 578.171875 C 445.179688 578.324219 445.125 578.453125 445.019531 578.5625 C 444.910156 578.671875 444.777344 578.726562 444.625 578.726562 L 442.875 578.726562 C 442.71875 578.726562 442.589844 578.671875 442.480469 578.5625 C 442.375 578.453125 442.320312 578.324219 442.320312 578.171875 L 442.320312 529.9375 C 442.320312 529.785156 442.375 529.65625 442.480469 529.546875 C 442.589844 529.4375 442.71875 529.382812 442.875 529.382812 Z M 442.875 529.382812 " fill-opacity="1" fill-rule="nonzero"/><g clip-path="url(#e37b92e288)"><path stroke-linecap="butt" transform="matrix(0.922618, 0, 0, 0.923467, 243.218904, 528.922902)" fill="none" stroke-linejoin="miter" d="M 216.401687 0.498026 L 218.298463 0.498026 C 218.463584 0.498026 218.607536 0.557246 218.726084 0.675685 C 218.840399 0.794125 218.899673 0.933714 218.899673 1.098684 L 218.899673 53.33053 C 218.899673 53.495499 218.840399 53.635089 218.726084 53.753528 C 218.607536 53.871968 218.463584 53.931188 218.298463 53.931188 L 216.401687 53.931188 C 216.232332 53.931188 216.092614 53.871968 215.974065 53.753528 C 215.85975 53.635089 215.800476 53.495499 215.800476 53.33053 L 215.800476 1.098684 C 215.800476 0.933714 215.85975 0.794125 215.974065 0.675685 C 216.092614 0.557246 216.232332 0.498026 216.401687 0.498026 Z M 216.401687 0.498026 " stroke="#ffae46" stroke-width="1" stroke-opacity="1" stroke-miterlimit="10"/></g><path stroke-linecap="butt" transform="matrix(0.829948, -0.403372, 0.403001, 0.830712, 161.93627, 601.876752)" fill-opacity="1" fill="#ffae46" fill-rule="nonzero" stroke-linejoin="miter" d="M 258.301657 71.299038 L 260.198671 71.298529 C 260.367192 71.300419 260.507997 71.359386 260.624896 71.477279 C 260.741796 71.595172 260.800284 71.736427 260.800363 71.901046 L 260.798997 100.400981 C 260.799076 100.565599 260.740177 100.706282 260.62611 100.824879 C 260.508234 100.941626 260.366941 100.99998 260.202229 100.999939 L 258.301406 100.998598 C 258.134846 101.002363 257.994041 100.943396 257.877142 100.825503 C 257.760242 100.70761 257.701754 100.566354 257.697867 100.399887 L 257.699232 71.899952 C 257.699154 71.735333 257.758053 71.59465 257.875928 71.477903 C 257.993804 71.361155 258.136945 71.298997 258.301657 71.299038 Z M 258.301657 71.299038 " stroke="#ffae46" stroke-width="1" stroke-opacity="1" stroke-miterlimit="10"/><path stroke-linecap="butt" transform="matrix(0.829948, -0.403372, 0.403001, 0.830712, 104.549556, 644.910404)" fill-opacity="1" fill="#ffae46" fill-rule="nonzero" stroke-linejoin="miter" d="M 328.499235 230.101174 L 330.401906 230.09871 C 330.566617 230.098751 330.707423 230.157717 330.824322 230.27561 C 330.941221 230.393503 330.99971 230.534759 330.999788 230.699377 L 330.998423 259.199312 C 330.998501 259.363931 330.943411 259.506463 330.825535 259.62321 C 330.70766 259.739958 330.566366 259.798311 330.399807 259.802076 L 328.498984 259.800735 C 328.334272 259.800694 328.193466 259.741727 328.076567 259.623834 C 327.959668 259.505941 327.901179 259.364686 327.901101 259.200068 L 327.898658 230.698283 C 327.898579 230.533665 327.957478 230.392982 328.075354 230.276234 C 328.193229 230.159487 328.334523 230.101134 328.499235 230.101174 Z M 328.499235 230.101174 " stroke="#ffae46" stroke-width="1" stroke-opacity="1" stroke-miterlimit="10"/><path stroke-linecap="butt" transform="matrix(0.871827, 0.302175, -0.301897, 0.872629, 214.80227, 395.75895)" fill-opacity="1" fill="#ffae46" fill-rule="nonzero" stroke-linejoin="miter" d="M 323.199822 69.800826 L 325.099626 69.800993 C 325.265649 69.801696 325.40689 69.860221 325.523348 69.976568 C 325.639805 70.092916 325.701636 70.232656 325.700839 70.39856 L 325.699819 98.900253 C 325.699022 99.066157 325.640374 99.207329 325.523876 99.323769 C 325.407379 99.440209 325.266118 99.498077 325.101479 99.501372 L 323.201675 99.501205 C 323.035652 99.500502 322.894411 99.441977 322.777953 99.325629 C 322.660111 99.205285 322.59828 99.065545 322.599078 98.899641 L 322.600098 70.397948 C 322.600895 70.232044 322.659543 70.090872 322.776041 69.974432 C 322.892538 69.857992 323.033799 69.800124 323.199822 69.800826 Z M 323.199822 69.800826 " stroke="#ffae46" stroke-width="1" stroke-opacity="1" stroke-miterlimit="10"/><path stroke-linecap="butt" transform="matrix(0.871827, 0.302175, -0.301897, 0.872629, 260.564264, 422.908839)" fill-opacity="1" fill="#ffae46" fill-rule="nonzero" stroke-linejoin="miter" d="M 260.59971 231.700126 L 262.499514 231.700293 C 262.665537 231.700996 262.806778 231.759521 262.923236 231.875869 C 263.039694 231.992216 263.097524 232.133341 263.100727 232.29786 L 263.099707 260.799553 C 263.09891 260.965457 263.040262 261.106629 262.923764 261.223069 C 262.807267 261.339509 262.66739 261.401374 262.501367 261.400672 L 260.601563 261.400505 C 260.43554 261.399802 260.2943 261.341277 260.177842 261.22493 C 260.055999 261.10597 259.998169 260.964845 259.998966 260.798941 L 260.00137 232.301245 C 260.002167 232.135341 260.060815 231.994169 260.175929 231.873732 C 260.292426 231.757292 260.433687 231.699424 260.59971 231.700126 Z M 260.59971 231.700126 " stroke="#ffae46" stroke-width="1" stroke-opacity="1" stroke-miterlimit="10"/><path stroke-linecap="butt" transform="matrix(0.403001, 0.830712, -0.829948, 0.403372, 474.149737, 246.157195)" fill-opacity="1" fill="#ffae46" fill-rule="nonzero" stroke-linejoin="miter" d="M 372.799782 114.100014 L 374.699524 114.099982 C 374.864142 114.099904 375.004825 114.158803 375.121572 114.276678 C 375.240169 114.390745 375.302328 114.533887 375.300438 114.702407 L 375.30099 143.201252 C 375.300949 143.365964 375.241983 143.50677 375.12409 143.623669 C 375.006197 143.740568 374.864941 143.799057 374.700323 143.799135 L 372.800581 143.799167 C 372.635963 143.799245 372.49528 143.740346 372.376683 143.626279 C 372.259935 143.508404 372.201582 143.36711 372.197818 143.200551 L 372.199114 114.697897 C 372.199155 114.533185 372.258122 114.39238 372.376015 114.27548 C 372.493908 114.158581 372.635164 114.100093 372.799782 114.100014 Z M 372.799782 114.100014 " stroke="#ffae46" stroke-width="1" stroke-opacity="1" stroke-miterlimit="10"/><path stroke-linecap="butt" transform="matrix(0.403001, 0.830712, -0.829948, 0.403372, 449.793267, 414.597376)" fill-opacity="1" fill="#ffae46" fill-rule="nonzero" stroke-linejoin="miter" d="M 213.998928 184.301712 L 215.89867 184.30168 C 216.065137 184.297793 216.20582 184.356692 216.322568 184.474567 C 216.439315 184.592443 216.501474 184.735584 216.501433 184.900296 L 216.501986 213.399141 C 216.500095 213.567662 216.441129 213.708467 216.323236 213.825366 C 216.205343 213.942265 216.064087 214.000754 215.899469 214.000832 L 213.999727 214.000864 C 213.835109 214.000942 213.694426 213.942044 213.577678 213.824168 C 213.460931 213.706293 213.402577 213.564999 213.398813 213.398439 L 213.39826 184.899594 C 213.398301 184.734882 213.457268 184.594077 213.575161 184.477178 C 213.693054 184.360279 213.83431 184.30179 213.998928 184.301712 Z M 213.998928 184.301712 " stroke="#ffae46" stroke-width="1" stroke-opacity="1" stroke-miterlimit="10"/><path stroke-linecap="butt" transform="matrix(-0.301897, 0.872629, -0.871827, -0.302175, 803.985956, 403.516457)" fill-opacity="1" fill="#ffae46" fill-rule="nonzero" stroke-linejoin="miter" d="M 374.299175 182.001278 L 376.201605 182.001141 C 376.366123 181.997938 376.507295 182.056585 376.62512 182.177084 C 376.74156 182.293582 376.799429 182.434842 376.798726 182.600865 L 376.801603 211.100544 C 376.800901 211.266567 376.742376 211.407808 376.626028 211.524266 C 376.505684 211.642108 376.364558 211.699938 376.198655 211.69914 L 374.300222 211.697893 C 374.135704 211.701096 373.994532 211.642448 373.876707 211.52195 C 373.75627 211.406836 373.698401 211.265576 373.699104 211.099553 L 373.700224 182.59849 C 373.700926 182.432466 373.759451 182.291226 373.875799 182.174768 C 373.992146 182.05831 374.133272 182.00048 374.299175 182.001278 Z M 374.299175 182.001278 " stroke="#ffae46" stroke-width="1" stroke-opacity="1" stroke-miterlimit="10"/><path stroke-linecap="butt" transform="matrix(-0.301897, 0.872629, -0.871827, -0.302175, 551.096634, 468.065651)" fill-opacity="1" fill="#ffae46" fill-rule="nonzero" stroke-linejoin="miter" d="M 212.399187 119.398728 L 214.301617 119.398591 C 214.46752 119.399389 214.608692 119.458036 214.725132 119.574534 C 214.841572 119.691032 214.899441 119.832292 214.898738 119.998315 L 214.897618 148.499378 C 214.900913 148.664017 214.842388 148.805258 214.722043 148.9231 C 214.607081 149.043559 214.465956 149.101389 214.300052 149.100591 L 212.40162 149.099344 C 212.235716 149.098546 212.094544 149.039899 211.974107 148.924785 C 211.857667 148.808287 211.799799 148.667027 211.800501 148.501004 L 211.801621 119.999941 C 211.798327 119.835302 211.856852 119.694061 211.977196 119.576219 C 212.093544 119.459761 212.234669 119.401931 212.399187 119.398728 Z M 212.399187 119.398728 " stroke="#ffae46" stroke-width="1" stroke-opacity="1" stroke-miterlimit="10"/><path stroke-linecap="butt" transform="matrix(0.922618, 0, 0, 0.923467, 243.218904, 528.922902)" fill-opacity="1" fill="#ffae46" fill-rule="nonzero" stroke-linejoin="miter" d="M 217.900479 194.400506 L 219.801489 194.400506 C 219.96661 194.400506 220.106328 194.459726 220.224876 194.573936 C 220.343425 194.692375 220.398465 194.836195 220.398465 195.001164 L 220.398465 247.22878 C 220.398465 247.39375 220.343425 247.537569 220.224876 247.656009 C 220.106328 247.770218 219.96661 247.829438 219.801489 247.829438 L 217.900479 247.829438 C 217.735357 247.829438 217.591406 247.770218 217.477091 247.656009 C 217.358542 247.537569 217.299268 247.39375 217.299268 247.22878 L 217.299268 195.001164 C 217.299268 194.836195 217.358542 194.692375 217.477091 194.573936 C 217.591406 194.459726 217.735357 194.400506 217.900479 194.400506 Z M 217.900479 194.400506 " stroke="#ffae46" stroke-width="1" stroke-opacity="1" stroke-miterlimit="10"/><path fill="#ffae46" d="M 556.449219 639.921875 L 556.449219 641.679688 C 556.449219 641.832031 556.394531 641.960938 556.285156 642.070312 C 556.175781 642.179688 556.046875 642.230469 555.894531 642.230469 L 507.707031 642.230469 C 507.554688 642.230469 507.421875 642.179688 507.3125 642.070312 C 507.207031 641.960938 507.152344 641.832031 507.152344 641.679688 L 507.152344 639.921875 C 507.152344 639.769531 507.207031 639.640625 507.3125 639.53125 C 507.421875 639.421875 507.554688 639.371094 507.707031 639.371094 L 555.894531 639.371094 C 556.046875 639.371094 556.175781 639.421875 556.285156 639.53125 C 556.394531 639.640625 556.449219 639.769531 556.449219 639.921875 Z M 556.449219 639.921875 " fill-opacity="1" fill-rule="nonzero"/><g clip-path="url(#d687f46451)"><path stroke-linecap="butt" transform="matrix(0, 0.923467, -0.922618, 0, 682.846375, 281.34148)" fill="none" stroke-linejoin="miter" d="M 388.298098 136.99836 L 390.201591 136.99836 C 390.36656 136.99836 390.506149 137.057634 390.624589 137.176183 C 390.743029 137.294731 390.798018 137.434449 390.798018 137.59957 L 390.798018 189.828661 C 390.798018 189.993782 390.743029 190.137734 390.624589 190.256282 C 390.506149 190.370597 390.36656 190.429871 390.201591 190.429871 L 388.298098 190.429871 C 388.133128 190.429871 387.993539 190.370597 387.875099 190.256282 C 387.75666 190.137734 387.70167 189.993782 387.70167 189.828661 L 387.70167 137.59957 C 387.70167 137.434449 387.75666 137.294731 387.875099 137.176183 C 387.993539 137.057634 388.133128 136.99836 388.298098 136.99836 Z M 388.298098 136.99836 " stroke="#ffae46" stroke-width="1" stroke-opacity="1" stroke-miterlimit="10"/></g><path stroke-linecap="butt" transform="matrix(0, 0.923467, -0.922618, 0, 505.426966, 461.786868)" fill-opacity="1" fill="#ffae46" fill-rule="nonzero" stroke-linejoin="miter" d="M 194.399765 138.601438 L 196.299028 138.601438 C 196.463997 138.601438 196.607817 138.656479 196.726256 138.775027 C 196.840466 138.893576 196.899686 139.033294 196.899686 139.198415 L 196.899686 191.431739 C 196.899686 191.59686 196.840466 191.736578 196.726256 191.855126 C 196.607817 191.969441 196.463997 192.028715 196.299028 192.028715 L 194.399765 192.028715 C 194.234796 192.028715 194.090976 191.969441 193.976767 191.855126 C 193.858327 191.736578 193.799107 191.59686 193.799107 191.431739 L 193.799107 139.198415 C 193.799107 139.033294 193.858327 138.893576 193.976767 138.775027 C 194.090976 138.656479 194.234796 138.601438 194.399765 138.601438 Z M 194.399765 138.601438 " stroke="#ffae46" stroke-width="1" stroke-opacity="1" stroke-miterlimit="10"/><path stroke-linecap="butt" transform="matrix(-0.65239, 0.65299, -0.65239, -0.65299, 896.893356, 621.546478)" fill-opacity="1" fill="#ffae46" fill-rule="nonzero" stroke-linejoin="miter" d="M 361.998657 207.300916 L 363.898846 207.298798 C 364.066422 207.298875 364.207092 207.355795 364.326845 207.475547 C 364.443603 207.592306 364.500524 207.732976 364.500601 207.900552 L 364.500673 260.130348 C 364.497756 260.29493 364.440965 260.435548 364.324314 260.552199 C 364.204672 260.671841 364.064054 260.728632 363.899472 260.731549 L 362.002273 260.730677 C 361.834698 260.7306 361.691034 260.670685 361.574275 260.553927 C 361.457517 260.437169 361.400596 260.296499 361.400519 260.128923 L 361.400447 207.899126 C 361.397379 207.734542 361.460155 207.593927 361.576806 207.477276 C 361.693457 207.360625 361.834072 207.297848 361.998657 207.300916 Z M 361.998657 207.300916 " stroke="#ffae46" stroke-width="1" stroke-opacity="1" stroke-miterlimit="10"/><path stroke-linecap="butt" transform="matrix(-0.65239, 0.65299, -0.65239, -0.65299, 590.584719, 497.340873)" fill-opacity="1" fill="#ffae46" fill-rule="nonzero" stroke-linejoin="miter" d="M 223.798657 71.298531 L 225.70184 71.299406 C 225.863431 71.29948 226.007095 71.359395 226.123853 71.476153 C 226.240612 71.592912 226.300526 71.736575 226.3006 71.898167 L 226.300673 124.127963 C 226.30075 124.295539 226.240967 124.439148 226.124316 124.555799 C 226.007665 124.67245 225.867047 124.729241 225.699471 124.729164 L 223.799282 124.731283 C 223.634697 124.728215 223.494027 124.671294 223.377269 124.554536 C 223.260511 124.437777 223.200596 124.294113 223.197528 124.129529 L 223.197456 71.899732 C 223.200373 71.73515 223.260155 71.591541 223.376806 71.47489 C 223.493457 71.358239 223.634075 71.301448 223.798657 71.298531 Z M 223.798657 71.298531 " stroke="#ffae46" stroke-width="1" stroke-opacity="1" stroke-miterlimit="10"/><path stroke-linecap="butt" transform="matrix(-0.65239, -0.65299, 0.65239, -0.65299, 373.492486, 1004.232085)" fill-opacity="1" fill="#ffae46" fill-rule="nonzero" stroke-linejoin="miter" d="M 223.299897 206.899392 L 225.200086 206.901511 C 225.364671 206.898443 225.50828 206.958226 225.624931 207.074877 C 225.741582 207.191528 225.801364 207.335137 225.798296 207.499721 L 225.798224 259.729518 C 225.801141 259.8941 225.741226 260.037764 225.624468 260.154522 C 225.50771 260.27128 225.364046 260.331195 225.199464 260.328278 L 223.299272 260.332144 C 223.134689 260.329227 222.994072 260.272436 222.87443 260.152794 C 222.757779 260.036143 222.700987 259.895525 222.69807 259.730943 L 222.701136 207.498153 C 222.69822 207.333571 222.761125 207.192898 222.877883 207.076139 C 222.994642 206.959381 223.132321 206.899469 223.299897 206.899392 Z M 223.299897 206.899392 " stroke="#ffae46" stroke-width="1" stroke-opacity="1" stroke-miterlimit="10"/><path stroke-linecap="butt" transform="matrix(-0.65239, -0.65299, 0.65239, -0.65299, 677.864191, 875.222952)" fill-opacity="1" fill="#ffae46" fill-rule="nonzero" stroke-linejoin="miter" d="M 359.299804 68.702032 L 361.199997 68.698166 C 361.364579 68.701082 361.505196 68.757874 361.624839 68.877516 C 361.741489 68.994167 361.798281 69.134785 361.801198 69.299367 L 361.801126 121.529163 C 361.801049 121.696739 361.741137 121.834418 361.621385 121.95417 C 361.504626 122.070928 361.366947 122.13084 361.199371 122.130917 L 359.299182 122.128798 C 359.134597 122.131866 358.990988 122.072084 358.874337 121.955433 C 358.757686 121.838782 358.697904 121.695173 358.700972 121.530588 L 358.701044 69.300792 C 358.701121 69.133216 358.758042 68.992546 358.8748 68.875788 C 358.991558 68.759029 359.135222 68.699115 359.299804 68.702032 Z M 359.299804 68.702032 " stroke="#ffae46" stroke-width="1" stroke-opacity="1" stroke-miterlimit="10"/><path fill="#26477a" d="M 524.800781 730.332031 L 523.511719 730.332031 C 525.046875 725.367188 525.816406 720.289062 525.816406 715.09375 C 525.816406 686.375 502.382812 663.195312 473.597656 663.195312 C 470.574219 663.179688 467.574219 663.429688 464.59375 663.9375 C 461.613281 664.445312 458.703125 665.207031 455.855469 666.222656 C 453.007812 667.238281 450.269531 668.492188 447.640625 669.984375 C 445.011719 671.476562 442.53125 673.183594 440.199219 675.109375 C 439.78125 673.253906 439.285156 671.417969 438.710938 669.605469 C 438.136719 667.792969 437.488281 666.007812 436.765625 664.25 C 436.039062 662.492188 435.242188 660.765625 434.375 659.074219 C 433.503906 657.382812 432.566406 655.734375 431.554688 654.121094 C 430.546875 652.511719 429.472656 650.945312 428.328125 649.425781 C 427.1875 647.90625 425.984375 646.433594 424.71875 645.015625 C 423.453125 643.597656 422.132812 642.234375 420.75 640.929688 C 419.371094 639.621094 417.9375 638.375 416.453125 637.191406 C 414.964844 636.003906 413.433594 634.882812 411.851562 633.828125 C 410.273438 632.773438 408.652344 631.785156 406.988281 630.867188 C 405.324219 629.949219 403.625 629.101562 401.890625 628.328125 C 400.15625 627.550781 398.390625 626.851562 396.59375 626.226562 C 394.800781 625.601562 392.984375 625.050781 391.144531 624.582031 C 389.304688 624.109375 387.445312 623.714844 385.570312 623.402344 C 383.699219 623.085938 381.816406 622.851562 379.921875 622.695312 C 378.027344 622.539062 376.128906 622.464844 374.230469 622.46875 C 336.957031 622.46875 306.695312 652.484375 306.695312 689.605469 C 306.667969 693.925781 307.070312 698.203125 307.894531 702.441406 C 305.109375 702.070312 302.308594 701.886719 299.5 701.886719 C 297.960938 701.878906 296.421875 701.933594 294.890625 702.054688 C 293.355469 702.171875 291.828125 702.355469 290.308594 702.601562 C 288.789062 702.84375 287.285156 703.152344 285.789062 703.523438 C 284.296875 703.890625 282.820312 704.324219 281.359375 704.8125 C 279.902344 705.304688 278.46875 705.855469 277.054688 706.464844 C 275.640625 707.078125 274.257812 707.746094 272.898438 708.46875 C 271.539062 709.195312 270.214844 709.972656 268.921875 710.808594 C 267.628906 711.640625 266.371094 712.527344 265.148438 713.464844 C 263.929688 714.402344 262.75 715.390625 261.609375 716.425781 C 260.472656 717.460938 259.378906 718.542969 258.328125 719.667969 C 257.277344 720.796875 256.277344 721.960938 255.324219 723.171875 C 254.367188 724.378906 253.46875 725.625 252.617188 726.910156 C 251.765625 728.191406 250.96875 729.507812 250.226562 730.859375 C 249.484375 732.207031 248.800781 733.585938 248.171875 734.992188 C 247.542969 736.398438 246.972656 737.828125 246.460938 739.28125 C 245.953125 740.734375 245.5 742.203125 245.113281 743.695312 C 244.722656 745.183594 244.394531 746.6875 244.128906 748.207031 C 243.867188 749.722656 243.664062 751.246094 243.523438 752.78125 C 243.382812 754.316406 243.308594 755.851562 243.296875 757.394531 C 243.285156 758.933594 243.335938 760.472656 243.449219 762.007812 C 243.5625 763.542969 243.742188 765.070312 243.980469 766.59375 C 244.222656 768.113281 244.523438 769.625 244.890625 771.121094 C 245.253906 772.617188 245.679688 774.09375 246.167969 775.554688 C 246.652344 777.015625 247.199219 778.457031 247.804688 779.871094 C 248.410156 781.289062 249.074219 782.675781 249.792969 784.035156 C 250.511719 785.398438 251.289062 786.726562 252.117188 788.023438 C 252.949219 789.320312 253.828125 790.582031 254.761719 791.804688 C 255.695312 793.03125 256.679688 794.214844 257.710938 795.359375 C 258.742188 796.5 259.820312 797.597656 260.941406 798.652344 C 262.0625 799.707031 263.226562 800.714844 264.429688 801.671875 C 265.636719 802.628906 266.878906 803.535156 268.160156 804.390625 C 269.4375 805.246094 270.75 806.046875 272.097656 806.792969 C 275.554688 809.101562 279.269531 810.863281 283.242188 812.074219 C 287.21875 813.285156 291.285156 813.894531 295.4375 813.90625 L 524.800781 813.90625 C 547.867188 813.90625 566.78125 795.066406 566.78125 772.164062 C 566.773438 770.792969 566.695312 769.425781 566.554688 768.0625 C 566.410156 766.695312 566.203125 765.34375 565.929688 764 C 565.652344 762.65625 565.3125 761.328125 564.910156 760.019531 C 564.503906 758.707031 564.039062 757.421875 563.507812 756.15625 C 562.980469 754.890625 562.386719 753.65625 561.738281 752.449219 C 561.085938 751.242188 560.378906 750.066406 559.613281 748.929688 C 558.847656 747.792969 558.03125 746.695312 557.160156 745.636719 C 556.285156 744.578125 555.363281 743.566406 554.394531 742.597656 C 553.421875 741.632812 552.40625 740.714844 551.347656 739.84375 C 550.285156 738.976562 549.183594 738.164062 548.046875 737.402344 C 546.90625 736.640625 545.730469 735.9375 544.523438 735.292969 C 543.3125 734.644531 542.074219 734.0625 540.808594 733.535156 C 539.542969 733.011719 538.253906 732.550781 536.945312 732.152344 C 535.632812 731.75 534.304688 731.417969 532.960938 731.148438 C 531.621094 730.878906 530.265625 730.675781 528.902344 730.539062 C 527.539062 730.402344 526.171875 730.332031 524.800781 730.332031 Z M 524.800781 730.332031 " fill-opacity="1" fill-rule="nonzero"/></svg>