<svg xmlns="http://www.w3.org/2000/svg" xmlns:xlink="http://www.w3.org/1999/xlink" width="1080" zoomAndPan="magnify" viewBox="0 0 810 1439.999935" height="1920" preserveAspectRatio="xMidYMid meet" version="1.0"><defs><clipPath id="2ec96f6525"><path d="M 243 562.222656 L 567 562.222656 L 567 755 L 243 755 Z M 243 562.222656 " clip-rule="nonzero"/></clipPath><clipPath id="44b61d8c52"><path d="M 361 798 L 408 798 L 408 877.972656 L 361 877.972656 Z M 361 798 " clip-rule="nonzero"/></clipPath></defs><g clip-path="url(#2ec96f6525)"><path fill="#26477a" d="M 524.914062 670.878906 L 523.609375 670.878906 C 525.171875 665.875 525.941406 660.753906 525.914062 655.511719 C 525.914062 653.039062 525.742188 650.582031 525.394531 648.136719 C 525.046875 645.691406 524.53125 643.28125 523.839844 640.910156 C 523.152344 638.539062 522.300781 636.226562 521.285156 633.972656 C 520.269531 631.722656 519.097656 629.554688 517.773438 627.46875 C 516.449219 625.382812 514.988281 623.402344 513.382812 621.527344 C 511.777344 619.648438 510.050781 617.894531 508.195312 616.261719 C 506.34375 614.628906 504.382812 613.136719 502.320312 611.78125 C 500.253906 610.425781 498.105469 609.226562 495.871094 608.175781 C 493.632812 607.128906 491.335938 606.242188 488.976562 605.519531 C 486.613281 604.796875 484.214844 604.242188 481.777344 603.859375 C 479.335938 603.476562 476.882812 603.269531 474.414062 603.234375 C 471.945312 603.203125 469.488281 603.34375 467.039062 603.65625 C 464.589844 603.972656 462.175781 604.457031 459.796875 605.113281 C 457.417969 605.773438 455.097656 606.59375 452.832031 607.582031 C 450.570312 608.566406 448.386719 609.710938 446.285156 611.007812 C 444.183594 612.304688 442.183594 613.742188 440.289062 615.320312 C 439.847656 613.300781 439.320312 611.304688 438.699219 609.335938 C 438.078125 607.363281 437.371094 605.425781 436.570312 603.519531 C 435.773438 601.613281 434.890625 599.746094 433.921875 597.921875 C 432.949219 596.097656 431.898438 594.320312 430.769531 592.589844 C 429.636719 590.863281 428.425781 589.191406 427.140625 587.570312 C 425.855469 585.953125 424.5 584.398438 423.074219 582.90625 C 421.644531 581.410156 420.152344 579.988281 418.59375 578.628906 C 417.035156 577.273438 415.417969 575.992188 413.742188 574.785156 C 412.066406 573.578125 410.339844 572.449219 408.558594 571.398438 C 406.78125 570.347656 404.957031 569.382812 403.089844 568.5 C 401.21875 567.617188 399.316406 566.824219 397.375 566.117188 C 395.433594 565.410156 393.464844 564.792969 391.46875 564.265625 C 389.472656 563.738281 387.453125 563.304688 385.417969 562.960938 C 383.378906 562.621094 381.332031 562.371094 379.273438 562.21875 C 377.210938 562.066406 375.148438 562.007812 373.085938 562.042969 C 371.019531 562.078125 368.960938 562.207031 366.90625 562.429688 C 364.855469 562.65625 362.816406 562.972656 360.792969 563.386719 C 358.765625 563.796875 356.765625 564.300781 354.789062 564.894531 C 352.808594 565.488281 350.863281 566.171875 348.949219 566.945312 C 347.03125 567.722656 345.15625 568.582031 343.320312 569.527344 C 341.484375 570.472656 339.695312 571.5 337.953125 572.609375 C 336.210938 573.71875 334.523438 574.90625 332.886719 576.171875 C 331.253906 577.4375 329.683594 578.773438 328.171875 580.183594 C 326.660156 581.589844 325.21875 583.066406 323.839844 584.605469 C 322.464844 586.148438 321.164062 587.75 319.933594 589.410156 C 318.703125 591.070312 317.554688 592.785156 316.480469 594.550781 C 315.410156 596.320312 314.421875 598.128906 313.515625 599.988281 C 312.609375 601.84375 311.789062 603.738281 311.054688 605.671875 C 310.324219 607.605469 309.679688 609.566406 309.128906 611.558594 C 308.574219 613.550781 308.113281 615.5625 307.746094 617.59375 C 307.378906 619.628906 307.105469 621.675781 306.921875 623.734375 C 306.742188 625.792969 306.65625 627.855469 306.664062 629.921875 C 306.667969 634.269531 307.101562 638.570312 307.96875 642.832031 C 305.167969 642.433594 302.351562 642.226562 299.523438 642.214844 C 297.972656 642.210938 296.425781 642.269531 294.878906 642.394531 C 293.335938 642.515625 291.800781 642.703125 290.269531 642.953125 C 288.742188 643.203125 287.222656 643.515625 285.722656 643.890625 C 284.21875 644.265625 282.730469 644.703125 281.265625 645.203125 C 279.796875 645.699219 278.351562 646.257812 276.929688 646.875 C 275.511719 647.492188 274.117188 648.167969 272.75 648.898438 C 271.386719 649.632812 270.050781 650.421875 268.75 651.261719 C 267.449219 652.105469 266.1875 653 264.960938 653.949219 C 263.734375 654.894531 262.546875 655.890625 261.402344 656.9375 C 260.257812 657.980469 259.160156 659.070312 258.105469 660.207031 C 257.050781 661.34375 256.042969 662.523438 255.085938 663.742188 C 254.128906 664.960938 253.222656 666.214844 252.371094 667.511719 C 251.515625 668.804688 250.71875 670.132812 249.972656 671.492188 C 249.230469 672.851562 248.542969 674.238281 247.914062 675.65625 C 247.28125 677.074219 246.710938 678.515625 246.203125 679.976562 C 245.691406 681.441406 245.242188 682.925781 244.851562 684.425781 C 244.464844 685.925781 244.140625 687.441406 243.875 688.96875 C 243.613281 690.496094 243.414062 692.03125 243.277344 693.578125 C 243.140625 695.121094 243.066406 696.667969 243.058594 698.21875 C 243.046875 699.769531 243.101562 701.316406 243.222656 702.863281 C 243.339844 704.410156 243.523438 705.949219 243.769531 707.480469 C 244.015625 709.011719 244.324219 710.527344 244.695312 712.035156 C 245.066406 713.539062 245.5 715.027344 245.992188 716.496094 C 246.484375 717.964844 247.039062 719.414062 247.652344 720.835938 C 248.265625 722.261719 248.9375 723.65625 249.664062 725.023438 C 250.394531 726.394531 251.179688 727.730469 252.015625 729.03125 C 252.855469 730.335938 253.746094 731.605469 254.691406 732.832031 C 255.632812 734.0625 256.625 735.253906 257.667969 736.402344 C 258.707031 737.550781 259.796875 738.652344 260.929688 739.710938 C 262.0625 740.769531 263.234375 741.777344 264.449219 742.738281 C 265.667969 743.699219 266.921875 744.609375 268.210938 745.46875 C 269.5 746.324219 270.824219 747.128906 272.183594 747.875 C 275.625 750.183594 279.328125 751.9375 283.292969 753.144531 C 287.257812 754.347656 291.308594 754.949219 295.453125 754.945312 L 524.914062 754.945312 C 526.289062 754.945312 527.664062 754.875 529.03125 754.738281 C 530.398438 754.601562 531.757812 754.394531 533.105469 754.125 C 534.453125 753.855469 535.785156 753.519531 537.101562 753.117188 C 538.417969 752.71875 539.707031 752.253906 540.980469 751.726562 C 542.25 751.199219 543.488281 750.609375 544.703125 749.960938 C 545.914062 749.3125 547.09375 748.605469 548.234375 747.839844 C 549.378906 747.074219 550.480469 746.253906 551.542969 745.382812 C 552.605469 744.507812 553.625 743.585938 554.597656 742.613281 C 555.570312 741.640625 556.492188 740.621094 557.363281 739.558594 C 558.238281 738.496094 559.054688 737.390625 559.820312 736.246094 C 560.582031 735.101562 561.289062 733.925781 561.941406 732.710938 C 562.589844 731.5 563.175781 730.257812 563.703125 728.988281 C 564.230469 727.714844 564.695312 726.421875 565.097656 725.105469 C 565.496094 723.789062 565.832031 722.457031 566.101562 721.109375 C 566.371094 719.757812 566.574219 718.398438 566.714844 717.03125 C 566.851562 715.660156 566.917969 714.289062 566.921875 712.914062 C 566.917969 711.539062 566.84375 710.164062 566.707031 708.796875 C 566.566406 707.429688 566.363281 706.070312 566.089844 704.722656 C 565.816406 703.375 565.480469 702.042969 565.078125 700.726562 C 564.675781 699.414062 564.210938 698.121094 563.683594 696.851562 C 563.15625 695.582031 562.566406 694.339844 561.917969 693.128906 C 561.269531 691.917969 560.5625 690.738281 559.796875 689.597656 C 559.03125 688.453125 558.210938 687.351562 557.339844 686.289062 C 556.46875 685.226562 555.546875 684.207031 554.574219 683.234375 C 553.601562 682.261719 552.585938 681.339844 551.523438 680.46875 C 550.460938 679.59375 549.359375 678.773438 548.21875 678.011719 C 547.074219 677.246094 545.898438 676.539062 544.6875 675.886719 C 543.476562 675.238281 542.234375 674.648438 540.96875 674.121094 C 539.699219 673.589844 538.40625 673.125 537.09375 672.722656 C 535.777344 672.320312 534.445312 671.984375 533.101562 671.710938 C 531.753906 671.441406 530.394531 671.234375 529.027344 671.09375 C 527.660156 670.957031 526.289062 670.882812 524.914062 670.878906 Z M 524.914062 670.878906 " fill-opacity="1" fill-rule="nonzero"/></g><path fill="#ffb544" d="M 341.222656 703.691406 L 379.851562 703.691406 L 341.222656 755.253906 L 373.398438 755.253906 L 302.59375 839.011719 L 328.320312 774.542969 L 302.59375 774.542969 Z M 341.222656 703.691406 " fill-opacity="1" fill-rule="nonzero"/><path fill="#ffb544" d="M 472.617188 754.945312 L 505.410156 754.945312 L 472.617188 798.671875 L 499.957031 798.671875 L 439.828125 869.75 L 461.714844 815.039062 L 439.828125 815.039062 Z M 472.617188 754.945312 " fill-opacity="1" fill-rule="nonzero"/><g clip-path="url(#44b61d8c52)"><path fill="#ffb544" d="M 384.535156 798.976562 L 407.035156 798.976562 L 384.535156 829.101562 L 403.273438 829.101562 L 361.957031 877.972656 L 377.007812 840.320312 L 361.957031 840.320312 Z M 384.535156 798.976562 " fill-opacity="1" fill-rule="nonzero"/></g></svg>