<svg xmlns="http://www.w3.org/2000/svg" xmlns:xlink="http://www.w3.org/1999/xlink" width="1024" zoomAndPan="magnify" viewBox="0 0 768 767.999994" height="1024" preserveAspectRatio="xMidYMid meet" version="1.0"><defs><clipPath id="f2745a6451"><path d="M 316 189 L 394 189 L 394 687.972656 L 316 687.972656 Z M 316 189 " clip-rule="nonzero"/></clipPath></defs><path fill="#6b99d2" d="M 528.191406 142.671875 L 524.65625 145.28125 C 523.121094 146.71875 521.839844 148.359375 520.816406 150.195312 C 520.535156 150.738281 520.28125 151.292969 520.050781 151.855469 C 519.824219 152.421875 519.625 152.996094 519.453125 153.582031 C 519.285156 154.167969 519.140625 154.761719 519.027344 155.359375 C 518.914062 155.960938 518.832031 156.5625 518.777344 157.171875 C 518.726562 157.777344 518.703125 158.386719 518.707031 158.996094 C 518.714844 159.605469 518.75 160.214844 518.816406 160.820312 C 518.882812 161.425781 518.980469 162.027344 519.105469 162.625 C 519.230469 163.222656 519.382812 163.808594 519.566406 164.390625 C 519.75 164.972656 519.960938 165.542969 520.199219 166.105469 C 520.441406 166.667969 520.707031 167.214844 521 167.75 C 521.292969 168.285156 521.609375 168.804688 521.957031 169.304688 C 522.300781 169.808594 522.667969 170.296875 523.058594 170.761719 C 523.453125 171.230469 523.867188 171.675781 524.300781 172.101562 C 524.738281 172.53125 525.195312 172.933594 525.667969 173.316406 C 526.144531 173.699219 526.636719 174.054688 527.148438 174.386719 C 527.660156 174.722656 528.183594 175.03125 528.726562 175.3125 C 529.265625 175.59375 529.820312 175.847656 530.386719 176.074219 C 530.953125 176.300781 531.527344 176.5 532.113281 176.671875 C 532.699219 176.84375 533.292969 176.984375 533.894531 177.097656 C 534.492188 177.210938 535.097656 177.292969 535.703125 177.34375 C 536.3125 177.398438 536.921875 177.421875 537.53125 177.414062 C 538.140625 177.410156 538.75 177.371094 539.355469 177.304688 C 539.960938 177.238281 540.5625 177.144531 541.160156 177.019531 C 541.757812 176.894531 542.347656 176.738281 542.929688 176.554688 C 543.511719 176.371094 544.082031 176.160156 544.644531 175.921875 C 545.203125 175.683594 545.75 175.414062 546.285156 175.121094 C 546.820312 174.828125 547.339844 174.511719 547.84375 174.167969 C 548.347656 173.820312 548.832031 173.453125 549.300781 173.0625 C 549.769531 172.671875 550.214844 172.257812 550.640625 171.820312 C 551.066406 171.382812 551.472656 170.929688 551.855469 170.453125 C 552.234375 169.976562 552.59375 169.484375 552.925781 168.972656 C 553.261719 168.464844 553.566406 167.9375 553.851562 167.398438 C 554.886719 165.578125 555.554688 163.632812 555.847656 161.5625 L 555.847656 156.953125 L 556.460938 122.09375 Z M 528.191406 142.671875 " fill-opacity="1" fill-rule="nonzero"/><path fill="#3571aa" d="M 71.265625 396.363281 L 67.578125 398.976562 C 67.035156 399.480469 66.523438 400.019531 66.046875 400.585938 C 65.566406 401.152344 65.125 401.746094 64.714844 402.367188 C 64.308594 402.984375 63.941406 403.628906 63.609375 404.292969 C 63.277344 404.957031 62.988281 405.640625 62.742188 406.339844 C 62.492188 407.039062 62.285156 407.75 62.121094 408.472656 C 61.957031 409.195312 61.839844 409.925781 61.761719 410.664062 C 61.6875 411.402344 61.65625 412.144531 61.667969 412.886719 C 61.679688 413.625 61.738281 414.363281 61.839844 415.101562 C 61.941406 415.835938 62.085938 416.5625 62.273438 417.28125 C 62.460938 417.996094 62.691406 418.699219 62.964844 419.390625 C 63.238281 420.082031 63.550781 420.753906 63.90625 421.40625 C 64.257812 422.058594 64.648438 422.6875 65.078125 423.292969 C 65.503906 423.898438 65.96875 424.476562 66.464844 425.027344 C 66.964844 425.578125 67.492188 426.097656 68.054688 426.582031 C 68.613281 427.070312 69.199219 427.523438 69.816406 427.9375 C 70.429688 428.355469 71.066406 428.734375 71.726562 429.074219 C 72.265625 429.355469 72.820312 429.609375 73.386719 429.835938 C 73.953125 430.0625 74.53125 430.261719 75.117188 430.433594 C 75.703125 430.605469 76.292969 430.746094 76.894531 430.859375 C 77.492188 430.972656 78.097656 431.058594 78.707031 431.113281 C 79.3125 431.164062 79.921875 431.191406 80.53125 431.183594 C 81.144531 431.179688 81.75 431.144531 82.359375 431.078125 C 82.964844 431.015625 83.566406 430.921875 84.164062 430.796875 C 84.761719 430.675781 85.355469 430.523438 85.9375 430.339844 C 86.519531 430.160156 87.089844 429.949219 87.652344 429.714844 C 88.214844 429.476562 88.765625 429.210938 89.300781 428.921875 C 89.839844 428.632812 90.359375 428.316406 90.867188 427.972656 C 91.371094 427.632812 91.859375 427.265625 92.328125 426.878906 C 92.800781 426.488281 93.25 426.078125 93.679688 425.644531 C 94.109375 425.210938 94.515625 424.757812 94.902344 424.285156 C 95.289062 423.8125 95.648438 423.320312 95.988281 422.8125 C 96.324219 422.304688 96.636719 421.78125 96.921875 421.242188 C 97.820312 419.332031 98.433594 417.335938 98.765625 415.253906 L 98.765625 410.800781 L 99.378906 375.785156 Z M 71.265625 396.363281 " fill-opacity="1" fill-rule="nonzero"/><path fill="#3571aa" d="M 225.828125 151.886719 L 222.292969 154.496094 C 220.753906 155.933594 219.476562 157.574219 218.453125 159.410156 C 218.179688 159.941406 217.933594 160.484375 217.714844 161.039062 C 217.492188 161.59375 217.300781 162.160156 217.136719 162.734375 C 216.972656 163.308594 216.835938 163.886719 216.730469 164.476562 C 216.621094 165.0625 216.542969 165.652344 216.492188 166.246094 C 216.445312 166.84375 216.425781 167.4375 216.433594 168.035156 C 216.441406 168.632812 216.480469 169.226562 216.546875 169.820312 C 216.613281 170.414062 216.710938 171 216.835938 171.585938 C 216.960938 172.167969 217.113281 172.746094 217.292969 173.3125 C 217.476562 173.882812 217.683594 174.441406 217.921875 174.988281 C 218.15625 175.539062 218.417969 176.074219 218.707031 176.59375 C 218.996094 177.117188 219.308594 177.625 219.648438 178.117188 C 219.984375 178.609375 220.347656 179.082031 220.734375 179.539062 C 221.117188 179.996094 221.523438 180.433594 221.949219 180.847656 C 222.378906 181.265625 222.824219 181.660156 223.292969 182.035156 C 223.757812 182.40625 224.242188 182.753906 224.742188 183.082031 C 225.242188 183.40625 225.757812 183.707031 226.289062 183.980469 C 226.816406 184.261719 227.355469 184.515625 227.910156 184.738281 C 228.460938 184.964844 229.023438 185.164062 229.597656 185.335938 C 230.167969 185.503906 230.746094 185.648438 231.335938 185.761719 C 231.921875 185.875 232.511719 185.957031 233.105469 186.011719 C 233.699219 186.066406 234.296875 186.09375 234.894531 186.089844 C 235.492188 186.085938 236.085938 186.050781 236.679688 185.988281 C 237.273438 185.925781 237.863281 185.832031 238.449219 185.710938 C 239.03125 185.589844 239.609375 185.441406 240.179688 185.265625 C 240.75 185.085938 241.308594 184.878906 241.859375 184.648438 C 242.410156 184.414062 242.945312 184.152344 243.46875 183.867188 C 243.996094 183.582031 244.503906 183.269531 244.996094 182.933594 C 245.488281 182.597656 245.964844 182.234375 246.421875 181.851562 C 246.878906 181.46875 247.316406 181.0625 247.734375 180.636719 C 248.152344 180.210938 248.546875 179.765625 248.921875 179.296875 C 249.292969 178.832031 249.644531 178.347656 249.96875 177.847656 C 250.296875 177.347656 250.597656 176.832031 250.871094 176.304688 C 251.90625 174.484375 252.574219 172.539062 252.867188 170.46875 L 252.867188 166.015625 L 253.480469 131.921875 Z M 225.828125 151.886719 " fill-opacity="1" fill-rule="nonzero"/><path fill="#3571aa" d="M 371.171875 97.832031 L 368.097656 99.980469 L 367.945312 99.980469 C 366.660156 101.257812 365.582031 102.691406 364.71875 104.28125 C 364.472656 104.746094 364.253906 105.222656 364.054688 105.710938 C 363.855469 106.195312 363.683594 106.691406 363.535156 107.195312 C 363.386719 107.699219 363.261719 108.210938 363.164062 108.726562 C 363.0625 109.242188 362.992188 109.761719 362.941406 110.285156 C 362.894531 110.808594 362.871094 111.332031 362.875 111.859375 C 362.878906 112.386719 362.910156 112.910156 362.964844 113.433594 C 363.019531 113.953125 363.101562 114.472656 363.207031 114.988281 C 363.316406 115.503906 363.445312 116.011719 363.601562 116.511719 C 363.757812 117.015625 363.941406 117.507812 364.144531 117.992188 C 364.347656 118.476562 364.578125 118.949219 364.828125 119.410156 C 365.082031 119.871094 365.355469 120.320312 365.648438 120.753906 C 365.945312 121.1875 366.261719 121.609375 366.597656 122.011719 C 366.933594 122.417969 367.289062 122.800781 367.664062 123.171875 C 368.039062 123.539062 368.429688 123.890625 368.839844 124.21875 C 369.25 124.550781 369.675781 124.859375 370.113281 125.148438 C 370.554688 125.4375 371.003906 125.703125 371.472656 125.945312 C 371.9375 126.191406 372.414062 126.410156 372.902344 126.609375 C 373.390625 126.804688 373.882812 126.980469 374.390625 127.128906 C 374.894531 127.277344 375.402344 127.398438 375.921875 127.496094 C 376.4375 127.597656 376.957031 127.667969 377.480469 127.714844 C 378.003906 127.761719 378.53125 127.785156 379.054688 127.78125 C 379.582031 127.777344 380.105469 127.746094 380.628906 127.691406 C 381.152344 127.632812 381.671875 127.554688 382.183594 127.445312 C 382.699219 127.339844 383.207031 127.207031 383.710938 127.050781 C 384.210938 126.894531 384.707031 126.710938 385.1875 126.507812 C 385.671875 126.300781 386.144531 126.074219 386.609375 125.820312 C 387.070312 125.570312 387.519531 125.296875 387.953125 125 C 388.386719 124.703125 388.804688 124.386719 389.210938 124.050781 C 389.613281 123.714844 390 123.359375 390.367188 122.984375 C 390.738281 122.609375 391.085938 122.21875 391.417969 121.808594 C 391.746094 121.398438 392.054688 120.972656 392.34375 120.535156 C 392.632812 120.09375 392.898438 119.640625 393.140625 119.175781 C 394.078125 117.609375 394.640625 115.921875 394.832031 114.109375 L 394.832031 110.269531 L 395.292969 80.171875 Z M 371.171875 97.832031 " fill-opacity="1" fill-rule="nonzero"/><path fill="#3571aa" d="M 127.34375 108.886719 L 125.191406 110.421875 C 124.25 111.316406 123.484375 112.339844 122.886719 113.496094 C 122.464844 114.152344 122.113281 114.84375 121.835938 115.570312 C 121.558594 116.300781 121.359375 117.050781 121.234375 117.820312 C 121.113281 118.59375 121.074219 119.367188 121.113281 120.144531 C 121.152344 120.925781 121.273438 121.691406 121.476562 122.445312 C 121.675781 123.199219 121.953125 123.925781 122.304688 124.621094 C 122.65625 125.320312 123.074219 125.972656 123.5625 126.578125 C 124.050781 127.1875 124.597656 127.742188 125.199219 128.234375 C 125.804688 128.730469 126.453125 129.15625 127.144531 129.515625 C 127.835938 129.875 128.558594 130.160156 129.3125 130.371094 C 130.066406 130.578125 130.832031 130.707031 131.609375 130.757812 C 132.386719 130.804688 133.164062 130.773438 133.9375 130.660156 C 134.707031 130.546875 135.460938 130.355469 136.195312 130.085938 C 136.925781 129.816406 137.621094 129.476562 138.285156 129.058594 C 138.945312 128.644531 139.554688 128.164062 140.117188 127.621094 C 140.675781 127.078125 141.175781 126.484375 141.613281 125.839844 C 142.050781 125.191406 142.414062 124.507812 142.707031 123.785156 C 143.347656 122.6875 143.757812 121.507812 143.9375 120.25 L 143.9375 117.488281 L 144.242188 96.601562 Z M 127.34375 108.886719 " fill-opacity="1" fill-rule="nonzero"/><path fill="#6b99d2" d="M 688.746094 382.542969 L 686.59375 384.078125 C 685.65625 384.917969 684.886719 385.890625 684.289062 386.996094 C 683.902344 387.648438 683.585938 388.335938 683.339844 389.054688 C 683.09375 389.773438 682.917969 390.507812 682.820312 391.261719 C 682.722656 392.011719 682.703125 392.769531 682.757812 393.523438 C 682.8125 394.28125 682.945312 395.027344 683.152344 395.757812 C 683.359375 396.488281 683.636719 397.1875 683.988281 397.863281 C 684.335938 398.535156 684.75 399.167969 685.226562 399.757812 C 685.707031 400.347656 686.238281 400.886719 686.824219 401.367188 C 687.414062 401.847656 688.042969 402.265625 688.714844 402.621094 C 689.386719 402.976562 690.085938 403.257812 690.816406 403.46875 C 691.546875 403.679688 692.289062 403.816406 693.046875 403.878906 C 693.804688 403.9375 694.558594 403.921875 695.3125 403.832031 C 696.066406 403.738281 696.804688 403.570312 697.523438 403.328125 C 698.242188 403.085938 698.929688 402.773438 699.585938 402.390625 C 700.242188 402.007812 700.855469 401.566406 701.421875 401.058594 C 701.988281 400.554688 702.496094 399.996094 702.949219 399.386719 C 703.402344 398.777344 703.789062 398.128906 704.109375 397.4375 C 704.730469 396.28125 705.140625 395.050781 705.339844 393.753906 L 705.339844 391.296875 L 705.800781 370.257812 Z M 688.746094 382.542969 " fill-opacity="1" fill-rule="nonzero"/><path fill="#3571aa" d="M 645.726562 108.886719 L 643.574219 110.421875 C 642.632812 111.316406 641.867188 112.339844 641.269531 113.496094 C 640.933594 114.148438 640.664062 114.832031 640.460938 115.539062 C 640.257812 116.25 640.128906 116.96875 640.066406 117.703125 C 640.007812 118.4375 640.019531 119.171875 640.101562 119.902344 C 640.1875 120.636719 640.339844 121.351562 640.566406 122.054688 C 640.789062 122.753906 641.082031 123.429688 641.4375 124.074219 C 641.796875 124.71875 642.214844 125.320312 642.691406 125.882812 C 643.164062 126.445312 643.691406 126.957031 644.269531 127.414062 C 644.847656 127.871094 645.460938 128.269531 646.117188 128.609375 C 646.773438 128.945312 647.453125 129.214844 648.164062 129.421875 C 648.871094 129.625 649.59375 129.753906 650.328125 129.816406 C 651.0625 129.878906 651.796875 129.867188 652.527344 129.785156 C 653.261719 129.703125 653.976562 129.550781 654.679688 129.324219 C 655.382812 129.101562 656.054688 128.8125 656.699219 128.453125 C 657.34375 128.097656 657.949219 127.683594 658.511719 127.207031 C 659.078125 126.730469 659.585938 126.207031 660.046875 125.628906 C 660.507812 125.054688 660.90625 124.4375 661.246094 123.785156 C 661.835938 122.675781 662.195312 121.5 662.320312 120.25 L 662.320312 117.488281 L 662.628906 96.601562 Z M 645.726562 108.886719 " fill-opacity="1" fill-rule="nonzero"/><path fill="#3571aa" d="M 44.683594 188.589844 L 42.535156 190.125 C 41.59375 191.019531 40.824219 192.042969 40.230469 193.195312 C 39.96875 193.835938 39.769531 194.496094 39.632812 195.175781 C 39.492188 195.851562 39.417969 196.539062 39.40625 197.230469 C 39.394531 197.921875 39.449219 198.609375 39.566406 199.289062 C 39.679688 199.972656 39.859375 200.640625 40.097656 201.289062 C 40.335938 201.9375 40.632812 202.558594 40.988281 203.152344 C 41.34375 203.746094 41.75 204.304688 42.207031 204.824219 C 42.664062 205.34375 43.167969 205.816406 43.710938 206.242188 C 44.257812 206.667969 44.835938 207.039062 45.453125 207.359375 C 46.066406 207.679688 46.707031 207.9375 47.367188 208.140625 C 48.03125 208.339844 48.707031 208.476562 49.394531 208.554688 C 50.082031 208.628906 50.769531 208.640625 51.460938 208.589844 C 52.152344 208.539062 52.832031 208.421875 53.5 208.246094 C 54.167969 208.066406 54.816406 207.832031 55.441406 207.53125 C 56.066406 207.234375 56.660156 206.882812 57.21875 206.476562 C 57.78125 206.070312 58.296875 205.613281 58.773438 205.113281 C 59.25 204.609375 59.671875 204.066406 60.046875 203.484375 C 60.691406 202.386719 61.101562 201.210938 61.277344 199.953125 L 61.277344 197.1875 L 61.738281 176.304688 Z M 44.683594 188.589844 " fill-opacity="1" fill-rule="nonzero"/><path fill="#3571aa" d="M 688.746094 167.242188 L 686.59375 168.777344 C 685.652344 169.671875 684.886719 170.695312 684.289062 171.851562 C 683.867188 172.503906 683.515625 173.199219 683.238281 173.925781 C 682.960938 174.65625 682.761719 175.40625 682.640625 176.175781 C 682.515625 176.949219 682.476562 177.722656 682.515625 178.5 C 682.558594 179.28125 682.675781 180.046875 682.878906 180.800781 C 683.078125 181.554688 683.355469 182.28125 683.707031 182.976562 C 684.058594 183.671875 684.476562 184.328125 684.964844 184.933594 C 685.453125 185.542969 686 186.097656 686.605469 186.589844 C 687.207031 187.085938 687.855469 187.511719 688.546875 187.871094 C 689.242188 188.230469 689.964844 188.515625 690.714844 188.726562 C 691.46875 188.933594 692.234375 189.0625 693.011719 189.113281 C 693.792969 189.160156 694.566406 189.128906 695.339844 189.015625 C 696.113281 188.902344 696.863281 188.710938 697.597656 188.441406 C 698.328125 188.171875 699.027344 187.832031 699.6875 187.414062 C 700.347656 187 700.957031 186.519531 701.519531 185.976562 C 702.078125 185.433594 702.578125 184.839844 703.015625 184.195312 C 703.453125 183.546875 703.816406 182.863281 704.109375 182.140625 C 704.75 181.042969 705.160156 179.863281 705.339844 178.605469 L 705.339844 175.84375 L 705.800781 154.957031 Z M 688.746094 167.242188 " fill-opacity="1" fill-rule="nonzero"/><path fill="#6b99d2" d="M 93.851562 577.417969 L 91.699219 578.957031 C 90.757812 579.847656 89.988281 580.871094 89.394531 582.027344 C 89.054688 582.683594 88.785156 583.363281 88.582031 584.074219 C 88.378906 584.78125 88.246094 585.503906 88.183594 586.238281 C 88.125 586.972656 88.132812 587.707031 88.21875 588.4375 C 88.300781 589.171875 88.453125 589.890625 88.679688 590.589844 C 88.90625 591.292969 89.195312 591.96875 89.554688 592.613281 C 89.910156 593.257812 90.328125 593.863281 90.804688 594.425781 C 91.28125 594.988281 91.808594 595.5 92.382812 595.957031 C 92.960938 596.417969 93.578125 596.816406 94.234375 597.152344 C 94.890625 597.492188 95.570312 597.761719 96.28125 597.964844 C 96.988281 598.167969 97.710938 598.300781 98.449219 598.363281 C 99.183594 598.421875 99.917969 598.410156 100.648438 598.328125 C 101.382812 598.246094 102.101562 598.089844 102.804688 597.867188 C 103.503906 597.640625 104.179688 597.351562 104.824219 596.992188 C 105.46875 596.636719 106.074219 596.21875 106.636719 595.742188 C 107.199219 595.269531 107.710938 594.742188 108.171875 594.164062 C 108.628906 593.585938 109.03125 592.972656 109.367188 592.316406 C 109.886719 591.1875 110.246094 590.011719 110.441406 588.785156 L 110.441406 586.171875 L 110.902344 565.132812 Z M 93.851562 577.417969 " fill-opacity="1" fill-rule="nonzero"/><path fill="#6b99d2" d="M 124.886719 247.867188 L 121.964844 250.015625 L 121.8125 250.015625 C 120.527344 251.292969 119.453125 252.726562 118.585938 254.316406 C 118.179688 255.234375 117.867188 256.183594 117.640625 257.160156 C 117.417969 258.140625 117.285156 259.128906 117.246094 260.132812 C 117.207031 261.136719 117.261719 262.132812 117.414062 263.128906 C 117.5625 264.121094 117.804688 265.089844 118.136719 266.035156 C 118.46875 266.984375 118.890625 267.890625 119.394531 268.761719 C 119.898438 269.628906 120.476562 270.441406 121.136719 271.199219 C 121.792969 271.960938 122.515625 272.648438 123.304688 273.273438 C 124.09375 273.894531 124.929688 274.4375 125.820312 274.902344 C 126.710938 275.367188 127.636719 275.746094 128.601562 276.035156 C 129.5625 276.324219 130.542969 276.519531 131.539062 276.625 C 132.539062 276.730469 133.539062 276.742188 134.539062 276.660156 C 135.542969 276.574219 136.527344 276.398438 137.492188 276.128906 C 138.460938 275.863281 139.394531 275.503906 140.296875 275.058594 C 141.195312 274.613281 142.046875 274.089844 142.847656 273.484375 C 143.648438 272.878906 144.386719 272.203125 145.058594 271.460938 C 145.734375 270.714844 146.332031 269.914062 146.855469 269.058594 C 147.628906 267.4375 148.191406 265.75 148.546875 263.988281 L 148.546875 260.152344 L 149.007812 230.359375 Z M 124.886719 247.867188 " fill-opacity="1" fill-rule="nonzero"/><path fill="#3571aa" d="M 624.371094 260.304688 L 621.296875 262.609375 C 619.914062 263.808594 618.835938 265.242188 618.070312 266.90625 C 617.832031 267.367188 617.613281 267.839844 617.421875 268.320312 C 617.226562 268.800781 617.058594 269.292969 616.914062 269.789062 C 616.769531 270.289062 616.648438 270.792969 616.550781 271.300781 C 616.457031 271.8125 616.386719 272.328125 616.339844 272.84375 C 616.296875 273.359375 616.277344 273.878906 616.28125 274.398438 C 616.289062 274.914062 616.320312 275.433594 616.375 275.949219 C 616.433594 276.464844 616.515625 276.976562 616.621094 277.484375 C 616.726562 277.992188 616.859375 278.492188 617.015625 278.988281 C 617.171875 279.484375 617.351562 279.96875 617.558594 280.445312 C 617.761719 280.921875 617.988281 281.390625 618.238281 281.84375 C 618.488281 282.300781 618.761719 282.742188 619.054688 283.167969 C 619.347656 283.597656 619.660156 284.007812 619.996094 284.40625 C 620.328125 284.804688 620.679688 285.183594 621.054688 285.546875 C 621.425781 285.910156 621.8125 286.253906 622.21875 286.578125 C 622.625 286.902344 623.042969 287.207031 623.476562 287.488281 C 623.914062 287.773438 624.363281 288.03125 624.820312 288.273438 C 625.28125 288.511719 625.753906 288.726562 626.238281 288.917969 C 626.71875 289.113281 627.207031 289.28125 627.707031 289.425781 C 628.207031 289.570312 628.710938 289.691406 629.222656 289.785156 C 629.730469 289.878906 630.246094 289.949219 630.761719 289.992188 C 631.28125 290.039062 631.796875 290.058594 632.316406 290.050781 C 632.835938 290.042969 633.355469 290.011719 633.871094 289.957031 C 634.386719 289.898438 634.898438 289.816406 635.40625 289.707031 C 635.914062 289.601562 636.414062 289.46875 636.910156 289.3125 C 637.40625 289.152344 637.890625 288.972656 638.367188 288.769531 C 638.84375 288.5625 639.3125 288.335938 639.765625 288.085938 C 640.21875 287.835938 640.660156 287.5625 641.089844 287.269531 C 641.519531 286.976562 641.929688 286.660156 642.328125 286.328125 C 642.722656 285.992188 643.105469 285.640625 643.464844 285.269531 C 643.828125 284.894531 644.171875 284.507812 644.496094 284.101562 C 644.820312 283.695312 645.121094 283.277344 645.40625 282.839844 C 645.6875 282.40625 645.949219 281.957031 646.1875 281.496094 C 647.078125 279.914062 647.640625 278.226562 647.878906 276.429688 L 647.878906 272.589844 L 648.492188 242.953125 Z M 624.371094 260.304688 " fill-opacity="1" fill-rule="nonzero"/><path fill="#3571aa" d="M 670.308594 552.082031 L 667.238281 554.230469 C 665.851562 555.433594 664.777344 556.867188 664.011719 558.53125 C 663.769531 558.992188 663.550781 559.460938 663.355469 559.945312 C 663.160156 560.425781 662.988281 560.914062 662.839844 561.414062 C 662.695312 561.914062 662.570312 562.417969 662.472656 562.925781 C 662.378906 563.4375 662.304688 563.953125 662.257812 564.46875 C 662.210938 564.988281 662.1875 565.503906 662.195312 566.023438 C 662.199219 566.542969 662.226562 567.0625 662.28125 567.578125 C 662.335938 568.097656 662.417969 568.609375 662.523438 569.117188 C 662.628906 569.628906 662.757812 570.128906 662.914062 570.625 C 663.066406 571.121094 663.246094 571.609375 663.449219 572.085938 C 663.652344 572.566406 663.878906 573.035156 664.125 573.488281 C 664.375 573.945312 664.644531 574.390625 664.9375 574.820312 C 665.230469 575.25 665.542969 575.664062 665.875 576.0625 C 666.207031 576.460938 666.558594 576.84375 666.929688 577.207031 C 667.300781 577.574219 667.6875 577.917969 668.09375 578.246094 C 668.496094 578.570312 668.917969 578.878906 669.351562 579.164062 C 669.785156 579.449219 670.234375 579.710938 670.691406 579.953125 C 671.152344 580.195312 671.625 580.414062 672.105469 580.609375 C 672.589844 580.804688 673.078125 580.972656 673.578125 581.121094 C 674.078125 581.269531 674.582031 581.390625 675.089844 581.488281 C 675.601562 581.585938 676.117188 581.65625 676.632812 581.703125 C 677.152344 581.75 677.671875 581.773438 678.191406 581.769531 C 678.710938 581.765625 679.230469 581.734375 679.746094 581.679688 C 680.261719 581.625 680.777344 581.546875 681.285156 581.441406 C 681.792969 581.335938 682.296875 581.203125 682.792969 581.050781 C 683.289062 580.894531 683.777344 580.714844 684.257812 580.515625 C 684.734375 580.3125 685.203125 580.085938 685.660156 579.835938 C 686.117188 579.589844 686.558594 579.320312 686.988281 579.027344 C 687.417969 578.734375 687.835938 578.421875 688.234375 578.089844 C 688.632812 577.757812 689.015625 577.40625 689.378906 577.035156 C 689.746094 576.664062 690.089844 576.277344 690.417969 575.871094 C 690.742188 575.46875 691.050781 575.050781 691.335938 574.613281 C 691.621094 574.179688 691.882812 573.734375 692.125 573.273438 C 692.96875 571.675781 693.53125 569.988281 693.816406 568.207031 L 693.816406 564.367188 L 694.429688 534.574219 Z M 670.308594 552.082031 " fill-opacity="1" fill-rule="nonzero"/><path fill="#b4e3fb" d="M 210.066406 86.84375 L 216.71875 90.683594 C 216.984375 90.835938 217.207031 91.035156 217.394531 91.277344 C 217.582031 91.519531 217.710938 91.789062 217.792969 92.082031 C 217.871094 92.378906 217.890625 92.675781 217.851562 92.980469 C 217.8125 93.28125 217.714844 93.566406 217.5625 93.832031 L 192.902344 136.519531 C 192.75 136.785156 192.550781 137.011719 192.308594 137.195312 C 192.066406 137.382812 191.796875 137.515625 191.503906 137.59375 C 191.207031 137.671875 190.910156 137.691406 190.605469 137.652344 C 190.300781 137.613281 190.019531 137.515625 189.753906 137.363281 L 183.101562 133.523438 C 182.835938 133.371094 182.609375 133.175781 182.425781 132.933594 C 182.238281 132.691406 182.105469 132.421875 182.027344 132.125 C 181.949219 131.832031 181.929688 131.53125 181.96875 131.230469 C 182.007812 130.925781 182.105469 130.644531 182.257812 130.378906 L 206.917969 87.6875 C 207.070312 87.421875 207.265625 87.199219 207.511719 87.011719 C 207.753906 86.824219 208.019531 86.695312 208.316406 86.613281 C 208.613281 86.535156 208.910156 86.515625 209.214844 86.554688 C 209.515625 86.59375 209.800781 86.691406 210.066406 86.84375 Z M 210.066406 86.84375 " fill-opacity="1" fill-rule="nonzero"/><path fill="#b4e3fb" d="M 71.933594 240.359375 L 78.585938 244.199219 C 78.851562 244.351562 79.078125 244.546875 79.261719 244.789062 C 79.449219 245.035156 79.582031 245.300781 79.660156 245.597656 C 79.738281 245.890625 79.757812 246.191406 79.71875 246.492188 C 79.679688 246.796875 79.582031 247.082031 79.429688 247.34375 L 54.769531 290.035156 C 54.617188 290.300781 54.421875 290.527344 54.179688 290.710938 C 53.9375 290.898438 53.667969 291.03125 53.371094 291.109375 C 53.078125 291.1875 52.777344 291.207031 52.472656 291.167969 C 52.171875 291.128906 51.886719 291.03125 51.621094 290.878906 L 44.96875 287.039062 C 44.707031 286.886719 44.480469 286.6875 44.292969 286.445312 C 44.109375 286.203125 43.976562 285.9375 43.894531 285.640625 C 43.816406 285.347656 43.796875 285.046875 43.835938 284.742188 C 43.878906 284.441406 43.972656 284.15625 44.125 283.894531 L 68.785156 241.203125 C 68.9375 240.9375 69.136719 240.710938 69.378906 240.527344 C 69.621094 240.339844 69.890625 240.207031 70.183594 240.128906 C 70.480469 240.050781 70.78125 240.03125 71.082031 240.070312 C 71.386719 240.109375 71.667969 240.207031 71.933594 240.359375 Z M 71.933594 240.359375 " fill-opacity="1" fill-rule="nonzero"/><path fill="#b4e3fb" d="M 721.058594 270.34375 L 727.710938 274.179688 C 727.976562 274.332031 728.203125 274.53125 728.386719 274.773438 C 728.574219 275.015625 728.707031 275.285156 728.785156 275.578125 C 728.863281 275.875 728.882812 276.175781 728.84375 276.476562 C 728.804688 276.78125 728.707031 277.0625 728.554688 277.328125 L 703.894531 320.019531 C 703.742188 320.28125 703.546875 320.507812 703.304688 320.695312 C 703.0625 320.878906 702.792969 321.011719 702.496094 321.089844 C 702.203125 321.171875 701.902344 321.191406 701.597656 321.152344 C 701.296875 321.109375 701.011719 321.015625 700.746094 320.863281 L 694.09375 317.023438 C 693.832031 316.871094 693.605469 316.671875 693.417969 316.429688 C 693.234375 316.1875 693.101562 315.917969 693.019531 315.625 C 692.941406 315.328125 692.921875 315.03125 692.960938 314.726562 C 693.003906 314.425781 693.097656 314.140625 693.25 313.875 L 717.910156 271.183594 C 718.0625 270.921875 718.261719 270.695312 718.503906 270.507812 C 718.746094 270.324219 719.015625 270.191406 719.308594 270.113281 C 719.605469 270.03125 719.90625 270.011719 720.207031 270.054688 C 720.511719 270.09375 720.792969 270.1875 721.058594 270.34375 Z M 721.058594 270.34375 " fill-opacity="1" fill-rule="nonzero"/><path fill="#b4e3fb" d="M 611.59375 150.980469 L 618.246094 154.820312 C 618.511719 154.972656 618.734375 155.167969 618.921875 155.410156 C 619.109375 155.652344 619.242188 155.921875 619.320312 156.21875 C 619.398438 156.511719 619.417969 156.8125 619.378906 157.113281 C 619.339844 157.417969 619.242188 157.699219 619.089844 157.964844 L 594.429688 200.65625 C 594.277344 200.921875 594.082031 201.144531 593.835938 201.332031 C 593.59375 201.515625 593.328125 201.648438 593.03125 201.730469 C 592.734375 201.808594 592.4375 201.828125 592.132812 201.789062 C 591.832031 201.746094 591.546875 201.652344 591.28125 201.5 L 584.628906 197.660156 C 584.363281 197.507812 584.140625 197.308594 583.953125 197.066406 C 583.765625 196.824219 583.636719 196.554688 583.554688 196.261719 C 583.476562 195.964844 583.457031 195.667969 583.496094 195.363281 C 583.535156 195.0625 583.632812 194.777344 583.785156 194.511719 L 608.445312 151.824219 C 608.597656 151.558594 608.796875 151.332031 609.039062 151.148438 C 609.28125 150.960938 609.550781 150.828125 609.84375 150.75 C 610.140625 150.671875 610.4375 150.652344 610.742188 150.691406 C 611.046875 150.730469 611.328125 150.828125 611.59375 150.980469 Z M 611.59375 150.980469 " fill-opacity="1" fill-rule="nonzero"/><path fill="#b4e3fb" d="M 484.082031 87.929688 L 490.734375 91.769531 C 491 91.921875 491.226562 92.117188 491.410156 92.359375 C 491.597656 92.601562 491.730469 92.871094 491.808594 93.167969 C 491.886719 93.460938 491.90625 93.761719 491.867188 94.0625 C 491.828125 94.367188 491.730469 94.648438 491.578125 94.914062 L 466.917969 137.605469 C 466.765625 137.871094 466.570312 138.09375 466.324219 138.28125 C 466.082031 138.46875 465.816406 138.601562 465.519531 138.679688 C 465.222656 138.757812 464.925781 138.777344 464.621094 138.738281 C 464.320312 138.699219 464.035156 138.601562 463.769531 138.449219 L 457.117188 134.609375 C 456.851562 134.457031 456.628906 134.257812 456.441406 134.015625 C 456.253906 133.773438 456.125 133.503906 456.042969 133.210938 C 455.964844 132.914062 455.945312 132.617188 455.984375 132.3125 C 456.023438 132.011719 456.121094 131.726562 456.273438 131.460938 L 480.933594 88.773438 C 481.085938 88.507812 481.285156 88.28125 481.527344 88.097656 C 481.769531 87.910156 482.039062 87.777344 482.332031 87.699219 C 482.628906 87.621094 482.925781 87.601562 483.230469 87.640625 C 483.535156 87.679688 483.816406 87.777344 484.082031 87.929688 Z M 484.082031 87.929688 " fill-opacity="1" fill-rule="nonzero"/><path fill="#b4e3fb" d="M 721.058594 452.90625 L 727.710938 456.746094 C 727.976562 456.898438 728.203125 457.097656 728.386719 457.339844 C 728.574219 457.582031 728.707031 457.851562 728.785156 458.144531 C 728.863281 458.441406 728.882812 458.738281 728.84375 459.042969 C 728.804688 459.34375 728.707031 459.628906 728.554688 459.894531 L 703.894531 502.585938 C 703.742188 502.847656 703.546875 503.074219 703.304688 503.257812 C 703.0625 503.445312 702.792969 503.578125 702.496094 503.65625 C 702.203125 503.734375 701.902344 503.757812 701.597656 503.714844 C 701.296875 503.675781 701.011719 503.578125 700.746094 503.425781 L 694.09375 499.589844 C 693.832031 499.433594 693.605469 499.238281 693.417969 498.996094 C 693.234375 498.753906 693.101562 498.484375 693.019531 498.1875 C 692.941406 497.894531 692.921875 497.59375 692.960938 497.292969 C 693.003906 496.988281 693.097656 496.707031 693.25 496.441406 L 717.910156 453.75 C 718.0625 453.484375 718.261719 453.261719 718.503906 453.074219 C 718.746094 452.890625 719.015625 452.757812 719.308594 452.675781 C 719.605469 452.597656 719.90625 452.578125 720.207031 452.617188 C 720.511719 452.660156 720.792969 452.753906 721.058594 452.90625 Z M 721.058594 452.90625 " fill-opacity="1" fill-rule="nonzero"/><path fill="#b4e3fb" d="M 81.757812 486.828125 L 88.410156 490.667969 C 88.671875 490.820312 88.898438 491.019531 89.085938 491.261719 C 89.269531 491.503906 89.402344 491.773438 89.484375 492.066406 C 89.5625 492.363281 89.582031 492.660156 89.542969 492.964844 C 89.5 493.265625 89.40625 493.550781 89.253906 493.816406 L 64.59375 536.503906 C 64.441406 536.769531 64.242188 536.996094 64 537.179688 C 63.757812 537.367188 63.488281 537.5 63.195312 537.578125 C 62.898438 537.65625 62.597656 537.675781 62.296875 537.636719 C 61.992188 537.597656 61.710938 537.5 61.445312 537.347656 L 54.792969 533.507812 C 54.527344 533.355469 54.300781 533.160156 54.117188 532.917969 C 53.929688 532.675781 53.796875 532.40625 53.71875 532.109375 C 53.640625 531.816406 53.621094 531.515625 53.660156 531.214844 C 53.699219 530.910156 53.796875 530.628906 53.949219 530.363281 L 78.609375 487.671875 C 78.761719 487.40625 78.957031 487.183594 79.199219 486.996094 C 79.441406 486.808594 79.710938 486.679688 80.007812 486.597656 C 80.300781 486.519531 80.601562 486.5 80.90625 486.539062 C 81.207031 486.578125 81.492188 486.675781 81.757812 486.828125 Z M 81.757812 486.828125 " fill-opacity="1" fill-rule="nonzero"/><path fill="#26477a" d="M 399.902344 190.433594 C 399.902344 191.054688 399.882812 191.675781 399.839844 192.296875 C 399.796875 192.917969 399.734375 193.535156 399.652344 194.148438 C 399.570312 194.757812 399.46875 195.363281 399.347656 195.960938 C 399.222656 196.554688 399.082031 197.144531 398.917969 197.71875 C 398.757812 198.296875 398.578125 198.859375 398.378906 199.40625 C 398.179688 199.957031 397.960938 200.492188 397.726562 201.011719 C 397.492188 201.53125 397.242188 202.03125 396.972656 202.511719 C 396.703125 202.992188 396.421875 203.457031 396.121094 203.898438 C 395.824219 204.335938 395.511719 204.757812 395.183594 205.152344 C 394.855469 205.546875 394.515625 205.917969 394.167969 206.265625 C 393.816406 206.609375 393.453125 206.929688 393.078125 207.226562 C 392.707031 207.519531 392.324219 207.785156 391.933594 208.023438 C 391.542969 208.261719 391.148438 208.472656 390.742188 208.652344 C 390.335938 208.835938 389.929688 208.988281 389.515625 209.109375 C 389.097656 209.230469 388.679688 209.320312 388.261719 209.382812 C 387.839844 209.441406 387.417969 209.472656 386.996094 209.472656 C 386.574219 209.472656 386.152344 209.441406 385.730469 209.382812 C 385.308594 209.320312 384.894531 209.230469 384.476562 209.109375 C 384.0625 208.988281 383.652344 208.835938 383.25 208.652344 C 382.84375 208.472656 382.449219 208.261719 382.058594 208.023438 C 381.667969 207.785156 381.285156 207.519531 380.914062 207.226562 C 380.539062 206.929688 380.175781 206.609375 379.824219 206.265625 C 379.472656 205.917969 379.136719 205.546875 378.808594 205.152344 C 378.480469 204.757812 378.167969 204.335938 377.871094 203.898438 C 377.570312 203.457031 377.289062 202.992188 377.019531 202.511719 C 376.75 202.03125 376.5 201.53125 376.265625 201.011719 C 376.03125 200.492188 375.8125 199.957031 375.613281 199.40625 C 375.414062 198.859375 375.234375 198.296875 375.074219 197.71875 C 374.910156 197.144531 374.769531 196.554688 374.644531 195.960938 C 374.523438 195.363281 374.421875 194.757812 374.339844 194.148438 C 374.253906 193.535156 374.195312 192.917969 374.152344 192.296875 C 374.109375 191.675781 374.089844 191.054688 374.089844 190.433594 C 374.089844 189.808594 374.109375 189.1875 374.152344 188.566406 C 374.195312 187.945312 374.253906 187.328125 374.339844 186.714844 C 374.421875 186.105469 374.523438 185.5 374.644531 184.902344 C 374.769531 184.308594 374.910156 183.71875 375.074219 183.144531 C 375.234375 182.566406 375.414062 182.003906 375.613281 181.457031 C 375.8125 180.90625 376.03125 180.371094 376.265625 179.851562 C 376.5 179.332031 376.75 178.832031 377.019531 178.351562 C 377.289062 177.871094 377.570312 177.40625 377.871094 176.964844 C 378.167969 176.527344 378.480469 176.109375 378.808594 175.710938 C 379.136719 175.316406 379.472656 174.945312 379.824219 174.597656 C 380.175781 174.253906 380.539062 173.933594 380.914062 173.636719 C 381.285156 173.34375 381.667969 173.078125 382.058594 172.839844 C 382.449219 172.601562 382.84375 172.390625 383.25 172.210938 C 383.652344 172.027344 384.0625 171.875 384.476562 171.753906 C 384.894531 171.632812 385.308594 171.542969 385.730469 171.480469 C 386.152344 171.421875 386.574219 171.390625 386.996094 171.390625 C 387.417969 171.390625 387.839844 171.421875 388.261719 171.480469 C 388.679688 171.542969 389.097656 171.632812 389.515625 171.753906 C 389.929688 171.875 390.335938 172.027344 390.742188 172.210938 C 391.148438 172.390625 391.542969 172.601562 391.933594 172.839844 C 392.324219 173.078125 392.707031 173.34375 393.078125 173.636719 C 393.453125 173.933594 393.816406 174.253906 394.167969 174.597656 C 394.515625 174.945312 394.855469 175.316406 395.183594 175.710938 C 395.511719 176.109375 395.824219 176.527344 396.121094 176.964844 C 396.421875 177.40625 396.703125 177.871094 396.972656 178.351562 C 397.242188 178.832031 397.492188 179.332031 397.726562 179.851562 C 397.960938 180.371094 398.179688 180.90625 398.378906 181.457031 C 398.578125 182.003906 398.757812 182.566406 398.917969 183.144531 C 399.082031 183.71875 399.222656 184.308594 399.347656 184.902344 C 399.46875 185.5 399.570312 186.105469 399.652344 186.714844 C 399.734375 187.328125 399.796875 187.945312 399.839844 188.566406 C 399.882812 189.1875 399.902344 189.808594 399.902344 190.433594 Z M 399.902344 190.433594 " fill-opacity="1" fill-rule="nonzero"/><g clip-path="url(#f2745a6451)"><path fill="#26477a" d="M 380.542969 189.050781 L 380.542969 648.980469 C 380.542969 649.828125 380.503906 650.671875 380.421875 651.511719 C 380.339844 652.355469 380.214844 653.1875 380.050781 654.019531 C 379.886719 654.847656 379.683594 655.667969 379.4375 656.476562 C 379.191406 657.285156 378.910156 658.082031 378.585938 658.863281 C 378.261719 659.644531 377.902344 660.40625 377.503906 661.152344 C 377.105469 661.898438 376.671875 662.625 376.203125 663.328125 C 375.730469 664.03125 375.230469 664.707031 374.691406 665.363281 C 374.15625 666.015625 373.589844 666.640625 372.992188 667.242188 C 372.394531 667.839844 371.769531 668.40625 371.113281 668.941406 C 370.460938 669.480469 369.78125 669.984375 369.078125 670.453125 C 368.375 670.921875 367.652344 671.355469 366.90625 671.757812 C 366.160156 672.15625 365.394531 672.515625 364.613281 672.839844 C 363.832031 673.164062 363.039062 673.449219 362.230469 673.695312 C 361.417969 673.9375 360.601562 674.144531 359.769531 674.308594 C 358.941406 674.476562 358.105469 674.597656 357.261719 674.683594 C 356.421875 674.765625 355.578125 674.804688 354.730469 674.804688 C 353.886719 674.804688 353.042969 674.765625 352.199219 674.683594 C 351.359375 674.597656 350.523438 674.476562 349.691406 674.308594 C 348.863281 674.144531 348.042969 673.9375 347.234375 673.695312 C 346.425781 673.449219 345.628906 673.164062 344.847656 672.839844 C 344.066406 672.515625 343.304688 672.15625 342.558594 671.757812 C 341.8125 671.355469 341.085938 670.921875 340.382812 670.453125 C 339.679688 669.984375 339.003906 669.480469 338.347656 668.941406 C 337.695312 668.40625 337.070312 667.839844 336.472656 667.242188 C 335.875 666.640625 335.304688 666.015625 334.769531 665.363281 C 334.234375 664.707031 333.730469 664.03125 333.261719 663.328125 C 332.792969 662.625 332.359375 661.898438 331.960938 661.152344 C 331.5625 660.40625 331.199219 659.644531 330.878906 658.863281 C 330.554688 658.082031 330.269531 657.285156 330.023438 656.476562 C 329.78125 655.667969 329.574219 654.847656 329.410156 654.019531 C 329.246094 653.1875 329.125 652.355469 329.042969 651.511719 C 328.960938 650.671875 328.917969 649.828125 328.917969 648.980469 L 316.015625 648.980469 C 316.015625 650.25 316.078125 651.511719 316.199219 652.773438 C 316.324219 654.035156 316.511719 655.289062 316.757812 656.53125 C 317.003906 657.773438 317.3125 659.003906 317.679688 660.214844 C 318.050781 661.429688 318.476562 662.621094 318.960938 663.789062 C 319.445312 664.960938 319.988281 666.105469 320.585938 667.222656 C 321.183594 668.339844 321.835938 669.425781 322.539062 670.480469 C 323.242188 671.535156 323.996094 672.550781 324.800781 673.53125 C 325.605469 674.511719 326.457031 675.449219 327.355469 676.347656 C 328.25 677.242188 329.1875 678.09375 330.167969 678.894531 C 331.148438 679.699219 332.167969 680.453125 333.222656 681.160156 C 334.277344 681.863281 335.363281 682.511719 336.480469 683.109375 C 337.597656 683.707031 338.742188 684.25 339.914062 684.734375 C 341.085938 685.21875 342.277344 685.644531 343.492188 686.015625 C 344.707031 686.382812 345.933594 686.691406 347.179688 686.9375 C 348.421875 687.183594 349.675781 687.371094 350.9375 687.492188 C 352.199219 687.617188 353.464844 687.679688 354.730469 687.679688 C 356 687.679688 357.265625 687.617188 358.527344 687.492188 C 359.789062 687.371094 361.042969 687.183594 362.285156 686.9375 C 363.527344 686.691406 364.757812 686.382812 365.96875 686.015625 C 367.183594 685.644531 368.375 685.21875 369.546875 684.734375 C 370.71875 684.25 371.863281 683.707031 372.984375 683.109375 C 374.101562 682.511719 375.1875 681.863281 376.242188 681.160156 C 377.296875 680.453125 378.3125 679.699219 379.292969 678.894531 C 380.273438 678.09375 381.210938 677.242188 382.109375 676.347656 C 383.003906 675.449219 383.855469 674.511719 384.660156 673.53125 C 385.464844 672.550781 386.21875 671.535156 386.921875 670.480469 C 387.628906 669.425781 388.28125 668.34375 388.878906 667.222656 C 389.476562 666.105469 390.015625 664.960938 390.5 663.789062 C 390.988281 662.621094 391.414062 661.429688 391.78125 660.214844 C 392.148438 659.003906 392.457031 657.773438 392.703125 656.53125 C 392.953125 655.289062 393.136719 654.035156 393.261719 652.773438 C 393.386719 651.511719 393.449219 650.25 393.449219 648.980469 L 393.449219 189.050781 Z M 380.542969 189.050781 " fill-opacity="1" fill-rule="nonzero"/></g><path fill="#ffb544" d="M 629.289062 431.222656 L 629.289062 432.144531 C 629.183594 430.226562 628.988281 428.3125 628.703125 426.414062 C 628.417969 424.511719 628.042969 422.625 627.578125 420.761719 C 627.113281 418.894531 626.558594 417.054688 625.917969 415.242188 C 625.28125 413.425781 624.554688 411.648438 623.746094 409.902344 C 622.9375 408.160156 622.046875 406.457031 621.074219 404.796875 C 620.105469 403.136719 619.054688 401.527344 617.929688 399.964844 C 616.808594 398.40625 615.609375 396.902344 614.34375 395.457031 C 613.074219 394.007812 611.742188 392.625 610.34375 391.304688 C 608.945312 389.984375 607.484375 388.734375 605.964844 387.554688 C 604.449219 386.371094 602.878906 385.265625 601.253906 384.234375 C 599.628906 383.203125 597.960938 382.25 596.246094 381.375 C 594.535156 380.5 592.78125 379.710938 590.992188 379.003906 C 589.203125 378.296875 587.382812 377.679688 585.535156 377.144531 C 583.6875 376.609375 581.816406 376.164062 579.925781 375.808594 C 578.035156 375.453125 576.132812 375.1875 574.21875 375.011719 C 572.300781 374.835938 570.382812 374.753906 568.457031 374.761719 C 566.53125 374.765625 564.613281 374.867188 562.699219 375.054688 C 560.785156 375.246094 558.882812 375.527344 556.996094 375.894531 C 555.105469 376.265625 553.242188 376.726562 551.398438 377.273438 C 549.550781 377.820312 547.738281 378.457031 545.953125 379.175781 C 544.171875 379.898438 542.425781 380.699219 540.71875 381.585938 C 539.011719 382.472656 537.347656 383.4375 535.734375 384.480469 C 534.117188 385.527344 532.554688 386.644531 531.046875 387.835938 C 529.535156 389.03125 528.085938 390.292969 526.699219 391.621094 C 525.308594 392.953125 523.984375 394.347656 522.730469 395.804688 C 521.472656 397.257812 520.289062 398.773438 519.175781 400.339844 C 518.0625 401.910156 517.027344 403.527344 516.070312 405.195312 C 515.109375 406.863281 514.234375 408.570312 513.4375 410.324219 C 512.640625 412.074219 511.929688 413.859375 511.304688 415.675781 C 510.675781 417.496094 510.140625 419.339844 509.6875 421.207031 C 509.238281 423.078125 508.875 424.964844 508.605469 426.867188 C 508.335938 428.773438 508.152344 430.683594 508.066406 432.605469 C 508.066406 430.625 507.96875 428.648438 507.773438 426.675781 C 507.578125 424.703125 507.289062 422.746094 506.902344 420.800781 C 506.515625 418.859375 506.035156 416.9375 505.457031 415.042969 C 504.882812 413.144531 504.214844 411.28125 503.457031 409.453125 C 502.699219 407.621094 501.851562 405.832031 500.917969 404.085938 C 499.980469 402.335938 498.964844 400.640625 497.863281 398.992188 C 496.761719 397.34375 495.582031 395.753906 494.324219 394.222656 C 493.066406 392.691406 491.738281 391.222656 490.335938 389.824219 C 488.933594 388.421875 487.464844 387.09375 485.933594 385.835938 C 484.402344 384.578125 482.808594 383.398438 481.160156 382.296875 C 479.511719 381.195312 477.816406 380.179688 476.066406 379.246094 C 474.316406 378.3125 472.527344 377.464844 470.695312 376.707031 C 468.863281 375.949219 467 375.28125 465.101562 374.707031 C 463.207031 374.132812 461.285156 373.648438 459.339844 373.261719 C 457.394531 372.878906 455.4375 372.585938 453.464844 372.390625 C 451.492188 372.199219 449.511719 372.101562 447.53125 372.101562 C 445.546875 372.101562 443.570312 372.199219 441.597656 372.390625 C 439.625 372.585938 437.664062 372.878906 435.722656 373.261719 C 433.777344 373.648438 431.855469 374.132812 429.957031 374.707031 C 428.0625 375.28125 426.195312 375.949219 424.363281 376.707031 C 422.535156 377.464844 420.742188 378.3125 418.996094 379.246094 C 417.246094 380.179688 415.546875 381.195312 413.898438 382.296875 C 412.25 383.398438 410.660156 384.578125 409.128906 385.835938 C 407.59375 387.09375 406.128906 388.421875 404.726562 389.824219 C 403.324219 391.222656 401.996094 392.691406 400.738281 394.222656 C 399.480469 395.753906 398.300781 397.34375 397.199219 398.992188 C 396.097656 400.640625 395.078125 402.335938 394.144531 404.085938 C 393.210938 405.832031 392.363281 407.621094 391.605469 409.453125 C 390.84375 411.28125 390.179688 413.144531 389.601562 415.042969 C 389.027344 416.9375 388.546875 418.859375 388.160156 420.800781 C 387.773438 422.746094 387.480469 424.703125 387.289062 426.675781 C 387.09375 428.648438 386.996094 430.625 386.996094 432.605469 C 386.898438 430.6875 386.710938 428.773438 386.433594 426.871094 C 386.152344 424.96875 385.785156 423.082031 385.328125 421.214844 C 384.871094 419.347656 384.324219 417.507812 383.691406 415.691406 C 383.058594 413.875 382.339844 412.09375 381.535156 410.347656 C 380.734375 408.597656 379.851562 406.894531 378.886719 405.230469 C 377.921875 403.566406 376.878906 401.953125 375.761719 400.386719 C 374.640625 398.824219 373.449219 397.316406 372.1875 395.863281 C 370.925781 394.414062 369.597656 393.023438 368.203125 391.699219 C 366.808594 390.375 365.355469 389.117188 363.84375 387.929688 C 362.328125 386.746094 360.761719 385.632812 359.144531 384.59375 C 357.523438 383.554688 355.859375 382.597656 354.148438 381.71875 C 352.4375 380.839844 350.6875 380.042969 348.902344 379.328125 C 347.117188 378.613281 345.300781 377.988281 343.453125 377.445312 C 341.605469 376.90625 339.738281 376.453125 337.851562 376.089844 C 335.960938 375.726562 334.058594 375.453125 332.144531 375.273438 C 330.226562 375.089844 328.308594 375 326.382812 375 C 324.460938 375 322.542969 375.089844 320.625 375.273438 C 318.710938 375.453125 316.808594 375.726562 314.917969 376.089844 C 313.03125 376.453125 311.164062 376.90625 309.316406 377.445312 C 307.46875 377.988281 305.652344 378.613281 303.867188 379.328125 C 302.082031 380.042969 300.332031 380.839844 298.621094 381.71875 C 296.910156 382.597656 295.246094 383.554688 293.625 384.59375 C 292.007812 385.632812 290.441406 386.746094 288.925781 387.929688 C 287.414062 389.117188 285.960938 390.375 284.566406 391.699219 C 283.171875 393.023438 281.84375 394.414062 280.582031 395.863281 C 279.320312 397.316406 278.128906 398.824219 277.007812 400.386719 C 275.890625 401.953125 274.847656 403.566406 273.882812 405.230469 C 272.917969 406.894531 272.035156 408.597656 271.234375 410.347656 C 270.429688 412.09375 269.710938 413.875 269.078125 415.691406 C 268.445312 417.507812 267.898438 419.347656 267.441406 421.214844 C 266.984375 423.082031 266.617188 424.96875 266.335938 426.871094 C 266.058594 428.773438 265.871094 430.6875 265.773438 432.605469 C 265.78125 430.625 265.691406 428.648438 265.503906 426.675781 C 265.316406 424.703125 265.03125 422.746094 264.652344 420.800781 C 264.273438 418.855469 263.796875 416.933594 263.230469 415.039062 C 262.660156 413.140625 262 411.273438 261.246094 409.441406 C 260.496094 407.609375 259.65625 405.816406 258.726562 404.066406 C 257.800781 402.316406 256.789062 400.613281 255.691406 398.960938 C 254.597656 397.3125 253.421875 395.71875 252.171875 394.183594 C 250.917969 392.644531 249.59375 391.175781 248.199219 389.769531 C 246.800781 388.363281 245.339844 387.027344 243.8125 385.765625 C 242.285156 384.503906 240.699219 383.320312 239.054688 382.210938 C 237.410156 381.105469 235.71875 380.082031 233.972656 379.140625 C 232.226562 378.199219 230.441406 377.347656 228.613281 376.582031 C 226.785156 375.820312 224.921875 375.144531 223.027344 374.5625 C 221.132812 373.980469 219.214844 373.492188 217.273438 373.097656 C 215.328125 372.703125 213.371094 372.40625 211.402344 372.207031 C 209.429688 372.003906 207.453125 371.898438 205.46875 371.890625 C 203.488281 371.882812 201.507812 371.972656 199.535156 372.160156 C 197.5625 372.347656 195.605469 372.628906 193.65625 373.007812 C 191.710938 373.386719 189.789062 373.859375 187.890625 374.429688 C 185.992188 374.996094 184.125 375.65625 182.292969 376.40625 C 180.457031 377.15625 178.664062 377.996094 176.914062 378.925781 C 175.160156 379.851562 173.457031 380.863281 171.804688 381.957031 C 170.152344 383.050781 168.558594 384.222656 167.023438 385.472656 C 165.484375 386.722656 164.011719 388.046875 162.605469 389.441406 C 161.199219 390.839844 159.863281 392.300781 158.597656 393.824219 C 157.335938 395.351562 156.148438 396.9375 155.042969 398.578125 C 153.933594 400.222656 152.910156 401.914062 151.96875 403.660156 C 151.027344 405.402344 150.171875 407.1875 149.40625 409.015625 C 148.640625 410.84375 147.964844 412.703125 147.382812 414.597656 C 146.800781 416.488281 146.3125 418.40625 145.917969 420.347656 C 145.523438 422.289062 145.222656 424.246094 145.019531 426.21875 C 144.816406 428.1875 144.714844 430.164062 144.703125 432.144531 L 144.703125 431.222656 C 144.703125 427.261719 144.800781 423.300781 144.996094 419.339844 C 145.191406 415.382812 145.484375 411.429688 145.871094 407.488281 C 146.261719 403.542969 146.746094 399.609375 147.328125 395.691406 C 147.910156 391.769531 148.585938 387.867188 149.359375 383.976562 C 150.132812 380.089844 151.003906 376.226562 151.964844 372.378906 C 152.929688 368.535156 153.988281 364.71875 155.136719 360.925781 C 156.289062 357.132812 157.53125 353.371094 158.867188 349.636719 C 160.203125 345.90625 161.628906 342.210938 163.148438 338.546875 C 164.664062 334.886719 166.273438 331.265625 167.96875 327.679688 C 169.664062 324.097656 171.445312 320.558594 173.3125 317.0625 C 175.183594 313.570312 177.136719 310.121094 179.175781 306.722656 C 181.214844 303.320312 183.335938 299.972656 185.539062 296.679688 C 187.742188 293.382812 190.023438 290.144531 192.386719 286.960938 C 194.746094 283.777344 197.1875 280.652344 199.703125 277.589844 C 202.21875 274.527344 204.808594 271.527344 207.46875 268.589844 C 210.132812 265.652344 212.867188 262.785156 215.671875 259.980469 C 218.472656 257.179688 221.34375 254.445312 224.28125 251.785156 C 227.222656 249.121094 230.222656 246.535156 233.289062 244.019531 C 236.351562 241.507812 239.476562 239.070312 242.664062 236.707031 C 245.847656 234.347656 249.089844 232.066406 252.386719 229.863281 C 255.683594 227.660156 259.03125 225.542969 262.433594 223.503906 C 265.835938 221.464844 269.285156 219.511719 272.78125 217.644531 C 276.277344 215.777344 279.820312 213.996094 283.402344 212.300781 C 286.988281 210.605469 290.613281 209 294.273438 207.484375 C 297.9375 205.96875 301.636719 204.542969 305.371094 203.207031 C 309.105469 201.871094 312.867188 200.628906 316.664062 199.476562 C 320.457031 198.328125 324.277344 197.269531 328.125 196.308594 C 331.96875 195.34375 335.839844 194.476562 339.726562 193.703125 C 343.617188 192.929688 347.523438 192.253906 351.445312 191.671875 C 355.367188 191.089844 359.300781 190.605469 363.246094 190.214844 C 367.195312 189.828125 371.148438 189.535156 375.105469 189.339844 C 379.066406 189.148438 383.03125 189.050781 386.996094 189.050781 C 390.960938 189.050781 394.925781 189.148438 398.882812 189.339844 C 402.84375 189.535156 406.796875 189.828125 410.746094 190.214844 C 414.691406 190.605469 418.625 191.089844 422.546875 191.671875 C 426.46875 192.253906 430.375 192.929688 434.265625 193.703125 C 438.152344 194.476562 442.019531 195.34375 445.867188 196.308594 C 449.714844 197.269531 453.535156 198.328125 457.328125 199.476562 C 461.125 200.628906 464.886719 201.871094 468.621094 203.207031 C 472.355469 204.542969 476.054688 205.96875 479.714844 207.484375 C 483.378906 209 487.003906 210.605469 490.589844 212.300781 C 494.171875 213.996094 497.714844 215.777344 501.210938 217.644531 C 504.707031 219.511719 508.15625 221.464844 511.558594 223.503906 C 514.960938 225.542969 518.308594 227.660156 521.605469 229.863281 C 524.902344 232.066406 528.144531 234.347656 531.328125 236.707031 C 534.511719 239.070312 537.636719 241.507812 540.703125 244.019531 C 543.769531 246.535156 546.769531 249.121094 549.707031 251.785156 C 552.648438 254.445312 555.519531 257.179688 558.320312 259.980469 C 561.125 262.785156 563.859375 265.652344 566.523438 268.589844 C 569.183594 271.527344 571.773438 274.527344 574.289062 277.589844 C 576.804688 280.652344 579.242188 283.777344 581.605469 286.960938 C 583.96875 290.144531 586.25 293.382812 588.453125 296.679688 C 590.65625 299.972656 592.777344 303.320312 594.816406 306.722656 C 596.855469 310.121094 598.808594 313.570312 600.675781 317.0625 C 602.546875 320.558594 604.328125 324.097656 606.023438 327.679688 C 607.71875 331.265625 609.328125 334.886719 610.84375 338.546875 C 612.359375 342.210938 613.789062 345.90625 615.125 349.636719 C 616.460938 353.371094 617.703125 357.132812 618.855469 360.925781 C 620.003906 364.71875 621.0625 368.535156 622.027344 372.378906 C 622.988281 376.226562 623.859375 380.089844 624.632812 383.976562 C 625.40625 387.867188 626.082031 391.769531 626.664062 395.691406 C 627.246094 399.609375 627.730469 403.542969 628.121094 407.488281 C 628.507812 411.429688 628.800781 415.382812 628.996094 419.339844 C 629.191406 423.300781 629.289062 427.261719 629.289062 431.222656 Z M 629.289062 431.222656 " fill-opacity="1" fill-rule="nonzero"/></svg>