<svg xmlns="http://www.w3.org/2000/svg" xmlns:xlink="http://www.w3.org/1999/xlink" width="1024" zoomAndPan="magnify" viewBox="0 0 768 767.999994" height="1024" preserveAspectRatio="xMidYMid meet" version="1.0"><defs><clipPath id="2e1720d19b"><path d="M 241 39 L 292 39 L 292 133 L 241 133 Z M 241 39 " clip-rule="nonzero"/></clipPath><clipPath id="ea941f9c65"><path d="M 102.769531 174 L 197 174 L 197 225 L 102.769531 225 Z M 102.769531 174 " clip-rule="nonzero"/></clipPath><clipPath id="41a3a3f67a"><path d="M 395 465 L 665.269531 465 L 665.269531 729 L 395 729 Z M 395 465 " clip-rule="nonzero"/></clipPath></defs><path fill="#ffb544" d="M 344.539062 197.332031 C 344.535156 198.597656 344.496094 199.863281 344.429688 201.128906 C 344.363281 202.394531 344.265625 203.65625 344.136719 204.914062 C 344.007812 206.175781 343.847656 207.429688 343.65625 208.683594 C 343.464844 209.933594 343.242188 211.179688 342.992188 212.421875 C 342.738281 213.664062 342.457031 214.898438 342.144531 216.125 C 341.832031 217.351562 341.488281 218.570312 341.117188 219.78125 C 340.746094 220.992188 340.34375 222.191406 339.914062 223.382812 C 339.480469 224.570312 339.019531 225.75 338.53125 226.917969 C 338.042969 228.085938 337.527344 229.242188 336.980469 230.386719 C 336.433594 231.527344 335.863281 232.65625 335.261719 233.773438 C 334.660156 234.886719 334.03125 235.984375 333.375 237.070312 C 332.722656 238.152344 332.042969 239.21875 331.332031 240.269531 C 330.625 241.320312 329.894531 242.355469 329.136719 243.367188 C 328.378906 244.382812 327.597656 245.378906 326.789062 246.355469 C 325.984375 247.332031 325.152344 248.285156 324.300781 249.222656 C 323.445312 250.15625 322.570312 251.070312 321.671875 251.964844 C 320.773438 252.855469 319.855469 253.726562 318.914062 254.574219 C 317.972656 255.421875 317.011719 256.246094 316.03125 257.046875 C 315.046875 257.847656 314.046875 258.621094 313.027344 259.375 C 312.007812 260.125 310.972656 260.851562 309.917969 261.550781 C 308.863281 262.25 307.789062 262.925781 306.703125 263.574219 C 305.613281 264.222656 304.511719 264.84375 303.390625 265.4375 C 302.273438 266.03125 301.140625 266.597656 299.996094 267.132812 C 298.847656 267.671875 297.691406 268.183594 296.519531 268.664062 C 295.347656 269.144531 294.164062 269.597656 292.972656 270.023438 C 291.777344 270.445312 290.574219 270.839844 289.363281 271.203125 C 288.148438 271.570312 286.929688 271.902344 285.699219 272.207031 C 284.46875 272.511719 283.234375 272.785156 281.992188 273.03125 C 280.75 273.273438 279.5 273.488281 278.25 273.671875 C 276.996094 273.855469 275.738281 274.007812 274.476562 274.128906 C 273.21875 274.25 271.953125 274.339844 270.6875 274.398438 C 269.425781 274.457031 268.160156 274.488281 266.890625 274.484375 C 265.625 274.480469 264.359375 274.449219 263.09375 274.382812 C 261.832031 274.316406 260.570312 274.222656 259.308594 274.097656 C 258.046875 273.96875 256.792969 273.8125 255.539062 273.625 C 254.289062 273.433594 253.039062 273.214844 251.800781 272.96875 C 250.558594 272.71875 249.324219 272.4375 248.09375 272.128906 C 246.867188 271.820312 245.648438 271.480469 244.4375 271.109375 C 243.226562 270.738281 242.023438 270.339844 240.832031 269.910156 C 239.640625 269.484375 238.460938 269.027344 237.289062 268.539062 C 236.121094 268.054688 234.964844 267.539062 233.820312 266.996094 C 232.675781 266.453125 231.546875 265.882812 230.429688 265.28125 C 229.316406 264.683594 228.214844 264.058594 227.128906 263.40625 C 226.042969 262.753906 224.976562 262.074219 223.921875 261.371094 C 222.871094 260.664062 221.835938 259.933594 220.820312 259.179688 C 219.804688 258.421875 218.808594 257.644531 217.828125 256.839844 C 216.851562 256.035156 215.894531 255.207031 214.957031 254.355469 C 214.019531 253.503906 213.101562 252.628906 212.207031 251.734375 C 211.3125 250.835938 210.441406 249.917969 209.59375 248.980469 C 208.742188 248.042969 207.917969 247.082031 207.113281 246.101562 C 206.3125 245.121094 205.535156 244.125 204.78125 243.105469 C 204.027344 242.089844 203.296875 241.054688 202.59375 240 C 201.894531 238.945312 201.214844 237.875 200.566406 236.789062 C 199.914062 235.703125 199.292969 234.601562 198.695312 233.484375 C 198.101562 232.367188 197.53125 231.234375 196.992188 230.089844 C 196.449219 228.945312 195.9375 227.789062 195.453125 226.617188 C 194.96875 225.449219 194.515625 224.265625 194.089844 223.074219 C 193.664062 221.882812 193.265625 220.679688 192.898438 219.46875 C 192.53125 218.253906 192.195312 217.035156 191.886719 215.808594 C 191.578125 214.578125 191.300781 213.34375 191.054688 212.101562 C 190.808594 210.859375 190.59375 209.613281 190.40625 208.359375 C 190.222656 207.105469 190.066406 205.851562 189.941406 204.589844 C 189.820312 203.328125 189.726562 202.066406 189.664062 200.800781 C 189.601562 199.539062 189.570312 198.273438 189.570312 197.003906 C 189.570312 195.738281 189.601562 194.472656 189.664062 193.210938 C 189.726562 191.945312 189.820312 190.683594 189.941406 189.421875 C 190.066406 188.160156 190.222656 186.90625 190.40625 185.652344 C 190.59375 184.398438 190.808594 183.152344 191.054688 181.910156 C 191.300781 180.667969 191.578125 179.433594 191.886719 178.203125 C 192.195312 176.976562 192.53125 175.757812 192.898438 174.542969 C 193.265625 173.332031 193.664062 172.128906 194.089844 170.9375 C 194.515625 169.746094 194.96875 168.5625 195.453125 167.394531 C 195.9375 166.222656 196.449219 165.066406 196.992188 163.921875 C 197.53125 162.777344 198.101562 161.644531 198.695312 160.527344 C 199.292969 159.410156 199.914062 158.308594 200.566406 157.222656 C 201.214844 156.136719 201.890625 155.066406 202.59375 154.011719 C 203.296875 152.960938 204.027344 151.921875 204.78125 150.90625 C 205.53125 149.886719 206.3125 148.890625 207.113281 147.910156 C 207.914062 146.929688 208.742188 145.972656 209.589844 145.03125 C 210.441406 144.09375 211.3125 143.175781 212.207031 142.277344 C 213.101562 141.382812 214.019531 140.507812 214.957031 139.65625 C 215.894531 138.804688 216.851562 137.976562 217.828125 137.171875 C 218.804688 136.367188 219.804688 135.589844 220.820312 134.832031 C 221.835938 134.078125 222.871094 133.347656 223.921875 132.640625 C 224.972656 131.9375 226.042969 131.257812 227.128906 130.605469 C 228.214844 129.953125 229.3125 129.328125 230.429688 128.730469 C 231.546875 128.128906 232.675781 127.558594 233.820312 127.015625 C 234.964844 126.472656 236.121094 125.957031 237.289062 125.472656 C 238.460938 124.984375 239.640625 124.527344 240.832031 124.101562 C 242.023438 123.671875 243.222656 123.273438 244.433594 122.902344 C 245.648438 122.53125 246.867188 122.191406 248.09375 121.882812 C 249.320312 121.574219 250.558594 121.292969 251.796875 121.042969 C 253.039062 120.796875 254.285156 120.578125 255.539062 120.386719 C 256.792969 120.199219 258.046875 120.042969 259.308594 119.914062 C 260.566406 119.789062 261.832031 119.695312 263.09375 119.628906 C 264.359375 119.5625 265.625 119.53125 266.890625 119.527344 C 268.164062 119.523438 269.4375 119.546875 270.710938 119.605469 C 271.984375 119.664062 273.253906 119.753906 274.523438 119.871094 C 275.792969 119.992188 277.054688 120.144531 278.316406 120.328125 C 279.578125 120.511719 280.832031 120.722656 282.082031 120.96875 C 283.332031 121.214844 284.578125 121.488281 285.8125 121.796875 C 287.050781 122.101562 288.277344 122.4375 289.496094 122.804688 C 290.71875 123.171875 291.929688 123.570312 293.128906 123.996094 C 294.328125 124.421875 295.519531 124.878906 296.695312 125.363281 C 297.875 125.851562 299.039062 126.363281 300.191406 126.910156 C 301.34375 127.453125 302.480469 128.023438 303.605469 128.621094 C 304.730469 129.222656 305.839844 129.847656 306.929688 130.503906 C 308.023438 131.15625 309.101562 131.835938 310.160156 132.546875 C 311.21875 133.253906 312.261719 133.984375 313.285156 134.746094 C 314.308594 135.503906 315.3125 136.289062 316.296875 137.097656 C 317.28125 137.902344 318.242188 138.738281 319.1875 139.59375 C 320.128906 140.449219 321.050781 141.328125 321.953125 142.230469 C 322.851562 143.132812 323.730469 144.054688 324.582031 145 C 325.4375 145.945312 326.269531 146.910156 327.074219 147.894531 C 327.878906 148.882812 328.664062 149.886719 329.417969 150.914062 C 330.175781 151.9375 330.90625 152.980469 331.613281 154.039062 C 332.316406 155.101562 332.996094 156.179688 333.648438 157.273438 C 334.300781 158.367188 334.925781 159.476562 335.523438 160.601562 C 336.117188 161.730469 336.6875 162.867188 337.230469 164.019531 C 337.769531 165.175781 338.28125 166.339844 338.765625 167.519531 C 339.246094 168.699219 339.703125 169.886719 340.125 171.089844 C 340.550781 172.289062 340.945312 173.5 341.308594 174.722656 C 341.671875 175.941406 342.007812 177.171875 342.3125 178.410156 C 342.613281 179.644531 342.886719 180.890625 343.128906 182.140625 C 343.371094 183.390625 343.582031 184.644531 343.765625 185.90625 C 343.945312 187.167969 344.09375 188.433594 344.210938 189.703125 C 344.328125 190.96875 344.414062 192.242188 344.46875 193.511719 C 344.523438 194.785156 344.546875 196.058594 344.539062 197.332031 Z M 344.539062 197.332031 " fill-opacity="1" fill-rule="nonzero"/><path fill="#ffae46" d="M 265.582031 39.925781 L 268.199219 39.925781 C 268.378906 39.925781 268.535156 39.988281 268.660156 40.117188 C 268.789062 40.242188 268.851562 40.398438 268.851562 40.578125 L 268.851562 108.984375 C 268.851562 109.164062 268.789062 109.320312 268.660156 109.445312 C 268.535156 109.574219 268.378906 109.636719 268.199219 109.636719 L 265.582031 109.636719 C 265.402344 109.636719 265.25 109.574219 265.121094 109.445312 C 264.992188 109.320312 264.929688 109.164062 264.929688 108.984375 L 264.929688 40.578125 C 264.929688 40.398438 264.992188 40.242188 265.121094 40.117188 C 265.25 39.988281 265.402344 39.925781 265.582031 39.925781 Z M 265.582031 39.925781 " fill-opacity="1" fill-rule="nonzero"/><g clip-path="url(#2e1720d19b)"><path stroke-linecap="butt" transform="matrix(1.634699, 0, 0, 1.634563, 102.767775, 39.107234)" fill="none" stroke-linejoin="miter" d="M 99.598918 0.500775 L 101.199939 0.500775 C 101.309859 0.500775 101.405443 0.539011 101.481909 0.617874 C 101.560766 0.694347 101.598999 0.789938 101.598999 0.899868 L 101.598999 42.749739 C 101.598999 42.859669 101.560766 42.955261 101.481909 43.031734 C 101.405443 43.110597 101.309859 43.148833 101.199939 43.148833 L 99.598918 43.148833 C 99.488997 43.148833 99.395803 43.110597 99.316947 43.031734 C 99.238091 42.955261 99.199857 42.859669 99.199857 42.749739 L 99.199857 0.899868 C 99.199857 0.789938 99.238091 0.694347 99.316947 0.617874 C 99.395803 0.539011 99.488997 0.500775 99.598918 0.500775 Z M 99.598918 0.500775 " stroke="#ffae46" stroke-width="1" stroke-opacity="1" stroke-miterlimit="10"/></g><path stroke-linecap="butt" transform="matrix(1.470506, -0.71398, 0.714039, 1.470384, -36.835344, 60.193296)" fill-opacity="1" fill="#ffae46" fill-rule="nonzero" stroke-linejoin="miter" d="M 131.999462 76.899113 L 133.600459 76.900783 C 133.709469 76.900583 133.805032 76.939016 133.883955 77.017188 C 133.960728 77.094317 133.999243 77.19006 133.999436 77.299075 L 133.999568 100.209825 C 133.998717 100.32099 133.961324 100.414411 133.88315 100.493343 C 133.804977 100.572275 133.71028 100.608648 133.600226 100.610998 L 131.999229 100.609328 C 131.890219 100.609528 131.794656 100.571095 131.717883 100.493967 C 131.63896 100.415795 131.600446 100.320051 131.600253 100.211036 L 131.60012 77.300286 C 131.600971 77.189121 131.638364 77.0957 131.716538 77.016768 C 131.794711 76.937836 131.890452 76.899313 131.999462 76.899113 Z M 131.999462 76.899113 " stroke="#ffae46" stroke-width="1" stroke-opacity="1" stroke-miterlimit="10"/><path stroke-linecap="butt" transform="matrix(1.470506, -0.71398, 0.714039, 1.470384, -118.079706, 120.998671)" fill-opacity="1" fill="#ffae46" fill-rule="nonzero" stroke-linejoin="miter" d="M 187.999987 203.600032 L 189.598835 203.600658 C 189.711038 203.599351 189.805557 203.639934 189.882331 203.717063 C 189.961254 203.795235 190.000812 203.888829 189.999961 203.999994 L 190.000094 226.910744 C 190.000287 227.019759 189.961849 227.115329 189.881526 227.193218 C 189.804397 227.27 189.710805 227.309566 189.599646 227.308723 L 187.999755 227.310247 C 187.888595 227.309403 187.795182 227.272014 187.717303 227.191692 C 187.63838 227.11352 187.600971 227.02097 187.599672 226.908761 L 187.600646 204.001205 C 187.599347 203.888996 187.639934 203.794469 187.717063 203.717687 C 187.795237 203.638754 187.888828 203.599188 187.999987 203.600032 Z M 187.999987 203.600032 " stroke="#ffae46" stroke-width="1" stroke-opacity="1" stroke-miterlimit="10"/><path stroke-linecap="butt" transform="matrix(1.544707, 0.534858, -0.534903, 1.544578, 68.275634, -140.040602)" fill-opacity="1" fill="#ffae46" fill-rule="nonzero" stroke-linejoin="miter" d="M 183.799588 75.599288 L 185.400177 75.598887 C 185.509784 75.601396 185.603936 75.639605 185.683416 75.715772 C 185.76142 75.794979 185.799561 75.890519 185.799316 75.999351 L 185.799816 98.909454 C 185.800353 99.020545 185.762151 99.114702 185.682953 99.192706 C 185.603755 99.270711 185.511264 99.310326 185.400181 99.310857 L 183.799592 99.311258 C 183.689984 99.308749 183.595832 99.27054 183.51861 99.193591 C 183.438348 99.115166 183.400207 99.019626 183.400452 98.910794 L 183.399952 76.000691 C 183.399416 75.889601 183.439875 75.794662 183.516815 75.717439 C 183.596013 75.639434 183.688504 75.599819 183.799588 75.599288 Z M 183.799588 75.599288 " stroke="#ffae46" stroke-width="1" stroke-opacity="1" stroke-miterlimit="10"/><path stroke-linecap="butt" transform="matrix(1.544707, 0.534858, -0.534903, 1.544578, 133.009712, -101.628813)" fill-opacity="1" fill="#ffae46" fill-rule="nonzero" stroke-linejoin="miter" d="M 133.799666 204.899225 L 135.400255 204.898824 C 135.509862 204.901333 135.604015 204.939542 135.683495 205.015709 C 135.761498 205.094916 135.79964 205.190456 135.799394 205.299288 L 135.799895 228.209391 C 135.800431 228.320482 135.759971 228.41542 135.683032 228.492643 C 135.603834 228.570648 135.511342 228.610263 135.400259 228.610794 L 133.79967 228.611195 C 133.690063 228.608686 133.59591 228.570477 133.51643 228.49431 C 133.438427 228.415103 133.400285 228.319563 133.400531 228.210731 L 133.40003 205.300628 C 133.399494 205.189538 133.439954 205.094599 133.516893 205.017376 C 133.596091 204.939371 133.688583 204.899756 133.799666 204.899225 Z M 133.799666 204.899225 " stroke="#ffae46" stroke-width="1" stroke-opacity="1" stroke-miterlimit="10"/><path stroke-linecap="butt" transform="matrix(0.71404, 1.470384, -1.470506, 0.71398, 392.109622, -265.575317)" fill-opacity="1" fill="#ffae46" fill-rule="nonzero" stroke-linejoin="miter" d="M 223.399596 111.000775 L 224.99957 110.999356 C 225.110735 111.000207 225.204155 111.037601 225.282044 111.117924 C 225.360976 111.196097 225.400542 111.289689 225.399699 111.400848 L 225.399181 134.309374 C 225.400487 134.421577 225.360948 134.513947 225.282776 134.59287 C 225.204604 134.671793 225.11101 134.711351 224.999845 134.7105 L 223.400915 134.70977 C 223.28975 134.708919 223.194179 134.670481 223.117397 134.593352 C 223.038465 134.515178 222.999942 134.419437 222.999742 134.310428 L 223.001304 111.399752 C 222.998954 111.289698 223.039536 111.195179 223.117709 111.116256 C 223.194837 111.039483 223.288431 110.999925 223.399596 111.000775 Z M 223.399596 111.000775 " stroke="#ffae46" stroke-width="1" stroke-opacity="1" stroke-miterlimit="10"/><path stroke-linecap="butt" transform="matrix(0.71404, 1.470384, -1.470506, 0.71398, 357.781099, -27.420008)" fill-opacity="1" fill="#ffae46" fill-rule="nonzero" stroke-linejoin="miter" d="M 96.600208 167.100492 L 98.200182 167.099073 C 98.311346 167.099924 98.403723 167.139467 98.482656 167.21764 C 98.561588 167.295814 98.601154 167.389405 98.600311 167.500564 L 98.599793 190.409091 C 98.598949 190.52025 98.560516 190.615813 98.483388 190.692586 C 98.405215 190.771509 98.309472 190.810024 98.200457 190.810217 L 96.601527 190.809486 C 96.489318 190.810785 96.394791 190.770198 96.318009 190.693068 C 96.239076 190.614895 96.19951 190.521303 96.200354 190.410144 L 96.198722 167.500574 C 96.199565 167.389415 96.240148 167.294896 96.317277 167.218122 C 96.395449 167.139199 96.489043 167.099641 96.600208 167.100492 Z M 96.600208 167.100492 " stroke="#ffae46" stroke-width="1" stroke-opacity="1" stroke-miterlimit="10"/><path stroke-linecap="butt" transform="matrix(-0.534903, 1.544578, -1.544707, -0.534858, 767.599309, -12.709908)" fill-opacity="1" fill="#ffae46" fill-rule="nonzero" stroke-linejoin="miter" d="M 224.599046 165.299651 L 226.19974 165.299168 C 226.310831 165.298631 226.405769 165.339091 226.482992 165.416031 C 226.560997 165.495228 226.601394 165.589978 226.598885 165.699585 L 226.598985 188.610446 C 226.599516 188.721529 226.561307 188.815681 226.4821 188.893685 C 226.405151 188.970907 226.309612 189.009048 226.200779 189.008803 L 224.600085 189.009287 C 224.488995 189.009823 224.394838 188.971622 224.316833 188.892424 C 224.23961 188.815484 224.199213 188.720734 224.198682 188.609651 L 224.199364 165.701049 C 224.201091 165.589183 224.2393 165.495031 224.316249 165.417809 C 224.395456 165.339805 224.490214 165.299406 224.599046 165.299651 Z M 224.599046 165.299651 " stroke="#ffae46" stroke-width="1" stroke-opacity="1" stroke-miterlimit="10"/><path stroke-linecap="butt" transform="matrix(-0.534903, 1.544578, -1.544707, -0.534858, 409.926727, 78.336592)" fill-opacity="1" fill="#ffae46" fill-rule="nonzero" stroke-linejoin="miter" d="M 95.399457 115.29973 L 97.000151 115.299247 C 97.111242 115.29871 97.203922 115.339952 97.283403 115.41611 C 97.361408 115.495307 97.399547 115.590839 97.399296 115.699664 L 97.399396 138.610525 C 97.399927 138.721608 97.360936 138.813502 97.282511 138.893764 C 97.205562 138.970986 97.110023 139.009127 96.998932 139.009664 L 95.400496 139.009366 C 95.289406 139.009902 95.195249 138.971701 95.117244 138.892503 C 95.040021 138.815563 94.999624 138.720813 94.999093 138.60973 L 94.999775 115.701128 C 94.999244 115.590044 95.039711 115.49511 95.11666 115.417888 C 95.195867 115.339884 95.288367 115.300267 95.399457 115.29973 Z M 95.399457 115.29973 " stroke="#ffae46" stroke-width="1" stroke-opacity="1" stroke-miterlimit="10"/><path stroke-linecap="butt" transform="matrix(1.634699, 0, 0, 1.634563, 102.767775, 39.107234)" fill-opacity="1" fill="#ffae46" fill-rule="nonzero" stroke-linejoin="miter" d="M 100.800878 155.298936 L 102.39951 155.298936 C 102.50943 155.298936 102.605014 155.339563 102.68387 155.416036 C 102.760337 155.494898 102.80096 155.59049 102.80096 155.70042 L 102.80096 197.550291 C 102.80096 197.660221 102.760337 197.755812 102.68387 197.832285 C 102.605014 197.911148 102.50943 197.949385 102.39951 197.949385 L 100.800878 197.949385 C 100.688568 197.949385 100.595374 197.911148 100.516518 197.832285 C 100.440051 197.755812 100.399428 197.660221 100.399428 197.550291 L 100.399428 155.70042 C 100.399428 155.59049 100.440051 155.494898 100.516518 155.416036 C 100.595374 155.339563 100.688568 155.298936 100.800878 155.298936 Z M 100.800878 155.298936 " stroke="#ffae46" stroke-width="1" stroke-opacity="1" stroke-miterlimit="10"/><path stroke-linecap="butt" transform="matrix(0, 1.634563, -1.634699, 0, 637.804771, -189.404663)" fill-opacity="1" fill="#ffae46" fill-rule="nonzero" stroke-linejoin="miter" d="M 235.798869 129.300418 L 237.400023 129.300418 C 237.509953 129.300418 237.605545 129.338652 237.682018 129.417508 C 237.76088 129.496364 237.799117 129.589558 237.799117 129.699479 L 237.799117 171.550645 C 237.799117 171.660566 237.76088 171.75376 237.682018 171.832616 C 237.605545 171.911472 237.509953 171.949706 237.400023 171.949706 L 235.798869 171.949706 C 235.688939 171.949706 235.595738 171.911472 235.516875 171.832616 C 235.438012 171.75376 235.399775 171.660566 235.399775 171.550645 L 235.399775 129.699479 C 235.399775 129.589558 235.438012 129.496364 235.516875 129.417508 C 235.595738 129.338652 235.688939 129.300418 235.798869 129.300418 Z M 235.798869 129.300418 " stroke="#ffae46" stroke-width="1" stroke-opacity="1" stroke-miterlimit="10"/><path fill="#ffae46" d="M 173.222656 197.988281 L 173.222656 200.601562 C 173.222656 200.78125 173.160156 200.9375 173.03125 201.0625 C 172.902344 201.191406 172.75 201.257812 172.570312 201.257812 L 104.15625 201.257812 C 103.976562 201.257812 103.824219 201.191406 103.695312 201.0625 C 103.566406 200.9375 103.503906 200.78125 103.503906 200.601562 L 103.503906 197.988281 C 103.503906 197.804688 103.566406 197.652344 103.695312 197.523438 C 103.824219 197.398438 103.976562 197.332031 104.15625 197.332031 L 172.570312 197.332031 C 172.75 197.332031 172.902344 197.398438 173.03125 197.523438 C 173.160156 197.652344 173.222656 197.804688 173.222656 197.988281 Z M 173.222656 197.988281 " fill-opacity="1" fill-rule="nonzero"/><g clip-path="url(#ea941f9c65)"><path stroke-linecap="butt" transform="matrix(0, 1.634563, -1.634699, 0, 386.715013, 65.58715)" fill="none" stroke-linejoin="miter" d="M 81.000936 130.600404 L 82.599701 130.600404 C 82.709631 130.600404 82.805222 130.638637 82.881695 130.717493 C 82.960558 130.796349 83.001184 130.889543 83.001184 130.999464 L 83.001184 172.850631 C 83.001184 172.960552 82.960558 173.053745 82.881695 173.132602 C 82.805222 173.211458 82.709631 173.249691 82.599701 173.249691 L 81.000936 173.249691 C 80.888617 173.249691 80.795415 173.211458 80.716552 173.132602 C 80.640079 173.053745 80.599453 172.960552 80.599453 172.850631 L 80.599453 130.999464 C 80.599453 130.889543 80.640079 130.796349 80.716552 130.717493 C 80.795415 130.638637 80.888617 130.600404 81.000936 130.600404 Z M 81.000936 130.600404 " stroke="#ffae46" stroke-width="1" stroke-opacity="1" stroke-miterlimit="10"/></g><path stroke-linecap="butt" transform="matrix(-1.155907, 1.155811, -1.155907, -1.155811, 845.246961, 278.898376)" fill-opacity="1" fill="#ffae46" fill-rule="nonzero" stroke-linejoin="miter" d="M 214.700483 185.500142 L 216.298997 185.500075 C 216.410522 185.500071 216.503457 185.538931 216.582872 185.618347 C 216.660598 185.696073 216.699459 185.789008 216.699454 185.900532 L 216.699401 227.750846 C 216.701086 227.86068 216.660528 227.955308 216.582796 228.033041 C 216.505064 228.110773 216.410435 228.151331 216.300601 228.149646 L 214.698707 228.149713 C 214.590563 228.149717 214.494248 228.110857 214.416522 228.033131 C 214.338796 227.955405 214.299936 227.85909 214.29994 227.750946 L 214.299993 185.900632 C 214.299998 185.789108 214.338866 185.696169 214.418288 185.616747 C 214.496021 185.539015 214.588959 185.500147 214.700483 185.500142 Z M 214.700483 185.500142 " stroke="#ffae46" stroke-width="1" stroke-opacity="1" stroke-miterlimit="10"/><path stroke-linecap="butt" transform="matrix(-1.155907, 1.155811, -1.155907, -1.155811, 412.051351, 103.347473)" fill-opacity="1" fill="#ffae46" fill-rule="nonzero" stroke-linejoin="miter" d="M 104.400703 76.900227 L 105.999217 76.900161 C 106.110742 76.900156 106.203677 76.939017 106.283092 77.018432 C 106.360818 77.096158 106.399679 77.189093 106.399674 77.300618 L 106.399621 119.150931 C 106.401306 119.260766 106.360748 119.355394 106.283016 119.433126 C 106.205284 119.510858 106.110655 119.551417 106.000821 119.549731 L 104.398927 119.549798 C 104.290783 119.549803 104.194468 119.510942 104.116742 119.433216 C 104.039016 119.355491 104.000156 119.259176 104.00016 119.151031 L 104.000213 77.300718 C 104.000218 77.189193 104.039086 77.096255 104.118508 77.016833 C 104.196241 76.939101 104.289179 76.900232 104.400703 76.900227 Z M 104.400703 76.900227 " stroke="#ffae46" stroke-width="1" stroke-opacity="1" stroke-miterlimit="10"/><path stroke-linecap="butt" transform="matrix(-1.155907, -1.155811, 1.155907, -1.155811, 58.795399, 648.308724)" fill-opacity="1" fill="#ffae46" fill-rule="nonzero" stroke-linejoin="miter" d="M 104.09979 185.101462 L 105.699994 185.099839 C 105.811518 185.099843 105.904456 185.138712 105.982189 185.216444 C 106.061611 185.295866 106.100479 185.388805 106.100484 185.500329 L 106.100537 227.350642 C 106.098852 227.460477 106.061681 227.555102 105.983955 227.632828 C 105.904539 227.712243 105.809914 227.749414 105.70008 227.751099 L 104.099876 227.749343 C 103.990042 227.751028 103.895413 227.71047 103.817681 227.632737 C 103.739949 227.555005 103.699391 227.460377 103.701076 227.350542 L 103.701023 185.500229 C 103.699329 185.390394 103.739879 185.295769 103.817605 185.218044 C 103.89533 185.140318 103.989955 185.099768 104.09979 185.101462 Z M 104.09979 185.101462 " stroke="#ffae46" stroke-width="1" stroke-opacity="1" stroke-miterlimit="10"/><path stroke-linecap="butt" transform="matrix(-1.155907, -1.155811, 1.155907, -1.155811, 489.372411, 466.056813)" fill-opacity="1" fill="#ffae46" fill-rule="nonzero" stroke-linejoin="miter" d="M 212.699904 74.799724 L 214.300108 74.80148 C 214.409943 74.799795 214.504571 74.840353 214.582303 74.918085 C 214.660036 74.995817 214.700594 75.090446 214.698909 75.20028 L 214.698962 117.050594 C 214.700656 117.160428 214.660106 117.255053 214.58238 117.332779 C 214.504654 117.410505 214.410029 117.451055 214.300195 117.449361 L 212.699991 117.450984 C 212.590156 117.449289 212.495528 117.412111 212.416106 117.332689 C 212.338374 117.254956 212.301195 117.160328 212.299501 117.050494 L 212.299448 75.20018 C 212.299443 75.088656 212.338304 74.995721 212.417719 74.916305 C 212.495445 74.83858 212.58838 74.799719 212.699904 74.799724 Z M 212.699904 74.799724 " stroke="#ffae46" stroke-width="1" stroke-opacity="1" stroke-miterlimit="10"/><path fill="#6b99d2" d="M 531.222656 39.925781 L 529.75 39.925781 C 528.691406 39.925781 527.632812 39.957031 526.578125 40.011719 C 525.519531 40.066406 524.464844 40.144531 523.410156 40.25 C 522.359375 40.355469 521.308594 40.488281 520.261719 40.644531 C 519.214844 40.804688 518.171875 40.988281 517.132812 41.195312 C 516.09375 41.402344 515.0625 41.636719 514.035156 41.894531 C 513.011719 42.15625 511.992188 42.4375 510.976562 42.75 C 509.964844 43.058594 508.960938 43.390625 507.964844 43.75 C 506.96875 44.105469 505.980469 44.488281 505.003906 44.894531 C 504.027344 45.300781 503.058594 45.730469 502.101562 46.183594 C 501.144531 46.640625 500.203125 47.117188 499.269531 47.617188 C 498.335938 48.117188 497.414062 48.636719 496.507812 49.183594 C 495.597656 49.726562 494.707031 50.292969 493.824219 50.882812 C 492.945312 51.472656 492.082031 52.082031 491.230469 52.710938 C 490.378906 53.34375 489.546875 53.996094 488.726562 54.667969 C 487.910156 55.339844 487.109375 56.03125 486.324219 56.742188 C 485.539062 57.453125 484.773438 58.183594 484.023438 58.929688 C 483.277344 59.679688 482.546875 60.445312 481.835938 61.230469 C 481.125 62.015625 480.433594 62.816406 479.761719 63.632812 C 479.089844 64.453125 478.4375 65.285156 477.804688 66.136719 C 477.175781 66.984375 476.566406 67.851562 475.976562 68.730469 C 475.386719 69.609375 474.820312 70.503906 474.277344 71.410156 C 473.730469 72.320312 473.207031 73.238281 472.707031 74.171875 C 472.207031 75.105469 471.730469 76.050781 471.277344 77.007812 C 470.824219 77.964844 470.394531 78.929688 469.988281 79.90625 C 469.582031 80.886719 469.199219 81.871094 468.839844 82.867188 C 468.484375 83.863281 468.148438 84.867188 467.839844 85.882812 C 467.53125 86.894531 467.25 87.914062 466.988281 88.941406 C 466.730469 89.964844 466.496094 91 466.289062 92.035156 C 466.078125 93.074219 465.894531 94.117188 465.738281 95.164062 C 465.582031 96.210938 465.449219 97.261719 465.34375 98.3125 C 465.238281 99.367188 465.15625 100.421875 465.101562 101.480469 C 465.046875 102.535156 465.019531 103.59375 465.015625 104.652344 L 465.015625 487.957031 C 464.984375 494.015625 465.800781 499.953125 467.46875 505.773438 C 474.921875 500.433594 482.929688 496.128906 491.5 492.863281 C 491.226562 491.238281 491.117188 489.605469 491.171875 487.957031 L 491.171875 104.652344 C 491.171875 103.390625 491.234375 102.128906 491.359375 100.871094 C 491.480469 99.613281 491.667969 98.367188 491.914062 97.128906 C 492.160156 95.886719 492.464844 94.664062 492.832031 93.457031 C 493.199219 92.246094 493.625 91.058594 494.109375 89.890625 C 494.59375 88.722656 495.132812 87.582031 495.726562 86.46875 C 496.324219 85.355469 496.972656 84.273438 497.675781 83.222656 C 498.375 82.171875 499.128906 81.15625 499.929688 80.179688 C 500.730469 79.203125 501.578125 78.269531 502.472656 77.375 C 503.363281 76.484375 504.300781 75.636719 505.277344 74.832031 C 506.253906 74.03125 507.265625 73.28125 508.316406 72.578125 C 509.367188 71.875 510.449219 71.226562 511.566406 70.632812 C 512.679688 70.035156 513.820312 69.496094 514.988281 69.015625 C 516.15625 68.53125 517.34375 68.105469 518.550781 67.738281 C 519.761719 67.371094 520.984375 67.066406 522.226562 66.820312 C 523.464844 66.570312 524.710938 66.386719 525.96875 66.261719 C 527.226562 66.140625 528.488281 66.078125 529.75 66.078125 L 531.222656 66.078125 C 532.484375 66.078125 533.746094 66.140625 535.003906 66.261719 C 536.261719 66.386719 537.507812 66.570312 538.75 66.820312 C 539.988281 67.066406 541.210938 67.371094 542.421875 67.738281 C 543.628906 68.105469 544.820312 68.53125 545.984375 69.015625 C 547.152344 69.496094 548.292969 70.035156 549.410156 70.632812 C 550.523438 71.226562 551.605469 71.875 552.65625 72.578125 C 553.707031 73.28125 554.71875 74.03125 555.695312 74.832031 C 556.671875 75.636719 557.609375 76.484375 558.5 77.375 C 559.394531 78.269531 560.242188 79.203125 561.042969 80.179688 C 561.847656 81.15625 562.597656 82.171875 563.300781 83.222656 C 564 84.273438 564.648438 85.355469 565.246094 86.46875 C 565.839844 87.582031 566.382812 88.722656 566.863281 89.890625 C 567.347656 91.058594 567.773438 92.246094 568.140625 93.457031 C 568.507812 94.664062 568.8125 95.886719 569.058594 97.128906 C 569.304688 98.367188 569.492188 99.613281 569.617188 100.871094 C 569.738281 102.128906 569.800781 103.390625 569.800781 104.652344 L 569.800781 487.957031 C 569.855469 489.605469 569.746094 491.238281 569.472656 492.863281 C 578.042969 496.128906 586.050781 500.433594 593.503906 505.773438 C 595.160156 499.953125 595.980469 494.011719 595.957031 487.957031 L 595.957031 104.652344 C 595.957031 103.59375 595.929688 102.535156 595.878906 101.476562 C 595.828125 100.417969 595.75 99.363281 595.644531 98.308594 C 595.539062 97.253906 595.410156 96.203125 595.253906 95.15625 C 595.101562 94.109375 594.917969 93.0625 594.710938 92.023438 C 594.507812 90.984375 594.273438 89.953125 594.015625 88.925781 C 593.757812 87.898438 593.476562 86.878906 593.167969 85.863281 C 592.863281 84.851562 592.53125 83.84375 592.171875 82.847656 C 591.816406 81.847656 591.433594 80.859375 591.027344 79.882812 C 590.625 78.902344 590.195312 77.9375 589.742188 76.976562 C 589.289062 76.019531 588.8125 75.074219 588.3125 74.140625 C 587.8125 73.207031 587.292969 72.285156 586.746094 71.375 C 586.203125 70.46875 585.636719 69.574219 585.046875 68.691406 C 584.457031 67.8125 583.847656 66.945312 583.21875 66.09375 C 582.585938 65.242188 581.933594 64.410156 581.261719 63.589844 C 580.589844 62.769531 579.898438 61.96875 579.1875 61.183594 C 578.476562 60.398438 577.746094 59.632812 576.996094 58.882812 C 576.246094 58.132812 575.480469 57.402344 574.695312 56.691406 C 573.910156 55.980469 573.109375 55.289062 572.289062 54.617188 C 571.46875 53.945312 570.636719 53.292969 569.785156 52.664062 C 568.933594 52.03125 568.066406 51.421875 567.1875 50.832031 C 566.304688 50.246094 565.410156 49.679688 564.503906 49.132812 C 563.59375 48.589844 562.671875 48.066406 561.738281 47.566406 C 560.804688 47.066406 559.855469 46.59375 558.898438 46.140625 C 557.941406 45.6875 556.972656 45.257812 555.996094 44.851562 C 555.015625 44.445312 554.027344 44.066406 553.03125 43.707031 C 552.03125 43.351562 551.027344 43.019531 550.011719 42.710938 C 549 42.402344 547.980469 42.121094 546.953125 41.863281 C 545.921875 41.605469 544.890625 41.375 543.851562 41.167969 C 542.8125 40.960938 541.769531 40.78125 540.722656 40.625 C 539.671875 40.46875 538.621094 40.339844 537.566406 40.234375 C 536.511719 40.132812 535.457031 40.054688 534.398438 40.003906 C 533.339844 39.949219 532.28125 39.925781 531.222656 39.925781 Z M 531.222656 39.925781 " fill-opacity="1" fill-rule="nonzero"/><g clip-path="url(#41a3a3f67a)"><path fill="#6b99d2" d="M 595.957031 476.515625 C 587.671875 471.75 578.953125 467.988281 569.800781 465.238281 L 569.800781 487.957031 C 569.855469 489.605469 569.746094 491.238281 569.472656 492.863281 C 578.042969 496.128906 586.050781 500.433594 593.503906 505.773438 C 595.058594 506.878906 596.578125 508.023438 598.070312 509.207031 C 599.5625 510.394531 601.023438 511.617188 602.453125 512.875 C 603.878906 514.136719 605.273438 515.4375 606.632812 516.769531 C 607.992188 518.105469 609.316406 519.472656 610.605469 520.878906 C 611.890625 522.28125 613.140625 523.71875 614.355469 525.1875 C 615.566406 526.660156 616.738281 528.160156 617.871094 529.691406 C 619.007812 531.222656 620.097656 532.78125 621.148438 534.371094 C 622.199219 535.960938 623.210938 537.574219 624.175781 539.21875 C 625.140625 540.859375 626.066406 542.523438 626.945312 544.214844 C 627.820312 545.90625 628.65625 547.617188 629.445312 549.351562 C 630.234375 551.085938 630.976562 552.839844 631.671875 554.613281 C 632.367188 556.386719 633.019531 558.175781 633.621094 559.984375 C 634.222656 561.792969 634.777344 563.613281 635.285156 565.449219 C 635.789062 567.289062 636.246094 569.136719 636.65625 570.996094 C 637.066406 572.855469 637.425781 574.726562 637.738281 576.605469 C 638.046875 578.488281 638.308594 580.371094 638.519531 582.265625 C 638.734375 584.160156 638.894531 586.058594 639.007812 587.957031 C 639.117188 589.859375 639.179688 591.765625 639.191406 593.667969 C 639.203125 595.574219 639.164062 597.476562 639.078125 599.382812 C 638.988281 601.285156 638.851562 603.183594 638.664062 605.078125 C 638.476562 606.976562 638.238281 608.863281 637.949219 610.75 C 637.664062 612.632812 637.324219 614.507812 636.9375 616.371094 C 636.554688 618.238281 636.117188 620.089844 635.636719 621.933594 C 635.152344 623.777344 634.621094 625.605469 634.039062 627.421875 C 633.460938 629.234375 632.832031 631.035156 632.160156 632.816406 C 631.484375 634.597656 630.765625 636.359375 629.996094 638.105469 C 629.230469 639.847656 628.417969 641.570312 627.558594 643.269531 C 626.703125 644.972656 625.800781 646.648438 624.855469 648.304688 C 623.910156 649.957031 622.921875 651.585938 621.890625 653.1875 C 620.859375 654.789062 619.785156 656.363281 618.671875 657.90625 C 617.558594 659.453125 616.402344 660.96875 615.210938 662.453125 C 614.015625 663.9375 612.785156 665.390625 611.511719 666.8125 C 610.242188 668.230469 608.9375 669.617188 607.59375 670.96875 C 606.25 672.320312 604.871094 673.632812 603.460938 674.914062 C 602.046875 676.191406 600.605469 677.433594 599.125 678.636719 C 597.648438 679.839844 596.140625 681 594.601562 682.125 C 593.0625 683.25 591.496094 684.332031 589.902344 685.371094 C 588.304688 686.414062 586.683594 687.414062 585.035156 688.367188 C 583.386719 689.324219 581.714844 690.238281 580.019531 691.105469 C 578.324219 691.972656 576.605469 692.796875 574.867188 693.574219 C 573.128906 694.351562 571.371094 695.082031 569.589844 695.769531 C 567.8125 696.453125 566.019531 697.089844 564.207031 697.683594 C 562.398438 698.273438 560.570312 698.816406 558.730469 699.3125 C 556.890625 699.804688 555.039062 700.253906 553.175781 700.648438 C 551.3125 701.046875 549.441406 701.394531 547.558594 701.695312 C 545.675781 701.996094 543.789062 702.242188 541.894531 702.445312 C 540 702.644531 538.101562 702.792969 536.199219 702.894531 C 534.296875 702.992188 532.390625 703.042969 530.488281 703.042969 C 528.582031 703.042969 526.675781 702.992188 524.773438 702.894531 C 522.871094 702.792969 520.972656 702.644531 519.078125 702.445312 C 517.183594 702.242188 515.296875 701.996094 513.414062 701.695312 C 511.53125 701.394531 509.660156 701.046875 507.796875 700.648438 C 505.933594 700.253906 504.082031 699.804688 502.242188 699.3125 C 500.402344 698.816406 498.578125 698.273438 496.765625 697.683594 C 494.953125 697.089844 493.160156 696.453125 491.382812 695.769531 C 489.605469 695.082031 487.847656 694.351562 486.105469 693.574219 C 484.367188 692.796875 482.648438 691.972656 480.953125 691.105469 C 479.257812 690.238281 477.585938 689.324219 475.9375 688.367188 C 474.289062 687.414062 472.667969 686.414062 471.074219 685.371094 C 469.476562 684.332031 467.910156 683.25 466.371094 682.125 C 464.832031 681 463.324219 679.839844 461.847656 678.636719 C 460.371094 677.433594 458.925781 676.191406 457.511719 674.914062 C 456.101562 673.632812 454.722656 672.320312 453.378906 670.96875 C 452.039062 669.617188 450.730469 668.230469 449.460938 666.8125 C 448.191406 665.390625 446.957031 663.9375 445.765625 662.453125 C 444.570312 660.96875 443.417969 659.453125 442.300781 657.910156 C 441.1875 656.363281 440.117188 654.789062 439.085938 653.1875 C 438.054688 651.585938 437.066406 649.957031 436.117188 648.304688 C 435.171875 646.648438 434.269531 644.972656 433.414062 643.269531 C 432.554688 641.570312 431.742188 639.847656 430.976562 638.105469 C 430.210938 636.359375 429.488281 634.597656 428.816406 632.816406 C 428.140625 631.035156 427.511719 629.234375 426.933594 627.421875 C 426.355469 625.605469 425.824219 623.777344 425.339844 621.933594 C 424.855469 620.089844 424.421875 618.238281 424.035156 616.371094 C 423.648438 614.507812 423.3125 612.632812 423.023438 610.75 C 422.738281 608.863281 422.5 606.976562 422.3125 605.078125 C 422.121094 603.183594 421.984375 601.285156 421.894531 599.382812 C 421.808594 597.476562 421.769531 595.574219 421.78125 593.667969 C 421.792969 591.765625 421.855469 589.859375 421.96875 587.957031 C 422.078125 586.058594 422.242188 584.160156 422.453125 582.265625 C 422.664062 580.371094 422.925781 578.488281 423.238281 576.605469 C 423.546875 574.726562 423.90625 572.855469 424.316406 570.996094 C 424.726562 569.136719 425.183594 567.289062 425.691406 565.449219 C 426.195312 563.613281 426.75 561.792969 427.355469 559.984375 C 427.957031 558.175781 428.605469 556.386719 429.300781 554.613281 C 430 552.839844 430.742188 551.085938 431.527344 549.351562 C 432.316406 547.617188 433.152344 545.90625 434.03125 544.214844 C 434.910156 542.523438 435.832031 540.859375 436.796875 539.21875 C 437.765625 537.574219 438.773438 535.960938 439.824219 534.371094 C 440.875 532.78125 441.96875 531.222656 443.101562 529.691406 C 444.234375 528.160156 445.40625 526.660156 446.617188 525.1875 C 447.832031 523.71875 449.082031 522.28125 450.367188 520.878906 C 451.65625 519.472656 452.980469 518.105469 454.339844 516.769531 C 455.699219 515.4375 457.09375 514.136719 458.523438 512.875 C 459.949219 511.617188 461.410156 510.394531 462.902344 509.207031 C 464.394531 508.023438 465.917969 506.878906 467.46875 505.773438 C 474.921875 500.433594 482.929688 496.128906 491.5 492.863281 C 491.226562 491.238281 491.117188 489.605469 491.171875 487.957031 L 491.171875 465.238281 C 482.078125 468.128906 473.359375 471.886719 465.015625 476.515625 C 462.859375 477.714844 460.734375 478.972656 458.648438 480.285156 C 456.558594 481.601562 454.507812 482.972656 452.492188 484.398438 C 450.480469 485.824219 448.507812 487.308594 446.574219 488.84375 C 444.644531 490.378906 442.753906 491.964844 440.910156 493.605469 C 439.0625 495.242188 437.265625 496.933594 435.511719 498.671875 C 433.761719 500.410156 432.058594 502.191406 430.402344 504.023438 C 428.75 505.855469 427.144531 507.730469 425.59375 509.652344 C 424.042969 511.570312 422.546875 513.53125 421.101562 515.53125 C 419.660156 517.535156 418.269531 519.574219 416.9375 521.652344 C 415.605469 523.730469 414.332031 525.84375 413.117188 527.992188 C 411.902344 530.140625 410.746094 532.316406 409.648438 534.53125 C 408.554688 536.742188 407.519531 538.980469 406.546875 541.25 C 405.574219 543.515625 404.664062 545.808594 403.816406 548.128906 C 402.96875 550.445312 402.1875 552.785156 401.46875 555.144531 C 400.75 557.507812 400.097656 559.886719 399.507812 562.28125 C 398.917969 564.679688 398.398438 567.089844 397.941406 569.515625 C 397.488281 571.941406 397.097656 574.378906 396.777344 576.824219 C 396.453125 579.273438 396.199219 581.726562 396.011719 584.1875 C 395.824219 586.648438 395.707031 589.113281 395.652344 591.578125 C 395.601562 594.046875 395.617188 596.511719 395.703125 598.980469 C 395.785156 601.445312 395.9375 603.910156 396.15625 606.367188 C 396.375 608.824219 396.660156 611.277344 397.011719 613.71875 C 397.367188 616.160156 397.785156 618.589844 398.273438 621.011719 C 398.761719 623.429688 399.3125 625.835938 399.933594 628.222656 C 400.550781 630.613281 401.234375 632.984375 401.984375 635.335938 C 402.734375 637.6875 403.546875 640.015625 404.421875 642.324219 C 405.300781 644.628906 406.238281 646.910156 407.242188 649.167969 C 408.242188 651.421875 409.308594 653.648438 410.429688 655.84375 C 411.554688 658.042969 412.738281 660.207031 413.984375 662.339844 C 415.226562 664.46875 416.527344 666.566406 417.886719 668.625 C 419.242188 670.6875 420.65625 672.710938 422.125 674.691406 C 423.597656 676.675781 425.117188 678.617188 426.695312 680.515625 C 428.269531 682.414062 429.898438 684.269531 431.574219 686.078125 C 433.253906 687.890625 434.980469 689.652344 436.753906 691.367188 C 438.527344 693.082031 440.347656 694.75 442.214844 696.363281 C 444.082031 697.980469 445.988281 699.542969 447.941406 701.050781 C 449.894531 702.5625 451.886719 704.019531 453.917969 705.421875 C 455.949219 706.820312 458.015625 708.164062 460.121094 709.453125 C 462.226562 710.742188 464.367188 711.96875 466.539062 713.140625 C 468.714844 714.308594 470.917969 715.421875 473.152344 716.46875 C 475.386719 717.519531 477.644531 718.507812 479.933594 719.429688 C 482.222656 720.355469 484.535156 721.21875 486.871094 722.015625 C 489.207031 722.8125 491.5625 723.546875 493.9375 724.214844 C 496.3125 724.886719 498.703125 725.488281 501.113281 726.027344 C 503.523438 726.5625 505.945312 727.035156 508.378906 727.4375 C 510.8125 727.84375 513.257812 728.179688 515.710938 728.453125 C 518.164062 728.722656 520.625 728.925781 523.089844 729.058594 C 525.550781 729.195312 528.019531 729.261719 530.488281 729.261719 C 532.953125 729.261719 535.421875 729.195312 537.886719 729.058594 C 540.351562 728.925781 542.808594 728.722656 545.261719 728.453125 C 547.714844 728.179688 550.160156 727.84375 552.59375 727.4375 C 555.027344 727.035156 557.449219 726.5625 559.859375 726.027344 C 562.269531 725.488281 564.660156 724.886719 567.035156 724.214844 C 569.414062 723.546875 571.769531 722.8125 574.105469 722.015625 C 576.4375 721.21875 578.75 720.355469 581.039062 719.429688 C 583.328125 718.507812 585.589844 717.519531 587.824219 716.46875 C 590.054688 715.421875 592.261719 714.3125 594.433594 713.140625 C 596.605469 711.96875 598.746094 710.742188 600.851562 709.453125 C 602.957031 708.164062 605.023438 706.820312 607.058594 705.421875 C 609.089844 704.019531 611.082031 702.5625 613.03125 701.050781 C 614.984375 699.542969 616.894531 697.980469 618.757812 696.363281 C 620.625 694.75 622.445312 693.082031 624.21875 691.367188 C 625.996094 689.652344 627.71875 687.890625 629.398438 686.078125 C 631.074219 684.269531 632.703125 682.414062 634.277344 680.515625 C 635.855469 678.617188 637.378906 676.675781 638.847656 674.691406 C 640.316406 672.710938 641.730469 670.6875 643.089844 668.628906 C 644.445312 666.566406 645.746094 664.46875 646.992188 662.339844 C 648.234375 660.207031 649.417969 658.042969 650.542969 655.84375 C 651.667969 653.648438 652.730469 651.421875 653.730469 649.167969 C 654.734375 646.910156 655.671875 644.628906 656.550781 642.324219 C 657.425781 640.015625 658.242188 637.6875 658.988281 635.335938 C 659.738281 632.984375 660.421875 630.613281 661.042969 628.222656 C 661.660156 625.835938 662.214844 623.429688 662.699219 621.011719 C 663.1875 618.59375 663.605469 616.160156 663.960938 613.71875 C 664.3125 611.277344 664.597656 608.824219 664.816406 606.367188 C 665.039062 603.910156 665.1875 601.445312 665.273438 598.980469 C 665.355469 596.511719 665.371094 594.046875 665.320312 591.578125 C 665.269531 589.113281 665.148438 586.648438 664.960938 584.1875 C 664.773438 581.726562 664.519531 579.273438 664.199219 576.824219 C 663.875 574.378906 663.488281 571.941406 663.03125 569.515625 C 662.574219 567.089844 662.054688 564.679688 661.464844 562.28125 C 660.878906 559.886719 660.222656 557.507812 659.503906 555.144531 C 658.785156 552.785156 658.003906 550.445312 657.15625 548.128906 C 656.308594 545.808594 655.398438 543.515625 654.425781 541.25 C 653.453125 538.980469 652.417969 536.742188 651.324219 534.53125 C 650.226562 532.316406 649.070312 530.140625 647.855469 527.992188 C 646.640625 525.84375 645.367188 523.730469 644.035156 521.652344 C 642.703125 519.574219 641.316406 517.535156 639.871094 515.53125 C 638.429688 513.53125 636.929688 511.570312 635.378906 509.652344 C 633.828125 507.730469 632.226562 505.855469 630.570312 504.023438 C 628.917969 502.191406 627.214844 500.410156 625.460938 498.671875 C 623.707031 496.933594 621.910156 495.242188 620.0625 493.605469 C 618.21875 491.964844 616.332031 490.378906 614.398438 488.84375 C 612.464844 487.308594 610.492188 485.824219 608.480469 484.398438 C 606.464844 482.972656 604.414062 481.601562 602.328125 480.285156 C 600.238281 478.972656 598.113281 477.714844 595.957031 476.515625 Z M 595.957031 476.515625 " fill-opacity="1" fill-rule="nonzero"/></g><path fill="#26477a" d="M 639.113281 594.203125 C 639.117188 596.523438 639.046875 598.84375 638.902344 601.160156 C 638.757812 603.472656 638.539062 605.78125 638.25 608.085938 C 637.957031 610.386719 637.589844 612.675781 637.152344 614.953125 C 636.714844 617.234375 636.203125 619.496094 635.617188 621.738281 C 635.035156 623.984375 634.378906 626.210938 633.65625 628.414062 C 632.929688 630.617188 632.132812 632.796875 631.265625 634.949219 C 630.402344 637.101562 629.46875 639.222656 628.46875 641.316406 C 627.464844 643.410156 626.398438 645.46875 625.265625 647.492188 C 624.132812 649.519531 622.933594 651.503906 621.675781 653.453125 C 620.414062 655.398438 619.09375 657.304688 617.710938 659.167969 C 616.328125 661.03125 614.886719 662.847656 613.386719 664.621094 C 611.890625 666.390625 610.335938 668.113281 608.726562 669.785156 C 607.117188 671.457031 605.457031 673.074219 603.742188 674.640625 C 602.03125 676.203125 600.269531 677.714844 598.460938 679.167969 C 596.648438 680.617188 594.796875 682.011719 592.898438 683.347656 C 591 684.679688 589.058594 685.953125 587.078125 687.160156 C 585.101562 688.371094 583.082031 689.515625 581.03125 690.597656 C 578.976562 691.675781 576.890625 692.691406 574.773438 693.636719 C 572.652344 694.582031 570.507812 695.460938 568.332031 696.273438 C 566.160156 697.082031 563.960938 697.820312 561.738281 698.488281 C 559.515625 699.15625 557.277344 699.753906 555.015625 700.28125 C 552.753906 700.804688 550.480469 701.257812 548.191406 701.636719 C 545.902344 702.015625 543.605469 702.324219 541.296875 702.554688 C 538.988281 702.789062 536.671875 702.945312 534.355469 703.03125 C 532.035156 703.113281 529.714844 703.125 527.398438 703.058594 C 525.078125 702.996094 522.761719 702.859375 520.453125 702.644531 C 518.140625 702.433594 515.839844 702.148438 513.546875 701.789062 C 511.253906 701.425781 508.976562 700.996094 506.710938 700.488281 C 504.449219 699.984375 502.203125 699.40625 499.972656 698.757812 C 497.746094 698.105469 495.542969 697.386719 493.359375 696.597656 C 491.179688 695.804688 489.023438 694.945312 486.898438 694.015625 C 484.773438 693.089844 482.679688 692.09375 480.617188 691.03125 C 478.550781 689.96875 476.527344 688.839844 474.535156 687.648438 C 472.546875 686.457031 470.59375 685.199219 468.683594 683.882812 C 466.773438 682.566406 464.910156 681.1875 463.085938 679.753906 C 461.265625 678.316406 459.492188 676.820312 457.765625 675.273438 C 456.039062 673.722656 454.363281 672.117188 452.738281 670.460938 C 451.117188 668.800781 449.546875 667.09375 448.035156 665.335938 C 446.519531 663.578125 445.0625 661.773438 443.664062 659.921875 C 442.265625 658.070312 440.929688 656.175781 439.652344 654.238281 C 438.375 652.300781 437.160156 650.328125 436.007812 648.3125 C 434.859375 646.296875 433.773438 644.246094 432.753906 642.164062 C 431.734375 640.078125 430.78125 637.964844 429.898438 635.820312 C 429.015625 633.675781 428.199219 631.503906 427.453125 629.304688 C 426.710938 627.109375 426.035156 624.890625 425.433594 622.648438 C 424.828125 620.410156 424.296875 618.152344 423.839844 615.878906 C 423.382812 613.601562 422.996094 611.316406 422.683594 609.015625 C 422.371094 606.71875 422.132812 604.410156 421.96875 602.097656 C 421.804688 599.78125 421.714844 597.464844 421.699219 595.144531 C 421.683594 592.824219 421.742188 590.507812 421.875 588.191406 C 422.007812 585.875 422.214844 583.566406 422.496094 581.261719 C 422.777344 578.957031 423.128906 576.667969 423.558594 574.386719 C 423.984375 572.105469 424.484375 569.839844 425.054688 567.59375 C 425.628906 565.34375 426.273438 563.117188 426.988281 560.910156 C 427.703125 558.703125 428.488281 556.519531 429.339844 554.363281 C 430.195312 552.207031 431.121094 550.078125 432.109375 547.980469 C 433.101562 545.882812 434.160156 543.820312 435.28125 541.789062 C 436.40625 539.757812 437.589844 537.765625 438.84375 535.8125 C 440.09375 533.859375 441.40625 531.945312 442.777344 530.074219 C 444.152344 528.207031 445.582031 526.378906 447.074219 524.601562 C 448.5625 522.824219 450.109375 521.09375 451.710938 519.414062 C 453.308594 517.734375 454.960938 516.109375 456.667969 514.535156 C 458.371094 512.960938 460.125 511.445312 461.929688 509.980469 C 463.730469 508.519531 465.578125 507.117188 467.46875 505.773438 C 474.921875 500.433594 482.929688 496.128906 491.5 492.863281 C 491.226562 491.238281 491.117188 489.605469 491.171875 487.957031 L 491.171875 104.652344 C 491.171875 103.390625 491.234375 102.128906 491.359375 100.871094 C 491.480469 99.613281 491.667969 98.367188 491.914062 97.128906 C 492.160156 95.886719 492.464844 94.664062 492.832031 93.457031 C 493.199219 92.246094 493.625 91.058594 494.109375 89.890625 C 494.59375 88.722656 495.132812 87.582031 495.726562 86.46875 C 496.324219 85.355469 496.972656 84.273438 497.675781 83.222656 C 498.375 82.171875 499.128906 81.15625 499.929688 80.179688 C 500.730469 79.203125 501.578125 78.269531 502.472656 77.375 C 503.363281 76.484375 504.300781 75.636719 505.277344 74.832031 C 506.253906 74.03125 507.265625 73.28125 508.316406 72.578125 C 509.367188 71.875 510.449219 71.226562 511.566406 70.632812 C 512.679688 70.035156 513.820312 69.496094 514.988281 69.015625 C 516.15625 68.53125 517.34375 68.105469 518.550781 67.738281 C 519.761719 67.371094 520.984375 67.066406 522.226562 66.820312 C 523.464844 66.570312 524.710938 66.386719 525.96875 66.261719 C 527.226562 66.140625 528.488281 66.078125 529.75 66.078125 L 531.222656 66.078125 C 532.484375 66.078125 533.746094 66.140625 535.003906 66.261719 C 536.261719 66.386719 537.507812 66.570312 538.75 66.820312 C 539.988281 67.066406 541.210938 67.371094 542.421875 67.738281 C 543.628906 68.105469 544.820312 68.53125 545.984375 69.015625 C 547.152344 69.496094 548.292969 70.035156 549.410156 70.632812 C 550.523438 71.226562 551.605469 71.875 552.65625 72.578125 C 553.707031 73.28125 554.71875 74.03125 555.695312 74.832031 C 556.671875 75.636719 557.609375 76.484375 558.5 77.375 C 559.394531 78.269531 560.242188 79.203125 561.042969 80.179688 C 561.847656 81.15625 562.597656 82.171875 563.300781 83.222656 C 564 84.273438 564.648438 85.355469 565.246094 86.46875 C 565.839844 87.582031 566.382812 88.722656 566.863281 89.890625 C 567.347656 91.058594 567.773438 92.246094 568.140625 93.457031 C 568.507812 94.664062 568.8125 95.886719 569.058594 97.128906 C 569.304688 98.367188 569.492188 99.613281 569.617188 100.871094 C 569.738281 102.128906 569.800781 103.390625 569.800781 104.652344 L 569.800781 487.957031 C 569.855469 489.605469 569.746094 491.238281 569.472656 492.863281 C 578.042969 496.128906 586.050781 500.433594 593.503906 505.773438 C 597.019531 508.273438 600.371094 510.972656 603.5625 513.875 C 606.753906 516.773438 609.761719 519.851562 612.585938 523.109375 C 615.410156 526.367188 618.03125 529.78125 620.449219 533.351562 C 622.867188 536.921875 625.0625 540.625 627.039062 544.457031 C 629.015625 548.289062 630.757812 552.222656 632.265625 556.261719 C 633.773438 560.304688 635.035156 564.417969 636.050781 568.609375 C 637.066406 572.796875 637.832031 577.035156 638.34375 581.316406 C 638.855469 585.597656 639.113281 589.894531 639.113281 594.203125 Z M 639.113281 594.203125 " fill-opacity="1" fill-rule="nonzero"/><path fill="#ffb544" d="M 627.015625 593.714844 C 627.015625 595.285156 626.976562 596.855469 626.898438 598.421875 C 626.824219 599.992188 626.707031 601.554688 626.554688 603.117188 C 626.398438 604.683594 626.207031 606.238281 625.976562 607.792969 C 625.746094 609.347656 625.476562 610.894531 625.171875 612.433594 C 624.867188 613.972656 624.523438 615.503906 624.140625 617.027344 C 623.757812 618.550781 623.339844 620.0625 622.882812 621.566406 C 622.429688 623.070312 621.933594 624.558594 621.40625 626.039062 C 620.878906 627.515625 620.3125 628.980469 619.710938 630.433594 C 619.109375 631.882812 618.472656 633.316406 617.804688 634.738281 C 617.132812 636.15625 616.425781 637.558594 615.683594 638.945312 C 614.945312 640.328125 614.171875 641.695312 613.363281 643.042969 C 612.554688 644.390625 611.714844 645.714844 610.84375 647.019531 C 609.972656 648.328125 609.066406 649.609375 608.132812 650.871094 C 607.195312 652.132812 606.230469 653.371094 605.234375 654.582031 C 604.238281 655.796875 603.210938 656.984375 602.15625 658.148438 C 601.105469 659.3125 600.019531 660.449219 598.910156 661.558594 C 597.800781 662.671875 596.664062 663.753906 595.5 664.808594 C 594.335938 665.863281 593.148438 666.886719 591.933594 667.882812 C 590.71875 668.878906 589.480469 669.847656 588.21875 670.78125 C 586.957031 671.714844 585.675781 672.621094 584.371094 673.492188 C 583.0625 674.363281 581.738281 675.207031 580.390625 676.011719 C 579.042969 676.820312 577.675781 677.59375 576.292969 678.332031 C 574.90625 679.074219 573.503906 679.78125 572.085938 680.449219 C 570.667969 681.121094 569.230469 681.757812 567.78125 682.359375 C 566.328125 682.960938 564.863281 683.527344 563.386719 684.054688 C 561.90625 684.582031 560.417969 685.074219 558.914062 685.53125 C 557.410156 685.988281 555.898438 686.40625 554.375 686.789062 C 552.851562 687.167969 551.320312 687.511719 549.777344 687.820312 C 548.238281 688.125 546.691406 688.394531 545.140625 688.625 C 543.585938 688.855469 542.027344 689.046875 540.464844 689.203125 C 538.902344 689.355469 537.335938 689.46875 535.765625 689.546875 C 534.199219 689.625 532.628906 689.664062 531.058594 689.664062 C 529.488281 689.664062 527.917969 689.625 526.351562 689.546875 C 524.78125 689.46875 523.214844 689.355469 521.652344 689.203125 C 520.089844 689.046875 518.53125 688.855469 516.980469 688.625 C 515.425781 688.394531 513.878906 688.125 512.339844 687.820312 C 510.796875 687.511719 509.265625 687.167969 507.742188 686.789062 C 506.21875 686.40625 504.707031 685.988281 503.203125 685.53125 C 501.703125 685.074219 500.210938 684.582031 498.730469 684.054688 C 497.253906 683.527344 495.789062 682.960938 494.335938 682.359375 C 492.886719 681.757812 491.453125 681.121094 490.03125 680.449219 C 488.613281 679.78125 487.210938 679.074219 485.824219 678.332031 C 484.441406 677.59375 483.074219 676.820312 481.726562 676.011719 C 480.378906 675.207031 479.054688 674.367188 477.75 673.492188 C 476.441406 672.621094 475.160156 671.714844 473.898438 670.78125 C 472.636719 669.847656 471.398438 668.878906 470.183594 667.882812 C 468.96875 666.886719 467.78125 665.863281 466.617188 664.808594 C 465.453125 663.753906 464.316406 662.671875 463.207031 661.558594 C 462.097656 660.449219 461.015625 659.3125 459.960938 658.148438 C 458.90625 656.984375 457.878906 655.796875 456.882812 654.582031 C 455.886719 653.371094 454.921875 652.132812 453.984375 650.871094 C 453.050781 649.609375 452.144531 648.328125 451.273438 647.019531 C 450.402344 645.714844 449.5625 644.390625 448.753906 643.042969 C 447.945312 641.695312 447.171875 640.328125 446.433594 638.945312 C 445.691406 637.558594 444.988281 636.15625 444.316406 634.738281 C 443.644531 633.316406 443.007812 631.882812 442.40625 630.433594 C 441.804688 628.980469 441.242188 627.515625 440.710938 626.039062 C 440.183594 624.558594 439.691406 623.070312 439.234375 621.566406 C 438.777344 620.0625 438.359375 618.550781 437.976562 617.027344 C 437.597656 615.503906 437.253906 613.972656 436.945312 612.433594 C 436.640625 610.894531 436.371094 609.347656 436.140625 607.792969 C 435.910156 606.238281 435.71875 604.683594 435.5625 603.117188 C 435.410156 601.554688 435.292969 599.992188 435.21875 598.421875 C 435.140625 596.855469 435.101562 595.285156 435.101562 593.714844 C 435.101562 592.144531 435.140625 590.574219 435.21875 589.007812 C 435.292969 587.4375 435.410156 585.871094 435.5625 584.308594 C 435.71875 582.746094 435.910156 581.1875 436.140625 579.636719 C 436.371094 578.082031 436.640625 576.535156 436.945312 574.996094 C 437.253906 573.457031 437.597656 571.925781 437.976562 570.402344 C 438.359375 568.878906 438.777344 567.363281 439.234375 565.863281 C 439.691406 564.359375 440.183594 562.867188 440.710938 561.390625 C 441.242188 559.910156 441.804688 558.445312 442.40625 556.996094 C 443.007812 555.546875 443.644531 554.109375 444.316406 552.691406 C 444.988281 551.269531 445.691406 549.871094 446.433594 548.484375 C 447.171875 547.097656 447.945312 545.734375 448.753906 544.386719 C 449.5625 543.039062 450.402344 541.714844 451.273438 540.40625 C 452.144531 539.101562 453.050781 537.820312 453.984375 536.558594 C 454.921875 535.296875 455.886719 534.058594 456.882812 532.84375 C 457.878906 531.632812 458.90625 530.441406 459.960938 529.277344 C 461.015625 528.117188 462.097656 526.980469 463.207031 525.867188 C 464.316406 524.757812 465.453125 523.675781 466.617188 522.621094 C 467.78125 521.566406 468.96875 520.542969 470.183594 519.542969 C 471.398438 518.546875 472.636719 517.582031 473.898438 516.648438 C 475.160156 515.710938 476.441406 514.808594 477.75 513.9375 C 479.054688 513.0625 480.378906 512.222656 481.726562 511.417969 C 483.074219 510.609375 484.441406 509.835938 485.824219 509.09375 C 487.210938 508.355469 488.613281 507.648438 490.03125 506.976562 C 491.453125 506.304688 492.886719 505.671875 494.335938 505.070312 C 495.789062 504.46875 497.253906 503.902344 498.730469 503.375 C 500.210938 502.84375 501.703125 502.351562 503.203125 501.898438 C 504.707031 501.441406 506.21875 501.023438 507.742188 500.640625 C 509.265625 500.257812 510.796875 499.914062 512.339844 499.609375 C 513.878906 499.304688 515.425781 499.035156 516.980469 498.804688 C 518.53125 498.574219 520.089844 498.382812 521.652344 498.226562 C 523.214844 498.074219 524.78125 497.957031 526.351562 497.882812 C 527.917969 497.804688 529.488281 497.765625 531.058594 497.765625 C 532.628906 497.765625 534.199219 497.804688 535.765625 497.882812 C 537.335938 497.957031 538.902344 498.074219 540.464844 498.226562 C 542.027344 498.382812 543.585938 498.574219 545.140625 498.804688 C 546.691406 499.035156 548.238281 499.304688 549.777344 499.609375 C 551.320312 499.914062 552.851562 500.257812 554.375 500.640625 C 555.898438 501.023438 557.410156 501.441406 558.914062 501.898438 C 560.417969 502.351562 561.90625 502.84375 563.386719 503.375 C 564.863281 503.902344 566.328125 504.46875 567.78125 505.070312 C 569.230469 505.671875 570.667969 506.304688 572.085938 506.976562 C 573.503906 507.648438 574.90625 508.355469 576.292969 509.09375 C 577.675781 509.835938 579.042969 510.609375 580.390625 511.417969 C 581.738281 512.222656 583.0625 513.0625 584.371094 513.9375 C 585.675781 514.808594 586.957031 515.710938 588.21875 516.648438 C 589.480469 517.582031 590.71875 518.546875 591.933594 519.542969 C 593.148438 520.542969 594.335938 521.566406 595.5 522.621094 C 596.664062 523.675781 597.800781 524.757812 598.910156 525.867188 C 600.019531 526.980469 601.105469 528.117188 602.15625 529.277344 C 603.210938 530.441406 604.238281 531.632812 605.234375 532.84375 C 606.230469 534.058594 607.195312 535.296875 608.132812 536.558594 C 609.066406 537.820312 609.972656 539.101562 610.84375 540.40625 C 611.714844 541.714844 612.554688 543.039062 613.363281 544.386719 C 614.171875 545.734375 614.945312 547.097656 615.683594 548.484375 C 616.425781 549.871094 617.132812 551.269531 617.804688 552.691406 C 618.472656 554.109375 619.109375 555.546875 619.710938 556.996094 C 620.3125 558.445312 620.878906 559.910156 621.40625 561.390625 C 621.933594 562.867188 622.429688 564.359375 622.882812 565.863281 C 623.339844 567.363281 623.757812 568.878906 624.140625 570.402344 C 624.523438 571.925781 624.867188 573.457031 625.171875 574.996094 C 625.476562 576.535156 625.746094 578.082031 625.976562 579.636719 C 626.207031 581.1875 626.398438 582.746094 626.554688 584.308594 C 626.707031 585.871094 626.824219 587.4375 626.898438 589.007812 C 626.976562 590.574219 627.015625 592.144531 627.015625 593.714844 Z M 627.015625 593.714844 " fill-opacity="1" fill-rule="nonzero"/><path fill="#ffb544" d="M 502.289062 186.054688 L 559.339844 186.054688 L 559.339844 514.796875 L 502.289062 514.796875 Z M 502.289062 186.054688 " fill-opacity="1" fill-rule="nonzero"/></svg>