<svg xmlns="http://www.w3.org/2000/svg" xmlns:xlink="http://www.w3.org/1999/xlink" width="1080" zoomAndPan="magnify" viewBox="0 0 810 1439.999935" height="1920" preserveAspectRatio="xMidYMid meet" version="1.0"><defs><clipPath id="2d87a709b4"><path d="M 395 577.121094 L 411 577.121094 L 411 600 L 395 600 Z M 395 577.121094 " clip-rule="nonzero"/></clipPath><clipPath id="71b01cfeac"><path d="M 373 628 L 410 628 L 410 862.871094 L 373 862.871094 Z M 373 628 " clip-rule="nonzero"/></clipPath></defs><path fill="#6b99d2" d="M 472.707031 606.695312 L 471.046875 607.921875 C 470.324219 608.597656 469.726562 609.367188 469.246094 610.230469 C 468.980469 610.738281 468.765625 611.269531 468.605469 611.820312 C 468.445312 612.371094 468.339844 612.933594 468.289062 613.503906 C 468.238281 614.078125 468.242188 614.648438 468.304688 615.21875 C 468.367188 615.792969 468.484375 616.351562 468.65625 616.898438 C 468.828125 617.445312 469.054688 617.972656 469.332031 618.476562 C 469.605469 618.980469 469.929688 619.449219 470.296875 619.890625 C 470.667969 620.332031 471.074219 620.730469 471.523438 621.089844 C 471.96875 621.449219 472.449219 621.761719 472.957031 622.027344 C 473.46875 622.292969 474 622.507812 474.550781 622.667969 C 475.101562 622.828125 475.664062 622.933594 476.234375 622.984375 C 476.808594 623.035156 477.378906 623.027344 477.949219 622.964844 C 478.519531 622.902344 479.078125 622.785156 479.628906 622.613281 C 480.175781 622.441406 480.699219 622.214844 481.203125 621.941406 C 481.707031 621.664062 482.179688 621.339844 482.621094 620.972656 C 483.058594 620.601562 483.460938 620.195312 483.820312 619.746094 C 484.179688 619.296875 484.492188 618.820312 484.753906 618.308594 C 485.242188 617.457031 485.554688 616.542969 485.691406 615.570312 L 485.691406 613.402344 L 485.980469 597.027344 Z M 472.707031 606.695312 " fill-opacity="1" fill-rule="nonzero"/><path fill="#3571aa" d="M 258.148438 725.878906 L 256.417969 727.105469 C 256.164062 727.339844 255.925781 727.59375 255.699219 727.859375 C 255.476562 728.125 255.265625 728.40625 255.074219 728.695312 C 254.882812 728.988281 254.710938 729.289062 254.554688 729.601562 C 254.402344 729.914062 254.265625 730.234375 254.148438 730.5625 C 254.03125 730.890625 253.933594 731.226562 253.855469 731.566406 C 253.78125 731.90625 253.722656 732.25 253.6875 732.59375 C 253.652344 732.941406 253.636719 733.289062 253.644531 733.636719 C 253.648438 733.988281 253.675781 734.332031 253.726562 734.679688 C 253.773438 735.023438 253.839844 735.367188 253.929688 735.703125 C 254.015625 736.039062 254.125 736.371094 254.253906 736.695312 C 254.382812 737.019531 254.527344 737.335938 254.695312 737.640625 C 254.859375 737.949219 255.042969 738.242188 255.246094 738.527344 C 255.445312 738.8125 255.664062 739.082031 255.898438 739.34375 C 256.132812 739.601562 256.378906 739.84375 256.640625 740.074219 C 256.90625 740.300781 257.179688 740.515625 257.46875 740.710938 C 257.757812 740.90625 258.058594 741.082031 258.367188 741.242188 C 258.875 741.507812 259.40625 741.722656 259.957031 741.882812 C 260.511719 742.042969 261.070312 742.148438 261.644531 742.199219 C 262.214844 742.253906 262.789062 742.246094 263.359375 742.1875 C 263.929688 742.125 264.492188 742.007812 265.039062 741.839844 C 265.589844 741.667969 266.113281 741.445312 266.621094 741.171875 C 267.125 740.898438 267.597656 740.578125 268.042969 740.210938 C 268.484375 739.84375 268.886719 739.4375 269.25 738.992188 C 269.613281 738.546875 269.929688 738.070312 270.199219 737.566406 C 270.621094 736.667969 270.90625 735.730469 271.0625 734.75 L 271.0625 732.660156 L 271.351562 716.210938 Z M 258.148438 725.878906 " fill-opacity="1" fill-rule="nonzero"/><path fill="#3571aa" d="M 330.726562 611.023438 L 329.066406 612.25 C 328.347656 612.925781 327.746094 613.695312 327.265625 614.558594 C 327.007812 615.058594 326.800781 615.578125 326.648438 616.121094 C 326.492188 616.660156 326.390625 617.210938 326.34375 617.769531 C 326.296875 618.332031 326.304688 618.890625 326.371094 619.449219 C 326.433594 620.007812 326.550781 620.554688 326.722656 621.089844 C 326.890625 621.625 327.113281 622.140625 327.382812 622.632812 C 327.65625 623.125 327.972656 623.585938 328.335938 624.015625 C 328.699219 624.445312 329.097656 624.835938 329.535156 625.1875 C 329.976562 625.539062 330.445312 625.84375 330.945312 626.101562 C 331.441406 626.363281 331.957031 626.578125 332.496094 626.738281 C 333.035156 626.898438 333.585938 627.003906 334.144531 627.054688 C 334.707031 627.105469 335.265625 627.101562 335.824219 627.042969 C 336.382812 626.984375 336.929688 626.871094 337.46875 626.703125 C 338.003906 626.535156 338.519531 626.316406 339.011719 626.046875 C 339.503906 625.777344 339.96875 625.460938 340.398438 625.101562 C 340.828125 624.738281 341.21875 624.339844 341.570312 623.902344 C 341.921875 623.460938 342.226562 622.992188 342.488281 622.496094 C 342.972656 621.640625 343.285156 620.726562 343.425781 619.753906 L 343.425781 617.660156 L 343.714844 601.644531 Z M 330.726562 611.023438 " fill-opacity="1" fill-rule="nonzero"/><g clip-path="url(#2d87a709b4)"><path fill="#3571aa" d="M 398.976562 585.628906 L 397.53125 586.636719 L 397.460938 586.636719 C 396.859375 587.238281 396.351562 587.910156 395.945312 588.660156 C 395.714844 589.097656 395.53125 589.554688 395.390625 590.027344 C 395.25 590.503906 395.15625 590.988281 395.113281 591.480469 C 395.066406 591.972656 395.070312 592.464844 395.121094 592.957031 C 395.175781 593.449219 395.273438 593.933594 395.421875 594.40625 C 395.570312 594.878906 395.761719 595.332031 395.996094 595.765625 C 396.234375 596.199219 396.511719 596.609375 396.828125 596.988281 C 397.144531 597.367188 397.496094 597.714844 397.882812 598.027344 C 398.265625 598.335938 398.679688 598.605469 399.117188 598.835938 C 399.554688 599.066406 400.011719 599.25 400.488281 599.390625 C 400.960938 599.53125 401.445312 599.625 401.9375 599.667969 C 402.433594 599.710938 402.925781 599.707031 403.417969 599.65625 C 403.910156 599.605469 404.390625 599.503906 404.863281 599.355469 C 405.335938 599.207031 405.789062 599.015625 406.222656 598.777344 C 406.660156 598.542969 407.066406 598.265625 407.445312 597.945312 C 407.828125 597.628906 408.171875 597.277344 408.480469 596.894531 C 408.792969 596.507812 409.0625 596.09375 409.292969 595.65625 C 409.730469 594.921875 409.996094 594.128906 410.085938 593.277344 L 410.085938 591.472656 L 410.300781 577.332031 Z M 398.976562 585.628906 " fill-opacity="1" fill-rule="nonzero"/></g><path fill="#3571aa" d="M 284.484375 590.824219 L 283.472656 591.542969 C 283.03125 591.964844 282.671875 592.445312 282.390625 592.988281 C 282.191406 593.296875 282.027344 593.621094 281.898438 593.964844 C 281.765625 594.304688 281.671875 594.65625 281.613281 595.019531 C 281.558594 595.382812 281.539062 595.746094 281.558594 596.113281 C 281.578125 596.476562 281.632812 596.839844 281.726562 597.191406 C 281.820312 597.546875 281.949219 597.886719 282.117188 598.214844 C 282.28125 598.542969 282.480469 598.847656 282.707031 599.132812 C 282.9375 599.421875 283.195312 599.679688 283.476562 599.914062 C 283.761719 600.144531 284.066406 600.34375 284.390625 600.515625 C 284.714844 600.683594 285.054688 600.816406 285.40625 600.914062 C 285.761719 601.011719 286.121094 601.074219 286.484375 601.097656 C 286.851562 601.121094 287.214844 601.105469 287.578125 601.050781 C 287.941406 601 288.292969 600.910156 288.640625 600.78125 C 288.984375 600.65625 289.308594 600.496094 289.621094 600.300781 C 289.929688 600.105469 290.21875 599.878906 290.480469 599.625 C 290.742188 599.371094 290.976562 599.089844 291.183594 598.785156 C 291.386719 598.484375 291.558594 598.160156 291.699219 597.820312 C 292 597.304688 292.191406 596.753906 292.273438 596.160156 L 292.273438 594.863281 L 292.417969 585.050781 Z M 284.484375 590.824219 " fill-opacity="1" fill-rule="nonzero"/><path fill="#6b99d2" d="M 548.097656 719.382812 L 547.089844 720.105469 C 546.648438 720.5 546.285156 720.957031 546.007812 721.476562 C 545.824219 721.785156 545.675781 722.105469 545.558594 722.441406 C 545.441406 722.78125 545.363281 723.125 545.316406 723.480469 C 545.269531 723.832031 545.261719 724.1875 545.285156 724.542969 C 545.3125 724.898438 545.375 725.25 545.472656 725.589844 C 545.570312 725.933594 545.699219 726.265625 545.863281 726.582031 C 546.027344 726.898438 546.222656 727.195312 546.445312 727.472656 C 546.671875 727.75 546.921875 728 547.195312 728.226562 C 547.472656 728.453125 547.769531 728.648438 548.082031 728.816406 C 548.398438 728.984375 548.726562 729.117188 549.070312 729.214844 C 549.414062 729.3125 549.761719 729.378906 550.117188 729.40625 C 550.472656 729.433594 550.828125 729.429688 551.179688 729.382812 C 551.535156 729.339844 551.882812 729.261719 552.21875 729.148438 C 552.558594 729.035156 552.878906 728.886719 553.1875 728.707031 C 553.496094 728.527344 553.785156 728.320312 554.050781 728.082031 C 554.316406 727.84375 554.554688 727.582031 554.769531 727.296875 C 554.980469 727.011719 555.160156 726.707031 555.3125 726.382812 C 555.605469 725.835938 555.796875 725.261719 555.890625 724.652344 L 555.890625 723.496094 L 556.105469 713.613281 Z M 548.097656 719.382812 " fill-opacity="1" fill-rule="nonzero"/><path fill="#3571aa" d="M 527.898438 590.824219 L 526.886719 591.542969 C 526.445312 591.964844 526.085938 592.445312 525.804688 592.988281 C 525.648438 593.296875 525.519531 593.617188 525.425781 593.949219 C 525.332031 594.28125 525.269531 594.621094 525.242188 594.964844 C 525.210938 595.308594 525.21875 595.65625 525.257812 596 C 525.296875 596.34375 525.367188 596.679688 525.472656 597.007812 C 525.578125 597.339844 525.714844 597.652344 525.882812 597.957031 C 526.050781 598.257812 526.246094 598.542969 526.472656 598.808594 C 526.695312 599.070312 526.941406 599.3125 527.214844 599.527344 C 527.484375 599.742188 527.773438 599.929688 528.082031 600.085938 C 528.390625 600.246094 528.707031 600.375 529.042969 600.46875 C 529.375 600.5625 529.714844 600.625 530.058594 600.65625 C 530.402344 600.683594 530.746094 600.679688 531.089844 600.640625 C 531.433594 600.601562 531.773438 600.53125 532.101562 600.425781 C 532.429688 600.320312 532.746094 600.183594 533.050781 600.015625 C 533.355469 599.847656 533.636719 599.652344 533.902344 599.429688 C 534.167969 599.207031 534.40625 598.957031 534.621094 598.6875 C 534.839844 598.417969 535.027344 598.128906 535.183594 597.820312 C 535.460938 597.300781 535.628906 596.75 535.6875 596.160156 L 535.6875 594.863281 L 535.832031 585.050781 Z M 527.898438 590.824219 " fill-opacity="1" fill-rule="nonzero"/><path fill="#3571aa" d="M 245.667969 628.265625 L 244.660156 628.988281 C 244.21875 629.40625 243.855469 629.886719 243.578125 630.429688 C 243.453125 630.730469 243.363281 631.042969 243.296875 631.359375 C 243.230469 631.679688 243.195312 632 243.191406 632.324219 C 243.1875 632.648438 243.210938 632.972656 243.265625 633.292969 C 243.320312 633.613281 243.402344 633.925781 243.515625 634.230469 C 243.628906 634.535156 243.765625 634.828125 243.933594 635.109375 C 244.101562 635.386719 244.292969 635.648438 244.507812 635.894531 C 244.722656 636.136719 244.957031 636.359375 245.210938 636.558594 C 245.46875 636.757812 245.742188 636.933594 246.03125 637.085938 C 246.316406 637.234375 246.617188 637.355469 246.929688 637.449219 C 247.242188 637.542969 247.558594 637.609375 247.878906 637.644531 C 248.203125 637.679688 248.527344 637.6875 248.851562 637.664062 C 249.175781 637.636719 249.496094 637.585938 249.808594 637.5 C 250.125 637.417969 250.425781 637.304688 250.71875 637.164062 C 251.015625 637.027344 251.292969 636.859375 251.554688 636.667969 C 251.816406 636.476562 252.0625 636.265625 252.285156 636.027344 C 252.507812 635.792969 252.707031 635.539062 252.882812 635.265625 C 253.183594 634.75 253.378906 634.195312 253.460938 633.605469 L 253.460938 632.304688 L 253.675781 622.496094 Z M 245.667969 628.265625 " fill-opacity="1" fill-rule="nonzero"/><path fill="#3571aa" d="M 548.097656 618.238281 L 547.089844 618.960938 C 546.644531 619.378906 546.285156 619.859375 546.007812 620.402344 C 545.808594 620.710938 545.644531 621.035156 545.511719 621.378906 C 545.382812 621.71875 545.289062 622.074219 545.230469 622.433594 C 545.171875 622.796875 545.152344 623.160156 545.171875 623.527344 C 545.191406 623.894531 545.25 624.253906 545.34375 624.609375 C 545.4375 624.960938 545.566406 625.300781 545.730469 625.628906 C 545.898438 625.957031 546.09375 626.261719 546.324219 626.550781 C 546.550781 626.835938 546.808594 627.09375 547.09375 627.328125 C 547.375 627.558594 547.679688 627.761719 548.003906 627.929688 C 548.332031 628.097656 548.667969 628.230469 549.023438 628.328125 C 549.375 628.429688 549.734375 628.488281 550.101562 628.511719 C 550.46875 628.535156 550.832031 628.519531 551.195312 628.46875 C 551.558594 628.414062 551.910156 628.324219 552.253906 628.195312 C 552.597656 628.070312 552.925781 627.910156 553.234375 627.714844 C 553.546875 627.519531 553.832031 627.292969 554.097656 627.039062 C 554.359375 626.785156 554.59375 626.503906 554.796875 626.199219 C 555.003906 625.898438 555.175781 625.574219 555.3125 625.234375 C 555.613281 624.71875 555.804688 624.167969 555.890625 623.578125 L 555.890625 622.277344 L 556.105469 612.464844 Z M 548.097656 618.238281 " fill-opacity="1" fill-rule="nonzero"/><path fill="#6b99d2" d="M 268.753906 810.933594 L 267.746094 811.65625 C 267.304688 812.078125 266.941406 812.558594 266.664062 813.097656 C 266.503906 813.40625 266.378906 813.726562 266.28125 814.0625 C 266.1875 814.394531 266.125 814.734375 266.09375 815.078125 C 266.066406 815.421875 266.070312 815.769531 266.109375 816.113281 C 266.148438 816.457031 266.222656 816.792969 266.328125 817.125 C 266.433594 817.453125 266.570312 817.769531 266.738281 818.074219 C 266.90625 818.375 267.101562 818.660156 267.324219 818.925781 C 267.550781 819.1875 267.796875 819.429688 268.066406 819.644531 C 268.339844 819.859375 268.628906 820.046875 268.9375 820.207031 C 269.242188 820.363281 269.5625 820.492188 269.898438 820.585938 C 270.230469 820.683594 270.570312 820.746094 270.914062 820.773438 C 271.257812 820.800781 271.605469 820.796875 271.949219 820.757812 C 272.292969 820.71875 272.628906 820.648438 272.960938 820.542969 C 273.289062 820.4375 273.605469 820.300781 273.910156 820.132812 C 274.210938 819.964844 274.496094 819.765625 274.761719 819.542969 C 275.023438 819.320312 275.265625 819.074219 275.480469 818.800781 C 275.695312 818.53125 275.882812 818.242188 276.042969 817.933594 C 276.285156 817.402344 276.453125 816.851562 276.546875 816.273438 L 276.546875 815.046875 L 276.761719 805.164062 Z M 268.753906 810.933594 " fill-opacity="1" fill-rule="nonzero"/><path fill="#6b99d2" d="M 283.328125 656.113281 L 281.957031 657.125 L 281.886719 657.125 C 281.28125 657.722656 280.777344 658.398438 280.371094 659.144531 C 280.179688 659.574219 280.03125 660.019531 279.925781 660.480469 C 279.820312 660.941406 279.757812 661.40625 279.742188 661.878906 C 279.722656 662.347656 279.75 662.816406 279.820312 663.285156 C 279.890625 663.75 280.003906 664.207031 280.160156 664.648438 C 280.316406 665.09375 280.511719 665.523438 280.75 665.929688 C 280.988281 666.335938 281.257812 666.71875 281.566406 667.078125 C 281.878906 667.433594 282.214844 667.757812 282.585938 668.050781 C 282.957031 668.34375 283.351562 668.597656 283.769531 668.816406 C 284.1875 669.035156 284.621094 669.210938 285.074219 669.347656 C 285.523438 669.484375 285.984375 669.574219 286.453125 669.625 C 286.921875 669.675781 287.390625 669.679688 287.863281 669.640625 C 288.332031 669.601562 288.792969 669.519531 289.25 669.390625 C 289.703125 669.265625 290.140625 669.097656 290.566406 668.890625 C 290.988281 668.679688 291.386719 668.433594 291.761719 668.148438 C 292.140625 667.863281 292.484375 667.546875 292.800781 667.199219 C 293.117188 666.847656 293.398438 666.472656 293.644531 666.070312 C 294.007812 665.308594 294.273438 664.515625 294.4375 663.6875 L 294.4375 661.886719 L 294.65625 647.890625 Z M 283.328125 656.113281 " fill-opacity="1" fill-rule="nonzero"/><path fill="#3571aa" d="M 517.871094 661.957031 L 516.425781 663.039062 C 515.777344 663.605469 515.273438 664.277344 514.910156 665.058594 C 514.6875 665.492188 514.503906 665.945312 514.367188 666.414062 C 514.230469 666.882812 514.140625 667.359375 514.097656 667.847656 C 514.054688 668.335938 514.0625 668.820312 514.117188 669.308594 C 514.167969 669.792969 514.269531 670.269531 514.417969 670.734375 C 514.5625 671.199219 514.753906 671.648438 514.988281 672.078125 C 515.226562 672.503906 515.5 672.90625 515.816406 673.28125 C 516.128906 673.65625 516.476562 673.996094 516.859375 674.300781 C 517.242188 674.605469 517.648438 674.871094 518.082031 675.097656 C 518.515625 675.320312 518.96875 675.5 519.4375 675.636719 C 519.90625 675.773438 520.382812 675.863281 520.871094 675.90625 C 521.359375 675.945312 521.84375 675.941406 522.332031 675.886719 C 522.816406 675.832031 523.292969 675.730469 523.757812 675.585938 C 524.222656 675.4375 524.671875 675.246094 525.097656 675.007812 C 525.527344 674.773438 525.925781 674.496094 526.300781 674.183594 C 526.675781 673.867188 527.015625 673.519531 527.320312 673.136719 C 527.625 672.753906 527.890625 672.347656 528.113281 671.914062 C 528.53125 671.171875 528.796875 670.375 528.90625 669.53125 L 528.90625 667.730469 L 529.195312 653.804688 Z M 517.871094 661.957031 " fill-opacity="1" fill-rule="nonzero"/><path fill="#3571aa" d="M 539.441406 799.03125 L 537.996094 800.042969 C 537.347656 800.605469 536.84375 801.277344 536.484375 802.0625 C 536.253906 802.496094 536.074219 802.945312 535.933594 803.414062 C 535.796875 803.886719 535.703125 804.363281 535.660156 804.851562 C 535.617188 805.339844 535.621094 805.824219 535.671875 806.3125 C 535.722656 806.800781 535.820312 807.277344 535.96875 807.742188 C 536.113281 808.210938 536.304688 808.660156 536.539062 809.089844 C 536.769531 809.519531 537.046875 809.921875 537.359375 810.296875 C 537.671875 810.675781 538.019531 811.015625 538.398438 811.324219 C 538.78125 811.628906 539.1875 811.898438 539.621094 812.125 C 540.054688 812.351562 540.507812 812.535156 540.976562 812.675781 C 541.445312 812.8125 541.921875 812.902344 542.410156 812.949219 C 542.898438 812.992188 543.386719 812.988281 543.871094 812.9375 C 544.359375 812.886719 544.835938 812.785156 545.304688 812.640625 C 545.769531 812.496094 546.21875 812.304688 546.648438 812.070312 C 547.078125 811.835938 547.480469 811.5625 547.859375 811.25 C 548.234375 810.9375 548.574219 810.589844 548.882812 810.207031 C 549.191406 809.828125 549.457031 809.421875 549.683594 808.988281 C 550.082031 808.238281 550.34375 807.445312 550.480469 806.605469 L 550.480469 804.804688 L 550.765625 790.808594 Z M 539.441406 799.03125 " fill-opacity="1" fill-rule="nonzero"/><path fill="#b4e3fb" d="M 323.328125 580.46875 L 326.449219 582.269531 C 326.574219 582.34375 326.679688 582.433594 326.769531 582.550781 C 326.855469 582.664062 326.917969 582.789062 326.953125 582.929688 C 326.992188 583.066406 327 583.207031 326.980469 583.347656 C 326.964844 583.492188 326.917969 583.625 326.847656 583.75 L 315.265625 603.804688 C 315.195312 603.929688 315.101562 604.035156 314.988281 604.121094 C 314.875 604.210938 314.75 604.273438 314.609375 604.308594 C 314.472656 604.347656 314.332031 604.355469 314.1875 604.335938 C 314.046875 604.316406 313.914062 604.273438 313.789062 604.199219 L 310.664062 602.398438 C 310.539062 602.324219 310.433594 602.234375 310.347656 602.117188 C 310.261719 602.003906 310.199219 601.878906 310.160156 601.742188 C 310.125 601.601562 310.113281 601.460938 310.132812 601.320312 C 310.152344 601.175781 310.195312 601.042969 310.269531 600.917969 L 321.847656 580.863281 C 321.917969 580.738281 322.011719 580.632812 322.125 580.546875 C 322.242188 580.457031 322.367188 580.394531 322.503906 580.359375 C 322.644531 580.320312 322.785156 580.3125 322.925781 580.332031 C 323.070312 580.351562 323.203125 580.394531 323.328125 580.46875 Z M 323.328125 580.46875 " fill-opacity="1" fill-rule="nonzero"/><path fill="#b4e3fb" d="M 258.464844 652.585938 L 261.589844 654.390625 C 261.714844 654.460938 261.820312 654.554688 261.90625 654.667969 C 261.992188 654.78125 262.054688 654.910156 262.09375 655.046875 C 262.128906 655.1875 262.140625 655.328125 262.121094 655.46875 C 262.101562 655.613281 262.054688 655.746094 261.984375 655.867188 L 250.40625 675.925781 C 250.332031 676.050781 250.242188 676.15625 250.128906 676.242188 C 250.011719 676.328125 249.886719 676.390625 249.75 676.429688 C 249.609375 676.464844 249.46875 676.476562 249.328125 676.457031 C 249.183594 676.4375 249.050781 676.390625 248.925781 676.320312 L 245.804688 674.515625 C 245.679688 674.445312 245.574219 674.351562 245.484375 674.238281 C 245.398438 674.125 245.335938 674 245.300781 673.859375 C 245.261719 673.722656 245.253906 673.582031 245.273438 673.4375 C 245.289062 673.296875 245.335938 673.164062 245.40625 673.039062 L 256.988281 652.984375 C 257.058594 652.859375 257.152344 652.753906 257.265625 652.664062 C 257.378906 652.578125 257.503906 652.515625 257.644531 652.480469 C 257.78125 652.441406 257.921875 652.433594 258.066406 652.453125 C 258.207031 652.46875 258.339844 652.515625 258.464844 652.585938 Z M 258.464844 652.585938 " fill-opacity="1" fill-rule="nonzero"/><path fill="#b4e3fb" d="M 563.269531 666.671875 L 566.394531 668.476562 C 566.519531 668.546875 566.625 668.640625 566.710938 668.753906 C 566.800781 668.867188 566.863281 668.996094 566.898438 669.132812 C 566.9375 669.273438 566.945312 669.414062 566.925781 669.554688 C 566.90625 669.695312 566.863281 669.832031 566.792969 669.953125 L 555.210938 690.011719 C 555.140625 690.132812 555.046875 690.242188 554.933594 690.328125 C 554.820312 690.414062 554.695312 690.476562 554.554688 690.515625 C 554.417969 690.550781 554.277344 690.5625 554.132812 690.542969 C 553.992188 690.523438 553.859375 690.476562 553.734375 690.40625 L 550.609375 688.601562 C 550.484375 688.53125 550.378906 688.4375 550.292969 688.324219 C 550.203125 688.210938 550.144531 688.085938 550.105469 687.945312 C 550.070312 687.808594 550.058594 687.667969 550.078125 687.523438 C 550.097656 687.382812 550.140625 687.25 550.214844 687.125 L 561.792969 667.070312 C 561.863281 666.945312 561.957031 666.839844 562.070312 666.75 C 562.183594 666.664062 562.3125 666.601562 562.449219 666.566406 C 562.589844 666.527344 562.730469 666.519531 562.871094 666.535156 C 563.011719 666.554688 563.148438 666.601562 563.269531 666.671875 Z M 563.269531 666.671875 " fill-opacity="1" fill-rule="nonzero"/><path fill="#b4e3fb" d="M 511.871094 610.597656 L 514.992188 612.402344 C 515.117188 612.472656 515.222656 612.566406 515.3125 612.679688 C 515.398438 612.792969 515.460938 612.917969 515.5 613.058594 C 515.535156 613.195312 515.542969 613.335938 515.527344 613.480469 C 515.507812 613.621094 515.460938 613.753906 515.390625 613.878906 L 503.8125 633.933594 C 503.738281 634.058594 503.644531 634.164062 503.53125 634.253906 C 503.417969 634.339844 503.292969 634.402344 503.152344 634.4375 C 503.015625 634.476562 502.875 634.484375 502.730469 634.464844 C 502.589844 634.449219 502.457031 634.402344 502.332031 634.332031 L 499.207031 632.527344 C 499.085938 632.457031 498.976562 632.363281 498.890625 632.25 C 498.804688 632.136719 498.742188 632.007812 498.703125 631.871094 C 498.667969 631.730469 498.65625 631.589844 498.675781 631.449219 C 498.695312 631.304688 498.742188 631.171875 498.8125 631.050781 L 510.390625 610.992188 C 510.464844 610.867188 510.554688 610.761719 510.671875 610.675781 C 510.785156 610.589844 510.910156 610.527344 511.046875 610.488281 C 511.1875 610.453125 511.328125 610.441406 511.46875 610.460938 C 511.613281 610.480469 511.746094 610.527344 511.871094 610.597656 Z M 511.871094 610.597656 " fill-opacity="1" fill-rule="nonzero"/><path fill="#b4e3fb" d="M 451.996094 580.976562 L 455.117188 582.78125 C 455.242188 582.851562 455.347656 582.945312 455.4375 583.058594 C 455.523438 583.171875 455.585938 583.300781 455.625 583.4375 C 455.660156 583.574219 455.667969 583.714844 455.652344 583.859375 C 455.632812 584 455.585938 584.132812 455.515625 584.257812 L 443.9375 604.3125 C 443.863281 604.4375 443.769531 604.542969 443.65625 604.632812 C 443.542969 604.71875 443.417969 604.78125 443.277344 604.820312 C 443.140625 604.855469 443 604.863281 442.855469 604.847656 C 442.714844 604.828125 442.582031 604.78125 442.457031 604.710938 L 439.332031 602.90625 C 439.210938 602.835938 439.101562 602.742188 439.015625 602.628906 C 438.929688 602.515625 438.867188 602.386719 438.828125 602.25 C 438.792969 602.109375 438.78125 601.96875 438.800781 601.828125 C 438.820312 601.6875 438.867188 601.554688 438.9375 601.429688 L 450.515625 581.371094 C 450.589844 581.25 450.679688 581.144531 450.796875 581.054688 C 450.910156 580.96875 451.035156 580.90625 451.171875 580.867188 C 451.3125 580.832031 451.453125 580.824219 451.59375 580.839844 C 451.738281 580.859375 451.871094 580.90625 451.996094 580.976562 Z M 451.996094 580.976562 " fill-opacity="1" fill-rule="nonzero"/><path fill="#b4e3fb" d="M 563.269531 752.441406 L 566.394531 754.246094 C 566.519531 754.316406 566.625 754.410156 566.710938 754.523438 C 566.800781 754.636719 566.863281 754.761719 566.898438 754.902344 C 566.9375 755.039062 566.945312 755.179688 566.925781 755.324219 C 566.910156 755.464844 566.863281 755.597656 566.792969 755.722656 L 555.210938 775.777344 C 555.140625 775.902344 555.046875 776.007812 554.933594 776.09375 C 554.820312 776.183594 554.695312 776.246094 554.554688 776.28125 C 554.417969 776.320312 554.277344 776.328125 554.132812 776.308594 C 553.992188 776.292969 553.859375 776.246094 553.734375 776.175781 L 550.609375 774.371094 C 550.484375 774.300781 550.378906 774.207031 550.292969 774.09375 C 550.203125 773.976562 550.144531 773.851562 550.105469 773.714844 C 550.070312 773.574219 550.058594 773.433594 550.078125 773.292969 C 550.097656 773.148438 550.140625 773.015625 550.214844 772.890625 L 561.792969 752.835938 C 561.863281 752.710938 561.957031 752.605469 562.070312 752.519531 C 562.183594 752.433594 562.3125 752.371094 562.449219 752.332031 C 562.589844 752.296875 562.730469 752.285156 562.871094 752.304688 C 563.011719 752.324219 563.148438 752.367188 563.269531 752.441406 Z M 563.269531 752.441406 " fill-opacity="1" fill-rule="nonzero"/><path fill="#b4e3fb" d="M 263.078125 768.375 L 266.199219 770.179688 C 266.324219 770.25 266.429688 770.34375 266.519531 770.457031 C 266.605469 770.574219 266.667969 770.699219 266.703125 770.835938 C 266.742188 770.976562 266.75 771.117188 266.734375 771.257812 C 266.714844 771.402344 266.667969 771.535156 266.597656 771.660156 L 255.019531 791.714844 C 254.945312 791.839844 254.851562 791.945312 254.738281 792.03125 C 254.625 792.117188 254.5 792.179688 254.359375 792.21875 C 254.222656 792.253906 254.082031 792.265625 253.9375 792.246094 C 253.796875 792.226562 253.664062 792.183594 253.539062 792.109375 L 250.414062 790.304688 C 250.292969 790.234375 250.183594 790.140625 250.097656 790.027344 C 250.011719 789.914062 249.949219 789.789062 249.910156 789.648438 C 249.875 789.511719 249.863281 789.371094 249.882812 789.226562 C 249.902344 789.085938 249.949219 788.953125 250.019531 788.828125 L 261.597656 768.773438 C 261.671875 768.648438 261.761719 768.542969 261.875 768.457031 C 261.992188 768.367188 262.117188 768.304688 262.253906 768.269531 C 262.394531 768.230469 262.535156 768.222656 262.675781 768.242188 C 262.820312 768.257812 262.953125 768.304688 263.078125 768.375 Z M 263.078125 768.375 " fill-opacity="1" fill-rule="nonzero"/><path fill="#26477a" d="M 412.46875 629.132812 C 412.46875 629.71875 412.429688 630.300781 412.351562 630.875 C 412.273438 631.453125 412.15625 632.011719 412.003906 632.554688 C 411.851562 633.097656 411.667969 633.613281 411.445312 634.101562 C 411.222656 634.589844 410.972656 635.042969 410.691406 635.457031 C 410.410156 635.871094 410.105469 636.242188 409.773438 636.570312 C 409.441406 636.894531 409.09375 637.171875 408.726562 637.398438 C 408.359375 637.621094 407.980469 637.789062 407.589844 637.90625 C 407.199219 638.019531 406.804688 638.078125 406.40625 638.078125 C 406.007812 638.078125 405.613281 638.019531 405.222656 637.90625 C 404.835938 637.789062 404.457031 637.621094 404.085938 637.398438 C 403.71875 637.171875 403.371094 636.894531 403.039062 636.570312 C 402.710938 636.242188 402.402344 635.871094 402.121094 635.457031 C 401.839844 635.042969 401.589844 634.589844 401.367188 634.101562 C 401.148438 633.613281 400.960938 633.097656 400.808594 632.554688 C 400.65625 632.011719 400.539062 631.453125 400.464844 630.875 C 400.386719 630.300781 400.347656 629.71875 400.347656 629.132812 C 400.347656 628.542969 400.386719 627.960938 400.464844 627.386719 C 400.539062 626.808594 400.65625 626.25 400.808594 625.707031 C 400.960938 625.164062 401.148438 624.648438 401.367188 624.160156 C 401.589844 623.671875 401.839844 623.222656 402.121094 622.804688 C 402.402344 622.390625 402.710938 622.019531 403.039062 621.691406 C 403.371094 621.367188 403.71875 621.089844 404.085938 620.867188 C 404.457031 620.640625 404.835938 620.472656 405.222656 620.359375 C 405.613281 620.242188 406.007812 620.1875 406.40625 620.1875 C 406.804688 620.1875 407.199219 620.242188 407.589844 620.359375 C 407.980469 620.472656 408.359375 620.640625 408.726562 620.867188 C 409.09375 621.089844 409.441406 621.367188 409.773438 621.691406 C 410.105469 622.019531 410.410156 622.390625 410.691406 622.804688 C 410.972656 623.222656 411.222656 623.671875 411.445312 624.160156 C 411.667969 624.648438 411.851562 625.164062 412.003906 625.707031 C 412.15625 626.25 412.273438 626.808594 412.351562 627.386719 C 412.429688 627.960938 412.46875 628.542969 412.46875 629.132812 Z M 412.46875 629.132812 " fill-opacity="1" fill-rule="nonzero"/><g clip-path="url(#71b01cfeac)"><path fill="#26477a" d="M 403.375 628.480469 L 403.375 844.554688 C 403.378906 845.351562 403.300781 846.140625 403.144531 846.921875 C 402.992188 847.703125 402.761719 848.460938 402.457031 849.195312 C 402.152344 849.933594 401.78125 850.632812 401.339844 851.292969 C 400.894531 851.957031 400.394531 852.570312 399.832031 853.132812 C 399.269531 853.695312 398.65625 854.199219 397.992188 854.640625 C 397.332031 855.085938 396.632812 855.457031 395.898438 855.761719 C 395.160156 856.066406 394.402344 856.296875 393.621094 856.453125 C 392.839844 856.609375 392.054688 856.6875 391.257812 856.6875 C 390.460938 856.6875 389.671875 856.609375 388.890625 856.453125 C 388.109375 856.296875 387.351562 856.066406 386.617188 855.761719 C 385.878906 855.457031 385.179688 855.085938 384.519531 854.640625 C 383.855469 854.199219 383.246094 853.695312 382.683594 853.132812 C 382.121094 852.570312 381.617188 851.957031 381.175781 851.292969 C 380.734375 850.632812 380.359375 849.933594 380.054688 849.195312 C 379.75 848.460938 379.523438 847.703125 379.367188 846.921875 C 379.210938 846.140625 379.136719 845.351562 379.136719 844.554688 L 373.074219 844.554688 C 373.074219 845.148438 373.105469 845.742188 373.164062 846.335938 C 373.222656 846.929688 373.308594 847.515625 373.425781 848.101562 C 373.542969 848.683594 373.6875 849.261719 373.859375 849.832031 C 374.03125 850.402344 374.230469 850.960938 374.460938 851.511719 C 374.6875 852.0625 374.941406 852.597656 375.222656 853.125 C 375.503906 853.648438 375.808594 854.160156 376.140625 854.65625 C 376.472656 855.148438 376.824219 855.628906 377.203125 856.089844 C 377.582031 856.546875 377.980469 856.988281 378.402344 857.410156 C 378.820312 857.832031 379.261719 858.230469 379.722656 858.609375 C 380.183594 858.984375 380.660156 859.339844 381.15625 859.671875 C 381.652344 860 382.160156 860.308594 382.6875 860.589844 C 383.210938 860.867188 383.75 861.121094 384.300781 861.351562 C 384.847656 861.578125 385.410156 861.777344 385.980469 861.953125 C 386.546875 862.125 387.125 862.269531 387.710938 862.386719 C 388.292969 862.5 388.882812 862.589844 389.472656 862.648438 C 390.066406 862.707031 390.660156 862.734375 391.257812 862.734375 C 391.851562 862.734375 392.445312 862.707031 393.039062 862.648438 C 393.632812 862.589844 394.21875 862.5 394.804688 862.386719 C 395.386719 862.269531 395.964844 862.125 396.535156 861.953125 C 397.105469 861.777344 397.664062 861.578125 398.214844 861.351562 C 398.765625 861.121094 399.300781 860.867188 399.828125 860.589844 C 400.351562 860.308594 400.863281 860 401.355469 859.671875 C 401.851562 859.339844 402.328125 858.984375 402.789062 858.609375 C 403.25 858.230469 403.691406 857.832031 404.113281 857.410156 C 404.53125 856.988281 404.933594 856.546875 405.308594 856.089844 C 405.6875 855.628906 406.042969 855.148438 406.371094 854.65625 C 406.703125 854.160156 407.007812 853.648438 407.289062 853.125 C 407.570312 852.597656 407.824219 852.0625 408.054688 851.511719 C 408.28125 850.960938 408.480469 850.402344 408.652344 849.832031 C 408.828125 849.261719 408.972656 848.683594 409.085938 848.101562 C 409.203125 847.515625 409.289062 846.929688 409.347656 846.335938 C 409.40625 845.742188 409.4375 845.148438 409.4375 844.554688 L 409.4375 628.480469 Z M 403.375 628.480469 " fill-opacity="1" fill-rule="nonzero"/></g><path fill="#ffb544" d="M 520.179688 742.253906 L 520.179688 742.6875 C 520.128906 741.785156 520.039062 740.886719 519.902344 739.992188 C 519.769531 739.101562 519.59375 738.214844 519.375 737.339844 C 519.15625 736.460938 518.898438 735.597656 518.597656 734.746094 C 518.296875 733.894531 517.957031 733.058594 517.578125 732.238281 C 517.195312 731.417969 516.777344 730.617188 516.320312 729.839844 C 515.867188 729.058594 515.375 728.300781 514.847656 727.570312 C 514.316406 726.835938 513.757812 726.128906 513.160156 725.449219 C 512.566406 724.769531 511.941406 724.121094 511.28125 723.5 C 510.625 722.878906 509.941406 722.292969 509.226562 721.738281 C 508.515625 721.183594 507.777344 720.664062 507.015625 720.179688 C 506.253906 719.691406 505.46875 719.246094 504.664062 718.835938 C 503.859375 718.425781 503.035156 718.054688 502.195312 717.722656 C 501.355469 717.390625 500.503906 717.097656 499.632812 716.847656 C 498.765625 716.597656 497.886719 716.386719 497 716.21875 C 496.113281 716.054688 495.21875 715.929688 494.320312 715.847656 C 493.417969 715.761719 492.519531 715.722656 491.613281 715.726562 C 490.710938 715.730469 489.808594 715.777344 488.910156 715.867188 C 488.011719 715.957031 487.117188 716.085938 486.234375 716.261719 C 485.347656 716.433594 484.46875 716.652344 483.605469 716.910156 C 482.738281 717.164062 481.886719 717.464844 481.046875 717.800781 C 480.210938 718.140625 479.390625 718.519531 478.589844 718.933594 C 477.789062 719.351562 477.007812 719.804688 476.25 720.296875 C 475.488281 720.785156 474.757812 721.3125 474.046875 721.871094 C 473.339844 722.433594 472.660156 723.023438 472.007812 723.648438 C 471.355469 724.273438 470.734375 724.929688 470.140625 725.613281 C 469.550781 726.296875 468.996094 727.007812 468.472656 727.746094 C 467.953125 728.480469 467.464844 729.242188 467.015625 730.027344 C 466.566406 730.808594 466.152344 731.613281 465.777344 732.433594 C 465.40625 733.257812 465.070312 734.09375 464.777344 734.949219 C 464.484375 735.804688 464.230469 736.671875 464.019531 737.546875 C 463.808594 738.425781 463.636719 739.3125 463.511719 740.207031 C 463.382812 741.101562 463.296875 742 463.257812 742.902344 C 463.257812 741.972656 463.210938 741.042969 463.121094 740.117188 C 463.027344 739.191406 462.890625 738.269531 462.710938 737.359375 C 462.527344 736.445312 462.304688 735.542969 462.03125 734.652344 C 461.761719 733.761719 461.449219 732.886719 461.09375 732.027344 C 460.738281 731.164062 460.339844 730.324219 459.898438 729.503906 C 459.460938 728.683594 458.984375 727.886719 458.464844 727.109375 C 457.949219 726.335938 457.394531 725.589844 456.804688 724.871094 C 456.214844 724.152344 455.589844 723.460938 454.929688 722.804688 C 454.273438 722.144531 453.582031 721.519531 452.863281 720.929688 C 452.144531 720.339844 451.398438 719.785156 450.625 719.269531 C 449.851562 718.75 449.050781 718.273438 448.230469 717.835938 C 447.410156 717.394531 446.570312 717 445.710938 716.640625 C 444.847656 716.285156 443.972656 715.972656 443.082031 715.703125 C 442.191406 715.433594 441.289062 715.207031 440.378906 715.023438 C 439.464844 714.84375 438.542969 714.707031 437.617188 714.613281 C 436.691406 714.523438 435.761719 714.476562 434.832031 714.476562 C 433.902344 714.476562 432.972656 714.523438 432.046875 714.613281 C 431.117188 714.707031 430.199219 714.84375 429.285156 715.023438 C 428.375 715.207031 427.472656 715.433594 426.582031 715.703125 C 425.691406 715.972656 424.8125 716.285156 423.953125 716.640625 C 423.09375 717 422.253906 717.394531 421.433594 717.835938 C 420.609375 718.273438 419.8125 718.75 419.039062 719.269531 C 418.265625 719.785156 417.519531 720.339844 416.800781 720.929688 C 416.078125 721.519531 415.390625 722.144531 414.730469 722.804688 C 414.074219 723.460938 413.449219 724.152344 412.859375 724.871094 C 412.269531 725.589844 411.714844 726.335938 411.195312 727.109375 C 410.679688 727.886719 410.203125 728.683594 409.761719 729.503906 C 409.324219 730.324219 408.925781 731.164062 408.570312 732.027344 C 408.214844 732.886719 407.902344 733.761719 407.628906 734.652344 C 407.359375 735.542969 407.132812 736.445312 406.953125 737.359375 C 406.769531 738.269531 406.636719 739.191406 406.542969 740.117188 C 406.453125 741.042969 406.40625 741.972656 406.40625 742.902344 C 406.363281 742 406.273438 741.101562 406.140625 740.210938 C 406.011719 739.316406 405.839844 738.429688 405.625 737.550781 C 405.410156 736.675781 405.152344 735.808594 404.855469 734.957031 C 404.558594 734.105469 404.21875 733.265625 403.84375 732.445312 C 403.464844 731.625 403.050781 730.824219 402.597656 730.042969 C 402.144531 729.261719 401.65625 728.503906 401.128906 727.765625 C 400.605469 727.03125 400.046875 726.324219 399.453125 725.640625 C 398.859375 724.960938 398.238281 724.308594 397.582031 723.683594 C 396.929688 723.0625 396.246094 722.472656 395.535156 721.914062 C 394.824219 721.359375 394.089844 720.835938 393.328125 720.347656 C 392.566406 719.859375 391.785156 719.410156 390.980469 718.996094 C 390.179688 718.582031 389.359375 718.207031 388.519531 717.875 C 387.679688 717.539062 386.828125 717.242188 385.960938 716.988281 C 385.09375 716.734375 384.214844 716.523438 383.328125 716.351562 C 382.441406 716.183594 381.550781 716.054688 380.648438 715.96875 C 379.75 715.882812 378.847656 715.839844 377.945312 715.839844 C 377.042969 715.839844 376.140625 715.882812 375.242188 715.96875 C 374.34375 716.054688 373.449219 716.183594 372.5625 716.351562 C 371.675781 716.523438 370.796875 716.734375 369.929688 716.988281 C 369.0625 717.242188 368.210938 717.539062 367.371094 717.875 C 366.535156 718.207031 365.710938 718.582031 364.910156 718.996094 C 364.105469 719.410156 363.324219 719.859375 362.5625 720.347656 C 361.804688 720.835938 361.066406 721.359375 360.355469 721.914062 C 359.644531 722.472656 358.964844 723.0625 358.308594 723.683594 C 357.652344 724.308594 357.03125 724.960938 356.4375 725.640625 C 355.84375 726.324219 355.285156 727.03125 354.761719 727.765625 C 354.234375 728.503906 353.746094 729.261719 353.292969 730.042969 C 352.839844 730.824219 352.425781 731.625 352.046875 732.445312 C 351.671875 733.265625 351.335938 734.105469 351.035156 734.957031 C 350.738281 735.808594 350.484375 736.675781 350.269531 737.550781 C 350.054688 738.429688 349.878906 739.316406 349.75 740.210938 C 349.617188 741.101562 349.53125 742 349.484375 742.902344 C 349.488281 741.972656 349.445312 741.042969 349.359375 740.117188 C 349.269531 739.191406 349.136719 738.269531 348.957031 737.355469 C 348.78125 736.445312 348.558594 735.542969 348.289062 734.648438 C 348.023438 733.757812 347.714844 732.882812 347.359375 732.019531 C 347.007812 731.160156 346.613281 730.316406 346.175781 729.496094 C 345.742188 728.671875 345.265625 727.875 344.75 727.097656 C 344.238281 726.320312 343.6875 725.574219 343.097656 724.851562 C 342.511719 724.128906 341.886719 723.4375 341.234375 722.777344 C 340.578125 722.117188 339.890625 721.492188 339.171875 720.898438 C 338.457031 720.304688 337.710938 719.75 336.9375 719.226562 C 336.167969 718.707031 335.371094 718.226562 334.550781 717.785156 C 333.734375 717.34375 332.894531 716.945312 332.035156 716.585938 C 331.175781 716.226562 330.304688 715.910156 329.414062 715.636719 C 328.523438 715.359375 327.621094 715.132812 326.710938 714.945312 C 325.796875 714.761719 324.878906 714.621094 323.953125 714.527344 C 323.027344 714.433594 322.097656 714.382812 321.167969 714.378906 C 320.238281 714.375 319.308594 714.417969 318.382812 714.507812 C 317.457031 714.59375 316.535156 714.726562 315.621094 714.90625 C 314.707031 715.082031 313.804688 715.304688 312.914062 715.570312 C 312.023438 715.839844 311.144531 716.148438 310.285156 716.5 C 309.421875 716.855469 308.582031 717.25 307.757812 717.683594 C 306.9375 718.121094 306.136719 718.59375 305.359375 719.109375 C 304.585938 719.621094 303.835938 720.171875 303.113281 720.761719 C 302.394531 721.347656 301.703125 721.96875 301.039062 722.625 C 300.378906 723.28125 299.753906 723.96875 299.160156 724.683594 C 298.566406 725.402344 298.007812 726.144531 297.488281 726.917969 C 296.96875 727.691406 296.488281 728.484375 296.046875 729.304688 C 295.605469 730.125 295.203125 730.960938 294.84375 731.820312 C 294.484375 732.679688 294.167969 733.554688 293.894531 734.441406 C 293.617188 735.332031 293.390625 736.234375 293.203125 737.144531 C 293.019531 738.058594 292.878906 738.976562 292.785156 739.902344 C 292.6875 740.828125 292.640625 741.757812 292.636719 742.6875 L 292.636719 742.253906 C 292.636719 740.390625 292.679688 738.53125 292.773438 736.671875 C 292.863281 734.8125 293 732.957031 293.183594 731.101562 C 293.367188 729.25 293.59375 727.402344 293.867188 725.558594 C 294.140625 723.71875 294.457031 721.882812 294.820312 720.058594 C 295.183594 718.230469 295.59375 716.414062 296.042969 714.609375 C 296.496094 712.804688 296.992188 711.007812 297.535156 709.226562 C 298.074219 707.445312 298.660156 705.679688 299.285156 703.925781 C 299.914062 702.171875 300.582031 700.4375 301.296875 698.714844 C 302.007812 696.996094 302.761719 695.292969 303.558594 693.609375 C 304.355469 691.925781 305.191406 690.265625 306.070312 688.621094 C 306.945312 686.980469 307.863281 685.359375 308.820312 683.761719 C 309.777344 682.167969 310.773438 680.59375 311.808594 679.046875 C 312.84375 677.496094 313.914062 675.976562 315.023438 674.480469 C 316.132812 672.984375 317.277344 671.515625 318.460938 670.078125 C 319.640625 668.636719 320.855469 667.230469 322.109375 665.847656 C 323.359375 664.46875 324.640625 663.121094 325.957031 661.804688 C 327.273438 660.488281 328.621094 659.207031 330.003906 657.953125 C 331.382812 656.703125 332.792969 655.488281 334.230469 654.308594 C 335.671875 653.125 337.136719 651.980469 338.632812 650.871094 C 340.128906 649.761719 341.652344 648.691406 343.199219 647.65625 C 344.746094 646.621094 346.320312 645.625 347.917969 644.667969 C 349.511719 643.710938 351.132812 642.792969 352.773438 641.917969 C 354.417969 641.039062 356.078125 640.203125 357.761719 639.40625 C 359.445312 638.609375 361.148438 637.855469 362.867188 637.144531 C 364.589844 636.429688 366.324219 635.761719 368.078125 635.132812 C 369.832031 634.503906 371.597656 633.921875 373.378906 633.382812 C 375.164062 632.839844 376.957031 632.34375 378.761719 631.890625 C 380.570312 631.441406 382.386719 631.03125 384.210938 630.667969 C 386.039062 630.304688 387.871094 629.988281 389.714844 629.714844 C 391.554688 629.441406 393.402344 629.210938 395.253906 629.03125 C 397.109375 628.847656 398.964844 628.710938 400.824219 628.621094 C 402.683594 628.527344 404.542969 628.480469 406.40625 628.480469 C 408.269531 628.480469 410.128906 628.527344 411.988281 628.621094 C 413.847656 628.710938 415.707031 628.847656 417.558594 629.03125 C 419.410156 629.210938 421.257812 629.441406 423.101562 629.714844 C 424.941406 629.988281 426.777344 630.304688 428.601562 630.667969 C 430.429688 631.03125 432.246094 631.441406 434.050781 631.890625 C 435.855469 632.34375 437.652344 632.839844 439.433594 633.382812 C 441.214844 633.921875 442.980469 634.503906 444.734375 635.132812 C 446.488281 635.761719 448.226562 636.429688 449.945312 637.144531 C 451.664062 637.855469 453.367188 638.609375 455.050781 639.40625 C 456.734375 640.203125 458.394531 641.039062 460.039062 641.917969 C 461.679688 642.792969 463.300781 643.710938 464.898438 644.667969 C 466.492188 645.625 468.066406 646.621094 469.613281 647.65625 C 471.164062 648.691406 472.683594 649.761719 474.179688 650.871094 C 475.675781 651.980469 477.144531 653.125 478.582031 654.308594 C 480.023438 655.488281 481.429688 656.703125 482.8125 657.953125 C 484.191406 659.207031 485.539062 660.488281 486.855469 661.804688 C 488.171875 663.121094 489.457031 664.46875 490.707031 665.847656 C 491.957031 667.230469 493.171875 668.636719 494.351562 670.078125 C 495.535156 671.515625 496.679688 672.984375 497.789062 674.480469 C 498.898438 675.976562 499.96875 677.496094 501.003906 679.046875 C 502.039062 680.59375 503.035156 682.167969 503.992188 683.761719 C 504.949219 685.359375 505.867188 686.980469 506.746094 688.621094 C 507.621094 690.265625 508.457031 691.925781 509.253906 693.609375 C 510.050781 695.292969 510.804688 696.996094 511.519531 698.714844 C 512.230469 700.4375 512.898438 702.171875 513.527344 703.925781 C 514.15625 705.679688 514.738281 707.445312 515.28125 709.226562 C 515.820312 711.007812 516.316406 712.804688 516.769531 714.609375 C 517.222656 716.414062 517.628906 718.230469 517.992188 720.058594 C 518.355469 721.882812 518.671875 723.71875 518.945312 725.558594 C 519.21875 727.402344 519.449219 729.25 519.628906 731.101562 C 519.8125 732.957031 519.949219 734.8125 520.042969 736.671875 C 520.132812 738.53125 520.179688 740.390625 520.179688 742.253906 Z M 520.179688 742.253906 " fill-opacity="1" fill-rule="nonzero"/></svg>