<svg xmlns="http://www.w3.org/2000/svg" xmlns:xlink="http://www.w3.org/1999/xlink" width="1080" zoomAndPan="magnify" viewBox="0 0 810 1439.999935" height="1920" preserveAspectRatio="xMidYMid meet" version="1.0"><defs><clipPath id="edb285c366"><path d="M 341 564.949219 L 364 564.949219 L 364 608 L 341 608 Z M 341 564.949219 " clip-rule="nonzero"/></clipPath><clipPath id="e845304a87"><path d="M 278.609375 636 L 311 636 L 311 638 L 278.609375 638 Z M 278.609375 636 " clip-rule="nonzero"/></clipPath><clipPath id="56a44c4cca"><path d="M 278.609375 625 L 321 625 L 321 649 L 278.609375 649 Z M 278.609375 625 " clip-rule="nonzero"/></clipPath><clipPath id="16d1b2b26b"><path d="M 410 756 L 531.359375 756 L 531.359375 874.699219 L 410 874.699219 Z M 410 756 " clip-rule="nonzero"/></clipPath></defs><path fill="#ffb544" d="M 387.246094 636.027344 C 387.242188 637.164062 387.179688 638.300781 387.0625 639.429688 C 386.949219 640.5625 386.777344 641.6875 386.550781 642.800781 C 386.324219 643.914062 386.042969 645.015625 385.707031 646.105469 C 385.371094 647.191406 384.984375 648.257812 384.546875 649.308594 C 384.105469 650.359375 383.617188 651.382812 383.074219 652.386719 C 382.535156 653.386719 381.949219 654.359375 381.3125 655.304688 C 380.675781 656.246094 379.996094 657.15625 379.269531 658.035156 C 378.542969 658.910156 377.777344 659.75 376.96875 660.550781 C 376.164062 661.355469 375.316406 662.113281 374.433594 662.832031 C 373.550781 663.550781 372.636719 664.226562 371.6875 664.855469 C 370.738281 665.484375 369.761719 666.066406 368.757812 666.601562 C 367.75 667.132812 366.722656 667.617188 365.667969 668.050781 C 364.613281 668.480469 363.542969 668.863281 362.453125 669.1875 C 361.363281 669.515625 360.257812 669.789062 359.140625 670.007812 C 358.023438 670.230469 356.898438 670.394531 355.765625 670.5 C 354.628906 670.609375 353.496094 670.664062 352.355469 670.660156 C 351.21875 670.660156 350.082031 670.601562 348.949219 670.488281 C 347.816406 670.375 346.691406 670.203125 345.574219 669.980469 C 344.457031 669.757812 343.355469 669.480469 342.265625 669.148438 C 341.175781 668.816406 340.105469 668.429688 339.054688 667.992188 C 338.003906 667.554688 336.976562 667.070312 335.972656 666.53125 C 334.96875 665.992188 333.992188 665.40625 333.046875 664.773438 C 332.101562 664.140625 331.1875 663.464844 330.308594 662.742188 C 329.429688 662.019531 328.589844 661.253906 327.785156 660.449219 C 326.980469 659.644531 326.21875 658.800781 325.496094 657.921875 C 324.773438 657.039062 324.097656 656.128906 323.464844 655.179688 C 322.832031 654.234375 322.25 653.257812 321.714844 652.253906 C 321.175781 651.253906 320.691406 650.226562 320.257812 649.171875 C 319.820312 648.121094 319.4375 647.050781 319.109375 645.964844 C 318.777344 644.875 318.5 643.773438 318.28125 642.65625 C 318.058594 641.539062 317.890625 640.417969 317.78125 639.285156 C 317.667969 638.152344 317.613281 637.019531 317.613281 635.878906 C 317.613281 634.742188 317.667969 633.609375 317.78125 632.476562 C 317.890625 631.34375 318.058594 630.21875 318.28125 629.105469 C 318.5 627.988281 318.777344 626.886719 319.109375 625.796875 C 319.4375 624.707031 319.820312 623.636719 320.253906 622.585938 C 320.691406 621.535156 321.175781 620.507812 321.710938 619.503906 C 322.25 618.5 322.832031 617.527344 323.464844 616.578125 C 324.097656 615.632812 324.773438 614.71875 325.496094 613.839844 C 326.214844 612.960938 326.980469 612.117188 327.785156 611.3125 C 328.589844 610.507812 329.429688 609.742188 330.308594 609.019531 C 331.1875 608.296875 332.101562 607.621094 333.046875 606.984375 C 333.992188 606.351562 334.96875 605.765625 335.972656 605.230469 C 336.976562 604.691406 338.003906 604.203125 339.054688 603.765625 C 340.105469 603.332031 341.175781 602.945312 342.265625 602.613281 C 343.355469 602.28125 344.457031 602.003906 345.574219 601.78125 C 346.691406 601.554688 347.816406 601.386719 348.949219 601.273438 C 350.082031 601.160156 351.214844 601.101562 352.355469 601.097656 C 353.5 601.09375 354.644531 601.144531 355.785156 601.253906 C 356.925781 601.363281 358.058594 601.527344 359.179688 601.746094 C 360.304688 601.964844 361.417969 602.242188 362.511719 602.570312 C 363.609375 602.898438 364.6875 603.28125 365.746094 603.71875 C 366.804688 604.15625 367.839844 604.644531 368.851562 605.179688 C 369.863281 605.71875 370.84375 606.308594 371.796875 606.941406 C 372.75 607.578125 373.667969 608.257812 374.554688 608.984375 C 375.441406 609.710938 376.285156 610.480469 377.097656 611.289062 C 377.90625 612.101562 378.671875 612.949219 379.398438 613.832031 C 380.121094 614.71875 380.800781 615.640625 381.4375 616.59375 C 382.070312 617.546875 382.65625 618.527344 383.191406 619.539062 C 383.730469 620.550781 384.214844 621.585938 384.652344 622.644531 C 385.085938 623.703125 385.464844 624.78125 385.792969 625.875 C 386.121094 626.972656 386.394531 628.082031 386.613281 629.207031 C 386.828125 630.328125 386.992188 631.460938 387.097656 632.601562 C 387.203125 633.742188 387.253906 634.882812 387.246094 636.027344 Z M 387.246094 636.027344 " fill-opacity="1" fill-rule="nonzero"/><path fill="#ffae46" d="M 351.769531 565.363281 L 352.941406 565.363281 C 353.023438 565.363281 353.09375 565.390625 353.152344 565.449219 C 353.207031 565.507812 353.238281 565.574219 353.238281 565.65625 L 353.238281 596.367188 C 353.238281 596.445312 353.207031 596.515625 353.152344 596.574219 C 353.09375 596.628906 353.023438 596.660156 352.941406 596.660156 L 351.769531 596.660156 C 351.6875 596.660156 351.617188 596.628906 351.558594 596.574219 C 351.503906 596.515625 351.472656 596.445312 351.472656 596.367188 L 351.472656 565.65625 C 351.472656 565.574219 351.503906 565.507812 351.558594 565.449219 C 351.617188 565.390625 351.6875 565.363281 351.769531 565.363281 Z M 351.769531 565.363281 " fill-opacity="1" fill-rule="nonzero"/><g clip-path="url(#edb285c366)"><path stroke-linecap="butt" transform="matrix(0.734525, 0, 0, 0.733788, 278.609144, 564.996315)" fill="none" stroke-linejoin="miter" d="M 99.602339 0.500099 L 101.197759 0.500099 C 101.309438 0.500099 101.405163 0.537362 101.484934 0.617214 C 101.559387 0.697065 101.601931 0.787563 101.601931 0.899354 L 101.601931 42.751966 C 101.601931 42.858434 101.559387 42.954255 101.484934 43.034106 C 101.405163 43.108634 101.309438 43.151221 101.197759 43.151221 L 99.602339 43.151221 C 99.49066 43.151221 99.394935 43.108634 99.315164 43.034106 C 99.240711 42.954255 99.198166 42.858434 99.198166 42.751966 L 99.198166 0.899354 C 99.198166 0.787563 99.240711 0.697065 99.315164 0.617214 C 99.394935 0.537362 99.49066 0.500099 99.602339 0.500099 Z M 99.602339 0.500099 " stroke="#ffae46" stroke-width="1" stroke-opacity="1" stroke-miterlimit="10"/></g><path stroke-linecap="butt" transform="matrix(0.660747, -0.32052, 0.320842, 0.660085, 215.88082, 574.46225)" fill-opacity="1" fill="#ffae46" fill-rule="nonzero" stroke-linejoin="miter" d="M 132.001541 76.900637 L 133.597806 76.90051 C 133.709628 76.901547 133.802847 76.940894 133.884574 77.016085 C 133.959191 77.093742 134.000721 77.19084 133.999596 77.302732 L 134.001776 100.211605 C 134.000651 100.323497 133.961255 100.416805 133.883587 100.49153 C 133.803594 100.571044 133.70885 100.607887 133.601812 100.609173 L 131.998437 100.611766 C 131.886616 100.610728 131.793396 100.571381 131.718779 100.493724 C 131.639378 100.413745 131.602631 100.31897 131.601431 100.211867 L 131.601577 77.298205 C 131.600377 77.191102 131.639773 77.097794 131.714982 77.015957 C 131.794975 76.936443 131.889719 76.8996 132.001541 76.900637 Z M 132.001541 76.900637 " stroke="#ffae46" stroke-width="1" stroke-opacity="1" stroke-miterlimit="10"/><path stroke-linecap="butt" transform="matrix(0.660747, -0.32052, 0.320842, 0.660085, 179.375012, 601.759032)" fill-opacity="1" fill="#ffae46" fill-rule="nonzero" stroke-linejoin="miter" d="M 187.998838 203.599457 L 189.599887 203.601653 C 189.711709 203.60269 189.804928 203.642037 189.881871 203.714905 C 189.961272 203.794885 189.998018 203.88966 189.999218 203.996763 L 189.999073 226.910425 C 189.997948 227.022317 189.958552 227.115625 189.885668 227.192673 C 189.805675 227.272187 189.710931 227.30903 189.599109 227.307993 L 188.000518 227.312909 C 187.888696 227.311871 187.795477 227.272524 187.716076 227.192544 C 187.641458 227.114888 187.599928 227.01779 187.598728 226.910687 L 187.598874 203.997025 C 187.597673 203.889922 187.63707 203.796614 187.717063 203.7171 C 187.797055 203.637586 187.8918 203.600743 187.998838 203.599457 Z M 187.998838 203.599457 " stroke="#ffae46" stroke-width="1" stroke-opacity="1" stroke-miterlimit="10"/><path stroke-linecap="butt" transform="matrix(0.694088, 0.240109, -0.24035, 0.693392, 263.11069, 484.573306)" fill-opacity="1" fill="#ffae46" fill-rule="nonzero" stroke-linejoin="miter" d="M 183.802178 75.59825 L 185.401812 75.602047 C 185.507744 75.599166 185.605769 75.638458 185.684093 75.718373 C 185.760675 75.793258 185.800539 75.892125 185.798458 75.999883 L 185.802173 98.910193 C 185.800093 99.017951 185.760893 99.116028 185.681089 99.194364 C 185.606311 99.27096 185.512572 99.309054 185.399873 99.308645 L 183.80198 99.309878 C 183.689281 99.309469 183.596282 99.268437 183.5197 99.193552 C 183.441376 99.113637 183.398229 99.021541 183.398567 98.908753 L 183.401619 76.001732 C 183.401958 75.888944 183.437875 75.797637 183.517678 75.719301 C 183.597482 75.640965 183.689478 75.597841 183.802178 75.59825 Z M 183.802178 75.59825 " stroke="#ffae46" stroke-width="1" stroke-opacity="1" stroke-miterlimit="10"/><path stroke-linecap="butt" transform="matrix(0.694088, 0.240109, -0.24035, 0.693392, 292.197855, 501.817088)" fill-opacity="1" fill="#ffae46" fill-rule="nonzero" stroke-linejoin="miter" d="M 133.801346 204.899383 L 135.399238 204.89815 C 135.511938 204.898559 135.604937 204.939591 135.683261 205.019506 C 135.759843 205.094391 135.797965 205.188228 135.797626 205.301016 L 135.801341 228.211326 C 135.799261 228.319084 135.76006 228.417161 135.685282 228.493757 C 135.605479 228.572093 135.51174 228.610187 135.399041 228.609778 L 133.801148 228.611011 C 133.688449 228.610602 133.59545 228.56957 133.518867 228.494685 C 133.440543 228.41477 133.402422 228.320934 133.397735 228.209886 L 133.399045 205.297835 C 133.401126 205.190077 133.440326 205.092 133.515104 205.015404 C 133.594908 204.937068 133.688646 204.898974 133.801346 204.899383 Z M 133.801346 204.899383 " stroke="#ffae46" stroke-width="1" stroke-opacity="1" stroke-miterlimit="10"/><path stroke-linecap="butt" transform="matrix(0.320842, 0.660085, -0.660747, 0.32052, 408.620047, 428.218239)" fill-opacity="1" fill="#ffae46" fill-rule="nonzero" stroke-linejoin="miter" d="M 223.39876 110.999406 L 225.000806 111.002863 C 225.107909 111.001663 225.20354 111.036275 225.283054 111.116268 C 225.362568 111.196261 225.399411 111.291006 225.400697 111.398043 L 225.399757 134.311978 C 225.401042 134.419016 225.361695 134.512235 225.281715 134.591637 C 225.201735 134.671038 225.11175 134.710109 224.999858 134.708984 L 223.400278 134.712636 C 223.288386 134.711511 223.195077 134.672115 223.115564 134.592122 C 223.040839 134.514454 222.999206 134.417385 222.997921 134.310347 L 222.996538 111.401196 C 222.997576 111.289374 223.036923 111.196155 223.116902 111.116753 C 223.196882 111.037352 223.291657 111.000606 223.39876 110.999406 Z M 223.39876 110.999406 " stroke="#ffae46" stroke-width="1" stroke-opacity="1" stroke-miterlimit="10"/><path stroke-linecap="butt" transform="matrix(0.320842, 0.660085, -0.660747, 0.32052, 393.195102, 535.13091)" fill-opacity="1" fill="#ffae46" fill-rule="nonzero" stroke-linejoin="miter" d="M 96.598898 167.099733 L 98.200944 167.10319 C 98.31037 167.097206 98.403679 167.136602 98.483192 167.216595 C 98.562706 167.296588 98.59955 167.391333 98.600835 167.49837 L 98.599895 190.412305 C 98.601181 190.519343 98.561834 190.612562 98.481854 190.691964 C 98.401874 190.771365 98.311888 190.810436 98.199996 190.809311 L 96.600416 190.812963 C 96.488524 190.811838 96.395216 190.772442 96.315702 190.692449 C 96.240977 190.614781 96.199345 190.517712 96.198059 190.410674 L 96.199 167.496739 C 96.197714 167.389701 96.237061 167.296482 96.317041 167.21708 C 96.397021 167.137679 96.491795 167.100933 96.598898 167.099733 Z M 96.598898 167.099733 " stroke="#ffae46" stroke-width="1" stroke-opacity="1" stroke-miterlimit="10"/><path stroke-linecap="butt" transform="matrix(-0.24035, 0.693392, -0.694088, -0.240108, 577.340128, 541.734533)" fill-opacity="1" fill="#ffae46" fill-rule="nonzero" stroke-linejoin="miter" d="M 224.600944 165.299385 L 226.200098 165.297161 C 226.307856 165.299241 226.405933 165.338441 226.48427 165.418245 C 226.560866 165.493023 226.600699 165.591787 226.59855 165.699461 L 226.600038 188.61007 C 226.599629 188.722769 226.558597 188.815768 226.483712 188.89235 C 226.403797 188.970674 226.309961 189.008796 226.197173 189.008457 L 224.598018 189.010681 C 224.49026 189.0086 224.392183 188.9694 224.315587 188.894622 C 224.237251 188.814819 224.199157 188.72108 224.199566 188.60838 L 224.199818 165.702797 C 224.200228 165.590098 224.24126 165.497099 224.314404 165.415491 C 224.394319 165.337167 224.488156 165.299046 224.600944 165.299385 Z M 224.600944 165.299385 " stroke="#ffae46" stroke-width="1" stroke-opacity="1" stroke-miterlimit="10"/><path stroke-linecap="butt" transform="matrix(-0.24035, 0.693392, -0.694088, -0.240108, 416.625918, 582.607129)" fill-opacity="1" fill="#ffae46" fill-rule="nonzero" stroke-linejoin="miter" d="M 95.397638 115.30112 L 97.001823 115.297154 C 97.109581 115.299235 97.202628 115.340177 97.285994 115.418238 C 97.36259 115.493016 97.400684 115.586755 97.400275 115.699455 L 97.401763 138.610063 C 97.401354 138.722762 97.360321 138.815761 97.285437 138.892343 C 97.205522 138.970668 97.111685 139.008789 96.998897 139.00845 L 95.399743 139.010674 C 95.286955 139.010336 95.193908 138.969393 95.117311 138.894615 C 95.038975 138.814812 95.000882 138.721073 95.001291 138.608374 L 94.999803 115.697765 C 95.001952 115.590091 95.036214 115.493809 95.116129 115.415485 C 95.196044 115.337161 95.28988 115.299039 95.397638 115.30112 Z M 95.397638 115.30112 " stroke="#ffae46" stroke-width="1" stroke-opacity="1" stroke-miterlimit="10"/><path stroke-linecap="butt" transform="matrix(0.734525, 0, 0, 0.733788, 278.609144, 564.996315)" fill-opacity="1" fill="#ffae46" fill-rule="nonzero" stroke-linejoin="miter" d="M 100.798904 155.299398 L 102.399641 155.299398 C 102.51132 155.299398 102.607046 155.336662 102.681498 155.416513 C 102.761269 155.496364 102.798496 155.592186 102.798496 155.698654 L 102.798496 197.551265 C 102.798496 197.663057 102.761269 197.753555 102.681498 197.833406 C 102.607046 197.913257 102.51132 197.950521 102.399641 197.950521 L 100.798904 197.950521 C 100.687224 197.950521 100.596817 197.913257 100.517046 197.833406 C 100.437275 197.753555 100.400049 197.663057 100.400049 197.551265 L 100.400049 155.698654 C 100.400049 155.592186 100.437275 155.496364 100.517046 155.416513 C 100.596817 155.336662 100.687224 155.299398 100.798904 155.299398 Z M 100.798904 155.299398 " stroke="#ffae46" stroke-width="1" stroke-opacity="1" stroke-miterlimit="10"/><path stroke-linecap="butt" transform="matrix(0, 0.733788, -0.734525, 0, 519.019077, 462.412764)" fill-opacity="1" fill="#ffae46" fill-rule="nonzero" stroke-linejoin="miter" d="M 235.802003 129.297478 L 237.399024 129.297478 C 237.510816 129.297478 237.606637 129.340023 237.681165 129.419794 C 237.761016 129.494247 237.79828 129.589972 237.79828 129.701651 L 237.79828 171.549499 C 237.79828 171.661178 237.761016 171.756903 237.681165 171.831356 C 237.606637 171.911127 237.510816 171.948353 237.399024 171.948353 L 235.802003 171.948353 C 235.690211 171.948353 235.59439 171.911127 235.514539 171.831356 C 235.440011 171.756903 235.397424 171.661178 235.397424 171.549499 L 235.397424 129.701651 C 235.397424 129.589972 235.440011 129.494247 235.514539 129.419794 C 235.59439 129.340023 235.690211 129.297478 235.802003 129.297478 Z M 235.802003 129.297478 " stroke="#ffae46" stroke-width="1" stroke-opacity="1" stroke-miterlimit="10"/><g clip-path="url(#e845304a87)"><path fill="#ffae46" d="M 310.265625 636.320312 L 310.265625 637.496094 C 310.265625 637.574219 310.238281 637.644531 310.179688 637.703125 C 310.125 637.757812 310.054688 637.789062 309.972656 637.789062 L 279.234375 637.789062 C 279.152344 637.789062 279.082031 637.757812 279.027344 637.703125 C 278.96875 637.644531 278.941406 637.574219 278.941406 637.496094 L 278.941406 636.320312 C 278.941406 636.238281 278.96875 636.171875 279.027344 636.113281 C 279.082031 636.054688 279.152344 636.027344 279.234375 636.027344 L 309.972656 636.027344 C 310.054688 636.027344 310.125 636.054688 310.179688 636.113281 C 310.238281 636.171875 310.265625 636.238281 310.265625 636.320312 Z M 310.265625 636.320312 " fill-opacity="1" fill-rule="nonzero"/></g><g clip-path="url(#56a44c4cca)"><path stroke-linecap="butt" transform="matrix(0, 0.733788, -0.734525, 0, 406.196119, 576.883706)" fill="none" stroke-linejoin="miter" d="M 80.999716 130.60212 L 82.602061 130.60212 C 82.708529 130.60212 82.80435 130.639346 82.884201 130.719117 C 82.958729 130.79357 83.001316 130.889295 83.001316 131.000975 L 83.001316 172.848822 C 83.001316 172.960502 82.958729 173.056227 82.884201 173.13068 C 82.80435 173.210451 82.708529 173.247677 82.602061 173.247677 L 80.999716 173.247677 C 80.887924 173.247677 80.797426 173.210451 80.717575 173.13068 C 80.637724 173.056227 80.60046 172.960502 80.60046 172.848822 L 80.60046 131.000975 C 80.60046 130.889295 80.637724 130.79357 80.717575 130.719117 C 80.797426 130.639346 80.887924 130.60212 80.999716 130.60212 Z M 80.999716 130.60212 " stroke="#ffae46" stroke-width="1" stroke-opacity="1" stroke-miterlimit="10"/></g><path stroke-linecap="butt" transform="matrix(-0.519387, 0.518866, -0.519387, -0.518866, 612.229765, 672.643338)" fill-opacity="1" fill="#ffae46" fill-rule="nonzero" stroke-linejoin="miter" d="M 214.698607 185.501046 L 216.301359 185.500242 C 216.410468 185.496425 216.504506 185.537763 216.583475 185.616732 C 216.662444 185.695701 216.700022 185.785978 216.699965 185.898848 L 216.701533 227.750971 C 216.697716 227.860081 216.663808 227.954156 216.584759 228.033205 C 216.505711 228.112253 216.407872 228.149926 216.302526 228.149978 L 214.699775 228.150783 C 214.586905 228.150839 214.496628 228.113262 214.417659 228.034292 C 214.338689 227.955323 214.297351 227.861286 214.301168 227.752176 L 214.2996 185.900053 C 214.299657 185.787183 214.337326 185.696868 214.416374 185.61782 C 214.495423 185.538771 214.589502 185.497339 214.698607 185.501046 Z M 214.698607 185.501046 " stroke="#ffae46" stroke-width="1" stroke-opacity="1" stroke-miterlimit="10"/><path stroke-linecap="butt" transform="matrix(-0.519387, 0.518866, -0.519387, -0.518866, 417.580566, 593.835048)" fill-opacity="1" fill="#ffae46" fill-rule="nonzero" stroke-linejoin="miter" d="M 104.403042 76.899965 L 105.998269 76.899164 C 106.111138 76.899108 106.205176 76.940446 106.284145 77.019415 C 106.359354 77.094624 106.400692 77.188661 106.400636 77.301531 L 106.398443 119.149894 C 106.402151 119.259 106.360718 119.353079 106.281669 119.432127 C 106.202621 119.511176 106.112306 119.548844 105.999436 119.548901 L 104.396685 119.549705 C 104.291339 119.549758 104.193538 119.512184 104.114569 119.433215 C 104.03936 119.358006 104.001786 119.260204 103.998078 119.151099 L 104.000271 77.302736 C 104.000327 77.189866 104.04176 77.095787 104.117044 77.020503 C 104.196093 76.941454 104.290172 76.900022 104.403042 76.899965 Z M 104.403042 76.899965 " stroke="#ffae46" stroke-width="1" stroke-opacity="1" stroke-miterlimit="10"/><path stroke-linecap="butt" transform="matrix(-0.519387, -0.518866, 0.519387, -0.518866, 258.850894, 838.478979)" fill-opacity="1" fill="#ffae46" fill-rule="nonzero" stroke-linejoin="miter" d="M 104.100352 185.101505 L 105.69934 185.098545 C 105.81221 185.098602 105.906289 185.140034 105.981573 185.215319 C 106.060621 185.294367 106.102054 185.388446 106.102111 185.501316 L 106.096779 227.349675 C 106.100596 227.458785 106.059258 227.552822 105.980288 227.631791 C 105.901319 227.71076 105.811042 227.748338 105.698172 227.748282 L 104.099185 227.751241 C 103.990075 227.747424 103.896 227.713516 103.816952 227.634468 C 103.737903 227.555419 103.700231 227.45758 103.700178 227.352235 L 103.701746 185.500111 C 103.697929 185.391002 103.739267 185.296965 103.818236 185.217995 C 103.897206 185.139026 103.987483 185.101448 104.100352 185.101505 Z M 104.100352 185.101505 " stroke="#ffae46" stroke-width="1" stroke-opacity="1" stroke-miterlimit="10"/><path stroke-linecap="butt" transform="matrix(-0.519387, -0.518866, 0.519387, -0.518866, 452.323491, 756.662482)" fill-opacity="1" fill="#ffae46" fill-rule="nonzero" stroke-linejoin="miter" d="M 212.700846 74.799411 L 214.299833 74.796451 C 214.408942 74.800269 214.506782 74.837941 214.58583 74.916989 C 214.661115 74.992274 214.698787 75.090113 214.702604 75.199223 L 214.701036 117.051346 C 214.697329 117.160451 214.663515 117.254493 214.584546 117.333462 C 214.505576 117.412431 214.407775 117.450005 214.30243 117.449952 L 212.699678 117.449148 C 212.586808 117.449091 212.496493 117.411423 212.417445 117.332374 C 212.338396 117.253326 212.300728 117.163011 212.300671 117.050141 L 212.298479 75.201778 C 212.298422 75.088908 212.33976 74.994871 212.41873 74.915902 C 212.493938 74.840693 212.587976 74.799355 212.700846 74.799411 Z M 212.700846 74.799411 " stroke="#ffae46" stroke-width="1" stroke-opacity="1" stroke-miterlimit="10"/><path fill="#6b99d2" d="M 471.128906 565.363281 L 470.46875 565.363281 C 469.515625 565.367188 468.566406 565.414062 467.617188 565.507812 C 466.671875 565.605469 465.730469 565.746094 464.796875 565.933594 C 463.863281 566.121094 462.941406 566.351562 462.03125 566.628906 C 461.121094 566.910156 460.226562 567.230469 459.347656 567.59375 C 458.46875 567.960938 457.609375 568.367188 456.769531 568.816406 C 455.929688 569.265625 455.117188 569.753906 454.324219 570.28125 C 453.53125 570.8125 452.769531 571.378906 452.035156 571.980469 C 451.296875 572.585938 450.59375 573.222656 449.921875 573.894531 C 449.246094 574.566406 448.609375 575.273438 448.003906 576.007812 C 447.402344 576.742188 446.832031 577.503906 446.304688 578.292969 C 445.773438 579.085938 445.285156 579.898438 444.835938 580.738281 C 444.386719 581.574219 443.980469 582.433594 443.613281 583.3125 C 443.25 584.191406 442.925781 585.085938 442.648438 585.996094 C 442.371094 586.902344 442.136719 587.824219 441.949219 588.757812 C 441.761719 589.691406 441.621094 590.628906 441.527344 591.574219 C 441.429688 592.523438 441.382812 593.46875 441.378906 594.421875 L 441.378906 766.496094 C 441.363281 769.214844 441.730469 771.878906 442.480469 774.492188 C 445.828125 772.09375 449.429688 770.160156 453.277344 768.695312 C 453.15625 767.96875 453.109375 767.234375 453.132812 766.496094 L 453.132812 594.421875 C 453.132812 593.855469 453.160156 593.289062 453.214844 592.722656 C 453.269531 592.160156 453.355469 591.597656 453.464844 591.042969 C 453.574219 590.488281 453.714844 589.9375 453.878906 589.394531 C 454.042969 588.851562 454.234375 588.316406 454.453125 587.792969 C 454.667969 587.269531 454.910156 586.757812 455.179688 586.257812 C 455.445312 585.757812 455.738281 585.273438 456.054688 584.800781 C 456.367188 584.328125 456.707031 583.875 457.066406 583.433594 C 457.425781 582.996094 457.808594 582.578125 458.210938 582.175781 C 458.609375 581.773438 459.03125 581.394531 459.46875 581.035156 C 459.910156 580.675781 460.363281 580.335938 460.835938 580.023438 C 461.308594 579.707031 461.792969 579.414062 462.296875 579.148438 C 462.796875 578.882812 463.308594 578.640625 463.832031 578.421875 C 464.359375 578.203125 464.890625 578.015625 465.433594 577.847656 C 465.976562 577.683594 466.527344 577.546875 467.085938 577.4375 C 467.640625 577.324219 468.203125 577.242188 468.769531 577.1875 C 469.332031 577.132812 469.898438 577.105469 470.46875 577.105469 L 471.128906 577.105469 C 471.695312 577.105469 472.261719 577.132812 472.828125 577.1875 C 473.390625 577.242188 473.953125 577.324219 474.511719 577.4375 C 475.066406 577.546875 475.617188 577.683594 476.160156 577.847656 C 476.703125 578.015625 477.238281 578.203125 477.761719 578.421875 C 478.285156 578.640625 478.800781 578.882812 479.300781 579.148438 C 479.800781 579.414062 480.285156 579.707031 480.757812 580.023438 C 481.230469 580.335938 481.6875 580.675781 482.125 581.035156 C 482.5625 581.394531 482.984375 581.773438 483.386719 582.175781 C 483.785156 582.578125 484.167969 582.996094 484.527344 583.433594 C 484.886719 583.875 485.226562 584.328125 485.542969 584.800781 C 485.855469 585.273438 486.148438 585.757812 486.414062 586.257812 C 486.683594 586.757812 486.925781 587.269531 487.144531 587.792969 C 487.359375 588.316406 487.550781 588.851562 487.714844 589.394531 C 487.882812 589.9375 488.019531 590.488281 488.128906 591.042969 C 488.242188 591.597656 488.324219 592.160156 488.378906 592.722656 C 488.433594 593.289062 488.460938 593.855469 488.460938 594.421875 L 488.460938 766.496094 C 488.488281 767.234375 488.4375 767.96875 488.316406 768.695312 C 492.164062 770.160156 495.765625 772.09375 499.113281 774.492188 C 499.859375 771.878906 500.226562 769.210938 500.214844 766.496094 L 500.214844 594.421875 C 500.214844 593.46875 500.167969 592.519531 500.074219 591.574219 C 499.980469 590.625 499.84375 589.6875 499.65625 588.753906 C 499.46875 587.820312 499.238281 586.898438 498.960938 585.984375 C 498.6875 585.074219 498.367188 584.179688 498 583.300781 C 497.636719 582.421875 497.230469 581.5625 496.78125 580.722656 C 496.332031 579.882812 495.84375 579.070312 495.3125 578.277344 C 494.785156 577.484375 494.21875 576.722656 493.613281 575.988281 C 493.007812 575.25 492.371094 574.546875 491.695312 573.875 C 491.023438 573.199219 490.316406 572.5625 489.582031 571.960938 C 488.84375 571.355469 488.082031 570.789062 487.289062 570.261719 C 486.496094 569.730469 485.679688 569.242188 484.839844 568.792969 C 484 568.34375 483.140625 567.9375 482.257812 567.574219 C 481.378906 567.210938 480.484375 566.890625 479.570312 566.613281 C 478.660156 566.339844 477.738281 566.105469 476.800781 565.921875 C 475.867188 565.734375 474.925781 565.597656 473.980469 565.503906 C 473.03125 565.410156 472.082031 565.363281 471.128906 565.363281 Z M 471.128906 565.363281 " fill-opacity="1" fill-rule="nonzero"/><g clip-path="url(#16d1b2b26b)"><path fill="#6b99d2" d="M 500.214844 761.359375 C 496.492188 759.21875 492.574219 757.53125 488.460938 756.292969 L 488.460938 766.496094 C 488.488281 767.234375 488.4375 767.96875 488.316406 768.695312 C 492.164062 770.160156 495.765625 772.09375 499.113281 774.492188 C 499.8125 774.988281 500.496094 775.503906 501.164062 776.035156 C 501.835938 776.566406 502.492188 777.113281 503.132812 777.679688 C 503.777344 778.246094 504.402344 778.828125 505.011719 779.429688 C 505.625 780.027344 506.21875 780.640625 506.796875 781.273438 C 507.375 781.902344 507.9375 782.546875 508.480469 783.207031 C 509.027344 783.867188 509.554688 784.542969 510.0625 785.230469 C 510.574219 785.917969 511.0625 786.617188 511.535156 787.328125 C 512.007812 788.042969 512.460938 788.769531 512.894531 789.503906 C 513.328125 790.242188 513.742188 790.992188 514.140625 791.75 C 514.535156 792.507812 514.90625 793.277344 515.261719 794.054688 C 515.617188 794.835938 515.949219 795.621094 516.261719 796.417969 C 516.578125 797.214844 516.867188 798.015625 517.140625 798.828125 C 517.410156 799.640625 517.660156 800.457031 517.886719 801.28125 C 518.113281 802.105469 518.320312 802.9375 518.503906 803.773438 C 518.6875 804.605469 518.847656 805.445312 518.988281 806.289062 C 519.128906 807.132812 519.246094 807.980469 519.339844 808.832031 C 519.4375 809.679688 519.507812 810.53125 519.558594 811.386719 C 519.609375 812.242188 519.636719 813.09375 519.640625 813.949219 C 519.648438 814.804688 519.628906 815.660156 519.589844 816.515625 C 519.550781 817.367188 519.488281 818.222656 519.40625 819.074219 C 519.320312 819.921875 519.214844 820.773438 519.085938 821.617188 C 518.953125 822.460938 518.804688 823.304688 518.628906 824.140625 C 518.457031 824.980469 518.261719 825.8125 518.042969 826.640625 C 517.828125 827.464844 517.589844 828.285156 517.328125 829.101562 C 517.066406 829.917969 516.785156 830.722656 516.480469 831.523438 C 516.179688 832.324219 515.855469 833.113281 515.511719 833.898438 C 515.167969 834.679688 514.800781 835.453125 514.414062 836.21875 C 514.03125 836.980469 513.625 837.734375 513.199219 838.476562 C 512.777344 839.21875 512.332031 839.949219 511.867188 840.667969 C 511.40625 841.386719 510.921875 842.09375 510.421875 842.789062 C 509.921875 843.480469 509.402344 844.164062 508.867188 844.828125 C 508.328125 845.496094 507.777344 846.148438 507.207031 846.785156 C 506.632812 847.421875 506.046875 848.042969 505.445312 848.652344 C 504.839844 849.257812 504.222656 849.847656 503.585938 850.421875 C 502.953125 850.996094 502.304688 851.554688 501.640625 852.09375 C 500.976562 852.632812 500.296875 853.15625 499.605469 853.660156 C 498.914062 854.164062 498.210938 854.648438 497.496094 855.117188 C 496.777344 855.585938 496.046875 856.035156 495.308594 856.460938 C 494.566406 856.890625 493.816406 857.300781 493.054688 857.691406 C 492.292969 858.082031 491.519531 858.449219 490.738281 858.800781 C 489.957031 859.148438 489.167969 859.476562 488.367188 859.785156 C 487.570312 860.09375 486.761719 860.378906 485.949219 860.644531 C 485.136719 860.910156 484.316406 861.152344 483.488281 861.375 C 482.660156 861.597656 481.832031 861.796875 480.992188 861.976562 C 480.15625 862.15625 479.3125 862.3125 478.46875 862.445312 C 477.625 862.578125 476.773438 862.691406 475.921875 862.78125 C 475.070312 862.871094 474.21875 862.9375 473.363281 862.984375 C 472.507812 863.027344 471.652344 863.050781 470.796875 863.050781 C 469.941406 863.050781 469.085938 863.027344 468.230469 862.984375 C 467.375 862.9375 466.523438 862.871094 465.671875 862.78125 C 464.820312 862.691406 463.972656 862.578125 463.125 862.445312 C 462.28125 862.3125 461.441406 862.15625 460.601562 861.976562 C 459.765625 861.796875 458.933594 861.597656 458.105469 861.375 C 457.28125 861.152344 456.460938 860.910156 455.644531 860.644531 C 454.832031 860.378906 454.023438 860.09375 453.226562 859.785156 C 452.429688 859.476562 451.636719 859.148438 450.855469 858.800781 C 450.074219 858.449219 449.304688 858.082031 448.539062 857.691406 C 447.777344 857.300781 447.027344 856.890625 446.285156 856.460938 C 445.546875 856.035156 444.816406 855.585938 444.101562 855.117188 C 443.382812 854.648438 442.679688 854.164062 441.988281 853.660156 C 441.296875 853.15625 440.621094 852.632812 439.957031 852.09375 C 439.292969 851.554688 438.640625 850.996094 438.007812 850.421875 C 437.375 849.847656 436.753906 849.257812 436.152344 848.652344 C 435.546875 848.042969 434.960938 847.421875 434.390625 846.785156 C 433.820312 846.148438 433.265625 845.496094 432.730469 844.828125 C 432.191406 844.164062 431.675781 843.480469 431.171875 842.789062 C 430.671875 842.09375 430.191406 841.386719 429.726562 840.667969 C 429.265625 839.949219 428.820312 839.21875 428.394531 838.476562 C 427.96875 837.734375 427.566406 836.980469 427.179688 836.21875 C 426.792969 835.453125 426.429688 834.679688 426.085938 833.898438 C 425.738281 833.113281 425.414062 832.324219 425.113281 831.523438 C 424.808594 830.722656 424.527344 829.917969 424.269531 829.101562 C 424.007812 828.285156 423.769531 827.464844 423.550781 826.640625 C 423.332031 825.8125 423.136719 824.980469 422.964844 824.140625 C 422.792969 823.304688 422.640625 822.460938 422.511719 821.617188 C 422.382812 820.773438 422.273438 819.921875 422.191406 819.074219 C 422.105469 818.222656 422.042969 817.367188 422.003906 816.515625 C 421.964844 815.660156 421.949219 814.804688 421.953125 813.949219 C 421.957031 813.09375 421.984375 812.242188 422.035156 811.386719 C 422.085938 810.53125 422.160156 809.679688 422.253906 808.832031 C 422.347656 807.980469 422.464844 807.132812 422.605469 806.289062 C 422.746094 805.445312 422.90625 804.605469 423.09375 803.773438 C 423.277344 802.9375 423.480469 802.105469 423.710938 801.28125 C 423.9375 800.457031 424.1875 799.640625 424.457031 798.828125 C 424.726562 798.015625 425.019531 797.214844 425.332031 796.417969 C 425.644531 795.621094 425.976562 794.835938 426.332031 794.054688 C 426.6875 793.277344 427.0625 792.507812 427.457031 791.75 C 427.851562 790.992188 428.265625 790.242188 428.699219 789.503906 C 429.132812 788.769531 429.585938 788.042969 430.058594 787.328125 C 430.53125 786.617188 431.023438 785.917969 431.53125 785.230469 C 432.042969 784.542969 432.566406 783.867188 433.113281 783.207031 C 433.65625 782.546875 434.21875 781.902344 434.796875 781.273438 C 435.375 780.640625 435.972656 780.027344 436.582031 779.429688 C 437.191406 778.828125 437.820312 778.246094 438.460938 777.679688 C 439.101562 777.113281 439.757812 776.566406 440.429688 776.035156 C 441.101562 775.503906 441.785156 774.988281 442.480469 774.492188 C 445.828125 772.09375 449.429688 770.160156 453.277344 768.695312 C 453.15625 767.96875 453.109375 767.234375 453.132812 766.496094 L 453.132812 756.292969 C 449.046875 757.59375 445.128906 759.28125 441.378906 761.359375 C 440.410156 761.894531 439.457031 762.460938 438.519531 763.050781 C 437.578125 763.640625 436.65625 764.253906 435.753906 764.894531 C 434.847656 765.535156 433.960938 766.203125 433.09375 766.890625 C 432.226562 767.582031 431.375 768.292969 430.546875 769.027344 C 429.71875 769.765625 428.910156 770.523438 428.121094 771.304688 C 427.335938 772.082031 426.570312 772.882812 425.828125 773.707031 C 425.082031 774.527344 424.363281 775.371094 423.664062 776.234375 C 422.96875 777.09375 422.296875 777.976562 421.648438 778.875 C 421 779.773438 420.375 780.6875 419.777344 781.621094 C 419.179688 782.554688 418.605469 783.5 418.058594 784.464844 C 417.511719 785.429688 416.996094 786.410156 416.5 787.402344 C 416.007812 788.394531 415.542969 789.398438 415.105469 790.417969 C 414.671875 791.4375 414.261719 792.464844 413.878906 793.503906 C 413.5 794.546875 413.148438 795.597656 412.824219 796.65625 C 412.503906 797.714844 412.207031 798.785156 411.945312 799.859375 C 411.679688 800.9375 411.445312 802.019531 411.242188 803.109375 C 411.035156 804.195312 410.863281 805.289062 410.714844 806.386719 C 410.570312 807.488281 410.457031 808.589844 410.375 809.691406 C 410.289062 810.796875 410.234375 811.902344 410.210938 813.011719 C 410.1875 814.121094 410.195312 815.226562 410.234375 816.335938 C 410.273438 817.441406 410.339844 818.546875 410.4375 819.652344 C 410.535156 820.753906 410.664062 821.855469 410.824219 822.949219 C 410.980469 824.046875 411.171875 825.136719 411.390625 826.222656 C 411.609375 827.3125 411.855469 828.390625 412.136719 829.460938 C 412.414062 830.535156 412.71875 831.597656 413.058594 832.65625 C 413.394531 833.710938 413.757812 834.757812 414.152344 835.792969 C 414.546875 836.828125 414.96875 837.851562 415.417969 838.863281 C 415.871094 839.875 416.347656 840.875 416.851562 841.863281 C 417.359375 842.847656 417.890625 843.820312 418.449219 844.777344 C 419.007812 845.734375 419.589844 846.675781 420.203125 847.601562 C 420.8125 848.523438 421.449219 849.433594 422.109375 850.324219 C 422.769531 851.214844 423.453125 852.085938 424.160156 852.9375 C 424.867188 853.789062 425.597656 854.621094 426.351562 855.433594 C 427.105469 856.246094 427.882812 857.039062 428.679688 857.808594 C 429.476562 858.578125 430.296875 859.328125 431.132812 860.050781 C 431.972656 860.777344 432.828125 861.480469 433.707031 862.15625 C 434.585938 862.835938 435.480469 863.488281 436.390625 864.117188 C 437.304688 864.746094 438.234375 865.351562 439.179688 865.929688 C 440.125 866.507812 441.089844 867.058594 442.0625 867.582031 C 443.039062 868.109375 444.03125 868.605469 445.035156 869.078125 C 446.039062 869.546875 447.054688 869.992188 448.082031 870.40625 C 449.109375 870.824219 450.148438 871.210938 451.199219 871.566406 C 452.25 871.925781 453.308594 872.253906 454.375 872.554688 C 455.441406 872.855469 456.515625 873.125 457.597656 873.367188 C 458.683594 873.609375 459.769531 873.820312 460.863281 874.003906 C 461.957031 874.183594 463.054688 874.335938 464.160156 874.457031 C 465.261719 874.578125 466.367188 874.667969 467.472656 874.730469 C 468.582031 874.789062 469.6875 874.820312 470.796875 874.820312 C 471.90625 874.820312 473.015625 874.789062 474.121094 874.730469 C 475.230469 874.667969 476.335938 874.578125 477.4375 874.457031 C 478.539062 874.335938 479.636719 874.183594 480.730469 874.003906 C 481.824219 873.820312 482.914062 873.609375 483.996094 873.367188 C 485.078125 873.125 486.152344 872.855469 487.21875 872.554688 C 488.289062 872.253906 489.347656 871.925781 490.394531 871.566406 C 491.445312 871.210938 492.484375 870.824219 493.511719 870.40625 C 494.539062 869.992188 495.554688 869.546875 496.558594 869.078125 C 497.5625 868.605469 498.554688 868.109375 499.53125 867.582031 C 500.507812 867.058594 501.46875 866.507812 502.414062 865.929688 C 503.359375 865.351562 504.289062 864.746094 505.203125 864.117188 C 506.117188 863.488281 507.011719 862.835938 507.886719 862.15625 C 508.765625 861.480469 509.621094 860.777344 510.460938 860.050781 C 511.300781 859.328125 512.117188 858.578125 512.914062 857.808594 C 513.710938 857.039062 514.488281 856.246094 515.242188 855.433594 C 515.996094 854.621094 516.726562 853.789062 517.433594 852.9375 C 518.144531 852.085938 518.828125 851.214844 519.488281 850.324219 C 520.148438 849.433594 520.78125 848.523438 521.394531 847.601562 C 522.003906 846.675781 522.589844 845.734375 523.148438 844.777344 C 523.707031 843.820312 524.238281 842.847656 524.742188 841.863281 C 525.246094 840.875 525.726562 839.875 526.175781 838.863281 C 526.625 837.851562 527.046875 836.828125 527.441406 835.792969 C 527.835938 834.757812 528.203125 833.710938 528.539062 832.65625 C 528.875 831.597656 529.183594 830.535156 529.460938 829.460938 C 529.738281 828.390625 529.988281 827.3125 530.207031 826.222656 C 530.425781 825.136719 530.613281 824.046875 530.773438 822.949219 C 530.929688 821.855469 531.058594 820.753906 531.15625 819.652344 C 531.253906 818.546875 531.324219 817.441406 531.359375 816.335938 C 531.398438 815.226562 531.40625 814.121094 531.382812 813.011719 C 531.359375 811.902344 531.304688 810.796875 531.222656 809.691406 C 531.136719 808.589844 531.023438 807.488281 530.878906 806.386719 C 530.734375 805.289062 530.558594 804.195312 530.355469 803.109375 C 530.148438 802.019531 529.914062 800.9375 529.652344 799.859375 C 529.386719 798.785156 529.09375 797.714844 528.769531 796.65625 C 528.445312 795.597656 528.09375 794.546875 527.714844 793.503906 C 527.335938 792.464844 526.925781 791.4375 526.488281 790.417969 C 526.050781 789.398438 525.585938 788.394531 525.09375 787.402344 C 524.601562 786.410156 524.082031 785.429688 523.535156 784.464844 C 522.988281 783.5 522.417969 782.554688 521.820312 781.621094 C 521.21875 780.6875 520.597656 779.773438 519.949219 778.875 C 519.300781 777.976562 518.625 777.09375 517.929688 776.234375 C 517.230469 775.371094 516.511719 774.527344 515.769531 773.707031 C 515.023438 772.886719 514.261719 772.082031 513.472656 771.304688 C 512.683594 770.523438 511.875 769.765625 511.046875 769.027344 C 510.21875 768.292969 509.371094 767.582031 508.5 766.890625 C 507.632812 766.203125 506.746094 765.535156 505.84375 764.894531 C 504.9375 764.253906 504.015625 763.640625 503.078125 763.050781 C 502.140625 762.460938 501.183594 761.894531 500.214844 761.359375 Z M 500.214844 761.359375 " fill-opacity="1" fill-rule="nonzero"/></g><path fill="#26477a" d="M 519.605469 814.191406 C 519.609375 815.230469 519.578125 816.273438 519.511719 817.3125 C 519.449219 818.351562 519.347656 819.386719 519.21875 820.421875 C 519.085938 821.453125 518.921875 822.484375 518.726562 823.503906 C 518.527344 824.527344 518.300781 825.542969 518.035156 826.550781 C 517.773438 827.558594 517.480469 828.558594 517.152344 829.546875 C 516.828125 830.535156 516.46875 831.515625 516.082031 832.480469 C 515.691406 833.449219 515.273438 834.402344 514.824219 835.339844 C 514.375 836.28125 513.894531 837.203125 513.382812 838.113281 C 512.875 839.023438 512.335938 839.914062 511.769531 840.789062 C 511.203125 841.664062 510.609375 842.519531 509.988281 843.355469 C 509.367188 844.191406 508.722656 845.007812 508.046875 845.800781 C 507.375 846.597656 506.675781 847.371094 505.953125 848.121094 C 505.230469 848.871094 504.484375 849.597656 503.714844 850.300781 C 502.945312 851.003906 502.152344 851.679688 501.339844 852.332031 C 500.527344 852.984375 499.695312 853.609375 498.839844 854.207031 C 497.988281 854.804688 497.117188 855.378906 496.226562 855.921875 C 495.335938 856.464844 494.429688 856.976562 493.507812 857.460938 C 492.585938 857.949219 491.648438 858.402344 490.695312 858.828125 C 489.746094 859.253906 488.78125 859.648438 487.804688 860.011719 C 486.824219 860.375 485.839844 860.707031 484.839844 861.007812 C 483.839844 861.304688 482.835938 861.574219 481.820312 861.808594 C 480.804688 862.046875 479.78125 862.25 478.753906 862.417969 C 477.722656 862.589844 476.691406 862.726562 475.652344 862.832031 C 474.617188 862.9375 473.578125 863.007812 472.535156 863.042969 C 471.492188 863.082031 470.453125 863.085938 469.410156 863.058594 C 468.367188 863.03125 467.328125 862.96875 466.289062 862.871094 C 465.25 862.777344 464.214844 862.648438 463.1875 862.488281 C 462.15625 862.324219 461.132812 862.128906 460.113281 861.902344 C 459.097656 861.675781 458.089844 861.417969 457.085938 861.125 C 456.085938 860.835938 455.09375 860.511719 454.117188 860.15625 C 453.136719 859.800781 452.167969 859.414062 451.210938 859 C 450.257812 858.582031 449.316406 858.132812 448.386719 857.65625 C 447.460938 857.179688 446.550781 856.675781 445.65625 856.140625 C 444.761719 855.605469 443.886719 855.039062 443.027344 854.449219 C 442.167969 853.859375 441.332031 853.238281 440.511719 852.59375 C 439.695312 851.949219 438.898438 851.277344 438.121094 850.582031 C 437.34375 849.886719 436.59375 849.167969 435.863281 848.421875 C 435.132812 847.679688 434.429688 846.910156 433.75 846.121094 C 433.066406 845.332031 432.414062 844.523438 431.785156 843.691406 C 431.15625 842.863281 430.554688 842.011719 429.980469 841.140625 C 429.40625 840.273438 428.863281 839.386719 428.34375 838.480469 C 427.828125 837.574219 427.339844 836.65625 426.882812 835.71875 C 426.425781 834.785156 425.996094 833.835938 425.597656 832.871094 C 425.203125 831.910156 424.835938 830.933594 424.5 829.949219 C 424.167969 828.960938 423.863281 827.964844 423.59375 826.960938 C 423.320312 825.953125 423.082031 824.941406 422.878906 823.921875 C 422.671875 822.898438 422.5 821.871094 422.359375 820.839844 C 422.21875 819.808594 422.109375 818.773438 422.039062 817.734375 C 421.964844 816.695312 421.921875 815.65625 421.917969 814.613281 C 421.910156 813.570312 421.933594 812.53125 421.996094 811.492188 C 422.054688 810.449219 422.148438 809.414062 422.273438 808.378906 C 422.398438 807.347656 422.558594 806.316406 422.75 805.292969 C 422.941406 804.269531 423.167969 803.253906 423.425781 802.242188 C 423.679688 801.234375 423.96875 800.234375 424.292969 799.242188 C 424.613281 798.253906 424.964844 797.273438 425.351562 796.304688 C 425.734375 795.335938 426.148438 794.382812 426.59375 793.441406 C 427.039062 792.496094 427.515625 791.570312 428.019531 790.660156 C 428.523438 789.75 429.058594 788.855469 429.617188 787.976562 C 430.179688 787.101562 430.769531 786.242188 431.386719 785.402344 C 432.003906 784.5625 432.648438 783.742188 433.316406 782.945312 C 433.988281 782.144531 434.679688 781.371094 435.398438 780.617188 C 436.121094 779.863281 436.863281 779.132812 437.628906 778.425781 C 438.394531 777.71875 439.183594 777.039062 439.992188 776.382812 C 440.800781 775.726562 441.632812 775.097656 442.480469 774.492188 C 445.828125 772.09375 449.429688 770.160156 453.277344 768.695312 C 453.15625 767.96875 453.109375 767.234375 453.132812 766.496094 L 453.132812 594.421875 C 453.132812 593.855469 453.160156 593.289062 453.214844 592.722656 C 453.269531 592.160156 453.355469 591.597656 453.464844 591.042969 C 453.574219 590.488281 453.714844 589.9375 453.878906 589.394531 C 454.042969 588.851562 454.234375 588.316406 454.453125 587.792969 C 454.667969 587.269531 454.910156 586.757812 455.179688 586.257812 C 455.445312 585.757812 455.738281 585.273438 456.054688 584.800781 C 456.367188 584.328125 456.707031 583.875 457.066406 583.433594 C 457.425781 582.996094 457.808594 582.578125 458.210938 582.175781 C 458.609375 581.773438 459.03125 581.394531 459.46875 581.035156 C 459.910156 580.675781 460.363281 580.335938 460.835938 580.023438 C 461.308594 579.707031 461.792969 579.414062 462.296875 579.148438 C 462.796875 578.882812 463.308594 578.640625 463.832031 578.421875 C 464.359375 578.203125 464.890625 578.015625 465.433594 577.847656 C 465.976562 577.683594 466.527344 577.546875 467.085938 577.4375 C 467.640625 577.324219 468.203125 577.242188 468.769531 577.1875 C 469.332031 577.132812 469.898438 577.105469 470.46875 577.105469 L 471.128906 577.105469 C 471.695312 577.105469 472.261719 577.132812 472.828125 577.1875 C 473.390625 577.242188 473.953125 577.324219 474.511719 577.4375 C 475.066406 577.546875 475.617188 577.683594 476.160156 577.847656 C 476.703125 578.015625 477.238281 578.203125 477.761719 578.421875 C 478.285156 578.640625 478.800781 578.882812 479.300781 579.148438 C 479.800781 579.414062 480.285156 579.707031 480.757812 580.023438 C 481.230469 580.335938 481.6875 580.675781 482.125 581.035156 C 482.5625 581.394531 482.984375 581.773438 483.386719 582.175781 C 483.785156 582.578125 484.167969 582.996094 484.527344 583.433594 C 484.886719 583.875 485.226562 584.328125 485.542969 584.800781 C 485.855469 585.273438 486.148438 585.757812 486.414062 586.257812 C 486.683594 586.757812 486.925781 587.269531 487.144531 587.792969 C 487.359375 588.316406 487.550781 588.851562 487.714844 589.394531 C 487.882812 589.9375 488.019531 590.488281 488.128906 591.042969 C 488.242188 591.597656 488.324219 592.160156 488.378906 592.722656 C 488.433594 593.289062 488.460938 593.855469 488.460938 594.421875 L 488.460938 766.496094 C 488.488281 767.234375 488.4375 767.96875 488.316406 768.695312 C 492.164062 770.160156 495.765625 772.09375 499.113281 774.492188 C 500.691406 775.613281 502.199219 776.828125 503.632812 778.128906 C 505.066406 779.429688 506.417969 780.8125 507.6875 782.273438 C 508.957031 783.738281 510.132812 785.269531 511.21875 786.871094 C 512.304688 788.476562 513.292969 790.136719 514.183594 791.855469 C 515.070312 793.578125 515.851562 795.34375 516.53125 797.15625 C 517.207031 798.972656 517.773438 800.820312 518.230469 802.699219 C 518.6875 804.582031 519.03125 806.480469 519.261719 808.402344 C 519.492188 810.324219 519.605469 812.253906 519.605469 814.191406 Z M 519.605469 814.191406 " fill-opacity="1" fill-rule="nonzero"/><path fill="#ffb544" d="M 514.171875 813.96875 C 514.171875 815.382812 514.101562 816.789062 513.964844 818.191406 C 513.824219 819.597656 513.617188 820.988281 513.34375 822.375 C 513.066406 823.757812 512.722656 825.125 512.316406 826.472656 C 511.90625 827.824219 511.429688 829.152344 510.890625 830.453125 C 510.347656 831.757812 509.746094 833.03125 509.078125 834.273438 C 508.414062 835.519531 507.6875 836.726562 506.90625 837.902344 C 506.121094 839.074219 505.28125 840.207031 504.382812 841.296875 C 503.488281 842.386719 502.542969 843.429688 501.542969 844.429688 C 500.542969 845.425781 499.5 846.371094 498.40625 847.265625 C 497.316406 848.160156 496.183594 849 495.007812 849.785156 C 493.835938 850.570312 492.625 851.292969 491.378906 851.957031 C 490.132812 852.621094 488.859375 853.226562 487.554688 853.765625 C 486.25 854.304688 484.921875 854.78125 483.570312 855.1875 C 482.21875 855.597656 480.851562 855.941406 479.464844 856.214844 C 478.082031 856.492188 476.6875 856.699219 475.28125 856.835938 C 473.875 856.976562 472.464844 857.042969 471.054688 857.042969 C 469.640625 857.042969 468.234375 856.976562 466.828125 856.835938 C 465.421875 856.699219 464.027344 856.492188 462.644531 856.214844 C 461.257812 855.941406 459.890625 855.597656 458.539062 855.1875 C 457.1875 854.78125 455.859375 854.304688 454.554688 853.765625 C 453.25 853.226562 451.976562 852.621094 450.730469 851.957031 C 449.484375 851.292969 448.273438 850.570312 447.101562 849.785156 C 445.925781 849 444.792969 848.160156 443.703125 847.265625 C 442.609375 846.371094 441.566406 845.425781 440.566406 844.429688 C 439.566406 843.429688 438.621094 842.386719 437.726562 841.296875 C 436.828125 840.207031 435.988281 839.074219 435.203125 837.902344 C 434.421875 836.726562 433.695312 835.519531 433.027344 834.273438 C 432.363281 833.03125 431.761719 831.757812 431.21875 830.453125 C 430.679688 829.152344 430.203125 827.824219 429.792969 826.472656 C 429.382812 825.125 429.042969 823.757812 428.765625 822.375 C 428.492188 820.988281 428.285156 819.597656 428.144531 818.191406 C 428.007812 816.789062 427.9375 815.382812 427.9375 813.96875 C 427.9375 812.558594 428.007812 811.152344 428.144531 809.75 C 428.285156 808.34375 428.492188 806.949219 428.765625 805.566406 C 429.042969 804.183594 429.382812 802.816406 429.792969 801.46875 C 430.203125 800.117188 430.679688 798.789062 431.21875 797.488281 C 431.761719 796.183594 432.363281 794.910156 433.027344 793.664062 C 433.695312 792.421875 434.421875 791.214844 435.203125 790.039062 C 435.988281 788.867188 436.828125 787.734375 437.726562 786.644531 C 438.621094 785.554688 439.566406 784.511719 440.566406 783.511719 C 441.566406 782.515625 442.609375 781.570312 443.703125 780.675781 C 444.792969 779.78125 445.925781 778.941406 447.101562 778.15625 C 448.273438 777.371094 449.484375 776.648438 450.730469 775.984375 C 451.976562 775.316406 453.25 774.714844 454.554688 774.175781 C 455.859375 773.636719 457.1875 773.160156 458.539062 772.75 C 459.890625 772.34375 461.257812 772 462.644531 771.726562 C 464.027344 771.449219 465.421875 771.242188 466.828125 771.105469 C 468.234375 770.964844 469.640625 770.898438 471.054688 770.898438 C 472.464844 770.898438 473.875 770.964844 475.28125 771.105469 C 476.6875 771.242188 478.082031 771.449219 479.464844 771.726562 C 480.851562 772 482.21875 772.34375 483.570312 772.75 C 484.921875 773.160156 486.25 773.636719 487.554688 774.175781 C 488.859375 774.714844 490.132812 775.316406 491.378906 775.984375 C 492.625 776.648438 493.835938 777.371094 495.007812 778.15625 C 496.183594 778.941406 497.316406 779.78125 498.40625 780.675781 C 499.5 781.570312 500.542969 782.515625 501.542969 783.511719 C 502.542969 784.511719 503.488281 785.554688 504.382812 786.644531 C 505.28125 787.734375 506.121094 788.867188 506.90625 790.039062 C 507.6875 791.214844 508.414062 792.421875 509.078125 793.664062 C 509.746094 794.910156 510.347656 796.183594 510.890625 797.488281 C 511.429688 798.789062 511.90625 800.117188 512.316406 801.46875 C 512.722656 802.816406 513.066406 804.183594 513.34375 805.566406 C 513.617188 806.949219 513.824219 808.34375 513.964844 809.75 C 514.101562 811.152344 514.171875 812.558594 514.171875 813.96875 Z M 514.171875 813.96875 " fill-opacity="1" fill-rule="nonzero"/><path fill="#ffb544" d="M 458.128906 630.964844 L 483.761719 630.964844 L 483.761719 778.542969 L 458.128906 778.542969 Z M 458.128906 630.964844 " fill-opacity="1" fill-rule="nonzero"/></svg>