<svg xmlns="http://www.w3.org/2000/svg" xmlns:xlink="http://www.w3.org/1999/xlink" width="1024" zoomAndPan="magnify" viewBox="0 0 768 767.999994" height="1024" preserveAspectRatio="xMidYMid meet" version="1.0"><defs><clipPath id="f5a12e1e38"><path d="M 369 464 L 638.929688 464 L 638.929688 729 L 369 729 Z M 369 464 " clip-rule="nonzero"/></clipPath><clipPath id="9919d37aba"><path d="M 128.929688 46 L 383 46 L 383 300 L 128.929688 300 Z M 128.929688 46 " clip-rule="nonzero"/></clipPath></defs><path fill="#6b99d2" d="M 504.933594 39.519531 L 503.460938 39.519531 C 502.402344 39.519531 501.34375 39.546875 500.289062 39.597656 C 499.230469 39.648438 498.175781 39.726562 497.121094 39.832031 C 496.066406 39.9375 495.015625 40.066406 493.96875 40.222656 C 492.921875 40.375 491.878906 40.558594 490.839844 40.765625 C 489.800781 40.96875 488.765625 41.203125 487.738281 41.460938 C 486.710938 41.71875 485.691406 42 484.679688 42.308594 C 483.664062 42.613281 482.660156 42.945312 481.664062 43.304688 C 480.664062 43.660156 479.675781 44.042969 478.699219 44.449219 C 477.722656 44.851562 476.753906 45.28125 475.796875 45.734375 C 474.839844 46.1875 473.890625 46.664062 472.957031 47.164062 C 472.023438 47.664062 471.101562 48.183594 470.195312 48.730469 C 469.285156 49.273438 468.390625 49.839844 467.511719 50.429688 C 466.632812 51.015625 465.765625 51.628906 464.914062 52.257812 C 464.0625 52.890625 463.230469 53.539062 462.410156 54.210938 C 461.59375 54.886719 460.789062 55.578125 460.007812 56.289062 C 459.222656 57 458.453125 57.730469 457.707031 58.480469 C 456.957031 59.226562 456.226562 59.996094 455.515625 60.78125 C 454.804688 61.5625 454.113281 62.367188 453.441406 63.183594 C 452.769531 64.003906 452.117188 64.839844 451.488281 65.691406 C 450.855469 66.539062 450.246094 67.40625 449.660156 68.289062 C 449.070312 69.167969 448.503906 70.0625 447.960938 70.972656 C 447.414062 71.878906 446.894531 72.800781 446.394531 73.734375 C 445.894531 74.667969 445.417969 75.617188 444.964844 76.574219 C 444.511719 77.53125 444.082031 78.5 443.679688 79.476562 C 443.273438 80.457031 442.890625 81.445312 442.535156 82.441406 C 442.179688 83.4375 441.847656 84.445312 441.539062 85.457031 C 441.230469 86.472656 440.949219 87.492188 440.691406 88.519531 C 440.433594 89.546875 440.203125 90.582031 439.996094 91.621094 C 439.789062 92.660156 439.609375 93.703125 439.453125 94.75 C 439.296875 95.796875 439.167969 96.847656 439.0625 97.902344 C 438.960938 98.957031 438.882812 100.015625 438.832031 101.070312 C 438.777344 102.128906 438.753906 103.1875 438.753906 104.25 L 438.753906 487.546875 C 438.730469 493.601562 439.546875 499.542969 441.203125 505.363281 C 448.671875 500.058594 456.679688 495.753906 465.226562 492.453125 C 465.0625 490.816406 464.898438 489.183594 464.898438 487.546875 L 464.898438 104.25 C 464.898438 102.984375 464.960938 101.722656 465.082031 100.46875 C 465.207031 99.210938 465.394531 97.960938 465.640625 96.722656 C 465.886719 95.484375 466.191406 94.257812 466.558594 93.050781 C 466.925781 91.839844 467.351562 90.652344 467.832031 89.484375 C 468.316406 88.320312 468.855469 87.179688 469.453125 86.0625 C 470.046875 84.949219 470.695312 83.867188 471.398438 82.816406 C 472.097656 81.765625 472.851562 80.753906 473.652344 79.777344 C 474.453125 78.800781 475.300781 77.863281 476.195312 76.972656 C 477.085938 76.078125 478.019531 75.230469 478.996094 74.429688 C 479.972656 73.628906 480.988281 72.875 482.039062 72.175781 C 483.085938 71.472656 484.167969 70.824219 485.285156 70.226562 C 486.398438 69.632812 487.539062 69.09375 488.703125 68.609375 C 489.871094 68.125 491.058594 67.699219 492.269531 67.332031 C 493.476562 66.96875 494.699219 66.660156 495.9375 66.414062 C 497.179688 66.167969 498.425781 65.984375 499.683594 65.859375 C 500.941406 65.734375 502.199219 65.671875 503.460938 65.671875 L 504.933594 65.671875 C 506.199219 65.671875 507.460938 65.734375 508.71875 65.859375 C 509.976562 65.980469 511.226562 66.167969 512.46875 66.414062 C 513.710938 66.660156 514.933594 66.964844 516.144531 67.332031 C 517.355469 67.699219 518.546875 68.121094 519.714844 68.605469 C 520.886719 69.089844 522.027344 69.628906 523.144531 70.222656 C 524.261719 70.816406 525.34375 71.464844 526.398438 72.167969 C 527.453125 72.867188 528.46875 73.621094 529.445312 74.421875 C 530.425781 75.222656 531.363281 76.070312 532.261719 76.960938 C 533.15625 77.855469 534.007812 78.789062 534.8125 79.765625 C 535.617188 80.742188 536.371094 81.753906 537.078125 82.804688 C 537.785156 83.855469 538.4375 84.9375 539.035156 86.050781 C 539.636719 87.164062 540.179688 88.304688 540.667969 89.472656 C 541.152344 90.640625 541.582031 91.828125 541.957031 93.039062 C 542.328125 94.25 542.636719 95.472656 542.890625 96.714844 C 543.140625 97.953125 543.332031 99.203125 543.460938 100.460938 C 543.589844 101.722656 543.65625 102.984375 543.660156 104.25 L 543.660156 487.546875 C 543.660156 489.199219 543.496094 490.832031 543.171875 492.453125 C 551.769531 495.652344 559.777344 499.957031 567.191406 505.363281 C 568.902344 499.550781 569.773438 493.609375 569.808594 487.546875 L 569.808594 104.25 C 569.808594 103.1875 569.78125 102.125 569.730469 101.066406 C 569.675781 100.007812 569.597656 98.949219 569.496094 97.894531 C 569.390625 96.835938 569.261719 95.785156 569.105469 94.734375 C 568.949219 93.6875 568.765625 92.640625 568.558594 91.601562 C 568.351562 90.558594 568.121094 89.523438 567.863281 88.496094 C 567.601562 87.464844 567.320312 86.445312 567.011719 85.429688 C 566.703125 84.414062 566.371094 83.40625 566.011719 82.410156 C 565.652344 81.410156 565.273438 80.421875 564.867188 79.441406 C 564.460938 78.460938 564.027344 77.492188 563.574219 76.53125 C 563.121094 75.574219 562.644531 74.625 562.140625 73.691406 C 561.640625 72.753906 561.117188 71.832031 560.570312 70.921875 C 560.027344 70.011719 559.457031 69.117188 558.867188 68.234375 C 558.277344 67.355469 557.664062 66.488281 557.03125 65.636719 C 556.398438 64.785156 555.746094 63.949219 555.074219 63.128906 C 554.398438 62.308594 553.707031 61.507812 552.992188 60.722656 C 552.277344 59.9375 551.546875 59.171875 550.796875 58.421875 C 550.046875 57.671875 549.277344 56.941406 548.488281 56.230469 C 547.703125 55.519531 546.898438 54.828125 546.078125 54.15625 C 545.257812 53.480469 544.417969 52.832031 543.566406 52.199219 C 542.714844 51.570312 541.847656 50.960938 540.960938 50.371094 C 540.078125 49.785156 539.183594 49.21875 538.273438 48.675781 C 537.363281 48.128906 536.4375 47.609375 535.5 47.109375 C 534.566406 46.613281 533.617188 46.136719 532.65625 45.683594 C 531.699219 45.234375 530.726562 44.804688 529.746094 44.398438 C 528.765625 43.996094 527.777344 43.617188 526.777344 43.261719 C 525.777344 42.90625 524.769531 42.574219 523.753906 42.269531 C 522.738281 41.960938 521.714844 41.683594 520.6875 41.425781 C 519.65625 41.171875 518.621094 40.941406 517.582031 40.734375 C 516.539062 40.53125 515.496094 40.351562 514.445312 40.199219 C 513.394531 40.046875 512.34375 39.917969 511.285156 39.816406 C 510.230469 39.714844 509.171875 39.640625 508.113281 39.589844 C 507.054688 39.539062 505.992188 39.519531 504.933594 39.519531 Z M 504.933594 39.519531 " fill-opacity="1" fill-rule="nonzero"/><g clip-path="url(#f5a12e1e38)"><path fill="#6b99d2" d="M 569.808594 475.941406 C 561.480469 471.328125 552.761719 467.621094 543.660156 464.828125 L 543.660156 487.546875 C 543.660156 489.199219 543.496094 490.832031 543.171875 492.453125 C 551.769531 495.652344 559.777344 499.957031 567.191406 505.363281 C 568.738281 506.46875 570.257812 507.613281 571.746094 508.796875 C 573.234375 509.980469 574.6875 511.203125 576.113281 512.460938 C 577.535156 513.722656 578.925781 515.019531 580.28125 516.351562 C 581.636719 517.683594 582.953125 519.054688 584.238281 520.457031 C 585.519531 521.859375 586.765625 523.292969 587.976562 524.761719 C 589.183594 526.230469 590.351562 527.730469 591.480469 529.257812 C 592.609375 530.789062 593.699219 532.347656 594.746094 533.933594 C 595.792969 535.519531 596.796875 537.132812 597.761719 538.773438 C 598.722656 540.410156 599.640625 542.074219 600.515625 543.761719 C 601.390625 545.453125 602.222656 547.160156 603.007812 548.894531 C 603.792969 550.625 604.53125 552.375 605.226562 554.144531 C 605.917969 555.917969 606.566406 557.703125 607.164062 559.507812 C 607.765625 561.3125 608.316406 563.132812 608.820312 564.964844 C 609.324219 566.796875 609.78125 568.644531 610.1875 570.5 C 610.59375 572.359375 610.953125 574.226562 611.261719 576.101562 C 611.570312 577.976562 611.828125 579.859375 612.039062 581.75 C 612.25 583.640625 612.410156 585.535156 612.519531 587.433594 C 612.628906 589.328125 612.691406 591.230469 612.699219 593.132812 C 612.710938 595.03125 612.671875 596.933594 612.582031 598.832031 C 612.492188 600.730469 612.355469 602.628906 612.164062 604.519531 C 611.976562 606.410156 611.738281 608.296875 611.449219 610.175781 C 611.160156 612.054688 610.824219 613.925781 610.4375 615.789062 C 610.050781 617.648438 609.617188 619.5 609.132812 621.339844 C 608.648438 623.175781 608.117188 625.003906 607.539062 626.8125 C 606.960938 628.625 606.332031 630.417969 605.660156 632.195312 C 604.984375 633.976562 604.265625 635.734375 603.5 637.472656 C 602.734375 639.214844 601.921875 640.933594 601.066406 642.628906 C 600.210938 644.328125 599.308594 646.003906 598.367188 647.652344 C 597.421875 649.300781 596.433594 650.925781 595.402344 652.523438 C 594.375 654.125 593.304688 655.691406 592.191406 657.234375 C 591.078125 658.777344 589.925781 660.289062 588.734375 661.769531 C 587.542969 663.25 586.3125 664.699219 585.046875 666.117188 C 583.777344 667.535156 582.476562 668.917969 581.132812 670.265625 C 579.792969 671.613281 578.417969 672.925781 577.011719 674.203125 C 575.601562 675.476562 574.160156 676.714844 572.683594 677.914062 C 571.210938 679.117188 569.707031 680.277344 568.167969 681.398438 C 566.632812 682.519531 565.070312 683.597656 563.480469 684.636719 C 561.886719 685.675781 560.269531 686.671875 558.625 687.625 C 556.980469 688.578125 555.3125 689.488281 553.617188 690.355469 C 551.925781 691.222656 550.210938 692.042969 548.476562 692.820312 C 546.742188 693.59375 544.988281 694.324219 543.214844 695.007812 C 541.441406 695.691406 539.648438 696.328125 537.84375 696.917969 C 536.035156 697.507812 534.214844 698.050781 532.378906 698.542969 C 530.542969 699.035156 528.695312 699.480469 526.835938 699.878906 C 524.976562 700.277344 523.109375 700.625 521.230469 700.921875 C 519.355469 701.21875 517.46875 701.46875 515.578125 701.667969 C 513.6875 701.867188 511.796875 702.019531 509.898438 702.117188 C 508 702.21875 506.097656 702.265625 504.199219 702.265625 C 502.296875 702.265625 500.398438 702.21875 498.5 702.117188 C 496.601562 702.019531 494.707031 701.867188 492.816406 701.667969 C 490.925781 701.46875 489.042969 701.21875 487.164062 700.921875 C 485.289062 700.625 483.417969 700.277344 481.558594 699.878906 C 479.699219 699.480469 477.855469 699.035156 476.019531 698.542969 C 474.183594 698.050781 472.359375 697.507812 470.554688 696.917969 C 468.746094 696.328125 466.957031 695.691406 465.183594 695.007812 C 463.410156 694.324219 461.652344 693.59375 459.917969 692.820312 C 458.183594 692.042969 456.46875 691.222656 454.777344 690.355469 C 453.085938 689.488281 451.417969 688.578125 449.773438 687.625 C 448.128906 686.671875 446.507812 685.675781 444.917969 684.636719 C 443.324219 683.597656 441.761719 682.519531 440.226562 681.398438 C 438.691406 680.277344 437.1875 679.117188 435.710938 677.914062 C 434.238281 676.714844 432.796875 675.476562 431.386719 674.203125 C 429.976562 672.925781 428.601562 671.613281 427.261719 670.265625 C 425.921875 668.917969 424.617188 667.535156 423.347656 666.117188 C 422.082031 664.699219 420.851562 663.25 419.660156 661.769531 C 418.46875 660.289062 417.316406 658.777344 416.203125 657.234375 C 415.09375 655.691406 414.023438 654.125 412.992188 652.523438 C 411.960938 650.925781 410.976562 649.300781 410.03125 647.652344 C 409.085938 646.003906 408.1875 644.328125 407.328125 642.628906 C 406.472656 640.933594 405.664062 639.214844 404.894531 637.472656 C 404.128906 635.734375 403.410156 633.976562 402.738281 632.195312 C 402.0625 630.417969 401.4375 628.625 400.855469 626.8125 C 400.277344 625.003906 399.746094 623.175781 399.261719 621.339844 C 398.777344 619.5 398.34375 617.648438 397.957031 615.789062 C 397.570312 613.925781 397.234375 612.054688 396.945312 610.175781 C 396.660156 608.296875 396.421875 606.410156 396.230469 604.519531 C 396.042969 602.625 395.902344 600.730469 395.8125 598.832031 C 395.726562 596.933594 395.683594 595.03125 395.695312 593.132812 C 395.707031 591.230469 395.765625 589.328125 395.878906 587.429688 C 395.988281 585.535156 396.148438 583.640625 396.359375 581.75 C 396.566406 579.859375 396.828125 577.976562 397.136719 576.101562 C 397.445312 574.226562 397.800781 572.359375 398.210938 570.5 C 398.617188 568.644531 399.070312 566.796875 399.574219 564.964844 C 400.078125 563.132812 400.632812 561.3125 401.230469 559.507812 C 401.832031 557.703125 402.476562 555.917969 403.167969 554.144531 C 403.863281 552.375 404.601562 550.625 405.386719 548.894531 C 406.171875 547.160156 407.003906 545.453125 407.878906 543.761719 C 408.753906 542.074219 409.671875 540.410156 410.636719 538.773438 C 411.597656 537.132812 412.601562 535.519531 413.652344 533.933594 C 414.699219 532.347656 415.785156 530.789062 416.914062 529.257812 C 418.042969 527.730469 419.214844 526.230469 420.421875 524.761719 C 421.628906 523.292969 422.875 521.859375 424.160156 520.457031 C 425.441406 519.054688 426.761719 517.683594 428.117188 516.351562 C 429.472656 515.019531 430.859375 513.722656 432.285156 512.460938 C 433.707031 511.203125 435.164062 509.980469 436.652344 508.796875 C 438.136719 507.613281 439.65625 506.46875 441.203125 505.363281 C 448.671875 500.058594 456.679688 495.753906 465.226562 492.453125 C 465.0625 490.816406 464.898438 489.183594 464.898438 487.546875 L 464.898438 464.828125 C 455.78125 467.59375 447.066406 471.296875 438.753906 475.941406 C 436.601562 477.140625 434.484375 478.398438 432.402344 479.714844 C 430.320312 481.027344 428.273438 482.402344 426.265625 483.828125 C 424.257812 485.253906 422.292969 486.738281 420.367188 488.273438 C 418.4375 489.808594 416.558594 491.394531 414.71875 493.03125 C 412.878906 494.671875 411.085938 496.359375 409.339844 498.097656 C 407.59375 499.832031 405.894531 501.617188 404.246094 503.449219 C 402.597656 505.277344 401 507.152344 399.453125 509.070312 C 397.910156 510.988281 396.417969 512.945312 394.976562 514.945312 C 393.539062 516.945312 392.15625 518.984375 390.832031 521.058594 C 389.503906 523.136719 388.234375 525.246094 387.023438 527.390625 C 385.8125 529.539062 384.664062 531.714844 383.570312 533.921875 C 382.480469 536.132812 381.449219 538.367188 380.480469 540.632812 C 379.511719 542.898438 378.605469 545.1875 377.765625 547.503906 C 376.921875 549.816406 376.140625 552.15625 375.425781 554.511719 C 374.710938 556.871094 374.0625 559.246094 373.476562 561.636719 C 372.894531 564.03125 372.375 566.4375 371.921875 568.859375 C 371.46875 571.28125 371.085938 573.714844 370.765625 576.15625 C 370.445312 578.601562 370.195312 581.050781 370.007812 583.507812 C 369.824219 585.964844 369.707031 588.421875 369.65625 590.886719 C 369.609375 593.351562 369.625 595.8125 369.710938 598.273438 C 369.796875 600.738281 369.949219 603.195312 370.171875 605.648438 C 370.390625 608.101562 370.675781 610.546875 371.03125 612.984375 C 371.386719 615.425781 371.808594 617.851562 372.296875 620.265625 C 372.78125 622.679688 373.335938 625.078125 373.957031 627.464844 C 374.574219 629.847656 375.257812 632.214844 376.007812 634.5625 C 376.757812 636.910156 377.570312 639.234375 378.445312 641.535156 C 379.320312 643.839844 380.261719 646.113281 381.261719 648.367188 C 382.265625 650.617188 383.324219 652.839844 384.449219 655.03125 C 385.574219 657.222656 386.753906 659.382812 387.996094 661.511719 C 389.238281 663.636719 390.539062 665.730469 391.894531 667.785156 C 393.25 669.84375 394.664062 671.859375 396.128906 673.839844 C 397.597656 675.816406 399.117188 677.753906 400.691406 679.648438 C 402.265625 681.546875 403.890625 683.394531 405.5625 685.203125 C 407.238281 687.007812 408.960938 688.765625 410.734375 690.480469 C 412.503906 692.191406 414.324219 693.851562 416.183594 695.464844 C 418.046875 697.074219 419.953125 698.636719 421.902344 700.144531 C 423.847656 701.648438 425.835938 703.101562 427.867188 704.5 C 429.894531 705.898438 431.957031 707.242188 434.058594 708.523438 C 436.160156 709.808594 438.296875 711.035156 440.464844 712.203125 C 442.632812 713.371094 444.832031 714.480469 447.0625 715.527344 C 449.292969 716.574219 451.546875 717.558594 453.832031 718.480469 C 456.117188 719.402344 458.421875 720.261719 460.753906 721.058594 C 463.085938 721.855469 465.433594 722.589844 467.804688 723.253906 C 470.175781 723.921875 472.5625 724.523438 474.96875 725.0625 C 477.371094 725.597656 479.789062 726.066406 482.21875 726.46875 C 484.648438 726.875 487.085938 727.210938 489.535156 727.480469 C 491.984375 727.75 494.4375 727.953125 496.894531 728.089844 C 499.355469 728.222656 501.816406 728.289062 504.28125 728.289062 C 506.742188 728.289062 509.203125 728.222656 511.664062 728.089844 C 514.121094 727.953125 516.574219 727.75 519.023438 727.480469 C 521.472656 727.210938 523.910156 726.875 526.339844 726.46875 C 528.769531 726.066406 531.1875 725.597656 533.589844 725.0625 C 535.996094 724.523438 538.382812 723.921875 540.753906 723.253906 C 543.125 722.585938 545.476562 721.855469 547.804688 721.058594 C 550.136719 720.261719 552.445312 719.402344 554.726562 718.480469 C 557.011719 717.558594 559.265625 716.574219 561.496094 715.527344 C 563.726562 714.480469 565.925781 713.371094 568.09375 712.203125 C 570.261719 711.035156 572.398438 709.808594 574.5 708.523438 C 576.601562 707.242188 578.667969 705.898438 580.695312 704.5 C 582.722656 703.101562 584.710938 701.648438 586.660156 700.144531 C 588.605469 698.636719 590.511719 697.074219 592.375 695.464844 C 594.238281 693.851562 596.054688 692.191406 597.824219 690.480469 C 599.597656 688.765625 601.320312 687.007812 602.996094 685.203125 C 604.671875 683.394531 606.292969 681.546875 607.867188 679.648438 C 609.441406 677.753906 610.960938 675.816406 612.429688 673.839844 C 613.898438 671.859375 615.308594 669.84375 616.664062 667.785156 C 618.023438 665.730469 619.320312 663.636719 620.5625 661.511719 C 621.804688 659.382812 622.988281 657.222656 624.109375 655.03125 C 625.234375 652.835938 626.296875 650.617188 627.296875 648.367188 C 628.296875 646.113281 629.238281 643.835938 630.113281 641.535156 C 630.992188 639.234375 631.804688 636.910156 632.550781 634.5625 C 633.300781 632.214844 633.984375 629.847656 634.605469 627.464844 C 635.222656 625.078125 635.777344 622.679688 636.265625 620.265625 C 636.753906 617.851562 637.171875 615.425781 637.527344 612.984375 C 637.882812 610.546875 638.167969 608.101562 638.390625 605.648438 C 638.609375 603.195312 638.761719 600.738281 638.847656 598.273438 C 638.933594 595.8125 638.949219 593.351562 638.902344 590.886719 C 638.851562 588.421875 638.734375 585.964844 638.550781 583.507812 C 638.367188 581.050781 638.113281 578.601562 637.792969 576.15625 C 637.476562 573.714844 637.089844 571.28125 636.636719 568.859375 C 636.183594 566.4375 635.667969 564.03125 635.082031 561.636719 C 634.496094 559.246094 633.847656 556.871094 633.132812 554.511719 C 632.417969 552.152344 631.636719 549.816406 630.796875 547.503906 C 629.953125 545.1875 629.046875 542.898438 628.078125 540.632812 C 627.109375 538.367188 626.078125 536.132812 624.988281 533.921875 C 623.898438 531.714844 622.746094 529.539062 621.535156 527.390625 C 620.324219 525.246094 619.054688 523.136719 617.730469 521.058594 C 616.402344 518.984375 615.019531 516.945312 613.582031 514.945312 C 612.144531 512.945312 610.652344 510.988281 609.105469 509.070312 C 607.558594 507.152344 605.960938 505.277344 604.3125 503.449219 C 602.664062 501.617188 600.964844 499.832031 599.21875 498.097656 C 597.472656 496.359375 595.679688 494.671875 593.84375 493.03125 C 592.003906 491.394531 590.121094 489.808594 588.195312 488.273438 C 586.269531 486.738281 584.300781 485.253906 582.292969 483.828125 C 580.285156 482.402344 578.242188 481.027344 576.160156 479.714844 C 574.074219 478.398438 571.957031 477.140625 569.808594 475.941406 Z M 569.808594 475.941406 " fill-opacity="1" fill-rule="nonzero"/></g><path fill="#ffb544" d="M 612.785156 593.792969 C 612.78125 595.429688 612.742188 597.066406 612.667969 598.703125 C 612.59375 600.335938 612.480469 601.96875 612.332031 603.601562 C 612.183594 605.230469 611.996094 606.855469 611.773438 608.480469 C 611.550781 610.101562 611.292969 611.71875 610.996094 613.328125 C 610.699219 614.9375 610.367188 616.539062 610 618.136719 C 609.632812 619.730469 609.226562 621.316406 608.789062 622.894531 C 608.347656 624.46875 607.871094 626.035156 607.359375 627.589844 C 606.851562 629.144531 606.304688 630.6875 605.722656 632.21875 C 605.144531 633.75 604.527344 635.265625 603.878906 636.769531 C 603.230469 638.273438 602.546875 639.761719 601.828125 641.230469 C 601.113281 642.703125 600.363281 644.160156 599.582031 645.597656 C 598.800781 647.035156 597.984375 648.453125 597.136719 649.855469 C 596.292969 651.257812 595.414062 652.636719 594.503906 654 C 593.59375 655.359375 592.65625 656.699219 591.6875 658.019531 C 590.714844 659.335938 589.71875 660.632812 588.6875 661.90625 C 587.660156 663.179688 586.605469 664.429688 585.519531 665.65625 C 584.433594 666.882812 583.320312 668.082031 582.183594 669.257812 C 581.042969 670.433594 579.878906 671.582031 578.6875 672.707031 C 577.496094 673.828125 576.28125 674.921875 575.039062 675.992188 C 573.796875 677.058594 572.535156 678.097656 571.246094 679.109375 C 569.957031 680.117188 568.648438 681.097656 567.316406 682.050781 C 565.984375 683 564.632812 683.921875 563.257812 684.8125 C 561.882812 685.699219 560.492188 686.558594 559.078125 687.386719 C 557.664062 688.214844 556.234375 689.007812 554.785156 689.769531 C 553.335938 690.53125 551.871094 691.261719 550.390625 691.957031 C 548.910156 692.652344 547.414062 693.3125 545.902344 693.941406 C 544.390625 694.570312 542.867188 695.164062 541.328125 695.722656 C 539.789062 696.28125 538.238281 696.804688 536.675781 697.292969 C 535.113281 697.78125 533.542969 698.234375 531.960938 698.652344 C 530.378906 699.070312 528.785156 699.453125 527.1875 699.796875 C 525.585938 700.144531 523.980469 700.453125 522.367188 700.726562 C 520.753906 701 519.132812 701.234375 517.507812 701.433594 C 515.882812 701.632812 514.257812 701.796875 512.625 701.921875 C 510.992188 702.050781 509.359375 702.136719 507.722656 702.191406 C 506.085938 702.242188 504.449219 702.257812 502.816406 702.234375 C 501.179688 702.210938 499.542969 702.152344 497.910156 702.058594 C 496.273438 701.960938 494.644531 701.828125 493.015625 701.660156 C 491.390625 701.488281 489.765625 701.28125 488.148438 701.039062 C 486.527344 700.792969 484.917969 700.515625 483.3125 700.199219 C 481.703125 699.882812 480.105469 699.53125 478.515625 699.140625 C 476.925781 698.753906 475.347656 698.328125 473.777344 697.867188 C 472.207031 697.40625 470.644531 696.910156 469.097656 696.382812 C 467.550781 695.851562 466.015625 695.285156 464.492188 694.683594 C 462.96875 694.082031 461.460938 693.449219 459.96875 692.78125 C 458.472656 692.113281 456.996094 691.410156 455.53125 690.675781 C 454.070312 689.9375 452.625 689.171875 451.199219 688.371094 C 449.769531 687.570312 448.363281 686.738281 446.972656 685.871094 C 445.582031 685.007812 444.214844 684.113281 442.863281 683.183594 C 441.515625 682.257812 440.1875 681.300781 438.882812 680.316406 C 437.574219 679.328125 436.292969 678.3125 435.03125 677.265625 C 433.773438 676.222656 432.535156 675.148438 431.324219 674.050781 C 430.113281 672.949219 428.925781 671.820312 427.765625 670.667969 C 426.605469 669.511719 425.472656 668.332031 424.367188 667.125 C 423.257812 665.921875 422.179688 664.691406 421.128906 663.4375 C 420.078125 662.179688 419.054688 660.902344 418.058594 659.601562 C 417.066406 658.300781 416.101562 656.980469 415.167969 655.632812 C 414.234375 654.289062 413.332031 652.925781 412.460938 651.539062 C 411.589844 650.152344 410.75 648.75 409.941406 647.328125 C 409.132812 645.902344 408.355469 644.460938 407.613281 643.003906 C 406.867188 641.542969 406.160156 640.070312 405.480469 638.578125 C 404.804688 637.089844 404.164062 635.582031 403.554688 634.0625 C 402.945312 632.542969 402.371094 631.011719 401.832031 629.464844 C 401.292969 627.921875 400.789062 626.363281 400.320312 624.792969 C 399.851562 623.226562 399.417969 621.648438 399.023438 620.058594 C 398.625 618.472656 398.261719 616.875 397.9375 615.269531 C 397.613281 613.664062 397.324219 612.054688 397.070312 610.4375 C 396.820312 608.820312 396.605469 607.195312 396.425781 605.570312 C 396.246094 603.941406 396.105469 602.3125 396 600.679688 C 395.894531 599.042969 395.828125 597.410156 395.796875 595.773438 C 395.765625 594.136719 395.769531 592.5 395.8125 590.863281 C 395.855469 589.226562 395.9375 587.589844 396.054688 585.957031 C 396.171875 584.324219 396.324219 582.695312 396.515625 581.070312 C 396.707031 579.445312 396.933594 577.824219 397.195312 576.207031 C 397.460938 574.59375 397.761719 572.984375 398.097656 571.378906 C 398.433594 569.777344 398.808594 568.183594 399.214844 566.601562 C 399.625 565.015625 400.070312 563.441406 400.550781 561.875 C 401.027344 560.308594 401.542969 558.753906 402.09375 557.214844 C 402.644531 555.671875 403.230469 554.144531 403.851562 552.628906 C 404.46875 551.113281 405.121094 549.613281 405.808594 548.125 C 406.496094 546.640625 407.21875 545.171875 407.972656 543.71875 C 408.726562 542.265625 409.511719 540.832031 410.332031 539.414062 C 411.148438 537.996094 412 536.597656 412.882812 535.21875 C 413.765625 533.839844 414.675781 532.480469 415.621094 531.144531 C 416.5625 529.804688 417.539062 528.488281 418.539062 527.195312 C 419.542969 525.902344 420.574219 524.632812 421.636719 523.386719 C 422.695312 522.136719 423.785156 520.914062 424.898438 519.71875 C 426.015625 518.519531 427.15625 517.347656 428.328125 516.203125 C 429.496094 515.058594 430.691406 513.9375 431.910156 512.847656 C 433.128906 511.753906 434.371094 510.691406 435.640625 509.65625 C 436.90625 508.617188 438.199219 507.613281 439.511719 506.636719 C 440.824219 505.65625 442.160156 504.710938 443.515625 503.792969 C 444.871094 502.878906 446.246094 501.992188 447.640625 501.136719 C 449.039062 500.28125 450.453125 499.460938 451.886719 498.667969 C 453.320312 497.878906 454.769531 497.121094 456.238281 496.394531 C 457.703125 495.671875 459.1875 494.980469 460.6875 494.324219 C 462.183594 493.664062 463.699219 493.042969 465.226562 492.453125 C 465.0625 490.816406 464.898438 489.183594 464.898438 487.546875 L 464.898438 104.25 C 464.898438 102.984375 464.960938 101.722656 465.082031 100.46875 C 465.207031 99.210938 465.394531 97.960938 465.640625 96.722656 C 465.886719 95.484375 466.191406 94.257812 466.558594 93.050781 C 466.925781 91.839844 467.351562 90.652344 467.832031 89.484375 C 468.316406 88.320312 468.855469 87.179688 469.453125 86.0625 C 470.046875 84.949219 470.695312 83.867188 471.398438 82.816406 C 472.097656 81.765625 472.851562 80.753906 473.652344 79.777344 C 474.453125 78.800781 475.300781 77.863281 476.195312 76.972656 C 477.085938 76.078125 478.019531 75.230469 478.996094 74.429688 C 479.972656 73.628906 480.988281 72.875 482.039062 72.175781 C 483.085938 71.472656 484.167969 70.824219 485.285156 70.226562 C 486.398438 69.632812 487.539062 69.09375 488.703125 68.609375 C 489.871094 68.125 491.058594 67.699219 492.269531 67.332031 C 493.476562 66.96875 494.699219 66.660156 495.9375 66.414062 C 497.179688 66.167969 498.425781 65.984375 499.683594 65.859375 C 500.941406 65.734375 502.199219 65.671875 503.460938 65.671875 L 504.933594 65.671875 C 506.199219 65.671875 507.460938 65.734375 508.71875 65.859375 C 509.976562 65.980469 511.226562 66.167969 512.46875 66.414062 C 513.710938 66.660156 514.933594 66.964844 516.144531 67.332031 C 517.355469 67.699219 518.546875 68.121094 519.714844 68.605469 C 520.886719 69.089844 522.027344 69.628906 523.144531 70.222656 C 524.261719 70.816406 525.34375 71.464844 526.398438 72.167969 C 527.453125 72.867188 528.46875 73.621094 529.445312 74.421875 C 530.425781 75.222656 531.363281 76.070312 532.261719 76.960938 C 533.15625 77.855469 534.007812 78.789062 534.8125 79.765625 C 535.617188 80.742188 536.371094 81.753906 537.078125 82.804688 C 537.785156 83.855469 538.4375 84.9375 539.035156 86.050781 C 539.636719 87.164062 540.179688 88.304688 540.667969 89.472656 C 541.152344 90.640625 541.582031 91.828125 541.957031 93.039062 C 542.328125 94.25 542.636719 95.472656 542.890625 96.714844 C 543.140625 97.953125 543.332031 99.203125 543.460938 100.460938 C 543.589844 101.722656 543.65625 102.984375 543.660156 104.25 L 543.660156 487.546875 C 543.660156 489.199219 543.496094 490.832031 543.171875 492.453125 C 551.769531 495.652344 559.777344 499.957031 567.191406 505.363281 C 570.710938 507.859375 574.066406 510.554688 577.257812 513.453125 C 580.453125 516.347656 583.464844 519.425781 586.289062 522.683594 C 589.117188 525.9375 591.742188 529.351562 594.160156 532.921875 C 596.578125 536.492188 598.773438 540.195312 600.75 544.027344 C 602.726562 547.859375 604.46875 551.796875 605.972656 555.839844 C 607.480469 559.878906 608.738281 563.996094 609.753906 568.1875 C 610.765625 572.378906 611.527344 576.617188 612.03125 580.898438 C 612.539062 585.183594 612.789062 589.480469 612.785156 593.792969 Z M 612.785156 593.792969 " fill-opacity="1" fill-rule="nonzero"/><path fill="#26477a" d="M 600.691406 593.304688 C 600.691406 594.875 600.652344 596.441406 600.574219 598.011719 C 600.5 599.578125 600.382812 601.144531 600.230469 602.707031 C 600.074219 604.269531 599.882812 605.828125 599.652344 607.382812 C 599.421875 608.933594 599.152344 610.480469 598.847656 612.023438 C 598.542969 613.5625 598.199219 615.09375 597.816406 616.617188 C 597.433594 618.140625 597.015625 619.652344 596.5625 621.15625 C 596.105469 622.65625 595.613281 624.148438 595.082031 625.625 C 594.554688 627.105469 593.988281 628.570312 593.390625 630.019531 C 592.789062 631.472656 592.152344 632.90625 591.480469 634.324219 C 590.808594 635.746094 590.105469 637.148438 589.363281 638.53125 C 588.625 639.917969 587.851562 641.28125 587.042969 642.628906 C 586.238281 643.976562 585.398438 645.304688 584.523438 646.609375 C 583.652344 647.914062 582.75 649.199219 581.816406 650.457031 C 580.878906 651.71875 579.914062 652.957031 578.917969 654.171875 C 577.921875 655.386719 576.898438 656.574219 575.84375 657.738281 C 574.789062 658.902344 573.707031 660.039062 572.597656 661.148438 C 571.488281 662.257812 570.351562 663.339844 569.1875 664.394531 C 568.023438 665.449219 566.835938 666.476562 565.621094 667.472656 C 564.40625 668.46875 563.171875 669.433594 561.910156 670.367188 C 560.648438 671.304688 559.367188 672.207031 558.0625 673.082031 C 556.753906 673.953125 555.429688 674.792969 554.082031 675.601562 C 552.738281 676.40625 551.371094 677.179688 549.988281 677.921875 C 548.601562 678.660156 547.199219 679.367188 545.78125 680.039062 C 544.363281 680.710938 542.925781 681.347656 541.476562 681.945312 C 540.027344 682.546875 538.5625 683.113281 537.085938 683.640625 C 535.605469 684.171875 534.117188 684.664062 532.613281 685.121094 C 531.113281 685.574219 529.597656 685.992188 528.078125 686.375 C 526.554688 686.757812 525.023438 687.101562 523.484375 687.40625 C 521.945312 687.714844 520.398438 687.980469 518.84375 688.210938 C 517.292969 688.441406 515.734375 688.632812 514.171875 688.789062 C 512.609375 688.941406 511.042969 689.058594 509.476562 689.136719 C 507.910156 689.210938 506.339844 689.25 504.769531 689.25 C 503.199219 689.25 501.632812 689.210938 500.0625 689.136719 C 498.496094 689.058594 496.929688 688.941406 495.367188 688.789062 C 493.804688 688.632812 492.25 688.441406 490.695312 688.210938 C 489.140625 687.980469 487.597656 687.714844 486.054688 687.40625 C 484.515625 687.101562 482.984375 686.757812 481.464844 686.375 C 479.941406 685.992188 478.425781 685.574219 476.925781 685.121094 C 475.421875 684.664062 473.933594 684.171875 472.453125 683.640625 C 470.976562 683.113281 469.511719 682.546875 468.0625 681.945312 C 466.613281 681.347656 465.175781 680.710938 463.757812 680.039062 C 462.339844 679.367188 460.9375 678.660156 459.554688 677.921875 C 458.167969 677.179688 456.804688 676.40625 455.457031 675.601562 C 454.109375 674.792969 452.785156 673.953125 451.480469 673.082031 C 450.171875 672.207031 448.890625 671.304688 447.628906 670.367188 C 446.367188 669.433594 445.132812 668.46875 443.917969 667.472656 C 442.703125 666.476562 441.515625 665.449219 440.351562 664.394531 C 439.191406 663.339844 438.054688 662.257812 436.945312 661.148438 C 435.832031 660.039062 434.75 658.902344 433.695312 657.738281 C 432.644531 656.574219 431.617188 655.386719 430.621094 654.171875 C 429.625 652.957031 428.660156 651.71875 427.726562 650.457031 C 426.789062 649.199219 425.886719 647.914062 425.015625 646.609375 C 424.140625 645.304688 423.300781 643.976562 422.496094 642.628906 C 421.6875 641.28125 420.914062 639.917969 420.175781 638.53125 C 419.433594 637.148438 418.730469 635.746094 418.058594 634.324219 C 417.386719 632.90625 416.75 631.472656 416.148438 630.019531 C 415.550781 628.570312 414.984375 627.105469 414.457031 625.625 C 413.925781 624.148438 413.433594 622.65625 412.980469 621.15625 C 412.523438 619.652344 412.105469 618.140625 411.722656 616.617188 C 411.34375 615.09375 411 613.5625 410.691406 612.023438 C 410.386719 610.480469 410.117188 608.933594 409.886719 607.382812 C 409.65625 605.828125 409.464844 604.269531 409.3125 602.707031 C 409.15625 601.144531 409.042969 599.578125 408.964844 598.011719 C 408.886719 596.441406 408.847656 594.875 408.847656 593.304688 C 408.847656 591.734375 408.886719 590.164062 408.964844 588.59375 C 409.042969 587.027344 409.15625 585.460938 409.3125 583.898438 C 409.464844 582.335938 409.65625 580.777344 409.886719 579.222656 C 410.117188 577.671875 410.386719 576.125 410.691406 574.585938 C 411 573.042969 411.34375 571.511719 411.722656 569.988281 C 412.105469 568.464844 412.523438 566.953125 412.980469 565.449219 C 413.433594 563.949219 413.925781 562.457031 414.457031 560.980469 C 414.984375 559.5 415.550781 558.035156 416.148438 556.585938 C 416.75 555.132812 417.386719 553.699219 418.058594 552.28125 C 418.730469 550.859375 419.433594 549.457031 420.175781 548.074219 C 420.914062 546.6875 421.6875 545.324219 422.496094 543.976562 C 423.300781 542.628906 424.140625 541.304688 425.015625 539.996094 C 425.886719 538.691406 426.789062 537.410156 427.726562 536.148438 C 428.660156 534.886719 429.625 533.648438 430.621094 532.433594 C 431.617188 531.222656 432.644531 530.03125 433.695312 528.867188 C 434.75 527.703125 435.832031 526.566406 436.945312 525.457031 C 438.054688 524.347656 439.191406 523.265625 440.351562 522.210938 C 441.515625 521.15625 442.703125 520.128906 443.917969 519.132812 C 445.132812 518.136719 446.367188 517.171875 447.628906 516.238281 C 448.890625 515.300781 450.171875 514.398438 451.480469 513.527344 C 452.785156 512.652344 454.109375 511.8125 455.457031 511.007812 C 456.804688 510.199219 458.167969 509.425781 459.554688 508.683594 C 460.9375 507.945312 462.339844 507.238281 463.757812 506.566406 C 465.175781 505.894531 466.613281 505.261719 468.0625 504.660156 C 469.511719 504.058594 470.976562 503.492188 472.453125 502.964844 C 473.933594 502.433594 475.421875 501.941406 476.925781 501.488281 C 478.425781 501.03125 479.941406 500.613281 481.464844 500.230469 C 482.984375 499.847656 484.515625 499.503906 486.054688 499.199219 C 487.597656 498.894531 489.140625 498.625 490.695312 498.394531 C 492.25 498.164062 493.804688 497.972656 495.367188 497.816406 C 496.929688 497.664062 498.496094 497.546875 500.0625 497.472656 C 501.632812 497.394531 503.199219 497.355469 504.769531 497.355469 C 506.339844 497.355469 507.910156 497.394531 509.476562 497.472656 C 511.042969 497.546875 512.609375 497.664062 514.171875 497.816406 C 515.734375 497.972656 517.292969 498.164062 518.84375 498.394531 C 520.398438 498.625 521.945312 498.894531 523.484375 499.199219 C 525.023438 499.503906 526.554688 499.847656 528.078125 500.230469 C 529.601562 500.613281 531.113281 501.03125 532.613281 501.488281 C 534.117188 501.941406 535.605469 502.433594 537.085938 502.964844 C 538.5625 503.492188 540.027344 504.058594 541.476562 504.660156 C 542.925781 505.261719 544.363281 505.894531 545.78125 506.566406 C 547.199219 507.238281 548.601562 507.945312 549.988281 508.683594 C 551.371094 509.425781 552.738281 510.199219 554.082031 511.007812 C 555.429688 511.8125 556.753906 512.652344 558.0625 513.527344 C 559.367188 514.398438 560.648438 515.300781 561.910156 516.238281 C 563.171875 517.171875 564.40625 518.136719 565.621094 519.132812 C 566.835938 520.128906 568.023438 521.15625 569.1875 522.210938 C 570.351562 523.265625 571.488281 524.347656 572.597656 525.457031 C 573.707031 526.566406 574.789062 527.703125 575.84375 528.867188 C 576.898438 530.03125 577.921875 531.222656 578.917969 532.433594 C 579.914062 533.648438 580.878906 534.886719 581.8125 536.148438 C 582.75 537.410156 583.652344 538.691406 584.523438 539.996094 C 585.398438 541.304688 586.238281 542.628906 587.042969 543.976562 C 587.851562 545.324219 588.625 546.6875 589.363281 548.074219 C 590.105469 549.457031 590.808594 550.859375 591.480469 552.28125 C 592.152344 553.699219 592.789062 555.132812 593.390625 556.585938 C 593.988281 558.035156 594.554688 559.5 595.082031 560.980469 C 595.613281 562.457031 596.105469 563.949219 596.5625 565.449219 C 597.015625 566.953125 597.433594 568.464844 597.816406 569.988281 C 598.199219 571.511719 598.542969 573.042969 598.847656 574.585938 C 599.152344 576.125 599.421875 577.671875 599.652344 579.222656 C 599.882812 580.777344 600.074219 582.335938 600.230469 583.898438 C 600.382812 585.460938 600.5 587.027344 600.574219 588.59375 C 600.652344 590.164062 600.691406 591.734375 600.691406 593.304688 Z M 600.691406 593.304688 " fill-opacity="1" fill-rule="nonzero"/><path fill="#26477a" d="M 476.011719 384.082031 L 533.039062 384.082031 L 533.039062 514.453125 L 476.011719 514.453125 Z M 476.011719 384.082031 " fill-opacity="1" fill-rule="nonzero"/><g clip-path="url(#9919d37aba)"><path fill="#6b99d2" d="M 375.1875 165.542969 L 274.035156 165.542969 L 345.609375 93.785156 C 345.960938 93.4375 346.277344 93.058594 346.554688 92.644531 C 346.828125 92.234375 347.0625 91.796875 347.25 91.335938 C 347.4375 90.878906 347.578125 90.402344 347.667969 89.917969 C 347.761719 89.429688 347.804688 88.9375 347.796875 88.441406 C 347.789062 87.945312 347.730469 87.453125 347.625 86.96875 C 347.515625 86.484375 347.363281 86.015625 347.160156 85.5625 C 346.957031 85.105469 346.714844 84.679688 346.425781 84.273438 C 346.136719 83.871094 345.808594 83.5 345.445312 83.164062 C 345.09375 82.835938 344.714844 82.542969 344.308594 82.289062 C 343.902344 82.03125 343.472656 81.816406 343.027344 81.640625 C 342.578125 81.464844 342.117188 81.332031 341.644531 81.242188 C 341.175781 81.152344 340.699219 81.105469 340.21875 81.105469 C 339.734375 81.105469 339.257812 81.152344 338.789062 81.242188 C 338.316406 81.332031 337.855469 81.464844 337.40625 81.640625 C 336.960938 81.816406 336.53125 82.03125 336.125 82.289062 C 335.71875 82.542969 335.339844 82.835938 334.988281 83.164062 L 263.25 155.082031 L 263.25 53.578125 C 263.25 53.082031 263.203125 52.589844 263.101562 52.101562 C 263.003906 51.613281 262.855469 51.140625 262.660156 50.683594 C 262.46875 50.226562 262.226562 49.792969 261.945312 49.386719 C 261.664062 48.976562 261.34375 48.601562 260.984375 48.257812 C 260.625 47.914062 260.234375 47.609375 259.8125 47.34375 C 259.394531 47.078125 258.949219 46.859375 258.484375 46.683594 C 258.019531 46.511719 257.542969 46.382812 257.050781 46.304688 C 256.5625 46.226562 256.066406 46.199219 255.570312 46.222656 C 255.089844 46.222656 254.609375 46.269531 254.136719 46.363281 C 253.664062 46.457031 253.203125 46.597656 252.757812 46.78125 C 252.3125 46.964844 251.886719 47.191406 251.484375 47.460938 C 251.085938 47.730469 250.710938 48.035156 250.371094 48.375 C 250.03125 48.71875 249.726562 49.089844 249.457031 49.492188 C 249.1875 49.890625 248.960938 50.316406 248.777344 50.761719 C 248.59375 51.207031 248.453125 51.667969 248.359375 52.140625 C 248.265625 52.617188 248.21875 53.09375 248.21875 53.578125 L 248.21875 154.917969 L 176.644531 83.164062 C 175.945312 82.480469 175.140625 81.957031 174.238281 81.589844 C 173.332031 81.222656 172.390625 81.039062 171.414062 81.039062 C 170.464844 81.042969 169.550781 81.230469 168.671875 81.597656 C 167.792969 81.964844 167.019531 82.488281 166.347656 83.164062 L 166.023438 83.488281 C 165.6875 83.828125 165.390625 84.199219 165.128906 84.597656 C 164.867188 84.996094 164.648438 85.417969 164.464844 85.859375 C 164.285156 86.300781 164.148438 86.753906 164.058594 87.222656 C 163.964844 87.6875 163.921875 88.160156 163.921875 88.636719 C 163.921875 89.113281 163.964844 89.585938 164.058594 90.054688 C 164.148438 90.523438 164.285156 90.976562 164.464844 91.417969 C 164.648438 91.859375 164.867188 92.28125 165.128906 92.679688 C 165.390625 93.078125 165.6875 93.445312 166.023438 93.785156 L 237.757812 165.542969 L 136.28125 165.542969 C 135.800781 165.542969 135.320312 165.589844 134.847656 165.683594 C 134.375 165.777344 133.914062 165.917969 133.46875 166.101562 C 133.023438 166.289062 132.597656 166.515625 132.195312 166.78125 C 131.796875 167.050781 131.425781 167.355469 131.082031 167.699219 C 130.742188 168.039062 130.4375 168.410156 130.167969 168.8125 C 129.898438 169.214844 129.671875 169.636719 129.488281 170.085938 C 129.304688 170.53125 129.164062 170.988281 129.070312 171.464844 C 128.976562 171.9375 128.929688 172.414062 128.929688 172.898438 L 128.929688 173.226562 C 128.929688 173.707031 128.976562 174.1875 129.070312 174.660156 C 129.164062 175.132812 129.304688 175.59375 129.488281 176.039062 C 129.671875 176.488281 129.898438 176.910156 130.167969 177.3125 C 130.4375 177.714844 130.742188 178.085938 131.082031 178.425781 C 131.425781 178.769531 131.796875 179.074219 132.195312 179.339844 C 132.597656 179.609375 133.023438 179.835938 133.46875 180.019531 C 133.914062 180.207031 134.375 180.34375 134.847656 180.441406 C 135.320312 180.535156 135.800781 180.582031 136.28125 180.582031 L 237.757812 180.582031 L 166.023438 252.335938 C 165.347656 253.007812 164.824219 253.78125 164.457031 254.660156 C 164.089844 255.539062 163.902344 256.453125 163.898438 257.40625 C 163.898438 258.382812 164.082031 259.320312 164.449219 260.226562 C 164.820312 261.132812 165.34375 261.933594 166.023438 262.636719 L 166.347656 262.960938 C 166.996094 263.671875 167.761719 264.210938 168.648438 264.582031 C 169.535156 264.953125 170.457031 265.121094 171.414062 265.085938 C 172.390625 265.085938 173.332031 264.902344 174.238281 264.535156 C 175.140625 264.167969 175.945312 263.644531 176.644531 262.960938 L 248.21875 191.371094 L 248.21875 292.546875 C 248.21875 293.03125 248.265625 293.507812 248.359375 293.980469 C 248.453125 294.457031 248.59375 294.914062 248.777344 295.363281 C 248.960938 295.808594 249.1875 296.230469 249.457031 296.632812 C 249.726562 297.035156 250.03125 297.40625 250.371094 297.75 C 250.710938 298.089844 251.085938 298.394531 251.484375 298.664062 C 251.886719 298.929688 252.3125 299.15625 252.757812 299.34375 C 253.203125 299.527344 253.664062 299.667969 254.136719 299.761719 C 254.609375 299.855469 255.089844 299.902344 255.570312 299.902344 L 255.898438 299.902344 C 256.378906 299.902344 256.859375 299.855469 257.332031 299.761719 C 257.804688 299.667969 258.265625 299.527344 258.710938 299.34375 C 259.15625 299.15625 259.582031 298.929688 259.984375 298.664062 C 260.382812 298.394531 260.757812 298.089844 261.097656 297.75 C 261.4375 297.40625 261.742188 297.035156 262.011719 296.632812 C 262.28125 296.230469 262.507812 295.808594 262.691406 295.363281 C 262.875 294.914062 263.015625 294.457031 263.109375 293.980469 C 263.203125 293.507812 263.25 293.03125 263.25 292.546875 L 263.25 191.207031 L 334.988281 262.960938 C 335.699219 263.628906 336.503906 264.144531 337.40625 264.511719 C 338.304688 264.878906 339.242188 265.070312 340.21875 265.085938 C 341.25 265.085938 342.238281 264.871094 343.175781 264.441406 C 344.117188 264.015625 344.929688 263.414062 345.609375 262.636719 C 346.320312 261.957031 346.863281 261.160156 347.234375 260.25 C 347.605469 259.335938 347.769531 258.386719 347.734375 257.40625 C 347.769531 256.445312 347.601562 255.523438 347.230469 254.636719 C 346.859375 253.75 346.316406 252.984375 345.609375 252.335938 L 274.035156 180.582031 L 375.1875 180.582031 C 375.683594 180.582031 376.175781 180.53125 376.664062 180.433594 C 377.148438 180.332031 377.621094 180.1875 378.078125 179.992188 C 378.535156 179.796875 378.96875 179.558594 379.375 179.273438 C 379.785156 178.992188 380.160156 178.671875 380.503906 178.3125 C 380.847656 177.953125 381.152344 177.5625 381.417969 177.144531 C 381.683594 176.722656 381.902344 176.28125 382.078125 175.8125 C 382.25 175.347656 382.378906 174.871094 382.457031 174.378906 C 382.535156 173.890625 382.5625 173.394531 382.539062 172.898438 C 382.539062 172.414062 382.492188 171.9375 382.398438 171.464844 C 382.304688 170.992188 382.164062 170.53125 381.980469 170.085938 C 381.796875 169.636719 381.570312 169.214844 381.300781 168.8125 C 381.03125 168.410156 380.726562 168.039062 380.386719 167.699219 C 380.042969 167.355469 379.671875 167.050781 379.273438 166.78125 C 378.871094 166.515625 378.445312 166.289062 378 166.101562 C 377.554688 165.917969 377.09375 165.777344 376.621094 165.683594 C 376.148438 165.589844 375.667969 165.542969 375.1875 165.542969 Z M 375.1875 165.542969 " fill-opacity="1" fill-rule="nonzero"/></g></svg>