<svg xmlns="http://www.w3.org/2000/svg" xmlns:xlink="http://www.w3.org/1999/xlink" width="1080" zoomAndPan="magnify" viewBox="0 0 810 1439.999935" height="1920" preserveAspectRatio="xMidYMid meet" version="1.0"><defs><clipPath id="d528c2f363"><path d="M 430 557.734375 L 493 557.734375 L 493 778 L 430 778 Z M 430 557.734375 " clip-rule="nonzero"/></clipPath><clipPath id="7d6aa69903"><path d="M 398 758 L 525.03125 758 L 525.03125 882.484375 L 398 882.484375 Z M 398 758 " clip-rule="nonzero"/></clipPath><clipPath id="411a5f6208"><path d="M 285.03125 561 L 405 561 L 405 681 L 285.03125 681 Z M 285.03125 561 " clip-rule="nonzero"/></clipPath></defs><g clip-path="url(#d528c2f363)"><path fill="#6b99d2" d="M 461.972656 557.984375 L 461.28125 557.984375 C 460.285156 557.984375 459.289062 558.03125 458.296875 558.128906 C 457.304688 558.226562 456.320312 558.375 455.339844 558.566406 C 454.363281 558.761719 453.398438 559.003906 452.441406 559.292969 C 451.488281 559.582031 450.550781 559.917969 449.628906 560.300781 C 448.707031 560.683594 447.808594 561.109375 446.925781 561.578125 C 446.046875 562.050781 445.195312 562.5625 444.363281 563.117188 C 443.535156 563.671875 442.734375 564.265625 441.964844 564.898438 C 441.191406 565.53125 440.457031 566.199219 439.75 566.90625 C 439.042969 567.609375 438.375 568.347656 437.742188 569.121094 C 437.109375 569.890625 436.515625 570.691406 435.960938 571.523438 C 435.410156 572.351562 434.898438 573.207031 434.425781 574.085938 C 433.957031 574.964844 433.53125 575.867188 433.148438 576.789062 C 432.765625 577.710938 432.429688 578.648438 432.140625 579.601562 C 431.851562 580.558594 431.609375 581.523438 431.414062 582.503906 C 431.222656 583.480469 431.074219 584.46875 430.976562 585.460938 C 430.878906 586.453125 430.832031 587.449219 430.832031 588.445312 L 430.832031 768.84375 C 430.820312 771.695312 431.203125 774.488281 431.984375 777.230469 C 435.5 774.730469 439.265625 772.707031 443.289062 771.152344 C 443.210938 770.382812 443.132812 769.613281 443.132812 768.84375 L 443.132812 588.445312 C 443.132812 587.851562 443.164062 587.257812 443.222656 586.667969 C 443.28125 586.074219 443.367188 585.488281 443.484375 584.90625 C 443.597656 584.320312 443.742188 583.746094 443.914062 583.175781 C 444.089844 582.605469 444.289062 582.046875 444.515625 581.5 C 444.742188 580.949219 444.996094 580.414062 445.277344 579.886719 C 445.558594 579.363281 445.863281 578.855469 446.191406 578.359375 C 446.523438 577.867188 446.875 577.386719 447.253906 576.929688 C 447.632812 576.46875 448.03125 576.027344 448.449219 575.609375 C 448.871094 575.1875 449.308594 574.789062 449.769531 574.414062 C 450.230469 574.035156 450.707031 573.679688 451.199219 573.351562 C 451.695312 573.019531 452.203125 572.714844 452.726562 572.433594 C 453.25 572.15625 453.789062 571.902344 454.335938 571.671875 C 454.886719 571.445312 455.445312 571.246094 456.015625 571.074219 C 456.582031 570.898438 457.160156 570.757812 457.742188 570.640625 C 458.324219 570.523438 458.914062 570.4375 459.503906 570.378906 C 460.09375 570.320312 460.6875 570.292969 461.28125 570.292969 L 461.972656 570.292969 C 462.570312 570.292969 463.164062 570.320312 463.757812 570.378906 C 464.347656 570.4375 464.9375 570.523438 465.519531 570.640625 C 466.105469 570.753906 466.679688 570.898438 467.25 571.070312 C 467.820312 571.246094 468.382812 571.445312 468.929688 571.671875 C 469.480469 571.898438 470.019531 572.152344 470.542969 572.433594 C 471.070312 572.710938 471.582031 573.019531 472.074219 573.347656 C 472.570312 573.679688 473.050781 574.03125 473.511719 574.40625 C 473.972656 574.785156 474.414062 575.183594 474.835938 575.605469 C 475.257812 576.023438 475.65625 576.464844 476.035156 576.921875 C 476.414062 577.382812 476.769531 577.859375 477.101562 578.355469 C 477.433594 578.847656 477.742188 579.359375 478.023438 579.882812 C 478.304688 580.40625 478.5625 580.941406 478.789062 581.492188 C 479.019531 582.042969 479.222656 582.601562 479.398438 583.171875 C 479.570312 583.738281 479.71875 584.316406 479.835938 584.898438 C 479.953125 585.484375 480.042969 586.070312 480.105469 586.664062 C 480.164062 587.257812 480.195312 587.851562 480.199219 588.445312 L 480.199219 768.84375 C 480.199219 769.621094 480.121094 770.390625 479.96875 771.152344 C 484.015625 772.660156 487.785156 774.683594 491.273438 777.230469 C 492.078125 774.492188 492.488281 771.695312 492.503906 768.84375 L 492.503906 588.445312 C 492.503906 587.445312 492.453125 586.449219 492.355469 585.457031 C 492.257812 584.460938 492.113281 583.472656 491.917969 582.492188 C 491.722656 581.511719 491.476562 580.546875 491.1875 579.589844 C 490.898438 578.632812 490.5625 577.695312 490.179688 576.769531 C 489.796875 575.847656 489.367188 574.945312 488.894531 574.066406 C 488.425781 573.183594 487.910156 572.328125 487.355469 571.496094 C 486.800781 570.667969 486.203125 569.867188 485.570312 569.09375 C 484.933594 568.324219 484.265625 567.582031 483.558594 566.878906 C 482.851562 566.171875 482.109375 565.503906 481.335938 564.871094 C 480.5625 564.238281 479.761719 563.644531 478.929688 563.089844 C 478.097656 562.535156 477.242188 562.023438 476.359375 561.554688 C 475.476562 561.085938 474.574219 560.660156 473.652344 560.277344 C 472.726562 559.898438 471.789062 559.5625 470.832031 559.277344 C 469.875 558.988281 468.90625 558.746094 467.925781 558.554688 C 466.945312 558.363281 465.957031 558.21875 464.964844 558.121094 C 463.96875 558.027344 462.972656 557.980469 461.972656 557.984375 Z M 461.972656 557.984375 " fill-opacity="1" fill-rule="nonzero"/></g><g clip-path="url(#7d6aa69903)"><path fill="#6b99d2" d="M 492.503906 763.382812 C 488.585938 761.210938 484.484375 759.464844 480.199219 758.152344 L 480.199219 768.84375 C 480.199219 769.621094 480.121094 770.390625 479.96875 771.152344 C 484.015625 772.660156 487.785156 774.683594 491.273438 777.230469 C 492 777.75 492.714844 778.285156 493.414062 778.84375 C 494.117188 779.402344 494.800781 779.976562 495.46875 780.570312 C 496.140625 781.164062 496.792969 781.773438 497.433594 782.398438 C 498.070312 783.027344 498.691406 783.671875 499.292969 784.332031 C 499.898438 784.992188 500.484375 785.667969 501.054688 786.359375 C 501.621094 787.050781 502.171875 787.753906 502.703125 788.476562 C 503.234375 789.195312 503.746094 789.929688 504.238281 790.675781 C 504.730469 791.421875 505.203125 792.179688 505.65625 792.953125 C 506.109375 793.722656 506.542969 794.507812 506.957031 795.300781 C 507.367188 796.097656 507.757812 796.902344 508.128906 797.714844 C 508.496094 798.53125 508.84375 799.355469 509.171875 800.1875 C 509.496094 801.019531 509.800781 801.863281 510.082031 802.710938 C 510.367188 803.558594 510.625 804.417969 510.863281 805.28125 C 511.101562 806.140625 511.3125 807.011719 511.503906 807.886719 C 511.695312 808.757812 511.867188 809.636719 512.011719 810.519531 C 512.15625 811.402344 512.277344 812.289062 512.375 813.179688 C 512.476562 814.070312 512.550781 814.960938 512.601562 815.851562 C 512.65625 816.746094 512.683594 817.640625 512.6875 818.535156 C 512.691406 819.429688 512.675781 820.324219 512.632812 821.21875 C 512.589844 822.113281 512.523438 823.003906 512.4375 823.894531 C 512.347656 824.785156 512.234375 825.671875 512.101562 826.558594 C 511.964844 827.441406 511.804688 828.324219 511.625 829.199219 C 511.441406 830.074219 511.238281 830.945312 511.011719 831.8125 C 510.78125 832.675781 510.53125 833.535156 510.257812 834.386719 C 509.988281 835.242188 509.691406 836.085938 509.375 836.921875 C 509.058594 837.757812 508.71875 838.585938 508.359375 839.40625 C 508 840.226562 507.617188 841.035156 507.214844 841.832031 C 506.8125 842.632812 506.386719 843.417969 505.941406 844.195312 C 505.5 844.972656 505.035156 845.738281 504.550781 846.488281 C 504.066406 847.242188 503.5625 847.980469 503.039062 848.707031 C 502.515625 849.433594 501.972656 850.144531 501.410156 850.839844 C 500.851562 851.539062 500.273438 852.21875 499.675781 852.886719 C 499.078125 853.554688 498.464844 854.203125 497.832031 854.839844 C 497.203125 855.472656 496.554688 856.089844 495.894531 856.691406 C 495.230469 857.292969 494.550781 857.875 493.855469 858.4375 C 493.164062 859.003906 492.457031 859.550781 491.734375 860.078125 C 491.011719 860.605469 490.273438 861.113281 489.523438 861.601562 C 488.777344 862.089844 488.015625 862.558594 487.242188 863.007812 C 486.46875 863.457031 485.683594 863.886719 484.886719 864.292969 C 484.089844 864.703125 483.28125 865.089844 482.464844 865.453125 C 481.648438 865.816406 480.824219 866.160156 479.988281 866.484375 C 479.152344 866.804688 478.3125 867.105469 477.460938 867.382812 C 476.609375 867.660156 475.753906 867.914062 474.890625 868.148438 C 474.027344 868.378906 473.15625 868.589844 472.28125 868.777344 C 471.40625 868.960938 470.527344 869.125 469.644531 869.265625 C 468.761719 869.40625 467.875 869.523438 466.984375 869.617188 C 466.09375 869.710938 465.203125 869.78125 464.308594 869.828125 C 463.417969 869.875 462.523438 869.898438 461.628906 869.898438 C 460.734375 869.898438 459.839844 869.875 458.945312 869.828125 C 458.054688 869.78125 457.160156 869.710938 456.273438 869.617188 C 455.382812 869.523438 454.496094 869.40625 453.613281 869.265625 C 452.730469 869.125 451.851562 868.960938 450.976562 868.777344 C 450.101562 868.589844 449.230469 868.378906 448.367188 868.148438 C 447.503906 867.914062 446.648438 867.660156 445.796875 867.382812 C 444.945312 867.105469 444.101562 866.804688 443.269531 866.484375 C 442.433594 866.160156 441.609375 865.816406 440.792969 865.453125 C 439.976562 865.089844 439.167969 864.703125 438.371094 864.292969 C 437.574219 863.886719 436.789062 863.457031 436.015625 863.007812 C 435.242188 862.558594 434.480469 862.089844 433.730469 861.601562 C 432.984375 861.113281 432.246094 860.605469 431.523438 860.078125 C 430.800781 859.550781 430.09375 859.003906 429.398438 858.4375 C 428.707031 857.875 428.027344 857.292969 427.363281 856.691406 C 426.699219 856.089844 426.054688 855.472656 425.421875 854.839844 C 424.792969 854.203125 424.179688 853.554688 423.582031 852.886719 C 422.984375 852.21875 422.40625 851.539062 421.847656 850.839844 C 421.285156 850.144531 420.742188 849.433594 420.21875 848.707031 C 419.695312 847.980469 419.191406 847.242188 418.707031 846.488281 C 418.222656 845.738281 417.757812 844.972656 417.316406 844.195312 C 416.871094 843.417969 416.445312 842.632812 416.042969 841.832031 C 415.640625 841.035156 415.257812 840.222656 414.898438 839.40625 C 414.539062 838.585938 414.199219 837.757812 413.882812 836.921875 C 413.566406 836.085938 413.269531 835.242188 412.996094 834.386719 C 412.726562 833.535156 412.476562 832.675781 412.246094 831.8125 C 412.019531 830.945312 411.816406 830.074219 411.632812 829.199219 C 411.453125 828.324219 411.292969 827.441406 411.15625 826.558594 C 411.023438 825.671875 410.910156 824.785156 410.820312 823.894531 C 410.730469 823.003906 410.667969 822.113281 410.625 821.21875 C 410.582031 820.324219 410.5625 819.429688 410.570312 818.535156 C 410.574219 817.640625 410.601562 816.746094 410.652344 815.851562 C 410.707031 814.960938 410.78125 814.070312 410.878906 813.179688 C 410.980469 812.289062 411.101562 811.402344 411.246094 810.519531 C 411.390625 809.636719 411.558594 808.757812 411.75 807.886719 C 411.941406 807.011719 412.15625 806.140625 412.394531 805.28125 C 412.632812 804.417969 412.890625 803.558594 413.171875 802.710938 C 413.457031 801.863281 413.757812 801.019531 414.085938 800.1875 C 414.414062 799.355469 414.761719 798.53125 415.128906 797.714844 C 415.5 796.898438 415.890625 796.09375 416.300781 795.300781 C 416.714844 794.507812 417.144531 793.722656 417.597656 792.953125 C 418.050781 792.179688 418.523438 791.421875 419.019531 790.675781 C 419.511719 789.929688 420.023438 789.195312 420.554688 788.476562 C 421.085938 787.753906 421.636719 787.050781 422.203125 786.359375 C 422.773438 785.667969 423.359375 784.992188 423.960938 784.332031 C 424.566406 783.671875 425.1875 783.027344 425.824219 782.398438 C 426.464844 781.773438 427.117188 781.164062 427.785156 780.570312 C 428.457031 779.976562 429.140625 779.402344 429.839844 778.84375 C 430.542969 778.285156 431.257812 777.75 431.984375 777.230469 C 435.5 774.730469 439.265625 772.707031 443.289062 771.152344 C 443.210938 770.382812 443.132812 769.613281 443.132812 768.84375 L 443.132812 758.152344 C 438.84375 759.453125 434.742188 761.195312 430.832031 763.382812 C 429.816406 763.945312 428.820312 764.539062 427.84375 765.15625 C 426.863281 765.777344 425.898438 766.421875 424.953125 767.09375 C 424.011719 767.765625 423.085938 768.460938 422.179688 769.183594 C 421.273438 769.90625 420.386719 770.652344 419.519531 771.425781 C 418.65625 772.195312 417.8125 772.992188 416.988281 773.808594 C 416.167969 774.625 415.367188 775.464844 414.59375 776.328125 C 413.816406 777.1875 413.066406 778.070312 412.335938 778.972656 C 411.609375 779.875 410.90625 780.796875 410.230469 781.738281 C 409.554688 782.679688 408.902344 783.640625 408.28125 784.617188 C 407.65625 785.59375 407.058594 786.585938 406.488281 787.597656 C 405.917969 788.605469 405.375 789.628906 404.863281 790.667969 C 404.347656 791.710938 403.863281 792.761719 403.410156 793.828125 C 402.953125 794.894531 402.527344 795.972656 402.128906 797.0625 C 401.734375 798.152344 401.367188 799.25 401.03125 800.359375 C 400.695312 801.46875 400.386719 802.585938 400.113281 803.714844 C 399.839844 804.839844 399.59375 805.972656 399.382812 807.113281 C 399.167969 808.253906 398.988281 809.398438 398.835938 810.546875 C 398.6875 811.695312 398.566406 812.851562 398.480469 814.007812 C 398.394531 815.164062 398.339844 816.320312 398.316406 817.480469 C 398.292969 818.640625 398.300781 819.796875 398.339844 820.957031 C 398.382812 822.117188 398.453125 823.273438 398.554688 824.425781 C 398.660156 825.582031 398.796875 826.734375 398.960938 827.878906 C 399.128906 829.027344 399.328125 830.167969 399.554688 831.304688 C 399.785156 832.441406 400.046875 833.574219 400.335938 834.695312 C 400.628906 835.816406 400.949219 836.929688 401.304688 838.035156 C 401.65625 839.140625 402.039062 840.234375 402.449219 841.316406 C 402.863281 842.402344 403.304688 843.472656 403.777344 844.53125 C 404.246094 845.589844 404.746094 846.636719 405.277344 847.667969 C 405.804688 848.699219 406.363281 849.71875 406.945312 850.71875 C 407.53125 851.71875 408.140625 852.703125 408.78125 853.671875 C 409.417969 854.640625 410.082031 855.589844 410.773438 856.519531 C 411.464844 857.453125 412.179688 858.363281 412.917969 859.253906 C 413.660156 860.148438 414.425781 861.019531 415.210938 861.867188 C 416 862.71875 416.8125 863.546875 417.644531 864.351562 C 418.480469 865.15625 419.335938 865.941406 420.210938 866.699219 C 421.085938 867.457031 421.984375 868.191406 422.902344 868.898438 C 423.816406 869.609375 424.753906 870.292969 425.707031 870.953125 C 426.660156 871.609375 427.632812 872.242188 428.621094 872.84375 C 429.609375 873.449219 430.617188 874.027344 431.636719 874.578125 C 432.65625 875.125 433.691406 875.648438 434.742188 876.140625 C 435.789062 876.632812 436.851562 877.097656 437.925781 877.53125 C 439 877.964844 440.085938 878.371094 441.183594 878.746094 C 442.28125 879.121094 443.386719 879.464844 444.503906 879.777344 C 445.617188 880.09375 446.742188 880.375 447.875 880.628906 C 449.003906 880.878906 450.140625 881.101562 451.285156 881.292969 C 452.429688 881.480469 453.578125 881.640625 454.726562 881.765625 C 455.878906 881.894531 457.035156 881.988281 458.191406 882.050781 C 459.351562 882.117188 460.507812 882.148438 461.667969 882.148438 C 462.824219 882.148438 463.984375 882.117188 465.140625 882.050781 C 466.300781 881.988281 467.453125 881.894531 468.605469 881.765625 C 469.757812 881.640625 470.90625 881.480469 472.046875 881.292969 C 473.191406 881.101562 474.328125 880.878906 475.460938 880.628906 C 476.59375 880.375 477.714844 880.09375 478.832031 879.777344 C 479.945312 879.464844 481.054688 879.121094 482.148438 878.746094 C 483.246094 878.371094 484.332031 877.964844 485.40625 877.53125 C 486.480469 877.097656 487.542969 876.632812 488.59375 876.140625 C 489.640625 875.648438 490.675781 875.125 491.699219 874.578125 C 492.71875 874.027344 493.722656 873.449219 494.710938 872.84375 C 495.699219 872.242188 496.671875 871.609375 497.625 870.953125 C 498.582031 870.292969 499.515625 869.609375 500.433594 868.898438 C 501.351562 868.191406 502.246094 867.457031 503.125 866.699219 C 504 865.941406 504.855469 865.15625 505.6875 864.351562 C 506.523438 863.546875 507.332031 862.71875 508.121094 861.867188 C 508.910156 861.019531 509.675781 860.148438 510.414062 859.253906 C 511.15625 858.363281 511.871094 857.453125 512.5625 856.519531 C 513.25 855.589844 513.914062 854.640625 514.554688 853.671875 C 515.191406 852.703125 515.804688 851.71875 516.386719 850.71875 C 516.972656 849.714844 517.527344 848.699219 518.058594 847.667969 C 518.585938 846.636719 519.085938 845.589844 519.558594 844.53125 C 520.027344 843.472656 520.46875 842.402344 520.882812 841.316406 C 521.296875 840.234375 521.679688 839.140625 522.03125 838.035156 C 522.382812 836.929688 522.703125 835.816406 522.996094 834.695312 C 523.289062 833.574219 523.546875 832.441406 523.777344 831.304688 C 524.007812 830.167969 524.203125 829.027344 524.371094 827.878906 C 524.539062 826.734375 524.675781 825.582031 524.777344 824.425781 C 524.882812 823.273438 524.953125 822.117188 524.992188 820.957031 C 525.035156 819.796875 525.042969 818.636719 525.019531 817.480469 C 524.996094 816.320312 524.941406 815.164062 524.851562 814.007812 C 524.765625 812.851562 524.648438 811.695312 524.496094 810.546875 C 524.347656 809.398438 524.164062 808.253906 523.953125 807.113281 C 523.738281 805.972656 523.496094 804.839844 523.222656 803.714844 C 522.945312 802.585938 522.640625 801.46875 522.304688 800.359375 C 521.96875 799.25 521.601562 798.152344 521.203125 797.0625 C 520.808594 795.972656 520.378906 794.894531 519.925781 793.828125 C 519.46875 792.761719 518.984375 791.710938 518.472656 790.667969 C 517.957031 789.628906 517.414062 788.605469 516.847656 787.597656 C 516.277344 786.585938 515.679688 785.59375 515.054688 784.617188 C 514.429688 783.640625 513.78125 782.679688 513.101562 781.738281 C 512.425781 780.796875 511.722656 779.875 510.996094 778.972656 C 510.269531 778.070312 509.515625 777.1875 508.742188 776.328125 C 507.964844 775.464844 507.167969 774.625 506.34375 773.808594 C 505.523438 772.992188 504.679688 772.195312 503.8125 771.425781 C 502.949219 770.652344 502.0625 769.90625 501.15625 769.183594 C 500.25 768.460938 499.324219 767.765625 498.378906 767.09375 C 497.433594 766.421875 496.472656 765.777344 495.492188 765.15625 C 494.511719 764.539062 493.515625 763.945312 492.503906 763.382812 Z M 492.503906 763.382812 " fill-opacity="1" fill-rule="nonzero"/></g><path fill="#ffb544" d="M 512.726562 818.847656 C 512.726562 820.390625 512.65625 821.929688 512.515625 823.464844 C 512.375 825 512.164062 826.523438 511.886719 828.039062 C 511.609375 829.558594 511.261719 831.058594 510.847656 832.542969 C 510.433594 834.027344 509.953125 835.492188 509.40625 836.933594 C 508.859375 838.375 508.246094 839.789062 507.574219 841.175781 C 506.898438 842.558594 506.164062 843.914062 505.363281 845.234375 C 504.566406 846.550781 503.710938 847.832031 502.800781 849.074219 C 501.886719 850.316406 500.917969 851.515625 499.898438 852.667969 C 498.875 853.824219 497.804688 854.929688 496.683594 855.988281 C 495.558594 857.042969 494.394531 858.046875 493.179688 859 C 491.96875 859.953125 490.714844 860.847656 489.421875 861.683594 C 488.128906 862.523438 486.800781 863.300781 485.433594 864.019531 C 484.070312 864.734375 482.675781 865.390625 481.253906 865.980469 C 479.832031 866.574219 478.382812 867.097656 476.914062 867.558594 C 475.441406 868.019531 473.953125 868.414062 472.445312 868.738281 C 470.941406 869.0625 469.421875 869.320312 467.890625 869.507812 C 466.363281 869.695312 464.828125 869.816406 463.289062 869.863281 C 461.746094 869.914062 460.207031 869.890625 458.667969 869.800781 C 457.128906 869.710938 455.597656 869.550781 454.074219 869.320312 C 452.550781 869.09375 451.039062 868.792969 449.542969 868.429688 C 448.046875 868.0625 446.570312 867.628906 445.109375 867.128906 C 443.652344 866.628906 442.21875 866.066406 440.8125 865.433594 C 439.40625 864.804688 438.03125 864.113281 436.6875 863.359375 C 435.34375 862.605469 434.035156 861.792969 432.765625 860.917969 C 431.496094 860.046875 430.265625 859.117188 429.078125 858.132812 C 427.894531 857.148438 426.753906 856.113281 425.660156 855.027344 C 424.566406 853.941406 423.527344 852.804688 422.535156 851.625 C 421.546875 850.441406 420.613281 849.21875 419.734375 847.953125 C 418.851562 846.6875 418.03125 845.382812 417.273438 844.042969 C 416.511719 842.703125 415.8125 841.328125 415.175781 839.925781 C 414.535156 838.523438 413.964844 837.09375 413.457031 835.636719 C 412.949219 834.179688 412.507812 832.703125 412.132812 831.210938 C 411.761719 829.714844 411.453125 828.203125 411.214844 826.679688 C 410.980469 825.15625 410.8125 823.625 410.710938 822.089844 C 410.613281 820.550781 410.582031 819.007812 410.625 817.46875 C 410.664062 815.925781 410.773438 814.390625 410.953125 812.859375 C 411.132812 811.328125 411.382812 809.808594 411.699219 808.300781 C 412.015625 806.789062 412.402344 805.300781 412.851562 803.824219 C 413.304688 802.351562 413.824219 800.902344 414.40625 799.472656 C 414.988281 798.046875 415.636719 796.648438 416.34375 795.28125 C 417.054688 793.910156 417.824219 792.578125 418.65625 791.28125 C 419.488281 789.980469 420.375 788.722656 421.320312 787.503906 C 422.261719 786.285156 423.261719 785.113281 424.3125 783.984375 C 425.363281 782.855469 426.460938 781.777344 427.609375 780.75 C 428.757812 779.722656 429.949219 778.746094 431.1875 777.828125 C 432.425781 776.90625 433.699219 776.042969 435.015625 775.238281 C 436.328125 774.433594 437.675781 773.691406 439.058594 773.007812 C 440.441406 772.324219 441.851562 771.707031 443.289062 771.152344 C 443.210938 770.382812 443.132812 769.613281 443.132812 768.84375 L 443.132812 588.445312 C 443.132812 587.851562 443.164062 587.257812 443.222656 586.667969 C 443.28125 586.074219 443.367188 585.488281 443.484375 584.90625 C 443.597656 584.320312 443.742188 583.746094 443.914062 583.175781 C 444.089844 582.605469 444.289062 582.046875 444.515625 581.5 C 444.742188 580.949219 444.996094 580.414062 445.277344 579.886719 C 445.558594 579.363281 445.863281 578.855469 446.191406 578.359375 C 446.523438 577.867188 446.875 577.386719 447.253906 576.929688 C 447.632812 576.46875 448.03125 576.027344 448.449219 575.609375 C 448.871094 575.1875 449.308594 574.789062 449.769531 574.414062 C 450.230469 574.035156 450.707031 573.679688 451.199219 573.351562 C 451.695312 573.019531 452.203125 572.714844 452.726562 572.433594 C 453.25 572.15625 453.789062 571.902344 454.335938 571.671875 C 454.886719 571.445312 455.445312 571.246094 456.015625 571.074219 C 456.582031 570.898438 457.160156 570.757812 457.742188 570.640625 C 458.324219 570.523438 458.914062 570.4375 459.503906 570.378906 C 460.09375 570.320312 460.6875 570.292969 461.28125 570.292969 L 461.972656 570.292969 C 462.570312 570.292969 463.164062 570.320312 463.757812 570.378906 C 464.347656 570.4375 464.9375 570.523438 465.519531 570.640625 C 466.105469 570.753906 466.679688 570.898438 467.25 571.070312 C 467.820312 571.246094 468.382812 571.445312 468.929688 571.671875 C 469.480469 571.898438 470.019531 572.152344 470.542969 572.433594 C 471.070312 572.710938 471.582031 573.019531 472.074219 573.347656 C 472.570312 573.679688 473.050781 574.03125 473.511719 574.40625 C 473.972656 574.785156 474.414062 575.183594 474.835938 575.605469 C 475.257812 576.023438 475.65625 576.464844 476.035156 576.921875 C 476.414062 577.382812 476.769531 577.859375 477.101562 578.355469 C 477.433594 578.847656 477.742188 579.359375 478.023438 579.882812 C 478.304688 580.40625 478.5625 580.941406 478.789062 581.492188 C 479.019531 582.042969 479.222656 582.601562 479.398438 583.171875 C 479.570312 583.738281 479.71875 584.316406 479.835938 584.898438 C 479.953125 585.484375 480.042969 586.070312 480.105469 586.664062 C 480.164062 587.257812 480.195312 587.851562 480.199219 588.445312 L 480.199219 768.84375 C 480.199219 769.621094 480.121094 770.390625 479.96875 771.152344 C 484.015625 772.660156 487.785156 774.683594 491.273438 777.230469 C 492.929688 778.402344 494.507812 779.671875 496.011719 781.035156 C 497.511719 782.398438 498.929688 783.847656 500.261719 785.378906 C 501.589844 786.910156 502.824219 788.519531 503.964844 790.199219 C 505.101562 791.878906 506.136719 793.621094 507.066406 795.425781 C 507.996094 797.230469 508.816406 799.082031 509.523438 800.984375 C 510.230469 802.886719 510.824219 804.824219 511.300781 806.796875 C 511.777344 808.769531 512.136719 810.765625 512.375 812.78125 C 512.613281 814.796875 512.730469 816.816406 512.726562 818.847656 Z M 512.726562 818.847656 " fill-opacity="1" fill-rule="nonzero"/><path fill="#26477a" d="M 507.035156 818.617188 C 507.035156 820.097656 506.964844 821.570312 506.820312 823.042969 C 506.675781 824.515625 506.457031 825.976562 506.167969 827.425781 C 505.882812 828.878906 505.523438 830.308594 505.09375 831.726562 C 504.664062 833.140625 504.167969 834.53125 503.601562 835.898438 C 503.035156 837.265625 502.402344 838.597656 501.707031 839.902344 C 501.011719 841.207031 500.25 842.476562 499.429688 843.703125 C 498.609375 844.933594 497.730469 846.121094 496.789062 847.265625 C 495.851562 848.40625 494.863281 849.5 493.816406 850.546875 C 492.769531 851.59375 491.675781 852.585938 490.535156 853.523438 C 489.390625 854.460938 488.203125 855.34375 486.976562 856.164062 C 485.746094 856.984375 484.480469 857.746094 483.175781 858.441406 C 481.871094 859.140625 480.539062 859.769531 479.171875 860.335938 C 477.804688 860.902344 476.414062 861.398438 475 861.828125 C 473.585938 862.257812 472.152344 862.617188 470.703125 862.90625 C 469.253906 863.195312 467.792969 863.410156 466.320312 863.554688 C 464.851562 863.703125 463.375 863.773438 461.898438 863.773438 C 460.417969 863.773438 458.945312 863.703125 457.472656 863.554688 C 456.003906 863.410156 454.542969 863.195312 453.089844 862.90625 C 451.640625 862.617188 450.210938 862.257812 448.792969 861.828125 C 447.378906 861.398438 445.988281 860.902344 444.625 860.335938 C 443.257812 859.769531 441.921875 859.140625 440.617188 858.441406 C 439.316406 857.746094 438.046875 856.984375 436.820312 856.164062 C 435.589844 855.34375 434.40625 854.460938 433.261719 853.523438 C 432.117188 852.585938 431.023438 851.59375 429.980469 850.546875 C 428.933594 849.5 427.941406 848.40625 427.003906 847.265625 C 426.066406 846.121094 425.1875 844.933594 424.367188 843.703125 C 423.542969 842.476562 422.785156 841.207031 422.089844 839.902344 C 421.390625 838.597656 420.761719 837.265625 420.195312 835.898438 C 419.628906 834.53125 419.132812 833.140625 418.703125 831.726562 C 418.273438 830.308594 417.914062 828.878906 417.625 827.425781 C 417.335938 825.976562 417.121094 824.515625 416.976562 823.042969 C 416.832031 821.570312 416.757812 820.097656 416.757812 818.617188 C 416.757812 817.136719 416.832031 815.664062 416.976562 814.191406 C 417.121094 812.71875 417.335938 811.257812 417.625 809.808594 C 417.914062 808.355469 418.273438 806.921875 418.703125 805.507812 C 419.132812 804.09375 419.628906 802.703125 420.195312 801.335938 C 420.761719 799.96875 421.390625 798.632812 422.089844 797.328125 C 422.785156 796.027344 423.542969 794.757812 424.367188 793.527344 C 425.1875 792.300781 426.066406 791.113281 427.003906 789.96875 C 427.941406 788.824219 428.933594 787.730469 429.980469 786.6875 C 431.023438 785.640625 432.117188 784.648438 433.261719 783.710938 C 434.40625 782.773438 435.589844 781.890625 436.820312 781.070312 C 438.046875 780.25 439.316406 779.488281 440.617188 778.792969 C 441.921875 778.09375 443.257812 777.464844 444.625 776.898438 C 445.988281 776.332031 447.378906 775.832031 448.792969 775.402344 C 450.210938 774.976562 451.640625 774.617188 453.089844 774.328125 C 454.542969 774.039062 456.003906 773.820312 457.472656 773.675781 C 458.945312 773.53125 460.417969 773.460938 461.898438 773.460938 C 463.375 773.460938 464.851562 773.53125 466.320312 773.675781 C 467.792969 773.820312 469.253906 774.039062 470.703125 774.328125 C 472.152344 774.617188 473.585938 774.976562 475 775.402344 C 476.414062 775.832031 477.804688 776.332031 479.171875 776.898438 C 480.539062 777.464844 481.871094 778.09375 483.175781 778.792969 C 484.480469 779.488281 485.746094 780.25 486.976562 781.070312 C 488.203125 781.890625 489.390625 782.773438 490.535156 783.710938 C 491.675781 784.648438 492.769531 785.640625 493.816406 786.6875 C 494.863281 787.730469 495.851562 788.824219 496.789062 789.96875 C 497.730469 791.113281 498.609375 792.300781 499.429688 793.527344 C 500.25 794.757812 501.011719 796.027344 501.707031 797.328125 C 502.402344 798.632812 503.035156 799.96875 503.601562 801.335938 C 504.167969 802.703125 504.664062 804.09375 505.09375 805.507812 C 505.523438 806.921875 505.882812 808.355469 506.167969 809.808594 C 506.457031 811.257812 506.675781 812.71875 506.820312 814.191406 C 506.964844 815.664062 507.035156 817.136719 507.035156 818.617188 Z M 507.035156 818.617188 " fill-opacity="1" fill-rule="nonzero"/><path fill="#26477a" d="M 448.363281 720.148438 L 475.199219 720.148438 L 475.199219 781.507812 L 448.363281 781.507812 Z M 448.363281 720.148438 " fill-opacity="1" fill-rule="nonzero"/><g clip-path="url(#411a5f6208)"><path fill="#6b99d2" d="M 400.917969 617.292969 L 353.316406 617.292969 L 387 583.523438 C 387.335938 583.191406 387.589844 582.808594 387.769531 582.371094 C 387.949219 581.933594 388.035156 581.476562 388.027344 581.007812 C 388.019531 580.535156 387.921875 580.082031 387.726562 579.652344 C 387.535156 579.21875 387.265625 578.84375 386.921875 578.523438 C 386.585938 578.210938 386.207031 577.972656 385.78125 577.804688 C 385.359375 577.636719 384.917969 577.554688 384.460938 577.554688 C 384.003906 577.554688 383.5625 577.636719 383.140625 577.804688 C 382.714844 577.972656 382.335938 578.210938 382 578.523438 L 348.242188 612.371094 L 348.242188 564.597656 C 348.242188 564.125 348.148438 563.671875 347.964844 563.238281 C 347.777344 562.800781 347.515625 562.421875 347.175781 562.09375 C 346.832031 561.765625 346.441406 561.519531 346 561.355469 C 345.558594 561.1875 345.101562 561.117188 344.628906 561.136719 C 344.167969 561.136719 343.726562 561.222656 343.304688 561.398438 C 342.878906 561.574219 342.503906 561.824219 342.179688 562.152344 C 341.855469 562.476562 341.605469 562.847656 341.429688 563.273438 C 341.253906 563.699219 341.167969 564.140625 341.167969 564.597656 L 341.167969 612.292969 L 307.484375 578.523438 C 306.800781 577.855469 305.980469 577.523438 305.023438 577.523438 C 304.09375 577.527344 303.296875 577.859375 302.640625 578.523438 L 302.488281 578.675781 C 302.171875 579 301.925781 579.371094 301.753906 579.789062 C 301.582031 580.210938 301.5 580.648438 301.5 581.097656 C 301.5 581.550781 301.582031 581.988281 301.753906 582.410156 C 301.925781 582.828125 302.171875 583.199219 302.488281 583.523438 L 336.246094 617.292969 L 288.492188 617.292969 C 288.03125 617.292969 287.589844 617.382812 287.167969 617.558594 C 286.742188 617.734375 286.371094 617.984375 286.042969 618.308594 C 285.71875 618.632812 285.46875 619.007812 285.292969 619.429688 C 285.121094 619.855469 285.03125 620.296875 285.03125 620.757812 L 285.03125 620.910156 C 285.03125 621.371094 285.117188 621.8125 285.292969 622.234375 C 285.46875 622.660156 285.71875 623.035156 286.042969 623.359375 C 286.371094 623.683594 286.742188 623.933594 287.167969 624.109375 C 287.589844 624.285156 288.03125 624.371094 288.492188 624.371094 L 336.246094 624.371094 L 302.488281 658.144531 C 301.824219 658.800781 301.492188 659.59375 301.488281 660.527344 C 301.488281 661.484375 301.820312 662.304688 302.488281 662.988281 L 302.640625 663.144531 C 303.28125 663.84375 304.074219 664.179688 305.023438 664.144531 C 305.980469 664.144531 306.800781 663.808594 307.484375 663.144531 L 341.167969 629.449219 L 341.167969 677.066406 C 341.167969 677.527344 341.253906 677.96875 341.429688 678.394531 C 341.605469 678.816406 341.855469 679.191406 342.179688 679.515625 C 342.503906 679.839844 342.878906 680.089844 343.304688 680.265625 C 343.726562 680.441406 344.167969 680.53125 344.628906 680.53125 L 344.78125 680.53125 C 345.242188 680.53125 345.683594 680.441406 346.105469 680.265625 C 346.53125 680.089844 346.902344 679.839844 347.226562 679.515625 C 347.554688 679.191406 347.804688 678.816406 347.976562 678.394531 C 348.152344 677.96875 348.242188 677.527344 348.242188 677.066406 L 348.242188 629.371094 L 382 663.144531 C 382.691406 663.792969 383.511719 664.128906 384.460938 664.144531 C 385.480469 664.140625 386.328125 663.757812 387 662.988281 C 387.703125 662.320312 388.035156 661.5 388 660.527344 C 388.03125 659.578125 387.699219 658.785156 387 658.144531 L 353.316406 624.371094 L 400.917969 624.371094 C 401.390625 624.371094 401.84375 624.28125 402.277344 624.09375 C 402.710938 623.910156 403.09375 623.644531 403.421875 623.304688 C 403.746094 622.960938 403.992188 622.570312 404.160156 622.128906 C 404.324219 621.6875 404.398438 621.226562 404.378906 620.757812 C 404.378906 620.296875 404.289062 619.855469 404.113281 619.429688 C 403.9375 619.007812 403.6875 618.632812 403.363281 618.308594 C 403.039062 617.984375 402.664062 617.734375 402.242188 617.558594 C 401.816406 617.382812 401.375 617.292969 400.917969 617.292969 Z M 400.917969 617.292969 " fill-opacity="1" fill-rule="nonzero"/></g></svg>