<svg xmlns="http://www.w3.org/2000/svg" xmlns:xlink="http://www.w3.org/1999/xlink" width="1024" zoomAndPan="magnify" viewBox="0 0 768 767.999994" height="1024" preserveAspectRatio="xMidYMid meet" version="1.0"><defs><clipPath id="bed2a15afb"><path d="M 354 56.210938 L 363 56.210938 L 363 194 L 354 194 Z M 354 56.210938 " clip-rule="nonzero"/></clipPath><clipPath id="1f9412b8fb"><path d="M 332 56.210938 L 385 56.210938 L 385 216 L 332 216 Z M 332 56.210938 " clip-rule="nonzero"/></clipPath><clipPath id="23eb42bcd7"><path d="M 39 342 L 199 342 L 199 395 L 39 395 Z M 39 342 " clip-rule="nonzero"/></clipPath><clipPath id="1257e47f16"><path d="M 161 374 L 729 374 L 729 711.710938 L 161 711.710938 Z M 161 374 " clip-rule="nonzero"/></clipPath></defs><path fill="#ffb544" d="M 510.378906 363.957031 C 510.371094 366.429688 510.308594 368.902344 510.179688 371.371094 C 510.054688 373.84375 509.867188 376.308594 509.621094 378.769531 C 509.371094 381.230469 509.066406 383.683594 508.695312 386.132812 C 508.328125 388.578125 507.902344 391.015625 507.414062 393.4375 C 506.925781 395.863281 506.378906 398.277344 505.773438 400.675781 C 505.167969 403.074219 504.503906 405.457031 503.78125 407.824219 C 503.0625 410.1875 502.28125 412.535156 501.441406 414.863281 C 500.605469 417.191406 499.710938 419.496094 498.761719 421.78125 C 497.808594 424.0625 496.804688 426.324219 495.742188 428.558594 C 494.679688 430.792969 493.566406 433 492.394531 435.179688 C 491.226562 437.359375 490.003906 439.507812 488.726562 441.628906 C 487.453125 443.75 486.125 445.835938 484.746094 447.890625 C 483.371094 449.945312 481.941406 451.964844 480.464844 453.949219 C 478.988281 455.933594 477.464844 457.882812 475.890625 459.792969 C 474.320312 461.703125 472.699219 463.574219 471.035156 465.402344 C 469.371094 467.234375 467.664062 469.023438 465.914062 470.769531 C 464.160156 472.515625 462.367188 474.21875 460.53125 475.878906 C 458.695312 477.539062 456.820312 479.152344 454.90625 480.71875 C 452.992188 482.285156 451.039062 483.804688 449.050781 485.273438 C 447.0625 486.746094 445.039062 488.167969 442.980469 489.539062 C 440.921875 490.910156 438.828125 492.230469 436.707031 493.5 C 434.582031 494.769531 432.429688 495.988281 430.246094 497.152344 C 428.0625 498.316406 425.851562 499.425781 423.613281 500.480469 C 421.375 501.535156 419.113281 502.535156 416.828125 503.480469 C 414.539062 504.421875 412.230469 505.3125 409.902344 506.140625 C 407.570312 506.972656 405.222656 507.746094 402.855469 508.460938 C 400.484375 509.179688 398.101562 509.835938 395.699219 510.433594 C 393.300781 511.035156 390.886719 511.574219 388.460938 512.054688 C 386.03125 512.535156 383.59375 512.957031 381.148438 513.316406 C 378.699219 513.675781 376.246094 513.976562 373.78125 514.21875 C 371.320312 514.460938 368.855469 514.640625 366.382812 514.757812 C 363.910156 514.878906 361.4375 514.9375 358.964844 514.933594 C 356.488281 514.933594 354.019531 514.871094 351.546875 514.75 C 349.074219 514.625 346.609375 514.441406 344.148438 514.199219 C 341.683594 513.953125 339.230469 513.648438 336.78125 513.285156 C 334.335938 512.921875 331.898438 512.496094 329.472656 512.011719 C 327.046875 511.527344 324.632812 510.984375 322.234375 510.382812 C 319.835938 509.78125 317.449219 509.121094 315.082031 508.402344 C 312.714844 507.683594 310.367188 506.90625 308.039062 506.070312 C 305.710938 505.238281 303.402344 504.347656 301.117188 503.398438 C 298.832031 502.453125 296.570312 501.449219 294.335938 500.390625 C 292.097656 499.332031 289.890625 498.21875 287.707031 497.050781 C 285.527344 495.886719 283.375 494.667969 281.253906 493.394531 C 279.128906 492.121094 277.039062 490.796875 274.984375 489.421875 C 272.925781 488.046875 270.90625 486.625 268.917969 485.152344 C 266.929688 483.675781 264.980469 482.15625 263.070312 480.585938 C 261.15625 479.015625 259.285156 477.398438 257.449219 475.738281 C 255.617188 474.078125 253.824219 472.371094 252.078125 470.621094 C 250.328125 468.875 248.621094 467.082031 246.960938 465.25 C 245.296875 463.417969 243.683594 461.542969 242.113281 459.632812 C 240.542969 457.71875 239.019531 455.769531 237.546875 453.785156 C 236.074219 451.796875 234.648438 449.773438 233.273438 447.71875 C 231.898438 445.660156 230.574219 443.570312 229.304688 441.449219 C 228.03125 439.328125 226.8125 437.175781 225.644531 434.996094 C 224.476562 432.816406 223.363281 430.605469 222.304688 428.371094 C 221.246094 426.132812 220.246094 423.875 219.296875 421.589844 C 218.347656 419.300781 217.457031 416.996094 216.625 414.667969 C 215.789062 412.335938 215.011719 409.988281 214.292969 407.621094 C 213.574219 405.253906 212.914062 402.871094 212.3125 400.472656 C 211.707031 398.074219 211.164062 395.660156 210.683594 393.234375 C 210.199219 390.808594 209.773438 388.371094 209.410156 385.925781 C 209.042969 383.480469 208.742188 381.023438 208.496094 378.5625 C 208.253906 376.101562 208.070312 373.632812 207.945312 371.164062 C 207.824219 368.691406 207.761719 366.21875 207.757812 363.746094 C 207.757812 361.273438 207.816406 358.800781 207.9375 356.328125 C 208.054688 353.859375 208.234375 351.390625 208.476562 348.929688 C 208.71875 346.46875 209.019531 344.011719 209.378906 341.566406 C 209.738281 339.117188 210.160156 336.679688 210.640625 334.253906 C 211.121094 331.828125 211.660156 329.414062 212.261719 327.015625 C 212.859375 324.613281 213.515625 322.230469 214.234375 319.863281 C 214.949219 317.492188 215.722656 315.144531 216.554688 312.8125 C 217.386719 310.484375 218.273438 308.175781 219.21875 305.890625 C 220.160156 303.601562 221.160156 301.339844 222.21875 299.101562 C 223.273438 296.867188 224.382812 294.65625 225.546875 292.472656 C 226.710938 290.289062 227.925781 288.136719 229.195312 286.011719 C 230.464844 283.890625 231.785156 281.796875 233.15625 279.738281 C 234.53125 277.679688 235.953125 275.65625 237.421875 273.667969 C 238.894531 271.679688 240.414062 269.726562 241.980469 267.8125 C 243.546875 265.898438 245.160156 264.023438 246.820312 262.191406 C 248.480469 260.355469 250.183594 258.5625 251.929688 256.808594 C 253.675781 255.058594 255.464844 253.351562 257.296875 251.6875 C 259.125 250.023438 260.996094 248.402344 262.90625 246.832031 C 264.816406 245.257812 266.765625 243.734375 268.75 242.257812 C 270.734375 240.78125 272.753906 239.355469 274.808594 237.976562 C 276.867188 236.597656 278.953125 235.273438 281.074219 233.996094 C 283.191406 232.722656 285.34375 231.5 287.523438 230.332031 C 289.703125 229.160156 291.910156 228.046875 294.144531 226.984375 C 296.378906 225.921875 298.640625 224.917969 300.925781 223.964844 C 303.207031 223.015625 305.515625 222.121094 307.84375 221.285156 C 310.171875 220.445312 312.515625 219.664062 314.882812 218.941406 C 317.25 218.222656 319.632812 217.558594 322.03125 216.953125 C 324.429688 216.347656 326.84375 215.800781 329.269531 215.3125 C 331.695312 214.824219 334.128906 214.398438 336.578125 214.03125 C 339.023438 213.660156 341.476562 213.355469 343.9375 213.105469 C 346.402344 212.859375 348.867188 212.671875 351.339844 212.546875 C 353.808594 212.421875 356.28125 212.355469 358.753906 212.347656 C 361.242188 212.335938 363.722656 212.386719 366.207031 212.496094 C 368.6875 212.605469 371.167969 212.777344 373.640625 213.007812 C 376.117188 213.238281 378.582031 213.535156 381.042969 213.886719 C 383.5 214.242188 385.949219 214.65625 388.390625 215.132812 C 390.828125 215.605469 393.253906 216.140625 395.667969 216.738281 C 398.082031 217.332031 400.476562 217.988281 402.855469 218.699219 C 405.238281 219.414062 407.597656 220.1875 409.941406 221.015625 C 412.28125 221.847656 414.601562 222.734375 416.902344 223.679688 C 419.199219 224.625 421.472656 225.625 423.722656 226.683594 C 425.96875 227.738281 428.191406 228.851562 430.386719 230.019531 C 432.578125 231.183594 434.742188 232.40625 436.875 233.679688 C 439.011719 234.953125 441.109375 236.28125 443.179688 237.65625 C 445.246094 239.035156 447.28125 240.460938 449.277344 241.941406 C 451.273438 243.417969 453.234375 244.945312 455.15625 246.519531 C 457.078125 248.097656 458.960938 249.71875 460.800781 251.386719 C 462.644531 253.054688 464.441406 254.765625 466.199219 256.523438 C 467.957031 258.28125 469.667969 260.078125 471.335938 261.921875 C 473.003906 263.761719 474.628906 265.644531 476.203125 267.566406 C 477.777344 269.488281 479.304688 271.445312 480.78125 273.445312 C 482.261719 275.441406 483.691406 277.472656 485.066406 279.542969 C 486.445312 281.609375 487.769531 283.710938 489.046875 285.84375 C 490.320312 287.976562 491.539062 290.140625 492.707031 292.332031 C 493.875 294.527344 494.988281 296.746094 496.042969 298.996094 C 497.101562 301.246094 498.101562 303.519531 499.046875 305.816406 C 499.992188 308.113281 500.878906 310.433594 501.710938 312.777344 C 502.539062 315.117188 503.3125 317.476562 504.027344 319.859375 C 504.738281 322.238281 505.394531 324.632812 505.988281 327.046875 C 506.585938 329.460938 507.121094 331.886719 507.59375 334.324219 C 508.070312 336.761719 508.484375 339.210938 508.839844 341.671875 C 509.195312 344.128906 509.488281 346.597656 509.71875 349.070312 C 509.953125 351.542969 510.121094 354.023438 510.230469 356.503906 C 510.34375 358.988281 510.390625 361.46875 510.378906 363.957031 Z M 510.378906 363.957031 " fill-opacity="1" fill-rule="nonzero"/><g clip-path="url(#bed2a15afb)"><path fill="#ffae46" d="M 356.253906 56.992188 L 361.257812 56.992188 C 361.441406 56.992188 361.621094 57.027344 361.796875 57.097656 C 361.96875 57.171875 362.121094 57.273438 362.25 57.40625 C 362.382812 57.535156 362.484375 57.6875 362.554688 57.859375 C 362.628906 58.03125 362.664062 58.210938 362.664062 58.398438 L 362.664062 191.625 C 362.664062 191.8125 362.628906 191.992188 362.554688 192.164062 C 362.484375 192.335938 362.382812 192.488281 362.25 192.621094 C 362.121094 192.75 361.96875 192.851562 361.796875 192.925781 C 361.621094 192.996094 361.441406 193.03125 361.257812 193.03125 L 356.253906 193.03125 C 356.066406 193.03125 355.886719 192.996094 355.714844 192.925781 C 355.542969 192.851562 355.390625 192.75 355.261719 192.621094 C 355.128906 192.488281 355.027344 192.335938 354.953125 192.164062 C 354.882812 191.992188 354.847656 191.8125 354.847656 191.625 L 354.847656 58.398438 C 354.847656 58.210938 354.882812 58.03125 354.953125 57.859375 C 355.027344 57.6875 355.128906 57.535156 355.261719 57.40625 C 355.390625 57.273438 355.542969 57.171875 355.714844 57.097656 C 355.886719 57.027344 356.066406 56.992188 356.253906 56.992188 Z M 356.253906 56.992188 " fill-opacity="1" fill-rule="nonzero"/></g><g clip-path="url(#1f9412b8fb)"><path stroke-linecap="butt" transform="matrix(1.563115, 0, 0, 1.562947, 39.255041, 56.210876)" fill="none" stroke-linejoin="miter" d="M 202.799495 0.499897 L 206.000736 0.499897 C 206.118189 0.499897 206.233144 0.52239 206.3456 0.567377 C 206.455557 0.614864 206.553018 0.679845 206.635486 0.764821 C 206.720452 0.847297 206.785427 0.944769 206.830409 1.054738 C 206.877891 1.164706 206.900382 1.279673 206.900382 1.399639 L 206.900382 86.640247 C 206.900382 86.760212 206.877891 86.87518 206.830409 86.985148 C 206.785427 87.095117 206.720452 87.192589 206.635486 87.277564 C 206.553018 87.360041 206.455557 87.425022 206.3456 87.472509 C 206.233144 87.517496 206.118189 87.539989 206.000736 87.539989 L 202.799495 87.539989 C 202.679542 87.539989 202.564587 87.517496 202.454631 87.472509 C 202.344674 87.425022 202.247212 87.360041 202.164745 87.277564 C 202.079778 87.192589 202.014804 87.095117 201.967322 86.985148 C 201.92234 86.87518 201.899849 86.760212 201.899849 86.640247 L 201.899849 1.399639 C 201.899849 1.279673 201.92234 1.164706 201.967322 1.054738 C 202.014804 0.944769 202.079778 0.847297 202.164745 0.764821 C 202.247212 0.679845 202.344674 0.614864 202.454631 0.567377 C 202.564587 0.52239 202.679542 0.499897 202.799495 0.499897 Z M 202.799495 0.499897 " stroke="#ffae46" stroke-width="1" stroke-opacity="1" stroke-miterlimit="10"/></g><path stroke-linecap="butt" transform="matrix(1.406112, -0.682698, 0.682771, 1.405961, -53.28124, 122.636308)" fill-opacity="1" fill="#ffae46" fill-rule="nonzero" stroke-linejoin="miter" d="M 172.699941 91.499334 L 175.899904 91.500056 C 176.019494 91.499781 176.133755 91.521923 176.244934 91.567573 C 176.355022 91.615473 176.45188 91.679175 176.535574 91.764267 C 176.620359 91.847112 176.686327 91.945825 176.730073 92.055974 C 176.777159 92.164966 176.798619 92.280964 176.798884 92.400562 L 176.800093 138.991273 C 176.800358 139.110871 176.77596 139.224049 176.731395 139.332992 C 176.685737 139.444183 176.62094 139.543301 176.535845 139.627007 C 176.450751 139.710713 176.355379 139.775537 176.244142 139.821544 C 176.132905 139.86755 176.019161 139.890113 175.899571 139.890389 L 172.699608 139.889667 C 172.580018 139.889942 172.465757 139.8678 172.354577 139.822149 C 172.246738 139.775342 172.147631 139.710548 172.063938 139.625456 C 171.979153 139.542611 171.913185 139.443898 171.869439 139.333749 C 171.822353 139.224757 171.800893 139.108759 171.800627 138.989161 L 171.799419 92.39845 C 171.801402 92.279944 171.823552 92.165674 171.868117 92.056731 C 171.913774 91.94554 171.978572 91.846422 172.063666 91.762716 C 172.14876 91.67901 172.244132 91.614186 172.35537 91.568179 C 172.466607 91.522173 172.580351 91.49961 172.699941 91.499334 Z M 172.699941 91.499334 " stroke="#ffae46" stroke-width="1" stroke-opacity="1" stroke-miterlimit="10"/><path stroke-linecap="butt" transform="matrix(1.406112, -0.682698, 0.682771, 1.405961, -211.781588, 241.107078)" fill-opacity="1" fill="#ffae46" fill-rule="nonzero" stroke-linejoin="miter" d="M 287.100831 350.100799 L 290.298547 350.100429 C 290.418137 350.100154 290.534646 350.123387 290.643577 350.167947 C 290.754757 350.213597 290.850523 350.279548 290.937556 350.363484 C 291.02125 350.448577 291.08497 350.546198 291.132055 350.65519 C 291.17805 350.766431 291.200601 350.88018 291.200867 350.999778 L 291.199827 397.589398 C 291.200093 397.708996 291.177943 397.823266 291.132285 397.934457 C 291.086628 398.045647 291.020674 398.141426 290.937828 398.226224 C 290.852734 398.30993 290.754022 398.37591 290.642785 398.421917 C 290.534887 398.466767 290.417804 398.490486 290.301554 398.489605 L 287.100499 398.491131 C 286.980909 398.491407 286.865491 398.465925 286.75656 398.421366 C 286.64538 398.375715 286.548522 398.312013 286.462581 398.225829 C 286.378887 398.140736 286.314076 398.045363 286.268082 397.934122 C 286.222087 397.822882 286.199536 397.709132 286.19927 397.589534 L 286.20031 350.999915 C 286.200044 350.880317 286.222194 350.766047 286.267852 350.654856 C 286.315757 350.544757 286.379463 350.447887 286.464557 350.364181 C 286.547403 350.279383 286.646115 350.213402 286.75626 350.169644 C 286.86525 350.122546 286.981241 350.101075 287.100831 350.100799 Z M 287.100831 350.100799 " stroke="#ffae46" stroke-width="1" stroke-opacity="1" stroke-miterlimit="10"/><path stroke-linecap="butt" transform="matrix(1.477063, 0.511424, -0.511479, 1.476905, 80.364813, -147.909846)" fill-opacity="1" fill="#ffae46" fill-rule="nonzero" stroke-linejoin="miter" d="M 278.399954 88.898712 L 281.599963 88.898818 C 281.719313 88.899808 281.833398 88.92378 281.943762 88.967554 C 282.054944 89.01369 282.151324 89.078177 282.23608 89.162558 C 282.320836 89.246938 282.386793 89.345764 282.432314 89.45431 C 282.476292 89.566036 282.499742 89.679581 282.499579 89.801302 L 282.500509 136.390696 C 282.499528 136.510056 282.477927 136.623332 282.431802 136.73452 C 282.385677 136.845708 282.321202 136.942092 282.236834 137.026849 C 282.152466 137.111607 282.055197 137.174383 281.944301 137.220719 C 281.833406 137.267055 281.719872 137.2905 281.600522 137.28951 L 278.400513 137.289404 C 278.281981 137.290777 278.165534 137.267622 278.054353 137.221486 C 277.945532 137.174532 277.846791 137.110863 277.764396 137.025665 C 277.67964 136.941284 277.614501 136.844821 277.568162 136.733912 C 277.522641 136.625366 277.500734 136.508642 277.499354 136.3901 L 277.500785 89.799888 C 277.499405 89.681346 277.522549 89.564891 277.569492 89.456064 C 277.613255 89.345694 277.680092 89.248493 277.76446 89.163735 C 277.848828 89.078977 277.945279 89.013839 278.056175 88.967504 C 278.164709 88.921986 278.281422 88.900084 278.399954 88.898712 Z M 278.399954 88.898712 " stroke="#ffae46" stroke-width="1" stroke-opacity="1" stroke-miterlimit="10"/><path stroke-linecap="butt" transform="matrix(1.477063, 0.511424, -0.511479, 1.476905, 206.821046, -72.888596)" fill-opacity="1" fill="#ffae46" fill-rule="nonzero" stroke-linejoin="miter" d="M 176.399983 352.699572 L 179.599992 352.699678 C 179.719342 352.700668 179.834971 352.72146 179.943791 352.768414 C 180.054973 352.81455 180.151353 352.879037 180.236109 352.963417 C 180.320865 353.047798 180.386004 353.144262 180.432343 353.25517 C 180.476321 353.366896 180.499772 353.48044 180.49879 353.5998 L 180.499721 400.189194 C 180.498739 400.308554 180.477956 400.424192 180.431831 400.53538 C 180.384888 400.644206 180.321232 400.742951 180.236046 400.825347 C 180.151678 400.910105 180.055226 400.975243 179.944331 401.021579 C 179.833435 401.067914 179.719084 401.088998 179.600552 401.09037 L 176.400542 401.090264 C 176.281192 401.089275 176.165564 401.068482 176.056743 401.021528 C 175.945561 400.975392 175.849182 400.910905 175.764426 400.826525 C 175.679669 400.742144 175.614531 400.64568 175.568191 400.534772 C 175.521852 400.423864 175.500763 400.309502 175.499383 400.190959 L 175.500814 353.600748 C 175.498616 353.479844 175.522578 353.365751 175.568703 353.254562 C 175.613285 353.146554 175.679303 353.046991 175.764489 352.964595 C 175.848857 352.879837 175.945308 352.814699 176.056204 352.768363 C 176.164738 352.722845 176.281451 352.700944 176.399983 352.699572 Z M 176.399983 352.699572 " stroke="#ffae46" stroke-width="1" stroke-opacity="1" stroke-miterlimit="10"/><path stroke-linecap="butt" transform="matrix(0.682771, 1.405961, -1.406112, 0.682698, 576.967054, -358.439141)" fill-opacity="1" fill="#ffae46" fill-rule="nonzero" stroke-linejoin="miter" d="M 359.201335 161.099629 L 362.399263 161.099529 C 362.518861 161.099263 362.635379 161.122505 362.74323 161.169319 C 362.854421 161.214976 362.951291 161.278682 363.034997 161.363776 C 363.122043 161.447714 363.185775 161.545334 363.231782 161.656571 C 363.276632 161.764469 363.300351 161.881552 363.300627 162.001142 L 363.300174 208.588827 C 363.30045 208.708417 363.277216 208.824925 363.232657 208.933857 C 363.184758 209.043945 363.121056 209.140803 363.034871 209.226744 C 362.952027 209.31153 362.854406 209.375249 362.743165 209.421244 C 362.634172 209.468329 362.518175 209.489789 362.400825 209.491147 L 359.200649 209.490155 C 359.081052 209.49042 358.964533 209.467178 358.855591 209.422613 C 358.745491 209.374708 358.648621 209.311002 358.564915 209.225908 C 358.477869 209.14197 358.414137 209.04435 358.36813 208.933112 C 358.32328 208.825215 358.299561 208.708131 358.301534 208.589633 L 358.299738 162.000857 C 358.299463 161.881267 358.322696 161.764758 358.367255 161.655827 C 358.415154 161.545739 358.478856 161.448881 358.565041 161.362939 C 358.647886 161.278154 358.745507 161.214434 358.856747 161.16844 C 358.964648 161.123602 359.081737 161.099894 359.201335 161.099629 Z M 359.201335 161.099629 " stroke="#ffae46" stroke-width="1" stroke-opacity="1" stroke-miterlimit="10"/><path stroke-linecap="butt" transform="matrix(0.682771, 1.405961, -1.406112, 0.682698, 509.908346, 106.22546)" fill-opacity="1" fill="#ffae46" fill-rule="nonzero" stroke-linejoin="miter" d="M 100.600776 275.500621 L 103.798704 275.500521 C 103.918302 275.500256 104.03482 275.523498 104.143763 275.568063 C 104.254953 275.61372 104.350732 275.679674 104.43553 275.762521 C 104.521484 275.848707 104.585216 275.946327 104.632315 276.055316 C 104.676073 276.165461 104.700884 276.280297 104.701159 276.399887 L 104.699615 322.989819 C 104.699891 323.109409 104.677749 323.22367 104.632098 323.334849 C 104.586447 323.446029 104.520497 323.541796 104.437652 323.626581 C 104.352559 323.710274 104.253847 323.776242 104.145946 323.82108 C 104.034705 323.867074 103.918707 323.888534 103.801358 323.889891 L 100.60009 323.891147 C 100.481584 323.889165 100.365066 323.865923 100.256123 323.821357 C 100.144932 323.7757 100.048062 323.711994 99.964356 323.6269 C 99.88065 323.541806 99.813578 323.445342 99.767571 323.334105 C 99.723813 323.223959 99.699002 323.109124 99.700975 322.990626 L 99.700271 276.399602 C 99.699995 276.280012 99.722137 276.165751 99.767788 276.054571 C 99.814596 275.946731 99.879389 275.847625 99.964482 275.763932 C 100.047327 275.679147 100.146039 275.613179 100.256188 275.569433 C 100.365181 275.522347 100.481178 275.500887 100.600776 275.500621 Z M 100.600776 275.500621 " stroke="#ffae46" stroke-width="1" stroke-opacity="1" stroke-miterlimit="10"/><path stroke-linecap="butt" transform="matrix(-0.511479, 1.476905, -1.477064, -0.511424, 1189.5514, 63.556423)" fill-opacity="1" fill="#ffae46" fill-rule="nonzero" stroke-linejoin="miter" d="M 361.79959 271.800918 L 364.999869 271.800812 C 365.118411 271.799432 365.234866 271.822577 365.343693 271.86952 C 365.454063 271.913283 365.551264 271.980119 365.636022 272.064487 C 365.72078 272.148855 365.785917 272.245307 365.832253 272.356202 C 365.877771 272.464737 365.899672 272.581449 365.901044 272.699982 L 365.900522 319.290173 C 365.899533 319.409522 365.877923 319.52279 365.831786 319.633972 C 365.78565 319.745154 365.721164 319.841533 365.636783 319.926289 C 365.552402 320.011045 365.455938 320.076184 365.34503 320.122523 C 365.233304 320.166501 365.11976 320.189952 365.0004 320.18897 L 361.800121 320.189076 C 361.681579 320.190456 361.565124 320.167312 361.456297 320.120369 C 361.345927 320.076605 361.248726 320.009769 361.163968 319.925401 C 361.079211 319.841033 361.014073 319.744582 360.967737 319.633686 C 360.922219 319.525152 360.900318 319.408439 360.898946 319.289907 L 360.899468 272.699716 C 360.900457 272.580366 360.922068 272.467099 360.968204 272.355917 C 361.01434 272.244735 361.078827 272.148356 361.163207 272.063599 C 361.247588 271.978843 361.344052 271.913704 361.45496 271.867365 C 361.566686 271.823387 361.68023 271.799937 361.79959 271.800918 Z M 361.79959 271.800918 " stroke="#ffae46" stroke-width="1" stroke-opacity="1" stroke-miterlimit="10"/><path stroke-linecap="butt" transform="matrix(-0.515828, 1.46917, -1.469328, -0.515773, 491.495403, 241.310691)" fill-opacity="1" fill="#ffae46" fill-rule="nonzero" stroke-linejoin="miter" d="M 97.999682 169.799614 L 101.201121 169.800262 C 101.318567 169.801568 101.434728 169.821934 101.544165 169.868588 C 101.655969 169.91441 101.752991 169.978715 101.836061 170.063868 C 101.921499 170.148191 101.984928 170.245557 102.031913 170.356672 C 102.078067 170.46542 102.099719 170.580111 102.099236 170.699914 L 102.100973 217.290014 C 102.10049 217.409818 102.076917 217.524435 102.030252 217.633865 C 101.986785 217.744832 101.920101 217.842681 101.834935 217.92575 C 101.752967 218.010356 101.654052 218.076983 101.544461 218.120774 C 101.433334 218.167762 101.318632 218.18942 101.199649 218.191313 L 98.000577 218.189833 C 97.880764 218.189359 97.766139 218.165795 97.655166 218.122339 C 97.545729 218.075686 97.448707 218.011381 97.36327 217.927058 C 97.280199 217.841905 97.214403 217.745369 97.167419 217.634255 C 97.123632 217.524676 97.098782 217.408449 97.100095 217.291013 L 97.100726 170.700081 C 97.098841 170.581109 97.122415 170.466492 97.168249 170.354695 C 97.214913 170.245264 97.27923 170.148246 97.363565 170.06281 C 97.448732 169.97974 97.545279 169.913943 97.65404 169.867786 C 97.765998 169.823165 97.879869 169.79914 97.999682 169.799614 Z M 97.999682 169.799614 " stroke="#ffae46" stroke-width="1" stroke-opacity="1" stroke-miterlimit="10"/><path stroke-linecap="butt" transform="matrix(1.563115, 0, 0, 1.562947, 39.255041, 56.210876)" fill-opacity="1" fill="#ffae46" fill-rule="nonzero" stroke-linejoin="miter" d="M 205.301011 316.299528 L 208.499752 316.299528 C 208.619705 316.299528 208.73466 316.322021 208.844617 316.369508 C 208.954574 316.414495 209.052035 316.479476 209.137002 316.564452 C 209.221968 316.646928 209.286943 316.7444 209.331925 316.854369 C 209.376907 316.966837 209.399399 317.081804 209.399399 317.19927 L 209.399399 402.439878 C 209.399399 402.559844 209.376907 402.674811 209.331925 402.784779 C 209.286943 402.894748 209.221968 402.99222 209.137002 403.077196 C 209.052035 403.159672 208.954574 403.224653 208.844617 403.27214 C 208.73466 403.317127 208.619705 403.339621 208.499752 403.339621 L 205.301011 403.339621 C 205.181058 403.339621 205.066103 403.317127 204.956147 403.27214 C 204.84619 403.224653 204.748728 403.159672 204.663762 403.077196 C 204.578795 402.99222 204.513821 402.894748 204.468838 402.784779 C 204.423856 402.674811 204.398866 402.559844 204.398866 402.439878 L 204.398866 317.19927 C 204.398866 317.081804 204.423856 316.966837 204.468838 316.854369 C 204.513821 316.7444 204.578795 316.646928 204.663762 316.564452 C 204.748728 316.479476 204.84619 316.414495 204.956147 316.369508 C 205.066103 316.322021 205.181058 316.299528 205.301011 316.299528 Z M 205.301011 316.299528 " stroke="#ffae46" stroke-width="1" stroke-opacity="1" stroke-miterlimit="10"/><path stroke-linecap="butt" transform="matrix(0, 1.562947, -1.563115, 0, 980.093739, -239.342428)" fill-opacity="1" fill="#ffae46" fill-rule="nonzero" stroke-linejoin="miter" d="M 384.499126 198.499406 L 387.70071 198.499406 C 387.818177 198.499406 387.933144 198.521897 388.043112 198.569378 C 388.15558 198.61436 388.253052 198.679335 388.335529 198.764301 C 388.420504 198.846769 388.485486 198.944231 388.530473 199.056686 C 388.577959 199.166643 388.600453 199.281598 388.600453 199.399052 L 388.600453 284.640519 C 388.600453 284.760472 388.577959 284.872927 388.530473 284.985383 C 388.485486 285.09534 388.420504 285.192802 388.335529 285.275269 C 388.253052 285.360236 388.15558 285.42521 388.043112 285.472691 C 387.933144 285.517674 387.818177 285.540165 387.70071 285.540165 L 384.499126 285.540165 C 384.38166 285.540165 384.266693 285.517674 384.156724 285.472691 C 384.044256 285.42521 383.946784 285.360236 383.864308 285.275269 C 383.779332 285.192802 383.714351 285.09534 383.669364 284.985383 C 383.621877 284.872927 383.599384 284.760472 383.599384 284.640519 L 383.599384 199.399052 C 383.599384 199.281598 383.621877 199.166643 383.669364 199.056686 C 383.714351 198.944231 383.779332 198.846769 383.864308 198.764301 C 383.946784 198.679335 384.044256 198.61436 384.156724 198.569378 C 384.266693 198.521897 384.38166 198.499406 384.499126 198.499406 Z M 384.499126 198.499406 " stroke="#ffae46" stroke-width="1" stroke-opacity="1" stroke-miterlimit="10"/><path fill="#ffae46" d="M 176.027344 365.519531 L 176.027344 370.519531 C 176.027344 370.707031 175.992188 370.886719 175.921875 371.058594 C 175.847656 371.230469 175.746094 371.382812 175.617188 371.515625 C 175.484375 371.644531 175.332031 371.746094 175.160156 371.820312 C 174.988281 371.890625 174.808594 371.925781 174.621094 371.925781 L 41.382812 371.925781 C 41.195312 371.925781 41.015625 371.890625 40.84375 371.820312 C 40.671875 371.746094 40.519531 371.644531 40.386719 371.515625 C 40.253906 371.382812 40.152344 371.230469 40.082031 371.058594 C 40.011719 370.886719 39.972656 370.707031 39.972656 370.519531 L 39.972656 365.519531 C 39.972656 365.332031 40.011719 365.152344 40.082031 364.980469 C 40.152344 364.808594 40.253906 364.65625 40.386719 364.523438 C 40.519531 364.390625 40.671875 364.289062 40.84375 364.21875 C 41.015625 364.148438 41.195312 364.113281 41.382812 364.113281 L 174.621094 364.113281 C 174.808594 364.113281 174.988281 364.148438 175.160156 364.21875 C 175.332031 364.289062 175.484375 364.390625 175.617188 364.523438 C 175.746094 364.65625 175.847656 364.808594 175.921875 364.980469 C 175.992188 365.152344 176.027344 365.332031 176.027344 365.519531 Z M 176.027344 365.519531 " fill-opacity="1" fill-rule="nonzero"/><g clip-path="url(#23eb42bcd7)"><path stroke-linecap="butt" transform="matrix(0, 1.562947, -1.563115, 0, 490.213659, 258.14365)" fill="none" stroke-linejoin="miter" d="M 68.700905 201.000171 L 71.899989 201.000171 C 72.019955 201.000171 72.134922 201.022662 72.244891 201.067644 C 72.354859 201.115126 72.452331 201.1801 72.537307 201.262568 C 72.619783 201.347534 72.684765 201.444996 72.732251 201.554953 C 72.777238 201.664909 72.799732 201.779864 72.799732 201.899817 L 72.799732 287.138785 C 72.799732 287.258738 72.777238 287.373693 72.732251 287.483649 C 72.684765 287.593606 72.619783 287.691068 72.537307 287.776034 C 72.452331 287.861001 72.354859 287.925975 72.244891 287.970958 C 72.134922 288.01594 72.019955 288.04093 71.899989 288.04093 L 68.700905 288.04093 C 68.580939 288.04093 68.465972 288.01594 68.356004 287.970958 C 68.246035 287.925975 68.148563 287.861001 68.063587 287.776034 C 67.978612 287.691068 67.91363 287.593606 67.868643 287.483649 C 67.823656 287.373693 67.801162 287.258738 67.801162 287.138785 L 67.801162 201.899817 C 67.801162 201.779864 67.823656 201.664909 67.868643 201.554953 C 67.91363 201.444996 67.978612 201.347534 68.063587 201.262568 C 68.148563 201.1801 68.246035 201.115126 68.356004 201.067644 C 68.465972 201.022662 68.580939 201.000171 68.700905 201.000171 Z M 68.700905 201.000171 " stroke="#ffae46" stroke-width="1" stroke-opacity="1" stroke-miterlimit="10"/></g><path stroke-linecap="butt" transform="matrix(-1.105289, 1.10517, -1.105289, -1.10517, 1308.03721, 557.761048)" fill-opacity="1" fill="#ffae46" fill-rule="nonzero" stroke-linejoin="miter" d="M 341.598951 313.000521 L 344.801056 313.000349 C 344.919457 312.998575 345.034321 313.021542 345.143883 313.067483 C 345.255212 313.11519 345.350636 313.178803 345.435455 313.263623 C 345.520275 313.348442 345.585655 313.445633 345.631595 313.555195 C 345.677535 313.664756 345.700502 313.779621 345.700496 313.899788 L 345.699458 399.140836 C 345.701219 399.259236 345.67824 399.374103 345.632288 399.48367 C 345.584568 399.595004 345.520945 399.690434 345.436117 399.775263 C 345.351288 399.860091 345.25409 399.925481 345.144524 399.971434 C 345.034957 400.017386 344.92009 400.040365 344.799922 400.040372 L 341.599584 400.038776 C 341.481183 400.04055 341.366319 400.017583 341.256757 399.971642 C 341.143661 399.925702 341.048237 399.862089 340.963418 399.77727 C 340.878598 399.69245 340.813218 399.59526 340.769045 399.48393 C 340.723105 399.374369 340.700138 399.259504 340.700144 399.139337 L 340.699415 313.900057 C 340.699421 313.779889 340.7224 313.665022 340.768353 313.555455 C 340.814305 313.445889 340.879695 313.348691 340.964524 313.263862 C 341.049352 313.179034 341.14655 313.113643 341.256117 313.067691 C 341.365683 313.021739 341.480551 312.99876 341.598951 313.000521 Z M 341.598951 313.000521 " stroke="#ffae46" stroke-width="1" stroke-opacity="1" stroke-miterlimit="10"/><path stroke-linecap="butt" transform="matrix(-1.105289, 1.10517, -1.105289, -1.10517, 462.548308, 215.319662)" fill-opacity="1" fill="#ffae46" fill-rule="nonzero" stroke-linejoin="miter" d="M 116.500026 91.499758 L 119.700365 91.501354 C 119.818765 91.49958 119.93363 91.522547 120.043191 91.568488 C 120.154521 91.612661 120.251711 91.678041 120.336531 91.76286 C 120.42135 91.84768 120.48673 91.94487 120.530903 92.0562 C 120.576844 92.165761 120.599811 92.280626 120.599804 92.400793 L 120.600534 177.640073 C 120.600527 177.760241 120.577548 177.875108 120.531596 177.984675 C 120.485644 178.094241 120.420253 178.191439 120.335425 178.276268 C 120.250596 178.361096 120.155166 178.424719 120.043832 178.472439 C 119.934265 178.518391 119.819398 178.54137 119.700998 178.539609 L 116.498892 178.539781 C 116.380492 178.541555 116.265627 178.518588 116.156065 178.472647 C 116.044736 178.42494 115.947546 178.35956 115.864493 178.276507 C 115.779674 178.191688 115.714294 178.094497 115.668353 177.984935 C 115.622413 177.875374 115.599446 177.760509 115.599452 177.640342 L 115.60049 92.399294 C 115.598729 92.280894 115.621709 92.166027 115.667661 92.05646 C 115.71538 91.945126 115.780771 91.847929 115.863832 91.764867 C 115.94866 91.680039 116.045858 91.614648 116.155425 91.568696 C 116.264992 91.522744 116.379859 91.499765 116.500026 91.499758 Z M 116.500026 91.499758 " stroke="#ffae46" stroke-width="1" stroke-opacity="1" stroke-miterlimit="10"/><path stroke-linecap="butt" transform="matrix(-1.105289, -1.10517, 1.105289, -1.10517, -81.729977, 1064.780367)" fill-opacity="1" fill="#ffae46" fill-rule="nonzero" stroke-linejoin="miter" d="M 115.799561 312.301035 L 118.9999 312.299439 C 119.120067 312.299446 119.234934 312.322425 119.344501 312.368377 C 119.454068 312.414329 119.551265 312.47972 119.636094 312.564548 C 119.720922 312.649377 119.784545 312.744807 119.832265 312.856141 C 119.878217 312.965708 119.901196 313.080575 119.899436 313.198975 L 119.900473 398.440022 C 119.90048 398.56019 119.877513 398.675054 119.831572 398.784616 C 119.785632 398.894178 119.720252 398.991369 119.635432 399.076188 C 119.550613 399.161008 119.455189 399.224621 119.34386 399.272328 C 119.234299 399.318268 119.119434 399.341236 119.001034 399.339462 L 115.800695 399.341058 C 115.680528 399.341051 115.565661 399.318072 115.456094 399.27212 C 115.346527 399.226167 115.249329 399.160777 115.164501 399.075948 C 115.079672 398.99112 115.014282 398.893922 114.96833 398.784355 C 114.922378 398.674789 114.899398 398.559922 114.899392 398.439754 L 114.900121 313.200474 C 114.900115 313.080307 114.923082 312.965442 114.969022 312.85588 C 115.013196 312.744551 115.078576 312.647361 115.163395 312.562541 C 115.248214 312.477722 115.343638 312.414109 115.456734 312.368169 C 115.566296 312.322228 115.681161 312.299261 115.799561 312.301035 Z M 115.799561 312.301035 " stroke="#ffae46" stroke-width="1" stroke-opacity="1" stroke-miterlimit="10"/><path stroke-linecap="butt" transform="matrix(-1.105289, -1.10517, 1.105289, -1.10517, 758.133133, 709.212105)" fill-opacity="1" fill="#ffae46" fill-rule="nonzero" stroke-linejoin="miter" d="M 337.399863 87.199876 L 340.598434 87.200047 C 340.718602 87.200054 340.833469 87.223033 340.944803 87.267218 C 341.054369 87.31317 341.151567 87.378561 341.236396 87.463389 C 341.321224 87.548218 341.386614 87.645416 341.432567 87.754982 C 341.476752 87.866316 341.499731 87.981183 341.499738 88.101351 L 341.499008 173.340631 C 341.500781 173.459031 341.477814 173.573896 341.431874 173.683457 C 341.384167 173.794786 341.322321 173.891977 341.237501 173.976797 C 341.152682 174.061616 341.053724 174.125229 340.944162 174.171169 C 340.8346 174.21711 340.719736 174.240077 340.599568 174.24007 L 337.400997 174.239899 C 337.28083 174.239892 337.165963 174.216913 337.056396 174.170961 C 336.945062 174.126776 336.847864 174.061385 336.763036 173.976557 C 336.678207 173.891728 336.612817 173.79453 336.568632 173.683197 C 336.522679 173.57363 336.4997 173.458763 336.499694 173.338595 L 336.500423 88.099315 C 336.49865 87.980915 336.521617 87.86605 336.569324 87.754722 C 336.615265 87.64516 336.680645 87.547969 336.763697 87.464917 C 336.848516 87.380097 336.945707 87.314717 337.055269 87.268777 C 337.164831 87.222836 337.279695 87.199869 337.399863 87.199876 Z M 337.399863 87.199876 " stroke="#ffae46" stroke-width="1" stroke-opacity="1" stroke-miterlimit="10"/><g clip-path="url(#1257e47f16)"><path fill="#6b99d2" d="M 234.644531 564.324219 L 236.988281 564.324219 C 236.265625 561.988281 235.640625 559.625 235.105469 557.238281 C 234.574219 554.851562 234.136719 552.445312 233.796875 550.023438 C 233.457031 547.597656 233.214844 545.167969 233.070312 542.726562 C 232.925781 540.28125 232.878906 537.839844 232.929688 535.394531 C 232.980469 532.949219 233.128906 530.507812 233.375 528.074219 C 233.621094 525.640625 233.964844 523.21875 234.402344 520.8125 C 234.84375 518.40625 235.378906 516.023438 236.011719 513.65625 C 236.640625 511.292969 237.367188 508.960938 238.1875 506.65625 C 239.003906 504.347656 239.914062 502.082031 240.914062 499.847656 C 241.914062 497.613281 243.003906 495.425781 244.179688 493.28125 C 245.355469 491.136719 246.613281 489.039062 247.957031 486.996094 C 249.300781 484.953125 250.722656 482.964844 252.226562 481.035156 C 253.730469 479.101562 255.308594 477.234375 256.960938 475.433594 C 258.613281 473.628906 260.335938 471.894531 262.125 470.226562 C 263.917969 468.558594 265.773438 466.96875 267.691406 465.453125 C 269.609375 463.933594 271.585938 462.496094 273.621094 461.136719 C 275.65625 459.777344 277.742188 458.503906 279.878906 457.308594 C 282.015625 456.117188 284.195312 455.015625 286.421875 453.996094 C 288.644531 452.980469 290.910156 452.054688 293.207031 451.21875 C 295.507812 450.382812 297.835938 449.636719 300.195312 448.988281 C 302.554688 448.339844 304.933594 447.785156 307.339844 447.328125 C 309.742188 446.867188 312.160156 446.507812 314.589844 446.242188 C 317.023438 445.976562 319.464844 445.8125 321.910156 445.742188 C 324.355469 445.671875 326.796875 445.699219 329.242188 445.828125 C 331.683594 445.953125 334.121094 446.175781 336.546875 446.5 C 338.96875 446.820312 341.378906 447.238281 343.769531 447.753906 C 346.164062 448.265625 348.53125 448.875 350.875 449.582031 C 353.21875 450.285156 355.527344 451.082031 357.808594 451.972656 C 360.085938 452.859375 362.328125 453.839844 364.527344 454.910156 C 366.726562 455.976562 368.882812 457.132812 370.992188 458.375 C 373.097656 459.617188 375.152344 460.9375 377.15625 462.34375 C 379.15625 463.75 381.101562 465.234375 382.984375 466.796875 C 383.40625 464.921875 383.875 463.0625 384.386719 461.210938 C 384.898438 459.359375 385.457031 457.523438 386.058594 455.699219 C 386.664062 453.875 387.308594 452.066406 388 450.273438 C 388.6875 448.480469 389.421875 446.707031 390.199219 444.949219 C 390.976562 443.191406 391.792969 441.457031 392.652344 439.738281 C 393.515625 438.019531 394.417969 436.324219 395.359375 434.652344 C 396.300781 432.980469 397.285156 431.328125 398.308594 429.703125 C 399.332031 428.078125 400.394531 426.480469 401.496094 424.90625 C 402.597656 423.332031 403.734375 421.785156 404.910156 420.265625 C 406.085938 418.746094 407.296875 417.257812 408.546875 415.796875 C 409.796875 414.339844 411.078125 412.910156 412.394531 411.511719 C 413.714844 410.113281 415.066406 408.75 416.449219 407.417969 C 417.832031 406.085938 419.25 404.789062 420.695312 403.527344 C 422.140625 402.261719 423.621094 401.035156 425.125 399.84375 C 426.632812 398.652344 428.167969 397.5 429.730469 396.382812 C 431.292969 395.265625 432.882812 394.1875 434.496094 393.148438 C 436.113281 392.105469 437.75 391.105469 439.414062 390.148438 C 441.078125 389.1875 442.765625 388.269531 444.472656 387.390625 C 446.183594 386.511719 447.910156 385.675781 449.660156 384.882812 C 451.410156 384.085938 453.175781 383.335938 454.960938 382.625 C 456.746094 381.917969 458.546875 381.253906 460.367188 380.632812 C 462.183594 380.011719 464.015625 379.4375 465.859375 378.902344 C 467.707031 378.371094 469.566406 377.886719 471.433594 377.441406 C 473.304688 377 475.183594 376.605469 477.070312 376.253906 C 478.960938 375.90625 480.855469 375.601562 482.757812 375.339844 C 484.664062 375.082031 486.570312 374.871094 488.484375 374.707031 C 490.398438 374.539062 492.316406 374.421875 494.234375 374.347656 C 496.15625 374.277344 498.074219 374.25 499.996094 374.269531 C 501.917969 374.292969 503.835938 374.359375 505.753906 374.472656 C 507.671875 374.585938 509.585938 374.746094 511.492188 374.953125 C 513.402344 375.160156 515.308594 375.414062 517.203125 375.710938 C 519.101562 376.011719 520.992188 376.355469 522.871094 376.746094 C 524.753906 377.140625 526.621094 377.574219 528.480469 378.058594 C 530.34375 378.539062 532.1875 379.066406 534.023438 379.636719 C 535.855469 380.207031 537.675781 380.824219 539.480469 381.484375 C 541.28125 382.144531 543.070312 382.847656 544.839844 383.59375 C 546.609375 384.339844 548.359375 385.128906 550.09375 385.960938 C 551.824219 386.792969 553.535156 387.667969 555.222656 388.582031 C 556.910156 389.496094 558.578125 390.453125 560.21875 391.445312 C 561.863281 392.441406 563.480469 393.476562 565.074219 394.550781 C 566.664062 395.625 568.230469 396.738281 569.769531 397.890625 C 571.308594 399.039062 572.816406 400.226562 574.296875 401.449219 C 575.777344 402.671875 577.226562 403.933594 578.648438 405.226562 C 580.066406 406.519531 581.453125 407.847656 582.808594 409.207031 C 584.164062 410.570312 585.484375 411.964844 586.773438 413.390625 C 588.0625 414.816406 589.3125 416.269531 590.53125 417.757812 C 591.746094 419.242188 592.925781 420.757812 594.070312 422.300781 C 595.210938 423.847656 596.316406 425.417969 597.382812 427.015625 C 598.449219 428.609375 599.476562 430.234375 600.464844 431.878906 C 601.453125 433.527344 602.402344 435.199219 603.308594 436.890625 C 604.214844 438.585938 605.078125 440.296875 605.902344 442.035156 C 606.726562 443.769531 607.507812 445.523438 608.246094 447.296875 C 608.984375 449.070312 609.679688 450.859375 610.332031 452.667969 C 610.980469 454.472656 611.589844 456.296875 612.152344 458.132812 C 612.714844 459.96875 613.230469 461.816406 613.707031 463.679688 C 614.179688 465.539062 614.605469 467.410156 614.988281 469.292969 C 615.371094 471.175781 615.707031 473.066406 615.996094 474.964844 C 616.285156 476.863281 616.53125 478.769531 616.730469 480.679688 C 616.925781 482.589844 617.078125 484.503906 617.183594 486.421875 C 617.289062 488.339844 617.34375 490.257812 617.355469 492.179688 C 617.367188 494.101562 617.332031 496.019531 617.25 497.9375 C 617.167969 499.859375 617.042969 501.773438 616.867188 503.6875 C 616.691406 505.601562 616.46875 507.507812 616.203125 509.410156 C 615.9375 511.3125 615.621094 513.207031 615.261719 515.09375 C 620.132812 514.332031 625.027344 513.96875 629.957031 514 C 632.671875 513.992188 635.382812 514.101562 638.089844 514.320312 C 640.796875 514.539062 643.492188 514.871094 646.171875 515.3125 C 648.851562 515.753906 651.507812 516.304688 654.144531 516.964844 C 656.777344 517.625 659.378906 518.390625 661.953125 519.265625 C 664.523438 520.140625 667.054688 521.121094 669.542969 522.207031 C 672.035156 523.289062 674.476562 524.472656 676.867188 525.757812 C 679.261719 527.042969 681.597656 528.425781 683.875 529.902344 C 686.152344 531.382812 688.367188 532.949219 690.515625 534.609375 C 692.667969 536.269531 694.742188 538.015625 696.75 539.847656 C 698.753906 541.679688 700.679688 543.59375 702.527344 545.582031 C 704.375 547.574219 706.136719 549.636719 707.816406 551.773438 C 709.492188 553.910156 711.078125 556.109375 712.574219 558.375 C 714.070312 560.644531 715.472656 562.96875 716.777344 565.351562 C 718.078125 567.730469 719.285156 570.164062 720.386719 572.644531 C 721.488281 575.128906 722.488281 577.648438 723.386719 580.214844 C 724.28125 582.777344 725.070312 585.375 725.75 588.003906 C 726.429688 590.632812 727.003906 593.285156 727.464844 595.960938 C 727.925781 598.636719 728.277344 601.328125 728.519531 604.03125 C 728.757812 606.738281 728.886719 609.449219 728.90625 612.164062 C 728.921875 614.878906 728.828125 617.589844 728.621094 620.300781 C 728.414062 623.007812 728.09375 625.703125 727.664062 628.382812 C 727.238281 631.066406 726.699219 633.726562 726.050781 636.363281 C 725.402344 639 724.644531 641.605469 723.78125 644.179688 C 722.917969 646.753906 721.949219 649.289062 720.878906 651.785156 C 719.804688 654.28125 718.632812 656.726562 717.355469 659.125 C 716.082031 661.523438 714.710938 663.863281 713.242188 666.148438 C 711.777344 668.433594 710.21875 670.65625 708.566406 672.8125 C 706.914062 674.96875 705.179688 677.054688 703.355469 679.066406 C 701.535156 681.082031 699.628906 683.015625 697.648438 684.871094 C 695.664062 686.726562 693.609375 688.5 691.480469 690.1875 C 689.351562 691.875 687.160156 693.46875 684.898438 694.976562 C 682.636719 696.480469 680.320312 697.894531 677.945312 699.207031 C 674.945312 701.21875 671.8125 702.992188 668.546875 704.539062 C 665.28125 706.082031 661.921875 707.378906 658.464844 708.425781 C 655.011719 709.472656 651.496094 710.257812 647.921875 710.78125 C 644.351562 711.304688 640.757812 711.5625 637.144531 711.554688 L 234.644531 711.554688 C 233.441406 711.550781 232.238281 711.519531 231.035156 711.457031 C 229.832031 711.398438 228.632812 711.304688 227.433594 711.1875 C 226.234375 711.066406 225.039062 710.917969 223.847656 710.738281 C 222.660156 710.558594 221.472656 710.351562 220.292969 710.113281 C 219.113281 709.878906 217.9375 709.613281 216.769531 709.316406 C 215.601562 709.023438 214.441406 708.699219 213.289062 708.351562 C 212.136719 708 210.996094 707.621094 209.863281 707.210938 C 208.730469 706.804688 207.605469 706.371094 206.496094 705.910156 C 205.382812 705.449219 204.28125 704.957031 203.195312 704.441406 C 202.105469 703.925781 201.03125 703.386719 199.96875 702.816406 C 198.90625 702.246094 197.859375 701.652344 196.828125 701.035156 C 195.796875 700.414062 194.78125 699.769531 193.777344 699.101562 C 192.777344 698.429688 191.792969 697.738281 190.828125 697.019531 C 189.859375 696.300781 188.910156 695.5625 187.980469 694.796875 C 187.050781 694.03125 186.136719 693.246094 185.246094 692.4375 C 184.355469 691.628906 183.480469 690.800781 182.632812 689.949219 C 181.78125 689.097656 180.949219 688.222656 180.140625 687.332031 C 179.332031 686.441406 178.546875 685.527344 177.78125 684.597656 C 177.015625 683.667969 176.277344 682.71875 175.558594 681.753906 C 174.839844 680.785156 174.148438 679.800781 173.476562 678.800781 C 172.808594 677.800781 172.164062 676.785156 171.542969 675.75 C 170.921875 674.71875 170.328125 673.671875 169.761719 672.609375 C 169.191406 671.550781 168.648438 670.472656 168.132812 669.386719 C 167.617188 668.296875 167.128906 667.199219 166.667969 666.085938 C 166.207031 664.976562 165.769531 663.851562 165.363281 662.71875 C 164.957031 661.585938 164.578125 660.445312 164.226562 659.292969 C 163.875 658.140625 163.554688 656.980469 163.257812 655.8125 C 162.964844 654.644531 162.699219 653.472656 162.460938 652.289062 C 162.226562 651.109375 162.015625 649.925781 161.839844 648.734375 C 161.660156 647.542969 161.511719 646.347656 161.390625 645.152344 C 161.269531 643.953125 161.179688 642.753906 161.117188 641.550781 C 161.054688 640.347656 161.023438 639.144531 161.023438 637.941406 C 161.023438 636.734375 161.054688 635.53125 161.117188 634.328125 C 161.179688 633.128906 161.269531 631.925781 161.390625 630.730469 C 161.511719 629.53125 161.660156 628.335938 161.839844 627.144531 C 162.015625 625.957031 162.226562 624.769531 162.460938 623.589844 C 162.699219 622.410156 162.964844 621.234375 163.257812 620.066406 C 163.554688 618.898438 163.875 617.738281 164.226562 616.589844 C 164.578125 615.4375 164.957031 614.292969 165.363281 613.160156 C 165.769531 612.027344 166.207031 610.90625 166.667969 609.792969 C 167.128906 608.679688 167.617188 607.582031 168.132812 606.492188 C 168.648438 605.40625 169.191406 604.332031 169.761719 603.269531 C 170.328125 602.207031 170.921875 601.160156 171.542969 600.128906 C 172.164062 599.097656 172.808594 598.078125 173.476562 597.078125 C 174.148438 596.078125 174.839844 595.09375 175.558594 594.125 C 176.277344 593.160156 177.015625 592.210938 177.78125 591.28125 C 178.546875 590.351562 179.332031 589.4375 180.140625 588.546875 C 180.949219 587.65625 181.78125 586.785156 182.632812 585.933594 C 183.480469 585.082031 184.355469 584.25 185.246094 583.441406 C 186.136719 582.632812 187.050781 581.847656 187.980469 581.082031 C 188.910156 580.320312 189.859375 579.578125 190.828125 578.859375 C 191.792969 578.140625 192.777344 577.449219 193.777344 576.777344 C 194.78125 576.109375 195.796875 575.464844 196.828125 574.84375 C 197.859375 574.226562 198.90625 573.632812 199.96875 573.0625 C 201.03125 572.496094 202.105469 571.953125 203.195312 571.4375 C 204.28125 570.921875 205.382812 570.433594 206.496094 569.96875 C 207.605469 569.507812 208.730469 569.074219 209.863281 568.667969 C 210.996094 568.261719 212.136719 567.878906 213.289062 567.53125 C 214.441406 567.179688 215.601562 566.855469 216.769531 566.5625 C 217.9375 566.265625 219.113281 566.003906 220.292969 565.765625 C 221.472656 565.527344 222.660156 565.320312 223.847656 565.140625 C 225.039062 564.964844 226.234375 564.8125 227.433594 564.695312 C 228.632812 564.574219 229.832031 564.484375 231.035156 564.421875 C 232.238281 564.359375 233.441406 564.328125 234.644531 564.324219 Z M 234.644531 564.324219 " fill-opacity="1" fill-rule="nonzero"/></g></svg>